<?xml version="1.0" encoding="utf-8"?>
<!-- Generator: Adobe Illustrator 17.0.0, SVG Export Plug-In . SVG Version: 6.00 Build 0)  -->
<!DOCTYPE svg PUBLIC "-//W3C//DTD SVG 1.1//EN" "http://www.w3.org/Graphics/SVG/1.1/DTD/svg11.dtd">
<svg version="1.1" id="Layer_1" xmlns="http://www.w3.org/2000/svg" xmlns:xlink="http://www.w3.org/1999/xlink" x="0px" y="0px"
	 width="646.5px" height="388.7px" viewBox="0 0 646.5 388.7" enable-background="new 0 0 646.5 388.7" xml:space="preserve">
<g id="_x23_33073bff_4_">
	<path fill="#33073B" d="M46.8,43.1c0-1.9-0.2,8.7-1.3,5.4c3,0.6,5.9,1.4,8.7,2.4c3.9-19.3-1.8-1,6.3-7.8c-2.1,3.3-1.1,4.2,3.1,2.9
		c-3.7,5.5-25,15.3-27,1.3C40,45.9,43.4,44.5,46.8,43.1z"/>
	<path fill="#33073B" d="M64.3,43.1c3.5,0.4,13.4,6.4,16.1,1c-1.9,1.1-3.4,0.8-4.4-1c2.8,0,5.5,0,8.3,0c-1.4-1.8,0.5,5.6,0.2,6
		c-6.6-3.1-9.6,0.3-17.1,1.3C71.6,42.7,64,50.7,64.3,43.1z"/>
	<path fill="#33073B" d="M87.2,43.1c14.3,0.7,34.5-3.9,37.1,6.1c11.2-10.4,8.4,5.2,2.6-6.1c3.1,0,6.2,0,9.4,0
		c0-1.3-1.7,16.8,0.7,10.8c-0.6-1.4-1.6-2.6-2.9-3.5c-0.2,0,9.9,3,7.2,3.8c0.7,6.4-0.6,7.1-4.1,1.9c2.6,1.7,3.6,3.7,3.1,5.9
		c-1.1-0.1-14-2.7-11.4-8c-13.1,3,14.9,7.4,0.2,10.6c6-2.2,7.7-1.3,5.1,2.7c-2.1,0.7-19.6-3.6-20.1-9.7c4,0,7.8-3.2,7.2-6.5
		c8.1,6.6-1.4,0,8.9,2.1c0.3,3.8-28.5-6.8-33.1-7c0.7,6,3.5,7.6,8.2,4.8c-2.2,4-12.8,9.4-17.4,10.5c-6.8-0.5,4.1-7.2,3-8.2
		c-6,0.8-9.5,4.8-6.6-4c0.2,6.4,3.7,6.5,10.7,0.3c5.2,2.3-12.2,8.8,4.2,3.6C95.8,45.2,92.7,50.4,87.2,43.1 M90.2,45.1
		c0.9,3.1,3.9,1.1,6.2,1.7C96.9,43.6,92.2,45.6,90.2,45.1 M105.4,45.1c-1.2,5.9,17.4,2.1,18.1,2C118.6,42.9,112.6,42.3,105.4,45.1
		 M110.4,49C114.1,53.9,107.1,49.9,110.4,49 M89.6,56.3c-1.4,1.6,0.7,3.9,2.4,2.6C92.3,57.8,91.1,55.3,89.6,56.3 M133.6,56.3
		c-1.1,1.4,1.1,3.6,2.5,2.5C137.2,57.5,135,55.3,133.6,56.3z"/>
	<path fill="#33073B" d="M150.4,43.1c4.7,0,9.3,0,14,0c3.8,4.9-12.6,1.8-10.8,7.9c2.1,5.4,12,4.2,16.8,5.5
		C158.3,66.9,147.8,53.1,150.4,43.1z"/>
	<path fill="#33073B" d="M198.7,43.1c41.4,8.2,33.7,84.7,66.4,101.3c20.5,16.9,30.3,5.6,44.3,13.7c-2-18.3,15.9-35.5,21.1-9.2
		c6.8,15.7,22.2-3.3,30.6-5.5c1.5,2.8,1.8,12.8,1.9,12.9c0,0,27.2-36.4,28.2-38.1c11.4-20.1,24.5-79.6,50.3-75
		c-1.7,4.3-28.7,50.2-25.1,52.8c-0.2,0,20.5-18.4,23.6-18.7c2.8-4,2.4-5.8-1-5.4c2.8-0.5,4.9,0.6,6.2,3.2c-2.2,2.2-2.4,5.9-5,2.9
		c-2.3,4.6-0.4,8.1,2.1,8.2c-26.7,20.5-36.1,62-58.4,69c-0.3-4.5,0.7-6.5,6.1-1.9c0.7,2.3-11.5,18.6-7.8,17.8
		c12.1,2.5,14.4-18.1,22-16.2c-2.1,17-9.6,15.5-15.8,16c-1.3,12-14.5,6.9-15.4,18.9c3.7-3.6,5.6-7.8,10.2-5.7
		c-0.8,4.2-8,11.7-5.9,18.9c-10.1-5.8,3.8-6-1.1-13.1c-3.6,5-7.6,9.5-11.8,5.8c2.7,2.5,2.7,4.5-0.1,6.1c-4.9,0.2-0.1-7.4-2.5,1.1
		c-10,3.4-1.6-14.9-9.7-0.8c-1.3-2.3-3-10.1-5.9-11.1c-2.2,5.6,0.6-0.5,1,2.8c-0.1-1-15.3,8.5-17,9.4c1.3-5-0.5,20.9-0.6,15.9
		c-24.5-16.7,16.1-29.1,21.5-33.1c22.5-13.4,14.2-16,27.1-37.1c-22.3-0.8-40.2,25.6-54.4,35.8c0.8-0.2-57.5-38.1-59.8-30.8
		c7.6,8.4,3.8,20.9,7.4,28.7c3,7.3,17.6,0.6,25.4,2.6c11.5,9.6,26.3,25.7,18.5,36.9c0-0.1,17.7,1.2,17.6,1.2
		c-0.1,2.4-2.5,13.8-7,13.8c8.8,9.2,23.5,14,24,29.2c0.1,3.1-3.6-1-2.9-1.3c1-0.2,2.4,20.7,2.3,21.3c-3.1-1.5-5.2-4-6.3-7.3
		c-0.2,26.2-10.7,49-22.1,10.1c-3.9-1-4.2,0.4-0.9,4.1c-0.7,0,23.3-40.8,20.3-34.4c12,1.3-13.8,154.4-31.2,108.7
		c-2.1-8.1-31.5-92.4-15.9-103.3c-10.7-0.9,4.5-41.6,8.9-45.2c-22.3,0.5,2.7,3.1-15.9,13.1c-0.3-5,0.9-9.2,1-14.2
		c-7,10-7.4,13.2-1.5,16.7c1.9,13.6-15.7,4.3-20.5,7.3c0.4-3.5,2.9-14.2,8.6-15.1c-2.8,5.3,7.3-3.6,1.4,7.3c9.4,2.1-0.5-10.4-0.3-9
		c7.5,2.8,13.7-14,14.2-20.1c2.3,0.7-14.2-6.5-10.6-6.2c1.6,5.2-3.7,6.8-5,0.6c-21.5-6.1-3.4-10.8-4.5-16.5
		c-13.3,5.6-20.1-32.7-11.8-29.8c-0.2-9.5-28.7-49-25.1-52.4C230.6,101.6,191,51.5,198.7,43.1 M208.3,62.1c-1.1,3.3,1.5,3.4,4.1,3
		C211.9,63.3,209.8,62.9,208.3,62.1 M424.6,91.5C418.6,98.3,425.6,90.9,424.6,91.5 M403.6,98.2c2,6.6-7.7,22.7-4.1,27.1
		c4.1,5,18.4-21,19.7-25.1c1.7-5.5-11.7,0.9-10.9,0.7C410.9,96.2,409.3,95.3,403.6,98.2 M398.6,129.1c0.2,1.4-8.1,13-8.3,11.9
		C391.6,139.9,414.6,130.5,398.6,129.1 M385.7,138.3c-1.1,0.7-3.1,0.2-3.4,1.8C382.7,142.6,388,139.4,385.7,138.3 M327.3,151.1
		c-3.3,12.2-1.4,4.3-13,5.9c5.9,9.8-3.8-5.1-4.5,2.1c0.3-3.4,17.1,12.4,9.8,13.1c4-0.4,10.1-12.5,12.3-14.3
		C330.4,159.2,332.4,149.6,327.3,151.1 M379.4,155.1C379.6,163.5,378.3,155.4,379.4,155.1 M314.5,169.2
		C308.4,178,324.3,170.9,314.5,169.2 M369.6,187.5C361.7,190.3,377.6,184.8,369.6,187.5 M281.3,188.1
		C281,195.4,286.1,189.9,281.3,188.1 M286.3,188c0.3,1.9,1,4.5,3.1,5.2C289.9,190.8,288.3,188.9,286.3,188 M358.3,188.1
		C357.9,193.1,371.2,193.2,358.3,188.1 M272.2,189.3c-0.2,2.7,4.7,5.8,5.6,2.2C279.9,188.4,274.2,189.9,272.2,189.3 M274.7,194.3
		c-0.5,0.7-2,2.7-0.3,2.9C277,198.3,277.2,193,274.7,194.3 M288.5,197.2c-0.5,1.3-1.1,2.5-1.2,3.9
		C290.2,202.4,292,195.8,288.5,197.2 M298.2,200c2.4,15.8,2.6,9.1,1.9,17.9c5.6-1.8,15.8,10.2,1.1,9.1c-0.9-2.8,7.6,13.4,2.3,12
		c4.2,1.1,25.2-3,19.9,8.1c-1.8-0.9-19-13.7-21.9-1.8c0.4-0.7,1,3.6,4.7,3.8c0.5,1.5-12.9,26.2-11,36.8c11.8,1,23.4-7.2,32.8-7
		c2.2,1.9,1.6,3.3-1.7,4.1c17.3-0.9,12.5-14.2,14.1-24.2c8.7,1-34.5-9.4-31.5-4.7c0.5,3.2,21.3-6.8,24.3-7.3
		c2.4-8.2-21.3-11.6-26-10.8c2.9-1.1,2.6-2.2-1-3.3c6.7-9.3,19.7-1.5,6.4-5.9c-1.8-1.4-8.4-10.3-7.1-12.4
		C314.5,214.7,299.5,201.5,298.2,200 M292.3,205.1c-0.4,2,0.5,4.3,2.9,4.1C294.4,207.6,295,204.3,292.3,205.1 M319.3,227.1
		c-0.9,3.5,4,1.5,6,1.9C324.5,227,321.2,227.7,319.3,227.1 M329.2,288c-1.5,0-0.4,15.6,4.9,14.1C332.3,296.9,344.2,279.7,329.2,288
		 M321.1,289.2c-1.9-5-6.6,104.3-2.9,99.4c2-4.6,17.8-66.8-11.8-94.6C308.2,295.6,322.1,289.9,321.1,289.2z"/>
	<path fill="#33073B" d="M489.1,43.1c2.9,0,5.8,0,8.6,0c-3.7,3-9.5,5.8-12.4,9.1C489.3,74,490.1,36.3,489.1,43.1z"/>
	<path fill="#33073B" d="M502.3,43.1c18-4.7,17.6-0.6,15,16c-13,5.6-2.4-12.5-11-6.9c-5.5,3.5,3,6.2-1.6,7.3c0.5-7-13-7.4-6.5-12.5
		C498.9,61.9,503.9,39.7,502.3,43.1 M508.5,44.2c-3.2,2.9,2,1.8,3.9,1.9C511.8,44.2,510.2,43.7,508.5,44.2 M514.6,55.2
		c-1.9,0.7-0.9,3.1,0.8,2.9C517.4,57.9,516.6,54.1,514.6,55.2z"/>
	<path fill="#33073B" d="M478.3,53c-0.4,1.1,20.5,3.5,21.5,7.8c-2.1,4.9-14.6,1.5-5,11.1c0,4.9-16.2-2.3-18.4-2.2
		c0-6,13.8-3.9,15.9-6.5C492.7,62.6,476.5,52.3,478.3,53z"/>
	<path fill="#33073B" d="M98.9,56.9C100.2,61.2,98.6,56.8,98.9,56.9C98,54.1,95.3,56.2,98.9,56.9z"/>
	<path fill="#33073B" d="M147.2,62.8c5.3-2.4,19.3-3.6,25.4-2.8c-0.3,0.3-14.5,7.9-15.3,6.3c3.6,6.9,7.6,0.1,12.9,0.9
		c0.2,2.5,0.7,3.7,2.2,5.7c-9.8-1-7,4.5-19.1,5.3c-3.6,11.1,17.1,5.7,21.3,5.5c-6.1,6.6-6.7,7.9-17.2,13.6c0.3-2,14.4,8.3,13.9,8
		c-22.5,6.6-15.5-17.4-8.8-13.6c-0.5-2.8-12.8-8.3-15-8.8c-5.8-8,8.5-5.6,6.8-10.7C144.6,74.1,149.4,63.2,147.2,62.8
		C148.4,62.3,148.2,63,147.2,62.8z"/>
	<path fill="#33073B" d="M510.3,61.2c-0.8-0.7,28,2.3,0.1,8.8C510.4,67,510.3,64.1,510.3,61.2C512.7,63.2,510.2,64.1,510.3,61.2z"/>
	<path fill="#33073B" d="M91.2,62.1c5,0.6,45.6,18.9,43.2,27C121.6,74.2,103.7,75.9,91.2,62.1C93.3,62.4,93.1,64.2,91.2,62.1z"/>
	<path fill="#33073B" d="M138.5,64.8C131.3,52.6,153.5,75.5,138.5,64.8C137.4,62.9,139.7,65.7,138.5,64.8z"/>
	<path fill="#33073B" d="M81.1,66c4.2-7.6,23.9,12.5,23.2,15.9C96.1,74.5,89.3,74.5,81.1,66C81.4,65.5,81.7,66.8,81.1,66z"/>
	<path fill="#33073B" d="M500.9,70.6c2.9-1.8,5.7-3.6,8.6-5.5c-3.5,3.3-3.4,5,0.2,5.1C487.7,79.2,496.3,72.2,500.9,70.6
		C503.3,68,499.3,71.2,500.9,70.6z"/>
	<path fill="#33073B" d="M88.4,75.1c3.5,1.3,15.5,8.3,12.1,13.3C96.4,84,92.4,79.6,88.4,75.1C89.7,75.6,92.7,79.4,88.4,75.1z"/>
	<path fill="#33073B" d="M474.3,80.2c4.7-1.5,8.5-0.8,11.3,2.2C484.8,82.6,470.4,85,474.3,80.2C476.9,82.6,471.9,83.1,474.3,80.2z"
		/>
	<path fill="#33073B" d="M107.5,81.3C122.1,91,101.4,85.1,107.5,81.3C109.1,82.3,105.7,82.4,107.5,81.3z"/>
	<path fill="#33073B" d="M486.8,83.1C494.4,85.8,474,90.5,486.8,83.1C487.3,83.3,485.2,84,486.8,83.1z"/>
	<path fill="#33073B" d="M194.2,86.2C194.3,85.8,203.7,87,194.2,86.2C194.6,84.3,194.2,86.2,194.2,86.2z"/>
	<path fill="#33073B" d="M140.5,91.3c1.1-4.5,8.3,2.3,9.7,5.8C147.4,95.8,140.9,95.3,140.5,91.3C140.7,90.4,140.9,95,140.5,91.3z"/>
	<path fill="#33073B" d="M461.2,91.3C460.7,91.2,466.7,94.1,461.2,91.3C456.6,90.7,461.5,91.5,461.2,91.3z"/>
	<path fill="#33073B" d="M482.1,89.3C500.7,100.5,481.3,87.5,482.1,89.3C484.8,90.9,482.4,89.8,482.1,89.3z"/>
	<path fill="#33073B" d="M127.2,107.2c3.2-0.5,9.7,1.4,12.2,3.6c5.1-0.3,13,18.7,18,26.2c-7.8,0.6-4.4,2.3-14.1-5
		c1.3-3.8,3-4.1,5.1-0.9C147,119.9,130.7,118.2,127.2,107.2C128.1,107.1,128.4,111,127.2,107.2z"/>
	<path fill="#33073B" d="M164.4,107.6c12-2.3-0.1,3.2,1.1,5.2c27.1,6.7,3.2-4,18.6-2.7c-3.7,2.9-6.3,17.1-19,13.2
		c-0.6,8.3,9.7,7.2,12.4,8.6c-22.2,0.7-11-3.2-5.2-13.6C168.4,116.9,153,110.9,164.4,107.6C166,107.3,162.1,108.3,164.4,107.6z"/>
	<path fill="#33073B" d="M118.3,112c-0.1-1.7,21.3,10.2,16.1,10.8C130.1,123.3,117.1,118.1,118.3,112
		C118.1,109.4,117.4,116.4,118.3,112z"/>
	<path fill="#33073B" d="M478.5,119.5c5.9-0.9-13,12.7-14.3,12.7c11.3,6,13,4.2,20.6,6.7c3.8,5,1.9,9.8-5.7,14.3
		c-4.7-6.7-13.4-16.4-20.1-23.5C464.3,130.3,471.8,124.1,478.5,119.5 M483.6,140.3C481,148.4,480.8,142.6,483.6,140.3
		C483.5,140.7,485,139.2,483.6,140.3z"/>
	<path fill="#33073B" d="M497.8,124.6c3.2-5.5,4.7-3.2,4.4,6.7c-1.1-5.5,11.4-4.5,15.3-2c-11.1,10-29.8,6.4-34.5,8.6
		C491.2,133.5,486.7,128.2,497.8,124.6C498.4,123.5,495.3,125.4,497.8,124.6z"/>
	<path fill="#33073B" d="M189.3,126.2c-3.9-4-2.9-5,3.1-3.1c-0.3,1.4-7.3,21.6-12.2,14c-3.8-5.8,8.2-6.1,7.2-5.9
		C182.5,127.4,183.2,125.7,189.3,126.2C187.5,124.3,187.6,126.6,189.3,126.2z"/>
	<path fill="#33073B" d="M514.5,126.3C521.8,112,517,139.7,514.5,126.3C515.2,124.8,514.8,127.9,514.5,126.3z"/>
	<path fill="#33073B" d="M192.2,139.1c11.4,3.8,5.2-0.2-2.1,8C194.7,144.5,195.4,141.8,192.2,139.1
		C194.4,139.8,192.9,140,192.2,139.1z"/>
	<path fill="#33073B" d="M173.6,141.2C175.8,141.1,173.5,147.6,173.6,141.2C174.3,141.2,173.6,143.2,173.6,141.2z"/>
	<path fill="#33073B" d="M456.3,143.3c2.2,1.5,7.6,0.8,5.8,5.7C458.4,149.1,451.7,147.5,456.3,143.3
		C457.2,143.9,455.6,143.9,456.3,143.3z"/>
	<path fill="#33073B" d="M170.2,147.2c6.2-1.5,8.7,0.4,7.5,5.7C173.5,154.1,171,152.2,170.2,147.2
		C172.6,147.8,170.7,149.4,170.2,147.2z"/>
	<path fill="#33073B" d="M280.3,149c3.7,0.1,12.6,0.6,13,6.2C288.2,155.3,283.8,153.3,280.3,149C284.1,149.1,282.7,151.8,280.3,149z
		"/>
	<path fill="#33073B" d="M186.6,151.2C182.5,151.7,185.6,160.7,186.6,151.2C188.6,151,186.4,153.4,186.6,151.2z"/>
	<path fill="#33073B" d="M200.5,151.4C220.2,152.8,198.1,156.1,200.5,151.4C203.2,151.6,200.3,151.9,200.5,151.4z"/>
	<path fill="#33073B" d="M444.1,151.1c7.9,7.9,10.8,1.8,14.3,8.7c-3.9-0.6-4.3,0.9-1.3,4.3C452.7,161.3,441,160.1,444.1,151.1
		C445.1,152,444,151.6,444.1,151.1z"/>
	<path fill="#33073B" d="M196.3,154.2c7.2,8.3-2.3,15.3-3.3,13.8C192.9,168.5,194.3,150.6,196.3,154.2
		C198.5,156.7,198.8,158.5,196.3,154.2z"/>
	<path fill="#33073B" d="M218.2,155.2c3.1-0.3,6.2-0.6,9.3-1c1,12.2-17.8,28.4-18.2,40.9c10.3-2,17.9-22.6,22.2-29.7
		c-9.5,1.2-0.6-6.8,2.7-10.4c-1.3,4.7-0.2,6.2,3.2,4.3c-1.1,5.7-0.6,15.7-2.7,21c1.9-3.3,4.7-5.4,8.6-6.3
		c0.3,5.3-12.7,34.5-7.2,37.2c2.4-13.6,3.8-22.8,17.5-19.8c-2.5,6.5-6.5,44.6-7.3,45.5c3.5,0.3,11-4.7,13.2,0c-4.5-2-5.2,0-2.2,5.9
		c-10-3.9-9.6,4.1-17,2.3c-0.7-8.9-11.6-11.9-3.9-27.2c-10.5,0.6-1.1,6.6-14.1,1.3c3.1-8.6,5.8,0.4,8.1-15.3
		c-3.9,0.4-7.7,10.6-12.6,5.4c0.6,0.7,10.5-27.9,8.9-27.1c-9.3,22.4-25.1,21.3-13.2-3.3c-10.8-0.9-12.4,14.9-16.3-4.7
		c-0.6,0.7-1.2,1.5-1.7,2.4c-9-5.6,10.1-8.8,10.6-7.4c-2.2,4.5-4.1,9.1-5.8,13.9C211.5,181.2,224.2,162.8,218.2,155.2 M233.5,181.2
		c-1,0.4-2.3,3.4-0.2,2.8C236.1,185.7,236.3,179.6,233.5,181.2 M226.3,197.2c-5.7,1.3-2.7,7.5,3.3-2.1c2.9,2.1,3.4,4.8,1.7,8
		c3.2,0.5,2.2-15.6,2.1-16C229.5,189.4,227.2,192.7,226.3,197.2 M232.6,211.2c-1.9,0.7-0.9,3.1,0.8,2.9
		C235.4,213.9,234.6,210.1,232.6,211.2z"/>
	<path fill="#33073B" d="M410.8,166.6c1.4,1.3,29.2,24.6,28.6,29.5c2.2-1.1,21.1-12.3,20.3-12.7c-0.7-0.4,4.1,5.8,3.8,7.7
		c-8.2-13.6-28.1,28.1-28.9,29.2c0.8-6.3-0.1-7-2.9-2.1c1-9,6-15.4,6.8-24.6C422,192.5,410.2,165.5,410.8,166.6 M436.5,208.3
		C428.8,211.4,447,207.4,436.5,208.3C434.7,209,437.2,208.2,436.5,208.3z"/>
	<path fill="#33073B" d="M445.9,167.3C448.8,160.4,454.2,168.6,445.9,167.3C446.4,166,447.4,167.6,445.9,167.3z"/>
	<path fill="#33073B" d="M442.5,169.4c2.3,1.9,4.6,3.7,6.8,5.6C445.3,177.1,442.1,171.4,442.5,169.4
		C446.2,168.9,442.4,169.7,442.5,169.4z"/>
	<path fill="#33073B" d="M472,172.9c4.6-0.3,9.1,0.5,13.3,2.3C485.1,187.3,470,174,472,172.9C474.9,172.5,471.1,173.4,472,172.9z"/>
	<path fill="#33073B" d="M399.1,176c2.5-4.7,14.6,26.1,18.3,32.2C408.8,207.3,401.7,180.3,399.1,176
		C399.7,174.7,401.6,180.1,399.1,176z"/>
	<path fill="#33073B" d="M412.3,177.1c4.8-1.2,6.5,7.9,3.3,11.1C414.5,184.4,413.4,180.8,412.3,177.1
		C413.8,176.7,413.1,180.8,412.3,177.1z"/>
	<path fill="#33073B" d="M438.3,178.1c6.7-0.1,11.6,6.2,17.6,0.6C456.9,189.8,439.5,186.1,438.3,178.1
		C439.6,178.1,438.4,178.6,438.3,178.1z"/>
	<path fill="#33073B" d="M250.4,186.9C250.5,176.3,259.2,198,250.4,186.9C250.4,184.6,251.4,188.2,250.4,186.9z"/>
	<path fill="#33073B" d="M479.2,185.2C491.7,186.4,474.3,190.2,479.2,185.2C480.5,185.4,477.9,186.5,479.2,185.2z"/>
	<path fill="#33073B" d="M422.2,191c1.7-1.5,2.9,4.9,0,4.4C421.5,194.1,422.3,192.5,422.2,191z"/>
	<path fill="#33073B" d="M461.3,192.5c4.2,1.2,1.9,2.8-7,4.6C456,194.5,458.3,193,461.3,192.5C461.6,192.7,460.4,192.8,461.3,192.5z
		"/>
	<path fill="#33073B" d="M401.4,193.2C394.9,192.4,402.6,200.2,401.4,193.2C404.9,193.6,401.9,196.2,401.4,193.2z"/>
	<path fill="#33073B" d="M417.5,195c7.1,13.3,3.2-2.8,10.7,5c-3.6,1.7-0.7,13.3-4.7,13.3c1.2-3.9-0.9-1.9-4.3-2.2
		C425.6,202.8,417.2,204.1,417.5,195C418.3,196.5,417.4,197.4,417.5,195z"/>
	<path fill="#33073B" d="M400.5,203.2C407.3,201.2,396.1,217.3,400.5,203.2C402.7,202.6,400.2,204.1,400.5,203.2z"/>
	<path fill="#33073B" d="M404.4,203.2C406.6,202.3,408.8,214.1,404.4,203.2C406.2,202.5,405,204.6,404.4,203.2z"/>
	<path fill="#33073B" d="M386.1,207.4c12.1,26.5,13.7,3.9,18,4.8c4.1,5.2,7.5,10.8,10.2,16.9c-3.3,2.8-7.9,5-10.1,0.9
		c-3,0.8-0.5,10.3-13.9,9.3c1-2.8-6.3-15.2,8.1-3.2c5.8-18.6-32.9-2.9-31.7-21.2c1.4,4.3,4.4,5.7,8.9,4.1c-1.2-0.5-2.3-1.2-3.1-2.2
		c0.7,2.4,15.4,3.4,17.9,4.1C390.9,217.5,387.2,210.8,386.1,207.4z"/>
	<path fill="#33073B" d="M273.6,212.7c5.4-1.2,7.3,1.4,5.5,7.6C269.3,219.5,270.6,218.8,273.6,212.7
		C275.2,212.3,273.1,213.7,273.6,212.7z"/>
	<path fill="#33073B" d="M409.1,212.9c3.4-2.3,6.6-1.2,9.6,3.4C414.2,219,411,217.9,409.1,212.9
		C409.7,212.7,410.4,214.4,409.1,212.9z"/>
	<path fill="#33073B" d="M420.4,223c14-5.7,0.8,14.5-5.5,11.9C410.4,233.1,420.4,224.2,420.4,223C422.3,222.3,420.4,224.4,420.4,223
		z"/>
	<path fill="#33073B" d="M249.4,227C257.6,225.5,244.5,228.7,249.4,227C251.4,226.6,249.4,227,249.4,227z"/>
	<path fill="#33073B" d="M366.3,227.1C373.5,231.6,366.5,234.2,366.3,227.1C367.6,227.9,366.4,228.9,366.3,227.1z"/>
	<path fill="#33073B" d="M291.3,229.8c7.4-0.5,4,8.7,4.7,10.2C289.1,239,290.9,235.7,291.3,229.8
		C295.2,229.6,291.2,231.4,291.3,229.8z"/>
	<path fill="#33073B" d="M322.5,262.3c3.3-1.1,6.5-2.1,9.8-3.2c-0.4,6.7-22,26.7-23,11.4C309.1,268,327.2,270,322.5,262.3
		C325.3,260.2,324.9,266.2,322.5,262.3z"/>
</g>
<rect x="0" y="0" fill="none" width="646.5" height="388.7"/>
<g>
</g>
<g>
</g>
<g>
</g>
<g>
</g>
<g>
</g>
<g>
</g>
<g>
</g>
<g>
</g>
<g>
</g>
<g>
</g>
<g>
</g>
<g>
</g>
<g>
</g>
<g>
</g>
<g>
</g>
</svg>
