<?xml version="1.0" encoding="utf-8"?>
<!-- Generator: Adobe Illustrator 17.0.0, SVG Export Plug-In . SVG Version: 6.00 Build 0)  -->
<!DOCTYPE svg PUBLIC "-//W3C//DTD SVG 1.1//EN" "http://www.w3.org/Graphics/SVG/1.1/DTD/svg11.dtd">
<svg version="1.1" id="Layer_1" xmlns="http://www.w3.org/2000/svg" xmlns:xlink="http://www.w3.org/1999/xlink" x="0px" y="0px"
	 width="647.5px" height="388.7px" viewBox="0 0 647.5 388.7" enable-background="new 0 0 647.5 388.7" xml:space="preserve">
<g id="_x23_33073bff_10_">
	<path fill="#33073B" d="M11.4,43.1C16.5,45.8,12.4,43.6,11.4,43.1L11.4,43.1z"/>
	<path fill="#33073B" d="M98.4,43.1C105.5,44.9,100.3,44.5,98.4,43.1C98.4,43.1,99,43.5,98.4,43.1z"/>
	<path fill="#33073B" d="M357.9,106.4c-2.3,3.9-4.8,7.9-7.4,11.6C353.5,115.4,355.9,111.3,357.9,106.4z"/>
	<path fill="#33073B" d="M375.5,68.5c-2.3-1.9-3.4-5-3.1-8c-0.7-7.3,3.6-15.1,11.1-15.9c-23.2-25-39.1,51.6-49.5,58.2
		c1.4-0.9-9.6-8.6-9.7-9c-4.7,2.2-15.1,8.7-19.8,10.3c-9.6,20.5-35.7-15.8-34.1-23.1c-0.2-4.2,4.9-0.9,6,7.2
		c9.5-8.4,11.6-15.6,10.5-21.6c-1.4,3.9-7-4.6-7.5-1.6c-9-1.7,1.2-3.9,5.8-3.3c-2.2-4.2-5.9-7.5-8.9-9.8c0.1,0.2,2.9,8.9-1.1,7.1
		c-6.2-2.7-3.9-20-15.1-11.1c1.1-0.9-8-4.8-9.8-5.1c0.4,3.8,7.2,11.5,10.1,13.3c2.2-1.8,2.8-4,1.6-6.5c3.9,1.7,15.4,24.3,14.7,26.1
		c-0.6,1.5-11.1-16.1-13.5-20c-2.8,4.1-2.9,3.6-5.8,6.5c11,12.2-1.6,4.4,1.8,11.9c1.5-0.3,5.3-3.7,7-1.3c-0.9-0.3-6.6,4.9-6.7,7.9
		c1.8-2,3.9-2.4,6.4-1.2c7.9,10-31.8,13.9-24.5,29.3c8-3.5,0.9,1.2,3.2,5.9c3.8-4.5,7.3-9.1,10.7-13.9c-3.6-0.6-6.1,0.8-7.6,4.3
		c9.9-30.3,28.1,6.2,36,11.5c-5.1,0.5,39.5,7.9,29.9,4.3c6.8,1.3,1,18.1,12.2,10.9c-3.1-6.1-5.7-5.7-2.7-14c9.3-3,1.7,17,5.5,16
		c7.8,0.9,15.4-6.6,22.2-16.1c-3.6,3.1-8,4.2-13.5,2.1c-1.2-0.5,5.8-9.4,7.1-10.2c-6.8-1.3-3.9,0-4.6-6.7c-2.2-0.4,23-4.4,17.7-13.8
		c-0.2,7-11-4.8,1.8-6.3c0.1,0,2.9,5.8,3.2,6.1c0-5.7-8.5-21-9.6-20.3c-2.7-2.3,12.7-8.1,13-8.8c0,0.1-0.4,28.3-7.7,46.3
		c5.2-8.8,9.5-17.3,12.5-21.6c-11.5-5.8,13.5-11.7,13.3-11.4C380,72.6,377.3,70.8,375.5,68.5z M309.1,115.2c-2.9-1-0.9-3.9-0.5-5.9
		C312,108.2,308.7,113.3,309.1,115.2z M325.5,101.3c1.8,1.2,3.5,4.5,3.1,7.2c-1.4-0.5-6.8,1.5-5.6,2.5
		C320.1,109.1,325,102,325.5,101.3z M322.6,113.2c2.3-0.4,5.7,1,5.9,3.7C325.2,116.5,319.3,117.4,322.6,113.2z M332.5,115.2
		c1-3.9-5-2.2,0.2-4.8C337.2,108.4,333.4,113.3,332.5,115.2z"/>
	<path fill="#33073B" d="M287.2,63c0-0.6-0.9-0.9-2-1.1c0.8,1.5,1.4,3.2,1.8,4.9C287.2,66.1,287.3,64.9,287.2,63z"/>
	<path fill="#33073B" d="M284.6,59.3C284,65.3,290.6,58.8,284.6,59.3"/>
	<path fill="#33073B" d="M320.5,100.2C319.5,104.9,325.1,99.2,320.5,100.2"/>
	<path fill="#33073B" d="M310.5,101.5C308.7,106.2,314.8,101.7,310.5,101.5"/>
	<path fill="#33073B" d="M308.6,105.3C306.5,110.6,312.8,104.6,308.6,105.3"/>
	<path fill="#33073B" d="M314.4,110C320.4,117.7,315.4,101.1,314.4,110"/>
	<path fill="#33073B" d="M316,115.2C313.6,114.3,316.8,118.7,316,115.2"/>
	<path fill="#33073B" d="M295.5,117.2"/>
	<path fill="#33073B" d="M552.8,43.1c4.5-2.8-4,10.2-8.5,1C547.1,43.8,550,43.4,552.8,43.1z"/>
	<path fill="#33073B" d="M580.4,43.1C591.8,45.8,580.3,45.2,580.4,43.1C580.4,43.1,580.3,43.6,580.4,43.1z"/>
	<path fill="#33073B" d="M621.9,43.1c7.9,1.3,4.9,2.7,6.2,2.9c-12.7,2.2-39.9,7.7-41.8,5.2c-3.7-4.8,13.8-1.6-3.7-5.4
		c-1.9,1.7-1.1,5.6,0.3,7.4c-2.6,1-5.3,2.1-5.6,2c6,11.6,12-1.5,19-2.3c-3.6,3.8,10.1,20.9,10.3,20.8c-19,7-36.2,9.4-50.4,9.7
		C553,85.3,518.1,90,509,96.1c-15.9,4.4-36.4,21-50.6,21c0,0.1,1.3,6.2,2.2,9.9c-28.9,7.2-71.3,29.1-64,45.2
		c3.9-0.6,7.1,7.4,9.3,3.8c1.4-7.6-3.4-21.1,12-19.5c-0.8-0.1,21.2-10.9,21.2-10.9c-0.6-0.9,5.1,7.5,7.6,7.5
		c-8.3,8.4-16.6,23.8-27.4,14.8c2.6,2.1,4.5,21.5-6,19.3c2.9-7-7.3-7.9-7.2-8c3.4,12.2-26.3,13.5-25.5,29.1c0.1,0,2,14.1,4.1,14.9
		c-3.7,2.2-15.8,8.7-11.2,16.8c3.6-2.2,21.4-20.8,24.9-13.1c0.2,0.4,0.3,0.8,0.4,1.1c1.6-3.2,3.2-7.1,5-12.2
		c6.9,2.4,5.2,7.6,6.1,13.2c2.6-6.7,4.3-8.3,5.8-10.1c-8.3,1.2-16.1-9.6-8.1-16.1c5.6-4.6,12.2-8.4,19.1-10.6
		c5.1-13.7,12.3-31.9,13.7-17.4c3.4-1.5,10.7-6.9,14.9-10.4c4.1,2.5,7.7,1.3,10.8-3.7c1.2,0,2.2-0.8,3.1-2.5
		c-5.1-5.3-10.9-5.9-17.4-1.8c-1.6-1.9-1.7-3.9-0.5-6c6.2-2.4,12.8-3.5,19.6-3.3c3.3,0.5-7.1,4.8-4.2,7.7c5.6-4,8.2-4.9,14.9-5.8
		c0.2-1.2-0.1-2.1-0.7-2.7c0.6,0.2,1.2,0.3,1.8,0.5c-1.2-1.3-2-2.8-2.5-4.5c-1.4-0.9-2.5-2.3-3.2-3.9c-9.5,0.4-18.9,1.5-20.5,0.5
		c2.1,1.2,12.6-4.8,21.1-10.1c1-1.7,2.6-3,4.8-3.7c-3.5-1.1-9.3-0.8-16.1,0.5c6.5-3.4,16.6-4.5,19.4-2c2.3-1.5,3.6-2.4,3.5-2.2
		c-1.8,2.1,26.1-3.1,32.4-9.6c0.4-0.4-7.6-2.6-6.6-5.3c5.1-13.2,33.6-9.8,50.1-8.4c1.7-0.9,3.4-1.7,5.2-2.4
		c6.5-2.6,13.1-3.5,19.8-5.1c1-0.2,1.9-0.5,2.9-0.8c0.2-0.8,0.2-1.3-0.2-1.3c1.9-0.7,2.7-0.4,2.9,0.5c2.6-0.8,5.3-1.8,7.9-2.7
		c-4.6-1.1-9.7-4.1-6-4.2c2.9-4.3,7-6,12.1-5.1c-0.7,3.4-2.8,5.2-6.2,5.2c0.1,0.7,1.3,2.1,2.6,3.1c4.3-2.9,8.2-7.5,10.2-15.5
		C616.6,67.4,663,35.3,621.9,43.1z M391,223.7c-0.2,0.1-3.4-16.2,0.4-16.8C390.7,199.7,412.1,214.4,391,223.7z M461.6,158.1
		c1.5,1.8,2.9,2.7,4.1,2.8C460.2,164.5,458.8,163.5,461.6,158.1z M444,142.7c-3.8,1.6,0-1.7,2.4-2.5
		C447.5,130,450.1,140.2,444,142.7z M448.9,145.1c0.8-1.5,2-4.3,2.3-5.2C455.3,133.8,457,146.4,448.9,145.1z M493.3,116.5
		c-6-0.1-6.5-1.2-1.6-3C501.5,115.5,502,116.5,493.3,116.5z M500.4,108.3c1.4-1.3,3-4.3,2.9-3.9C508.2,104,520.7,111,500.4,108.3z
		 M522.7,94.4c1.6-0.7,3.7-0.7,5.3,0C527.3,95.7,523.3,95.7,522.7,94.4z M533.2,93.1c0.9-2.8,4.1-0.1,3.3-4
		C543.8,88.7,537.1,94.7,533.2,93.1z M611.6,61.3c1.2-2.6-0.9-5.6,0.9-8C616.7,51.5,615.3,61.6,611.6,61.3z"/>
	<path fill="#33073B" d="M385.5,222.6c0,0,0.1-0.1,0.1-0.1C385.6,222.5,385.6,222.5,385.5,222.6z"/>
	<path fill="#33073B" d="M368.7,254.3c14.8-11.2,21.2-12.6,26.8-20.8C387.8,237.8,368.7,238.8,368.7,254.3z"/>
	<path fill="#33073B" d="M398.6,228.2c-1,2.1-2,3.8-3,5.3C397.9,232.2,399.2,230.6,398.6,228.2z"/>
	<path fill="#33073B" d="M635.6,47.3C633.5,52.6,639.8,46.6,635.6,47.3"/>
	<path fill="#33073B" d="M610.6,51.2C606,55.8,615.2,51.9,610.6,51.2"/>
	<path fill="#33073B" d="M618.6,52.4C616.7,58,624.5,51.4,618.6,52.4"/>
	<path fill="#33073B" d="M630.3,53.1C629.4,61.3,636.7,51.6,630.3,53.1"/>
	<path fill="#33073B" d="M614.5,71.5C613,76.1,618.7,72.7,614.5,71.5"/>
	<path fill="#33073B" d="M590.5,83.5C589.1,89.6,596.4,84.6,590.5,83.5"/>
	<path fill="#33073B" d="M530.5,92.2C529.5,96.9,535.1,91.2,530.5,92.2"/>
	<path fill="#33073B" d="M434.5,140.3C430.4,143.3,437.6,143,434.5,140.3"/>
	<path fill="#33073B" d="M448.6,154.4C447.7,160,453.1,155.9,448.6,154.4"/>
	<path fill="#33073B" d="M448.6,163.4C447.7,169.3,454.2,161.5,448.6,163.4"/>
	<path fill="#33073B" d="M425.7,184.3C426.1,188.7,430.3,183.4,425.7,184.3"/>
	<path fill="#33073B" d="M7.7,47c-0.4,1.4-0.7,2.8-1.1,4.2C8,51,9,50,8.6,47.9C8.5,47.8,8.2,47.4,7.7,47z"/>
	<path fill="#33073B" d="M48.2,52.1c-6.3-2.8-6.6-5.2-0.9-7.2c5.1,4.5,32.8,13.7,32.8,15.7C80.3,71.8,50.6,55.6,48.2,52.1
		C44.1,50.1,48.6,52.7,48.2,52.1z"/>
	<path fill="#33073B" d="M204.7,53.3c2.2-2.1,4.5-4.2,6.7-6.3c0.3,2.3-10.9,18.7-12.3,21c0.2,0.2-6.8,0.6-6.1-0.5
		C196.6,61.7,202.4,54.5,204.7,53.3C207.2,51.6,203.5,53.9,204.7,53.3z"/>
	<path fill="#33073B" d="M537.5,47.4"/>
	<path fill="#33073B" d="M4.9,57.8c1.1-0.8,2.2-1.6,3.4-2.5c-0.9-0.3-1.7-0.8-2.4-1.1C5.6,55.4,5.3,56.6,4.9,57.8z"/>
	<path fill="#33073B" d="M8.3,55.3c1.6,0.5,3.5,0.3,5.9-3.1C18.1,48.7,13.2,51.8,8.3,55.3z"/>
	<path fill="#33073B" d="M509.6,53.4C513.5,56.9,509.4,55.4,509.6,53.4C509.6,53.4,509.6,53.8,509.6,53.4z"/>
	<path fill="#33073B" d="M513.6,54.3c10.6-6.4-5.7,17.2-11,7.7C505.9,57.9,510.1,57.2,513.6,54.3z"/>
	<path fill="#33073B" d="M524.5,53.2C527.5,53.4,526.3,54.6,524.5,53.2C525,53.2,524.5,53.2,524.5,53.2z"/>
	<path fill="#33073B" d="M240.7,57.9c6.5,2.4,8.7-0.8,14.9,4.1C250.4,67.1,243.6,58.7,240.7,57.9z"/>
	<path fill="#33073B" d="M32.3,64.3c-2.8-8,4.3,6,5.4,12.3C28.6,81.7,32.2,64,32.3,64.3z"/>
	<path fill="#33073B" d="M488.7,65.4c1.1-3.4-22,29.6-37.5,15.9C461.7,70.8,479.6,75,488.7,65.4C490.5,59.7,486.8,67.4,488.7,65.4z"
		/>
	<path fill="#33073B" d="M3.9,64.1c0,0.7,0,1.5,0,2.2C5,66.1,6.5,67.1,5,69.1c1.2,2.7-1,2.8-2,1.9c-0.2,0.6-0.5,1.2-0.8,1.8
		c1.3,0.7,2.9,1.1,5.1,1.3C9.3,68.2,8.2,64.8,3.9,64.1z"/>
	<path fill="#33073B" d="M254.1,67.9c-5.5-9.1,6.2-0.1,5.2-0.5c-4,5.9-3,0.3-3.7,8.8c0.8-9.1-19.5,2.7-20.2,1.7
		C236.3,72.1,248.7,66.6,254.1,67.9C253.3,66.5,251.7,67.4,254.1,67.9z"/>
	<path fill="#33073B" d="M88.3,70c1.4-3.7,3.8-4.4,7.2-2.3c2.8,2.4-9.5,8.1-9.4,8.3C84.2,73.2,96.1,66.6,88.3,70
		C87.5,63.9,92.2,68.3,88.3,70z"/>
	<path fill="#33073B" d="M520.2,67.4c1.8-1.9,3.4,2.1,0.9,2.1C520.9,69,520.4,67.9,520.2,67.4z"/>
	<path fill="#33073B" d="M535.6,67.3c8.6,3.1,4.5,5.3,2.6,10.6c47.9,12.9,0.8-3.6,12.6,6.1c-11.5,1.7-11-8.2-14.1-10.6
		C533.7,71.1,537.7,76.7,535.6,67.3C537.1,67.8,535.7,68,535.6,67.3z"/>
	<path fill="#33073B" d="M75.3,73C78.1,69.8,81,76.3,75.3,73C75.5,72.8,75.9,73.4,75.3,73z"/>
	<path fill="#33073B" d="M109.2,72c2.9,2.7,24.9,5.9,21.9,11c-8.5-11.3-23.3-1.1-32.1-1.5C98.5,75.6,112.5,79,109.2,72
		C109.5,72.3,112,77.9,109.2,72z"/>
	<path fill="#33073B" d="M510,72.9C512.6,71.1,509.4,79.5,510,72.9C510.3,72.7,510,73.5,510,72.9z"/>
	<path fill="#33073B" d="M0.7,75.3c-0.1,0.2-0.2,0.3-0.3,0.5c0.2,2.5,1.5,8.1,3.5,9.6c0.6-3,1.4-2.9,2.5,0.2
		C11.4,77.6,9.2,76.1,0.7,75.3z"/>
	<path fill="#33073B" d="M243.5,79"/>
	<path fill="#33073B" d="M251.3,80.4C250.5,80.1,257.9,84.7,251.3,80.4C244,77.3,251.6,80.6,251.3,80.4z"/>
	<path fill="#33073B" d="M83.2,79.9C91.8,73.4,80.3,81.7,83.2,79.9C85.9,77.9,79.9,81.9,83.2,79.9z"/>
	<path fill="#33073B" d="M238.4,83c14.2-10-3.2,9.9-6.1,7.5C228,87,238.1,83.7,238.4,83z"/>
	<path fill="#33073B" d="M396.6,81.5c-0.3-2.1,14.9,0,5.8,5.6C400.8,84.6,398.7,82.6,396.6,81.5z"/>
	<path fill="#33073B" d="M133.6,80.4"/>
	<path fill="#33073B" d="M502,82.2c3.4-1.3,6.8-1.4,10.3-0.2c-10.5-2.2-8.2,7.5-10.1,9.6c-15.8-3.9-2.5,4.6-14.8,4.3
		C483.6,92.6,502.1,80.9,502,82.2C502.7,77.2,501.9,85,502,82.2z"/>
	<path fill="#33073B" d="M17.6,82.4C25.3,80,47.2,97.9,58.4,111C47,113.1,32.2,90.1,18.3,86c4.2,3.1,4.2,4.8,0,5
		C13.7,89.7,13.5,86.8,17.6,82.4C15.4,83.1,16.3,84.5,17.6,82.4z"/>
	<path fill="#33073B" d="M114.5,81.4c8.7-1-4.6,13.7-8.2,1.8C107.2,83.3,116.8,84.5,114.5,81.4C114.9,81.3,116.1,83.6,114.5,81.4z"
		/>
	<path fill="#33073B" d="M249.4,81.2c0.7,2.2,6.8,2.7,8.1,2.8c-2,1.9-14.5,10-16.3,10.2C243.3,89.4,246.1,85.1,249.4,81.2z"/>
	<path fill="#33073B" d="M55.3,94c1.4-1.6,3.3-2.8,5.9-3.1c-5.4-2.4-14.4-4.5-15.5-4.9c-0.2-0.4-0.4-0.9-0.1-0.1
		c0.1,0.2,0.2,0.3,0.2,0.3C47.4,88.8,52,91.8,55.3,94z"/>
	<path fill="#33073B" d="M255.9,90.3c1.6-4.2,4.1,0.4,0.2,0.6L255.9,90.3z"/>
	<path fill="#33073B" d="M176.2,97c0.8-0.4,1.7-0.7,2.8-0.8c2.9-1.2,5-3.4,3.4-7.2c-3.6,2.3-7.3,4.6-10.9,7
		C166.8,97,171.5,97.9,176.2,97z"/>
	<path fill="#33073B" d="M373.4,95.8c4.9-2.6,6.9-1.6,6.1,3.2c-1.8-0.4-7.6-1.9-8.9-0.2c1.6-2,16.6,21.5,16.3,27.5
		c2.2-0.2-21.7-15.8-22.6-16.1C367.6,110,364.8,95.8,373.4,95.8C377.5,95.5,367.3,95.8,373.4,95.8z"/>
	<path fill="#33073B" d="M125.6,94.8c2.8,1.5,5.8,1.6,8.7,0.2c-0.1,0.4-2.4,6.4-3.2,5.7c1.3,1.1,19.7,4.3,14.2,9.7
		C135.6,119.9,127.5,99.5,125.6,94.8C128.6,99.2,126,95.8,125.6,94.8z"/>
	<path fill="#33073B" d="M380.5,100.2c5.2-5.8,4-3.1,6.1,0.9C381.9,103.9,376.7,103.7,380.5,100.2C382,98.5,379.8,100.8,380.5,100.2
		z"/>
	<path fill="#33073B" d="M403.3,97.1c-0.3-0.6,8-0.5,10.3,3.8C412.6,100.7,401.1,100.6,403.3,97.1C405,100,401.5,99.9,403.3,97.1z"
		/>
	<path fill="#33073B" d="M418.4,99.2C419.6,98.1,408.7,104.9,418.4,99.2C418.4,99.2,417.1,99.9,418.4,99.2z"/>
	<path fill="#33073B" d="M212.3,168.4c-15.7-2.2-68.8-29.7-89.1-25.9c10.4-2.5,30.7-2.8,33.3-3.3c-4.3-19.4-40.4-27.9-65.6-35.1
		c-0.3,0-0.7,0.1-1,0.1c-2.6,0-4.6-0.8-6-2.1c-1.2-0.4-2.3-0.7-3.4-1.1c-3.3,3.1,56,35.6,56.9,35.3c-4.2,1.6-82.3,4-66.1-14.9
		c3.3,3,18.7,8.5,23.3,6.7c-4.7-4.4-8.9-6.1-11.3-6.7c0.8,0,1.9-0.1,3.2-0.2c0.8-8.1-20.7-7.7-24.3-5.9c1.4,1.8,3.1,3.3,5,4.6
		c-2,1.3-6.4,6.3-3.2,6.9c-9.2-1.1-25.2-21-33.7-25.4c2.8,13.4,20.6,30.4,36.3,42.7c3.2-0.2,6.5,1.1,8.5,4.9c0.5,1,0,0.6,1.5,1.9
		c-1.1-0.9,0.9,0.3,1.3,0.6c0.1,0,2.4,0.9,2.8,1c1.1,0.3,2.2,0.6,3.3,0.9c1.9,0.4,3.9,0.7,6,1c-2.5-2.8-4-5.4-3.3-6.2
		c-1.1,1.3,7.3,4.8,15.6,8.2c4.2,1,8.1,2.4,12.2,4.5c1,0.5,1.9,1,2.9,1.5c-0.4-3.1-2.6-8-7-6.6c0.8-5.1,28.5,1.6,40.9,3.2
		c-3.3-0.2-7-0.3-7,0.1c23.4,8.2,40.5,21.7,57.3,36.3c3-5.1-5.8-8.7-4.6-11.4c1.8,1.9,3.6,1.9,5.6,0c-1.5-1.4-12.1-12.2-8.4-13.5
		c-0.6,0.2,7.1,1.7,12.8,1.6c1.6-1,3.4-1.5,5.4-1.5h0.4C212.9,169.9,212.8,169.2,212.3,168.4z M67.3,129.2c0.1,0-0.7-2.1,6,6
		C70.4,134.1,68.4,132.1,67.3,129.2z M84.2,145.9c-2,2.6-2.8-1.6-3.9-2.9C82.2,142.8,85,143.5,84.2,145.9z M88.5,140.1
		c2,1.1,1.1,4.2,1.5,6.2C86.9,146,87.8,142.1,88.5,140.1z M90.5,137.5c1.6,0.2,4,1.6,3.9,3.5C92,142.5,85.9,137.8,90.5,137.5z
		 M97.5,148.2c1.9-0.2,1.9,2.5,2,3.8C97.3,151.8,94.9,149.9,97.5,148.2z M96.2,144c4.1,0.3,10,2.7,10.1,4.7
		C102.6,148.8,98.4,149.5,96.2,144z M117,145.6c0.3-0.9,1.5-1.6,3.2-2.3C118.9,143.9,117.8,144.6,117,145.6z M191.5,183.3
		c-0.3-3.1-16.1-8.6-7.8-14C185.7,171,200.3,178.3,191.5,183.3z"/>
	<path fill="#33073B" d="M64,126.6c0.1,0,0.1,0,0.2,0C64.2,126.6,64.1,126.6,64,126.6z"/>
	<path fill="#33073B" d="M124.5,119.2C123.5,123.9,129.1,118.2,124.5,119.2"/>
	<path fill="#33073B" d="M139.7,135.3C141.8,139.7,145,133.9,139.7,135.3"/>
	<path fill="#33073B" d="M75.5,137.4C74.6,142.1,79.9,137.9,75.5,137.4"/>
	<path fill="#33073B" d="M122.5,141.2C118.9,144.9,127.4,141.4,122.5,141.2"/>
	<path fill="#33073B" d="M91.6,143.4C91.7,147.4,98.1,140.8,91.6,143.4"/>
	<path fill="#33073B" d="M406.4,107.2c3.4-3.5,6.3-3.6,8.8-0.3C410.6,109.9,404.5,107.7,406.4,107.2
		C409.5,107.1,401.8,108.5,406.4,107.2z"/>
	<path fill="#33073B" d="M537.5,107.2c3-0.2,6-0.3,9.1-0.5C540,112.7,537,112.9,537.5,107.2C540.7,108.6,537.6,108.3,537.5,107.2z"
		/>
	<path fill="#33073B" d="M147.4,108.3c2-2.8,33.9,8.3,35.1,14.8C181.9,119.7,146.6,123.2,147.4,108.3
		C149.5,105.4,147.2,111.7,147.4,108.3z"/>
	<path fill="#33073B" d="M429.5,107.2c6.1,13.9-22,47.7-42.1,21.9c0,0,11.6,6,9.5,7.6c-0.7-1.8-0.9-3.6-0.5-5.5
		c11.8,1,19.4-18.7,26.2-17.7c0,0.1-6.1,13.3-7.7,11.9C419.1,128.9,428.8,108.1,429.5,107.2z"/>
	<path fill="#33073B" d="M253,109.2c5.3-2.5-0.6,18-4.7,16.6C248.1,116.3,247.7,119,253,109.2C254.2,108.7,252.5,110.2,253,109.2z"
		/>
	<path fill="#33073B" d="M526.6,108.1c13.7,1.9-1.9-0.3,3,4.4C525.8,113.4,520.8,107.7,526.6,108.1
		C528.1,108.3,523.9,107.9,526.6,108.1z"/>
	<path fill="#33073B" d="M74.5,114.2c-3.4,3.1-4.2-2.5,0.1-0.7L74.5,114.2z"/>
	<path fill="#33073B" d="M138.4,113.2c0.5,0,1.4,0,1.9,0C141.4,115.8,137.3,115.8,138.4,113.2z"/>
	<path fill="#33073B" d="M368.8,121.4c5.3-4.2,9.4-3.2,12,3c-15.1,7.5-17.8,11.2-0.6,21.1c3.6-0.4-2-7.1-2-9.1
		c4.3,4.8,8.7,5,6.9,12.2c-4.9,1.3-21.6-5.9-22.9-4.5C364.3,141.6,366.6,125.7,368.8,121.4C372.1,116.8,367.7,123.5,368.8,121.4z"/>
	<path fill="#33073B" d="M204.1,124.9c0.4-0.1,0.9-0.1,1.3-0.1c1.6-0.2,3.3-0.4,4.7-0.7c0.6-0.9,0.7-1.8,0.2-2.8
		c-3.3-0.4-5.3,0.6-8-1.6C195.9,124.2,199.4,125.1,204.1,124.9z"/>
	<path fill="#33073B" d="M200.3,126.3c0.1-0.1,0.1-0.1,0.2-0.2c-2.9,1-15.1-0.4-17.1-1c1,2.7,1.6,3.2,1.8,2.8
		c3.4,3.7,9.4,2.7,13.3,0.1C199,127.4,199.6,126.8,200.3,126.3z"/>
	<path fill="#33073B" d="M244.4,127.6c7.3-3.4-12.3,32.5-27.3,15.2c4-6.4,10.7-12.9,17.3-11.7c-3.1,1.5-3.6,3.9-1.3,7.2
		C238.7,140.9,247.4,133.4,244.4,127.6C244.9,127.3,244.6,128,244.4,127.6z"/>
	<path fill="#33073B" d="M440,130.9C445,124.8,447,138.3,440,130.9C441.6,128.9,440.8,131.8,440,130.9z"/>
	<path fill="#33073B" d="M300.4,203.3c0,1.7,0,3.4-0.2,5.1c1-1.6,1.9-3.1,2.9-4.6C302.3,203.6,301.4,203.5,300.4,203.3z"/>
	<path fill="#33073B" d="M350.9,233.3c1.5,2.9,2.8,4.7,3.6,4.5c3.2-0.7,5.4-2.2,6.8-4.3C358.9,233.8,355.6,233.7,350.9,233.3z"/>
	<path fill="#33073B" d="M361.3,194c0.7-12,24.3-30.6,3.8-45c-1.2,1-1.8,1.8-2,2.5c-11.4-1.8-41.1,1.2-41.4,5.3
		c0.2-2.9,10.4-32.3-10.1-21.6c-0.1,1.6-2.1,21.9,2.9,21.2c-14.8,11.2-26.7-19.1-42.2,5.5c-2,0,8.8,1.1,7.5-1.4
		c4.9,7.1-2.9,34.8,14.2,36.8c6.9-8.7,1-18-6.6-16c-3,9.4,6-20.7,4.9-20.1c2.1-1-1.6,13,4,14.4c0.9-1.5,1.7-3,2.2-4.7
		c0.7-0.4,3.9,8.6,2.8,12.2c0,0,12.3,2.2,14.1,4.9c-0.8-0.3-3.9,3.5-7.6,8.8c0.7,0,2,0.2,4.1,0.5c3.5-4.5,6.6-4.6,9.3-0.4
		c-7.1-0.7,3.5,6.1-1.5,5.9c-0.2-1.9-10.1-4.6-12.2-5.6c-1.4,2-2.9,4.3-4.4,6.6c10.8,2,10.5,5.8,17.9,9.5c-0.8-4.1,11.8-9.1,9.8-5.4
		c0.8-1.5-13.8,10.9-5.8,10.7c29.6-25.1,7.7,45.7,6.7,44.9c-23.8-19.7,5.7-13.2-25.5-16.6c-18.9-5.5-7.6-20-6.1-38.5
		c-4.1,6.6-7.8,13.1-9.5,16.9c-0.6-1.9-2.8-1.5-5.5,0c-1,1.2-2.4,2.2-4.1,2.7c-5.8,4.2-12.2,10.5-13.1,11.3c1.8,0,3.3-0.2,4.7-0.6
		c0.2-0.5,0.4-1,0.8-1.4c0,0,0.1-0.1,0.1-0.1c0.1-0.1,0.1-0.2,0.2-0.4c0.5-0.6,1-1.2,1.6-1.9c1.8-1.7,4.3-2.6,6.8-2.5
		c0.8,0,1.5,0.2,2.2,0.4c1.5-0.8,3-1.4,4.8-1.8c-0.4,0.5-0.4,2.3-0.1,4.9c0.9,1.1,1.6,2.4,1.9,3.9c0.1,0.8,0.2,1.7,0.3,2.5
		c-0.1,1-0.3,2.1-0.6,3c1.3,6.2,3,12.3,4,13.7c13.9,1.6,10.7-7,23.9-6.6c10,0.3,0.8,17.6,19.8,16.8c0.7,4-10,6-11.3,5.7
		c2.2,0.5,1.4,15.7,5.2,16.1c-0.6-3.7,12.1-34.7,11.9-34.5c1.6-1.9,9.1,0.3,10.1,2.5c0.5-8.3,12.7-10.8,11.8-19
		c-1.2,1.5-17.4,12.2-19.9,11.8c-7.7-1.2,4.2-18.6,0.8-19c1.4,0.2,2.7,0.3,3.9,0.4c-4.4-8.2-10.6-25-10.7-28.8
		c-0.2-3.4,5.7-1.6,6.2-2c-0.5-0.3-11.4-5.9-10.8-3.4c-2-8.5,4.7-2.5,5-10.6c-6,1.1-7.6,5.6-15.4,0.6c6.7,4.3,15.8-6.5,17.7-10.9
		c-2.3,0.7-3.4,2.2-3.5,4.5c-0.7-1.6-1.8-3-3.3-4c3.1-7.4,18.7-21.7,21.1-22.5c1.1,1.4,11,11.4,8.3,12.7c-5,2.4-12.4-3.1-17.4-2
		c3.1-0.3-3.2,18.5-2.8,20.6c8.8-9.6,8.6-7.7,13.1-15.2c3.7,2.7,5.7,6.4,5.9,11.1c-10.7-1.6-2.1,3.2-8.7,8.1c0.8-0.6-2.8,0-5.5,2.4
		c1.2,0.2,7.1-0.2,6.2,1.8c-0.6,1.3,12.6,27.2,5.2,38c10-1.4,3-10.2,4.9-32.4c-0.9-9.1,7.9,1.2,8.9-1.1
		C371.9,194.3,367.3,192.3,361.3,194z M307.6,174c0.8,3.4-3.9,1.1-2-1C304,169.5,310.5,172.7,307.6,174z M300.3,163.3
		c0-2.9,11.6,0.9,10.8,1C316.8,170.2,297.9,163,300.3,163.3z M302.3,254.1c-1.7-0.1-5,1-4-2C300.1,252.2,303.3,251.1,302.3,254.1z
		 M325.6,167.2c-0.7,4.1-3.5,0.2-3.3-2.1C324.3,165,327.4,164.3,325.6,167.2z M315,141.3c-0.4-7.1,13.3,14.4,3.4,9.5
		C311.9,147.7,313.9,145.5,315,141.3z M315.3,177.1c2.1-0.1,4.8,0.1,6.1,2C319.4,178.6,314.4,180.7,315.3,177.1z M320.4,183.2
		c1.6,0.3,5.9-1.2,5.8,0.7C324.2,183.7,319.5,186.8,320.4,183.2z M333.9,168.6c-0.8,0.3-1.6,0.3-2.3,0.3c1.4,1.1,1.8,3.2,1.6,5.4
		c-1.5-3.2-4.9-4-6.9-5.3c1.1-0.5,2-0.8,2.8-0.8c-2.2-1.3-1.8-3.6,6.2-2.7C341,160.6,335.6,168,333.9,168.6z"/>
	<path fill="#33073B" d="M357.3,156.1c0.1,0,0.2,0,0.2,0.1C357.4,156.2,357.3,156.1,357.3,156.1z"/>
	<path fill="#33073B" d="M297.5,159.5C296,164.1,301.7,160.7,297.5,159.5"/>
	<path fill="#33073B" d="M366.5,160.5C364.3,165.9,370.8,162.5,366.5,160.5"/>
	<path fill="#33073B" d="M339.5,161.2C338.5,165.9,344.1,160.2,339.5,161.2"/>
	<path fill="#33073B" d="M285.4,165.4C282.7,169.1,291.9,165.9,285.4,165.4"/>
	<path fill="#33073B" d="M314.6,168.1C314.5,172,314.5,167.8,314.6,168.1"/>
	<path fill="#33073B" d="M362.6,171.4C360.3,176.3,365.9,173.9,362.6,171.4"/>
	<path fill="#33073B" d="M311.7,177.3C307.6,182.6,317.3,178.3,311.7,177.3"/>
	<path fill="#33073B" d="M320.6,188.3C315.1,190.1,323.4,192,320.6,188.3"/>
	<path fill="#33073B" d="M328.5,198.3C322.8,200.6,333.7,200.5,328.5,198.3"/>
	<path fill="#33073B" d="M168.5,135.9c5,7.1-9.5,2.3-10.1,2.2C162.2,138.9,165.5,138.2,168.5,135.9
		C168.7,136.3,168.7,138.1,168.5,135.9z"/>
	<path fill="#33073B" d="M154.3,140.3C159.1,143,154.4,142.9,154.3,140.3C154.9,140.6,154.3,140.7,154.3,140.3z"/>
	<path fill="#33073B" d="M74.9,148.7c0.5,1,0,0.6,1.5,1.9c-0.5-0.5-0.3-0.4,0-0.2c0-2.1-1.3-4-3-3.9
		C73.9,147.2,74.4,147.9,74.9,148.7z"/>
	<path fill="#33073B" d="M287.5,146.5c2.4-0.1,6.2-1.4,2.8,4.6C287.3,152.4,284.5,148,287.5,146.5z"/>
	<path fill="#33073B" d="M438.1,156.8C433.7,153.8,443.4,150.2,438.1,156.8C436.6,155.8,438.8,156,438.1,156.8z"/>
	<path fill="#33073B" d="M136,157.3c5.3-1.4,43.2,20.9,32.3,33.7c-5.6,4.9-31-29.6-29.3-28c-1.6-1.5-6.3,0.3-10-2.8
		C129,151.8,144,166.7,136,157.3 M152.3,176.3c0,2.6,3.4,2.6,5.1,3.8C158.7,175.7,155.4,176.3,152.3,176.3"/>
	<path fill="#33073B" d="M141.5,162.3C137.2,166.6,146.7,164.1,141.5,162.3"/>
	<path fill="#33073B" d="M144.6,165.4C142.7,171.4,151.1,163.6,144.6,165.4"/>
	<path fill="#33073B" d="M149.7,167.3C151,172.3,155.6,165.7,149.7,167.3"/>
	<path fill="#33073B" d="M160.5,179.2"/>
	<path fill="#33073B" d="M349.5,160.9c-0.4,6.8-5.2-3.6,0-1.5C349.5,159.8,349.5,160.5,349.5,160.9z"/>
	<path fill="#33073B" d="M414,165.9c0.7-1.7,3.1-0.7,2.3,1C415.8,166.7,414.6,166.2,414,165.9z"/>
	<path fill="#33073B" d="M245.1,205c0.1,0,0.1,0,0.2,0c-3.2-8.9-13.1-28.8-22.4-22.9c0.3-0.2,0.4-0.3-0.3,0.2c0,0,0,0,0,0
		C217.9,186.4,238.6,198.4,245.1,205z"/>
	<path fill="#33073B" d="M203.5,184.3c-0.1-0.1-0.2-0.1-0.3-0.2c0,0.1,0,0.2,0,0.3c-0.9,7.4,13.8,11.2,10,14.7
		c2.8,1.5,5-0.1,6.4-2.6c-3-2.3-5.7-4.8-8.6-7.2C207.7,189.2,205,187.1,203.5,184.3z"/>
	<path fill="#33073B" d="M355.1,209.5c4.5-2.8,3.4,10.6,5.6,16.7C360.1,235.6,354.2,205.6,355.1,209.5
		C356.2,208.8,355.8,212.1,355.1,209.5z"/>
	<path fill="#33073B" d="M253.4,210.4C272.5,208.7,271.1,244.4,253.4,210.4C253.9,210.4,253.6,210.9,253.4,210.4z"/>
	<path fill="#33073B" d="M316,259.5c-4,4.1-7.2-6.9-1.6-1.4C314.8,258.5,315.6,259.2,316,259.5z"/>
	<path fill="#33073B" d="M298.7,261.2c3.6-5.6,41.2,18.6,3.7,21.8C303.1,275.5,298.1,268.6,298.7,261.2 M307.4,264.9
		c-0.2,1.1,0.5,11.9,3.4,6.5C313.7,268.2,311.2,265.3,307.4,264.9 M314.6,277.3"/>
	<path fill="#33073B" d="M131.5,73c2.6,5.4,6.7,12.7,8,18.9C142.6,85.6,139.4,78.7,131.5,73z"/>
	<path fill="#33073B" d="M30.9,76.5c-1.7-0.7-12.2-14.3,31,6.8c-0.3-0.3,24.5-12.2,21.5,2.9c0.2-0.2,1-0.2,2.4-0.1
		c1.3-0.7,2.8-1.1,4.6-1.1c3.4,0,5.8,1.5,7.2,3.6c16.6,4.3,42.5,13.9,48.3,27c8.4-16.4-71.2-47.9-75.7-53.6
		c26.7-3.4,49.2,2.4,61.2,11c-4.7-9.6-5-13.1,22.3,6.4c-20.7-31.3-59-17.4-87.3-25.2c18.6-6.9,77.4-7.4-17.2-17.6
		c0,38.5-6.8,19-9.8,19.2c-7-8.9-28.3-29.5,87-51.9C88.3,7.7,31.3,11.6,9.2,43.1c-0.5,1.4-1,2.7-1.5,4c-1.3,4.7-2,9.5-4.2,13.9
		c1,5,0.3,9.8-2.5,13.9c0.2,5.1,2.2,8.4,5.5,11.4c5.2,4.6,78.9,72.3,140.7,67.4C57.7,129.1,34.5,85,30.9,76.5z"/>
	<path fill="#33073B" d="M70.1,16.9c81-37.8,239.4,10.7,195.7,62.5l0,0C255.8-7.8,90.6,3.3,70.1,16.9z"/>
	<g>
		<path fill="#33073B" d="M558.7,64.7c-1.3,1.7-2.5,3.5-3.5,5.3C556.5,68.2,557.7,66.4,558.7,64.7z"/>
		<path fill="#33073B" d="M540.2,74.6c13.3-10.2,6.7-23.2-6.3-34.3C540.5,52.2,547.7,66.4,540.2,74.6z"/>
		<path fill="#33073B" d="M604.3,12.9c-9-9-98.2-8.4-124.4-6.3C393.5,21,380.2,47.1,378.4,52c0.7-0.2,1.4-0.4,2.2-0.5
			c120.3-63,178.7,2.8,103.6,55.3c59.9-41.9,47.2-75.8,3.2-89.5c12.1,1.8,32.8,11.3,46.5,23c-8.1-14.5-15.4-25.7,5.5-18.4
			c0,0,35.7,14.3,19.3,42.9c23.1-30.5,84.7-47.2,45.6,1.4c38.7-32.7,57.2-47.5,3.1,11.3c32-17.8,48.7-65.8,20.1,11.4
			C683.3,32.9,604.3,12.9,604.3,12.9z"/>
	</g>
</g>
<rect x="0" y="0" fill="none" width="646.5" height="388.7"/>
<g>
</g>
<g>
</g>
<g>
</g>
<g>
</g>
<g>
</g>
<g>
</g>
<g>
</g>
<g>
</g>
<g>
</g>
<g>
</g>
<g>
</g>
<g>
</g>
<g>
</g>
<g>
</g>
<g>
</g>
</svg>
