<?xml version="1.0" encoding="utf-8"?>
<!-- Generator: Adobe Illustrator 17.0.0, SVG Export Plug-In . SVG Version: 6.00 Build 0)  -->
<!DOCTYPE svg PUBLIC "-//W3C//DTD SVG 1.1//EN" "http://www.w3.org/Graphics/SVG/1.1/DTD/svg11.dtd">
<svg version="1.1" id="Layer_1" xmlns="http://www.w3.org/2000/svg" xmlns:xlink="http://www.w3.org/1999/xlink" x="0px" y="0px"
	 width="646.5px" height="388.7px" viewBox="0 0 646.5 388.7" enable-background="new 0 0 646.5 388.7" xml:space="preserve">
<g id="_x23_33073bff_7_">
	<path fill="#33073B" d="M37,43.1c7.2,3.6,8.4-3.4,8.3,6.1c4.5-1.6,5.1-3.6,1.9-6.1c5.6,1.8,9.9-1.1,15.5,2
		c-3.7,1.8-7.5,3.4-11.4,4.7c9,2.2,17.2,4.6,25.3,9c-8.7,0.6-31.7-12.2-32.2-2.8C34.7,53.7,40.9,46.5,37,43.1z"/>
	<path fill="#33073B" d="M66.1,43.1c22.6,9.8,50.4-1.2,76.2,0c-6.4,3.3-9.6,3.4-13.8,8.2c-0.5-6-18.2-1.8-23.5,0.5
		c-3.5,1.9,55.3-5.9,56.2-1.9c-3.6,1.7-47.7,14.8-48,17.7c4.9,0.1,14.9,3.4,19.4,1.9c-0.1,1.2-0.2,2.5-0.4,3.7
		c-13.6,0.1,5.2,3.6-8,1c6,12.4-0.8-0.6-4,7.8c9.3,0.7,21.3-2.7,30.1-6.7c0.2,5.6-24.7,10.3-22.2,16.9c-0.1-0.2,18.6,0.8,21,1.9
		c-0.5,4.5-4.4,6.4-11.5,5.5c-0.3,0.6,12.2,0,12.8,5.2c-1.2-0.2-11.3,4.4-10.9,5.3c8.3,4.9,14.2-0.6,22.5,2.3
		c-0.9,13-53.1-8.6-29.7-16.5c-8.8-15.2-7.7,3.7-4.9-10.5c-6.7-4.2-15.6-3.7-22.2-5.5c6.6-6.8,6.1-1.8,11.9-5.9
		c2.3-8.7-19,1.5-7.2-11.8C114.2,57,64.3,47.2,66.1,43.1 M114.5,59.2C110.2,64.6,130.4,58.8,114.5,59.2
		C113.1,61.1,116,59.2,114.5,59.2z"/>
	<path fill="#33073B" d="M250.2,43.1c19.4-1.2,27.5,30.2,29.2,48.1c0.4-1.2,1-2.2,2-3c-2.9-0.3,21.8,26.5,5.2,29.8
		c3.2,9.5-11.5-25.5-11.4-10.1c7.7,1-6.6,1.7,3.4,12.9c-0.5-0.2,9.1-1.2,11.9-0.7c-4.4,6.6,4.2,15.9,11.5,15.9
		c1.4-7.5,42.4-46.3,49.2-45c-14.5,13.6-1.4,19.6,0.3,29.7c-4-2-27.5,4.6-29.3,10.3c14.6-1.2,5.5,18.8,16.3,10.2
		c-0.5,2.7-8.8,11.7-10.1,11.7c0.5-5.6-1-5.7-0.1-17.9c-7.3-0.3-13,9.1-17.1,12c-3.4-1.2-3.8-3.8-1.3-7.9
		c-4.1,13.1,9.8,4.3,6.8,13.5c-4.7,14.1-55.4-46-51.2-73.5c-1.3,1.6-11.4,8.4-14.2,7.9c3.5-10.3,22-31.9-0.6-33.7
		C250.3,47.9,250.8,48.4,250.2,43.1 M278.7,122.3c-0.1,1.3,0.8,2.9,1.9,3.6C282.7,125.3,280.7,121.1,278.7,122.3 M310.5,123.3
		c-1.4,2.6-2.8,5.2-4.2,7.8C312.1,132.1,310.8,122.5,310.5,123.3z"/>
	<path fill="#33073B" d="M357.8,43.1c3.8-5.6-3,9.4-5.4,9.2C355.1,47.3,352.4,46.7,357.8,43.1z"/>
	<path fill="#33073B" d="M374.5,43.1c4.9,2.3-4.1,77.2-18.3,84c-1.5-2,10-20.5,5.9-27.1c-5.3,3.1-1,8.2-7.5,8.2
		C350.2,79.2,372.2,61.3,374.5,43.1z"/>
	<path fill="#33073B" d="M441.1,43.1c24.1,6.5,53,16.4,78.3,13.8c-8.1-9-28.3-8.1-37.2-13.8c19.6,0.1,36.6,1.1,56.3,1.2
		c-9.9,5-8.2,3.2-18.9,7c1.6,8,9.6-8.6,11.1,8.1c-10.8,5.7-18.9,6.3-29.6,2.8c1.1,10.5,22.7-4.6,20.5,9c1.7,0.2,8.8-7.9,11.8-4.3
		c-28.7,28.7-70.3-22.7-79-2.9c-0.4-5.9-6.8-8.3-7.2-1c-0.7-4-3.1-6.6-7.1-7.9c12.3,1.3,14-3,22.9-1.4c1.3-5.8-14.5-5.1-15.6-4.7
		C446.1,43.2,444.9,46.6,441.1,43.1 M470.2,52.2c-9.6,0,6.9,11.4,9.9,3.6C481.2,52.8,465.2,56.7,470.2,52.2 M476.2,59.1
		c1.6,3.1,4.8,4.5,8.1,5C483.1,60.4,479.8,59.5,476.2,59.1 M492.5,61.3c-2,3.4-11.4-0.1-6,4.7C502.6,69.3,489.9,62.6,492.5,61.3
		 M496.4,69.4c-1.9-1.3,16.7,7.9,14.8,2.9C500.6,67.8,502.7,68.6,496.4,69.4C498.5,70.8,498.3,69.1,496.4,69.4z"/>
	<path fill="#33073B" d="M465.3,43.1C475.2,44.2,471.6,43.8,465.3,43.1L465.3,43.1z"/>
	<path fill="#33073B" d="M34.1,49.1c-0.3-1.6-1.8-4,0.1-5.1C36.1,45.7,36.5,47.7,34.1,49.1z"/>
	<path fill="#33073B" d="M434.4,46.3c1.1-4.2,9.4,0.3,5,1.2C435.9,48.3,430,53.5,434.4,46.3C435.3,42.8,433.7,47.6,434.4,46.3z"/>
	<path fill="#33073B" d="M538.2,46.9C541.8,43.1,545.3,47.5,538.2,46.9C538.9,46.1,539.5,47,538.2,46.9z"/>
	<path fill="#33073B" d="M33.4,51C44.1,48.1,31.8,58.3,33.4,51C35.1,50.6,33.2,51.6,33.4,51z"/>
	<path fill="#33073B" d="M182.4,54.2C187.1,48,191.1,52,182.4,54.2C184.1,52,182.4,54.2,182.4,54.2z"/>
	<path fill="#33073B" d="M350.4,51.8c1.8,4.5,1.5,9-0.9,13.5C349.8,60.8,350.1,56.3,350.4,51.8C352.4,52.9,349.4,56.3,350.4,51.8z"
		/>
	<path fill="#33073B" d="M428.5,52.3c1.4-0.8,3.4,1,2.6,2.5C429.8,54.8,425.9,53.9,428.5,52.3z"/>
	<path fill="#33073B" d="M223.5,53.2C225,52.6,234.6,57.8,223.5,53.2C224.9,52.7,223.5,53.2,223.5,53.2z"/>
	<path fill="#33073B" d="M418.2,54c2.6-0.7,7.1,3.9,9.1,5.2C427.4,62.8,418.6,55,418.2,54C422,53.1,418.7,55.5,418.2,54z"/>
	<path fill="#33073B" d="M154.6,60.2c7.2,1.3-14.7,13.5-16.3,7C140,66.8,154.5,60.7,154.6,60.2C156,60.5,154.4,62.4,154.6,60.2z"/>
	<path fill="#33073B" d="M430.2,66C430.4,69.5,439.2,60.2,430.2,66C430.1,63.7,431.8,64.9,430.2,66z"/>
	<path fill="#33073B" d="M87.5,70.3c-2.4-10.6,22.4,3.9,17.1,1.6C92.4,77.1,86.7,76.6,87.5,70.3z"/>
	<path fill="#33073B" d="M446.5,68.7c-0.9-3.1,46.9,24.2,48.9,24.4c1.7-3.6-5.7-4.4-7.3-5.2c-0.1,1.2,19.7-2.9,21.3-2.9
		c-0.7,8.6,9.5,2.7,10.2,9c-7.1,1.2-14.2,2.7-21.2,4.2c6.6,5.4,10.5,5.9,18.7,3.7c4.1,5.4-3,3.1,5.3,10c-10.6-0.6-21.2-1.3-31.7-2
		c9.5,7.2-4.8-1.6,2.9,4c-9.7,2.9-12.3,2.7-20.5-5.1c5.3-1.5,15.9-1.7,18.2-7.7c0,0-5.6-2.1-15-5c0-3.4-1.2-13.2-3.8-14.3
		c-4.1,1-4.7,3.3-1.9,6.8c-3.9-0.7-19-0.9-4.1-1.7c0.9,1.7-17.9-10-16.9-13.9c1.2,0.6,2.5,0.9,3.9,1C452.3,70.8,450,69,446.5,68.7
		 M462.2,80c1.4,1.7,3,3.3,5.1,4.1C467.1,81.8,464.8,79.6,462.2,80 M478.3,92c3.8,0.3,6.3,3.4,10.1,3.1
		C488.9,96.1,476.9,84,478.3,92C479.6,92.1,477.6,88.4,478.3,92z"/>
	<path fill="#33073B" d="M395.4,68c4.4,3.1,7.5,3.3,8,9.2C399.8,74.2,395.5,72.4,395.4,68C395.9,68.3,395.4,68.7,395.4,68z"/>
	<path fill="#33073B" d="M76,70.9c3.2-3,9.5-1.3,11.4,0.3C83.6,71.1,79.8,71,76,70.9C79.2,67.9,78.9,70.9,76,70.9z"/>
	<path fill="#33073B" d="M161.4,69.3c-3.4,0.7,0.4,7.9-9.1,5.9C155.3,73.2,158.3,71.2,161.4,69.3C164,68.7,158,70.5,161.4,69.3z"/>
	<path fill="#33073B" d="M202.5,68.9C209.3,75.2,202.7,71.9,202.5,68.9C202.5,68.9,202.6,70.5,202.5,68.9z"/>
	<path fill="#33073B" d="M182.6,70.4c2.3-0.3,3.8,5.4,0.2,3.5C183,72.7,182.2,71.6,182.6,70.4z"/>
	<path fill="#33073B" d="M196.5,71.4C203.4,61.7,194.4,82.6,196.5,71.4C197.6,69.8,196.4,71.7,196.5,71.4z"/>
	<path fill="#33073B" d="M242.5,72.2c1.3-0.3,2.7-0.2,3.9,0.4C246,74.9,241.1,74.9,242.5,72.2z"/>
	<path fill="#33073B" d="M536.3,76.2c6.5,0.3,12.8-0.4,19.1-2.1c3.7,4.9-17.8,17.8-20.8,18.4c-0.6-5.9,4.4-8.8,9-11.6
		C545.9,78.7,535.9,77.9,536.3,76.2C543.1,78.7,535.6,79.3,536.3,76.2z"/>
	<path fill="#33073B" d="M234.8,77.6c9.4-2.7,2.3-1.2,3.8,8.6C232.4,81.7,233.5,82.7,234.8,77.6C236.8,77,234.3,79.3,234.8,77.6z"/>
	<path fill="#33073B" d="M434.3,76c0.2,0,19.1,11.9,16.9,9.4c4.2,4.8-14.7,3.7-18.1-2C434,84.4,434.3,74.2,434.3,76
		C436.6,76.5,434.2,77.8,434.3,76z"/>
	<path fill="#33073B" d="M505.1,81.8c4.9-4.8,8-4,9.4,2.4C505.8,85.9,511.6,85.5,505.1,81.8C506.7,76.5,506.5,82.6,505.1,81.8z"/>
	<path fill="#33073B" d="M426.6,81.2c0.4-0.2,9.7,13.6,15.9,15.1c-0.6,2.2-4.5,1.3-4.1,3.2c8.8,1,13.3,13.1,24,13.5
		c-0.5,5-34.1-19.9-40-16.8C421.7,95.5,426.2,81.7,426.6,81.2C429.2,80.1,424.9,82.9,426.6,81.2z"/>
	<path fill="#33073B" d="M98.1,86.9c7.5-8.2,7.1-0.2,11.5,4.1C105.1,91.4,101.2,90,98.1,86.9C99.4,85.5,99.7,87.8,98.1,86.9z"/>
	<path fill="#33073B" d="M241.4,84.1c5.6-2.2-1.6,11.4-7.2,8.9C234.3,91.2,239.7,86.1,241.4,84.1C242.4,83.7,240.7,84.9,241.4,84.1z
		"/>
	<path fill="#33073B" d="M196.1,89.8c6.5-5.4,8-5.5,4.4-0.2c-2.1,4.9-9.4,6.1-13.2,5.2C187.2,95.1,195.4,90.2,196.1,89.8
		C197.4,87.5,193.9,91,196.1,89.8z"/>
	<path fill="#33073B" d="M385.2,88.8c5.7-8,16.7,13.2,27.2,10.5c-2.3,6.1-8.4,14.3-17.5,14.1c-2.5-12.3,9.8,0.7,12.3-11.2
		C401,98.3,391.8,91.9,385.2,88.8z"/>
	<path fill="#33073B" d="M204.6,93.4c4.6-1.7,5.7-5.8,10.8-2.5c-5.4,4.7-3,3-6.2,10.2C207,99.5,205.3,96.4,204.6,93.4
		C207.4,92.4,205.1,95.5,204.6,93.4z"/>
	<path fill="#33073B" d="M399.4,88.1C403.4,89.1,404.7,101,399.4,88.1C400.7,88.4,400.4,90.4,399.4,88.1z"/>
	<path fill="#33073B" d="M242.3,95.9c3.6-2.2,7.2-4.5,10.8-6.7C259,101.2,229,100.5,242.3,95.9C246.8,95,241.8,96.1,242.3,95.9z"/>
	<path fill="#33073B" d="M447.5,89.1c0.5,0.3,10.8,3.3,4.1,4.4C447.3,95.2,445.9,93.7,447.5,89.1C448.5,89.7,447,90.6,447.5,89.1z"
		/>
	<path fill="#33073B" d="M409.5,91.5C419.1,94.8,408.8,93.6,409.5,91.5C410.7,91.9,408.8,93.4,409.5,91.5z"/>
	<path fill="#33073B" d="M525.1,91.3C532.7,95.1,524.5,92.6,525.1,91.3C526.5,92,524.7,92.1,525.1,91.3z"/>
	<path fill="#33073B" d="M586.8,95.1c17.1-7-10.6,14.8-11.3,13.2c-12.3,6.5-30.1,5.8-46.4,3.5c3.1-1.4,29.5-14.6,28.2-8.7
		c-3.5-1.1-7.8,3.7-11,4.1C545.1,111.6,582.6,97.1,586.8,95.1C588.9,94.3,585.5,95.8,586.8,95.1z"/>
	<path fill="#33073B" d="M386.2,95.1c3,1.7,7.4,3.7,5.2,7.3C387.9,101.3,386.1,98.8,386.2,95.1C387.6,95.9,385.3,99,386.2,95.1z"/>
	<path fill="#33073B" d="M557.3,95.7C570.9,94.5,559.4,96.4,557.3,95.7C559.7,95.5,557.3,95.7,557.3,95.7z"/>
	<path fill="#33073B" d="M185.6,96c4.5-8.2-6.8,17.6-7.8,14.4c-1.8-0.5-3.7-1-5.6-1.5C176.7,104.6,181.1,100.3,185.6,96z"/>
	<path fill="#33073B" d="M454.2,96.1C461,96.5,457.9,102.1,454.2,96.1C456.1,96.2,454.9,97.1,454.2,96.1z"/>
	<path fill="#33073B" d="M416.2,98c3-0.3,26.8,18.2,26.2,21.1C434,113.1,420.4,108.1,416.2,98C418.2,97.8,417.1,100.2,416.2,98z"/>
	<path fill="#33073B" d="M460.5,99.3c2.1-3.6,14.7,5.8,15,7.7C472.6,105.5,456.4,101.8,460.5,99.3C461.8,97.1,459,100.2,460.5,99.3z
		"/>
	<path fill="#33073B" d="M527.1,103.5C514.7,104.3,534.1,105.1,527.1,103.5C513.5,104.4,527.5,103.6,527.1,103.5z"/>
	<path fill="#33073B" d="M388.6,103.5c6.2,0.2,8.6,34.2,26.8,32.1c-3.1,4.2-9.8,2.2-10,1.3c-3.4-0.4,26,23.7,23.3,14.3
		c-1,2.5-9.5,14.9-9.5,15.1c-2.8-1.8-7.5-16.3-10.6-18.6c-2,2-4.4,3-7.3,3c5.7,3.4,15.9,23,9,12.2c3.3,1,14.7,14.6,19.9,19.3
		c-0.7-2.8-0.6-5.6,0.4-8.4c24.4,11.2-25.4,15.9-15.4,3.4c-17-5.3-14.4-24.7-26.9-31.9c12.2,10.5-16.1-2-6.1-2.1
		c-4.6-1.6,0.2,9.6,0.3,7.7c-3-0.3-7.9,1.4-7.2,4.2c-2.6-2.1-0.8-4.5-5-1.8c-0.5-9.3,11.6-12,15.9-13.6c-2.4-11.2,8-16.5,8.3-22.3
		c-6.9,6.5-11.4-3.4-5.3-0.2c7.8-6.9-8-3.9-6.9-3.7C380.7,107.3,382.8,104.1,388.6,103.5 M390.2,135c5.1-2.9,8.6,12.6,11.8,12.1
		c0.1-5-1.3-9.6,2.3-10.2C398.9,126.6,390.2,135,390.2,135 M410.7,152.2c0.1,1.2,0.3,4.4,2.2,3.7
		C413.2,154.4,413.2,151.4,410.7,152.2 M399.7,154.2c-0.3,1.5-0.3,4.5,2.2,3.7C401.9,156.7,401.6,153.6,399.7,154.2z"/>
	<path fill="#33073B" d="M398.5,103.4c1.2-0.6,2.4,0.4,3.7,0.1C403.4,106.1,397,106,398.5,103.4z"/>
	<path fill="#33073B" d="M226.6,109.4c-0.2,0.2,12.6-2.1,11.7,1.5C238.2,110.9,222.1,118,226.6,109.4
		C228.5,107.8,226.4,109.9,226.6,109.4z"/>
	<path fill="#33073B" d="M524.1,104.5c2.1-0.1,8.3,0,10.3-0.2C534.3,109.2,525.7,106.8,524.1,104.5
		C525.6,104.5,524.4,105,524.1,104.5z"/>
	<path fill="#33073B" d="M162.4,108.5c8.6-3.5,10.2-2.6,5,2.9C163.2,113.6,161.8,113.3,162.4,108.5
		C165.2,109.1,162.3,109.7,162.4,108.5z"/>
	<path fill="#33073B" d="M418.2,109.2c0.6,2.7,20.4,11.1,24.2,17.8c-3,0.2-5.8-0.7-8.2-2.8c2.7,1,4.1,2.7,4.1,4.9
		c-5.5-0.8-16-6.6-18-13c1.2,1.2,2.5,1.5,4,0.9C422.8,113.8,420.8,111.2,418.2,109.2 M426.3,118c-0.3,2.9,3,4.1,5.1,5.1
		C431.2,120.7,428.8,118.1,426.3,118z"/>
	<path fill="#33073B" d="M350.3,109.1c1.3-0.1,2.7-0.1,4,0C355.1,112.9,348.4,113.4,350.3,109.1z"/>
	<path fill="#33073B" d="M249.8,112C259.8,112.7,237.6,119.6,249.8,112C250.4,112,249.2,112.4,249.8,112z"/>
	<path fill="#33073B" d="M418.1,114.1c-0.4,0.7,6.7,10.3,4.1,14.6c11.5,3.9,18.1,27.4,7,21.4c4.4-18.7-16.7-17.8-22-35
		C410.1,114.9,417,117.9,418.1,114.1 M417.3,122c-0.8,3,2.1,3.8,4.1,5.1C421.6,124.5,418.5,123.8,417.3,122z"/>
	<path fill="#33073B" d="M370.3,115.2c3-0.4,6-0.7,9-1.1C374.8,120.9,374.3,115.6,370.3,115.2z"/>
	<path fill="#33073B" d="M446.4,114.1c3.2-2.3,8.9,4.3,10.8,6C454.4,124,447.9,115.1,446.4,114.1z"/>
	<path fill="#33073B" d="M236.8,116.8c-1.5-3.9,6.5-1.9,7.8-1.6c-8.6,6.5-6.2,13.3-12.9,17.2c2.3-12.3-4.4,4.4-2.4-5.3
		c-5.9,3.9-33.5,36.2-34.6,35.9c-0.2-12.1,35-45.8,35.5-35.8C245.4,120.2,224.1,126.9,236.8,116.8
		C235.2,112.9,235,118.2,236.8,116.8z"/>
	<path fill="#33073B" d="M397.3,115.1c0.8-1.9,4.5-0.2,6.3,0C401.6,115.7,398.5,118.1,397.3,115.1z"/>
	<path fill="#33073B" d="M501.5,113.6c9,1.8,6,6.1,0.9,10.4C502.1,122,500.5,115.6,501.5,113.6C503.9,114.1,500,116.7,501.5,113.6z"
		/>
	<path fill="#33073B" d="M496.6,115.3c1,0,4.2,6,4.5,5.4c-2.4,0.5-13.2,6.1-13.4,5.8c2.2,6,13.1,3.8,16.7,4.7
		c0.8,11.1-15.2,1.5-16.3,1.1c4.7,18.5-5.3-2.5-5.7-3.9C457.2,130.9,486.8,114.4,496.6,115.3C497,115.3,492.8,114.9,496.6,115.3z"/>
	<path fill="#33073B" d="M462.5,116.2C474.4,116.7,454.1,118.3,462.5,116.2C463.6,116.3,460.7,116.7,462.5,116.2z"/>
	<path fill="#33073B" d="M178.4,119.9c13.5-8.3-13.3,11.8-13.3,12c1.9-0.4,11.9,7.6,10.2,13.3c-9.7,2-6.5-10-15.8-12
		c-2.4,3.8,3.6,8,2.7,12.9c-11.2,1.9-7.9-7.6-5-15.1c-1.1,0.6-14.6-0.2-13.9-8.6c11.9,2.8,5.1-7.1,7.9,4.4
		C162.8,124.2,167.4,126.4,178.4,119.9C179.8,119,177.9,120.2,178.4,119.9z"/>
	<path fill="#33073B" d="M381.2,118.3c5.3,0.7,6.4,2.6,3.4,5.6c-0.2,0.3-11-0.8-11.6-1.9C376.8,119.8,378.6,122.3,381.2,118.3
		C383,118,380.7,119.2,381.2,118.3z"/>
	<path fill="#33073B" d="M401.5,118.3c4.3,0.2,5.9,2.4,4.9,6.6C401.5,123.5,400.7,121.4,401.5,118.3
		C404.4,119.2,401.2,119.6,401.5,118.3z"/>
	<path fill="#33073B" d="M467.4,118.3C482.4,121.3,461.8,123.8,467.4,118.3C470.1,118.8,464,121.6,467.4,118.3z"/>
	<path fill="#33073B" d="M242.6,119c5.6,3.9,12.3,18,10.9,22.3c0.6-1.7-9.9-2.1-10.1-2.2c3.6-2.4,4.4-5.1,2.5-8
		c4.4,1.7-14.7,13.9-14.7,13.9c15.5,5.3-12.7,35.3-24,44.1c-0.8-4.2-0.1-8.3,2.1-12.3c-5.4,3.1-7.4,9.6-16.4,3
		c3.9-7.6,21.6-14.5,21.4-23.9c-11,6.7-14.6,15.5-29.9,11.8C185.2,180.5,237,123.9,242.6,119 M225.5,149.4c-1.7,1.5-3.8,3.1-3.3,5.8
		C224.7,154.9,229.3,150.1,225.5,149.4 M219.7,151.5c-1.4,1.3-3.2,2.2-4.4,3.7C217.7,156.6,221.8,151.5,219.7,151.5 M218.6,163.4
		C205,181.8,222.4,158.1,218.6,163.4 M209.5,167.4c-3.5,1.8,1.9,5.9,2.8,2C210.5,169.8,210.6,166.7,209.5,167.4 M217.6,169.4
		c-1.8,2.2-3.6,4.5-5.4,6.7C219.3,169.6,221,167.4,217.6,169.4z"/>
	<path fill="#33073B" d="M216.7,121.1C221.6,124.7,210,132.9,216.7,121.1C217.7,121.8,215.5,123.1,216.7,121.1z"/>
	<path fill="#33073B" d="M255.5,122.2c2.9-1.1,1.5,3.3,2.6,4.9C255.4,128.2,253,123.8,255.5,122.2z"/>
	<path fill="#33073B" d="M444.4,128c6.2,3.8,16.3,4.6,19.9,6.9c-2.9-1-7.1,4.4-9,4.2c0.7-2.2,2.1-3.9,4.2-4.9
		C451.1,136.1,446,129.8,444.4,128z"/>
	<path fill="#33073B" d="M198.4,134.4c4.4-2.5,9-4.2,14-5c0.6,3.5-23.9,11-12.8,14.1c-6.9,4.2-12,4.1-15.3-0.4
		C183.9,142.9,200.7,136,198.4,134.4C203.3,133.3,199.7,135.3,198.4,134.4z"/>
	<path fill="#33073B" d="M185.6,130.7c7-1.1-2,4.4-2.9,7.8c0.8-3.1-2.4-3.1-6.5-3.4C179.3,133.6,182.5,132.1,185.6,130.7
		C186.8,130.5,182.2,131.5,185.6,130.7z"/>
	<path fill="#33073B" d="M505.4,133.1c9.5,4,5.7-2.1,13.3,5.1C515.5,140.5,501.9,139.9,505.4,133.1z"/>
	<path fill="#33073B" d="M473.4,135.2c4.4,0.5,6.3,2.8,5.6,7c0.4-21.9,10.4,20.3,7.7,10.7c-1.3-4.7-31.1,11.6-31.4,27.4
		c-3.2-5.3-4.9,2.4-5.1,5.9c-14.9-20.8,12.4-42,32.2-35.1c0-0.1-16-14.6-15.9-14.7C469.6,138.9,472,138.5,473.4,135.2
		C474.7,136.6,474.2,140,473.4,135.2z"/>
	<path fill="#33073B" d="M412.2,142c-0.3-10.2,15.6,1.5,12,4.9c-1.5,2.1-3.4,3.1-5.7,3.1C418.4,142.4,416.3,139.7,412.2,142
		C412.1,139.3,412.7,141.8,412.2,142z"/>
	<path fill="#33073B" d="M456.4,140.2c7.5-2.8,6.5,1.9,6.5,6.2C460.3,144.7,458.2,142.7,456.4,140.2
		C458,139.6,457,140.9,456.4,140.2z"/>
	<path fill="#33073B" d="M259.6,144.4C267.3,142.7,248.6,149.8,259.6,144.4C261.7,143.9,258.3,145,259.6,144.4z"/>
	<path fill="#33073B" d="M237.4,147.1c5.8-0.7,8.2-1.5,9.3-0.8c0.1,0-19.5,57-30.2,38.7C229,178.5,241.1,154,237.4,147.1z"/>
	<path fill="#33073B" d="M375.3,155c-0.3-1.5,3.1,5,5.2,3.1c0.2,8.5-26.6,22.1,1,31.1c-2.8-7.4-3.4-13.7-3.9-19.2
		c2,7.2,4.7,1,6.6-0.3c5.1,4.2,9.2,8.3,3.1,11.6c3.2,1.7,6.6,2.3,10.2,1.8c-1.1-0.7-16.2-24.1-15.1-27.9
		c13.9,4.5,20.8,33.2,33.8,42.3c-2.5-9.1-6.8-17.2-12.9-24.3c3.1,0.9,16,19.1,18.2,14.2c-3.3,0.4-4.3-6.7-4.1-6.2
		c7.9,2.9,12.8,8.9,14.8,17.9c-11.5,5.5-24.3,8.4-37.7,18c5.2,1.9,5.7-8.7,6,5c-14.9-8.2-13.5-3.8-25.1-13.1c3.7,4.2,4.1,8.9,1,14.1
		c-2.8-1.9-17.1-25.3-10.3-22.7c-1.5,4.9,0.2,7.2,5.2,6.8c2.4-6.2-2.8-7.3,8.9,2.1c9.5-17-25.5-23.8-26-32
		c-5.5-0.9-16.5,22.5-17.2,32c-0.6-0.9-1.2-1.8-1.7-2.7c3.4-2.6,5.3-6.1,5.8-10.5c-5.4,1.8-6.3,3.9-2.8,6.4
		c-7.4,0.6-29.8,17.9-25.8-2.9c-9.7,0.4-28-9.8-18.5-23.6c-3.5,6-7.5,21.3-7.7,29.3c-2.5-0.7,12.2-4.8,8.5,2.1
		c-2.1-2.4-21.1,25.3-20.4,7.7c-10.6,11.2,4.4,12.1,5.4,12.4c0.7,1.1,0.9,2.3,0.7,3.5c-4.6,0.4-36.1-8-21-14.2
		c-3.6-2.2-15.7-3.2-17.2-2.4c3.2-4.6,7.3-8.4,12.2-11.1c0.9-0.2-4.3,17.4-3.2,10.1c9-4.6,15.1-22,24.1-29.2
		c-2.1,5.8-17.2,31.9-15.3,31c3.3-8.1,10.9-23.7,21.6-24.7c-0.3,2.6-1.4,4.9-3.3,7c4.2,0.4,10-9.2,10.1-12.1c-1-6.1-4.9,2-5.1,2.4
		c0.1-3.3-1.2-5.8-3.9-7.4c2.2,4.8,0.9,5.8-3.8,3.1c6.3-19.5,47.3,0.4,68.5-16.3C339.9,175.5,390.9,159.6,375.3,155 M318.2,182.4
		C318.1,187.5,327.2,184.4,318.2,182.4 M384.3,182c-0.5,2.8,3,3.7,5.1,4.1C388.2,184.4,386.8,181.9,384.3,182 M317.6,185.4
		c-2.2,0.9-1.5,4.3,0.7,4.8C318,189,319.2,184.6,317.6,185.4 M330.3,187.1c-5.9-3.1,7.1,7.3,8.1-2
		C335.2,184,332.5,184.6,330.3,187.1 M396.3,185.1c-1.6,12.3,13.2,5,5,17.1C412.9,201.9,399.3,184.2,396.3,185.1 M392.6,187.4
		c-5.2,2.5,4.1,11.5,8.8,12.8C402.4,206.4,394.4,186.3,392.6,187.4 M322.6,188.3C312.1,197.5,330.9,185.9,322.6,188.3 M384.5,192
		c-7.3,3.1,7,11.2,11.8,11.2C395.1,201.9,383.9,190.7,384.5,192 M333.6,192.3c-0.7,1.2-0.7,2.3-0.1,3.5
		C335.9,196.5,336.3,190.9,333.6,192.3 M276.6,197.5c0.7-0.6-12.5,11.1-2.5,9.5C273.4,207.8,281.1,196.8,276.6,197.5 M279.2,201
		c-0.9,0.4-5.5,14.5,0.9,13C287.1,189,288.5,195.9,279.2,201 M314.4,198.3c-4.9,2.2,7.5,3.7,8.9,0.9
		C320.4,198.5,317.4,198.2,314.4,198.3 M316.6,202.5C308.3,204.7,319.4,201,316.6,202.5C315.5,202.8,319.3,201.1,316.6,202.5z"/>
	<path fill="#33073B" d="M264.2,163.2c3.7-1.2,1.7,4.1,1.7,6.2C264.1,167.8,264.3,165.3,264.2,163.2z"/>
	<path fill="#33073B" d="M249.2,168.2C251.2,159.7,255,174.3,249.2,168.2C249.5,166.8,249.4,168.5,249.2,168.2z"/>
	<path fill="#33073B" d="M430.5,168.1c3.9,2.1,7.8,2.6,11.8,1.5C445.4,172.6,430.1,178.9,430.5,168.1
		C433.6,168.2,430.5,168.6,430.5,168.1z"/>
	<path fill="#33073B" d="M233.8,181.7c1-5.8,4.4-8.3,10.2-7.7c-0.1,0.1-14.7,29.6-17.9,16.4C231.4,181.5,227.5,188.1,233.8,181.7
		C234.6,176.9,233.5,182,233.8,181.7z"/>
	<path fill="#33073B" d="M250.7,173.4C254.5,174,241.1,184.5,250.7,173.4C252.5,173.6,249.6,174.6,250.7,173.4z"/>
	<path fill="#33073B" d="M244.2,178c6.5,1-11.3,25.2-12.8,28.5C226.7,199.1,240.1,182.7,244.2,178z"/>
	<path fill="#33073B" d="M358.3,183.2c5.3,7.3,9.2,1.5,10.9,16c-1.5-2.8-3.8-3.9-7-3.3C368.1,192.2,357.9,188.9,358.3,183.2z"/>
	<path fill="#33073B" d="M351.4,185.2c6.4-0.7,12.1,13.4,10.8,18.4C357,198.5,353.4,192.4,351.4,185.2
		C351.8,185.1,355,190.4,351.4,185.2z"/>
	<path fill="#33073B" d="M349.7,191.2c5.2-0.3,7.7,17.9,10.2,19.4C341.4,199.6,344.2,224.9,349.7,191.2 M347.5,198.1
		c-4,4.4-2.6,5.8,4.1,4.1c-1,0.9-5.9,6.9-2.6,7C359.2,209.6,348.1,199.1,347.5,198.1C347.8,200.2,347.7,198.6,347.5,198.1z"/>
	<path fill="#33073B" d="M256.3,193.1c2.4-0.3,2.8,2.6,4.1,4.1C257.4,198,256.6,195.4,256.3,193.1z"/>
	<path fill="#33073B" d="M235.4,204.2c6.7-4.5-2.9,4.6,5.7,3.8c1.2,7.6-6.8,10-11.8,3.6C228.9,211.7,234.5,204.7,235.4,204.2
		C236.6,203.4,233.8,205.1,235.4,204.2z"/>
	<path fill="#33073B" d="M297.3,204.4C292.9,206.3,305.3,202.5,297.3,204.4C295.8,205,298.3,204.1,297.3,204.4z"/>
	<path fill="#33073B" d="M222.4,206.9c6.1,1.1,6.3,4.5,0.5,10.4C222.8,213.8,222.6,210.4,222.4,206.9
		C223.9,207.1,222.6,210.3,222.4,206.9z"/>
	<path fill="#33073B" d="M335.2,208.8C335.8,208.3,343.1,216.6,335.2,208.8C335.5,208.6,336.4,210,335.2,208.8z"/>
	<path fill="#33073B" d="M226.5,214.8C219.2,204.1,235.8,217.2,226.5,214.8C225.5,213.3,227,214.9,226.5,214.8z"/>
	<path fill="#33073B" d="M300.6,210.1c1.6,2.8,2.2,5.8,1.8,9c4.4,0.7,23.5-20.6,30.8-2.4c-2.6,1.2-4.6,3-6,5.4
		c4.1-0.1,21.1,10.1,18.1,12.5c3.6-2.8-5.2-9-5.9-11.8c2.5,4.4,4.4,4.6,5.6,0.4c4,14.3,7.3,33.5,0.1,29.7c-4.5,8-10,68-27,88.2
		c17-110.2-7.7-32.5-6.9-39.5c5.2-11.2,10.5,39.4,7.3,35.1c-3.1,62.2-17.4-63.4-20.2-62.7c1.3,5.1-7.5-15.9-7.1-28.7
		C289.5,245.7,297.6,216.1,300.6,210.1 M307.5,217.2C295.6,223.6,332.2,220.7,307.5,217.2 M320.6,218.5
		C310.4,225,325.6,217.1,320.6,218.5 M314.2,227.1c-6.6-0.8-8.9-3.8-10.7,4c-0.2-0.1,10.7-1,9.9-1c-5.4,9.6,15.9,5.8,19.7-5.1
		C328.7,226.7,313.5,225.4,314.2,227.1 M332,236.8c-8.6,4.4-26,4.8-33.6,1.6c-0.8,2.2-5.3,30.2-4,31.6c4.3,4.7,26-7.5,33.2-6.6
		c-0.7,2.9,0.3,19.1,7.5,17.7C338,266.9,346.5,233.8,332,236.8 M305.2,281.9C310.9,291.9,304.6,281.7,305.2,281.9
		C306.4,284.1,303.2,281.4,305.2,281.9z"/>
	<path fill="#33073B" d="M359.6,216.7c1.5-7.1,9-0.3,8.7,6.4C359.3,224.3,362.1,217.1,359.6,216.7
		C359.8,215.3,361.9,217.1,359.6,216.7z"/>
	<path fill="#33073B" d="M353.1,221.1c0.5,1.1,4.7,9.8,4,18.3C350.6,235.4,354.3,226.8,353.1,221.1
		C351.4,217.2,353.2,221.6,353.1,221.1z"/>
	<path fill="#33073B" d="M358.1,227.3c7-3.8,1,3.1,2.4,3.6C359.6,223.9,355.3,236.7,358.1,227.3
		C359.4,226.6,357.7,228.5,358.1,227.3z"/>
	<path fill="#33073B" d="M283,228.8C284.7,221.6,290.5,235.3,283,228.8C283.4,227.2,283.9,229.5,283,228.8z"/>
	<path fill="#33073B" d="M346.1,238.9c3.1-4,5.2-3.6,6.2,1.3C348,247.1,350.1,241.4,346.1,238.9C347.9,239,347.6,239.9,346.1,238.9z
		"/>
	<path fill="#33073B" d="M311.4,247.3c6.9-2.2,13.9-4.3,21-6.2C330.8,245.5,311.6,261.5,311.4,247.3
		C319.1,247.3,311.4,248,311.4,247.3z"/>
</g>
<rect x="0" y="0" fill="none" width="646.5" height="388.7"/>
<g>
</g>
<g>
</g>
<g>
</g>
<g>
</g>
<g>
</g>
<g>
</g>
<g>
</g>
<g>
</g>
<g>
</g>
<g>
</g>
<g>
</g>
<g>
</g>
<g>
</g>
<g>
</g>
<g>
</g>
</svg>
