<?xml version="1.0" encoding="utf-8"?>
<!-- Generator: Adobe Illustrator 17.0.0, SVG Export Plug-In . SVG Version: 6.00 Build 0)  -->
<!DOCTYPE svg PUBLIC "-//W3C//DTD SVG 1.1//EN" "http://www.w3.org/Graphics/SVG/1.1/DTD/svg11.dtd">
<svg version="1.1" id="Layer_1" xmlns="http://www.w3.org/2000/svg" xmlns:xlink="http://www.w3.org/1999/xlink" x="0px" y="0px"
	 width="647.5px" height="388.7px" viewBox="0 0 647.5 388.7" enable-background="new 0 0 647.5 388.7" xml:space="preserve">
<g id="_x23_33073bff_11_">
	<path fill="#33073B" d="M9.2,43.1c4.5,0,9,0,13.5,0C17.6,44.7,10.4,50.5,9.2,43.1z"/>
	<path fill="#33073B" d="M349.4,115.2c7.1-5.3,24.8-46.2,22.1-45c-7.5,13-7.7,25.9-18.1,38c4.9-8.1,6.9-57.7,19-62.1
		c-20-0.3-15.6,51.2-38.1,62.8c-13.6-40.9-34.6,7.8-46.2-7c-1.4-1.8-20.7-24.5-20.5-24.7c-0.8-0.5-16.1,18.2-40.9,12.1
		c-2-0.5,56-16.9,37.7-18.5c-22.3-2.2-20.2,18.2-18.5,19c13.9,2.5,57.8,36.4,68.2,49.2c0.5-1.9,1.2-3.8,1.7-4.9
		c2.7,1.7,2.3,0.2,9.6,2c0,1.2-4.6,8-6.9,10.7c0.6,3-0.7,5.3-4.8,6.5c-9.4,3-17.7-5.5-25.8-5c0.3,1.4-1.4,20,1.6,19.5
		c0.9-1.1,5.3-11.3,5.4-11.2c0.6,0.1,11,23.1,11.6,9.4c0.6-0.1,5.6,6.9,6.8,7.9c-3.1,0.2-13.5,2.6-13-1.7
		c-1.4,12.5,12.6,5.8,17.3,13.8c0.8-0.8,9.5-7.1,9.1-6c-1.1,3.3-3.3,5-6.7,5.1c1.8,2.1,3.6,4,5.6,5.9c-10.5-0.3-2.4,7.1-2.8,13.2
		c3-0.2,7.7-7-0.3-8.4c2-2.8,9.8-4.5,12.7-2.5c2.6,1.7-5.9,5.5-5.9,5.5c4.5,3.5-18.7,32.7-10,31.4c-1.3-7.6,14.9-18.5,12.3-24.3
		c-0.8,2.7,4.3-5.8,5.9-8.8c0.6,0.1,1.7-0.1,2.6-0.1c-2.6-5.5-5.1-9.7-6.1-12c0.9-4.5,9.4-28.2,13.2-25.9c-3.7,8.2-0.4,14.2,3.5,20
		c-0.1,0-0.1-0.1-0.2-0.1c0.1,0.1,0.2,0.1,0.2,0.2c1.8,2.7,3.8,5.3,5.2,8.1c7.8-1.6,1-4.7-3.8-7.4c1.3,0.4,2-0.4,1.8-2.6
		c2.4,1.1-8.9-31.2-9.1-30.2c-4.9,5.4-11,7.5-18.4,6.3c21,0.5-20.7-41.4-13.7-27.1c-10-3.4-0.7-20.5,3.2-16.4c2,0,3.7,1.3,5.4,3.2
		c0-0.4,0.2-0.6,0.5-0.8c2.6-6,7,1.6,6.1,8C332.2,124.2,338.5,125.7,349.4,115.2z M296.3,151c4.3,2.7,10.6,9.5,11.9,13.1
		C305.4,161.7,295,157.1,296.3,151z M331.5,189.9c-1.2-1.5-4.3-4.1-2-5.7C332.2,184.1,334.6,189.4,331.5,189.9z M328.3,160.1
		c1.7,0.1,5-1,4,2C330.6,162,327.3,163,328.3,160.1z M316.4,162.4c5.1-0.7,6.8,1.6,4.9,6.8C320,167.3,314.7,163.8,316.4,162.4z
		 M326.3,174.1c-2.5-1.7-11.4,3.1-11.1-1.8C318.3,174,325,171.3,326.3,174.1z M300.7,117.5c-2.4,1.5-3.4-3.4-1.2-4.1
		C300.4,113.5,303.7,117.6,300.7,117.5z M318.3,107.1c-1.3-2.1-2.9-2.4-4.9-1c0.2-3.7,5.4-5,1.9-5c5-5.7,8.7-5.2,11,1.6
		C317.8,110.9,319,97.7,318.3,107.1z"/>
	<path fill="#33073B" d="M327.2,122c0.2-0.6,0.3-1.2,0.4-1.8c-2.5-2.1-4.5-5-6.5-7.2C320.8,115.5,326.3,121.8,327.2,122z"/>
	<path fill="#33073B" d="M317.3,148c0.1,0,0.6-0.4,1.1-1.1c-0.5-2.3-2.1-5-4.4-7.8C313.1,142.6,313.2,146.7,317.3,148z"/>
	<path fill="#33073B" d="M314.6,128.4C300.7,133,325.8,130.7,314.6,128.4"/>
	<path fill="#33073B" d="M327.3,167C330.7,174.7,337.1,167.7,327.3,167"/>
	<path fill="#33073B" d="M329.5,172.2C320.1,178,344.9,169.9,329.5,172.2"/>
	<path fill="#33073B" d="M572.3,55.1 M572.3,55.1"/>
	<path fill="#33073B" d="M62,55.7c6.9,0.2,7.4,1.8,8.4,6.3C70.2,61.9,62,56.3,62,55.7C63.3,55.8,62.1,57.8,62,55.7z"/>
	<path fill="#33073B" d="M480.6,55.2c0.1-0.6-89.6,72.6-87.6,73.9c0.8-5.5-21.7-26.7-18.1-29.2c0.1,0.1,15.2,13.4,15.6,11.7
		c1.1-3.9-2.8-9.9,2.4-12.5c1.2,1.4,2.6,1.5,4.3,0.3c-1.1,7.9-4,16.2-5,23.8c14.8-15.4,32-19.3,40.9-41.3
		C419.6,86.3,481.8,52.4,480.6,55.2z"/>
	<path fill="#33073B" d="M26.3,57c12.6,5.2-7.2,14.8-11,14.1C15.3,61.4,25.7,70.7,26.3,57C28.7,58,26.2,59.9,26.3,57z"/>
	<path fill="#33073B" d="M18,58.1c13.8-2,2.2,10.5-0.8,4C22.8,64.4,23.1,63,18,58.1C20.2,57.8,18.6,60.2,18,58.1z"/>
	<path fill="#33073B" d="M3.4,59.1c2.9-0.9,10,12,9.8,14.2C5.1,70.1,1.9,65.4,3.4,59.1C5.5,58.5,3.3,59.9,3.4,59.1z"/>
	<path fill="#33073B" d="M105.1,107.4c9-6.1,9,2.1,12.2,5.2C113,112.4,106.5,111.5,105.1,107.4C108.2,105.2,105.2,107.9,105.1,107.4
		z"/>
	<path fill="#33073B" d="M261.4,87.3C263.5,90.1,261.6,99.4,261.4,87.3C261.7,87.7,261.4,89.2,261.4,87.3z"/>
	<path fill="#33073B" d="M148.3,89.6c3.3-0.1,6.6-0.2,10-0.4c-0.4,2.1-1.7,2.8-4,2c1.2,2.4,30.9-1.7,27.9,9.3
		c-11.2,0.4-20.3-3.4-31.8-1.6C150,92.6,148.7,93.5,148.3,89.6C151.6,89.1,148.5,91.8,148.3,89.6z"/>
	<path fill="#33073B" d="M198.5,93.6c5.2,1.2,26.7,8.4,27.2,15.3c-7.2,0.4-24-15.6-31.4-10.6c-0.3,5.7-3.5,7.9-9.9,2.3
		C181.2,97.7,204.6,92.8,198.5,93.6C201.9,94.4,195.2,94,198.5,93.6z"/>
	<path fill="#33073B" d="M319,100.9C326.2,99.1,322.1,106.3,319,100.9C320.4,100.5,319.3,101.4,319,100.9z"/>
	<path fill="#33073B" d="M484.8,108c10.3,0,10.6-2.1,2.1,12.2c-4.6-2.3-15.9,0.9-24.6,5.1c3.9,5.6,9.7,1.6,16.3,2.5
		c-13.3,5.4-32.3,31.5-40.3,31.6c-1.2,4.9,6.3,2.5,0.4,8.9c-7.4-4.3-6.1,1.4,0,0c-2.3,4.8-7.1,6.3-8.2,11.9
		c14.8-4.7-5.5,10.9-6.1,12.6c5.5,1.1,3.9,8.7-1.9,4.5c2.7,3.9,1.8,6.4-2.5,7.6c-10.8-2.1,3.6-14.3,1.4-19.1
		c1.2,2.7-9.8-4.8-8.9-4.8c-0.1,1.9-7.2,22.3-8.1,13.8c0.4,3.7,6.2,7,1,9.1c-22.4-28.6-14.4,33.7-42,43.6c0-0.3,23.4-47.5,21.4-47.8
		c-4-2.7-7.5,7.6-9.1,9.1c-16.8-18.7,41.5-24.8,7.9-42.7c4-9.5,9.1,1.8,10.9-8.2c1,3.4,3.1,5,6.4,4.9c0.8-4.2-1.1-6.4-5.7-6.6
		c17.4-15.1,18.2-14.8,41.8-22.3c-0.7,2.6,19.8-18.5,25.8-17.8c1.2,5.4-0.7,6.8-5.6,4.3C458.3,125.9,483.4,109.2,484.8,108
		 M424.4,137 M424.4,137 M434.9,146.8c-7.4,2.1-30.4,11.1-28.6,12.3c0.2,0.6,5.1,12.6,6.3,12.7c0.7,0.5,5.2-3.7,5.9-3.7
		c1.4,4-4.3,7.3,5.8,9C424.1,168.5,434.8,147.1,434.9,146.8 M392.3,165.1c-0.7,2.2,11.6,7,13.2,7.2c-1.9,1.1-4.5,10.2-7.2,14.6
		c3.5-0.4,14.2-7.4,14.2-11.6c-1.7,1.3-9.5-4.1-9.4-5.9c2.2,1.5,3.7,1.2,4.2-1.1C407.1,168.3,394.6,163.9,392.3,165.1
		C391.5,167.8,394.7,163.8,392.3,165.1z"/>
	<path fill="#33073B" d="M164.4,159.1c15,5.6,21.4,5.2,28.1,23.6C193,182,162.9,166.2,164.4,159.1
		C167.2,160.1,164.3,159.6,164.4,159.1z"/>
	<path fill="#33073B" d="M211,164.1c14.2-17.2,32.8,32.6,31.2,31.6c-2.3,1.4-3.8,2.2-6.7,2.3c-1.9-3.4-2.7-13.4,3.1-12.3
		C233.7,175.1,217.9,172.2,211,164.1z"/>
	<path fill="#33073B" d="M188.9,163.9c1.9-1.4,19.9,5.2,19.7,0c6.3,3.8-8.3,6.4,3.9,5.4C206.4,173.5,193,172.9,188.9,163.9
		C193.1,160.8,190.3,167,188.9,163.9z"/>
	<path fill="#33073B" d="M202.1,179.9c3.2-3.2,5.5-2.2,7.1,3.2c-1.7-9.2,14.7,4.5,17.3,9.9C215.7,192.2,210.1,186.7,202.1,179.9z"/>
	<path fill="#33073B" d="M298.2,179c1.2-5.1,6.9,18.6,4,8.3C298.6,187.7,298.7,180,298.2,179z"/>
	<path fill="#33073B" d="M359.7,193.3c13.2-22-3.1,24.8-3.5,24.7c3.8-3,15-11.5,16.5-10.4c2.6,0.3-10.2,21.2-10.7,23.6
		c-1.5-2.6-1.1-12.3-5.4-11.1c-9.9,2.8,1.1,9.4,1.9,10.6c-6.8,0.9-10.4,10.5-11.4,16.3c2-1.1,2.5,16.9-3.9,21.2
		c0.2,2.6,1.1-9.7-1.2-5.3c2.3,0.4-11.8,6.4-11.9,7.8c9.3-0.8,0.9,4.4-1.8,5.3c0.1,1.3-12.6-29.1-13.8-28.8c-0.8,0.6,1.7,4,0.6,7.7
		c-9.4,0.7-22.8-0.7-32.5,0.1c-0.8-3.8-0.7-14.5-4.3-12.9c1.2,6.2,26.7-30.9,5.3-29.5c1.4-0.1-9.1,9.5-6.4,0.4
		c1.8,2.3,2.8,1.8,3.2-1.5c-2.6,0.5-10,4.5-12.1,3.3c2.2,1.3-14.9-9.3-5.9-9.8c-2.6-5.6-9.2-2.8-8.1-10c13.2,6.9,35.4,5.5,38.3,25.2
		c1.5-5.6,2.4-11.2,2.8-17c8.1-2.7,1.1,26.8,0,29.1c-0.1,21,12.1,6.4,24.7,5.8c0.7-3.3,9.4,23.2,10.4,23.4
		c9.4,2,10.1-35.3,10.6-40.4c22.6-9.3-3.9,13.2,13-0.8C342.3,223.1,359.8,193.2,359.7,193.3 M347.5,232.2
		C332.1,247.7,356.5,231,347.5,232.2 M288.4,240c7.1,3.5-7.4,7,2.2,6.6C295,246.4,288.5,240.1,288.4,240 M314.6,242.4
		C299.9,252.1,325.3,240.9,314.6,242.4C313,243.5,315.3,242.3,314.6,242.4z"/>
	<path fill="#33073B" d="M415.5,186.1c5.1,1.9-0.4,15.9-5.4,15.8C412.4,196.8,414.2,191.6,415.5,186.1
		C416,186.3,412.8,191.1,415.5,186.1z"/>
	<path fill="#33073B" d="M352.4,239.1C366,240.4,338.9,248.1,352.4,239.1C353.1,239.1,351,240,352.4,239.1z"/>
	<path fill="#33073B" d="M266.9,241.1c13.7,15.6,24.4,21.8,27.2,49.2C290.6,289.7,262.7,242.8,266.9,241.1z"/>
	<path fill="#33073B" d="M294.3,264c2-2.3,4.1-4.6,6.1-6.9c2.1,3,3.1,6.3,3,9.9c7.4,0.7,5.1-6.7,10.9-7c-0.5,1.7,1.7,16.3,10.2,16.3
		C306.7,291.4,299.9,270.4,294.3,264 M309.5,268.2c-1.4,0.7-2.1,5.1,0.2,3.3C312.1,271.6,311.5,268,309.5,268.2z"/>
	<path fill="#33073B" d="M323.4,285.9C321.8,276.3,329.9,294.3,323.4,285.9C323.1,284.2,324,286.7,323.4,285.9z"/>
	<path fill="#33073B" d="M302.5,286.1c1.9,0.5,6.2-2.5,5.8,0.8C306.3,289,300.9,290.9,302.5,286.1z"/>
	<path fill="#33073B" d="M343.4,309.6c-0.9-9.1-7.2-36.4-4.2,4.6c-2.6-1.4,3.2-57.4,3.7-27C342.8,287.2,344.7,311.5,343.4,309.6z"/>
	<path fill="#33073B" d="M325.5,297.2c5.2-1.7-2.7,40.2-4.2,43.9C321.9,333.2,323.7,303.8,325.5,297.2
		C327.9,296.4,323.4,304.8,325.5,297.2z"/>
	<path fill="#33073B" d="M317.3,303.3c4.3-7.1,5.2,6.4,1.1,8.9C318.1,309.2,317.7,306.3,317.3,303.3
		C318,302.2,317.6,305.2,317.3,303.3z"/>
	<path fill="#33073B" d="M313.5,311.1C320.2,310.9,315.5,318.2,313.5,311.1C314.8,311,313.8,312.4,313.5,311.1z"/>
	<path fill="#33073B" d="M333.3,316.2c1.3,0.1,3.8,9-1.1,8.9C330.9,321.6,331.3,318.6,333.3,316.2
		C334.4,316.3,333.1,316.6,333.3,316.2z"/>
	<path fill="#33073B" d="M6.5,86.2c5.2,4.6,78.9,72.3,140.7,67.4C46.9,126.1,29.8,74.1,30.5,75.1c5,7.4-20.2-17,31.5,8.3
		c-0.3-0.3,24.5-12.2,21.5,2.9c1.3-1.7,53.9,10.1,62.5,29.4c8.4-16.4-71.2-47.9-75.7-53.6c44.2-5.6,77.2,13.9,69.2,29.9
		c-3.6-17.1-28.3-43,14.3-12.5c-20.7-31.3-59-17.4-87.3-25.2c18.6-6.9,77.4-7.4-17.2-17.6c0,38.5-6.8,19-9.8,19.2
		c-7-8.9-28.3-29.5,87-51.9C88.3,7.7,31.3,11.6,9.2,43.1C-1.5,70.9-1,79.6,6.5,86.2z"/>
	<path fill="#33073B" d="M70.1,16.9c81-37.8,239.4,10.7,195.7,62.5l0,0C255.8-7.8,90.6,3.3,70.1,16.9z"/>
	<g>
		<path fill="#33073B" d="M479.9,6.6c-95.8,16-101.7,46.4-101.8,46.2c122-65.2,181.7,1.1,106.1,54c59.9-41.9,47.2-75.8,3.2-89.5
			c23.7,3.5,80.1,36.5,52.8,57.3c16.7-18-38.8-66.1-0.8-52.8c0,0,40.2,16.1,15.8,48.2c19.3-33.8,90.5-55.3,49.2-3.9
			c38.7-32.7,57.2-47.5,3.1,11.3c32-17.8,48.7-65.8,20.1,11.4c55.8-55.8-23.2-75.8-23.2-75.8C595.3,3.9,506.2,4.5,479.9,6.6z"/>
	</g>
</g>
<rect x="0" y="0" fill="none" width="646.5" height="388.7"/>
<g>
</g>
<g>
</g>
<g>
</g>
<g>
</g>
<g>
</g>
<g>
</g>
<g>
</g>
<g>
</g>
<g>
</g>
<g>
</g>
<g>
</g>
<g>
</g>
<g>
</g>
<g>
</g>
<g>
</g>
</svg>
