<?xml version="1.0" encoding="utf-8"?>
<!-- Generator: Adobe Illustrator 17.0.0, SVG Export Plug-In . SVG Version: 6.00 Build 0)  -->
<!DOCTYPE svg PUBLIC "-//W3C//DTD SVG 1.1//EN" "http://www.w3.org/Graphics/SVG/1.1/DTD/svg11.dtd">
<svg version="1.1" id="Layer_1" xmlns="http://www.w3.org/2000/svg" xmlns:xlink="http://www.w3.org/1999/xlink" x="0px" y="0px"
	 width="646.5px" height="388.7px" viewBox="0 0 646.5 388.7" enable-background="new 0 0 646.5 388.7" xml:space="preserve">
<g id="_x23_33073bff_16_">
	<path fill="#33073B" d="M315.5,91.3c10.7,1,27.4-1.5,36.1,1.5c-12.6,7.8,16.7,25.7,27.5,30.4c-0.8-4-6.5-11.4-3-14.1
		c4.2,18.5,26.7,48.1,37.9,62.8c0.1-0.3-9.6-4.8-10.7-5.7c0.2,2.4-17.5,42.6-23.1,36.2c-1.8,0.9,22.2-64,2.3-75.5
		c1.4,11.1-7.8,9.6-7.3,11.1c1.1,3.5,8.4,5.5,5.4,11.4c-2.7,5.2-6.5-16.1-12.3-9.5c-1.3,4.4-2,12.3-2,16.2
		c-8.8-7.6,11.6-34.4-6.9-33.4c-0.6-0.1-42.5-13.6-27-15.9c-28-11.1-16.5,8.8-38.4,6.4c6.1,9.9-7.4,16.2-16,14.6
		c-16.9-3.2,1.5,24.3-8.4,25.5c-0.2-2,0.1-9.7-4.2-8.2c-4.5,8.4,3.7,8.9-0.1,12.3c-11-14.1-54.3,50.6-56.7,51.2
		c-2.4-0.6-1.3,9.5-2.3,11.4c-8.6-3,49.4-117.4,59.1-117c0.7,5.5-11.9,19.6-2.1,21.3c-2.1-5.9,31.6-22.1,33.3-21.4
		c-6.2-0.5-7.8-2.2-4.7-4.9C302,98.1,302.8,97.1,315.5,91.3 M335.2,99.1C342.4,105.7,345,98.7,335.2,99.1 M379.3,129.1
		C381.7,130.1,379.2,122.5,379.3,129.1 M253.6,136.4c-1.4,1.8-7.8,11.6-7.2,13.9c-0.2-1,19.5-7.2,16-14.5c-6.9,8.9,2.5-3.4-7.6,5.5
		c-1.2-4.9-0.8-9.7,1.4-14.3C253.2,129.5,252.4,132.6,253.6,136.4C250.9,139.9,254.1,133.5,253.6,136.4z"/>
	<path fill="#33073B" d="M371.6,153.4C378.8,154.5,369.4,163.1,371.6,153.4C373.4,153.6,371.3,154.7,371.6,153.4z"/>
	<path fill="#33073B" d="M272.2,156.7C273.1,151.1,279.6,160,272.2,156.7C272.4,155.8,273.2,157.2,272.2,156.7z"/>
	<path fill="#33073B" d="M363.3,158c8.9,1-2.6,16.1-2.1,22.7C350.3,180.3,361.6,165,363.3,158C364.4,158.1,362.5,161.2,363.3,158z"
		/>
	<path fill="#33073B" d="M272.9,160.5C274.6,162.5,273.5,162.6,272.9,160.5C271.3,158.5,273.6,162.9,272.9,160.5z"/>
	<path fill="#33073B" d="M278.6,162.1c0.6,1,1.2,2.1,2,3.1C279.3,169.8,277.2,164.2,278.6,162.1z"/>
	<path fill="#33073B" d="M268.4,163c3.4,1.6,5,4.3,4.8,8.3C268.3,168.8,266.7,166.1,268.4,163z"/>
	<path fill="#33073B" d="M374.3,169.1C374.9,168,382.7,171.5,374.3,169.1C375.2,167.5,374.3,169.1,374.3,169.1z"/>
	<path fill="#33073B" d="M255.4,169C260.6,169.7,264.8,179.6,255.4,169C255.8,169.1,257,170.8,255.4,169z"/>
	<path fill="#33073B" d="M267.5,171C268.7,171,266.4,186.1,267.5,171C270,171,267.5,171,267.5,171z"/>
	<path fill="#33073B" d="M280.5,180.7C281.4,168,290.8,179.8,280.5,180.7C280.7,178.4,281,180.6,280.5,180.7z"/>
	<path fill="#33073B" d="M278.5,184c7.5,9.2,0.6,11.9,15.1,8.3c-1.2,5.3-16.6,19.3-8.1,32.6c-0.3,0.4-22.5,15.8-7.1,15.4
		c-0.4,3.1-7.6,5.2-10,8.7c6.4,4.1,8.1,11.5-4,14c2.9-4.8,32.3,24.1,13.7,24.9c-3.2-5.4-25.6-34.8-21.4-40.5
		c20.4,0.6,7-19.7,6.6-28.1c-0.8-0.6,5,9.1,6.5,8.2C277.4,226,277.5,191.8,278.5,184C280.5,186.4,278.1,187.1,278.5,184z"/>
	<path fill="#33073B" d="M238.1,187.3c2.4,1.7,4.8,3.4,7.2,5.2c2.3-3.7-7.6,11.8-6.8,11C230.3,195.5,242.1,194.5,238.1,187.3
		C241.8,187.3,238.8,188.5,238.1,187.3z"/>
	<path fill="#33073B" d="M269.3,189.2C280.9,183.4,271.3,199.6,269.3,189.2C271.1,188.3,269.6,190.4,269.3,189.2z"/>
	<path fill="#33073B" d="M364.3,187.3c6.7,2.9-4.4,23.3-2.2,29.8c-20.8,3.4-24.8,35.1-17.8,42.1c-14.7,40.2-30.7-6.9-24.4-11.4
		c-8.9,3.1-3.9,0.9-9.2-1c-4-3-8.7,5.2-11.5,5.4c-0.8-0.4-1.5-0.9-2.2-1.4c4-0.5-14.4-14.5-14.7-22.6c7.2,5,5.5-1.4,10.1-6
		c1.3,22.2,26,17.8,46.8,18.9C342.4,215.4,349.9,208,364.3,187.3 M318.2,243.1c0.7,2.7,4.5,2.7,5.2,0
		C321.7,243,319.9,243,318.2,243.1 M330.6,244.5c-1.8,1-7.8,3.4-5.6,7.5C328.6,258.7,334.2,239.6,330.6,244.5 M333.6,251.4
		c-4.8,4.4-5.8,9.6-3.1,15.6c3,1.3,2.3-9.3,3-0.9C331.5,271.1,343.1,245.4,333.6,251.4C327.7,254.1,336.5,249.6,333.6,251.4z"/>
	<path fill="#33073B" d="M258.3,193.1c1.3,0.5,20.4,20.8,8.2,27.9C268.4,212.1,260.1,201.8,258.3,193.1z"/>
	<path fill="#33073B" d="M251.5,194.3C261,202.6,243.1,197.4,251.5,194.3C251.7,194.5,250.5,194.6,251.5,194.3z"/>
	<path fill="#33073B" d="M224.3,211c1-2.8,2.7-5.1,5.1-6.9c-0.1,2.7-3,18.2-8.1,17.7C219.2,217.9,219.5,211.7,224.3,211
		C227,209.7,223.8,211,224.3,211z"/>
	<path fill="#33073B" d="M374.2,210c1.7-3.3,4.4-4.6,8.2-4C380.1,208,377.1,209,374.2,210C374.3,206.2,375.5,209.6,374.2,210z"/>
	<path fill="#33073B" d="M206.9,221.2C212.9,214.3,210,236.9,206.9,221.2C207.9,220.1,207.3,223,206.9,221.2z"/>
	<path fill="#33073B" d="M382.2,257.5c-7.3-3.2-8.3-1.6-2.9,4.7c-5.8-0.9-10.1-6.8-10.8-11.3c10.5-0.4-10.1-21.4-8.2-32
		 M360.3,218.9c7,1.5-1.4,3.6,8.1,2.1"/>
	<path fill="#33073B" d="M274.3,262.2c3.7-3.4,2.9,4.8,0.6,5.2C274.4,265.7,274.3,263.9,274.3,262.2z"/>
	<path fill="#33073B" d="M367,268.9c0.7-10,11.8,26.6,11.5,26c-1.8,0.2-14.4-23.4-14.4-23.6C370,273.5,371,272.7,367,268.9
		C367.2,266.5,367.8,270,367,268.9z"/>
	<path fill="#33073B" d="M324.4,286.4C320.7,267.7,330.9,284,324.4,286.4C323.9,283.9,325.5,286,324.4,286.4z"/>
	<path fill="#33073B" d="M324.8,290c1.1,0.1,1,61.3,0.8,61c-1.1-3.3,2.5-51.8,5.7-51.9c0,4.2-10.8,41.8-10.4,42.9
		C317.8,335.3,322.2,297.1,324.8,290C327.7,290.3,320.3,296.5,324.8,290z"/>
	<path fill="#33073B" d="M315.4,305c4-0.4,2,3.8,1.8,6C313.8,311.9,315.8,307,315.4,305z"/>
	<path fill="#33073B" d="M314.5,324.2c-5.4,3.3,1.3,34.6,3.8,35.8C319.5,356.8,316.7,326.8,314.5,324.2
		C311.3,326.2,318.3,324.8,314.5,324.2z"/>
</g>
<rect x="0" y="0" fill="none" width="646.5" height="388.7"/>
<g>
</g>
<g>
</g>
<g>
</g>
<g>
</g>
<g>
</g>
<g>
</g>
<g>
</g>
<g>
</g>
<g>
</g>
<g>
</g>
<g>
</g>
<g>
</g>
<g>
</g>
<g>
</g>
<g>
</g>
</svg>
