<?xml version="1.0" encoding="utf-8"?>
<!-- Generator: Adobe Illustrator 17.0.0, SVG Export Plug-In . SVG Version: 6.00 Build 0)  -->
<!DOCTYPE svg PUBLIC "-//W3C//DTD SVG 1.1//EN" "http://www.w3.org/Graphics/SVG/1.1/DTD/svg11.dtd">
<svg version="1.1" id="Layer_13" xmlns="http://www.w3.org/2000/svg" xmlns:xlink="http://www.w3.org/1999/xlink" x="0px" y="0px"
	 width="647.4549px" height="388.742px" viewBox="0 0 647.4549 388.742" enable-background="new 0 0 647.4549 388.742"
	 xml:space="preserve">
<g id="layer-13--33073bff">
	<path fill="#33073B" d="M9.2052,43.0819c4.5133,0,9.0267,0,13.54,0C17.5583,44.7323,10.3882,50.5176,9.2052,43.0819z"/>
	<path fill="#33073B" d="M349.4352,115.2419c7.0895-5.3373,24.807-46.1863,22.1-44.98c-7.5173,13.0465-7.6876,25.9327-18.1,37.97
		c4.912-8.1288,6.937-57.7351,19.02-62.1101c-19.9922-0.3423-15.6166,51.2306-38.08,62.8
		c-13.5516-40.9311-34.6272,7.75-46.2425-7.0237c-1.3976-1.7776-20.6552-24.4644-20.5433-24.6559
		c-0.821-0.4708-16.0935,18.1597-40.9415,12.1137c-1.9582-0.4765,56.0128-16.9363,37.6795-18.4634
		c-22.3333-2.2214-20.1553,18.2476-18.5115,18.9793c13.8955,2.5448,57.7837,36.3959,68.1749,49.1723
		c0.4592-1.9485,1.1766-3.7567,1.6545-4.8922c2.6766,1.7399,2.2891,0.1804,9.64,2c0.0247,1.2111-4.6355,8.038-6.8781,10.7276
		c0.6324,2.9996-0.6546,5.3341-4.8019,6.5224c-9.4167,3.0423-17.6566-5.5154-25.83-5.02c0.2924,1.44-1.3838,19.9642,1.57,19.53
		c0.8729-1.111,5.2665-11.3341,5.38-11.25c0.6044,0.071,11.05,23.0751,11.56,9.39c0.5764-0.1328,5.6046,6.9218,6.8311,7.855
		c-3.1007,0.2275-13.4692,2.6155-13.0023-1.7062c-1.3504,12.5002,12.5934,5.8415,17.295,13.8296
		c0.7689-0.8497,9.4739-7.121,9.0563-5.9684c-1.1156,3.2573-3.339,4.964-6.67,5.12c1.753,2.0717,3.6197,4.035,5.6,5.89
		c-10.4797-0.3083-2.3501,7.0575-2.77,13.25c3.0229-0.1651,7.6978-6.9614-0.27-8.4c2.0177-2.7904,9.7769-4.5026,12.7487-2.5337
		c2.5656,1.6997-5.9338,5.5125-5.8987,5.4537c4.5071,3.4507-18.7101,32.7141-9.994,31.4067
		c-1.3066-7.6141,14.9479-18.5152,12.2552-24.3333c-0.8005,2.7382,4.3408-5.757,5.8688-8.8034
		c0.5708,0.1042,1.6786-0.0975,2.5619-0.132c-2.6211-5.4518-5.1066-9.6793-6.1419-12.028c0.8669-4.4847,9.4272-28.2123,13.15-25.86
		c-3.7426,8.1913-0.4244,14.2083,3.4792,19.9649c-0.0714-0.0423-0.142-0.0844-0.2111-0.1262
		c0.0829,0.0615,0.1616,0.1152,0.2416,0.1714c1.8307,2.6971,3.7858,5.3383,5.2003,8.1199c7.7847-1.5839,0.9912-4.7448-3.7907-7.3516
		c1.337,0.4495,1.9507-0.4132,1.8294-2.6096c2.4236,1.0632-8.8776-31.158-9.0887-30.2388c-4.8949,5.3654-11.0316,7.4587-18.41,6.28
		c20.9747,0.5273-20.7438-41.3642-13.72-27.09c-10.0445-3.3629-0.7088-20.5184,3.2-16.37c1.9962-0.0401,3.7112,1.3101,5.4296,3.165
		c0.0331-0.3546,0.1755-0.6365,0.4604-0.815c2.572-5.9891,6.9695,1.6268,6.0724,8.0156
		C332.2482,124.2154,338.5245,125.6693,349.4352,115.2419z M296.2953,151.0019c4.3436,2.6714,10.5807,9.498,11.86,13.08
		C305.4107,161.6915,294.9651,157.0854,296.2953,151.0019z M331.4953,189.9119c-1.19-1.46-4.32-4.11-2.02-5.7
		C332.1753,184.1219,334.6352,189.3719,331.4953,189.9119z M328.3352,160.1019c1.72,0.11,4.99-0.97,3.98,1.96
		C330.5852,161.9519,327.3152,163.0319,328.3352,160.1019z M316.4452,162.3819c5.1214-0.6501,6.7514,1.6132,4.89,6.79
		C320.0229,167.2778,314.705,163.7501,316.4452,162.3819z M326.3252,174.1019c-2.53-1.7401-11.43,3.1-11.08-1.83
		C318.2852,173.9719,324.9953,171.2619,326.3252,174.1019z M300.6753,117.5119c-2.4,1.54-3.4-3.37-1.22-4.13
		C300.4052,113.4919,303.6952,117.5919,300.6753,117.5119z M318.2852,107.0819c-1.2889-2.0567-2.9323-2.3734-4.93-0.95
		c0.1674-3.7036,5.4167-5.03,1.88-5.03c5.0101-5.6977,8.6901-5.1544,11.04,1.63
		C317.7771,110.8813,318.9559,97.6922,318.2852,107.0819z"/>
	<path fill="#33073B" d="M327.1753,122.0419c0.1972-0.5901,0.3343-1.2066,0.4224-1.8345c-2.4898-2.1458-4.514-5.0213-6.5329-7.2006
		C320.8296,115.5301,326.2534,121.8198,327.1753,122.0419z"/>
	<path fill="#33073B" d="M317.2677,147.9694c0.1271,0.0403,0.5513-0.3846,1.1394-1.0899c-0.4833-2.2924-2.0883-4.9729-4.4164-7.8354
		C313.148,142.62,313.1883,146.6762,317.2677,147.9694z"/>
	<path fill="#33073B" d="M314.5752,128.4219C300.7093,132.97,325.7809,130.7229,314.5752,128.4219"/>
	<path fill="#33073B" d="M327.3452,167.0119C330.7176,174.7051,337.1417,167.6748,327.3452,167.0119"/>
	<path fill="#33073B" d="M329.5252,172.2319C320.0587,178.0016,344.8823,169.8978,329.5252,172.2319"/>
	<path fill="#33073B" d="M572.2552,55.0519 M572.2552,55.0519"/>
	<path fill="#33073B" d="M61.9552,55.7319c6.8863,0.1508,7.4148,1.751,8.42,6.33C70.1528,61.9009,61.9895,56.2774,61.9552,55.7319
		C63.3252,55.7619,62.0852,57.8019,61.9552,55.7319z"/>
	<path fill="#33073B" d="M480.5552,55.2219c0.097-0.5659-89.6462,72.5909-87.56,73.92c0.8126-5.4858-21.7109-26.7072-18.06-29.24
		c0.1293,0.1411,15.2411,13.4423,15.62,11.67c1.0923-3.8913-2.7987-9.9386,2.43-12.46c1.1939,1.395,2.6372,1.4884,4.33,0.28
		c-1.0656,7.9438-3.9849,16.1557-4.97,23.79c14.7834-15.3519,31.9534-19.2923,40.89-41.3
		C419.6339,86.2538,481.8197,52.3657,480.5552,55.2219z"/>
	<path fill="#33073B" d="M26.3152,57.0019c12.5931,5.1823-7.2171,14.8297-11.01,14.09
		C15.3052,61.4312,25.6565,70.7412,26.3152,57.0019C28.7452,58.0019,26.1752,59.9219,26.3152,57.0019z"/>
	<path fill="#33073B" d="M18.0052,58.1219c13.7894-1.9609,2.2467,10.5271-0.79,4.02C22.844,64.3548,23.1073,63.0148,18.0052,58.1219
		C20.1852,57.8119,18.5752,60.1919,18.0052,58.1219z"/>
	<path fill="#33073B" d="M3.4252,59.1119c2.8567-0.8725,10.0401,12.042,9.78,14.15C5.1177,70.1,1.8577,65.3834,3.4252,59.1119
		C5.4552,58.4919,3.3352,59.8919,3.4252,59.1119z"/>
	<path fill="#33073B" d="M105.0519,107.3926c8.9728-6.1242,9.0219,2.0719,12.18,5.23
		C113.0013,112.3809,106.465,111.4657,105.0519,107.3926C108.2019,105.2426,105.2219,107.8826,105.0519,107.3926z"/>
	<path fill="#33073B" d="M261.3852,87.3119C263.5315,90.0618,261.5729,99.3878,261.3852,87.3119
		C261.7052,87.7219,261.4152,89.2419,261.3852,87.3119z"/>
	<path fill="#33073B" d="M148.2752,89.5819c3.32-0.1233,6.64-0.2467,9.96-0.37c-0.4196,2.1007-1.7396,2.7674-3.96,2
		c1.2205,2.3937,30.9311-1.7172,27.95,9.32c-11.17,0.3535-20.3035-3.3775-31.8-1.6
		C149.9527,92.5799,148.744,93.4541,148.2752,89.5819C151.5952,89.0919,148.5452,91.8119,148.2752,89.5819z"/>
	<path fill="#33073B" d="M198.4952,93.5719c5.1903,1.206,26.6917,8.4005,27.24,15.32c-7.179,0.4487-23.9681-15.6459-31.35-10.62
		c-0.2699,5.6683-3.454,7.9163-9.92,2.27C181.2116,97.7487,204.5798,92.8022,198.4952,93.5719
		C201.8952,94.3619,195.1752,93.9919,198.4952,93.5719z"/>
	<path fill="#33073B" d="M319.0452,100.8719C326.236,99.1003,322.0695,106.2946,319.0452,100.8719
		C320.4252,100.5319,319.3352,101.3919,319.0452,100.8719z"/>
	<path fill="#33073B" d="M484.7652,107.9819c10.3325,0,10.5545-2.0733,2.12,12.16c-4.648-2.3441-15.9362,0.8955-24.61,5.06
		c3.8518,5.6494,9.6553,1.5535,16.26,2.52c-13.2648,5.3952-32.3442,31.4797-40.25,31.57c-1.1746,4.9097,6.3155,2.5215,0.35,8.9
		c-7.3505-4.338-6.0639,1.3512,0,0c-2.2934,4.8003-7.1215,6.3351-8.23,11.91c14.7747-4.7095-5.4793,10.8828-6.13,12.65
		c5.534,1.1343,3.9427,8.6837-1.87,4.54c2.6654,3.8684,1.8241,6.3988-2.5237,7.5912c-10.8323-2.0822,3.6012-14.2839,1.4-19.0562
		c1.2445,2.6982-9.7545-4.8069-8.9062-4.795c-0.0888,1.9404-7.1895,22.2757-8.1288,13.75c0.404,3.6666,6.1687,7.03,0.9688,9.11
		c-22.4382-28.6214-14.3623,33.6867-41.96,43.56c-0.0222-0.3101,23.3727-47.4735,21.42-47.82c-4.0469-2.7079-7.4943,7.575-9.07,9.12
		c-16.7843-18.6964,41.5026-24.7884,7.93-42.73c4.0222-9.5436,9.0569,1.8399,10.92-8.16c0.9781,3.3996,3.1177,5.0463,6.4187,4.94
		c0.8369-4.1937-1.056-6.4104-5.6787-6.65c17.4034-15.0831,18.1565-14.8257,41.78-22.32
		c-0.6714,2.6213,19.7951-18.5166,25.7825-17.7937c1.2307,5.3808-0.6501,6.8287-5.6425,4.3438
		C458.313,125.9259,483.3702,109.1952,484.7652,107.9819 M424.4352,137.0219 M424.4352,137.0219 M434.9452,146.7719
		c-7.4153,2.0986-30.4173,11.125-28.64,12.27c0.1661,0.6154,5.1121,12.6151,6.29,12.69c0.7238,0.5119,5.1842-3.7242,5.85-3.67
		c1.4136,3.9839-4.3221,7.2608,5.76,9.04C424.0728,168.5257,434.8078,147.1491,434.9452,146.7719 M392.3252,165.0519
		c-0.6697,2.2431,11.5609,6.9615,13.17,7.22c-1.8862,1.0753-4.5082,10.1831-7.25,14.55c3.5179-0.4025,14.223-7.426,14.18-11.6
		c-1.7211,1.3184-9.5171-4.1287-9.39-5.88c2.2441,1.5485,3.6608,1.1685,4.25-1.14
		C407.0854,168.2528,394.5804,163.8665,392.3252,165.0519C391.4952,167.8319,394.6652,163.8219,392.3252,165.0519z"/>
	<path fill="#33073B" d="M164.4452,159.0919c14.9677,5.5578,21.4479,5.1659,28.13,23.64
		C193.0407,182.0264,162.8607,166.2227,164.4452,159.0919C167.1652,160.1019,164.3252,159.6319,164.4452,159.0919z"/>
	<path fill="#33073B" d="M210.9852,164.1319c14.2232-17.1928,32.8189,32.6351,31.23,31.62c-2.3032,1.3649-3.8159,2.2291-6.7,2.3
		c-1.8623-3.4282-2.6592-13.3605,3.06-12.31C233.7447,175.0511,217.8829,172.2162,210.9852,164.1319z"/>
	<path fill="#33073B" d="M188.9152,163.8719c1.9487-1.4126,19.9321,5.1788,19.67,0.02c6.337,3.8491-8.3091,6.3895,3.89,5.38
		C206.4234,173.4538,192.9793,172.916,188.9152,163.8719C193.0952,160.8419,190.3352,167.0319,188.9152,163.8719z"/>
	<path fill="#33073B" d="M202.1352,179.9419c3.1508-3.2452,5.5275-2.1652,7.13,3.24c-1.7153-9.1701,14.7259,4.4965,17.28,9.87
		C215.7327,192.1842,210.1376,186.7294,202.1352,179.9419z"/>
	<path fill="#33073B" d="M298.1852,178.9819c1.1707-5.1062,6.8789,18.6483,3.96,8.27
		C298.6129,187.6685,298.6555,179.9959,298.1852,178.9819z"/>
	<path fill="#33073B" d="M359.6752,193.3119c13.233-21.961-3.1073,24.8079-3.49,24.74c3.7532-3.0397,15.0241-11.5499,16.49-10.39
		c2.632,0.3276-10.1513,21.2265-10.72,23.55c-1.4905-2.5804-1.1194-12.2579-5.355-11.085c-9.9355,2.7513,1.08,9.3971,1.925,10.615
		c-6.8263,0.9169-10.3559,10.4998-11.35,16.31c2.0045-1.0636,2.4878,16.8718-3.85,21.2c0.1991,2.5575,1.1173-9.7339-1.22-5.28
		c2.2526,0.4443-11.7899,6.3958-11.93,7.76c9.2527-0.7988,0.9094,4.4091-1.8,5.29c0.066,1.2721-12.5831-29.1261-13.83-28.82
		c-0.8334,0.561,1.6748,3.9732,0.56,7.67c-9.449,0.7029-22.7845-0.6867-32.47,0.07c-0.8122-3.8044-0.7173-14.4606-4.33-12.88
		c1.2425,6.1647,26.6805-30.8979,5.345-29.5112c1.4442-0.0939-9.0724,9.4987-6.375,0.4012c1.7782,2.2507,2.8482,1.7574,3.21-1.48
		c-2.5874,0.5045-9.952,4.5429-12.1263,3.285c2.1858,1.2646-14.923-9.3204-5.9037-9.795c-2.5535-5.5666-9.2183-2.7894-8.09-10.01
		c13.1862,6.9114,35.4401,5.5055,38.32,25.16c1.499-5.5751,2.4357-11.2451,2.81-17.01c8.1118-2.7206,1.0525,26.8312,0.04,29.1
		c-0.131,20.9775,12.1145,6.3745,24.72,5.81c0.6885-3.3395,9.4435,23.2338,10.3825,23.435
		c9.4261,2.0199,10.1199-35.3368,10.5775-40.435c22.6401-9.3225-3.8887,13.1533,13.05-0.78
		C342.2552,223.1456,359.7662,193.1592,359.6752,193.3119 M347.4852,232.2319C332.142,247.6623,356.4814,231.0324,347.4852,232.2319
		 M288.4352,240.0319c7.0986,3.463-7.4456,6.992,2.2462,6.59C295.0359,246.4413,288.4581,240.0605,288.4352,240.0319
		 M314.6152,242.4319C299.8611,252.0824,325.2712,240.8875,314.6152,242.4319
		C313.0252,243.4719,315.3052,242.3319,314.6152,242.4319z"/>
	<path fill="#33073B" d="M415.5352,186.1419c5.0558,1.8573-0.3838,15.8889-5.43,15.79
		C412.3723,196.826,414.1823,191.5626,415.5352,186.1419C416.0252,186.3219,412.8252,191.1319,415.5352,186.1419z"/>
	<path fill="#33073B" d="M352.3552,239.0719C365.9547,240.3758,338.8528,248.1406,352.3552,239.0719
		C353.0852,239.1419,351.0152,239.9719,352.3552,239.0719z"/>
	<path fill="#33073B" d="M266.8552,241.0519c13.6933,15.6019,24.3502,21.8028,27.23,49.16
		C290.5838,289.6648,262.7415,242.7786,266.8552,241.0519z"/>
	<path fill="#33073B" d="M294.3452,264.0019c2.0267-2.2933,4.0533-4.5867,6.08-6.88c2.0594,2.9866,3.0761,6.2999,3.05,9.94
		c7.4292,0.6777,5.1281-6.6705,10.9-7.01c-0.4785,1.6505,1.7409,16.3452,10.18,16.26
		C306.7301,291.4142,299.8632,270.4409,294.3452,264.0019 M309.4852,268.2219c-1.38,0.66-2.13,5.12,0.19,3.28
		C312.1152,271.6219,311.5052,268.0219,309.4852,268.2219z"/>
	<path fill="#33073B" d="M323.3652,285.9319C321.8191,276.3235,329.8812,294.2939,323.3652,285.9319
		C323.0852,284.1919,323.9652,286.7019,323.3652,285.9319z"/>
	<path fill="#33073B" d="M302.4852,286.0819c1.88,0.53,6.23-2.52,5.76,0.81C306.2852,288.9719,300.9352,290.8819,302.4852,286.0819z
		"/>
	<path fill="#33073B" d="M343.3707,309.5819c-0.9471-9.1136-7.2032-36.4059-4.2121,4.5941
		c-2.6422-1.4148,3.2228-57.3565,3.6826-26.979C342.8412,287.1971,344.7107,311.5119,343.3707,309.5819z"/>
	<path fill="#33073B" d="M325.4652,297.1819c5.1501-1.731-2.6508,40.248-4.18,43.9
		C321.8928,333.2402,323.6966,303.7558,325.4652,297.1819C327.8752,296.3719,323.4152,304.8019,325.4652,297.1819z"/>
	<path fill="#33073B" d="M317.3352,303.3119c4.3081-7.1376,5.2037,6.4163,1.12,8.86
		C318.0954,309.2169,317.7221,306.2635,317.3352,303.3119C318.0052,302.2019,317.5652,305.2119,317.3352,303.3119z"/>
	<path fill="#33073B" d="M313.4552,311.0619C320.2131,310.8555,315.5174,318.1708,313.4552,311.0619
		C314.7652,311.0219,313.8352,312.3719,313.4552,311.0619z"/>
	<path fill="#33073B" d="M333.3452,316.1919c1.3286,0.1315,3.7876,8.9668-1.06,8.87
		C330.9125,321.5852,331.2658,318.6285,333.3452,316.1919C334.3552,316.2919,333.0652,316.6019,333.3452,316.1919z"/>
	<path fill="#33073B" d="M6.4919,86.2448c5.1859,4.6051,78.8977,72.312,140.7033,67.432
		C46.8895,126.1459,29.8231,74.1262,30.4534,75.0667c4.9688,7.4141-20.1648-17.0202,31.5019,8.2687
		c-0.3057-0.2688,24.4858-12.2032,21.5367,2.9095c1.3458-1.684,53.9033,10.0807,62.4942,29.3673
		c8.4491-16.4003-71.1727-47.884-75.7109-53.5503c44.204-5.568,77.1637,13.8653,69.2167,29.8534
		c-3.6118-17.0754-28.35-43,14.3333-12.5026c-20.7207-31.2707-59-17.3508-87.27-25.2407c18.5619-6.9241,77.4232-7.387-17.21-17.59
		c0,38.4848-6.8046,19.0033-9.8368,19.15c-7.0317-8.947-28.3498-29.4833,86.9868-51.8688
		c-38.2222,3.8585-95.17,7.7188-117.29,39.2188C-1.5081,70.8925-1.0081,79.5849,6.4919,86.2448z"/>
	<path fill="#33073B" d="M70.1252,16.9152c81.0326-37.8428,239.425,10.6667,195.7,62.4974l0,0
		C255.8252-7.7514,90.5704,3.3366,70.1252,16.9152z"/>
	<g>
		<path fill="#33073B" d="M479.8807,6.5819c-95.7897,16-101.6694,46.3802-101.7654,46.2166
			c122.035-65.2166,181.7099,1.0758,106.0624,53.9898c59.8582-41.8696,47.1873-75.8482,3.2169-89.5397
			c23.7121,3.5291,80.0987,36.4954,52.7654,57.3333c16.6667-18.0235-38.7776-66.0625-0.7776-52.7784
			c0,0,40.155,16.1117,15.7762,48.1956c19.3333-33.7505,90.5-55.3116,49.1666-3.9472c38.6667-32.6977,57.1667-47.47,3.11,11.3
			c32-17.7845,48.7234-65.77,20.0567,11.3554c55.83-55.83-23.1667-75.7921-23.1667-75.7921
			C595.3252,3.9152,506.1604,4.5068,479.8807,6.5819z"/>
	</g>
</g>
<rect x="0" y="0" fill="none" width="646.4617" height="388.742"/>
</svg>
