<?xml version="1.0" encoding="utf-8"?>
<!-- Generator: Adobe Illustrator 17.0.0, SVG Export Plug-In . SVG Version: 6.00 Build 0)  -->
<!DOCTYPE svg PUBLIC "-//W3C//DTD SVG 1.1//EN" "http://www.w3.org/Graphics/SVG/1.1/DTD/svg11.dtd">
<svg version="1.1" id="Layer_2" xmlns="http://www.w3.org/2000/svg" xmlns:xlink="http://www.w3.org/1999/xlink" x="0px" y="0px"
	 width="646.4617px" height="388.742px" viewBox="0 0 646.4617 388.742" enable-background="new 0 0 646.4617 388.742"
	 xml:space="preserve">
<g id="layer-2--33073bff">
	<path fill="#33073B" d="M295.5934,225.4648c0.6343,13.5911,3.0136,32.8094,4.6249,45.4562
		C301.8283,257.1076,299.2569,241.4319,295.5934,225.4648z"/>
	<path fill="#33073B" d="M289.5102,281.2891c1.2308,8.1113-0.9495,16.4809-4.543,23.7812
		c-4.6659,9.4789-11.7493,16.5475-19.9021,22.4088c0.697,5.7615,6.2343,14.8768,8.3559,21.6635
		c-0.2192-3.2252-0.1888-6.3557,2.438-7.5489c-4.4255-4.3917-9.443-9.8865-9.2839-10.3517
		c3.0115-4.9005,6.5118-5.8271,9.7493-1.3245c5.7339-16.7786,25.2811-46.52,25.4008-46.7255
		c-0.1479-1.7261-0.7408-6.2575-1.507-12.2709c-0.9571,8.212-3.384,15.7692-7.9531,22.3309
		C291.8664,290.9001,290.8605,286.7192,289.5102,281.2891z"/>
	<path fill="#33073B" d="M272.1549,357.4351c2.5712-1.2923,2.48-4.4098,1.2662-8.2927
		C273.6512,352.5298,274.1347,356.0043,272.1549,357.4351z"/>
	<path fill="#33073B" d="M278.6153,341.0819c-1.1457,0-2.0425,0.1875-2.7562,0.5117c3.144,3.12,5.9897,5.6841,6.4661,5.4883
		c-1.7213-8.5369-3.8003-14.1042-6.0007-17.1646C273.9587,336.8403,273.9409,341.5598,278.6153,341.0819z"/>
	<path fill="#33073B" d="M272.1549,357.4351c-0.8219,0.4131-1.9124,0.642-3.3297,0.6468
		C270.3681,358.2214,271.4242,357.9632,272.1549,357.4351z"/>
	<path fill="#33073B" d="M368.4652,140.9619c0.0392-0.1796,0.0853-0.3251,0.1349-0.4525c-0.5422-1.0535-1.0482-2.1251-1.4938-3.2273
		c-2.3919-5.916-3.6113-12.0394-4.3959-18.3108c-0.3898-0.5247-0.7698-1.0386-1.1351-1.5394
		c-0.2529-9.8998-12.188-9.7377-21.7616-10.2299c28.649,13.1603,28.4835,83.9578,22.5051,134.4094
		c0.8636-1.9021,1.806-3.5233,2.8365-4.7896c0.0706,1.2477,0.077,2.842,0.0557,4.6458c1.4814-2.6323,3.2373-5.02,5.0615-7.3574
		C369.6584,200.5687,372.0246,173.004,368.4652,140.9619z"/>
	<path fill="#33073B" d="M318.3653,171.2919c0.0912-3.626-2.0182-3.168-5.0823-0.6172
		C316.057,171.3171,318.86,171.6388,318.3653,171.2919z"/>
	<path fill="#33073B" d="M277.1433,226.9903c0.2853-8.0869,0.2326-15.0067-0.2681-19.6185
		c-0.6987-6.813-2.0861-13.343-3.506-19.8063C272.736,198.1703,274.4812,212.3752,277.1433,226.9903z"/>
	<path fill="#33073B" d="M355.1837,282.6661c-0.3342,1.2808-0.6647,2.469-0.9885,3.5458
		c-10.9179-10.4245-4.5079-26.4122-8.62-40.1001c-1.1727,0.7391-2.3961,1.3824-3.67,1.9301
		c4.0125,21.5073,5.6528,61.6084,14.9492,81.3903C355.077,316.5629,354.3989,299.1365,355.1837,282.6661z"/>
	<path fill="#33073B" d="M370.0993,341.0692c-5.6781-0.1603-9.945-4.6149-13.2449-11.637
		c1.273,9.2174,3.1102,16.0885,5.3798,18.5922c2.3905-1.0937,7.7906-3.1359,10.7496-4.7245
		C371.9765,342.615,371.0099,341.8767,370.0993,341.0692z"/>
	<path fill="#33073B" d="M328.2353,103.4869c0.7567-2.8946,2.93-3.9796,6.52-3.255c-4.6097-2.1277-8.2344-11.7629-8.1212-16.4825
		c0.3917-16.3369-24.0036-6.8452-14.3688,7.0825c7.7751,6.9113,14.8623-8.121,13.93,8.04c-9.5477,6.8932-43.3083-5.3004-48.16,17.98
		c-2.9982,10.1658-5.9241,15.9499-7.8,28.04c-3.0895,15.3262,0.0965,28.8468,3.134,42.6736
		c0.2726-4.5664,0.9837-8.469,2.256-11.4437c-2.2546-40.0515,7.6406-52.1808,35.03-65.85
		c7.0948-3.5474,13.3387-5.1869,18.8225-5.2218C328.9173,104.6229,328.4828,104.116,328.2353,103.4869z"/>
	<path fill="#33073B" d="M346.2953,226.4219c11.8726-21.8758-0.061-64.7194,10.42-89.2599
		c-10.7271-39.402-39.6693-1.2014-51.74-17.03c-37.652,15.5582-19.4327,61.5286-9.3819,105.3329
		c-0.3927-8.4135-0.1167-14.6694,1.4256-15.8679c3.0323-2.3565,44.6244-2.7288,44.6913-2.9725
		C340.8146,209.8893,339.4375,224.4673,346.2953,226.4219z M343.2453,213.0119c0.2599-0.47,0.7599-1.41,1.0099-1.88
		C349.8053,210.2619,343.5453,220.4619,343.2453,213.0119z M345.2815,203.7319c0.0491-0.2852,0.1033-28.2708-0.4062-28.38
		C348.0629,180.3164,346.9638,193.9654,345.2815,203.7319z M347.3452,134.0919c2.92-1.01,1.86,2.26,1.96,3.98
		C346.3752,139.0819,347.4352,135.8119,347.3452,134.0919z M343.4452,157.6119c1.11-0.18,2.43-0.69,3.55-0.25
		C347.7052,159.5619,342.6452,160.0819,343.4452,157.6119z M342.1452,127.1319c0.351,6.0582-11.944,1.8123-11.96-1.05
		C334.1406,126.798,338.1273,127.148,342.1452,127.1319z M342.1952,158.0419c-0.3248,0.3666-6.0287-14.8294-1.51-20.98
		C341.3098,138.5113,342.6098,148.5151,342.1952,158.0419z M330.5252,133.4519c1.12-0.64,2.53-0.01,3.69,0.15
		C335.1153,136.1019,329.2152,135.9419,330.5252,133.4519z M325.4953,145.0319c-2.22-0.08-10.34-1.99-4.97-3.51
		C322.4552,141.7419,324.1352,143.6119,325.4953,145.0319z M321.3952,138.2119c-2.31,0.84-4,0.84-3.02-2.11
		C320.3952,134.9019,325.8352,137.9719,321.3952,138.2119z M318.2852,158.9719c-0.9371,1.1115-9.1837,0.1002-10.86-3.69
		C305.1092,153.6109,318.0011,158.217,318.2852,158.9719z M307.2752,142.1619c1.14-1.64,2.36-3.23,3.44-4.91
		C313.9153,138.2319,309.7652,143.0919,307.2752,142.1619z M316.4953,127.0519c0.6851-2.1249,7.9092,2.1891,0.155,6.0663
		C310.598,136.1443,316.7083,128.269,316.4953,127.0519z M317.2852,147.1119c0.1144,0.3923-11.861,4.6774-8.68,0.13
		C311.4986,147.1985,314.3919,147.1552,317.2852,147.1119z M312.4853,126.1519c-4.1476,6.5268-13.4238,1.0625-14.21,1.01
		C297.6111,125.5627,308.321,126.8628,312.4853,126.1519z M299.6252,138.4319c4.23-1.2-0.69,5.36-3.39,3.75
		C298.4953,141.2419,296.9052,138.5219,299.6252,138.4319z M302.5553,139.8119c2.3467,2.6592,3.5151,5.7484,3.5051,9.2675
		c0.2974-1.1195-16.2083,0.0771-8.7852,14.0325C286.9685,166.198,302.0966,135.0358,302.5553,139.8119z M295.3653,167.0319
		c9.1808-1.5248-4.5179,23.3748-1.5238,23.2512C290.1723,190.4345,296.4876,170.1482,295.3653,167.0319z M289.3952,139.0419
		c-1.47,0.61-2.75-2.14-0.83-2.34C289.6753,133.3619,295.7052,140.7919,289.3952,139.0419z M294.1277,204.5444
		c-0.9735-2.6498-1.1277-5.3827-0.4625-8.1988c-7.648,8.9053,10.353-17.9583,19.6178-25.671
		c-2.7235-0.6307-5.4191-1.5707-4.9377-2.4928c0.0975,2.6519,18.4331-8.2717,22.392-12.2128
		c0.6713,5.4074,9.3174,22.4597,5.648,24.0029C347.0892,182.1523,305.6929,211.2767,294.1277,204.5444z M339.9153,166.9919
		c-10.9374-6.538,21.0353-2.1266,6.2578,4.3645C341.1046,173.5826,342.6612,157.8804,339.9153,166.9919z"/>
	<path fill="#33073B" d="M355.1837,282.6661c2.4518-9.3947,5.1223-24.0692,7.1349-41.0546
		C358.2296,250.6178,355.9707,266.1526,355.1837,282.6661z"/>
	<path fill="#33073B" d="M339.8136,107.202c-3.099-1.4236-6.5333-2.1761-10.3359-2.1519
		C331.5122,106.6006,335.4055,106.9755,339.8136,107.202z"/>
	<path fill="#33073B" d="M280.0054,265.1136c0.7082-2.7465,0.7166-5.5102-0.0002-8.2917c0.817-0.8102,2.5273,6.6885,1.1911,9.3703
		c3.0895,2.9135,5.6521,6.3207,7.1174,10.3059c-3.312-13.2346-7.9214-31.6701-11.1705-49.5078
		c-0.3619,10.2574-1.2687,22.3935-2.4997,34.0982C276.4987,262.3047,278.3124,263.6423,280.0054,265.1136z"/>
	<path fill="#33073B" d="M322.4352,130.4919C322.7052,134.7319,327.3652,129.7619,322.4352,130.4919"/>
	<path fill="#33073B" d="M307.6752,133.1819C300.5252,136.8219,313.0552,135.1919,307.6752,133.1819"/>
	<path fill="#33073B" d="M324.6952,138.2619C324.9052,142.6019,329.4252,136.4419,324.6952,138.2619"/>
	<path fill="#33073B" d="M328.5252,145.0819C328.5774,155.2782,335.381,143.3127,328.5252,145.0819"/>
	<path fill="#33073B" d="M320.4552,146.2719C317.1752,149.5619,325.3452,147.3919,320.4552,146.2719"/>
	<path fill="#33073B" d="M317.5152,152.3519C317.3952,157.2019,322.8352,151.1119,317.5152,152.3519"/>
	<path fill="#33073B" d="M321.5952,156.1719C317.0752,161.0519,326.5052,157.1819,321.5952,156.1719"/>
	<path fill="#33073B" d="M308.7252,97.2619c-0.74-3.2-0.25-6.06,3.54-6.43C310.6652,92.7419,311.0352,96.1319,308.7252,97.2619z"/>
	<path fill="#33073B" d="M322.5252,173.4819c8.827,0.5585,9.1782,2.4255,1.0537,5.6013
		C329.3146,178.385,316.3089,174.0497,322.5252,173.4819C324.8052,174.1519,318.3652,173.8619,322.5252,173.4819z"/>
	<path fill="#33073B" d="M317.4552,175.0819c5.7776,2.9654-1.3163,8.7961-4.96,9.77
		C313.3741,181.2381,315.0275,177.9814,317.4552,175.0819C321.6052,177.2119,316.0952,177.1019,317.4552,175.0819z"/>
	<path fill="#33073B" d="M324.9452,186.9219c-0.0233-0.111,5.8323-0.6838-6.87,6.27
		C317.5568,190.2253,320.2787,185.5466,324.9452,186.9219C323.5752,180.3819,320.9752,185.7519,324.9452,186.9219z"/>
	<path fill="#33073B" d="M311.2252,189.1719c-2.75-2.46,1.44-2.23,3.26-2.32C317.1052,190.1419,313.8652,189.9619,311.2252,189.1719
		z"/>
	<path fill="#33073B" d="M313.2452,210.7519c1.5463-0.0878-13.2429,11.024-12.8938,10.6463
		c-1.5576-2.4039-2.243-5.086-2.0562-8.0462C303.9921,212.0114,304.5696,211.6576,313.2452,210.7519
		C320.2852,210.3519,311.4252,210.9419,313.2452,210.7519z"/>
	<path fill="#33073B" d="M329.5052,212.1619c2.7558,2.4467,5.6715,13.7382,3.63,17.24c-5.2933-15.2077,0.9467,9.2322,1.5775,11.8138
		c0.7782,3.1846-11.6144-1.1165-9.8475,0.2263C319.8479,237.6291,327.8282,214.5176,329.5052,212.1619
		C330.5752,213.1119,328.6652,213.3419,329.5052,212.1619z"/>
	<path fill="#33073B" d="M337.5652,213.3419"/>
	<path fill="#33073B" d="M317.6552,216.4019"/>
	<path fill="#33073B" d="M338.3952,221.7819c-2.3-4.28,3.56-6.07,3.13-0.49C340.4952,221.5219,339.4452,221.6919,338.3952,221.7819z
		"/>
	<path fill="#33073B" d="M312.9752,240.9819C311.8968,241.2932,312.4721,227.6343,312.9752,240.9819
		C307.2252,242.6419,312.9752,240.9819,312.9752,240.9819z"/>
	<path fill="#33073B" d="M333.3852,244.1019c3.29-0.8,2.74,6.29,0.01,7.12C333.2552,248.8519,333.2152,246.4719,333.3852,244.1019z"
		/>
	<path fill="#33073B" d="M326.4052,247.3119c2.8-0.84,1.97,4.77,0,1.62C326.4052,248.5319,326.4052,247.7219,326.4052,247.3119z"/>
	<path fill="#33073B" d="M310.1452,257.2219c2.29,0.49,5.1,0.78,4.24,3.88C312.8552,259.9619,310.4152,259.4019,310.1452,257.2219z"
		/>
	<path fill="#33073B" d="M316.5452,273.1519"/>
	<path fill="#33073B" d="M320.5652,277.9319c-1.27,3.74-4-2.2-0.32-0.81L320.5652,277.9319z"/>
	<path fill="#33073B" d="M310.6152,278.6919c3.2661,11.0081-5.9181-54.3376,3.9,15.51c4.5248-3.1589,0.2899-7.9765,2.91-11.47
		c5.463,7.0006,6.4715,58.1729-11.7313,44.62C299.5753,322.7963,313.0411,285.632,310.6152,278.6919 M314.6052,301.4019
		c-0.72,1.28-0.72,3.07,0,4.36C315.9952,305.4919,315.9952,301.6719,314.6052,301.4019z"/>
	<path fill="#33073B" d="M289.4352,308.3219C297.6207,303.9563,283.0395,323.4054,289.4352,308.3219
		C292.8852,306.4819,285.9752,316.4819,289.4352,308.3219z"/>
	<path fill="#33073B" d="M290.3452,314.8619c5.9082,4.7754-2.0962,23.6227,6.36,26.22c-5.7633,0-11.5267,0-17.29,0
		c1.3202-4.865,2.8169-9.675,4.49-14.43c1.5746,4.4101,2.7546,8.9234,3.54,13.54
		C290.7838,332.1001,291.7505,323.6568,290.3452,314.8619C293.0052,317.0119,290.3352,320.1519,290.3452,314.8619z"/>
	<path fill="#33073B" d="M297.3852,341.0819c0.5-1.88,3.35-1.88,3.86,0H297.3852z"/>
</g>
<rect x="0" y="0" fill="none" width="646.4617" height="388.742"/>
</svg>
