<svg xmlns="http://www.w3.org/2000/svg" viewBox="0 0 155.1 155" enable-background="new 0 0 155.1 155"><g fill="#010101"><path d="m93.1 17.2c-1.1.6-2.1 1.2-3.2 1.8-1.4-1-2.8-1.9-4.3-2.6-.2 2.4-1.4 4.6-3.7 5.5.6-2.2 1.9-4.1 3.6-5.5-9-4.5-32.2-2.3-31-4.5-1.6-.1-3.1-.2-4.7-.3.5 1.2 1 2.3 1.4 3.5 3.1.2 6.2.3 9.4.5.1 1.4.1 2.8.1 4.2 5.5-.7 11.2-.6 16.5-2.2 1.6 2.4 3.2 4.8 4.7 7.2-3.4-.9-6.8-2-10.3-2.5-4 .1-7.9 1.6-11.8 2.8.5.9 1.3 2.5 0 3.1-1.5.2-1.6-1.8-1.2-2.8-4.5 1.2-8.8 3.4-13.5 3.7-3.6.1-5.5-3.5-7.5-5.8.2 1.5-.2 4.6-2.4 4.1-1.1-1.6 1-3 2-4.1-6.7.7-13.4 2-19.7 4.4 0 .7-.1 2.1-.2 2.8-.1 1.6-.2 3.3-.3 4.9 1.4.9.6 3-1.1 2.7-.9 3.2-1.8 6.4-2.8 9.6 1.1.9.6 3.3-1.1 2.5-.9 5.6 0 11.2 1.3 16.6 2.8-6.8 3.6-14.1 3.1-21.3 1-.2 2.1-.3 3.2-.5.3 5.3.9 10.5 1.6 15.7 1.2.8 1.1 3.3-.7 2.6v.8c.2.4.7 1.1 1 1.5 2.6-3.5 1.8-7.9 1.1-11.8 1.3.2 2.7.5 4 .8.3-3.7.6-7.4 1.1-11.2-2.2.6-4.4 1.2-6.5 1.8.1-1.3.2-4 .2-5.3 2 .1 4 .2 6 .3.2-3.1.3-6.1.8-9.1.5-3.3 4 .3.9 1.2 1 1.3 2 2.7 3 4 5.2-5.7 13.2-3.2 19.9-4.9 7.5-1.6 15.1-3.8 22.9-3.3 4.3.4 8-2.3 11.4-4.6-.8-1.2.6-3.4 1.9-1.9 1 .7 2 1.5 3 2.2 1.5-1.4 3-3 4.7-4.2-1.1-.7-2-1.5-2.8-2.4"/><path d="m114.7 54.6c-1.7-2.7-2.4-5.9-2.7-9.1-.4-1.8-.3-3.8.1-5.5.1-.3.1-.6.2-.8.2-.8.5-1.5.8-2.2-1.3-1.9-2.6-3.8-3.9-5.7-.2.3-.5.5-.9.4-1.3 0-1.4-1.9-.4-2.3-1-1.4-1.9-2.8-2.9-4.2-2.2-2.2-4.5-4.1-7.1-5 .9 1.1 1.6 2.4 2.3 3.6 2.3.1 4 1.9 4.1 4.2 1.3 6.8 4.2 13.6 2.6 20.6-.2 1-.8 1.6-1.9 1.7 1 2.2 2 4.4 3 6.7 2.2-.4 3.5 2.3 1.6 3.6.5 1 .9 1.9 1.3 2.9 2.4.7 4.8 1.3 7.2 2 0 .1 0 .2.1.4.1-.5.3-1 .5-1.5.3-.7.5-1.5.8-2.3-2.6-1.5-4.5-4.4-4.8-7.5"/><path d="m66.3 14.2c-.9 4 4-1 0 0"/><path d="m24.3 33.4c-.9 4 4-.8 0 0"/><path d="m13.3 58.2c-.9 4 4-1 0 0"/><path d="m35.6 15.2c.6-.4 4.5 1.9 3.3-1.3 1.5.4 3 .7 4.5 1-.5 1.4-1 2.9-1.4 4.3-1.9-.6-3.8-1.1-5.6-1.9-1-.9-2.5-.3-2.4 1.1-1.3.4-2.6.8-3.9 1.1.9-1.7 1.9-3.4 2.8-5.1l.1.6c0 1.6 2 1.2 2.6.2"/><path d="m44.2 22.1c2.2-1.1 4.4-2.5 6.8-3.2 2.4.8 4.6 2.2 6.7 3.5-4.5.8-9.1 1.5-13.6 2.6 0-.7.1-2.1.1-2.9"/><path d="m88.4 35.7c1.1-2.4 2.8-4.4 4.4-6.4 1.1 4 2.4 8 2.9 12.1-1.8-1.2-3.6-2.6-5.4-3.9-1.1 2.2-1.8 4.5-2 7 3.3-.4 6.5-.1 9.8.4 0 .8.1 2.4.1 3.2-11.1-3.8-22.9-2.8-34.4-1.5-2.9.7-6 1.5-8.2 3.7-.2 2.4-.7 7.3-1 9.7-1-.1-2.1-.2-3.1-.2-.2-.7-.6-2.1-.8-2.8-.6.6-1.1 1.3-1.6 1.9-1.6 1.9-3.2 3.7-4.9 5.5 1.6-.7 3.2-1.4 4.9-2.1.5 3.3 1 6.7 1.7 10-5.9 2.1-11.3 5.3-17.4 6.8l.7-.9c.9-.8 1.1-2.2.3-3.2 1.3-.1 2.7-.2 4-.3 1.1-1.9 2.2-3.8 3.4-5.7.7 1.8 1.3 3.6 1.8 5.4 1-1.2 2-2.3 2.9-3.5-1.3-1.3-2.6-2.5-3.9-3.8 0-.7-.1-2.1-.1-2.8-.2-2.9-.5-5.8-.8-8.6-.8 1.9-1.4 3.9-2.2 5.8-.8 1.8-1.9 3.3-2.9 4.9.4-3.7.8-7.5 1.1-11.2-1.8.6-3.6 1.2-5.4 1.8.1-1.3.1-2.6.2-3.9 1.4.2 3.6-.2 3.7-1.9-.6-1.2-2.2-.2-3.1 0 .7-3.5 1.3-7.1 2.1-10.6 1.2.8 2.4 1.6 3.7 2.3-2.5-.1-1 3.1.7 1.4 1.7-.8 3.5-1.6 5.3-2.3.5-.9 1.1-1.8 1.6-2.7.2-.4.6-1.1.8-1.5 6.3 0 12.7-.3 19 .7.8 1.1 2.3.8 2.8-.5.4-.3 2.1 2.4 2.3-.9 4.9-1.2 10.1-.1 15-1.1-.9 2.6 2 1.6 2-.3m-45.3 11.2c.3 3.2.6 6.4.8 9.7 5.8-4.4 9.1-11.1 14.9-15.6-6.1-1.7-11.2 2.4-15.7 5.9"/><path d="m45.5 39.1c-1.9 1.8-2.6-2.9-.3-1.6.1.5.3 1.2.3 1.6"/><path d="m98.8 36.7c3.6 3 5.7 7.2 7.8 11.3-.4 0-1.3 0-1.7 0-2.2-.8-4.8-1.7-5.8-4-.9-2.3-.3-4.9-.3-7.3"/><path d="m70.5 62.6c5.7-5.5 15.1-6.9 22.3-3.6-.3.4-.9 1.2-1.2 1.6-.8.8-.8 1.7-.1 2.6.3.4.8 1.3 1.1 1.7-3.3-.3-6.6-.7-9.8-1.1 2.8-1.8-.5-3.8-1.7-1.1l-.8.9c.4-1.7-1.6-1.6-2.4-.6-1.8 1-3.8 1.7-5.7 2.5 0 .7-.1 2-.1 2.6 5.7 3.1 12 .4 17.5-1.6 2.4 1.5 4.8 2.7 7.5 3.6.2 2.9 1.1 5.9.5 8.8-.9 1-.4 2.5 1 2.5 4 1.4 8.3 2.8 11.2 6.2-.8.1-2.3.3-3.1.4-1.2 0-1.8.6-1.8 1.8-.2 2.6-.2 5.2-.4 7.8-3.6-1.5-7.5-1.6-11-3-3.8-3.4-2.6-9.2-3.5-13.7-2.2-1.2-4.8-1.3-7.3-1.7 3.3-.6 6.9-.2 10.1-1.4 1.5-1.9.3-4.5.5-6.7-1.7.9-3.3 1.7-5 2.6-.7-.2-2.1-.5-2.8-.7.7-.8.6-3.3-1-2.7-.6 1-.5 1.9.3 2.8l-.4-.5c-.6-1.5-2.3-.5-2.5.7-.8 1.6-2.6 1.6-4.1 2-2.4-.3-1.7 3.1.3 1.5-.1.7-.3 2.1-.5 2.8-2.4-1.5-4.7-3.1-7-4.7-10.1 2.7-19.5 9.8-30.4 8.4-.4-1.3-.7-2.5-1.1-3.8 3.3-.2 6.7-.5 10-1.2 3.7-.9 6.5-3.5 10-5 .4.3 1.3.9 1.7 1.2 1 1.8 3.7.8 2-1.1 2.3-.7 4.7-1.4 7-2.1-1.9-4.3-7-2.6-10.8-2.7-.4-.7-.8-1.3-1.2-2 3.6-.3 7-1.1 10.5-2.2 1.1-.2 1.9-.8 2.2-1.8m24.6 20.3c-.4 2.5-.3 5.1-.3 7.7.5-.4 1.5-1.2 2.1-1.6.3 2 3.5.1 1.9-1.2 1.4-.7 2.7-1.5 4-2.4-2.5-1-5-2-7.7-2.5"/><path d="m74.3 74.2c-.9 4 4-1 0 0"/><path d="m149.9 132.4c-4.8-.5-10.1 0-14.6-2.1-1.5.8-3.2 1.2-4.9 1.2h-2.2c-1.3 0-2.6-.3-3.8-.9-.2 0-.5 0-.7 0 .1-.1.3-.1.4-.1-1.6-.9-3-2.2-3.9-3.8-.1-.1-.3-.3-.4-.4-2.5-2.7-3-6-2-9.1-1.2.4-2.2-2.2-.5-2.3-.2-.6-.4-1.3-.4-2-.2-.7-.3-1.5-.4-2.2-.7-.9.1-1.8 1.1-2.1 1.1-3.5 1.7-7.1 1.9-10.7-1.7-2.7-2.5-5.9-3.3-9 .2.1.4.3.6.4-.1-1.2-.1-2.3-.2-3.5-2.8-3.1-3.5-7.9-1.1-11.6.2-.3.4-.5.5-.8 0-.1 0-.2.1-.3 0-2.2-.1-4.4-.1-6.6-5.2.6-10.2 2-15.5 1.8 1.9-2.5 4-4.9 6.1-7.3-.9-.7-1.7-1.3-2.6-1.9 0 1.1.5 3.4-1.2 3.5-1.3-.8-.8-2.7-.5-4-1.8.2-3.7.5-5.5.8 1.1 3.6 2.3 7.3 3.8 10.8 1.7-.7 3.3.9 2.8 2.7 2.1-.2 4.2-.8 6.3-1.3 1.2 5.8 5.4 16.1 5.3 17.7-.7 1 .2 3.3.2 4.9-.6 1-2.4 2.3-2.3 2.8 1.1-.2 2.2-.5 3.3-.7.7 1.2 1.4 2.5 2.1 3.7-1.8-.8-3.6-1.5-5.4-2.3.3 7.6-.1 15.4-2.5 22.7-2.2 5.4-4.7 10.6-6.8 16 5.9 0 11.5-1.9 17.1-3.4 4.9-2.6 8.2 2 10.7 5.3 7.9-1.1 15.8-2.2 23.7-3v-11.2c-3.8 1.2-5.7 4.4-5.2 8.3"/><path d="m111.3 70.2c-.9 4 4-1 0 0"/><path d="m115.3 103.4c-.9 4 4-.8 0 0"/><path d="m107.3 131.2c-.9 4 4-1 0 0"/><path d="m26.7 60c1.5-.4 2.9-.9 4.4-1.3-.9 5.1-1.9 10.3-1.4 15.5 1.3.3 2.7.6 4 .9-.2.4-.6 1.3-.8 1.7-1.8.8-3.7 1.3-5.5 2-.7-2.1-1.4-4.3-2.2-6.4.7 1.5 2.5.3 2.1-1 .1-.9.1-1.9.2-2.9-1.4.2-2.7.3-4 .5 2.2-2.5 3.3-5.6 3.2-9"/><path d="m34.8 65.3c1.4 2.6.7 5.3-1.1 7.5.3-2.5.7-5 1.1-7.5"/><path d="m48 130.8c0-1.8-.1-3.6-.1-5.4-2.2 1.5-2.8-2.2-.5-2.3-.5-1.7-1-3.4-1.5-5.1-2.2 1.1-3.3-2.5-.6-2.2-2.6-12.7-13.5-21.2-17.9-33-1.4 1.3-2.6-1-1.7-2.2-1.3-3.8-2.5-7.6-3.9-11.3-1.2-.1-2.3-.2-3.5-.2 0 .7 0 2.2.1 2.9 2.4-.8 2.8 2.9.2 2.3 1 7.5 2.5 16.2 10 20 .1-3.4 4-.9 1.2.8 1 3 2.1 6 3.1 9-1.5-.5-2.9-1-4.4-1.5-1.9.2-3.5-2.8-.7-2.5-1.1-1.5-2.2-3.1-3.3-4.6 0 2.1-.7 4.2-2 5.8 4.4 5.7 9.2 11.1 12.9 17.3-.3-.2-.6-.4-.9-.5.3.3.5.6.8.9 2.1 2.3 4.4 5.1 4.8 8.3 1 10-7.2 13.3-15.5 14.9-1.2.2-2.4.5-3.7.7 2 1.5 3.4 3.6 4.4 5.9-1-1-2.1-2-2.9-3.2-1.3 1.6-3.2-1.7-1.1-1.9l-.5-.8c-5.6 1.1-11.4 2.1-16.9 1.3-1.3-.2-2.7-.6-3.9-1.2v11.2c6.9-.3 13.9 0 20.8-.4 8.5-.7 14.2-8 22.1-10.3.1-1.5.9-2.2 2.3-2.4.7-2.5 1.3-5 1.9-7.5-1-.9-.9-3.5.9-2.8"/><path d="m36.3 113.4c-.9 4 4-.8 0 0"/><path d="m37.3 141.4c-.9 4 4-.8 0 0"/><path d="m68.1 83.9c5.8-.3 10.9 2.4 14.2 7.2l-.6-.1c-1.4-.8-2.4 1.2-1.2 2 .6 1 1.3 2 1.9 2.9-1.3 0-2.6-.1-3.9-.1-.4-1.7-.9-3.4-1.3-5.1-3.3-1.1-6.6-2.3-9.9-3.2-.4 1.7-1.3 5.1-1.8 6.8-.5-2.1-1.1-4.2-1.6-6.3 1.1-.4 2.3-.8 3.4-1.2 1.5-.1 2.2-2.1.8-2.9"/><path d="m36.4 87.2c1.8-.4 3.7-.9 5.5-1.4 4.5 7.3 10.4 14.5 10.2 23.6-2-3.6-6.2-7-5.5-11.4.9-1 .4-2.5-1-2.4-4.4-1.1-9.5-2.6-9.2-8.4"/><path d="m65 97.8c1.9 1.9 3.8 3.9 5.6 5.9-.9.1-2.7.2-3.6.3-.6-2-1.3-4.1-2-6.2"/><path d="m91.7 104.5c3.8-2.9 8.6-4.3 13.3-5 2.3-.5 3.3 2.1 4.8 3.4-5.2 1.6-10.3 3.1-15.6 4.5-.2 2.2-.5 4.4-.6 6.7-.7 0-2 0-2.7 0 .2-2.5.6-7.3.8-9.6"/><path d="m78.1 108c1.5-1.8 3.1-3.6 4.7-5.4.4.5 1.1 1.6 1.5 2.1-1.1 1.3-2.1 2.6-3.1 3.9l-.9-.4c-.6 0-1.7-.1-2.2-.2"/><path d="m82.2 110.5c-.6-1.4.1-2.9 1-4 1.3 1.1.9 3.8-1 4"/><path d="m96.4 113c3.9-1 7.9-1.9 12-2.4-.6 1.6-1.2 3.1-1.9 4.6-.2-3.4-3.9-.9-1.2.8-3.2-.3-6.4-.9-8.9-3"/><path d="m54.1 112.3c.4.4 1.1 1.1 1.5 1.5.6.8 1.5 1.2 2.5 1.1.7.1 2 .3 2.7.4 4.6 4.8 7.8 10.8 11.6 16.3-2.2-.7-4.4-1.4-6.7-2-.3 4.1.7 8 1.6 11.9-.8 1.2-1.6 2.5-2.4 3.7 2.6 1.5 5.2 3 7.7 4.6-4.2.1-8.5-.2-12.6-1.5.5-.2 1.4-.7 1.9-.9 1.4-.2 1.6-1.8.7-2.7.1-3.8.7-7.6-.4-11.4.8-2 2.5-4.4.8-6.4-3.3-4.5-8.6-8.3-8.9-14.6"/><path d="m83.4 113.1c1.7-.4 3.2 1.1 2.7 2.8-1.4 2.2-3.7 3.8-5.6 5.5.2-3 .8-6.1 2.9-8.3"/><path d="m89.7 126.1c1-1.3 3.2.2 2.2 1.6-1 1.3-3.3-.3-2.2-1.6"/><path d="m94.4 128.5c1.6-.2 3.2-.4 4.8-.6-.1 1-.3 2.9-.4 3.9-1.5-1.1-2.9-2.2-4.4-3.3"/><path d="m117.5 136c1.4-.3 2.8-.6 4.2-.9-.1.5-.5 1.5-.6 2-.4 1-.3 1.9.3 2.8.3 2.5.3 5 0 7.5-1-.5-1.9-.9-2.9-1.4.1-3.4-.3-6.7-1-10"/><path d="m68.9 139.9c1.3-1 2.7-2 4.2-2.7 3.2 2.5 5.8 5.6 9.1 8-.8 2.7-1.8 5.2-2.9 7.8-3.4-4.4-5.8-9.6-10.4-13.1"/><path d="m54 137.6c.8 3.7.9 7.5.6 11.3-.3-.5-.8-1.4-1.1-1.8-.2-1.3-2.2-1.8-2.5-.2l-.4.7c.8-3.5 2-6.8 3.4-10"/><path d="m93.1 144.2c2.8-1.9 5.5-3.8 8.3-5.7-.8 3.6-1.8 7.1-3 10.6-4.1-.1-8.1-.1-12.2-.1 0-1.3 0-2.7 0-4 1.7 0 3.5 0 5.2.1.2.9.4 2.5 1.6 2.5 1.3-.7.7-2.4.1-3.4"/><path d="m127.1 147.5c7.4-.3 13.9-4.3 21-6.1 3.1 1.6 4.5 5.2 5.7 8.2-2.4.9-4.9 1.8-7.4 2.7-.1-1.3-.2-2.5-.3-3.8-5.2 2-10.7 3.2-16.3 2.8 3.2-1.1.5-3.8-1.4-1.5l-.7.5c-.2-.8-.4-2.2-.6-2.8"/><path d="m76.9 155c5.7-2 11.8-.5 17.6 0h-17.6"/></g></svg>