<svg xmlns="http://www.w3.org/2000/svg" viewBox="0 0 155 155" enable-background="new 0 0 155 155"><g fill="#020202"><path d="m58.8 0h4.5c-1.4 1.8-2.6 3.8-3.8 5.7 13.9 4.8 28.8 3.8 43.2 5.7.2 1.4.5 2.7.7 4.1-9.6 2.8-19.1-2.5-28.7-1.4-2.8 1-5.4 2.7-8 4.1 4 5.5 10.4 1.1 15.7 1.2 4.6.8 9 2.2 13.3 3.9-2.1.2-4.1.4-6.2.6 0 .5 0 1.1-.1 1.6 4.9.6 8.9 3.6 12.6 6.5-1.6 1.9-3.2 3.8-4.8 5.7-4.7-4-9.8-7.8-12.3-13.7-2.1.6-4.2 1.2-6.3 1.9.3.7.6 1.3.9 2-3.2-.1-6.3 0-9.5.1-1.6-2-3.3-4.1-5-6-1.3 3.5-2.3 7.2-3 10.9-2.2.4-4.3.9-6.5 1.3.2-2.4-.4-5.2 1.4-7.2 3.4-4.3 6.7-8.7 10.3-12.8-1.4-.7-2.8-1.6-4.2-2.5-3.8 7.8-12.6 11-20.3 13.5-1.4 2.9-2.9 5.7-4.5 8.4.3-2.1 1-6.4 1.3-8.5 5.4-7.1 14.9-9.1 21-15.6-12.1 0-21 8.5-27.9 17.5 1-4.5.6-9.9 4.5-13.1 3.3-3.3 7.9-4.4 12-6.2 3.8-1.7 6.5-5.1 9.7-7.7"/><path d="m78.3 1.8c2.6.4 5 1.4 6.6 3.5-2.5-.4-4.9-1.5-6.6-3.5"/><path d="m91.5 4.4c5.3-2.1 11.1-2.8 16.3-.1-4.9 3.7-11.2 2.7-16.3.1"/><path d="m105 9.8c2.2-1.1 4.4-2.9 7-2.8 2.7 1.6 4.6 4.1 6.6 6.4-4-.6-8.2-.9-12.2-.8-.5-.9-1-1.8-1.4-2.8"/><path d="m119.9 13.2c1.6 2 2.9 4.1 4 6.4-1.2 0-2.3 0-3.5 0-.1-2.1-.3-4.3-.5-6.4"/><path d="m111.7 19.4c2.7 0 5.4.1 8.1.5-1.4 1.5-2.9 2.9-4.4 4.3-1.2-1.6-2.5-3.2-3.7-4.8"/><path d="m97.4 20.3c3.5.3 7 .6 10.5 1-2 2-3.7 5.3-7.4 3.5-1.3-1.3-2.2-2.9-3.1-4.5"/><path d="m127.1 19c11.1 6.3 13.6 19.9 21.1 29.3 2.4-4.4 2.9 52.6.4 39.7l-2.6-3c1.3-1.1 2.7-2.2 3.8-3.5-.9-8-1.1-16-.2-24-6 2.3-12.4 1.2-18.6.7-.1-1-.2-2-.4-3 4.9.7 9.7 1.5 14.6 2.4-.2-6-.5-12.9-5.1-17.4-1.9.1-3.8.7-5.7 1 .7-2.1 1.5-4.1 2.3-6.2-3-2.6-6.8-4.5-9.2-7.6-2.1-2.5-.9-5.7-.4-8.4"/><path d="m18.5 39.7c0-7.2 4.3-13.3 8.2-19-1 5.8-.6 12-2.3 17.6-1.3 1.4-5.2 4.4-5.9 1.4"/><path d="m105.9 25.7c1.9-.8 3.8-1.7 5.7-2.5.2 1.2.5 2.5.7 3.8-2.1-.5-4.2-.9-6.4-1.3"/><path d="m117.9 22.2c1.6 2.3 2.8 4.8 3.6 7.5-3-1.3-4.6-4.2-3.6-7.5"/><path d="m79.9 29.8c.7-.7 1.4-1.5 2.2-2.2 1.7 1.8 3.4 3.7 5.2 5.5-2.5-1.1-4.9-2.2-7.4-3.3"/><path d="m45.7 33.3c2.5-1.7 5.2-3 8.1-3.9.6 1.7 1.1 3.3 1.7 5-3.3-.5-6.6-.8-9.8-1.1"/><path d="m109.5 31.3c2.8-1.2 6.3-1.8 8.4 1 3.3 5 6.1 11.8 2.7 17.5 2.8-1.4 5.5-2.9 8.1-4.6-1.1-1.8-2.3-3.7-3.5-5.5.6-.5 1.1-1 1.7-1.5 3.7 3.3 7.8 6.6 12.6 8.1-1.4 1.5-2.9 3.1-4.7 4.2-2.6 0-5-.9-7.5-1.5-1.3 1.4-2.5 2.8-3.8 4.2.2-.9.3-1.8.5-2.7-3.5 0-7.8.9-10.3-2-2.3-2.7-3.9-6-5.6-9.2 3.5 2.3 6.8 5 10.1 7.7-.8-6.3-3.4-12.1-8.7-15.7"/><path d="m100.4 39.3c.9-1.3 2-2.6 3-3.9 1.3 1.8 2.5 3.7 3.7 5.5-4.5 3.8-13.6 3.3-16.3-2.4 3.2.1 6.4.4 9.6.8"/><path d="m35.8 38.7c.6-.2 1.7-.7 2.3-.9-.4 2.7-.8 5.3-1.1 8-.6.1-1.7.4-2.3.5.5-2.6.8-5.1 1.1-7.6"/><path d="m41.2 40.8c4 2 7.5-1.5 10.8-3.3-.1 1.3-.2 2.5-.2 3.8-2.5 1.3-5.5 2.4-7.1 4.9 0 2.6.9 5.2 1.1 7.8-2.3-1-4.6-2-6.8-3 .1 1.2.2 2.4.3 3.6 1.3.2 2.6.5 3.9.7-3.6 3.6-1.5 8.4-.5 12.6-6.4-4.3-7.3-12.4-8.3-19.4 2.4-.5 4.7-.9 7.1-1.2 0-2.2-.1-4.3-.3-6.5"/><path d="m18 45.2c2.1-.9 4.2-1.7 6.3-2.5-1.5 5-2.6 10.5-6.3 14.3-.7-4-.4-7.9 0-11.8"/><path d="m49.1 47.2c1.3-.4 2.7-.7 4-1.1.2.8.5 1.7.7 2.6-1.2.7-2.4 1.5-3.6 2.2-.3-1.2-.7-2.4-1.1-3.7"/><path d="m90.8 52.6c2.1-1.2 3.5 1.1 5 2.2 4.4 0 8.9.8 12.8 2.9 1.8 2 3.5 5.6 1.6 8-3.2-.7-6.3-2-9.5-2.7-.6-1.2-1.2-2.4-1.8-3.7-2.6-.7-5.2-1.5-7.8-2.3-1.6 4.2-2.9 8.5-2.3 13 1.8-1 3.7-2.1 5.5-3.1.5 1.4 1 2.8 1.5 4.2 3.9-.2 7.7.8 11.4 1.5-4.8 2.8-9.8 6-15.6 5.5-.3 2.5-.6 4.9-1 7.4-1.2.1-2.5.3-3.8.5-5.1-6.3-2-14.5-2-21.7.6-4.4 1.4-9.9 6-11.7"/><path d="m46.3 54.8c1.6.9 3.2 1.8 4.8 2.7-1.2 1.3-2.3 2.7-3.5 4-.3-1.7-1-5-1.3-6.7"/><path d="m56.3 57.4c2.1.3 4.3.4 6.5.5 1.2 1.7 2.5 3.4 3.7 5.2 2-.7 4-1.4 6-2.1 2.1 6.1 2.6 12.5 2.2 18.9-2.5-4.1-3.5-8.8-5.4-13.1-3.2-3.5-8.9-3.2-12.2 0 1.1 1.6 2.1 3.1 3.2 4.7-2.3.1-4.6 0-6.8.8-2.9 4-4.8 8.7-7.4 13-.5-.2-1-.3-1.5-.5-.9 1.4-1.7 2.7-2.6 4.1-1.2-1.8-2.4-3.6-3.6-5.4-3 3.3-5.8 6.6-8.7 9.9-.5-1.2-1-2.3-1.4-3.5 4.5-4.6 10.4-7.5 15.2-11.8 1.8-1.3.7-3.6.7-5.5 5.2-2.8 7.9-8 10.4-13.1 1.2.3 2.3.6 3.5.9-.7-.9-1.2-2-1.8-3"/><path d="m121.2 56.7c1.1 1.4 2.3 2.8 3.4 4.2-.8-.1-2.3-.3-3-.4-.1-1.3-.3-2.6-.4-3.8"/><path d="m21.3 60.1c1.3 0 2.6-.1 3.9-.1-.5 2.5-1.1 5-1.6 7.5-1.1.2-2.3.5-3.4.7.4-2.7.7-5.4 1.1-8.1"/><path d="m120 65.4c4.2 1.1 8.7 1.7 12.5 4.1-3.3 2.5-7.2 3.3-11 1.4-.5-1.9-1-3.7-1.5-5.5"/><path d="m112.3 66.1c1.4-.6 2.2 1.8.7 2.2-1.4.5-2.2-1.8-.7-2.2"/><path d="m54.7 80.8c3.5-5.3 9.2-7.3 15.2-7.7-.2 1.6-.5 3.3-.7 4.9-1.5.4-3 .8-4.6 1.2 1.1 1.9 3.1 3.6 2.9 6-1.9 3.8-5.7 6.6-6.9 10.8-.6 3.8-5 4-7.8 5.4-.2 9.2 2.1 18.1 2.7 27.2-1.9-1.6-4.6-2.8-5.6-5.3-1.6-5.9-1.8-12.1-.8-18.1.8-3.1-2-5.2-3.4-7.6 4.5-.3 10.2-.5 13-4.7 2.1-4 4.3-8 6.7-11.8-3.1.6-6.1 1.3-9.1 2-.3-.6-1.2-1.8-1.6-2.3"/><path d="m133.5 73c1.8 1.3 3.6 2.7 5.4 4-.4 1.1-.8 2.1-1.1 3.2-1.4-2.3-2.9-4.7-4.3-7.2"/><path d="m127.7 74c1.1 2.4 1.3 5.1 1.2 7.7-1.3-2.3-1.5-5-1.2-7.7"/><path d="m115.8 79.4c1.5.2 2.9.5 4.4.8-.1.7-.2 1.9-.2 2.6-1.4.8-2.9 1.7-4.3 2.6-.1-2.1 0-4.1.1-6"/><path d="m22.3 81.2c1.5-1.6 3.8-.4 5.6-.5-1.6 2.7-3.5 5.1-5.7 7.3 0-2.3-1.9-5.1.1-6.8"/><path d="m70.7 92.5c3-4.4 1.2-11.8 7.5-13.3-.2 7.5-4.5 13.7-7.5 20.3 5.8-.8 10.7-4.3 14.6-8.6 1.6 1.7 3 3.7 4.9 5.1 2.8.7 5.6.8 8.4 1-1.5-2.7-3.2-5.2-4.9-7.7 1.3-.4 2.7-.8 4-1.3 3.8 7.2 9.3 13.6 11.4 21.6-4-2.2-6.7-5.8-10.3-8.4-3.5-2.3-7.4.5-10.8 1.7.2 1.7.5 3.4.8 5.1-6.1-1.6-12.2-3.1-18.3-4.8-1.8 3-3.7 6-6 8.7.7.6 1.4 1.1 2.2 1.7-1.7 1.6-3.4 3.3-5.1 4.9.8-3.6.7-7.4 0-11 4.4-4.2 6.2-10 9.1-15"/><path d="m108.2 79.5c1.7 1.1 3.4 2.2 5.1 3.4-1.3 2.6-2.7 5.3-4 7.9-3.4-1-6.8-2-10.2-3 .7-1.2 1.4-2.5 2-3.7 2.2.9 4.5 1.8 6.7 2.8 1-.9 2.1-1.7 3.1-2.6-.9-1.6-1.8-3.2-2.7-4.8"/><path d="m124.5 84.2c1-1.5 3.5.2 2.4 1.6-1.1 1.5-3.6-.2-2.4-1.6"/><path d="m130.1 84c.8 0 2.2 0 3 0 0 1.2 0 2.4 0 3.7-1 0-2 0-3.1 0 .1-1.2.1-2.4.1-3.7"/><path d="m130.7 93.6c-.6-2.7 2-4.1 3.8-5.5.8 9.5 1.3 19.2-.8 28.6-1.1 3.7 1.4 7.2 3 10.3-.5 1-.9 2-1.4 3.1 2.2.4 4.4.8 6.6 1.3.1.4 12.2 7.4 12.2 7.9-3.3.7-18.5-4.2-21.8-4-3-.8-5.3-3.5-6.8-6.2 1.2-4.2 3.9-7.8 5-12 1.6-7.8 1.5-15.7.2-23.5"/><path d="m26.2 101.5c2.7-2.5 5.4-5 8.1-7.5 2 5.2 1.3 11 3.5 16.2 1.5 5.2 3.4 10.4 6.2 15.1-.7 1-1.4 2-2.1 3-1.7-1.4-4.6-2-4.8-4.6-1.1-6.9-3-13.7-3.8-20.7-2.2 1-4.2 2.1-6.4 3 .5-1.3 1.1-2.6 1.8-3.9-.6-.1-1.9-.4-2.5-.6"/><path d="m118.3 104.6c.2-1.5.7-2.9 1.2-4.3 1 2.4 2 4.8 2.7 7.3-1.3-.9-2.7-1.9-3.9-3"/><path d="m77.1 115c5.2-1.7 10.7-2.3 15.9-4.1 5.4.7 10 4.1 14.8 6.5-.2.6-.4 1.3-.6 1.9-3.8-.6-7.7-1.6-11.5-.7-6.2 1.6-12.7 2.3-18.8 4.1-3.5.8-5 4.3-7 6.8-1.7-2.1-3.4-4.2-5-6.3 1.9-.3 3.8-.5 5.7-.8 2-2.5 3.2-6.3 6.5-7.4"/><path d="m85.3 125.4c1.5 1.6 3.1 3.2 4.7 4.8 2.8-1.9 5.4-4.6 8.9-5.2 2.1 1.4 3.8 3.4 5.6 5.2-8.9 2.8-17.9 4.9-27 7-.3-5.4 4.3-8.6 7.8-11.8"/><path d="m50.7 130.5c.5-.1 1.5-.4 2-.5.6 5.6 2.7 10.8 4.6 16 2.2-.9 4.4-1.8 6.6-2.7-.9 3.9-1.8 7.8-2.7 11.7h-.8c-3.5-4.7-6.7-9.5-9.7-14.5-1.4-3.1-.2-6.7 0-10"/><path d="m36.2 136.1c3-1 6.1-2.1 9.1-3.2-.1.7-.2 2.2-.3 3-3 1.1-5.9 2.2-8.8 3.4 0-.8 0-2.4 0-3.2"/><path d="m66.5 136.4c1.5-1.4 3.1-2.7 4.7-4-.6 1.9-1.2 3.9-1.9 5.8-.7-.4-2.1-1.3-2.8-1.8"/><path d="m40.7 134.5c0 0-2.8 2.6 0 2.7-.9 2.4-7.1.9-8.1 3.3 2.1 2.1-18 6.3-16.7 9.1-2.7.6-5.4 1.1-8.2 1.7-2.2-5.5 33-16.8 33-16.8"/><path d="m114.3 135.6c1.5 5.9 2.6 13-1.6 17.9-3.9 1-8 1-11.9 1.5h-7.2c-6-.1-12-.1-18 0h-7.7c-1.1-1.7-2.2-3.4-3.3-5.1 2.3-1.1 4.6-2.4 7.1-3 3.7-.4 7.4.7 11 .1 2.5-1.2 4.2-3.4 6.6-4.8 3.5-1.5 7.2-2.3 10.9-3.2.4 1.9.8 3.7 1.2 5.6-3.8.4-7.6.9-11.3 1.4 1.1 1 2.2 2.1 3.3 3.1 4.3-.8 8.8-.7 12.8 1 1.6-5.3 4.9-9.9 8.1-14.5"/><path d="m131.9 141.2c2.3 1.2 4.7 2.4 7.1 3.6-.3 2.2-.6 4.3-.9 6.5-2.7-1.5-5.3-3.1-8-4.5.7-1.8 1.3-3.7 1.8-5.6"/><path d="m43.4 145.8c1.5.9 2.9 1.9 4.4 2.9-1.9.2-3.7.3-5.6.5.4-1.2.8-2.3 1.2-3.4"/></g></svg>