<svg xmlns="http://www.w3.org/2000/svg" viewBox="0 0 155.1 155" enable-background="new 0 0 155.1 155"><g fill="#020202"><path d="m44.4 16.7c-8.8 16.7-4.2 31.5-2.6 39 1.1.8 1.4-11.6 2.1-21.9.7-.3 1.5-.6 2.2-.9.4-6.4 1.1-13-.2-19.3-.6 1-1.7 3-1.5 3.1"/><path d="m101.5 11.8c-1.3 0-2.6-.1-4-.2-3.5-1.4-5.7-5.2-9.5-5.8-4.5-1-9.1-1.8-13.5-3.3-5.1-2.4-9.9 2.2-15.1 1.7-3.1 3.6-6.1 7.4-8.7 11.5 1.5 2.1 1.2 4.6 1 7 2.3.3 4.9-.7 6.9.7.2 1.8.2 3.5.3 5.3 3.7-1.7 6.7-4.3 9.8-6.9-1.5-4.3 1.2-8 3.5-11.5 1.9.2 3.8.3 5.7.5-2.4 1.9-5 3.6-7.4 5.5 2.7 2.3 6 3.5 9.4 2.5-.2 1.7-.5 3.4-.7 5.1 1.3-1 2.6-1.9 3.9-2.8 1.9 1.1 3.8 2.1 5.8 3.1-2.9-3.9-6.3-7.4-8.7-11.7 2.2-.8 4.5-1.5 6.7-2.3.2 1.2.4 2.3.5 3.5 1.2-.4 2.4-.8 3.6-1.1-.9 2.2-1.9 4.3-2.8 6.5 1.8 1.4 3.6 2.8 5.4 4.2 2.3-2.7 4.3-5.7 6.1-8.8.8.4 1.6.7 2.4 1.1-.5-1.3-.6-2.5-.6-3.8m-39.5 9.8c-1.8-.7-3.6-1.4-5.4-2.2 1.9-.2 3.7-.4 5.6-.5-.1.6-.1 2-.2 2.7m2.9-5.5c-1-.4-2-.9-3-1.2 1.6-1.9 3.3-3.7 5-5.5-.7 2.2-1.4 4.4-2 6.7"/><path d="m98.8 27.9c.9 0 2.7.1 3.6.2 2.5 8.1.2 16.4-1 24.5.9-1.5-2.5 1.7-5.5-1.4 1.5-2 3.1-3.9 4.5-5.9-1.9.1-3.8.2-5.8.3 1.7-1.3 3.4-2.6 5.1-3.8-1.9-4.5-3.1-9.4-.9-13.9"/><path d="m91.2 33.4c1.9 1.4 3.8 2.9 5.6 4.4-1.8 0-3.5 0-5.3-.1-.1-1.4-.2-2.9-.3-4.3"/><path d="m76 34.9c.7.2 2.1.5 2.8.7.2 1.5.4 3.1.6 4.6-.7-.2-2.1-.5-2.8-.7-.2-1.6-.4-3.1-.6-4.6"/><path d="m47.5 41.3c1.2.5 2.3 1 3.5 1.5-2.2 1.1-4.6 2-6.9 2.8 1.1-1.4 2.3-2.9 3.4-4.3"/><path d="m57.2 45.1c1.7-.2 3.4-.6 5.1-1.1 2.1 5 8.3 4.6 12.4 6.8-1.3 1.3-2.6 2.6-3.9 3.9-3.5-2.4-7.8-2.4-11.9-1.9.3-2.8-.5-5.3-1.7-7.7"/><path d="m82.6 52.6c2.8-2.6 6.5-3.9 10.2-4.3.8 1.2 1.4 2.5 2.1 3.7-3.2.4-6.5.8-9.7 1.1 2.3 3.9 3.1 8.4 4.5 12.6 1 2.7 4.1 5.4 2.2 8.3-2.6 4-2.7 8.7-2.8 13.2-2.7.2-6.3 1.7-7.6-1.7-2.8-2.6 1.5-4.1 3.2-5.8-1-3.8.7-7.2 2-10.6-1.8-5.4-6-10.6-4.1-16.5m.9 31.6c-.4 1.4 0 1.9 1.4 1.4.5-1.4 0-1.9-1.4-1.4z"/><path d="m44.1 49c.8 0 2.3 0 3 0 0 1.4.1 2.7.1 4.1-1-.5-1.9-.9-2.9-1.3 0-.8-.2-2.1-.2-2.8"/><path d="m66.3 58.2c1.9.5.8 3.6-1 2.9-2-.5-.7-3.4 1-2.9"/><path d="m100.8 71.6c-1.8-1.9-.4-9.7 1.5-12.1-2.3-1.5-2.4 1.4-4.7 0 0 4.2-.2 8.3-.3 12.5 2.5.9-.9 6.6 1.7 6.7-.4-.8 1.9-6.4 1.8-7.1"/><path d="m61.1 74c2.4-4.3 6.6-7.1 11.3-8.4-4.4 4.9-8.6 10.1-10.2 16.6-.6-2.7-1.5-5.4-1.1-8.2"/><path d="m44.2 65.9c1.9 2.2 3.7 4.6 2.9 7.9-3.1-1.6-4.4-4.5-2.9-7.9"/><path d="m52.4 72.5c1.5-2.1 3-4.2 4.6-6.1-.5 2.6-1 5.3-1.5 7.9-.8-.4-2.3-1.3-3.1-1.8"/><path d="m77.1 71.6c1.8.8 3.6 1.6 5.3 2.4-.8.8-1.6 1.6-2.3 2.5-1-1.7-2-3.3-3-4.9"/><path d="m64.5 75.9c5.4-.6 9.1 3 12.2 6.9-1.2.5-2.5 1-3.7 1.5-2.4-3.2-5.7-5.6-8.5-8.4"/><path d="m49.2 78.6c1.9 2.2 3.4 4.8 4.2 7.7-1.5-2.5-2.9-5.1-4.2-7.7"/><path d="m56 84.5c2.2-.3 4.3-.6 6.4-.9-.4 1.2-.9 2.3-1.3 3.5-1.7-.9-3.4-1.8-5.1-2.6"/><path d="m43.1 85.9c1.8 7.4 2.4 15.2 5.7 22.2 1.4 3.4 4.1 8.4-.5 10.4-.6-4.1-2.5-7.9-5.1-11.1-1 2.1-1.9 4.1-3 6.2-1.7-1.8-3.3-3.5-4.6-5.6 1.4-3.7 4.9-3.9 8.2-2.8.3-5.7-2.7-10.7-5.5-15.3 1.2-.9 3.6-2.9 4.8-4"/><path d="m48.9 86.5c4.7 6.2 8.4 13.2 11.7 20.3-1.5 1.2-2.9 2.5-4.3 3.7.6 2.1 1.3 4.2 2 6.3-.6.4-1.7 1.2-2.3 1.5-2.7-4-1.4-8.7-1.6-13.2-1.1-6.4-6.8-11.8-5.5-18.6"/><path d="m110.7 92.2c2.5.1 5-.3 7.5-.4-1.5-1.1-3-2.3-4.4-3.7-6.6.1-13.2.4-19.7-.2 7.5 5.5 15.6 10.2 24.5 13-1.5-3.8-4.4-6.6-7.9-8.7"/><path d="m140.2 115.7c.4 1.2-2.2-1.6-2.1-1.6-.7-.6-1.5-1.3-2.3-1.9-.5-.4-.9-.8-1.4-1.1-3.7-1.6-6.9-4.6-7.5-8.8-.9-1.8-1.7-3.6-2.3-5.5-2.2-.5-4.4-1-6.6-1.6 3.4 3.8 5.9 8.4 7.3 13.3 7.1 1.5 9.6 8.8 12.3 14.6l1-5.5c1.4 1.3 2.7 2.5 4 3.8.2-.4.4-.7.6-1-1.3-1.1-2.4-2.8-3-4.7"/><path d="m32.1 109.3c1.1-4.4 2.2-8.9 3.3-13.3-2-.3-4-.7-5.9-1.2-.5 2.9-1 5.8-1.6 8.7-4-5.2-11.1-5.1-16.2-8.7 5-3.2 10.9-2.7 16.4-1.8.5-1.3 1-2.7 1.5-4-4.1-.3-8.1-.4-12.2-.5-2.4 1.2-5 1.8-7.6 2.4-.4.5-.8 1-1.2 1.4-2.5 2.3-5.4 3.4-8.5 3.8v3.4c2.9-1.5 5.7-3.1 8.9-3.4 2.7.8 4.9 2.8 7.1 4.4-1.1.6-2.1 1.2-3.2 1.8 4.2 6.5 2.1 16.4 9.7 20.5 1.1-2.1 2.2-4.3 3.3-6.4-2.7-1.8-5.4-3.5-8-5.4 1.3-2.4 2.7-4.8 4-7.2 3.4 1.7 6.7 3.7 10.2 5.5"/><path d="m32.3 88.4c1-.5 2.5-.2 3 .9-.1 2.2-5.1.8-3-.9"/><path d="m79.3 97.8c5.6.2 8.8-5.2 12.8-8.3 1.8 1.6 3.8 3.1 5.8 4.6-.2 3.2-.5 6.3-.8 9.5 1.7-1.1 3.4-2.2 5.2-3.1-1.1 4.4-3.9 8-7.1 11.1-1.9-4.7.5-10.6-3.5-14.4-3 5.5-3 13.7-9.9 15.6 1.2-3.9 2-7.9 2.7-11.9-7-.4-14-.5-21-.9-.8-1.3-1.6-2.7-2.4-4 6 .8 12.1 1.5 18.2 1.8"/><path d="m.1 102.5c1.6.1 3.2.1 4.8.2.2 2.5.9 5.1.4 7.7-1.1 2.3-3.1 4-4.6 5.9-.2-1.4-.5-4.3-.6-5.7v-8.1"/><path d="m69.6 108.9c3.6-2.3 7.3-4.4 10.9-6.7.2.8.4 1.6.7 2.5-3.7 2.2-7 4.9-11 6.5-.3-.8-.5-1.5-.6-2.3"/><path d="m103.3 102.8c2.2-.2 4.3-.6 6.5-.3 4.2 3.1 6 8.2 8.4 12.6-.8 1.4-1.5 2.8-2.2 4.2-3-1.3-6-2.8-8.9-4.2-.8 1.4-1.7 2.8-2.5 4.1-4.1-.4-7.8 1.2-11.1 3.5 0-4.8 4.4-6.3 7.7-8.2-.3-1.4-.6-2.9-.9-4.3 3.1 1.7 6.3 3.1 9.6 4.5.8-2.5 1.7-5 2.5-7.4-2.6 0-5.3-.1-7.9-.2-.5-1.4-.9-2.8-1.2-4.3"/><path d="m62.2 107.5c.8 3.7 1.5 7.4 2.1 11.2-1.3.5-2.5 1-3.8 1.6.7-4.3 1.2-8.6 1.7-12.8"/><path d="m92.4 109.3c1.3.4 1.6 2.5 2.5 3.6-1.1 0-3.4 0-4.6 0 .7-1.3 1.4-2.5 2.1-3.6"/><path d="m6.9 111.3c3.5 2.2 6.8 4.9 9.6 8-6.2 2-8.8-3.3-9.6-8"/><path d="m121.4 113.1c2.6.3 5.1.7 7.7 1.1-2 5-1.2 10.4 1.4 15.1 2.2-1.2 4.4-2.4 6.6-3.5-.1 2.6-.1 5.3-.1 7.9-1.6.6-3.1 1.2-4.6 1.9-.6-1.2-1.1-2.3-1.7-3.5-1.6 1.4-3.1 2.8-4.7 4.1-1.4-5.4-1.4-11.1-.4-16.6-1.6-2.1-2.9-4.3-4.2-6.5"/><path d="m29.1 113.2c3.7 1.5 8.2 4.9 6.7 9.4-.4 3-3.3.2-4.8-.5-3.2-1.8-2.3-5.9-1.9-8.9"/><path d="m40.2 114.8c.6.2 1.8.6 2.4.8.2.6.6 1.8.8 2.4-.8 0-2.4 0-3.2 0 0-.8 0-2.4 0-3.2"/><path d="m.1 117.2c1.8 0 2 3 0 2.6v-2.6"/><path d="m85.1 119.2c1.1-.4 2.2-.8 3.3-1.3.4 4.8.7 10.1-2.7 14-.2-4.2-.4-8.5-.6-12.7"/><path d="m37.8 121.3c1.7-1.1 3.3-2.1 5-3.1 2.4 9.6 4.9 19.6 3.2 29.5-.1 2.5 1.9 4.4 2.9 6.5-1.4.3-2.9.6-4.3.8h-18.9c.2-2.4-2.9-1.8-3.3 0h-22.3v-4.4c4.4.8 8.9-.2 13.4-.5 3.4-.2 6.5 1.4 9.6 2.5.7-.6 1.5-1.2 2.2-1.8-.8-1.9-1.7-3.8-2.7-5.7-2.6 1-5.2 2-7.9 2.9-4.1-3.9-8.8-7.1-13.5-10.2 3.8.4 7.8.2 11.5 1.2 2.7 1.2 4.6 3.7 6.7 5.7 1.5-.6 3.1-1.1 4.6-1.7-3.7-5.8-5.2-12.5-3.9-19.3 3.5 9.3 3.6 20.6 10.8 28.2-.8-6.2-2.3-12.3-5.2-17.8 3.1-1.1 6.2-1.6 9.4-1.9-.5 6.6-1.3 13.2-1.5 19.9 1.8-.1 5.4-.4 7.2-.5.8-7.2 1.6-14.4 1.4-21.6-.6-3.2-2.8-5.9-4.4-8.7"/><path d="m48.5 120.5c2.8.9 5.6 2 8.3 3.2-.5 4.7-2.4 10 .4 14.3.7 4.4 4.7 3.9 7.8 4 4.3 0 8.4 1.4 12.4 2.9 1.8-1.3 3.6-2.5 5.4-3.8 1.4 3.7 2.8 7.3 4.3 11 .6-4.2 1.4-8.5 2.4-12.6 2 4.9 2.6 10.1 2.7 15.4h-1.4c-3.5-.1-6.9-.1-10.4 0h-2c.2-2.4-2.9-1.7-3.4 0h-.9c-.5-1.7-3.6-2.4-3.4 0h-5.1c-3-.1-6-.1-9 0h-4.5c-.5-.4-1.5-1.1-2-1.5 1.3-1.5 2.6-3 4-4.4 4.2 2.2 9.1 2.8 13.4.2-1.8-1.3-3.4-3-5.5-3.7-2.6.1-5 1.2-7.5 2-3.8-8.4-4.3-17.9-6-27m20.2 27.2c-.3 1.5-.5 2.9-.8 4.4 3.9.1 7.9.2 11.8-.1-.6-1.6-1.3-3.3-2.1-4.8-2.9-.5-5.9.6-8.9.5z"/><path d="m.1 122.6c3.4 1.5 7.1.6 10.6 1.3 3.9 1.8 4 6.5 5.7 10-1.1.3-2.1.6-3.2 1-3.8-4.1-8.5-7.4-13.1-10.6v-1.7"/><path d="m62 126c1.7-.9 3.4-1.7 5.1-2.6-.2 5.7 0 11.4-1.1 17-1.6-4.7-2.8-9.6-4-14.4"/><path d="m141.1 131.6c1.2-2.7 2.4-5.4 3.7-8.1 4.1 5.2 9.5 9.8 10.4 16.8v4.5c-2.9-5.2-5.6-10.4-8-15.9-2.1.9-4.1 1.8-6.1 2.7"/><path d="m100.1 128.9c1.7-1.2 3.4-2.5 5.2-3.7 1.9 2.2 3.9 4.3 5.9 6.5-1.9 1.6-3.6 3.4-5.5 4.9-1.3-2.3-2.6-4.6-3.9-7-1.8 2.2-4.4 4.2-5 7.1.8 5.9 4.1 11.1 6.9 16.2-.5.7-.9 1.3-1.4 2h-4.6c-1.5-2.2-2.5-4.7-2.5-7.4 0-5.3-.7-10.6-1.9-15.8-2.2 1.5-4.4 3-6.7 4.3 2.4-3.3 5-6.5 7.6-9.7 2 .9 4 1.8 5.9 2.6"/><path d="m113.4 153.9c2-10 1.1-20.2 1.2-30.3 8.1 8 .9 21.7 9.7 29.4 1.7-3.1 2.3-6.7 4.4-9.7 1.7-1.8 4.1-2.6 6.3-3.6-.8 3.4-1.6 6.9-2.6 10.3 4.8-.9 9.8-.4 14.6 0-4.9-4.7-6.9-11.1-8.4-17.5 6.7 5.2 11.2 12.6 16.6 19v3.4h-2.6c-3-.1-5.9 0-8.9 0h-10.1c-4.6-.1-9.2-.1-13.8 0h-2.2c-1.5-.2-2.8-.6-4.2-1"/><path d="m69.5 135.7c-.8-1.7-.6-3.6-.7-5.4 2.1 1.6 4.2 3.1 6.3 4.6-1.7.8-3.8 2.6-5.6.8"/><path d="m73 138c2.2-.8 4.4-1.8 6.8-1.9.7 1.2 1.4 2.4 2.1 3.7-1.8.4-3.6.8-5.4 1.2-1.3-1.1-2.4-2.1-3.5-3"/><path d="m105.9 137.2c3 5.2 4.8 11 6.4 16.8-1.3.4-2.5.7-3.8 1.1h-2.2c-1.5-6-1.1-12-.4-17.9"/></g></svg>