<svg xmlns="http://www.w3.org/2000/svg" height="401" viewBox="4640 416.5 560 400.6" style="enable-background:new 4640 416.5 560 400.6">
 <g style="fill:#f0f0f0">
  <path d="m4670 420c3.8 2 10.9 10 6.5 15.7-5.5-6.5-6.8-4.8-6.5-15.7"/>
  <path d="m4709 422c.2-4.4 8-.8 10-1.6-1.7 5.3 1 23.6 2.3 29.5.3 1.5 18.9 25 19.7 19.4-3.2-6.6-2.5-11.2 1.9-13.7-.3 2 2.5 53 3.2 52.9 3.5-.7 4.4-7.4 7-7.6 3.1-.2-23.4 35-15 38.6-6.1-2.5 13.4-6.6 13.9-4.9 0 .2-28.6 19.6-31.5 26.5-4.6-9.5 16.2-41 18.4-53-.3-25.7-3.1-24.6-17-40-1.8-1.7-16.2-12.8-18.9-6.9-4.2 9.3-17.5 5.5-20 15.6-2.2 6.6 4.6 30.9 15.4 21.4 9.8-9.1-4.2-13.4.7-21 9.4-.5 13.7 9 14.4 14-.9-.8-5.9 19.7-5.9 20.5.4 5.1 5.5 8.9 6.3 13 2.2 7 8.3 1.4 6.4 8.5-3.1 5.1-7.5 13.2-7.8 19.6-.3 1.7 2.6 34.5 8.1 21.3 4.8-6.7 18.4-6.7 22-12.4 13.3-6.4 40.6-23.8 17.7-40-5.5-4 28.5-60-5-49 3.9-19-1-20-9.6-33.9 4.6-7.7 18.8-.1 13.3-17 5-2 17.9-1 22.5.1-23.9 19.4 8 33.9 9 13.5.9-7.8 21 2.3 22 .7 1.4-2.6 15.6-15 3.8-14.2 10.5-1.8 21-.4 26 10.5-19 1.1-23.3 3.2-37.6 14.4-11.9 6.2-9.6 25.3-18.7 34 7.1 4.3-18.3 79 6.7 94 24.9 22.7 52 11.9 68-13.3 6.1-13.8-7.6-47.7-11.5-23-3.5 11.9-9.9 20.3-23.8 20.3 4.9-8.5 28.5-18.9 17.3-35.4-3.7-5.5-6.6-1.9-9 5.3-1.3 2.5-21 18.3-20 8.4 8.5-1.8 23.8-26 13.7-25.6 3.3-.1-37 15.9-23.8-1.7 18.8 3.9 18.6-14.2 16.5-13.8-6.4 0-15.9-12.5-5.4-14.7 5 24.9 20.7-5.4 11-5.4-7.8-6.1-5.3-15.7.3-21.8 15.2-2.7 56-15.9 65 8.9-9.5 4.2-23-4.8-18.4 15.9 1.8 5.7 18.8-2.1 25-1.5 12.5 2 19.7 18.2 28.8 20 4.5 2.7 4 13.8 8.1 3.7 4.6-11 19.4-20.9 29-23.7 7.5-1.1 13-1.6 20 1.4 6.9 10.2 8.2-9.8 6.5-9.8-.1 0-12.8-7.2-18.2-6.7 10.4-16.3 46.7-21 61.9-12 4.3 2.9 5.3 6.6 7.8 10.9.2 7.4-9.1 14.6-8.9 16-.8 12.9 17 16.6 16 3.3 3.6-.9 1.8 13.4-8 14.3 1.9.2-.3 27.4 17.6 13.4 6 .3-16.9 19.9-18.8 4.8-.5-4.9-13 4.1-5.1 12.4 4.8 5.1 6.3 7.9 13.7 9 6.9 8.4-35-14-23.3-15.8-26-2.5 10 38.9 10.4 36.5-7.2 12.5-20.7-16-22-19-11.5-18-4.6.6-12.8 9.4-10.6 2.9 10.3 34 18 35.5 4.1 1.3 47.7 6.8 47.7-6.7 30-47 17.3-143-45.8-143 0-9.6 20-10.2 24.4-9.7-1.9 1.5-3.2 3.4-4 5.7 1.8 6.9 14 6.3 18.3 5 13.2-.4 16 3.1 21.9 13.6 6.3 4.9 6.5-18.8.4-24 15-1.7 17.7-3.1 20.4 10.4-.5 4.7 13 4.6 14.6 5.4-1.8 1.9-9.7 7.2-10.6 10.3-.9 3.5-.2 23-.7 23.7-.9.8-24-4.4-12.6 11.2 5.1 9.7 4 25 8.6 36.5-28.8 10 9.7 38.9 22 41.9 3.6 1 23.7 16.9 22.4 9 7.5-11.8-1.3-31.7-8.9-40 4.3-2.3 12-7.8 12.9-13.5 1.8-6.8-6.5-28.4-2.3-31 7.8-3.3 21-17.6 9.8 2.5 1.7.6 2 10 10.3 9.5 7.5-.3 3.7 25.8 3.8 32.4.1.7-11.2 35-2.3 32.4-9.8 5.4-6.7 17.5-2.6 24.7 0 3.5 5.8 3.7 4.4 11.9-2.2 13 3.1 27.4-.3 40-7.2 22.6-26 6.9-37 14.3.2 0 22.7 49.8 36.6 13.6 3.4 1.6 1.6 28.4 1.5 33.6-5.9-4-4.9-14-8.5-16.2 1.3 1.3-31.6 16.9-28.8 25.6 8.9.7 16.8-11.4 22.9.6-2.2 0-20 4.1-13 8.2 5.1 2.9 15.4-3.9 15.4 9.3-.9 11.3-26 2.2-27 4.8-1.7 32.7 21.9 18 38.9 14.7 0 26.8-.3 12.5-17.3 20-5.4 2.4-8.6 16.2-7.9 15.8-2.6 1.8 6.6 20.9 10.4 16.4 3.1-3.6-1.9-13.4 7-12-5.3 12.5 6.8 8.8 7.9 13.5 4.2 18-37.7 13.6-43.9 13.8 0-19-8.4-32.9-27.9-35-24.9-1.5-31 7.5-44.5 24.3-8.9 7 2.3 14-14.9 11.2-6.6-1.1-7.1-11.7-14.9-12.9-3.4-1.8-34.9-19-36.4-18.6-7.8 2.6-1.7 25.5-.6 30.9-11 1.2-22 .2-33 .5 2.2-5.7 4.9-19.9-3.9-21.4 4.9-10.3 24 5.8 19.6-20.3-.3 1.5-6.1-8-5.6-7.3 6.9-4.2 5.1-14.9 3.9-21.4-.8-4.3-8.6-7.8-10.8-11 4.3-7.4-1.2-9.6-2.2-14.5-.6-3.1-14.2-23-14.3-22.8-3.7 9.1 3.1 22.3-12 24-13.7 0-7.9-16.7-12.8-24.4-.1-.1-24.4 47.6-26 48-7.5 3.1 4.8 25.9-4.4 33.6-3.1 1.4.8 13.2 4.4 14.9 5.7 2.8 10.5 1 16.4.5-4.4 5.3-9.8 10-5.1 20.4-2.4 4.1-31.6 3.8-32-1.4 1.2-8.1 2-14 .7-22.4-2-6.1-24.9 10.3-32.9 13-13.3 3.9-13.2 12.3-26.8 12-11.4-.1-17-30-29.4-27-18.8-3.1-48-5.6-54 18.8-6.4 20-38 4.5-55.8 3.4 0-10.9 5.9-18.5 5.9-8 0 5.3 3.2 5.8 8.2 5.4 8.6-.7 3-9.9 5.6-14.3 4.8 2.5 4.3 14.4 7.2 14.5 9 2.2 12.4-25 6.1-27.5-4.5-4-26-13.6-26.8-3.3-10.5 10.9-7.4-20.8-3.9-23.9.7-8.4 11.7 1.7 16.5 3.7 20.7 15.7 40.8-15.3 34.4-17.8-2.4-.9-29.9 3.1-27.9-3.6-.5.7 17.7-19.9 17.6-11.8-.3-10.5-12-1.9-13.3-8.8 6.8-7.1 21.4 4.2 24 1.4 6.9-7.5-22-18.3-21.3-17.4-10-8.5-8.8-3.2-15.8 7.9-9.4 11-28-3.1-9-5.6 16.4-3.8 2.9-22 8-31.5 10 7.8 9.3 16.5 24.9 14.2 1.7-1.2 22-23 15.9-25-9.4-2.3-27 6.9-31.9-5.6-5.7-9.7-13.9-17-24-10 .1-6.9-4-20.4 4.2-21.5 2.9-.4 6.5-5.6 6.8-8.4 1.2-7.8.7-14.8-5.5-20 6.9-5.5 21.9 8.3 21.4-12-.1-2.3-1.9-9.1-4.6-10.5-7.1-12.6 1.1 0 .5-9.6.5-4.8 2.1-25-6.8-27.3-9.8-4 .6-13.9-6.7-19.6-12.8-15.6-20.4-57.7 2.3-67.9 8.4-4.6 21.3 6.9 25.6 3.7 8.7-5.7 3.9-17.6 1.2-24.8m314 29.6c-19.7 7.7-7.7 28.5-17.8 41.5.9.1-12.7-6.9-10.6-3.5 3.4-7-19.3 6-8.5 15 6.1 5 15.5.9 20-.6.4.6 5.9 24.3 8.2 12.2 7.8-2 7.1-27 6.8-32-.6-10.8 3.1-11 8-16.4 7.7-8.6-6.1-15.5-6.1-15.9m-191 3.8c-1-.1 8.3 29.9 8.7 34.6 1.7 12.2-1.5 17 3.8 25.5 10 16 7-12 11.7-11.3-2.3 6.1 16.9 1.9 18.4 1.5 13.8-16.4-15.6-15.2-15.6-15-8.8 7.6-7.4-55-27-35.5m114 40c-4.2 8.7-.4 40.9-12.4 39 0-4.3 1.7-15.7-3.5-18.3-5.3-2.7-5.5 18.4-5.6 18.8-5.2-.5-9.5-9.5-8.7-15.4 2.9 1.8 2.3-17.2 2.4-14-3.3-7.5-10.8-7-10.5-6.5-5.3 3.5-5.3 4.7-7.7 10.8-2.6-1-10-.8-12.3.8-4.5 3.3-2.2 14.6-1.6 18.8 1.4 9.7 13.6-16.7 14.8 2.7-12.8 22.3 14 37.9 25.7 17.7.3.1.6.3.8.5-1.6 5.6-9.8 27.6-18.7 22 .4-.3-14.9-23-14.3 3.3-6.1-1.6-6.7-14.9-7.3-14.7-10.4 1.9-13.3 25.9-5.5 32.4 10.2 8.4 28.7-.1 38.6-3 8.7-.8 4.1-5.8 12.7-3.8 3.8 2.4 17.3 8.1 21.5 8 35.5 17.6 22.8-37.9 15.7-33.6-4.1 2.5.2 12-6.7 13.9 2.3-10-2.5-16.8-11.8-12.9-5.2 1.2 3.1 12.4-9 8.7-1.6-7.1-12.7-11.5-11.8-20.5 2.5 2.6 33.4 13.7 28.8.8 3.5-9.5-3-18.2 0-24.9 2.7-6.1 9.6 4.9 9.6 4.5 23.4-4.9-23-36.7-23.3-35.4m144 72c6.9-.8-3 19.8-4.9 21.7-6.1 6-17.6 1.5-23.8-2.5-9.6-6.1-13.7.2-11.2 8.1 4.3 17.9-.8 12.4-8.6 20.5.4 5.1-25.4-5.3-27.7-10.8-2.5-5.9-1.5-21.4-5-25-10.4-10.9-10.3 23.7-7.3 28 4.6 7 12.8 11.7 19 17.5-.6 4.4-7.1 4.6-4.6 12.4-1.5 3.2 16 8.4 16.8 5 2.5-12.2-6.8-.5 5.6-15.8 4.2 2 15.6-5.2 18.9-7.3 1.3.5 5.5-8 5.4-9.2-1-11.3 7.5-5.4 14-5.9 10.4-.8 16.5-3.3 24.7-8.4 7.2-2.5 19.8-7.2 25.3-1.4 12.9 13.7 4.8 13.8 10.3 30.7-5.4-2.6-17.4 10.6-27.3 2.8-.5.8-3-9.6-3-9.8-.6-6.8 10.6-8.4 10.6-12 0-6.3-14.6.2-14.3.8-5.3 5.5-6.5 11-5.9 19.6-1 2.2 8.4 12.7 9.6 11.9.5 1.6-7 16.8-8.5 19-7.2-7.5-9.6-18.2-21.6-20-7.6-.2-30 11.9-20.6 22.4-1-5.5-14-17-20.4-10.3-5.5 5.7-3.3 26.6-.5 32.8 3.8 4.5 15.7 13.9 13.6-.6-1.9-2.4 9.6 6.3 9.6 6.3 0 10.4-1.4 12.8-6.9 18.6-18.6 19.7-28.5-21-38.6-17.6 1.4-2.4-14.4-11.3-15.6-13.2-1.8 3.8-7.7-19 .1-19.4-6.9-.9-13 5.3-21.4 3.8-2.1-.6-.6-3.9-4.2-2.7-.4 4.4 22.3-9.3 13.5-10.6-14.2-2-9.9.7-13.5-11.2 12-9.4 22.7 4 26-8.8 8.2-11-18.7-16.6-21-16.9-5.6 2.7-24 15.6-28.8 14.6-1.6-.4-3.4-18.5-6.1-21.9-1.8-7.2-13.8-6.3-14.5-7.7-17.6 3.9-10.7 17.4-17 29.7-9.3 1.1-54.9-32.9-51 5.7.7 6.7 15.5 3.4 21.7 2.6 4-6.7 4.3 21 .6 14.7-2.7 5-11.6-2.1-11.6 4.3-.6 6 11.8 2.7 13.7 4.4-12.2 10-12.6-.9-23.8.9-1.5.4 1.1 11.5 4.2 10.6-1 1.5-1.9 5.8-5.9 10-1.1-1.1-12.9 11-12.9 10.9-4.6-3.2-24.3 34.6-41.9 22 1.7-3.1-9.6-16.7 1-27.8-1.4-.2 17 12.9 13.2 7.9 12.6-.7 3.8-24.8 4-29-4 .3 1.8-18-13.6-7.6-1.3-.8-6.4 7.5-7.3 8-2-42-45-7.7-40.8-.8-2.1 2.5-7.1-19.7-10.9-16.5 2.3 3.3 12-18.2 12-21.4-.1-8-14.5-15.8-14.5-15.9-10.8-.1 4.7 10 2.5 17.9-2.4 8.3-19.3 14.7-23.7 9.2-16-20 3.5-50.9 26.5-36 12.6 8.2 27 9.9 42.8 7.5 3.4 12 4 20.3 19 22 6 2.1 9.4 3.3 14.6 6.5 5.8 6.7-6.9 7.9-2.5 12.2 10.7 10.5 23.8-22.9 9-17.3-.3-1.3 15-10.2 16.3-13.6 2.3 1.4 14.7-35 3.3-37-5.6-1.1-9.5 22.9-10.6 27-3.4 13-22 10.7-29.6 11.4-19 1.8 6.2-28.7-10.6-30-12-.9-17.4 14.5-32.4 4-2.9-2-8.8-32.8-13.2-16.7-3.2.5-1.8 10.3-2.9 12.5-.4-1.4-15.8-4.2-17.6-4.2-3.7-.1-26.5 10.3-24 13-6.7 8.8-8.2 20-4.6 31-2.2 9.3 22 21.7 22 22-2.7-.2-3.2 6.4-3.1 6.4 8.5 4.9 16.2-12.3 16.8 4.6-2.7 1.3-7.4 12.6-4.7 15.2.5 6.2-4 28.5 3.7 31.6 4.9 2 10.4-19.3 19.7-1.8 6.9 12.9 18.7 25.5 33.8 25.6 6 0 54-21.7 48.6-28.7-3.3-1.6 55.9-41 56-40.7-1.3-1.4 31.6-7 32.7-7 0-3 29.6 12.9 31.4 12 0-.2 47 37.6 47 37.6 9.9 9.1 39 33.9 54 20 4.7 2 19-15.2 19-19.4 3.6-1 7-8.4 11-10.4 5.6-2.8 11.6 7.2 13 5.6 14.8 0-7.3-61 8.5-51 2.4 2.7 5.3 3.5 8.5 2.5 2.6-.9-2.8-7.2-2.1-7.7 5.6-4.1 39.5-27 21.7-41-3.5-8-7.9-10.3-13.3-17.8.5-.6-31-8.4-32-1 .7 4.2-9.8-28-12.3-16m-167 90c-11 0-77 44-73 59-.3-1.1 38.9-26 38-27.7.9.2 29-12 28.8-11.5 8.3 1.2 6.3 8.8 4.1 16.4-1.9 2.2 6.8 11.7 8.9 6.7 4.4 1.4 3.7-15.3 2.6-17 5.2-7.5.3.4 11.7-5.6.2.2 27.3 11.6 26.8 12.2 2.8 8.2 30 18.8 33 24.9 0-18.2-66-66-81-56.8m84 63c-4 .4-22.9 6.8-20.4 10.6-.2 1.2-8.5 25.3-5.1 24.4 7.5 31.4 27 16.5 46 22.6.6 5.3 12.9 21.7 12.5 13.5-.8-19.6.1-10.4 11.6-22.5 1.9 1.6 27.5 8.5 27 6.1 2.1-.5-4.7-16.9-3-21.6 7.1-15 35.7-4.7 39.8 9.2 1 3.5-.5 24.6 8.5 21.6 16.9-5.7-6.1-37.8-10.3-42-4.2 9.2-5.3-15.2-2-11 4.2-14-14.9-9-15.3-9.6 10.7 14.9-29 22.7-27.9 24-1.4 1.5-3 4.5-3.1 6.4-.7 10-1.3 3.9-8 7.9 1.5-8-28.4 5.5-30.7 6.1-15 9.5-38 1.1-35.9-18.4 4-20.6 15.3-10.7 29-10.7-.5.7 2.6 10.2 1.5 12.5-1.1 2.2-10 4.3-8.9 7.8 2.3 6.5 27.4-5.9 17.6-23.4-2.8-4.9-15.6-19.3-23.4-13m-167 4c-32.5 0-10.7 50 1.5 35.4 2.2-2.6-13.2-5.2-8.6-16.3.8-1.9 3.7-4.6 4.6-6.7 6.7 4.3 19.3-6.8 24.6 8 6.3 32.7-21 20.4-37.8 23.7-10-2.3-16.9-6.2-29.7-5.6-8.8-3.1-6.1-14.9-14.8-16.5-5.3-4.8-34.8-4.7-22-18.3-.3-1.4-.6-2.7-1-4-18.4-3.8-14.4 21-10.5 19-.2 1.5-15.6 12.2-17.6 16.4-10.8 11.3 3.7 42 6.3 21.7 8.2-20 4-28 30.9-28.5 23 8.1-5.7 28 17.3 28 9.2-2.6 11.7-8 23-6.9 3.7.8 7.7 11 9.1 11.3-1.5-4.7-.1 25.7 5.8 10.3 8.1-2.5.4-12 9.2-13.9 2.8 1.4 9.2 3.3 11.7 1.7 4.6 0 25.9-4.1 25.3-12.9 4.7 1.6 8.1-33 2.7-32.6-2-12.5-30.6-16-30-13.6"/>
  <path d="m4858 420c5.6-1.6 15.4 2 13.4 10.5-5.4 2-11-7-13.4-10.5"/>
  <path d="m4873 420c9.3 2.3 14 7.9 23.6 4.9 14.7-1.9 12.7-9.9 20 6.7 3.1 6.4 4.8 34 12.8 37 8.4 2.4 11.4-30 11.9-31.5 7.9-12.4-1.4-18.5 17-17.3 9.9 14.2 19.8-.1 29-.1-6.6 13.9-20.4 15.5-30.4 23.9-3.8 3.2-23.3 37.7-26.9 38-1.6-6.4-19.4-38-25.8-37-7.8-1.6-31-16.5-31-25"/>
  <path d="m4996 420c4-2.6 7-2.6 8.9-.1-.3 2.2-9.1 10.3-12 10.3-3.4-1.4 2.7-9.2 3.2-10.2"/>
  <path d="m5141 424c-2-4.8 8.6-7.5 9.1-.1.2 3.2-3.8 6.2-3.8 10.3 0 19 14.6 6.1 24 6.1-.1 8.6 0 17.2.1 25.8-.4 4-7.2-1.4-6.9 2.6-1.2-1.2-4.4-9.8-7.4-9.6-9.5-1.2-33 9.8-33 22.6.2 13.3-5.4 31.5 3.1 44.9 3.5 5.5 17.5 24 12.6 30.8-2.9-1.3-8.1-15.4-11.5-14-5.5-.9-16.8-6-20.3-10.7 1.9-3.4 15.7 5.1 14.6-2.8-.2-1.4-2.2-11-4.5-11.8-2-.6-14-11.9-10.8-19.3-.4 0 8 9.2 8.5 7.1 2.1-3.5 3.1-52 4.4-49.8 1.8 3.3.8 22 10.7 5 8.2-1.4 13.3-32 11.2-36.8"/>
  <path d="m5075 660c16.2-4.7 14.6 18 18.2 26.3-10.7 0-7.8 1.3-15.4-4.2-4.3-5.3-7.3-1.9-12.7-1 6.3-8-7.8-14.2 9.9-21"/>
  <path d="m4777 664c18.5-3.9 15 10 14.2 20.9-7.7 0-10.9-5.9-12.7 5.6-1.3.4-11.7 6.8-12.6 1.3-2.1-6.5 2.2-26.8 10.9-27.9"/>
  <path d="m4926 750c9.7-1.9 19.8 25 18.5 32.4-5.5 8.2-9.4 2.3-9.1 14.3 0 10-13 13.8-12.4 10.5-2-1.7-1.6-6.2-3.1-8 1.3-12.3-8.2-10.4-9.1-21.7 2.8-5.9 9.6-26.9 15.6-27.3"/>
  <path d="m4993 797c5.2 4.8 8.7 10.2 14.4 14.6-10.3 9.1-15.5-8.1-14.4-14.7"/>
  <path d="m5093 804c5.2-4 15.3 4.4 17.2 8.6-3.5.1-18.2-3-17.2-8.6"/>
  <path d="m4753 811c2.7-.2 5.3-.3 8-.5-2.7 5-16.2 3-8 .5"/>
 </g>
 <g style="fill:#900">
  <polygon points="4823.9,452.5 4857,585.5 4957.8,554.9 4951.2,515.5 4908.8,525.9 4905.1,518.4 
					4923.6,516.6 4920.1,478.7 4906.5,483.1 4903.2,476 4924.2,469.6 4908.6,425 4823.9,452.5 				"/>
  <polygon points="4825.6,682.6 4793.6,687.9 4773,706.1 4776,729.5 4790.3,725.4 4795.8,731.6 
					4781.3,737.7 4790.5,760.6 4863.9,719.9 4849.6,703.3 4834.8,709.1 4826.4,704.4 4841.2,695.2 4825.6,682.6 				"/>
  <path d="m4862 724l-68.9 39 21 25.5 15.6-12 4.6 3-.6 17.3 47.9 1.2 5.6-76-25.4 1.3m-23.3 42.6l11-11.8-5.2 14.5-5.8-2.7"/>
  <path d="m4910 713l-19.8 10.8-3 72 35-25.8-2.5-10.8 19-38.7-28.8-7.6m1.1 28l-2.1-8.4 8.2-.4-6.1 8.8"/>
  <path d="m4985 697l-30.8-4.5-23.8 16.8 19.8 54 29.6-20.5-5-8.4 10.2-37.8m-21.7 21l-4.8-5.2 9.9-4.9-5.1 10"/>
  <polygon points="5051.4,694.7 5057.4,706.8 5072.9,701.4 5073,691.8 5051.4,694.7 				"/>
  <polygon points="4729.7,699.4 4715.4,700.9 4709.3,716.6 4729.5,723.6 4745.1,714.4 4745.1,704.3 
					4760.3,699.5 4773.4,710.5 4791.7,696.3 4747.8,688 4729.7,699.4 				"/>
  <polygon points="4806.6,687 4827.7,665 4824.3,658.2 4842.9,655.2 4851.5,664.6 4840.2,670.1 
					4827.6,689.4 4806.6,687 				"/>
  <path d="m4783 526l36.5-47-44-36.5-74 20.3 37 173 89-36 16.2-49-60-23.9m-39-37l22.7.3-11.4 18.8-11.3-19m27 95l-6.5-14 34-.5-27.5 14.6"/>
 </g>
 <path d="m5030 709l2.5-1.1 1 4.3 2.3 2.8.1 3-3.2 4.7-3.3 2.5-1.5 2.7-.6-.9.5-4.9 4.3-2.7-.6-6.7-1.5-3.7" style="fill:#040404"/>
 <polygon points="4976.7,690.8 5005.8,713.2 5016.4,732.4 5034.3,719.5 5031.1,700.6 5041.2,690.5 
					5010,678.8 5005.1,686 4996,684.4 4976.7,690.8 				" style="fill:#900"/>
 <g style="fill:#040404">
  <path d="m4669 419l2.5-2.1h498l1.9.8v395l-.8 2.9-1.2.3-.2-.5h-43l-3.8 1.9.6-1.8-7 1.8-.3-1.9h-14.2l.6 1.9-1.3-1.7-63.7.8-2-1.1-1.3 2 .6-1.9-23.8 1.2-2.9-1.2-1.8 1.4-3.2-1.3-20-.2.1.5-2.1 1.4 1.4-1.9h-3.8l-2.5 1.7-2.2-1.8 1.4 2-2.1-1.9-2.5.2-.6 1.7-1.3-1.8-1.3 1-10.4-1-3.9 1.9-2-1.9-3.8-.1 2.1 1.9-2.9-1.8-33.4.6-2.6-.8-1.8 1.3-33-1.2-3.2 1.4-1.3-1.4h-32.4l-1.5 1.9-1.2-1.8-8.6 1-5.6-1.2-1.8 1.7-2.1-1.8-27.3.1-1.4 1.1-54 .2 1.4-1.4-66.8-.2.1-396m7.5.4l-4.4.1-1 5.2-1.1-2.8.6 5.2h-.6l.5 17.3-.6.1.8 49-.3.5-.6.2.1 20 .6.1-.1 8.4h-.6l.3 9.9 1.5 2.7 4-3 3.2-.3 1.5-2.1-1.9.6.5-5.3-.6-.7.1-4.5-.5.2.5-11.2-.5.2.3-1.8-1-4.2.6.1.1-7.1.6-.1-.6-10.9.6-.2-.1-30.9 1.9 6.5-1.9-9 .6-4.7 1.4-2.6-.6-4.3.8-2h1.2l-.3-17.7.3-.5-5.2.1m7.9-1.5l-.7 6.7-.6-.2 1.4 5.2-2.1 12.4-1.3-4.1 1.4 4.8-.2 4.3.5-.2.2.8-1.2 6.7-.6-.3-1.2 51 1-.1v2.7l-1.2 3.7.1 4.7.7-.2-.3 2.1-.6.2v4.2l1.9 4 .1-3.4.7 1.5-.1.6.7.2-.8 5.6 2-.8-1.4 2 3.7-.1 3.2-3.3 2.9 2.9-.9-2.8 5.9-2.5 1.3-1.4.8.3.6 1.2 3.4 2.3 2.4.1-1.4-3.8.7-2.6-1.2-6-1.2.1-.8-.3-.6-42.6-.6-.1 1.4-4 .1-2.5 1.9-3.8-3 1.6-3-.8 1.3-1.6 11.3-5.1-.3-4.7 1.7-1.1-.3.6 15.3-6 1.4.7 14.5-4.3-.1.6 7.3-1.9-.1.6 9.5-2.9 3.9.4.6-1 3 .8.3-.3 6.6.8 2.9 1.4 1.5-1.3.3.8 3.7 1 .1 1.5h.6l2.1 1.4-.1-2.6 2.9 3.2-.3.6 5.4.6 1.7-.6.8.3-.7 2.3 3.8 1.3 3.2 2.8 1.4-3.4 1.5 5.1 12 17-.5 3 3.1 3.6 2.1 8.4-2.2-.1 1.6 1.9-.3 13.6 2.6-.2 2.5-1.4 2.7.9-.1-2.7 6.5-3.3-.7-9-.6.8-1.8-5.2-.3-5.2-1.8-4.1v-3.8l-.5.3-.8-.8.7-4.7-1.4-7.5-1.1-.9-1.2.8-4.8-11.7.3-3.8 2.7-.1-.1 1.9 2.9 6-.3 1.8 2.7-5.2-2.4.7.3-5.5 1.6-1.2-.9-1.2-1.4.6-11-.7.8-1.6 8.6-1.6 2.9.7 4.9-3.4 2.5.8-3.3-2 1.6-9.5-3.2-1.9-.9 1.2-3-1.2h-7.1l.1-1.1-5.3 1.1-8.4-1.3.8 1.2-6.3-.2-1.6 1.2.1-2.1-5.1-.2 1.4 1.4-9.1-.1-.3 2.1-.5-.4.1-1.2-.5.2-4.7-.8-1.2.8-4-.8-2 1.4.1-1.4-8.6-1.2v.6l-1.3.1v.6l-7.7-1.2.4 1.4-3.8-.2-1.2-1.2-.5 1.4-9.3-1.4.8 1.2-2.7.8-4-.8-1.7-.9-9.4 6.4-1-.1-1.4-1.3.3 4-.8.8-3.4 1.2-3-.1-1.2 2.2-.9-3.1 5.7-4.3 2.7 2 .1-3.2 5.8-4.6h-7.8v.6h-.6v.6l-.8 2-1.1-.8-.2-1.7-11.7-.8.1.6-2 .1v-.6l-5.2 1.2-2.5-.5v-.6l-9.7-.1m150 .3l1.9 9 1.2.8-.6-8.4-2.5-1.4m12.9 1.9l3.9.6 2.9-1-5.3-1.2-1.5 1.6m7.8 0l.8 3.2-.8-3.2m-16.2 1.3l.1 5.2-.1-5.2m4.8 2.1l1.2 3.2-1.2-3.2m8.3 4.5l-3.4-1.4 3.4 1.4m-3.8 1.3l-.8 2.5 3.3-2.6-2.5.1m57 7.2l-3.9-.2-2.5.8h-4.5l-.3 1.4-3.1-2.1.1 1.2-.8 1.6-2.3-2.1-5.2.8-.1 1.2 6.7 4.4 2.9.7 13.8 9.1h.6l-1.4-5.2 4-3.9 1.3-8.5-5.3.8m-37-.1l-1.4 3.4-.3 5.7 4.4-4.4-.4-2.1-.5-.2-.1-1.4-1.7-1m-23 3.1l-2.2 2.3-2.1-.3-4.3 8 1.9 4.5.5-.8 3.2-2-.2-2.1 2.5-3.8 1.1 1.5.5-3.4.6.8.8-7.3-2.1 2.7m10.5-2.4l-13 15.9-.1 2.9h-2.6l4.5 8.3.1 2.6 1.3-1.9 3.8-1.6-.5-2.5 1.2-2.6 1.2.7v.6l1.4 1.4.8.2-8 10.8 3.2-.1 2.3.8-.3.6h.6l-2.7 2.5 2.9-.6-.3 2 6.9-11.6 2-1 1.9-4.6 2.5-1.9.9-3.6-.1-3.4 3.9-6-4.1 4.9.6-4.7-1-1.3.5-2.1-7 10-1.4-1.4 6.4-13.9-12.4 17-1.1.1-.6-1.2 5.7-8.7.8 1.4v-2.2l3.7-6.3-4.4.1m-26.3 1.3l3.1 5.1-.9-4.1-2.2-1m44.5 4.5l-3.2 4.6-.1 2.5 3-3.4 2.1.1-.1-3.3 1.6-2.4-3.3 1.9m-113-.1l4 .6 1 .5 4.1.3 1.2-1.9-10.3.5m12.3.1l-1.3.1 4.1 1.2-2.8-1.3m106 .1l-5.4 9.3-.7-2.1-2.5 3.8 1.9-.6.2.8-3.9 3.8-1.2-.7-.6 3.5-4.6 5.8-2.7 1 1.4.6-10.2 14.5-.1 4.4 1.3 4 .8-.8-.3 4.1 1.2-5.4 1.4 3.5.3 8.4-1.1.6 1.4 2.7-1.4 5.1 1.9-4 .1 2.7 3.5-2.7.7.2-8.1 8.9-1.9 5.2 1.2 4 1.2-.9.8.8-2.1 1.9 1.7 2.7 5.2-9.1.1-1.9 5.1-6 2 .1.8 1-.6 1.2-1.4-1.5-1.3 7.4-7.8 11-2.8 9 2.1-.8-.6.9 8.9 24.5.1 2.7 1.7-1.3 1.6 1.4-3.2 3.5.5 4.7 5.7-12.4 3.2-3.4 2.1 1.6-1.5 2.8-1.8-1.4 1.8 1.7.7.2-1.4 1.7-2.5.2.8 3 .9-1 .6-.3 2.1.7 4.1-1.2 3.9-3.5 1.5 1.8 9.4-1.6 3.5-2 3.2.3 4.2-1 7.1-13.7 2.3.1-.6 3.4-2.1-2.1 1.5 3.2-.1 2-3.6 3.8 1.4 1 12.8-3.5.3-.5 6.7-2.2 2.5-2.6 1 1.4 1.6-2 3 .1-.7-7.3.1-.5-.7-4.3.6.3-1.4-12.4-1.8 1.5-2.8 5.4-2.5-1.7v-3.1l-5.7 3.9-.3-.5h-3.2l-.8 2.6-1.3-.7v-2.6h-5.6l-2.2 1.4-3.7.6-3.6-.8.3-1.9-2.7 2.7-1.8-.6.1 3.2-1.5 4.5.7 1.2-1.3 1.3-2.5 4.7h-1.2l-.6 5.4-5.1 5.6-.5-.1-.7-5.8 4.9-5.4 4.9-14-.4-1.1 1.8-2.1 1.1-.1-.6-4.5-1.2.1 1.2-1.6-.1-3.2 9.1-8.9v-.8l3.9-5.2-.3-1.6 3.2-5.2-.3-10.5-4.4 2.8-.6-.2-1.4 11.7-5.2 4.6v-2.6l3-5.5-1.6.3.3-7.3.3-.5-7.8 1.3-3.9 7.4-1.2 1.2-3.2-.6-3.9 9.7-.5.1-2.3-2.3-1.6 1.6-1.4-2.2-1.6 1.3.7-2.9 4 .3 2.5-4 2.6.1 1.5-5.2-3.3 2-1.6 2.7-1.4-1.4 8.4-11.7-1.1-10.9-.5.1-12.5 22.6v1.5l-7.4 8.5-3 1.1-.5-1.8 9.8-16.4.5.1 10.3-17.8.1-3.1 1-1.2 2.9.6 2.1-5.3 5-5.9 1-3-1-3.2-2.3-1.2v1.9l-1.2 1.4-.3-2.2-1.7 4.2-5.4 6.4-3.1 2 1.2-3.3-2.1-.3 1.9-5-1.7-1.4-1.2 2.7-.3-.8 1.2-2.9-.9-1.6-6.8 7.1-.1 2.5-1.2 3.4-5 .7 1.1-7.9.8.8h3l.7-3.4 1.1-.2 5.9-9 2.6-1.4-4.3-3m-199 2.1l.5 2.5-.5-2.5m70 1.2l-2.7 1.8 8.4-2.1 1.2.2-4.7-.4-2.3.5m14 .1l3.9 1.2-3.9-1.2m122 .8l-.8 2.5.8-2.5m2 3.3l-3.4 3.2-.1 3.8 2.5-.3 3.6-6.2-1-2.1.1-2-1.7 3.6m-150-.8l-2.3.3-6.2 3.4 13-5.8-4.5 2.1m45-1.5l3.3 2.5-2.5-1.2-.8-1.3m-21.4 3.7l-7.6.9-1.9 1.9.1 3.2-3.9 9.3.5 1.9-1.9 8.4-2.7 3.2 3.8-2.7-.6 2 2.2-1.5.3-3.1 1.9-4 1.3-.6.8.1.2 2.1-2 2.6 3.5-4.3 2.4-6 1.2-.5 1.9-4.7-1.4-2 5.2-4-1.1-2.5-2.3.3m5.9 3.9l-1.4 2.5-.3 2.7-5.6 11.3-6 6.4 1.9 4.4 4.5 1.2 3.7-7.3 1.2-1 1.6 1.9.6-2.4-2.1-.1v-1.5l.6.2 3.2-7.3.6.1 2-4.1 4.7-4.3-1.2-6.6-1.2.3-1.4-1.3-5.5 5m23-4.3l1.6 1.6-1.6-1.6m79 0l.5 2.5-.5-2.5m-147 2.9l-1.2.3.3.5-2.2 2.5 3.1.1 2.9-2.5-1.6.4 4.1-3.7-1.2.7v-.6l-4.2 2.3m-6.9 1.5l5.2-2-5.2 2m85-2l2.7 2.7-2.7-2.7m-51.9 2.6l-.9 2.7-1.9 2.3-.1 2.1 5.2-9.1-2.3 2m32.8-1.8l.3 1-5.5 12.4-.4 5.4-1.2 1.7.1-2-1.5 1.2-1.4 3-4.7 4.3-.8 3 2.7.2.5 2.3 4.1 1.6.1 1.3 3.2-2.1 1.3-3.8v-.5l2.4-2.1.1 3.4-2.7 4.5 3.2-4.7.5-1.8 2.5-2.3 1.4-3.5 1.8-1.9 1.5-3.2 1.5-.8 1.8-5.1.1-2.7-3.9 7.8-2.4 2.5-.8 2.8-2.8-.2 2.9-4.9 1-.6 1.5-.2.1-9.4-1.3-1.7 1.1.1.1-4-2.1.6-4.3-1.7m-40 2.5l-2.3 2.9-1.8 5.4.8.8-5.6 6.4-2.4 7.6-5.5 4.7-2.3 4.9-3.2 3.6-4.3 13.9 5.6-3.2 1.6 2.1-1.2.1-.7 4-1.3.5-.8 1.2 2.6-1.9 6.6-9.8-3.8 4.1-2.9-1 7.3-13.5 1.8.8-.1-3.5 1.4-.5.9-2.2 1.6 1-1.2-3.2 13.7-18.4-1.9 1.5-.1-4.7 1.5-4.3-4 .5m161 2.9l-9.1 12.2 2.7.1 2.6-4.6 2.4-.1.5-3.8 1-.6.1 1.4 2.5 3.1-.6-2 2.4-.7 2.3.3 3.2-1.7-.8-2.5-1.1.2-.1-.7-2.7-1.4-1-1.3-4.3 2.1m-171 0l-4.9 2.6-1.2 5.8-2.1 4 1.6-2.1 1.5-.4.6-4 7-6.7-2.5.8m60-1.1l-1.6 5.1 3.2-5.3-1.6.2m15.5.6l1.6 2.3-1.6-2.3m34.9.6l-.7 6.4h1.3v-6.5l-.6.1m-44.7 4.5l-11 19.5.6 1.4-9.5 14.3.5 1-5 4.8 1.6 1.4 1.1 1.9-7.4 4.4-2.6 3.9 1.7-.3-4.6 5.8-.8 5.6-13 16.8.6-.1-.4 1.6-4.3 7.3-2.9 2.3-1.9 5.3-1 .4-3.8 7.3-1.9 1.4-2.7-1.6.3-2 .9-.5.3 1.3 4-7.5 2.5-.5-.1-7.6 8.4-12.5 1.3.2 1.4-5.2-.6.1 9.7-13.6.1-.5 2.6-4.1-.1-3-2.1.5-1.7-.7-.8 3 .1-2.1-7.8 5.7-1.9 4-.8.8-.4 6.8-8 13-5 2.8-5.8 7.8 2.2.8-3.4 1.3 4.4 14.8 1-1.3 1.2 3.3-.8 1.1 1.4 5.2-.3 2.1-2.3-4.1v1.9l1.8 4 2.1 1.9-.8-1.9 1.3-2.2-.6-1.7h.6l3.2 2.5.1-3.9 7.1-10.4 2.1.5-1.6-3.2 7.5-13 1.9 4.9-2 1.8-3.4 7.7 1.4 1.4.9-4.4.9-1.6 2.6-2-.1-2.1 4-.9-1.1-2.8 5.6-10.4.6-3.2 3.2-3.7 1.4-3.2 2.5-1.5 1.6.9-16.8 29.8-1.9-.3-.6 6.7-.7.7-2.7-1.6.8 3.4-1.9 2-2.1.6-.1-.6 1.6-1.6.6-3.8-11 18.2-1.2-.8 1.3 3.2v-.7l1.2.3.1 4.3-.8 1.3 1 1.8 2.3 2.2 1.3-1 3.4-7.6 1.7.1v-4.9l2-1.9-.3 4.3-4.1 9.3 2.2 2.2-3.9 5.2.5 5.1 3.3 3-.1-1.9-1.6-1.2 2-1 6.6-8.9 4.4-2.4 2.1 1-1.2 3.6.1.7-3.4 5.8.1.4-1.9 4-3.3 3.2-1.5 3-4.5 3.4 2.3 1.7 6.2-4.5 1 .6 6.7-4.8 1.8.8.6.7.9-4.4 7.1-9.9-.8-6.4-1.2-2.6-1.2-1.3-.1-1.2-.9-2.5-1.6 1.4-2.8-.1 1.3 2.6-.3 2.4-1.6 2.8-1.2.1-1.9-1.6 1.7-2.5 1.4-5.8-1.4.5 4.4-5.2.1-4-.6-1.1-.6-3.9.5-3.9-2.6-2.1-11.7 23.6-1.4-.3-.6-1.1 5.1-7.4-1.2-2.5 1.5-1.8-2.7.6 4.5-8.5 1.2.1 4-8.6-.2-2.1 5.8-7.8 1.4-5.6 9.6-13.8.3-1 8.9-13.4 1.4-.9 8.4-11.7 1.7-1.2.6-4.9 1-1.7 2.5 1.3-1.3-3.4.6-2.5 2.1-1.3.8 1.2-1.6 7.2 4-4.1-.1-3.8-.6.1.5-7.8-3-10.4-1.2 2.3-.9-1.4.1 2.6-1.2-.2-2.2 12-8.4 11 .3 2.3-6.2 7.4-1.8 6.2-1.8-1.3-.7 3.8-4.7 8-.6-1.4.6-2.8-.8-2.9 1.6-2.7-1.9-1.2 7.8-9.3-.8-1.5 3.8-3.7 4.7-8.6-.8-.8 3.2-1.7 1.2-4 .6.1 7.3-16-.6-.1.1-1.4-1.8-2.3-.3-2.6 2.2-.2-1.9-3.2-1.9 2.7m-80 1.8l.5-2.1-5.7 6.6-.1 5.1.5-.2-.5 4.7 1.8 1.9.5-3.5 4.6-8.3-.3-1 3.2-4.6 1.2-.4.8 1.4-2.8 6.7 3.4-5.3.4.2-.4-3.8-2.1-.8-5 3.4m93-3.2l2.3 2.3-2.3-2.3m28.5-.2v3.2-3.2m-35 .6l3.2 7.9-1.2-4.6-2-3.3m-30.5 2.1l-4.8 9.5 2.1 1.5 3.7-11-1 .1m66 1.3l1.4 8.4h1.2l-.7-8.4h-1.9m-108 2l-9.2 12.3-.1-.7-1.3-1.9 2.6-2.7.5-3.1-3.2 3.8-1.8-.6-2.1 1.3-.1 2.5 2.5-2.1-1 3.9-4 5.3 1.9 1.8-.6 2.1 1.8 1.8 3.2-6.2 3.2-2.3 2.9-5.6 3-2.9 3.5-8.2-1.7 1.6m-26 .3l.1 5.8 1.6.4.2-3.6-1.9-2.6m196 .2l1.9.5-1.9-.5m-89 2.6l1.7 2.7-.1-2.8-1.6.1m-67 2.6l-1.8.1-2.9 2.1-.4 2.3-2.7 4.6.7.1-2.8.5.8 2.5-3.4 3.2-4.3 8.6.8 1.6 6.8-13 1.8 2.2 2.7-2.1-.6 2.1 2.3-1.4 2.8-4.6-3.9 3.4 3.2-7.9-2.3 1.8-4 7.4-1.4-2.1 5.1-8.4 3.8-1.5 1.4-4.5-1.8 2.7m90-2.6l1.4 4-1.4-4m11.6.5v8.7l.5-4.5.5-.8-1-3.4m66.8.3l-4.1 3-4 .7 2.7-.6-.8 2.5 4.7-2.5 3.6-.2 2.8-3.8-4.9.8m-99 3.3l-.5-.1 1.5 7.3-1.5 1.8 2.6-1.9-.6-3.9 1.4-4.5-2.9 1.3m80 .5l-.7 2.5.3 3.1 4.9-.6-3.2-3.5.2.5-.7.3-.7-.6v-1.7m-189 .2l.5 5.8-.5-5.8m102 .7l1.2 3.9-1.2-3.9m27 .6l.8 6.4 1.8.8-.8-7.1h-1.8m-124 4l-.5 4.4 1-3.3.1-4.3-.6 3.2m209-2.7l-5.4 1.2.3-.5-5.2 1.5-2.7-.2 1.8 1.2 4.7-.6 1.2.6 2.7-1.3 5.2 1.3 1.7-.1 2.2 2.7-.8 11.7 1.8-.7.4.9-1.4 2.4-.5.1.1 13.6-2.2 2.5 2.7-.6-.8 2.4-10 2.9-4-1.6-4 2.1 2.7-1.3-1.1 4-2 .3 10-.6.3-.6 1.2.6 8-4.5 2.1.5 9.1-5.8 5.1.1 2-1.4 2-.3-.8-1.7 1 .8 1.2-2.5 1.2-10.4-2.6-3.4-4.3-1.8-2.9-2.5-1.6 1.5-.3-3.6-3.2.1-.8-2.8-7.8-3v-.5l1-3.4-7.2.6m-110 .2l1.3 4-1.3-4m36 7.1l1.4-1.9h1.7l-.1 3.1-1 1.6.8 3.9-1.1 1.9-1.1-2.1.1 3.9 1.2-1.3 2.3-.1.4 4 1.4-5.2-.6.1-.1-.6.6-3.8-2-.1.6-4.1-2.5-4.5-2 5.2m51-3.1l-.8 2.5.8-2.5m-146 .6l2.6 1.3-2.6-1.3m171 1.3l1.3 4-1.3-4m-85 .8l1 3.5-1-3.5m-27.3 1.3l1.8 2.5-.6.1-.7 6.4 2.4-6.4-2.9-2.6m-59 2.2l-1.4 1.9 7.3-.5-1.2-1.9-2.2-.5-2.5 1m66-1.1l3.2 1.2-3.2-1.2m62.9.6l-.8 3.3.8-3.3m-144 1.2l.3 6.8-2.1.6.7 1.3-16.2 21.4-.8 2.9 1.4 10.7-4.1-10.6v6.5h.6l1.2 6.5 1.5 1.2.1 3.6 1.2-.9 1.9.6-.1-2.3 3.8-3.4-1.9-3.7 1.9-4.7 1.2 1.6.1 1.7 4.7-5.2-1.5.9 1.4-6.1-3.9 5.4 1.6-5.7 4.7-4.4 2.7-11 3.2-.5-1.8-2.5.6-5.1 2.8 1.1 2.3 6v-4.5l-.5.2-.7-2.1h.6v-4.5l-5.1 2.7-1.8-4.4m40.8.2l2.7 1.7-2.7-1.7m118 0l-2.1 6.5 2.3-1.8-.2-4.7m-137 2.6l-1.8 2.1.6-2-8.3 3.9 1.6 5.2 2.8.5.8.8-1.7 3-2.3 2 3.8 1.4h2.1l.6-4.5 3.8-3.8 1.2-.2 4.8-5.7-2.1-3.2.2-.6-5.8 1.2m-46.8 1.9l1.3 3.9h.6l-.8-6.4-1.1 2.5m5.4-1.2l-.8 2.5.8-2.5m174 3.1l1.6-2.3-1.6 2.3m-75-1.3l-.8 6.5 2-1.9-1.2-4.6m-3.3 1.3l-3.4 14.9 2.6-3.2.5-2.1.7.8-.4-10.4m109 .2v5.6l.4-5.8-.4.2m-72 1.1l-.2 2.1 1 3 .3-1.7-1.1-3.4m4.4.7l.2 7.7 2.5.8-.8-5.2-1.9-3.3m-89 1.4l-2.7 4.5 3.4-3.2-.7-1.3m53 3.4l-1.4 3 4.6-2.1-1.2-1.7-.1-2.1-1.9 2.9m138-.3l-.3 2 .8 3.6-.7 3.5 3.8-2.7 1.2-5.3-2.5-2.5h-1.1l-1.2 1.3m-242-2v1.9l1.9-1.9h-1.9m60 .2l-2.1 3 3.2-3.2-1.1.2m145 .9l-2.9 5.9 4 1.9.6-8.9-1.7 1.1m34-.4v4-4m-150 3.8l-.5 2.7-3.5 4.5 7.1-9-3.1 1.8m29.9-1.8l-9.3 5.1 2.7.6 4.4-2.7v.6l.8 1.2-5.8 2.3-.8-.8-5.5 9.5 7.8.2.3.8-.1.6 3.8.6.8 2.2 1.7 1.4.3-1.4 1.2-2.3 4.4 3.2-1-4.5-.8-1-3.2-11.3.2.5-1.4.3-2.2-1.4.6-1.3 3.5.1 1.1-.7 1.8-.1-1.8-2.5-.1 1.3-2.6-.1 1.4-1.2-2.5.8m-118-.2l1.2 9.1 1.4-3.2-.8-1.9.1-2.9-1.9-1.1m27.6 4.3l-4.3 10.8.1 1.4-1.3 3.8-1-3.4-1.6 1.6 1.8 1.8-11 19.4.8 6.4.3-1.6 2-3.4 1-.2 2.1-7.1 1.3 3.2 1.4-5.8 3.4-.5-.1-5.1 8.4-5.5.8-1-.2-1.9-1.9-1.4.6-2.5-1.2-.8.6.1v-.6l3.2.7-1.8-3.2-1.6-9.1-2.1 4.3m99 1l1.7 4.1 1.3.6-1.3-3.9v-3.8l-.7-1.9-1 4.9m-93-4.3l1.3 5.2-1.3-5.2m15.6.1l-.8 1.9 3.2-1.3-2.4-.6m88 .6l.5 4.5 1.3-2.7-1.8-1.8m-46.6 3.4l-.7.6.7 2.8 3.1-4.3-3.1.9m42-2.5l1.2 3.8-1.2-3.8m106 4.3l1 .7-.6-5.1-.4 4.4m12-.5l-1.2-.2 2 9.8 1.3.5.1 6.7h1l.8 2.6-1.4 3.8 1.8-1.4 1.6 6.6-1.4 3.7 1.2 3.4-.4 9.1 1.2-.1-1.9 6.1-.7-.8-.1-5.4-.6-1 .2-17.6-2 2.1-.8-.9.9-7-.8-1.9.9-3.1-1.4-.7-.8-1.9.8-4-2 .6-.7-4.4-2.4 11 .6 1.2.6 26 .5-.1-.4 2.5 2.7 6-.1 5.7 1.9 2.1.7 2.1-2 7 .3.8-2.3 4.9-3.2 3.4-2.3-1.3-4.6-.6 4.6-9.8-2.1.8 1.4-6.1-2 2.1-.5-3.4 1.9-4.5 2.5.7-.9-3.9 2.1-4-1.8-1.5-1.7 2.7-1-1.9-2.3-.4-5.9 1.4-.2-1.5-2.6 3.8-6 .6.1-.5-4.6-1.4 2.1 2.1-3.4 1.7-3.1-.5-3.9 1.3-1.2 1.9-.6.1-3.5 1.7-1.2 2.1-.8-.8.8-.7-9.3 2.7-2.5-1.4.2 2.1-2.1 1.2-3.8.8-.5 2.8-1.6 1.7.6-2.7-7.8 3.1-4.5-.5-1.1 1.5-5.4.6.2.6-3.3 1.2-7.1-.1-.1 1.9-2.2.6-1.3-1.7-2.4 1.4-3.1-4.7 2.6 5.2-2.5 2.5-.8-.6-4.1-15.9.1-1.2-.5.2-2.8-2.7 2.1 3.3-.8 5.5.6.8-1 2 .5 3.1.9 1-2.9 1.1v-1.2l-.6-.1.1-17.6.6.2 1.2-1.5.1 1.4 1.2-6.1 1.4.9.9 2.1-2.3-10-1.4 2.2-1.7-7.3.1 11-2.5 5.3-2.1-2.1 1.2 5.1-1.8 2.3.6 2.9 2.2-1.4.1-2.7.8 6.4-.6-.1.7 8.7-3.9.3-7.5 16.2-11.7 11-3.4 1.2.3-1.6-1.9 3.3-1.2.3-.7-1.6 1.2-.5.1-3 4.6-1.4.1 2.3 12.4-13.6-24.8 13.4-3.8 3.8-1.4-.3.1-.6-4 3.3.8 1.1-4.7-.5-3.9 1.5-2.4 2.4-2.1 5.8 2.1.1-.1 3.8 1.2 1.2 9.3 2.6.5 1.4-.6.8-4.7-.5-1.3.4-1.9-1.9-.5 2.6 11.4-.1.3 1.6-4.1.8 13.9-1.6-.6-3.2 5.1-2-.5 2.2-3.4 1.2.7 2.4-2.8 1-2.6 2.1-10.2.6-4.5 2.1-1.4-1.3-3.2.9-3.4-6-.8-.6-.5-4-2.1.5.3-.5v-2.7l-2.1-1.4 1.5-6.4-1.5 1.2-2.3-.4.5 7h.6l1.9 8.6-.1-2.5h.6l1.6 1.7-3.8 3.6-1.4 4.4-6.9 3.8-10 .7 1 3.5-1.7 3.6 3.8-1.5.7-1.2 3.2.2 1.6-.7h1.7l3.4-2.5 6.3.3.7-1.3 7.1-1.1.8-2.7h6.5l-.9-1.4 4.7-2.4.2 1.9-1.5.8.8 1.4-7 3.9-.1-1.5-.5.3-6 1.2-.7 2.2-3.5 3.1-.2-.8.7-1.3-1.9-1.2-2.8 2.5-6.8 1.7-4.8 3.7 1.2-2.9-24.5 6.7v-.6l-4 1.8-.6.8-3.9 1.5-2.7-1.6 1.4-1.7 3.8-2.3 6 .1-.3-1.2h3.4l1.2.6 4.2-3.7 2.5-.3 4.3-5.6-2.9 2.7-2.6-2-1.9 2.1-2.1 1.2-2.5.1-.5.2-2.4-.1-4.9 4.5 1.9-3.4-5.6 1.4-1.6 1.8-.1-2-13.6 4.1 1.4 1.6 1.9-.3 1.3 1.1.8-3.3.8.8-.3.5-.1 1.8 4.8.5-3.4 2.3 5.4.8-6 1.7v-1.2l-1.8-2.5-1.4 1.3-3.3-.2-4.1 1-1.8-.3-.1-1.9 4-3.2-5.8 2.5-3.2 2.7.5-3.2 1.4-.1-4-1.6 1.8-1.9.8.8 14-3.4.8-1.7 7.8-2.7 1.2.7 6.4-1.4 1.4.2 9-2.1 1.2.3 1.6-.9 1.4-2.7 1.6-.6.3.8-.1.5 9.7-4v-.6h3.2l-.2-2.1 4.7-1.8 3.1-8.5-.9-3.4-1.4-1.6v-.7l-16.7 4.1-1.5 1.4-2.1-.5-1.7 1-3.9.6-1.3-2.5 4.9-1.4-1.8-1.1-2.5.5-1.8 1.7-1.6 3.9-2.9.9-.4-2.9-1.6 1.4-.8 2.8.7 1.2-3.2-.8-3.9-5.1-1.8-4.9-2-.9v-.6l-2.7-2.6-.6-4.5-.8-.3.1-4.4-1.5-4.3 1.4-2.3-1.7-2.5-.1 1.4v-2.9l1.9-2.7 2.1 4.1-1.4-7.7-1.4-.1-.5-7.6-1.1-.1-.1-.5-1.2-1-3-12.2.3-1.2h-.6l-.1-1.9-1.8-.1-.6 1.5-.9-.8-.6.3-1.8-.8-.8-6.5-.5.1-.3-10-2.4.7-1.4-3.1.3-1.4-.7-4.7 1.6-3.7.1-3.1-1.2-2.1-1.1 1.5-4 1.3v-6.9l1.7 2.9-.6-4.5-2.6-.6-1.6 1.3-4-2.2-4.5 4.6-2.1 1.2h-.6l-2.5-1.2-1.5 3.2 1.8 2.1-1.5 1.4-.3-1.7-1.1 2.9.9 5.6-.6.1.5 8.4 1.8.2-.7 10.9.8-1.2-.8 8.9 1.3-2.6.1 6.4 1.2 2 .6-.1.8.3-1.4 1.2-.6-.1 1.9 9 .7.8-1.7 4.5-1.2-6.5-1.2 4.1-.8-3 .1-4.5.1-.4-1.6-13.8.8-2.6v-.4l-2.7-4 .6-.6.1-5.2-.2 4.7-.5-3.4-.5.3.5-4.7.5-.5-1.8-12.6-.4.3-2-3.3-1.6 3.6-4.1.4-1.2 3.1-.9.1-.2 25h-.6l.8 10.4-.3.5v6h-.6l.6 16.8h-.6l.6 22h-.6l.9 16.3-.3.5-.6.2.6 13 .6-.1.8.8-.7 2.4.4 2.1-.9 1.7-.7 3.5 1.8 10.4 2.8 5.2.5-.1.8.3.1 4.3 2.4 3.1h1.6l.6 5.8 1.8 2.9-.1 4.4.6-.1 1.3 3.3 1.3.1 2.7 7 1-.1v1.9l7.3 13.7v.6l8.6 17.8-.1 1.2.5-.3 2.3 5.3 1 .8 1.6-.1 1.8 8 1.9-.7v.6l-.6 1.8 2.5 6.2.8.6-.8 1.6 1.7.5 2.4 4.4-.2.5.6-.1 2.4 5.9-.5 2.6 1.4-1.4.5.2.8 3.8-1.5 1.7 1.9.1-.6 2.5 1.6-1.9.9 1.2.1 4.1.6-.1-.1.5-1 .3 2 5.7.5-.3.8 2.2-.3.4 1.4 4.1 2.5-.8-2-4.2 1.2-.2 2 3.4-.6 1.8-1.9.8.1 2.5 3.2-2.9 1.3 1.6v.6l-.6.6h66v-.6l-.3-.6 3.4.8 4.3-4.1.6 1.4-2.3 2.1 2.1 1.1 6.5-.1-.2-.7.9-.3-.1 1.1 8.4.1v-1.3l.8 1.1 13.4.2v-1.4l4.1.6-.2.7h20l-.4-.4-.1-.6 1.5-.3.1.6-.6.6h19.4l.1-1.3-.3-.8 1.9-1.3.2.8.7.8-2.1 1.7h24.6l.1-1.1 1.7-3.6 1.5-1.1.8 2.3.6-2.3 1.9-.5 1 4.6-.4-.3-.6.3-2.8-.8v.7h-.6l7.8 1.9.1-1.2 1.2-2.2.2 1.7-.8 1.7 2.1-1.2-.3.5.1.6h26.6l-1.2-1.9v-.6l.6-.2 1.8 2.7 5.1-.6.1-.6.6.1-.1 1.1 18.8-.1v-.6l1.4.2-.1.5h9.7l-.3-4.7 1.8-6.5 1.7.3-1.4-5.3-1 1-.8-.8.7-1.2 2.5-.9 1.4-3.8-.6-.1.7-7.6-1.2.1.9-2.3.3-4.3-.8-1.1-.6-3 .8.9 1.1-13-1.1.1-1.3-1.4.1 1.5-2.7 1.2-9.1 9.6-.5 2.9-4.1 5.5-1.1.2-.8 5.7-1.4 1.3-5.7 11.2-3.3 2.5-1.3-4.1-.6 4.1-.8-5.4 1.2-1.3.7-8.4 2.1-4.3.6.2-.1-15.4-.8-.8 1.6-6.4-13.8 18-3.1-.5 3.2 1.9.6 1.7-3.7.3-1.4-3.9 3-1.6 3.4-8.3-1.9.2-1 1.7-1.1-.6h-4.2l-1 1.8-2.4-.5-.8-3.3.3-1.8 3.1 1.3-.5-7.1.9-2.3 3.4-2.2 2.7 3.2 1.4-2.6.1 6.6-2.8 2.4-3.2-1.3.1 1.9 6.9.6 1.3-3.3 3.4-1.1 1.2-6-.5.1-1.5-4 .1-3.8-1.4-3.2-.4 9.9-2.8-3.6v-1.2l-1.2-2.9-.8-.8-1.3-7.1v.7l-1.2-1.4-.1-3.2-2.6-4.7 1.6 3.9-3.2 5.5-21.7 19.7.1.7-4.7.1.1 3.2-.7 1 1.2 5.4 3.2-.3 2.1-1.1-1 4.4-2.6 2.9-3.8.5 2.7 1.4-5.8 1.4-1.7 2.9-13.4 11.9-3.1.1-.8-7.8h-.6v-5.8l1.9-4.6-2 2.7-2.7-5.5 2-6.9-.8-17 .7-.9.5-6.7-1.9-2.8 1.5-1.2 1.9 2.7.6 5.2-.6-17.5-1 1.8-.6 7.3-.7-1.4-.1-7.7-2.5 10.3h-.7l.7-10.9 1.9-2.7 3.3.5-.2-5 8.4-2.6 1.5 2.1 1.2 5-.1-.6 2.9-2.2-.3-3-2.4 2-.3-2.8-1.1-1.8 3.2-.1 2.6-1.4-1.9-3 .7-.8-.1-2.5 1.8-.8.1.8-.6.1 2.5 2.1 1.6-.1.5 3.6.6-2.9 2.7-.1 1.2-1.2 3.1-1 1 .3 4.5-1.4-.1 2.9 2.8-.2-.8.8-5.9-.1 3.1 1.9 3.6.2-.3.4 8 4.2 3 3.8.8-1.2 1.8 1.2-.6-1.9-.1-2.7-4.3-7-2 .1-.8-3.9-3.4-1.6 5-1.7 2.5.1 8.1-6.2 4.7-1.2-.1-.6 2.6-1.8 1.2 1.6 3.6-3.8 6.5.5-2.7 2.5-3.3.6h3.2l3.8-2.1 3.3 1.9 3.7-1.2.8 4 2.6-1.2.8-2.9 3.7-1-2.5-1.2-2.7-2.7 3.8-.6 3.4 3.1-.7-5.5.8 2.2 4.4-1.5 1.7-1.2 9.1-.3 2.1 3.7 2.5 2.1-.8 1.4 2.1 1.1 3.3-1 2.9-5.1 1.6-6.9 3.6.1-.3 1.5 21.3 3.8v.6l1.9 4.5-5.9 6 1.9.1 1.9-2.1.6.7 4.5-5.2-.5 2.9-10.2 8.4 1.9 4.5-1.4.6-1.4-.6.1-4.1-1.9 3.1-.6.1 4.2 10.4-.6 3.8-2.4.1-4.5 2-4-1.4 1.6 3.1 2.3-1.2 1.5 5.4-3.4 3.2 1.5.2-.8 1.7-1.9-.5-1.6-1.5-1.2 2.8-1.1-1.5 1.3-3.2-.8 1.2-2.9-1.3-5.4-9.6.3-1.3 8.1 5.2.8 3.9 4.5 1.9v-2.7l-2.6 1.4-.2-1.1-2.7-4.8-2.9-.5-5.2-6-1.6 2.3-9-8.5.1-1.4-1.8-.7-.9.9-5.4-3.7-1.4-.3-2.1 2.5.6 9.7-.6.6.3 1.7-7.1 9.3-.1.7.6 1.9-5.8 6 3-2.8 3-.8 1-1.8 4.1-2.7-.3-1.7.8-1 1.4 2.3 1.6 1.2.1 2.7-3.6-1.9-6.5 5.8-4.1 1.9 2.1 3.9-1.4 2.5 5.4-.9 1-1.2 1-.5 2.3 1.2.1-1.9 2.8-1.5 5.1 3.9-2 .9 2.7 4.8-1.5.2-3.8-3.8v-.5l-2.7-.2-1.5.7-2.4-.5-5.6 3.3-3.9.9-1.5.8-2.1 2.3-1.5 4.9-1.6 1.9-1.3 13-1.5-.9-2 24 3-2.9 1-6.3 2.5-3.2 1.2-3.8 1.6-1.4 2-4.5 3.8-3.8 1.5-5.2 2.3 1.7 4.5-5.2 4.6-2.3 4 .6 2.9 21.9-2.9 4.6.6-.2-.5 5.9 2.5.1.8-10.4h.6l.8-2.1 1.1.8-.1-5.3 4.1-10.9 1.9 2.5-.6 4.5-1.9 4.2-1.2-.3.6 4.3-4 10.3-1.5.6.9 4.7-3.7 10.2.3 4.3-2.5 6.4 12.2.1v-.6l.6-.1v.6l20 .1-.6-11.7 2.4.1.2-4.9 1.7 8.6 2.7 1.3 1.2 1.4.1 1.6-.8-.1-2.2-2.3-1.6 5.4 7.8.6.3-1.5.6.8h4.2l.1-1.2.8.2-.1 1.6 58-.6-.1.6h16.2l-.1-.6h.6l.1.6 5.7-.6 1.4-2.1 23.5-18v1.6l3.9-2.3 1.8-2.6 1 .2.2-.6 3.2-.7-2.6-1-1.2-4.5 2.6.6-.1-2.5 3.2-1.6-.5-2.3 1.2-4.1 2.7-3.2-5.2 2.5.3 3.4-3.5.1-.2-3.4-1 2.7-1.6.5-.6-3.2 2.4-1.6-3.4 1.3-1.1-2.1 15-8.5.3-1.6 3.7-2.1 2.6-3.9v-68l-2-3.9h-.6l-42-33-2.4-.8-9.5-7.3-.9-1.7-83-53-7 .5-.3-2.9.9-1.7.5-.3.1-3.8-3 2.1-1.9.6-2.5-1.2-4.7 1.7-1.2-1.9-3.4.6 2 1.7-2.1.9-3.8-.5-1.6-4 10-5.8 1.2.1-.2-.5 2.1-1.5 1.9-.1 5.2-12.3-.8-2.1.2-4.3-.5.1-.8-9.8-7.8-3.4-2.2.5v-3l-3-1.2.6 11.7.7.1-.1 1.7-.6.6-.5.1-1-9.9-.5-1.1.7-2.7h-2.5l-1.8-3-1.7-.1-11-8.3-5.6-2-2.8-2.5-1.3 4.9-2.1-7.1-2.7-2.7-5.2-.4-.8-.8.8-2.5-3.2.6-3.9-2 .2-2.9-1.5 3.6m-121-2.5l.6 4-.6-4m-46.6 2.7l-.8 4.5.8-4.5m20 1.1l.2 1.3-2.3 5.3 3.7-5.9-1.6-.7m34.8.9l-.8 3.9.8-3.9m-141 .5l1.2 3.2-1.2-3.2m5.2 0l.1 4.8 1.7 1.7-.6-5-1.2-1.5m84 .2l-1.5 2.5 1.5-2.5m147-.1l1.1 1.8 2.8-1.8h-3.9m-106 .8l.5 2.5-.5-2.5m-37.6 1.9l-5.1 1.4-4.6 3.6 9.5-3.8 2.7-2.6-2.5 1.4m40-.8l1.4 3.4-.5 5.2 1.1 5.2-.3 3.3 1 1 1.9 4.8.6 6.4 2-2.5-2-4 1.3-8.6.8 10.4 2.5 4.6-1.4-4.5.5-4.7-1.2-5.1-1.3-1.4h-3.3l.6-10.4-3.7-3.1m112 .6l1.9 4.7-1.9-4.7m-209 .6l3.9.8-3.9-.8m64.8.9l-1.8 1.2 2.3.3 1.9-2.5-2.4 1m137 0l2.7 3-.8 10.6.5-.3-.5 5.4.6 1.2-.5 4.1-.9 1.6 2.2 4.7-1.5 3.8 3.4-1.3 1.7.7.8-7.2-2.6 1.4.6-6.9-.7-2.9-.7-.8 1.6-1.1.6.1 1.9 3.2-.6-9.7-1 4.5-2 .6-.2-15.7-4.5.8m-236-.1v6.6l.6-.2.8 3.2-.8-9.4-.6-.2m224 2.1l-4.8 1.4.8 1.7 4.4-2 1.3.7-1.7-1.8m4.5 0l-2.1 2.4 3.2-1.5-1.1-.9m3.2 1.3l.1 3.9-.1-3.9m-128 .7l-1.4 1.7h3.9l-2.5-1.7m137-.2l1.9 5.2-1.9-5.2m-102 .6l2 4.5-2-4.5m-48.6 1.5l-.8 2.5 3.3-2.7-2.5.2m145 5l-1.2 18.3 1.8 3.7.7-22-.8-1.2-.1-3.6-.4 4.8m-124-3.2l3.2 1.2-3.2-1.2m18 0l.1 5.1.5-5.2-.6.1m115 .2l.5 3.7-.5-3.7m-25.3.6l-4.1 1.7 4.1-1.7m-105 .4l.1 1.9 4-.6-4.1-1.3m-113 1.3v4.7-4.7m117 0l-.1 2 4.6-1.2-.5.2-4-1m-75 2.9l.5 3.1-.5-3.1m51 2.7l-3.4-.3-.1-1.1h-7.1l1.4 1.3-1.3 3.4.1 3.9-4.7 9 .6 1.2 1.5 1.4-1.4 1.4-3 .1-6.7 7.1 1.4-6-2.5 2 1 5.1 5.7-2.1 1.4.8 2.7-.7 6.7-11.5 3-2.7 3.8-8.6 2.1.1-.5-3 .8-2.5-1.3 1.7m3.1 1.1l-2.3 8.8-5 6.2-2.6-1.4 2.9 2.9-7.3 7.1 1.2 1 4.7 1.3 4.5-.1 3-3.1-.1-2.1 6.2-9 .4.2 4.4-9.3 2.3.2-.7-3.4-1.9-1.5-3.2-.4-1.2-.6-5.1 3.2m-68-.2l-2.9 4.3-.6 2.5-1.2-.7-.2 4.5 5.2-8.9.5-.1 2.2-3.9-3 2.3m93-2.1l2.5 2.4-2.5-2.4m-53 7.1l-19.8 29.5 9.5-4.7 4.8-.6-.3-.5 2.2-3.3-1.4-.5v-1.5l1.5-2.5 9.9-8.9-.3-4.3 5.3-3.6 1-4.8-5.7 2-.7-3.1-6 6.8m-46-3.5l-1.8 6 1.6-3.8 3.5-3.3.8-1.4-4.1 2.5m88-1l-2.3 6.9-8.7 12.7.3 2.3-5.4 4.9 2.5.1-.6 1.9 1.4-1.3 3.6-1.5 1.8-5.7 1.6.1 2.1-2.1 1.8.7 4.5-10.3-2.3 3.4-2.4-1.4 1.3 2.6-1.8 4-1.4-1.9 4.5-11.8.7-.7h-.7l3.9-1.1-4.4-1.8m16.5-.4l2.6 1.9-2.6-1.9m-164 4.2l-1.8.5v1.8l4-.6-.3-.4 2 .5 1.5-.7 3.2 1.3-2.1-2.2.1-2.4-2.1 1.6v-1.6l-4.5 2.2m281-2.2l1.2 3.2-1.2-3.2m-2 1.3l1.3 4-1.3-4m-124 .6l-.5 6.7-1.6 1.7-7.9 16.5-.2 2.5-7.4 10.2-.6 3.3-6.5 8.3-1.2 4.5-.8.8-1-2.3-2.4 3.6 2-.6-3.2 7.7.7.1-.5 2-1.5 2.5 15-6.4 14.6-13.9.8-10.8.5-.1.9 3.9-.8 1.6.1 3 2.6.6 1.3-2.7h.5l4-10.7.6.1.1-10.8-.6-1.2-.5-4.5 1-4.4-1.4-1.7-.5-3.8-.5 2.5-.6.2-4.5-8.4m-3.9 1.4l-.8 1.9 2.7-1.9h-1.9m-34.9 1.4l-.8 2.3.8-2.3m165-.2l-.3 2.1h-.3l-.7-.8 1.9 8.5-1.2-4.7 1.6-.3-1-4.8m-226 .7l-1.3 4.5-2.6 4 2.3 1.8-.1-3.4 2.7-1.2 1.3-4.1-2.3-1.6m-18 3.4l.4 2.7-.4-2.7m7.8 1.9l1.1 4.5 1.2-4.7-2.3.2m23.9 2.7l-.8 3.8 3.4-6.5-2.6 2.7m103-.2l-.4 1.2 1.2 4.1 1-4.7-1.8-.6m-61 1l-.1 3.1.1-3.1m53.8 7l.1 3.5.1.4 1.6-2.8.1-7-1.9 5.9m-118-5.3l1.3 2.6-1.3-2.6m1.9.7v1.9l1.9-1.9h-1.9m217 .7l-.8 1.9 4.5-.8-3.7-1.1m-224 2.4l2.6 5.2-2.6-5.2m132 .3l-.2 3.1.9-.2-.7-2.9m-27.9 1.7l-4.4 2.4 1.4 1.4-1 1.2-3-1.2 1.9 2.1-.6 3.8-2.5 3.4-4.7-1.5.6 3.2-4.5 6.5 3.2-1.6 1.9-4-.3-.5 1.6-.5 1.8 1.4 9.7-17-1.2.6m99 2.5l-.9.3-2.6 2.1-1.9-.6.8 2.5 3.7-.6-1.9-1.2 2.5-.8.3-1.7m-195 .4l2.6 4.5-2.6-4.5m-5.2 1.2l1.4 7.8 1.2.1-2.6-7.9m64 1l-3.5 2.4 3.5-2.4m11.7-.3l-6.1 3.2 4.7.1 1.4-3.3m231 0l1.9 3.3-1.9-3.3m-168 .6l2.6 5.9-2.6-5.9m62 1.5l-1.6 1.3 5.6.2-1.6-1.9-2.4.4m43 .1l.5 4.3-.5-4.3m-154 .3l-.8 4 .8-4m51.9 2.7l.6 2.6-.7 4.5.6-.3 2 4.1.6.1 1.8-2.9-1.4-3.6-.5.3-.7-3.6h-.6l-.6-3.1-1.1 1.9m-78-1.8l-2.1 2.3 4-1.2-1.9-1.1m128 .8l-2.4.3 3.3.7 3.2-1.4-4.1.4m-25-.4l2 2.6-2-2.6m71.9 4.5l-.6 9.1 3.2 2.6-1.1-1.5-.4-1.9 1.5-1.8-.1-4-.6.2-.7-.7.1-6.7-1.3 4.5m-64-2.9l-2.8 2.3 2.3-1 .5-1.3m132 1.6l-8.4 7.3-3.6.6-3.5 1.9 11-2 3.8-2.6.7 1.5-.1 1.2 2.6-4-.8-2.3.1-3.4-1.9 1.8m-232-1.2l2.7 4 .8.6 1.2 2.6-.1-3.4-1.9-2.5-.6.1-2.1-1.4m106 .9l-6.9 2.9 8.9-1.7 3.3-2.1-5.3.9m-100-.1l.5 1.9 1.5 1.7-2-3.6m81 .2l-2.8 2.4 3.3-2.5-.5.1m-38.8 1.2l2.5.5-.6 4.6 1.9-5.2-3.8.1m43-.7l-.8 2.5 3.9-1.4-3.1-1.1m77-.1l.5 5.2-.5-5.2m-179 .6l.7 1.8 6.5.2-7.2-2m8.7.2l2.3 2.3-2.3-2.3m84 .1l-3.3 5 1.4-1.9 2.3-1-.4-2.1m-27.8 4.7l-.8 6.1 2.6-9.2-1.8 3.1m42.7-2.8l-.6 2 .6-2m-115 1.7v3.4l-.3.6.7.1 1.8 6.2 11.7-3.8 1.3-1.4 2.7-.8.5.4v-3.8h-4l-2.6-2-2.3 1.4-4.7-.2-1.1.8-.4-1.6-3.5.8m66 3l-.3 4.7.1-2.5 1.5 2.2-2 3.2-.8 6.9 2.4-.8 2-12.9-.6-4.4-2.3 3.6m121-1.7l1.2 5.2-1.2-5.2m-78 .8l-3.4 1.7 3.4-1.7m-39.5 1.7v4.5l1.4-.8-1.4-3.7m25.3 2l4.2-.3 1.5-1.1-5.7 1.4m-63 2l-.8 3.2 4.5-4.7-3.7 1.5m-5.8 2.5l-5.1 5.3-.6 3.2-4 7.3-.6 2.9-3.8 4.8-.1 1.7 3.9-1.9 1.4.1-.1.6 5.3-3.9 3-8.7.6.2 1.8-7.1 2.9.6.6-3.9-1.8 1.4.1-3.2-.8-.3.1-3.1-2.8 4m-9.8.2l-6.5 1.7 4.3 1.8 1.7-2.7-.8 2.1 4.5-4-3.2 1.1m-21.8 1.7l-.6 2.3.6-2.3m64 2l-2.1 3 2.4-.8-.3-2.2m-95 .5l4.6 12.4-4.6-12.4m90 5.9l3.9-3.3-3.9 3.3m8.4-2v3.3-3.3m-99 .8l1.9 5.6-1.5-5.8-.4.2m43 4.6l-7.5 16-.8-.7.8 1.2 2.5-1.5 4.7-1.2 7.8-16.3-1.4.7-.8-.8-2.3-1.2-3 3.5m38 4.7l-3.5 1.7 4-1.9.5-3.8-1 4m-70-2.6l-2.8 3.7 3.2-4-.4.3m10.9 2.5l-5.4 7.6 5.8-7.9-.4.3m-20 1l.8 4-.8-4m-6.5 1.4l.8 3.9-.8-3.9m78 2.1l-1.5 2.5 1.5-2.5m-7.7.6l-1.3 1.7 1.3-1.7m-6.8 3.2l-1.8.6 2.6.1 4-2.8-4.8 2.1m-62.8-1.2l1.2 4.3-1.2-4.3m71.9 0l-1.5 1.8h2.7l-1.2-1.8m-62 .8l-1.6 3 3 1.2.6-3-2-1.2m46.6-.1l-2.1 1.7h1.9l.2-1.7m-38 .4l.6 3.1 2.5-1.8-3.1-1.3m33.5 3.3l-2.8.2.3 2.3 9.7-2.5-2.6-.6-4.6.6m-34 .1l-1 4.9 1-4.9m-11.7 1.8l-1.4 2.1 3.1 3.8v7.1l1.2-3.5 1.5.9.5-4.6-2.5-4-.3 2.1-.7-1 .2-1.3-1.7-1.7m48 2.2l-2.8 1.1 2.8-1.1m-24.6 1.7h3.2-3.2m4.4 1.3h-.6l5.2.6-.1-.6h-4.5m23.4.6l.8 5 1.6-2.1-2.4-2.9m-23 2.2l-2.1 1.7 4.4-.1-2.3-1.6m26.3 8.1l2.1 2.6-1.5-2.5.8-4.7-1.4 4.6m-51.7-.7l.9 2.2 1.6-.8-2.5-1.4m58 6.6h4.1-4.1m-16.4.5l-7.2 7.1 2.4-.1 3.6-3.6 1.2-3.4m-10.9 6l-.8 2.5 2.6-1.8-1.8-.7m249 43l1.6-.7 12 2.6-5.2-2.1-.1-1-5.8-.5 2-1-4.6 2.7m-23.3-.1l7.3 5.8-1.9-2.6-.2 1.9-1.2-2.5-4-2.6m17.6.8l-.1 2.4.1-2.4m20-.1v4.3l1.1-4.4-1.1.1m-40.9 1.1l1 2 2.5-.6-1.6 3.5-2.5-.3.4 2.9 2.9-.3 2.7 2 1.2-2.6-1.2-1 3.7 1.6-4.5-4.8 1.3.3-5.9-2.7m26 2.7l-3.1 2.7 4-1.4 2.4-4.5-3.3 3.2m5.4-3l.4 5-.4-5m1.3 7.1l-3.2.7-2.9 3.6-.5.2-.2-2.1-2.4 2.1-1.3-1.9-.1 2.9 1.4 2.3 1.7 1 1.4-.1 2.5-2.3 1.7-4.1 1.5-.6 1.6-1.7 1.9 1-.6 4 5.8-8.5-4.9 3.6.7-4.7-4.1 4.6m-35.7-2.5l-1.9 1.5 4.4 4.8-2-6.4-.5.1m-8.6 3.8l3.2 1.8 1.4-3.2-4.6 1.4m27.8-1.4l1.2 3.3.1 2.7 5.4 7.1.9-3.6-.8 2.5-3.8-5.5.1-1.6-1-2.5-2.1-2.1m-34.7.8l-2.2 4.1 1.8.8.4-4.9m-11.9 1.5l1.4 11 2.3-1.7.3-2.8 1.2-1.9-2.6 1.3-1.2-.6-.8-2.1 1.4-1.4-2-1.8m13.6 3.3l-.2 1.5.8 5.1.4-9-1 2.4m-11.2-1.8l2 1.3-2-1.3m37.5.8l.1 1.7 8.3 6.6-3.6-6.5-.8 1.4-2.2-3.8-1.8.6m-5.1.6l1.4 3.2-1.4-3.2m-26.5 1.3l.5 3.4 2.7-3.2-3.2-.2m15.5.8l-.1 1.8 2.6.7v-2.4l-2.5-.1m-16.9 1.2l.1 3.9 1.8-2.5-1.9-1.4m53 .2l-2.1 3.7 2.1-3.7m3.9 3.7l-3.4.1-.8 2.5-2.5-1.9 1.4 11 1.1-.1 1-2 2.4 1.4-1.4-3.2.8-2.7 2.7-.7-.8 1.4 1.9 3.9.8-4.6-.1-.6.8-2-2-.9.6-4.3-2.5 2.7m-43-2v1.9l1.9-1.9h-1.9m-12.4 3.3l-1 .5-1.6 2.9-4.5-2.1 2.5 1.9-.4 1.4 1.8 1.3-1.9 3.2 3.8-3.8-1.2-1.4 1.5-.9.5.1.6-3.2m13.4-.4l-.4 5.6.7-5.9-.3.3m33.5-.2l.1 2.9-.1-2.9m-45 2.4l.3 5.4-1.7 2.5.1 3.6 2.5-2.1-.1-1.5 1.9-2.2.2-3.6-3.4-2.2m-52 1.9l-1.5-.3 4.7-.1-3.2.4m67-1.1l.5 3.2-.5-3.2m-31.8 2.5l2.5 3.3-2.5-3.3m-46.6 2.7v1.3l3.9-1.2h-3.9m74 1.4l-2.7 2.5-1.6 3.9 5.9-7.1-1.6.8m-5.9 0l-1.6 3.1 2.7-1.4-.5 3.2-.6-4.9m-17.7 2.4l2.7 3.3-2.7-3.3m-3.8.7l.6 3.2-.6-3.2m-40.7.8l-.6.6-1.5 6.4 1.2-.1 1.4-7.1-.5.2m3.8 0l1.8 3.8-1.3-2-.5-1.8m-20 .4l1.2 11.5 2.1 1.4-.7.1.1 6.5.8.1-.8 9.1.6 1-3.3-1.2.1 17-.2.5.3 4 1.4 2.7.9-3.4.8.6-.8 6.1.6 1.7-2 6.6 4-6.5 5.7-2.7-.6 2.6-4.6 5.8 4.5-3.3 1-2.3-3.1-6 4.2-3.8-.8-13.9.7-.5.3 7.1.7-2.7 3-.6-1.3-2.6-1.4 2.2-1.3-8.6-2.7 3.3-.6-3.2 1.4-4.9 1.7.7-.6-2.3-2.5 1.1-.1-4-.6-.2.1-8.2.7-.1.1-7.3-1.9-.5-.1 20-2-.4-.5-11.9-1.9-.1-.6-9.9-1.9-1.2m31.7.5l-.2 3.1.9-.2-.7-2.9m12.2 1.1l.1 8.5h.6l-1.4 6.5 2.6-6.5h-.6l.7-3.2-1.9-5.2m-32 .9l-2.1.5.8 4.3 1 .8 1.4-5.9-1.1.3m34.8.4l.8 3.2-.8-3.2m-6.3.8l-.8 4.4.8-4.4m-19.5 2.5l-.8 2.5.8-2.5m37.5 5.1l1.9 2-.1-1.9-1.9-3.3.1 3.2m-43-.2l-.4 1.5.4 3 2.3 1.5.4-.3.3 4.3-.6 2.3-1-.5-.6-4.5-1.7-1.3.8 7.2-.3.5.8 4.6h.6l.5 2.5 7.1-9.2v-.4l-1.8-2.3 2.5-1.7 1.2 1.9 2.1-8.5-5.1 5.5-.8-.9 2.1-5.2-4 3.3-.6-1.4.9-.7 1-1.7-3.8-.8-2.2 1.2m26.8-1.6l.5 3-.5-3m-31 3.6l.5 5.4.6-7.8-1.1 2.4m24 2l1.9 4-1.9-4m-34 .8l1.9 6.5-.7-6.5h-1.2m54 1.2l1.9 4.6-1.9-4.6m14.9 2.6l1.3 2.6-1.3-2.6m-71 3.3l1.3 4.5-.1-4.7-1.2.2m27.3.6l-.7 3.2.7-3.2m-.6 4l-.2 2.5.2-2.5m-28.5 8.9l2.6 3.2-.8-3.2.7-3.8-2.5 3.8m.7 4.7l.5 2.5-.5-2.5m16.6 1.2l-.3 3.2-.3.4 1.5 3.7-.9 3.8 2.4-1.2.8-7.3-1.7 1.4-.1-2.8 2.5-.1-3.9-1.1m30.5 2.5l2.6 1.3-2.6-1.3m-47 2.4l-.6 2.7 1.7-.7-.6-3.1-.5 1.1m6.5 17l-.8 3.2.8-3.2m95 4.5l-1 4.6-1.7-1.4.8 4.7-.8 5.1 2.5-1.6-.6-5.4 1.5-4.7 2 .5-2.5-1.9m-3.4 14.8l-.7 5.2.7-5.2m-3.3 3.2l1.2 3.2-1.2-3.2"/>
  <path d="m4710 420l3.8-.3-.6 3-7.3 7.5-.2 2.1 1.9-2.1 2.5.3-.7 2.7-3.9 3.3-4.8-1.5 1.4-5.4 2.1.1 1.3-5.1 2 1.9.6-3.7 1.9-2.8"/>
  <path d="m4770 421l1.2-.7-.1 8.6-1.1-1.5.5-5.1-.5-1.3"/>
  <path d="m4784 422l2.1 2.1-1.3 10.4-1.4-2 .6-10.5"/>
  <path d="m4829 424l2 3.5-.5 2.5-1.5-6"/>
  <path d="m4798 426l.8.7-.2 3.8-.8-2.1-.1-2.1.3-.3"/>
  <path d="m4814 426l1-.3.8.8-1.6 2.5-1-1.1.8-1.9"/>
  <path d="m4757 427l.8 2-1 1.5.2-3.5"/>
  <path d="m4814 435l1.5-3.1-.2 4.6-1.3-1.5"/>
  <path d="m4689 440l3-3.1.7.3-.8 2.8h-2.9"/>
  <path d="m4785 440l.9 1.9-1.4-1 .5-.9"/>
  <path d="m4801 444l.6-.8 1 2.9-1 1-.6-3.1"/>
  <path d="m4849 449l2.5-2.6-2 3.8-.5-1.2"/>
  <path d="m4864 451l1.2.5-.9 4.7-1.6 1 .8-3.4-.1-2.2.6-.6"/>
  <path d="m4855 454l2-2 1.4 2.6-1.9 2.7-.1 1.2-2.6 1.4-1.4-.1v-.6l2-1.7.6-3.5"/>
  <path d="m4772 455l-.7-.9 1.4.3.7 4.5-1.2 1.2-.2-5.1"/>
  <path d="m4848 456l2.6-1.2-2.6 1.2"/>
  <path d="m4864 456l.6.8-1.6 3.6-10.3 10.2-.7-2.1 12-12.5"/>
  <path d="m4879 459l2.3-.7.3.8-1.5 2-1.1-2.1"/>
  <path d="m4848 459l1.3-1 .5 6-2.6.8-1.9-.7 2.7-4.9"/>
  <path d="m4757 460l1.4.4 1.2 1.5-1.1 2.2-4.7 1.7v-.7l3.2-5.1"/>
  <path d="m4875 463l2.5-2.7 1.7 1.9-6.1 10-2.1-.8.8-3.5 1.9-1.6 1.3-3.4"/>
  <path d="m4822 462l1 1.4.6 5.2-.6.6-1-7.2"/>
  <path d="m4881 464l1.4-.6-1.5 4.4 1.6-.4-1.2 2.7-3.6 1.6-2.6 5.9-2.6 2.1-2 3.3.1 1.2-1.2 1.6-3.1.4v-.6l1.2-4 13.5-17.6"/>
  <path d="m4753 471l1.3-4 1.1 1.6-1.6 2.4h-.8"/>
  <path d="m4866 469l2.1-.9-1.4 2.3-.7-1.4"/>
  <path d="m4864 472l2.9-1.4-1.2 4.8-1.5-.9-.9 1.6.7 1.4 2.1.6.8 1.9-2.9-.9-.6.8-3.2 1.2-.1.6-.8-.5 1.1-3.1.6-.2h1.9l-1.5-2.4 2.6-3.5"/>
  <path d="m4868 475l2.2-3.2.5 2-2.7 1.2"/>
  <path d="m4877 474l2.1 1.4-2.9 4.5-2.4.1 3.2-6"/>
  <path d="m4780 479l2.1-1.1-.6 3.1-1.2.8-.3-2.8"/>
  <path d="m4719 480l1.3.1.2 1.3-1.9 3.9.4-5.3"/>
  <path d="m4859 482l1-.7.8.5.1-.6 1.5 1.5-2.4 3.6-2.4 1.6-.8-1.6.9-2.3 2.5-.2-1.2-1.8"/>
  <path d="m4870 484l1.7 1.7-1.9 2.7 1.7-.7-1.6 3.3-2.3-.6 1.3 2.5-5.4 7.8v1.4l-2.9 3.2-1.6-2.2.8-3.3 8.1-11.6.9-2.7 1.2-1.5m-8.3 16l-.6 2.3.6-2.3"/>
  <path d="m4716 487l1.6-2.6-1.6 2.6"/>
  <path d="m4863 486l5.4-.6-1.4 1.9-3 1.4-1.6-.1.6-2.6"/>
  <path d="m4860 487l.6.6-.1 1.2-.7.7-1.3-.6 1.5-1.9"/>
  <path d="m4934 493l.5-4.7.7 3.6-1.2 1.1"/>
  <path d="m4864 489l.6-.3-.6 2.3-1.4 1.2-.1-2.4 1.5-.8"/>
  <path d="m4859 495l3.4-3.2-2 3-.1 1.2-1.3-1"/>
  <path d="m4901 499l1.6 1.4-3.2 9.2-1.3 1.7-1.1.1.4-4.5 3.8-7.9"/>
  <path d="m4936 498l.6-.1.1 4.5-1.3.8.6-5.2"/>
  <path d="m4879 503l2.9-.5-.1 2.6-2.7-1.5v-.6"/>
  <path d="m4900 508l2.5-2.8-.6 3.9-1.2.9-1.2-.8.5-1.2"/>
  <path d="m4878 509l1.5 1-2.1 2.7-1.6-2.3 2.2-1.4"/>
  <path d="m4879 514l2.3-5.3 2.5 1 .5-.1-.6 2.6-3 1 .8 2.2-5 9.6-2.3.6-.4.5 2.7-8.9 2.5-3.2"/>
  <path d="m4874 512l1.6-1.6 1.6 2.3-2.7 6.4-1.7 1.9-3.4 2.1-1.2-1 5.8-10"/>
  <path d="m4895 512l2.7-.8.6 1.5-5 12.4.4 3.1-1.9.8-1.2-.3-2.7 2.3-.2 3-1.8.1.1-2.7-.7-1.2 5.1-7.9-.6-1.9v-.6l5.2-7.8"/>
  <path d="m4965 513l1-1.1.3 9.9-1.3-8.8"/>
  <path d="m4772 518l1 1.9-4.3 8-.1 1.1-2.7.7 6.1-11.7"/>
  <path d="m4724 525l2.4.2.1 3.4-.9 1-.1-1.7-1.2-1.6-.3-1.3"/>
  <path d="m4768 528l3.2-1.4-1.9 2.8-1.3-.3v-1.1"/>
  <path d="m4877 527l.2 1.7-2.3-.1 2.1-1.6"/>
  <path d="m4770 530l1.9-2.3.2 2.9-2.3 1.2.2-1.8"/>
  <path d="m4891 529l1.2.3-.6 3.8-.6.7v-4.8"/>
  <path d="m4768 529l.6-.1.7.2-2.3 3.3 1-3.4"/>
  <path d="m4873 532l1.4-2.9.3 2.3-1.7.6"/>
  <path d="m4928 534l1.8-3.4 5.1 2.8-.6 2.6-.3-.1-1.3-1.3-2.9 2.6-1.9-.5v-2.7"/>
  <path d="m4994 530l1.1 2.2-.6 5.1h-.6l.1-7.3"/>
  <path d="m4884 533l1.6-.5-1.6 4.5-.1 2-2.3-2.3.5 3.2-.5.9-1.5-2.8.8-1.7 3.2-3.5"/>
  <path d="m4765 532l.6.6-11.9 20.4-1.4-2.9 1.7-1 2.9-4.7h-3.4l-.7-.8 8.2-9.4 4-2.1"/>
  <path d="m4870 533h1.8l-.8 1.4-2 .6 1-2"/>
  <path d="m4919 532l1.3.7h2.1l-3.1 5.8-.3-6.5"/>
  <path d="m4718 534l2.2-.9-.3 5.3.6 1.8-1.9-.6-.9-4 .3-1.7"/>
  <path d="m4908 533l1.8 4-1.8 8.5.5 1.4-4.1 5.7-1.2-1.2v-.6l4.1-9.8-.5-6.1 1.2-1.9"/>
  <path d="m4916 537l1.8-3.9.8 1.6.2 4.5-.7.7-2.9-.3.8-2.6"/>
  <path d="m4868 538l.5-4.7-.5 4.7"/>
  <path d="m4934 534l1.8 1.4-.1 1-.7 1.5-1.4-2.7.4-1.2"/>
  <path d="m4685 538l4.1-1.9 10-.1 4.9 1.5-.1.5-2.3.8-13.9.4-.9.8-1.8-2"/>
  <path d="m4870 536h.4l1.5 1.9-2 .1.1-2"/>
  <path d="m4884 537l1.2-1 .8 1.5-2 1.9v-2.4"/>
  <path d="m4927 536l2.4.5-1.8 7.4-4.5 7.1-2.7-2 1.2-3.5-.3-1.2 2-.7 2.1-2.8.1-1.7 1.5-3.1"/>
  <path d="m4707 538l1.1-1.5-.6 5.2-1.4-.8.9-2.9"/>
  <path d="m4904 540l1.2-2.6 2.2 3.6-2.9 7.6-.1-2.6-1.1 5.3-.5-.3-2.1 1.5-2.5-.6.6-2.1 1.9-1.9 3.3-7.9"/>
  <path d="m4866 540l1.7-1 .2 1.2-.8 1.4-1.1-1.6"/>
  <path d="m4883 543l.7-3.8v4l-.7-.2"/>
  <path d="m4885 541l2.5-1.2.1 2.5-1.5-1-1.1-.3"/>
  <path d="m4915 542l.6-2.3 2.9.3-.2 1.2-2-.6 1.3 1.9-.7 1.3-1.7-.7-.2-1.1"/>
  <path d="m4969 543l1.7-1.9-1.7 1.9"/>
  <path d="m4917 543l.7-1.3.3 1.3-3.2 3.2.5-4 1.7.8"/>
  <path d="m4862 545l2.3-2.3.6.2-2.5 2.7-.4-.6"/>
  <path d="m4934 546l1.8-3.2.6 3.8-2 4.5-1-1.4.6-3.7"/>
  <path d="m4877 543l2.1.8-1.5 5.1-1.1 1.4-.5.3.9-5.5-.5-1.4.6-.7"/>
  <path d="m4883 544l.3-.7 1.9.9-1.3 5.4-.9-5.6"/>
  <path d="m4881 546l1-2.1v2.9l-1.4 1.4-.7-.8 1.1-1.4"/>
  <path d="m4859 547h2.3l-.1 1.7-2.6-.5-.1-.5.5-.7"/>
  <path d="m4752 547l2.2 2.1-1.8 1-.4-3.1"/>
  <path d="m4829 549l2.8.6-3.2 5.8.4-6.4"/>
  <path d="m4816 549l2.1 2.3-.5 1-2.1 2.1.5-5.4"/>
  <path d="m4833 550h.6v4.4l-1.8 3.4.1 2.9 1.2-.1-2 4.5-2.5-3.9h-.5l-5.1 5.2-8.6 16 1.7-8 2.5-1.9.1-2.6 4.3-7.5 3-2.5-.7-2.4v-.6l.8-1.2 1.4 3.4 1.4-.5 4.4-8.6"/>
  <path d="m4877 551l.8 1.6-.1 1.7-1.2.8-2.9 3.8-.5-.3-.4-1 1.6-4 1.3.8.6-2.1.8-1.3"/>
  <path d="m4881 552l.8-.8.1 1.7-1.1 2.3-.5-1.3.7-1.9"/>
  <path d="m5009 554l1.5-2.1v3.2l-1 2-.5-3.1"/>
  <path d="m4848 553l1 .2 1.4 10-1.2 1.5-1.5-2.3.2-3.5.6-1.5-.5-4.7"/>
  <path d="m4920 554l.8-1.6 1.5 1-1.5 1.4-.6-.3-.2-.5"/>
  <path d="m4897 558l1.6-4.7 1 1.4-1.5 5.8 3.6-1.9-.1 1.5-4 1-.6-3.1"/>
  <path d="m4901 555l1.7-2.3.5 1.1-1.3 3.2-.9-2"/>
  <path d="m5009 558l1-2 .8 7.2-1.8-5.2"/>
  <path d="m4726 562l.6-6.1-.3 1.9 2.4 4-2.5.8-.2-.6"/>
  <path d="m4864 557l.4.8-1.8 3.3 1.4-4.1"/>
  <path d="m4946 557l3.1.6.8 7.8-.7 1.8v4.9l-1.2.1-1.6-7 .2-1.2-.8-4.7.2-2.3"/>
  <path d="m4966 560l1.9-3.6-.6 8 1.9-2.1-.1 7.1-.6.2.5 3.2 1.4.6-1.9 4.1-1.2-3.5-.3-.4-2.3-1 1 3.5 5.1 4.7-1.6 2.3-3.2.5-.3-4-2.3-3.8 2.7-8.6-.1-5.1-.4-.8.4-1.3"/>
  <path d="m4884 559l2.7-1.3-2.3 7.6-1.5-1.8-.8-2.5 1.9-2"/>
  <path d="m4877 558l.6-.1.8 2.5-.5.7-.9-1.4v-1.7"/>
  <path d="m4826 564l2.1-2.4h.5l-3.2 9.1-1.6-2 2.2-4.7"/>
  <path d="m4728 566l2.1-2.3.4 2.5-.9.5-1.6-.7"/>
  <path d="m4920 565l1.2-1.9 1.7 1-2.9.9"/>
  <path d="m4830 566l1-2.3 1.1 2.3h-2.1"/>
  <path d="m5011 564l.6 3.5-.1 1-1.4 1 .9-5.5"/>
  <path d="m4828 569l2.1-1.1-1.5 11v-.7l-1.4-4.7.8-2.7v-1.9"/>
  <path d="m4823 569l1.2 3.5-1.9 3.2-2.1 1.3 1.9-6.7.9-1.3"/>
  <path d="m4713 571l1.8.8-1.2 3.2-1.8.6 1.2-4.6"/>
  <path d="m4730 573l1.1-.8.3 1.2-.8 1.6-1.3-.8.7-1.2"/>
  <path d="m4743 578l2.3-2.9-.5 2.8-2 3.6-.5.3-.2-1.3.9-2.5"/>
  <path d="m4716 575l1.3-.3-.6 1.4.5 5.1-1.1.9-.8-4.1.7-3"/>
  <path d="m4733 580l.8-3.2.1 3.7-.9-.5"/>
  <path d="m5000 578l1.4-.5.4 1.2-1.6 2.4 2.4 1 .3.6-3.2.1-5.1 1.7-.9-1.5 3.5-1.6-5.4.6-.5 3.2 3.3-.6-3.4 4-1.3-3.2-2.7 1.4-.7-1.6 3.4-.6-2.5-4.4 1.6.7 4.9-1.4.8-1.2.7.7-.3.5 3.4-.3 1.7-.9"/>
  <path d="m4818 580l2-2.4.8.8-2.7 5.2-.5-2.8.4-.8"/>
  <path d="m4741 580l1.3.7.2 1.3-2.2 3.1h-.6l1.3-5.1"/>
  <path d="m4750 580l1.4.8-.7 1.9-1.4-2.1.7-.6"/>
  <path d="m4811 582l1.3-1 .6 1-.2 2.4 2.5-.5 1.9.7-1.2 3.2-.1 2.1-2.7 2.3-3.8 6.1-2 1.1 1-7.8h1.7l2.3-1.4 2.6-4.2-1.9 1-.6.1-3.5 2.5 2.3-6.8-.3-1"/>
  <path d="m4971 582l13.9-.5 3.3 1-2.9.3-.1 2.3-13.9.3-.3-3.4"/>
  <path d="m4942 586l2.1-.8 1.2 2.3-3.3-1.5"/>
  <path d="m5019 584h.6l-.1 1.2-4.3 2 .3-2.6 1.7.3 1.8-.9"/>
  <path d="m4737 587l1.3-2.1 1.8.1-.4 1-2.7 1"/>
  <path d="m4985 585l1-.2.9 2.8-12.3 5.8-20.6 2.2 1.8-2.9-6.6.8 4.1 2.3-3.2.9-.6-.1.1-.5-.8-1.6-6.7-1.8 3.5-1.9.6.6-.9 1.8 4.8-2 1.8-4.6.7 2 1.8-1.2.7 4.7 16.5-3 1.9-1.6.8 3.2 1.2-1.5 2-1.2 4.7 1-.6-1.4h1.9l1.5-2.6"/>
  <path d="m4938 586h2.6l2.7 2.9-1.3 2.1-6.5-2.5 3.2-.2.1-.6-.8-1.7"/>
  <path d="m4944 588l1.8-.5.2 1-5.4 2.7-.6-1.4h.6l1.2.6 1.3-2.1.9-.3"/>
  <path d="m4722 589l2.5 6.9-.6 1.7h-.6l-1.3-8.6"/>
  <path d="m4720 589l.6.9-.8 2.3-1.2-2.5 1.4-.7"/>
  <path d="m4937 592l3.7-.1-1.6 2.1 3-.7 2.1.8v1l-17.2 6.2-2.7-1.9-.6 2.6.5 1.7-1.2.3-2.7-1.4 1.1-2.8 9.9-3.6-6 1-1.8-1.6 9.3-1.6 4.2-2"/>
  <path d="m5003 591l5.8-.3-.1.5-5.6 2.1v-2.3"/>
  <path d="m4748 595l.4-2.3.7 3-1.4 1-1.4-.6 1.7-1.1"/>
  <path d="m4720 593l2 2.9-.2.6-1.3-1.4-1.2.6v-.6l.7-2.1"/>
  <path d="m4689 597l.8-2.7.5 6.4-.6 2.6-1.8.1v-3.7l1.1-2.7"/>
  <path d="m4686 595l.6 4.7-.6-4.7"/>
  <path d="m4919 596l3-1.7-.2 1.4 1.2 1.9-11.8 2.6-.1-.6 3.6-3.3.4.3 3.9-.6"/>
  <path d="m4946 595l3.4.7-.1.5-4 1.5.7-2.7"/>
  <path d="m4905 598l4.9.6.3 1-3.6.6-.8-.8-.8-1.4"/>
  <path d="m4937 598l3.2-.8 2.3.7-1.2 1.7-4.3-1.6"/>
  <path d="m4899 599l1.9-1.3h.5l.3 2.1-4.7 2.5 2-3.3"/>
  <path d="m4986 598l1.8 1-4 1.4 2.2-2.4"/>
  <path d="m5034 598l3.2 1.4.2 1.7-3.4-3.1"/>
  <path d="m4934 599l2-.1.8 1.5-1.4.6-1.4-2"/>
  <path d="m4928 601l6.1-1.3-.9 2.6-7.6 1.6-1.2-.4-.5-1.7 4.1-.8"/>
  <path d="m5028 599l3.3 2.5-2.9-.1-.4-2.4"/>
  <path d="m4689 603l.6-2.6.6 7.3.6 1.2-.3 2.7-.3-2.1-1.8 2.9-.6-5.1 1.2-4.3"/>
  <path d="m4908 602l2.1-1.2-1.4 1.9 7.9-1.4 2 1.2-11 2.3-2.1-1 2.6-1.8"/>
  <path d="m5039 602l.7-.4 3.2 3.3-3.9-2.9"/>
  <path d="m4899 602l3.2.3-.1 2.9 2.7-.5.2.6-1.8.7-1.7-.1-1 .5-1.6 1.5.6-1.2-4-.5 3-1.7.5-2.5"/>
  <path d="m4920 602l2.7 1.4-.3.5-1.2.6h-.6l-.6-2.5"/>
  <path d="m4918 604l1.6-1 1.8 1.7h.6l.9 1.4-4-1.3-.9-.8"/>
  <path d="m4884 604l3.2 1.4 1.4 2.4-3.5 2.5 2.9 1-.3 1.1-1.1 1.5-2.1.5-3.1-2.7.7-1.7-4.1 3-9.7 1.4 5.2-5.7 1.3.5 2.5-.5 1 .7 7.5-2.5-2.8-.3.9-2.7m-9.4 6.1l-2.8 2.4 3.4-1.2-.6-1.2"/>
  <path d="m4912 604l.5-.1 5.3 1.7 1.4 1.4-3.8 1.1-2.5-1.7-.8 1.6v-4"/>
  <path d="m4892 605l3.4-.8 1 .1.1 1.2-2.1 1.2-1.5.2-2.7-.5 1.8-1.4"/>
  <path d="m4881 607l2-.8.6 1.4-1.1.5-1.5-1.1"/>
  <path d="m4935 608l.1-2.8 1.3 2.7-2.9-.5 1.5.6"/>
  <path d="m4967 605l3.3.3-4 1.6v-.6l.7-1.3"/>
  <path d="m4906 609l3.8-1.9 2.3 1.7-5.1 2.5-3.2-2 2.2-.3"/>
  <path d="m4890 609l2.3-1.6 4 1.2-6.7 2 .4-1.6"/>
  <path d="m4958 609l3.5-.1-6 1.6 2.5-1.5"/>
  <path d="m5030 608l.6-.1 1.1 4.8-.5 1.1v4l.3 1-.5 6h-.6l-.4-16.8"/>
  <path d="m4893 614l9.3-5.4 2.1 2.9-7.1 3.2-1.1 1.2-6.2 1.2-1.7-3.2 1.6-1.5 3.1 1.6m5-3.7l-.8 1.9 2.6-2-1.8.1"/>
  <path d="m4689 612l1.8-2.9.7 3.3-.5.6-1.4 6.2-1-3.5.4-3.7"/>
  <path d="m4932 610l2.3.1-3 3.8.5-3.4 1.2 2.1-1-2.6"/>
  <path d="m4813 611l2.8-.6 2.1 1.9-5.1 2.8.2-4.1"/>
  <path d="m5055 611l3.8 2.1.1 1.8-3.9-3.9"/>
  <path d="m4806 611l4.6.4-.8 2.6-4.9 2.3v-.7l.5-.8-.5-1.8 1.1-2"/>
  <path d="m4879 613l3.5-1.3 1.5 1.4-.8.6-5.2.1.1 1.1-2.1-2.1 3 .2"/>
  <path d="m4942 613l9.7-1.6-.2.5-4 2-5.8-.4.3-.5"/>
  <path d="m4864 614l4.6-1.7-1.2 1.3-3.4.4"/>
  <path d="m4857 614l6.1.7-.1.6-2.8 1.8 2.9 1 8.7-3.8 3.4 1.4-12.5 4.6-2.5 2.1-.5-.2-4.1.2-.1-2.1 1.6-1.2-4.7.8.7 1-1.6 2.2.1.5-2.4.1-3.9 2.4.1-1 .5-1-18 8.4-1.2-2.3.6-.3 3.9-3.4 14.8-4.9 1.5 1.3 5.2-4.6-.9-2.1 5.5-2.5m-.6 2.9l-2.9 1.7 2.5-.1.4-1.6"/>
  <path d="m4867 614l.5 1.2-5.8 2.5-1.5-.5 6.8-3.2"/>
  <path d="m4840 619l-.5-3.9.5 3.9"/>
  <path d="m4808 616l1.4 2.5-.1 3.8-1.3-6.3"/>
  <path d="m4894 617l1.2-.6-.5 5.2-.7-4.6"/>
  <path d="m4997 618l3.2.6-.1 7.1h-.7l-1.8-6.1-.7 4.7v-6.3"/>
  <path d="m5065 619l2.5 1.2v1l-2.4-1.3-.1-.9"/>
  <path d="m4691 623l1.1-4 .1 8.6-2.5-1.4 1.3-3.2"/>
  <path d="m4842 619l1.2-.3 4.1.6-4.8 2.3-.5-2.6"/>
  <path d="m4873 619l2.7.8 9-1.1 5.9 7.1.5.1.2 4.3-1.2 1.6-2.7-2.1.6-1.4-4.6-7.7-6.5 2.6.2-1.1-4.2.4-1.7 1.6-3.1.4-2.8 1.4.7-1.9-2.2-.1 3.5-2.5 3.8-1.1 1.1 1 .8-2.3"/>
  <path d="m4895 621l.8-3 .6 3.5-.4 2.7-1.4 2.7.1-1.8-1.3-1.6 1.7-2.4"/>
  <path d="m4977 620l.6.1-1.4 10.5.8-10.6"/>
  <path d="m4853 621l.8 2.2-.3.6-2.1-.6 1.6-2.2"/>
  <path d="m4965 623l2.1-2-1.4 3.2-1.2-1.2h.5"/>
  <path d="m4832 623l1.6 1.6-3-.6 1.4-1"/>
  <path d="m4860 623l1.2.8 1.2.3-1.3 3-4.5 1-2.6 1.7-7.5.1-1.7 1.9-3.2-.5-2.7 2.1-3.6.8-5.3 3.2-.3-2.5.8-1.2 5.8-2.5 1.8 1-.3-1.9 4.7-1.4 2.1.6v-1.9l2.5 1.4-.6-2 3.3 1.4 1.3-1.7.7.3 1.4-1.1 3.1.1 3.5-2.9"/>
  <path d="m4914 624l5.4-1.4-.1.5-4.4 1.4-.9-.5"/>
  <path d="m4825 626l4-.4 1.8.5-4 1.9-1-.6-.8-1.4"/>
  <path d="m4693 625l.7 3.6-1.6 4.9-.5.3-.5-4 1.7-2.6.2-2.2"/>
  <path d="m4820 626l4.3-.1-1 2.1-3.9-1.8.6-.2"/>
  <path d="m5074 626l.9-.5 1.9.8.2 2-3-2.3"/>
  <path d="m4816 627l1.4-.3v3l-2.8 1-2.5 2.1 1.9.1-2.5 1.9-5.2-.8 4.5-1.7-7.1.8.5-1.6 11.8-4.5"/>
  <path d="m4818 626l.6-.4 1.6 1.6-.1 1.4h-.4l-1.7-2.6"/>
  <path d="m4899 628l3.3 1-3.4 3.7v.5-5.2"/>
  <path d="m4963 628l.6.1-1.3 8.9h-.6l1.3-9"/>
  <path d="m5031 628h.6l.7 5.8-.6 1.2-.7-7"/>
  <path d="m5086 628l3.2.6-.1 5.1-1.2-1.4h-.6l-.1-3.1-.6-.2-.8 6.3 1.5.6-3.2 2.1.2-1.7.9-.9.8-7.6"/>
  <path d="m4821 630l4.1-.8-1.3 1.4-2.8-.6"/>
  <path d="m4890 632l.8-1.3.5.2.7 3.2-1.8.6-.2-2.7"/>
  <path d="m4823 632l.8-.2 2.7 1.2-2.7.7-.5-.1-.3-1.6"/>
  <path d="m4692 634l1.4-.6h.4l1.1 3.9-.8 1.4 1.3 4.5.1-1.9.6.2.8 6.6-.4 1.5.9 3-1.4 5.6 2.1-1.4-.6 4 1.7-1.3.6 1.8-.1 1.9-.7 1.2-2.7 1-.8-.8-1.4-19-1.3-.6.7-5.1-1.2.7-.3-3.4.9-2.3-1.4-.7.5-.3"/>
  <path d="m4819 635l-.6-1.9 1.4 2.1v.6l-.8-.8"/>
  <path d="m4826 634l3.8.8.3 2.5-1.8 1-4.9-1.6.8-1 2.6 1.4-.6-3.2"/>
  <path d="m4913 635l2.5 2-.1.7-2-.5-.4-2.2"/>
  <path d="m4997 635l.6.1.9 3-.6 6.1-.9-9.2"/>
  <path d="m4999 635l1.2.8-.1 8.4-.5-.7-.6-8.5"/>
  <path d="m4894 636l1.2-.8 9.1 7.3 2.2 4.5.3-.6 2.8.7-1.3 2.3 2.5 1.5.1.5-1 2.4 9.6 12.4 1.7.3 3.9 3v2.8l13 15.5 1.2 5.3 1.1 1.9 2.3 2-.1 1.7-.6.1-2.3-.4 1.1 1.6-2.7 3.3-2.5-.1-3.3-2.5 2.7.5 3.1-3.8-7.2-14.3-1.9-2-1.2-.6-2.7-4.1-4.1-1.6-1.1-1.3.1-2.8-2.1-3.2-1.7.5-.1-1-3.9-6-.5-.1-.8-.5-14-20.9-.2-2.5-2.3.7v-2"/>
  <path d="m4910 635l1.9.7 1.3 1.4v.6l-1.9-.7-1.3-2"/>
  <path d="m5081 636l4.4-.1-.9.9-3.1-.1-1 1.4-1.1-.6 1.7-1.5"/>
  <path d="m4820 637l3.4-.6-.6 1.5-2.8-.9"/>
  <path d="m4817 637l2.6-.3 1.4 2.1-4-1.8"/>
  <path d="m4814 639l2.3-.7 3.9 1.6-10.2 2-2.9-1.4 6.9-1.5"/>
  <path d="m5094 638l2.5 1.9-.5.5-1.4-.6-.6-1.8"/>
  <path d="m5073 639l2.7-.3-4.9 2.1 2.2-1.8"/>
  <path d="m5078 640l2.7-1.4.5 1.2-2.3.7h-.9v-.5"/>
  <path d="m4916 639l2-.1 1.6 4.5-2.5.4v-.7l-1.1-4.1"/>
  <path d="m4964 644l.6-4.7-.6 4.7"/>
  <path d="m5014 641l1.1-2.1.6 1.4h3.4l-5.1.7"/>
  <path d="m4855 642l3.7-1.4v3.4l-3.7 1.7v-3.7"/>
  <path d="m5090 641l-.8 4-1.3-.3 1.9-2.3.2-1.4"/>
  <path d="m4805 641l2.6 1.7-2.2 1.4-1.9-1.3 1.5-1.8"/>
  <path d="m4875 643l.7 1.6-3 8.8-3.2.2 5.4-10.5"/>
  <path d="m5065 645l3.4-1.2.1.6-3.8 2.4.3-1.8"/>
  <path d="m5078 644l2.3-1-.5 3.2-1.4.6-.4-2.8"/>
  <path d="m5100 643l2.1 1 2.1 2.5-4.2-3.5"/>
  <path d="m4914 643l2.5.7 3.4 3.9v.6l-5.9-5.2"/>
  <path d="m4965 646l2-3.3-1.6 4.7-.4-1.4"/>
  <path d="m4960 645l.5-.2 1.9 4.1.6.6 2.2-.7-.8 1.7-4.4.6v-6.1"/>
  <path d="m5061 645l1.2 3.3-2.1 1.2-.8-3.5 1.7-1"/>
  <path d="m4986 648l4.8-1.8-1.2 1.1-.9-.4-2.3 3.4-.4-2.3"/>
  <path d="m5082 646l1.1.1-1.4 1.2-2.1-.1 2.4-1.2"/>
  <path d="m4778 649l.7-3 2.5.3-3.2 2.7"/>
  <path d="m4864 648l1-1.6 4.4 6.5-5.4-4.9"/>
  <path d="m5089 648l-.3-1.2 2.9.2-2.7 3.3 1.5-1-1.4-1.3"/>
  <path d="m5102 647l2.5-.1-.4 3.2-3.8 1.2 2.3-2.3-2.7.5 2.1-2.5"/>
  <path d="m4910 648l2.5 2.1.1 1.2-1.9-.1-.7-3.2"/>
  <path d="m4924 648l2 3.2-1.1 4.2-1.2-6 .3-1.4"/>
  <path d="m5065 648l.8.8 3.4-.8.5 1.4-1.5 1.4-2.6-.2-.6-1.8v-.8"/>
  <path d="m5086 648l.5-.1.1 1.2-3.2 2.7 2.6-3.8"/>
  <path d="m5057 649l.5-.1 1.4.6-4.1 2.8-.4-1.9 2.6-1.4"/>
  <path d="m5074 650l3.2-1.2-.2.9-1.5 1-1.6-.3.1-.4"/>
  <path d="m5080 649l.4-.1 3.3.5-1 1.6-4.1-.3 1.4-1.7"/>
  <path d="m4839 650l2.5-.7-.2.6-3.5 1.6 1.2-1.5"/>
  <path d="m4988 650v2.9l-2.1 2.1-.6-.8 1.8-1.9.9-2.3"/>
  <path d="m5060 651l3.8-.5-1 2.7-3.2 1.3v-1.2l2.6-2.1-2.7 1.4.5-1.6"/>
  <path d="m5091 652l2.5-.6-.8 2.9-1-.2-.7-.6v-1.5"/>
  <path d="m4969 654l2.4-.4 3.8 1.2-6.2-.8"/>
  <path d="m4983 652l.6.8-2.1 1.4-1.4.3 2.9-2.5"/>
  <path d="m5051 653l2.7-.3-3.8 2.7-1 .3.7-1.9 1.4-.8"/>
  <path d="m5073 652l2.8.5-3.6 2-1.2-.5 2-2"/>
  <path d="m4831 655l4.1-1.9-.3.5-3.8 1.4"/>
  <path d="m4870 653h.6l1.3 4.3-1.4 2.8-.5-7.1"/>
  <path d="m5055 654l2.9-.3 1.3.9v.6l-2 .9-2.2-2.1"/>
  <path d="m5068 654l2.1-.5-.5 3.4-2.9 2.4-1.4-.6 1.6-1.2 1.1-3.5"/>
  <path d="m4884 658l1.2-4.6 2-.1 1.3 3.5-1.5 2.1-1.8-1.4.1 4.9-.8.1-1.6-.5 1.4-2.2-.3-1.7"/>
  <path d="m4920 654l3.3 2.5-.2 1.4-3.4-3.2.3-.7"/>
  <path d="m4927 655l.7-1.2 5.8 7.3-.1 1.4-2.4-1.8-2.7-.9-1.3-4.8"/>
  <path d="m5078 655l2.2-.7v2.3l-1.3.7-.9-2.3"/>
  <path d="m5111 656l3.3-.6-1.5 1.3-.5 2.6-1.3 1.3h-.6l-.2-3.2-4.5 1.2 5.3-2.6"/>
  <path d="m4918 657l.3-1.3 2.1 1.4-.6 1.1-1.8-1.2"/>
  <path d="m5043 658l2.5-1.7 2.2.3-3.5 4-1.4.5.2-3.1"/>
  <path d="m5052 656l.6.6-2.1 2.5-.1.6-3.3 2-1.1.2 6-5.9"/>
  <path d="m5083 656l2.5-.5.8 1.4-3.2 2.3-4.4-1 3.4-2.1h.9"/>
  <path d="m5113 656l3.2-.6 4.7 5h-1.2l-4.7-3.8-2.6 2.1.6-2.7"/>
  <path d="m4835 657l8.4-.2-1.5 2.7-5.6.3-.9-.8.2-.5-.6-1.5m2.7.3l4.2.3-4.2-.3"/>
  <path d="m4977 656l.4-.2 2.9.7-.3.8-3.7.6.7-1.9"/>
  <path d="m5038 656l.5 3.2-4.6.8.2.9-3.2 2.3-.8-2.7 7.9-4.5"/>
  <path d="m5093 656l.5 1.1-2.4 1.2-1.6-.5 3.5-1.8"/>
  <path d="m4829 657l5.6-.1-.1.6-2.6.3.8 1.7-2.9.6-1.3 2.7-1.7-2.1.6 3.6-2.3-3.2 3.9-4.1"/>
  <path d="m4846 658l1.4-1.2 2.6 4.5-1.4 6.5-1.8-.1-.9-.5-1.9-.4-.6-1.1 2.6-7.7"/>
  <path d="m4849 657l4.6 5.8-2 4.6-.6-9.7-2-.7"/>
  <path d="m4873 658l2.1 1.4-.5 5.2-.7-2.3.4-2.9-1.3-1.4"/>
  <path d="m5057 659l3.2-1.8.1.5-1.2 1-2.1.3"/>
  <path d="m5071 658l2.6-.3-1.3 1.4-1.3-1.1"/>
  <path d="m4833 659l2.7-.7.9.8h-3.6"/>
  <path d="m5084 662l3.4-2.9 2.2.3-5.6 2.6"/>
  <path d="m4732 661l2-1.3 1.2 1.9-3-.1-.2-.5"/>
  <path d="m4811 661l2.9-1-.8 1.8-2.1-.8"/>
  <path d="m4921 659h1.4l6.5 6.5-7.3-4.7-.6-1.8"/>
  <path d="m5047 661l3.3-2 .1.8-3.3 1.9-.1-.7"/>
  <path d="m4829 663l1.3-2.7 3.1 1.7-3.4 1.9 2.1 1-6.8 7.6-3 1 1.9.2-4.1 3.6 1.9 3.7.2-2.4 1.9-2.7-.1 4.8.1.5-.8 14.8 3 5.3-.4 5.7-2.1-2.7 2 5.4-1.9 1-1.4-5.8.8-1.5-3-.1-2.9 2.2-1.1 2.6-.2-1.2.6-2.5 2-2.1.1-2.1.6 2 1.9-1.1.1-3.5 1.1-1.7-2.6-.6-1.6-3 1.6 2.2 2.6-2.1.5-6.4h-5.1l-1.2-4.4-2.7-.3 3.2-6.4 2.4-.6 1-2.7 7.3-6.9.8-2"/>
  <path d="m4871 660l2.2 3.8-2-1.9.5 8-1.1-.4.4-9.5"/>
  <path d="m5043 661l1.4-.5v1.4l-.6 1.3-2.2-.8 1.4-1.4"/>
  <path d="m5098 663l4.7-2.5-3.6 4.1-1.8-.3-2.6.8-.5-.8 3.8-1.3"/>
  <path d="m5109 661l1.4-1.4h.6l-1.4 2.6-4.5 1.8v-.5l2.5-.8 1.4-1.7"/>
  <path d="m4834 663l4.5-2.8 5.3 4.9-.2.4-1.8 1.9-1.1-.1-.1-.5.6-2.7-2 1.2-5.2-2.4"/>
  <path d="m4700 663l4-.6.8 2.2-2.5.6-.8 3 1.4-1.2h4.7l-7 3.4.5 2.4 3.8 1.4 3.7-.1.8-2.5 5.1-1.6.5.3 4.9-1.9 1.4-1.5 3 2-.5-2 5.1.7v1.2l-2.9.2-2.7 2.5-.8-.6-4.3.6-2.1 1.3-5.8.1.5 1.6-6.7 5.4-.9-.6-5.7 1.3-2.3-2.8 1.9.2 3.2-2.8-.3-1.8-.7-.8.7-3.6-1.9 1.6-5.2 2.3-1.4-.8-.4-2.5 5.7-2.5 3.2-4.1"/>
  <path d="m4921 664l.5-1.9 1.5 2.1-.8 1.4-1.2-1.6"/>
  <path d="m5028 662l3 .1.4 1.4-3.7 1.4.3-2.9"/>
  <path d="m4802 663h4.8l-5.6 1.9.8-1.9"/>
  <path d="m4934 663l2.2.6 2.6 3.2-1 .6-1.6-.8-2.2-3.6"/>
  <path d="m5024 663l.6.6-.3 1.3-3.2 2.1-.6-2.5 3.5-1.5"/>
  <path d="m5044 663l.8.5-6.2 2.7 5.4-3.2"/>
  <path d="m5048 666l2.9-2.3 1.8.3-4.7 2"/>
  <path d="m5070 665l1.8-2.5 1.6 1.2-3.4 1.3"/>
  <path d="m5077 663l4.8-.2-4.7 2.8-1.6-1.3 1.5-1.3"/>
  <path d="m4884 663l-.2 6.2 2.8 7-.1.7-1.8-.1-1.8-6.8-.6 3-1.9-.9.2-4.9 3.4-4.2"/>
  <path d="m5064 664l2.1-.5-1.2 1.8-2.7 2-1.4.2-7.3 5.6.1-1.8 10.4-7.3"/>
  <path d="m5103 663l2.5.8v.5l-2.6 1.4.1-2.7"/>
  <path d="m4672 665l1.8-.3-.1 3.3-.5 1.6-1.2-4.6"/>
  <path d="m4833 667l1.6-2.1 4.8 1 2-1.2-.6 2.7-6.5.8-1.3-1.2"/>
  <path d="m5035 664l1.1 1.4-2.8 1.8 1.7-3.2"/>
  <path d="m4933 665l3.4 2.1-.1 1.2-3.3-3.3"/>
  <path d="m5030 665l.5 3.6-1.4-1.6.9-2"/>
  <path d="m4795 669l5.1-2.5-.3.6-17.3 12.6-.3-1.4 3.8-4 9-5.3"/>
  <path d="m4925 667l.6-1.4 1.9 3.8-.6.9-1.2-.9-.7-2.4"/>
  <path d="m5016 667l2.7-1 .5 1.4-3.2-.4"/>
  <path d="m5045 666l.5 1.1-1.9.8-3.4.3 4.8-2.2"/>
  <path d="m5092 666l2.7 1-2.9 1.5.2-2.5"/>
  <path d="m4842 668l2-1.6 1.9 2.7-3.8.9v-2"/>
  <path d="m4938 667l1-.6.5-.1 2.9 4-4.4-3.3"/>
  <path d="m5086 669l5.6-2-5.6 6.4-1-.1-.8-.8 4.1-3.4h-2.3"/>
  <path d="m5098 668l3-1.5-4 3.2 1-1.7"/>
  <path d="m4831 667l2.7 2.6v.9l-3.4 5.5-1.2.7-1.4-5.2.1-2 1.9-.6 1.2 3.1.3-5.1"/>
  <path d="m4914 667l2.5.3.1 1-.8.5-1.2.1-.6-1.9"/>
  <path d="m5129 668l.8-.7 2.7 2.7-3.5-2"/>
  <path d="m4934 668l4.9 4.5-.5 1.9-4.4-6.4"/>
  <path d="m5013 669l2.2-.8.1 3.8.9 1.9-1.2.1-2.7-1.4.1-2.7.6-.9"/>
  <path d="m4837 669l.5.9 3.8.1-6 4.8-1.9.6 3.6-6.4"/>
  <path d="m4927 670l2.1.1 1.5 4.7-1.6-1.4-2-3.4"/>
  <path d="m4942 670l2.2 2.5-2.2-2.5"/>
  <path d="m5065 669l1.3 1.2-5.5 2-.1-.6 4.3-2.6"/>
  <path d="m5081 670l1.6.1-.1 2.8-3.4 1.9-1.2-.3.3-.5 3.5-1.4-1.2-2.4.5-.2"/>
  <path d="m4872 671l.9-1 3.7 2.9 1.6-1.9-.7 5.1-5.5-5.1"/>
  <path d="m5010 674l2.9-3.8-2.3 2.9h2.1l-5.2 2.9 1.1-4 1.4 2"/>
  <path d="m5017 671l2.5-.8-.6 2.4-1.9 1.4-.9-1.9.9-1.1"/>
  <path d="m5023 671l.5.5-1.4 1.9-1.2-.1.5-1 1.6-1.3"/>
  <path d="m5027 672l2.6-.6.1 2.5-2.7-1.9"/>
  <path d="m4938 674l.5-1.9 3.7 2.7-.1 1.2 3.1 2-.6-.7 1.4-.8-2.2-3.8 11.7 14.6.4 5.1-1.2-.3-3.1-4.2 1.4-.4-4.1-5.2-1.5-4h-1.8l1 5.5-8.6-9.8"/>
  <path d="m5078 672l1.2 1.4-5.3 1.4-.1-.5 4.2-2.3"/>
  <path d="m4881 673l1 7.2.8.6-.2 2.5-1.2-.8-1.4 1.1-.1.5 1.1-11"/>
  <path d="m4930 673l13.5 13-6-1 1.4-2.6-3.2-1.1-1.6-3.6-2.2 2.1-.1-3.6-1.9-1.7-.2-1.4"/>
  <path d="m5004 674l3.3-1.4.1 3.2-2.7-1.3-.7-.5"/>
  <path d="m5017 674l1.9-1.4 1.4 1.3-5.3.2 2-.1"/>
  <path d="m5051 676l1.5-2.3-1.5 2.3"/>
  <path d="m5085 673l1 .1 1 .8 2.3-.4.1.6-1.2.3-3.2-.1v-1.3"/>
  <path d="m5055 674l2.3.2.5-.1-.2.5-2.5 2-.6-1.9.5-.7"/>
  <path d="m5002 676l2.1.5 1.2 1.4-2 .1-1.3-2"/>
  <path d="m5080 676l1.2-.4-2.5 4.7-1.9 1.1v-3.6l3.2-1.8"/>
  <path d="m4829 677l1.2-.7.6-.1-3.3 4.5-4.4 3.2.1-3.1 1.2-2.5 4.6-1.3"/>
  <path d="m4887 676l2.2 2.9v.6l-1.7-.8-.6-1.9.1-.8"/>
  <path d="m5000 676l1.9 2.4-6.5 2.8v-3.2l4.6-2"/>
  <path d="m5072 676l1.1.3.2.5-.1 1.4-1.2-2.2"/>
  <path d="m5083 678l4.3.5-4 1.4h-.3l-.8-.7.8-1.2"/>
  <path d="m4693 680l1.3-1.7 2.9 2-2.5 3.2-.3-2-5 1.4.7-3.2 2.9.3"/>
  <path d="m5143 678l1.9 2.5-1.9-2.5"/>
  <path d="m4779 681l2.3-.6-4.5 4.3.3-1.7 1.9-2"/>
  <path d="m4993 680l-.1 2.5-2.7-.3 2.8-2.2"/>
  <path d="m5006 683l2.5-4.3-2.5 4.3"/>
  <path d="m5073 680l1-.2.4 1.3-.7.6-2.7.3 2-2"/>
  <path d="m5083 680h.3l.1.5-1.5 2.1h-.4l-.6-.6 2.1-2"/>
  <path d="m4890 681l1.7.2.1.7 2.5 2.6-.6 3.7-3.7-7.2"/>
  <path d="m5116 682l4.9-1.2 1 2.7-1-.3-2.6-1.7-1.5 1.3-.8-.8"/>
  <path d="m4710 681h.6l-1.4 3.2 2.3.2-2.9 3.1-3.4 8.9-2.5.1-.1-1.4 2.2-7.6 5.1-6.5"/>
  <path d="m4839 683l2.8 1.9.6 2-3.4-3.2v-.7"/>
  <path d="m4952 689l-2.9-6 2.9 6"/>
  <path d="m5061 687l5.2-4-1.4 3.2-2.3-1.4-1.5 2.2"/>
  <path d="m5150 683l3.9 2.1v.5l-1.4.5-2.5-3.1"/>
  <path d="m4802 686l11.5-2.3-.1 1.2-2.5 2.8-.2-1.2-5.2 2.6-.6-.7.8-1.1-5.3.5v-.6l1.5-1.2"/>
  <path d="m4813 685l2.9-1.6-.4 3-1.8 2-1.2.5-2.6 2.3h1.8l3.4-1.2.4-.7 2.3-2 2.3.1 2.1 3.9.1 1.1-2.7.8-1.2-5.2-.1 3.2-6.9 2.8.5 2.9-1.2-1.4-.1 4.1 1.4-1.8 2.3.6.2.5-2.1 1.6-3 4-1.1-3.4-2.3 4-.1-1.2-2.6-5.3 1.5 2.9-2.1-.9-1.4-3.9-3.1 3.3-1.1-.9-1.6.9-.7-1.9 1.2-1.3 1.6 1.2-.5-2.5 1.2-2.7-3.9 1-.2-2.2 6.2-.5-.3-3 1.2-.1 3.4 3.8 6-3.7 2.3-3.1m-5.6 6.5l-2.1 1.7 3.4 1.1-1.3-2.8"/>
  <path d="m4829 683l6.8 5.6-.5 1.3-.1 2-2.2-.3 2.8.8.4-2.6 5 5-1 1.4-1.9.7-2.3-.5-1.2-2.6-.6 3.5-6.9-12.4 1.6-1.9"/>
  <path d="m4774 687l2.7-3.2-1.6 5.3-1.4 1-1.7 2.8 3.6 3.6-1.8-3.3 1.3-4 4.4 2.8.9 1.9-.8.6-3.3-2.6 2 3.4-1 3.2-8.2 1.9 3.4-5.2-1.2.1-4.2 3-3.2.1 1.1-.5-.3-2.7-2.7 2.5-1.4 3.7-6.3.3-6.5 2.9-.6 3.5.7.3-3.2 9.2-2.1-1.7 1.4-1.5-.4-2.7 1.9-2.1-2.1-2.7-.9 6.5-.6.4-3.3 4.7 3-1.4.5 2-3.1 2-4.7.7-1.1 1.4-3.3-1.1-2.1 1.3-3.2-.2 1 1.7.3 2.7 1.3-1.4 1.2 1.4-.1 2.6-7.6-6.7-3.4-.9-1.9 1.6-.1-2.2-3.8-2.8-1.2-2.1-.5-5 3.8-7.2 9.7-5.5 4.5.7 2.7-.7 11.4-8 7.9-1.6 3.4 2.3-.8 2.1 2.7-2.6 3.9-.3 1.2-1.7-4.1-.8.6.1 5.5-1.4.6.9.1 1.2 5.6-1.7 3.6.9 1.9-1.8m-6.1 2.9l2.5 1.2-2.5-1.2m-23 2.1l-2.2 3.1 3.3-3.3-1.1.2m24.5.5l1.8 1.9-1.8-1.9m-40.8 12.9l-5.2 3.2 3.4-1.7 4.4.5.1.7-4 4.5 4.3-1 .6.2 2-4.7-.4-1.6.5-2.1-5.7 2m6.5 5.2l-.7 3.2.7-3.2m-12.9.7l.5 3.9 3.6-1.7-1.6-.1-2.5-2.1m7.3 4l-1.5 1.7 1.5-1.7m4.5 1.3l-1.5 1.7 3.2-2-1.7.3m-18.4 2.3l2.3.5 1.7 1.5-2-3.9-2 1.9"/>
  <path d="m5000 684l4 1.9.1 2.7-4.1-4.6"/>
  <path d="m5076 684l.5-.4.5 4.2-2.7.1 1.7-3.9"/>
  <path d="m4880 685l.8.8.3 5.4-1.1-6.2"/>
  <path d="m4894 688l.3-2 1.6 4.3-1.9-2.3"/>
  <path d="m5006 688l3.8.5-2.6 1.9-2.1.2-.1-.5 1-2.1"/>
  <path d="m5110 687l.5 1.2-2.6 3.6 2.1-4.8"/>
  <path d="m5123 687l.5.1 2.3 1.7-.2 2-1.2-1.3.1 1.8-1.5-4.3"/>
  <path d="m4794 688l3.7.1-3.4 1.7-1.2-.9.9-.9"/>
  <path d="m4965 688l7.7-.3-9.3 1.8 1.6-1.5"/>
  <path d="m5091 688l7.3.8v1.2l-.5-.1-2.9-1.2-2.3.6-1.6-.3-.7-1h.7"/>
  <path d="m4883 688l.2 15.2-1.7-12 1.5-3.1"/>
  <path d="m4942 688l3.8 2.3 2.6 3.2.1 1.9-5.3-5.1-1.2-2.3"/>
  <path d="m5049 688l2.1-.2.6.6 1.6 3.3 2.1-1.6 1.3 1.6-.1.6-4.4-.1-6.1-3.5 2.9-.7"/>
  <path d="m4787 694l4.7-4.9 2.5 4.6 1.5-.3-2.3 1.9 3.4 9-.8.3.1 4 .5.1.8-3.5 3.2-3 2-1 1.7 6-.1 1.2-2.1 1.3-1.2-2.6-4.3 2.4 2.1 7.9-1 .8.8 2.1.3 5.8-2.3-.9-2.7 3.5.1-6.7-1.9 2.7-.5 2.1-3.4.3-.8-1.2v2.7l.8-1.5 1.3 1.4 2.7 8.7 1.8-2.5 2.4 3.6-4.3-8 .7-1.1 1-.5 3.4 6.3 1.9 1.2.8 6.6 1.6-1.8 2.1.6-.2 1.1-.5.3-4.4 4.9-2.1.6-2.4 3.7-2.2-1-4.4-.1-.7-.7 1-4.1-.3 1-2.5.3.2 3.1-1.1-3.1 1.4-4.1-.5-1.3-1.5-1.9 1.4-2.5-3.4-6.5.3-1-1.9-4.4-5.5-5.9.8-1.1-.8-5.8-3.1-5.2 2.6.2 1.2-1.6.2 1.5 1.8-5.2-2 3.2-4.3-.1 1.3-1.3-2.2-3.8 3.6.6.6-1.5 2.2-1.5 1-3.2 2.1-1.5 2.9.1.6.5-1.9 2.2 2.7 3.9.1 2-1.2-.4-1.5 4.1h3.4l.5-7.9-1.1.7 1.6-2.7 1.4 1.9-.4-3.2.3-1.2m3.6.7l-1.9 2.6.6 4.5 1.8-6.4 1.4-2.2-1.9 1.5m-12.3 5.2l.8 6 1 2.3.3-4.4-2.1-3.9m11.7 4.6l-.8 3.2h2.7l-1.9-3.2m-4.7 3.1l.5 1.9-3.2 1.5-3.8-.8v2.6l4-.8.5.7-6.4 2.5 3.9 3.4.7.3v2.7l3.6.1 1.7-3.8 1.7 1.1-1.9 2.7 2.5-.2 6-4.9-1.2-4.7-1.7 1.4-.9-2.7-1.8 1.5-5.2-.1 3.8-3.2-2.5-1.4m-.8 15.7h4-4m0 9l1.9 5.2.1-2.1 1.9-.6-3.9-2.5m9.1 9.6l2.3 2.6 1-2.6h-3.3m-4.5 5.1l.8 2.5 2.5-2.4-3.3-.1"/>
  <path d="m4850 692l.2-2 2 3.1-2.2-1.1"/>
  <path d="m5090 691l2.7-.8-.1.6-4.1 2.2 1.5-2"/>
  <path d="m5099 690h.6l.6 8.4-.6-1-.6-7.4"/>
  <path d="m4896 691l2.7.1-.1 3.8-.6-.6-2-3.3"/>
  <path d="m4881 691l.6-.1.1 12.8 2.2 1.8.9 3.6-3.2-3.3-.6-14.8"/>
  <path d="m5062 693l-.8-2.2 2 1 .3.6-1.5.6"/>
  <path d="m5057 694l3.3 1.6-2.7-.5 2.1 1.9-.2.5-3-.1-2.9-1.9 3.4-1.5"/>
  <path d="m5063 695l3.6-.8 3.8 1-2.5 1.2-2.7-.6-3.5 1.8 3.5-.5 1.7-.8-.5 2.8 5.2-2 4 2.8-8.5 4.3v-1.7l-5.8 3-2.7 2.6h-.7l-.5-2.5.9-1.2 3-2.1 2.7-.4 1.2-2.8-9.1 4.5-1.6-.8.3 1.6.5-.2.8 1.3-3.8-.1.1-6.5 2.5 1.7 4.3-3.5.2-.5 3.3-1.6.5-.1m7.2 3.8l-.8 2.3h2.7l-1.9-2.3"/>
  <path d="m5166 695l2.7.4.1.5-.3.3-2.5-1.2"/>
  <path d="m4826 696l.5-.6.6 2.1 2.9 1.7-1.9 2.7 5.8 7.1-3.4-2.1-2.3.2-1.5-1.2-.7-9.9"/>
  <path d="m5020 696l1.2-.1.3 1.7-1.1 2.2-3.2-.2 2.8-3.6"/>
  <path d="m4818 698l2.1-1.1.2 2-.6 1.2-1.6-1.3v-.8"/>
  <path d="m4854 696l3.6 3 .3 2.3-2-.6-.7-.7-1.2-4"/>
  <path d="m4897 697l1.4-.1 1.3 2.8-1.1-.2-1.4-1.2-.2-1.3"/>
  <path d="m5126 698l-.1-1.5.6.2 2.9 6.6-1.7-1.5-1.5-3.8"/>
  <path d="m4855 700l-1.9-2.7 1.5 1.4.4 1.3"/>
  <path d="m5106 704l.6-6.4-.6 7.8v-1.4"/>
  <path d="m5136 699l4.1-.8 3 2.9 1.4 3.7-1.2-1.4-7.3-4.4"/>
  <path d="m4832 700v-1.9l2.7.3 1.6 2.7-5.9 3.1-2-2.5 1.4-1.9 2.2.2"/>
  <path d="m5077 699l3.6 3.1.1.5-.6 1-2.4-2.7-.7-1.9"/>
  <path d="m4815 700l1.3.6-.2 3.6-1.1-3v-1.2"/>
  <path d="m5136 702l1.6-2.1 1 5.3-1.3 1.4-.6-1.4.3-1.2-1-2"/>
  <path d="m4839 701l1.2.3 2.7-.2-1.4 2.7-2.5-2.8"/>
  <path d="m4900 701l.5.1 2.9 3.1-.3 1.5-1.9-1.9-1.2-2.8"/>
  <path d="m5100 701l.5-.2-1.3 6.5-.6-.6v-5.1l1.4-.6"/>
  <path d="m4813 703l.9-1.1-.2 3.7-2 .9 1.3-3.5"/>
  <path d="m5040 703l6.4-1.1-.7 2.1-3.8.3 1.4.7-1.9.1-1.4-2.1"/>
  <path d="m4805 702l.6 1.3-.8 4-.4-1.1.6-4.2"/>
  <path d="m5078 706l.3-3.3 1.9 1.9-.2 4h-.6l-1.4-2.6"/>
  <path d="m4760 705l4-.6.6 1.8-1-.1-.8-1h-2.8"/>
  <path d="m4846 705l4.1-2.1 3 5.4 1.6.4 1.2 2.6-.3 4.1 2.2 3.8-1.2.8-.2-2.1-7.1.1 3.8-.9.1-6.4-1.9 2.1-1.4-2.8-2.5.2-.6-3.3-2.5 1.5-.3 1.9-.6-1.9-1.9 1.9-1-.4.4-2.9-1.2-1.9 3.6 1.4 1.3-3 1.4 1.5"/>
  <path d="m4962 704l1.2.6 1.1 3.4-2.3 1.7-.8-2.5.8-3.2"/>
  <path d="m5142 704l1.6-.6 2.4 2.2 1.5 2.5-5.5-4.1"/>
  <path d="m5146 704l4.7 2.5-2.7.7-2-3.2"/>
  <path d="m4903 704l2.2 1.4-.2 1.2.3 2-2.7-3.2.4-1.4"/>
  <path d="m4859 705l2.6 3.8-1.9 1.3-.8-3v-2.1"/>
  <path d="m5047 705l7.9 5.1-2.5.3-1.4-.7-4.1 2.3-1.8.1 1.9-7.1m2.1 1.4l-.7 1.7.7-1.7"/>
  <path d="m5070 705l1.8 3-1.8-3"/>
  <path d="m5037 707l3.4.9-2.2 1 4.4 3.6-.1 1.4-4.4-.1-1.4-1.2.3-5.6"/>
  <path d="m5137 705l1.8 5.1-1.2.1-.6-5.2"/>
  <path d="m4813 707l2.5.1.4 6.9 1.1 1.6-.9.6-1.9-2.6-.5-3.3-.3 2.1-3.6-2.2v4.9l-2.3 3.1.1-1.6-1 2.7-3.1 2.2-.3 7.8-4.4-4.9-.1-3.6 2.6-.8-1.3-1.3v-2.7l1.8 1.5.6 1.9 1.5 1.2 1-4.5-.3-1.6 1.5.1 1.2-2.4 6-5.2"/>
  <path d="m4862 709l1.6-1.5 1.1 4.6-2.7-3.1"/>
  <path d="m4829 709l1.4-2.1 2.9 2.9 3.5-2.9.9 1.9-.7 1.9.6 5.4-1.7-1.4-.1-3.2-1.4-.6-1.5 2.5-2.3 1.4-1.4-1.4-.2-4.4"/>
  <path d="m4929 707l1.8 2.5-1.1.1-.9-2.1.2-.5"/>
  <path d="m5148 707l3.2.9-3.2-.5v-.4"/>
  <path d="m4765 711l-.6-2.9 1.6 2.1-.3 1.2-.7-.4"/>
  <path d="m4818 710l1.9-1.9 1.4.1-1.3 1.9-2-.1"/>
  <path d="m5057 709l1.3-.8h.7l-.6 3.1-3.3 2.3-.7-1.4 2.6-3.2"/>
  <path d="m5152 709l5.9-.6-.1 1.3-5.8.1v-.8"/>
  <path d="m5080 709l2.6.1-.1 5.1-2.5.1v-5.3"/>
  <path d="m5102 711l.5-2 1.4 7.5-.5 4.3-.6-8.6-.8-1.2"/>
  <path d="m5106 715v-6.1l1.7 1.9-.5 1.8.8 9.2-1 4.3-1-11"/>
  <path d="m5133 709l1.2 4.5-1.1.1-.1-4.5"/>
  <path d="m4838 713l.5-3.4 2.1.7.4 2.6h-3"/>
  <path d="m4822 713l1-1.4.7 2.7-1.7-1.3"/>
  <path d="m4826 711l2.3 3.2-.5 1.2-2.3-1.6.5-2.8"/>
  <path d="m4930 711l3 .3 5.8 6 .7 3.1-.6 2.1-3-5.2-.1 1.5-6.6-5.9.8-1.6"/>
  <path d="m5021 711l.6-.2 2.3 1.4-.9 4-2-5.2"/>
  <path d="m5082 714l.4-3.2.1 12.7-.5-9.5"/>
  <path d="m5140 712l.3-1.2 1.5 3.6-.7.6-1.1-3"/>
  <path d="m4799 711l.6.8.6 6.5-1.1-.8-1-3 .9-3.5"/>
  <path d="m4860 711l3.9 1.6-.8 1.4-4.1-1.1-1 .3 2-2.2"/>
  <path d="m4886 712l2.4.1.5.4.4 1.9 2.1 3-1.8-.1-3.6-5.3"/>
  <path d="m5059 711l2.3.8-2.5 6.4-1.2-2.6 1.4-4.6"/>
  <path d="m4841 712l2.5.1-1.4 5.2-.9-2.1-.2-3.2"/>
  <path d="m4848 715l-.3-3.2 1.8-.1 1.2 4.1-2.7-.8"/>
  <path d="m5050 713l1.7-.2-1.7.2"/>
  <path d="m4767 714l.7-.6.4.3.7 2.9-1.8-2.6"/>
  <path d="m5048 713l1.8 1.2v.5l-5.8-.6.1-.7 1.2.3 2.7-.7"/>
  <path d="m4772 715l2.6-.7-1.3 1.9-2.8 1.2.5-2.7 1 .3"/>
  <path d="m4790 714l2.4 2.2-1.4 1-1.8-1.7.8-1.5"/>
  <path d="m4825 715l1.3-.5.9 1.4.1 3.9-2.3-4.8"/>
  <path d="m4828 715l.5-1.2 1.4 1.4v.6l-2.1.3.2-1.1"/>
  <path d="m4857 714l3.8 3.3-2-.6-2.7-1.9.9-.8"/>
  <path d="m4867 714l3.8 5.3-3.2-2.1v1.4l-.8-.6.2-4"/>
  <path d="m4811 715l1.8-.5-.6 2.3-.9-.5-.3-1.3"/>
  <path d="m4897 716l4-1.8-4 1.8"/>
  <path d="m5037 715h1.3l6 1.7-5.9.9-1.4-2.6"/>
  <path d="m4691 715l.6-.2 3.9 2.9.8.3-.6 1.5-2.8-1.9-1.9-2.6"/>
  <path d="m4785 716l4.2-.6-1.7.6h-2.5"/>
  <path d="m4829 717l1.4 1.2 1.3-.5.5.1 1.2 2.4-1.8 4.5 3.8-.6 2.9 3.4-.2 1.8-2.9-3.4-1.1 2h-.6l-.1-2.7-2.4.1-1.2 1.2-1.3-.7.5-8.8m1.4 1.9l1.4 3.9-1.4-3.9"/>
  <path d="m4809 718l1.3.5 5.1.1 1.2 3.8.1 3.2-5.1 4.7-2.7.1.1 2.3 2.5-1.4 2.4 1.5 5.6-1.8-1.4-5.6.1-1.6.6-1.6.7 1.5 1.8-2.5 2 4.8 2.5.1-1.4-1.9-.6-4.5 1.4-.8 1.2 4.2 2.9 4-.2.5.5 3.2-5.6 6-1.8-.1-2.3 2.3-1.9-1.7-4 1.1-1.7 2.4-.1.5-4.9 2.1-2 2.3 1.9.5-4.5 2.5-3.4.4-.5-.8 1-1.2 4.7-2.4.5-2.7 2.7.6-3.6-2.6.1-.5 1.4-2.6-3.2.2-1 2.4-.2-2.1.6-1.9-.7-1.2.6-1.9 2.6.7.5 2.6 1.2-2.9.1 2.3 2.3-2.6-1.2-3.4 2-1 .5-3-3.2-1.2-1.4-2.7 3.1-.4v-.6l.9-2.1m4.4 4.3l.1.7 1.8.1.1-1.4-.6-.2-.1-1.9-1.3 2.7m9.1 4.4l2.6 1.3-2.6-1.3m3.4 2.8l-1.3 2.3 1.3-2.3m-4.7 2.4l.6 3.2 1.4-2-2-1.2"/>
  <path d="m4844 718l2.1-.9 1.3 2.8-.6.3-2.1-1-.7-1.2"/>
  <path d="m4873 719l-1.3-1.4 3.4 1.6-2.1-.2"/>
  <path d="m5133 718l.5.1 2.6 5.7-1.2.1-1.9-5.9"/>
  <path d="m5135 722l1.8-3.6 1.2 7.7-1.2 2.7-.6.1.2-2.5-1.4-4.4"/>
  <path d="m4847 720l2.5 1 2.5-1.1-.6 4.9 2.3.5-.8 3.8-2.5.1-1.2 2.9.5-2.9h-1.6l-.5-1.3-4.5 2.6-.7-.6 1.5-1.2-1.3-2.9 2.9 1.6.7-1.6-3.8-2.4-1.5 2-1.6-3.4.6-1.2 1.6 1.4.6-2.1 3 1.7 2.4-.8-.6 3.3 1.2 1.9 1.5-1-1.5-3.7-.6-.6-.5-.9"/>
  <path d="m4859 719l2.7 2.7 1.8-1.4 4.8 3.2-1.4 1.9 3.8-2.3.1 1.9 4.7-2.5 4.3 1.2-1.9 1.3-1.4-.1h3.9l3.9 2.9 1.2 10.8-1.9.3v-6.2l-5-3.1v4l-1.6 4.5-2.2-2.6-2.1 6-.7-2.1 1.8-3.9-1.6-2.7-1.4 3.4-2.5 2.6-1-1.6 3.3-2.2-.5-6.7-4.7-2-4.8 1.6.1 1-2.7-.3-.5 1.7-1 .6-3.3.1-.7-2 .1-.5 3.3-2.7 1.4-.5 1.7-6m1.7 3l1.4 1.6 2.5 1.1-3.9-2.7m12.3 7.5l-2.1 2.3 5.2-.6-3.1-1.7"/>
  <path d="m5109 719l1.9 16.8-1.8-4.2.5-1-.6-11.6"/>
  <path d="m4698 720l5.3 3.2-.1 1.4-4.9-2.3-.3-2.3"/>
  <path d="m4988 724l2.8-4.7.2 1.6-1.9 4.5-1.1-1.4"/>
  <path d="m4770 722l2.2-1.3h.6l2.3 1.4-5.1-.1"/>
  <path d="m4884 722l1.2 3.4-1.2 1.4v-4.8"/>
  <path d="m4776 722l1.8 1.4 1.4 3.2-2.3.1-.9-4.7"/>
  <path d="m4839 724l1.5 1 .5.7.5 3.2-2.6 2-.6-1.9.2-1.8 1-.8-.5-2.4"/>
  <path d="m5031 724l1.2 6.4-.6.1-.1-2.6-.8-1.4.3-2.5"/>
  <path d="m5055 724h.7l.1 1.7-1.4 3.6.6-5.3"/>
  <path d="m4706 726l2.6.7.8.7-.8 1.6-2.6-3"/>
  <path d="m5079 725l.6.2.6 14.2-1.2-14.3"/>
  <path d="m5103 725l.8 1 .5 10.3-.6-.1-.6-11"/>
  <path d="m5006 727l2.1-1.2-1.9 3.6-.2-2.4"/>
  <path d="m5144 726l1.3 3.2-1.8 4.3-2.6-.1-.2-2.3 2.1 1.1 1.2-6.2"/>
  <path d="m4799 727l3.8 2.8-.8 1.7-4.7-.1-.3-1.4 2-3"/>
  <path d="m4804 729l1.1-1.7.5 3-1.6-1.3"/>
  <path d="m5051 732l1.2-4.7-1.2 4.7"/>
  <path d="m5105 728l1.2 6.4-.5.3-.7-6.7"/>
  <path d="m4837 730l1.7-1.2.3.4.6 1.9.9.8-3.4-.1-.1-1.8"/>
  <path d="m4862 729l6.5.8-2.8.6 1.5 1.3-6.1 4-3-3.7.6-2.3 3.8 3.2-.6-3.9"/>
  <path d="m4996 729l2.7.5-.6 2.1-1.5-1.5-1.2 6-.3-1.9.9-5.2"/>
  <path d="m5007 729l2 6.6-4.5-.8 1.2-1.7 1.9 1.3-.6-5.4"/>
  <path d="m5025 729l.7.8-3.3 4.9-2.3-1.7 2.8-1.4.8-1.7 1.3-.9"/>
  <path d="m4726 732l.8-1 1.6 1.9-.7 1.2-1.7-2.1"/>
  <path d="m4777 731l1.1.2 1.7 4.1-.8 1.6-1.4-2.5-.6-3.4"/>
  <path d="m4830 731l2.1 1.2.7 1.4-2.2 1.2-1.7-.6-.8-1.3 1.9-1.9"/>
  <path d="m5017 731l1.1 1.5.3 1.2-2.9.3 1.5-3"/>
  <path d="m5030 733l1.4-.3-.2 7.8-1.2-7.5"/>
  <path d="m4715 733l4.7-.8.7.8-5.1 1.1-.3-1.1"/>
  <path d="m4847 732l1.1.4-2.9 2.3.3-1.9 1.5-.8"/>
  <path d="m5061 733l1.8.2-.6 1.3-1.2-1.5"/>
  <path d="m4848 736l2.6-3.1-.1 2.7 4.6 7.3 3.8-3.3 3.4 1.2.1 1.8-2.6-1.4-.7 6.4-1.8-.3-.9 4.4-1.8-1.2-1.9-.3-.8-2.6 2.5 2.3-4.4-11 2.5 1.2.8-3.2-2.7 1.1-2.6-1.9m4.6 6.4l1.8 3.2-1.8-3.2"/>
  <path d="m4986 733l3.6 4.5-3.8-.6-1.9 2.7 2.1-6.6"/>
  <path d="m4842 735l.5-.7 2.1 1.8 2.6.8 1.6 2.3 1.1 5-2.1.1 2.1 10.9 1.6 1.9-1.1 5.1 1.9 1.4v.5l-5.7 1.2-1.2.8 1.4-3.8 1.7.5-2.3-8.8-1 3-1.2.6-1.2 5.9-1 1.5.2-2.3-2.5-.2-.4-.3-1.9-8.4-2.9-3.3 2 3.9-.6.8-2-1.4v4.7l1.3 3.2v1.9l-2.7-5.2-1.8-1.3.4 3.4-2.5.5.3-1-.8-1.1.6-4.9 4.5-.2-.1-5.1h.6l2 1.3.1-5.4 1 2.2-.3 1.2 1.2 2.8.5-3.2 3.3-2-1.9-.3-.2-1.3.8-.6h.5l4.4-5.8-2.5 1.9-1.8-2.5 1.3-1.8m1.6 7.4l-.8 7.9 2.7-2.5-.3-5.8-1.6.4m-3.4 9.4l.7 4.3 1.8-1.1-.1-2.9-.8-2.5-1.6 2.2"/>
  <path d="m4865 734l1.8 3.3-2.6 4 .8-7.3"/>
  <path d="m5144 734l.6 1.2-5.4.8 4.8-2"/>
  <path d="m4731 735l3 3.6-.2 2.2-2.8-5.8"/>
  <path d="m4824 737l2.3-1.9 5.6.5-8 2.7v-1.3"/>
  <path d="m5019 736l2.9-.4-.9 2.7-4.1 1.8.7-2.6 1.4-1.5"/>
  <path d="m4857 738l3.2-2.5-.2 3.4.1-2.1-2.1 1.4-1-.2"/>
  <path d="m5015 736h1.7l-4.2 2.9 2.5-2.9"/>
  <path d="m5107 735l.8.3-1.4 5.7.6 10.4h-.6l-.7-11.5 1.4-4.1v-.8"/>
  <path d="m4730 739l-.1-2.9 1.5 2.2-.2 1.4-1.2-.7"/>
  <path d="m4744 737l3.8 5.1h-.6l-3.1-4.5v-.6"/>
  <path d="m5006 739l1.8-.8.5 1.9-3.8 2 .1-1.8 1.4-1.3"/>
  <path d="m4837 740l3.7-3.3.8 2.7-1.4.2-3.3 1.7.2-1.3"/>
  <path d="m4994 737l.7 1.3.3 4.1-1-.3-1.4-2.3 1.4-2.8"/>
  <path d="m4702 739l.6-1.4 1.9 3.5-1.4-.8-1.1-1.3"/>
  <path d="m4781 740l.5-2 1.3 1.9.1 2.1h-.6l-1.3-2"/>
  <path d="m5000 739l.5-.6 1.4 1.4v.5l-1.1 1.3.6 1.4-5.2.3 3.9-2.3v-2"/>
  <path d="m4744 739l1.3 2.9-1.5 1.9-.5-.3-.6-2.9 1.3-1.6"/>
  <path d="m4866 744l1-5.3.8 2.1 2.7 1.6 1.4 4.3-3.2.4-2-5.2.6 3.3h-1.3l-.1-1.2"/>
  <path d="m4887 739h.7l.7 6.5.6.7-1 .6.1 10.2.7.6-1.4 3.9v1.4l-.5-.8-.1-23"/>
  <path d="m5109 739l.7-.5.1 5.8-.8-1.9v-3.4"/>
  <path d="m4741 739l.8 2.7-.1 1-.7 1.4v-5.1"/>
  <path d="m5017 740l2-.6-.3 2.3-1.6 1.7.1-2.4-1.5-.8 1.3-.2"/>
  <path d="m4829 744l7.5-3-2.8 7.6h-.6l-1.9-2.7v-1.9l-1.3 2.3-.9-2.3"/>
  <path d="m4884 740l-.1 3.2.1-3.2"/>
  <path d="m4875 740l-.9 4.2-.7-.7 1.6-3.5"/>
  <path d="m4732 741l.5.3 2.1 2.7-.1.9-.6.3-1.9-4.2"/>
  <path d="m4862 742l1.3-.5.8 1-.7 2.1-1.5-1.2.6-.5-.5-.3v-.6"/>
  <path d="m4747 744l.1-2.8 2.7 7.3-.7 1.2-2.1-5.7"/>
  <path d="m5013 746l1.2-3.6.1 1.1-1.3 2.5"/>
  <path d="m5028 748l.4-6.2.3 4-.7 2.2"/>
  <path d="m4735 742l3.6 4.4-.6 2.8-3.2-4.6.2-2.6"/>
  <path d="m4784 742l1.4-.1.5 1.3-1.4 4.1-.5-.3v-5"/>
  <path d="m4812 744l1.4-1.1 2.7-.1-.8 1.3-3.2.6v-.7"/>
  <path d="m4824 746l3.2-1.6.2 5.5 2.5-2.8-.6 6.1-.6.1-2.2-4.6-3.2-.8 2.2-1.1-1.4-.7"/>
  <path d="m4984 747l.8-.8-.8.8"/>
  <path d="m5110 745l.5-.1.9 1.5-1 4.4-.4-5.8"/>
  <path d="m4882 746l.5 4.5-1.6 1.9 1.1-6.4"/>
  <path d="m4914 748l1.4-2.9.8 1.2-2.2 1.7"/>
  <path d="m5113 746l.5.2-.1 11h-.6l.1-11.2"/>
  <path d="m4862 746l2.3.5.2 1.4-1.9.7-.8.9.2-3.5"/>
  <path d="m4903 750l-.6-4.3.8.2-.2 4.1"/>
  <path d="m5081 746l.6.1.6 1.4-.2 8.6-1-10"/>
  <path d="m4883 750l1.8-2.9.3 4.7-.5.8-.3-1.9-1.3-.7"/>
  <path d="m4814 749l.4-1.5 1.4 2.9.3-1.9 5.4 3.3 1.4 1.6-1.6 1.6-3-4.1 3.1 5.4 2 .1 1.2 2.1 1-2.5h.6l-.6 1.9.6 7.3 2.5-.6-1.8 2.8-3.3-.3 3 3 2.3-1 .5-2.5 2.5 5.8-11 1.6 2.1 3.4-3.8 3.3-2.7-.7-2.7-1.8 1.4-1.4-3.5-.7-.6-.7-8.4-4.1-1.9 1.6-.6.2-.1-2.8.9-2.3-1 1.2-1-1.5-.4 2.2-4-5.7-4.5-3.3.2-2.3 5.2 4.7-1.2-2.8 2-.5 1.3-2.8 2.3 1.6.2 1.2-.6 3 2.1.3.6-.8 1.1.1.2 4.3 3.9 2.7-2.7-3.8 3.2-2.5-1.8-.8 2.2-6.9-.9-1.9 1.8-1.1 4.4-1.1.3-2.7m.8 3.8l.8 5.9 1.8 1.9-1.2 1.8.5 2.1-3-4.1 1.1 3.3.4.5-3.4.8-2.1-1.4 1.2 2.6v.6l.5-.3 4.9 3.8-.3 1.8 2.9-4.1.5.3v3.2l1.8-1.5v-3l.8-.6-4.6-1.5-.1-2.5 2-.6 2.9 3.5-.2.5h3.8l-2.7-4.4-1.9-.8-.5.1-.1-3.3-1.8 1.2-2.1-1.7-1.1-.3 1.6-1-2.4-2.8m-5.8 6.5h-.6l3.2 2.5.1-4-2.7 1.5m-9.5 4.5l-1.4 1.5 1.7 1.7-.3-3.2m10.7 7.1l4 2.5-4-2.5"/>
  <path d="m5027 748l.5.3-.6 9 .1-9.3"/>
  <path d="m4737 749l.6-.8.8 1.3 2.2-.1 1.9 5.2-1.4.1-.8-1.6-2.1-.9-1.2-3.2"/>
  <path d="m4750 749l1.9 1.1-2.6 2.7-.1-2.7.8-1.1"/>
  <path d="m4868 749l3.2 2.3-.2.6-1.9-2.1.5 1.9-1.2 1.4h-2.1l.3-2.5 1.4-1.6"/>
  <path d="m4872 751l1-2.6 1.4.1 1.5 1.4-3.9 1.1"/>
  <path d="m4708 750l.8-.9 1.4 2.7.2 3.5-2.4-5.3"/>
  <path d="m4798 750l2.5 3.2-.7.8-1.8-4"/>
  <path d="m5048 755l.6-5.3.3 2.3-.9 3"/>
  <path d="m4791 758l1.4-6.7 2.2 1-2.6 2.5-.3 4-.6-.3v-.4"/>
  <path d="m4854 751l2.7 1.6 1.6-1.4 1.6 3.4-3.2-1.4 2.5 4.6.1 1.7.9 1.4 2.7 1.3 2.3 5.1-3.3-.1-2.4-5.2-3.3-2.4-.3-3.5-1.7-2.3-1.2-.8 1.2-2.1"/>
  <path d="m4874 752l1.4 1.3-.2 2.7-.6.1-.6-4.1"/>
  <path d="m4932 752l.6-.7 4 7.3v1.7l-5.1-7.3.5-1"/>
  <path d="m5011 751l1 .6-2 4.5.3-3.6-2.2 2.6-1.4 5.6.6-6.1 3.7-3.6"/>
  <path d="m4824 753l1-.7 1.5 2.9.1 1.2h-.6l-2-3.4"/>
  <path d="m4880 757l.4-4.4.8 4.6-1.2-.2"/>
  <path d="m4862 753l2.7.3 1.2.5-1.3 2.5 3.3-.1 1.7 2.1-.3 1.9-4.9-3.2-1.6-.2-.9-3.8"/>
  <path d="m4740 756l-.1-2.9 2.7 3.6v-1.9l4.7 6.8 1.2 4.5-2.7-2.6-.6.1-2.5-4.5-1.4-.5-1.2-2.7"/>
  <path d="m4859 753l1.4.6.6 4-1.6.1.1-3.3-.5-1.4"/>
  <path d="m4805 755l2.1 3.9-.1 1-1.9-1.2-2.7-.5.1 4.3-.6.8-.3-4.1 3.4-4.2"/>
  <path d="m4870 755l.8-.5.3 3-1.1-2.5"/>
  <path d="m4713 758l.1-3 3.2 9.4-1.7-.8v-.6l-1.6-5"/>
  <path d="m4788 755l3 2.7-.2 2.8-3-4.1.2-1.4"/>
  <path d="m4897 755l1.7.4-1 2.9-.7-3.3"/>
  <path d="m5000 755l3.7 5.3-1.9-.7-3-3.3 1.2-1.3"/>
  <path d="m5109 757l1.2-1.6 1.3 1.6-.5 3.1-2.1-2.5.1-.6"/>
  <path d="m4757 758l1.9-2.1.6 3.4-4.3 1.3 1.8-2.6"/>
  <path d="m5045 763l.6-7.3.7.7-.3 5.8-1 .8"/>
  <path d="m5085 756h.6l1.3 16-.8-.6-1.1-15.5"/>
  <path d="m4752 757l2.5 2.7-2.5-.7v-2"/>
  <path d="m4862 759l1.3-.9 2.9 5.1-2.2 2.3-2-6.5"/>
  <path d="m5083 758l1 3.3-.7 6.2-.3-9.5"/>
  <path d="m5021 759l.6-.6 3.6 2.6-1 1.2-3.2-3.2"/>
  <path d="m4743 759l2.5 4.5-.7.2-1.8-4.7"/>
  <path d="m5007 759l1.5.7-1.9 4.1-1.6-1.9 1.4-.6.6-2.3"/>
  <path d="m4853 760l1.2.6 1.9 2.7 1.7.3 1.6 3.8-.6 1.7-1.6.5-2.3-1.2-1.2-1.9-1.6.8.9-7.3"/>
  <path d="m4920 760l2.2 1.9.7 4.1-1.5 3.1-1.5-1.9.6-.7.9-3.3-1.3-2.5v-.7"/>
  <path d="m4716 764l-.8-3.5 2.9 6-.6.1-1.5-2.6"/>
  <path d="m4835 761h.5l2.1 4-1.8-.1-.6-1.9-.2-2"/>
  <path d="m4880 766l1.9-5.6-.4 4.9-2.1 4.5.6-3.8"/>
  <path d="m4870 765l.4-2.9h.4l-.8 2.9"/>
  <path d="m4876 762l.5-.2-3.3 3.2-1.8.6 1.2-2.6 3.4-1"/>
  <path d="m4888 762l.2 6-.2-6"/>
  <path d="m4918 762l1.1.1-.1 6.4h-1.8l-.5-3.2 1-.6.3-2.7"/>
  <path d="m4929 768l1.9-5.5-.6 5.4.2.5-.8.5-.7-.9"/>
  <path d="m4877 763l-.1 5.4-.3.5-.4-1.9.8-4"/>
  <path d="m5028 768l1.2-5.3-.6 10.5-.6-5.2"/>
  <path d="m5044 773l1.1-9.7 1.6 8.6-.6 1.9-1.4.1-.3 9.5h-.6l.1-10.3"/>
  <path d="m4744 764l1.3-.3 2.5 5-1-.3-2.8-4.4"/>
  <path d="m4844 764l.5-.1.3 1.9-.9 1.4v-3.2"/>
  <path d="m4904 765l1.9 2.6-1.9-2.6"/>
  <path d="m4931 766l.4-.7 2.1 4.2.1 2.3-1.2.7-3.2-1.2 1.3-.8.5-4.5"/>
  <path d="m4832 768l.3-2.3 1.1 1.4 2.2 1.5 1.1 3.2 1.8 1.9.6 3.1-1.9-.6.6 3.2-2.3-1.6-2.6-4.9 1.6-3.8-2.5-1.1"/>
  <path d="m4866 767h1.9l1.2 1.9-.1-2.9 2.1.1 1.8-.6.5 3.4-3.2 3.2-2.9-1.4-.8-3.2-.5-.5"/>
  <path d="m4897 766l1.9 4.5-1.5 1.4h-.6l.2-5.9"/>
  <path d="m4749 767l1.3-.1 1.2 2-.2 4.6-2.3-6.5"/>
  <path d="m4815 767l3.4-.2.6.8-2.2 2.7-1.8-3.3"/>
  <path d="m4842 771l-.9-3.5 1.4 1.6 3.4 13.7-1.2 2.5-2 .5-.8-1.1.7-2.1.1-6.6-1.8 9.8-1.3-.7-.7 1.9-4.1 1 .8-1.5-.5-9.1.3.4 2.3 1.6.1 2.4 1.2-5-.1-1 1.3-1.9 1.5.4.3-3.3"/>
  <path d="m4719 771l.6-2.7 2.1 4-1.2-.1-1.5-1.2"/>
  <path d="m4844 770l1.7-1.2 1.9 2-.2 1.5 1.1 1.2-.8.8-3.7-4.3"/>
  <path d="m4850 768l1.2 2.2-.9.6-2.4-.6 2.1-2.2"/>
  <path d="m4874 769l.8-.6.3.5-.2 1.9-1.2 1.4-1-2.2 1.3-1"/>
  <path d="m4853 770l1 1-.2 11-.8-12"/>
  <path d="m4863 770l2.4.5.3 1.1-1.4 1.6-1.9 1.2.6-4.4"/>
  <path d="m4856 771l.7 1.3.4 16.8-1.1-18"/>
  <path d="m4936 772l4-1.1.1.6-4.1.5"/>
  <path d="m4861 774l-.1-2.3.1 2.3"/>
  <path d="m4750 772l1.4-.6 1.9 4.7-1.7-.8-1.5-3.2"/>
  <path d="m4867 772l.4 1.3v1.4l-1.9-1 1.5-1.7"/>
  <path d="m4960 772l1 1.2-.8 1.9-.8-1.7.6-1.4"/>
  <path d="m5006 774l1-2.1 2.1 7.8-1.2-.1-2-5.2v-.4"/>
  <path d="m4877 778l1.1-5.6-1.1 5.6"/>
  <path d="m5146 772l3.6.8-3.1.3-.6 1.2-3.2 2.9-3.5.5.7-1.4 6.1-4.3"/>
  <path d="m4755 777l-.7-4.1 1.2 4-.5.1"/>
  <path d="m4801 773l.6-.2 3.2 4-1.2.2-2.6-3.4v-.6"/>
  <path d="m4849 790l.5-17.5 1 9.8.6 1.2-1.3.3-.1 5.6-.8.8"/>
  <path d="m4824 775l2.8-1.4v2l-.8-.6h-2"/>
  <path d="m4868 775l3.2-1.2-.1 5.4-.6.3-.3-3.4-2.7 4 .1-4.7.4-.4"/>
  <path d="m4888 779l.3-6-.6 2 .3 4"/>
  <path d="m5024 774l.8.5.7 7.5-1.4.5-.1-8.5"/>
  <path d="m4864 775l1.4-.6-1.9 4-.2-2.1.7-1.3"/>
  <path d="m5027 774l.6.1-.3 14.2-.3-14.3"/>
  <path d="m5150 774l.6 1.9-.6 3.2h-2.9l-.7-1.4 3.6-3.7"/>
  <path d="m4811 777l.6-1.5 5.3 4.6-2 .7-3.9-3.8"/>
  <path d="m4831 775l.2 1.2-.5 1.5.1 1.8-.8-3 .2-.6.8-.9"/>
  <path d="m4937 777l3.3 2.2-3.3-2.2"/>
  <path d="m4805 777l1.3.7 2.1 2.5-1 .7-1.2-1.3-1.2-2.6"/>
  <path d="m4753 777l1.3.9.6 2.5-1.7-1.5-.2-1.9"/>
  <path d="m4808 777h.6l4 4-1 2.2h-.6l-4-2.7 1-.7v-2.8"/>
  <path d="m4866 779l2.3-.2.2 1.8-.5 2.6-.5.1-.1-1.4-1.4-2.9"/>
  <path d="m5155 782l-1.2-4.9 1.2 3.6v1.3"/>
  <path d="m4756 779l.6-.3 1.2 2.9-1.6.6-.2-3.2"/>
  <path d="m4877 779l.6.3-.6 5.1v-5.4"/>
  <path d="m4825 781l4.1 1.9 1.9 3.9-3.2-.7-2.8-5.1"/>
  <path d="m4862 781l2.3.7-.5.1-1.8-.8"/>
  <path d="m5135 780l2.3-.3-3.2 2.5-1-1 1.9-1.2"/>
  <path d="m4760 781l8-1 2.6 3-2.3-1.5-4.5-.5-1.4 2-1.3-.8-1.1-1.2"/>
  <path d="m4787 781l1.3-1.3 7.3.1-.1 1.9-.6-.8h-7.9"/>
  <path d="m4750 783l3.8-1.6-1.9 1.7 4.3.6.4 1.2-6.5-1.9"/>
  <path d="m5010 781l.3-.8 2 2.9-.6.6-1.2-1-.5-1.7"/>
  <path d="m4726 781h.6l2.2 4.3h-1.2l-1.6-4.3"/>
  <path d="m4874 781l1.2 1.3.6 4.6-1.5.6-.3-6.5"/>
  <path d="m4888 782l.5.1.5 10.8-1.2-.1.2-10.8"/>
  <path d="m4946 782h.6l-2.1 5.3-.4-2.3 1.9-3"/>
  <path d="m4766 783l1.8-.3 2.1 1-7.1.1-.4-.5 3.6-.3"/>
  <path d="m4864 783l2.5.8.5-.1-1.3 3.6-2.4.1.7-4.4"/>
  <path d="m4884 783l2.8-.2-5.9 6.8-.9-1.3 4-5.3"/>
  <path d="m5130 783l.7.8-4.2 3.3 3.5-4.1"/>
  <path d="m4781 783l1.2 1.3-1.9 1.4-.5.1v-1.9l1.2-.9"/>
  <path d="m4785 783l4.2.1 1.2 1 1.2 2.3.2 1.1-7-3.2.3-1.2"/>
  <path d="m4811 783h.6l2 1.7-1.4.9-1.2-2.6"/>
  <path d="m4814 785l.8-2.2 1.2 3h-.5l-1.5-.8"/>
  <path d="m4847 783l.5.2v4.4l-1.2 1-.7-.6 1.4-5"/>
  <path d="m4861 783l.5-.1-.8 1.7-.6 7 1.4 2.1-2.1-.6-.5-9 2.1-1.1"/>
  <path d="m4951 785l.8-1.4 6.4 8.2-.6.6-1.9-.8.1-1-4.9-5.4"/>
  <path d="m5024 783l.6.9.2 7.1-.9 1.1v-9.1"/>
  <path d="m5045 783l-1 28.7-.5-.3-.3-.4.6-1.3 1.2-26.7"/>
  <path d="m4790 784l3.5 1.2-2.3 1.6-1.2-2.3v-.5"/>
  <path d="m4918 784l4.7 4.6-.6-.1-4.1-4.5"/>
  <path d="m5013 785l.6-.1 2.3 4.7-2.9-4.6"/>
  <path d="m4760 788l.6-2.9 1.7 2.2-2 1.3-.3-.6"/>
  <path d="m4818 787l2.7 1.9-3.2-.5.5-1.4"/>
  <path d="m4828 786l1.2.4.8.8.5 3.4-.5-.3-.8-1-1.2-3.3"/>
  <path d="m4833 786l.8.5.3 1.6 5.9.6.9 3.6 2-2.7.9 1.6v.7l1.9 1.6 1.1-1 3.8 1.4 1.7-.6 3.4 4.5.1 2.1-3.4-2.1-6.8-.5-1.8-2.2-3.5.6 2.1 1.7-6.1-.9-.6-.8.6-4.4-2.6-.3-1.9-3.8 1.2-1.2"/>
  <path d="m5122 789l4.7-2.6-.2 1.3-2.3 1.4h-2.2"/>
  <path d="m4791 786l.5-.3 2.1 2.8-2.5-1.4-.1-1.1"/>
  <path d="m4795 786l5.1 4v1.3l-5.1-3.4v-1.9"/>
  <path d="m4884 789l1.6-1-1.2 2.7-.4-1.7"/>
  <path d="m4867 787l1.6 3.5 2.3 1.2-2.3 2 1.6 2.7.6-.4.8 1.9-5.1 1.9-3.4-1.9-7.1 1.6-.1-2.1 5.8-.1-2.8-1.8.8-.8 3.8 1.3.3-1.9 3.8 4-2.8-4.2 2.8-.6-3.8-.3-1.6-.6.1-1.2 4.7-4.2"/>
  <path d="m4877 787l1.4 1.4-.3 1.9 1 4.7-1.5-.1-.7-.8.8-1.8-1.4-3.1.8-2.3"/>
  <path d="m4948 787l.8-.2 6.5 7.3-.8.7-6.5-7.8"/>
  <path d="m4728 788l1.4-.2 2 6.4-3.4-5.1v-1.1"/>
  <path d="m4871 788l.7.8 3.7 1.9-1.8 1.9-.5.2-2.1-4.8"/>
  <path d="m4765 790l2.7.6-4 1.4 1.3-2"/>
  <path d="m4822 789l3.2 2.7.7 1.2-2.1-.4 3.4 3.6-1.4.6-2.4-2.5-1.5-3.8.1-1.4"/>
  <path d="m4788 791l.7-1.6 5.4.6-2.1 2.5-.6-.7-3.8 2.3.5-3.4"/>
  <path d="m5116 793l4.1-3.1-4.1 3.1"/>
  <path d="m4942 790l.8.7-1.6 3.5.8-4.2"/>
  <path d="m4881 792l.7-.6.1 7.3-2.7.1 2-4.6-.1-2.2"/>
  <path d="m4760 792l.5-.1-3.3 5.2 1.3.6-1.1-3.9 2.6-1.8"/>
  <path d="m4833 793l.7-1.4 3.3 4.9-4.7-.1.7-3.4"/>
  <path d="m4857 792l.8 2.8-2.6.7.2-1.5 1.6-2"/>
  <path d="m4764 793l1.5 1.5-.9 1.7-.6-3.2"/>
  <path d="m4927 793l2.9 2 .4 1.2-2.7-.7-.6-2.5"/>
  <path d="m5024 793l1.9 8.6-1.4-.5-.5-8.1"/>
  <path d="m4783 794l3.1 1.1-3.5 2.3-2.2-2.6 2.6-.8"/>
  <path d="m4787 794l2-1 .5-.1 1.4 2.3-.1 1.1-1.8-2-2.7 1.9.1-1.8.6-.4"/>
  <path d="m4925 794l.8 1.2-1.4 3.5-1.9.8 2.5-5.5"/>
  <path d="m5018 794l2.2.3 1.8 1.2-4.6 1.1.6-2.6"/>
  <path d="m5111 796l3.3-1.2-1.1 1.2h-2.2"/>
  <path d="m4802 796l-.5-2.3 5.1 4.9-1.2.9-3.4-3.5"/>
  <path d="m4930 795l2.7 2.8-2.4-1.6-.3-1.2"/>
  <path d="m4954 795l.8-.7 2.1.1-.1 1-1.4 1-1.4-1.4"/>
  <path d="m4904 795l4.5 5.9-4.5-4v-1.9"/>
  <path d="m4791 796l.4-.2.4.3.7 2.9-1.7-1.9.2-1.1"/>
  <path d="m4873 797l1.7-2.1 2 1.9h1.9v.6l-5.8-.1.2-.3"/>
  <path d="m4764 798l.3-2.5 3.4 8.6-3.7-6.1"/>
  <path d="m4778 796l.9.5-7.6 5.2-3.8-1.9v-2.7l1.5 3.3 2.9-.7 6.1-3.7"/>
  <path d="m4781 796l1 1.1-3.7 2.4-1-.9 3.7-2.6"/>
  <path d="m4794 798l2.2-.9-2.4 2 .2-1.1"/>
  <path d="m4798 797l1.7-.1-.9 1.9-.5.2-.8-1.1.5-.9"/>
  <path d="m4921 799l1.8-2.6-1.4 2.5-.4.1"/>
  <path d="m5106 798l4-1.6-.6 1.4-2.7 1.4-.7-1.2"/>
  <path d="m4939 797l.5-.2.5.8-1.9 4-.3-1.6 1.2-3"/>
  <path d="m4807 798l.8-.9 3.2 5.4v1.9l-1.7-1.5-2.3-4.9"/>
  <path d="m4930 798l.9-1 1.9 3.5-2.8-2.5"/>
  <path d="m4922 799l.5-.1.2 1-3.4 4.2 2.7-5.1"/>
  <path d="m4936 799l1.3-.1-.1 4.9-.6-.1-1.2-.5-.2-.7.8-3.5"/>
  <path d="m4730 800l1.6 3.5v.6l-.9-.1-.7-4"/>
  <path d="m4735 801l1.1-.3 3.6 7.5-1.5-.4-1.9.3-1.3-7.1"/>
  <path d="m4796 800l-1.6 4.9.1-2.9 1.5-2"/>
  <path d="m4872 801l1.6 2.3-.8.5-2.8-1.4 2-1.4"/>
  <path d="m4918 801l1.5-.6-2.9 5.4.8 1.4-2.5-.3-.2-1.2 3.3-4.7"/>
  <path d="m4925 805l1.3-3.6.2 3.2-1.2 2.8-.3-2.4"/>
  <path d="m5042 801v8.1-8.1"/>
  <path d="m4767 803l.6-.8 2.7 4.3-.1 3-3-5.3-.2-1.2"/>
  <path d="m4811 803l.2 6-.9-.6.7-5.4"/>
  <path d="m5092 808l8.6-4.7-7.1 6.6-1.7-1 .2-.9"/>
  <path d="m4771 807l-.2-4 4.7 8.7.1 1.4-4-3.4-.6-2.7"/>
  <path d="m4917 805l3.4-2.1-2.7 3.5-.7-1.4"/>
  <path d="m4964 803l3.4 2.1-.6 1.9-.6.6-2.5-3.8.3-.8"/>
  <path d="m4936 807l.6-3 1.2.1 2 1.4-3.4 1.1-.4.4"/>
  <path d="m4808 810l1.3-4.1.7 2.5-2 1.6"/>
  <path d="m4792 806l.4 1.4-2.1 2.8.7-2.7 1-1.5"/>
  <path d="m4798 809l-.3-2.7 2.9 5.2-.6.1-2-2.6"/>
  <path d="m4890 807l.9.6-5.4 4.8-.2-.8 4.7-4.6"/>
  <path d="m4770 810l.1-3 .6.3.5 2.7 1.7 1.7-.5 1h-.6l-1.8-2.7"/>
  <path d="m4801 807l3.4 5.1h-.6l-2.8-5.1"/>
  <path d="m4959 809l1.9-1.7-1.2 6.2-.4-.1-.3-4.4"/>
  <path d="m4968 808l1-.8 3.7 3.4 1.4.6.7 1.3-.5.1-2.7-1.4-3.6-3.2"/>
  <path d="m4739 808l.5.1 1.8 3.4-.5.8-2.1-.9.3-3.4"/>
  <path d="m4827 809l2.7 1.5.5 1-2.1 1.1-1-.7v-2.9"/>
  <path d="m5034 811l2.6 1.6h-1.9l-.7-1.6"/>
  <path d="m4821 811h2l-1 1.5-3.6-.6 2.6-.9"/>
 </g>
</svg>
