<?xml version="1.0" encoding="utf-8"?>
<!-- Generator: Adobe Illustrator 17.0.0, SVG Export Plug-In . SVG Version: 6.00 Build 0)  -->
<!DOCTYPE svg PUBLIC "-//W3C//DTD SVG 1.1//EN" "http://www.w3.org/Graphics/SVG/1.1/DTD/svg11.dtd">
<svg version="1.1" id="Layer_1" xmlns="http://www.w3.org/2000/svg" xmlns:xlink="http://www.w3.org/1999/xlink" x="0px" y="0px"
	 width="646.5px" height="388.7px" viewBox="0 0 646.5 388.7" enable-background="new 0 0 646.5 388.7" xml:space="preserve">
<g id="_x23_33073bff_18_">
	<path fill="#33073B" d="M314.6,99.2c10.7-1.8,48.7,31,53.8,40.4c6.3,11.7,12.4,54.8,10.1,31.2c12.1,3.5,13.2,22.8,12.8,32.4
		c-2.2-1.9-6.9-18.8-9-18.1c0.1,5.9,8.1,38,6.1,38.4c-6.2-3.5-5.6-13.7-6.1-16.5c-12.9-1.9-7.5,6.5-10.2,12
		c3.6-0.1,5.2-52.2-8.5-61.3c-1.3-3-0.1,9.9-0.2,9.2c-15.1-6.9,9.2-26.4-14.2-29.7c5.1,2.5,5.5,4.4,1.3,5.8
		c-6.4-7.4-18-12.5-20.4-20.7c-8.1-28.1-30.2-6.3-20.9,3.8c-1.1-1-24.7,32.5-32.1,20.2c-14.4-2.7,24.2,44.4,5.3,43.8
		c-2.3-38.1-27.6,3.8-17.9,21.8c4.9,1.2,6.5-0.7,5-5.9c5.8-0.1,5.1,1.8,7.4,1.7c1.7,2.4-3.3,6.3,0.2,8.5c2.3-2.2,5.6-7.8,11.3-5.1
		c-2.1,3-0.5,6.2-0.4,5.8c-2.5-0.1-29.6,6.1-32.2-7c0.7,6-1.4,7.8-6.1,5.5c1.2,1.7-5.3-16.3-4.4-14.6c-0.6-3.9,6.1-27.3,12.7-25.9
		c-0.7,1.7-11,22.9-5.2,23.1c6.8,0.2,14.1-38,13.4-45c-3,6-5.1,12.3-6.2,18.9c-4.1,1.1,13.3-38.3,26-42.8
		C302.5,123.3,299.3,109.5,314.6,99.2 M286.5,137.3c-2.1,2.7,0.3,3.1,2.7,3.5C291.3,138.2,288.9,137.7,286.5,137.3 M371.6,156.4
		c-0.3,0.7-0.1,14.4,3.1,12.1C378.3,165.8,373.9,156.3,371.6,156.4 M265.4,172.1c0.4,1.1-1.1,4.6,0.9,4
		C269.4,176.1,267.8,171.2,265.4,172.1z"/>
	<path fill="#33073B" d="M304.3,312c2.9-7.7-1.3-19.7,9.8-11.8c4.4-11-6.2-9.7-1.6-15c-14.2,8-7-19.4-2.3-19.2
		c-0.4,2.9,0.7,5.2,3.2,7c0.3-3.7-2.9-28.8-12.3-24.1c0.1,0,0.2,16.8,0.2,17.2c0.5-0.9,1-1.8,1.6-2.6c0.9,1.5,1.4,7.9-1.3,9.3
		c4.6-2.4-18.2-32.1-10.4-41.7c-1.3,0.6-2.3,1.6-2.9,2.9c0.7-0.3-0.6-6.4-0.8-6.9c2.8-2,4.6-1.4,5.6,1.8c1.5-7.5,0.4-14.8,1.4-22.1
		c9.9,1.7-3.2,0.2,6.9-3.7c-1.7,9.8,2.3,12.2,11.9,7.2c0.1,3.3-0.6,6,2,8.7c2.5,2.6,6.9-7.7,6.2-7c0.8,2.2,1.5,4.5,2,6.9
		c3.1,0.8,13-10-0.3-9.9c-0.1-6.3,2.7-8,8.2-5.1c-1.5-1.4-9.3-8.4-11-6.2c-0.1,2-0.1,4,0,6.1c-4.5,4.3-2.5-11.2-4.5-0.6
		c-4.4-8,7.9-12.2,0.4-24.2c10.5,1.4,1.6-7.5,0.1-14.2c4.2,1.1,6.2,7.5,11.6,8.2c3-5.6-0.9-9,0.1-15.1c-5.2-0.3-16.3,0.5-15-3.9
		 M284.3,321.1 M350.3,338.1c-1.6-2.8-1.9-5.8-0.9-8.9 M313.3,154.1c13.6-9.5,22.2,14.7,38,1c0,0.5-19.7,55.9-5.9,28
		c5.7,4.2-2.4,16.8-8.2,17.2c-3.2-2.1-4.8-25.7-4.8-25.3c-24.4,3.6,16,38.5,16,37.8c-0.6,17.6-3.3,25.4-5.7,45.2
		c0,0,7.2-10.9,8.6-12.1c2.3,7.1-1.4,14.8-9.1,14.2c-3.7,8.9-12,25.1-12.7,24.8c-1.6,1.7-2.4,3.8-2.5,6.4
		c-5.6,0.6-7.1-36.8-8.2-35.7c-5.1,13.2-5.1,82.8,9.3,83.6c0-0.1-3-11.5,1.4-8.4c-0.6,11.7,5.7,14.4,18.8,8.2 M307.2,216.2
		c-12.3,2.1-16.5,10.4-12.7,24.8c2.4,1.9,41,4.3,45.5,4.2c-1.8-10.8,3.2-24.2,0-29.4c-4.1-6.7-17.8,10-26.8,6.6c4.3,2.8,4,5-0.8,6.7
		C311.8,226.1,304.4,210.4,307.2,216.2 M318.7,246.8c-5.8,12.2,15.5,5.4,17.8,0.4c-14-1.3-3.3-0.9-13.9,5.9
		C321.1,246.2,318.8,247,318.7,246.8 M336.6,252.4c-7.1,3-12.8,21.5-3.5,17.5C341.7,255.5,342.8,249.6,336.6,252.4 M310.5,300
		c-0.1,1.1-0.1,41.2,6.9,39.1C314,326.9,322.5,308,310.5,300C310.4,300.8,312.3,301.2,310.5,300z"/>
	<path fill="#33073B" d="M286.4,153c23.4,8,5.9,3.3,24,2.6c6.7,14.2-20.9,3.6-22.8,2.5c0.8,2.7,0,4.8-2.3,6.3
		C279.3,161.4,286.9,155.2,286.4,153C290.8,154.5,286.6,154,286.4,153z"/>
	<path fill="#33073B" d="M297.1,167c1.3,5.5,7.4,28.9,4.1,34.2c4-0.4-14-4.5-11.9-2.2C297.4,187.7,291.8,180.8,297.1,167z"/>
	<path fill="#33073B" d="M351.4,169.1C355,171.8,350.8,176.5,351.4,169.1C352.3,169.7,351.3,170.3,351.4,169.1z"/>
	<path fill="#33073B" d="M350.3,175.2c3.4-2.2,6.1-1.6,8.1,1.7C353.9,175.5,350,184.4,350.3,175.2
		C353,174.6,350.3,176.2,350.3,175.2z"/>
	<path fill="#33073B" d="M305.2,180.6c1.9-0.3,10.1,1,9.9,4.1C317.4,187,303.1,179.2,305.2,180.6
		C306.5,180.4,307.1,181.9,305.2,180.6z"/>
	<path fill="#33073B" d="M278.3,182.4C279.3,184.4,280.4,186.6,278.3,182.4L278.3,182.4z"/>
	<path fill="#33073B" d="M303.6,182.2c7.4-1.2-0.5,8.3-1.3,8.9C301.9,188,302.3,185,303.6,182.2C307,181.6,303.1,183.7,303.6,182.2z
		"/>
	<path fill="#33073B" d="M366.5,185.1c12.7-0.4,4.7,16.4,0.8,21.1C373.7,196.2,367.5,194.2,366.5,185.1
		C367.8,185.1,366.9,188.3,366.5,185.1z"/>
	<path fill="#33073B" d="M287.5,193.5c-1-3.8,0.2-5.9,3.8-6.4C285.1,223.9,292.5,186.4,287.5,193.5z"/>
	<path fill="#33073B" d="M308.3,193.1c2.5-2.7,4.7,1.4,5.6,4.5C309,198.9,307.2,197.4,308.3,193.1
		C308.9,192.4,308.3,194.4,308.3,193.1z"/>
	<path fill="#33073B" d="M364.3,205.1c1.6,0.9,4.2,10.2,1,10.1C365.3,213.8,364.8,207.1,364.3,205.1z"/>
	<path fill="#33073B" d="M394.3,214c3.3,1.3,5.3,3.7,6,7.1C398.1,221.5,394.3,215.5,394.3,214C396.4,216.4,394.3,215.5,394.3,214z"
		/>
	<path fill="#33073B" d="M361.4,221.2c0.2-0.3,0-12.6,2-3.2C363.3,217.7,359,228.5,361.4,221.2C363.2,218.7,361.3,221.7,361.4,221.2
		z"/>
	<path fill="#33073B" d="M263.4,218.3c7.8,1.6,15.1,33.9,14,33.9C272.7,241.6,261.8,229.1,263.4,218.3
		C264.9,218.6,263.2,219.6,263.4,218.3z"/>
	<path fill="#33073B" d="M257.2,221c-0.3-3.7,4.3-1.7,4.5,0.8C260.1,223.2,258.5,222.4,257.2,221z"/>
	<path fill="#33073B" d="M289.6,220.4C289.7,220.1,285.5,227.7,289.6,220.4C290.8,217,285.8,227.2,289.6,220.4z"/>
	<path fill="#33073B" d="M350.3,229C356.1,217.7,359.6,232,350.3,229C351.4,226.8,351.3,229.3,350.3,229z"/>
	<path fill="#33073B" d="M358.3,253c7-5.5,15,12,15.1,18.1c-3-4.5-5.7-9.2-7.9-14.2c-2,2.2-0.7,8.6-2,11.5c-1.8-0.2-3.5-0.6-5.3-1.1
		C365.1,262,357.9,258.2,358.3,253C360.4,251.4,358.3,253.4,358.3,253z"/>
	<path fill="#33073B" d="M281.2,254.1C287.8,251.4,282.1,262.9,281.2,254.1C282.2,253.7,281.3,255.5,281.2,254.1z"/>
	<path fill="#33073B" d="M306.5,256.1c1.6,0.8,1.8,3.3,1.8,5C304.8,261.7,305.7,258.2,306.5,256.1z"/>
	<path fill="#33073B" d="M280,269.4C286,256.8,283.1,277.9,280,269.4C280.7,267.8,280.4,270.4,280,269.4z"/>
	<path fill="#33073B" d="M353.6,268.8c1.6,5.2,9.7-10,2.4,8.2c-6.2,2.7-7-1.9-8.5-7.1C353.7,274.2,355.8,273.8,353.6,268.8
		C352.5,265.3,354,269.9,353.6,268.8z"/>
	<path fill="#33073B" d="M284.1,277.8"/>
	<path fill="#33073B" d="M289.6,311.9"/>
	<path fill="#33073B" d="M284.1,277.8"/>
	<path fill="#33073B" d="M297.5,277.8c0.3,2.5,6.8,11.3,0.6,13.5C297.8,288.4,297.8,282.2,297.5,277.8z"/>
	<path fill="#33073B" d="M339.3,286.9c2.9-7.7,13.9,15.8,12.9,18.9c-4.1,2.6-6.6,1.9-7.7-2c0,0.2,0.1,22.5-5,20.1
		C339.4,323.5,345.5,286.8,339.3,286.9C340,285,340.7,286.9,339.3,286.9z"/>
	<path fill="#33073B" d="M335.7,286c0.5,0.2,2.8,13.9,0,16.2c-1.5-14.3-0.3,5.8-5.3,4.9C329.3,297,329.5,291.4,335.7,286
		C336.2,286.2,335.4,286.3,335.7,286z"/>
	<path fill="#33073B" d="M349.3,293.9c2.9-0.7,3,5,0.1,4.3C349.3,296.7,349.3,295.3,349.3,293.9z"/>
	<path fill="#33073B" d="M324.5,296.3c-0.1-0.9,4.6,18.9,1,17.7C325.2,308.1,324.8,302.2,324.5,296.3z"/>
	<path fill="#33073B" d="M357.4,301.4c-2.8-0.4-3.1-2.3-1.1-5.7C357.6,297.3,357.2,299.4,357.4,301.4z"/>
	<path fill="#33073B" d="M357.5,302.3c4.7,1.7,2.6,4.8,4.9,9.9C361.9,313.2,348.6,305.4,357.5,302.3
		C358.4,302.6,356.5,302.6,357.5,302.3z"/>
	<path fill="#33073B" d="M287.5,312.7C287.9,320,284.5,316.9,287.5,312.7C287.5,312.7,286.3,314.3,287.5,312.7z"/>
	<path fill="#33073B" d="M352.9,315.8c-0.6-5.2,5.8,0.1,1.2,1.1C353.8,316.6,353.2,316.1,352.9,315.8z"/>
	<path fill="#33073B" d="M357.4,320c2.4-2.8,5.4-4.5,9-4.9C362.5,328.6,357.4,318.9,357.4,320C360.7,318.8,357.5,318.1,357.4,320z"
		/>
	<path fill="#33073B" d="M326.5,315.3C341,317,312.6,324.2,326.5,315.3C328.7,315.5,323.9,317,326.5,315.3z"/>
	<path fill="#33073B" d="M329.5,319.4c1.6,0,1.8,3.4,2.8,4.8C329.5,324.2,326.4,321.5,329.5,319.4z"/>
	<path fill="#33073B" d="M346.4,322.2C365.4,310.8,346.8,327.8,346.4,322.2C348.7,320.8,346.6,324.1,346.4,322.2z"/>
	<path fill="#33073B" d="M332.4,329.6C344.7,341.2,328,336.8,332.4,329.6C334.1,331.2,332.1,330,332.4,329.6z"/>
</g>
<rect x="0" y="0" fill="none" width="646.5" height="388.7"/>
<g>
</g>
<g>
</g>
<g>
</g>
<g>
</g>
<g>
</g>
<g>
</g>
<g>
</g>
<g>
</g>
<g>
</g>
<g>
</g>
<g>
</g>
<g>
</g>
<g>
</g>
<g>
</g>
<g>
</g>
</svg>
