<?xml version="1.0" encoding="utf-8"?>
<!-- Generator: Adobe Illustrator 17.0.0, SVG Export Plug-In . SVG Version: 6.00 Build 0)  -->
<!DOCTYPE svg PUBLIC "-//W3C//DTD SVG 1.1//EN" "http://www.w3.org/Graphics/SVG/1.1/DTD/svg11.dtd">
<svg version="1.1" id="Layer_1" xmlns="http://www.w3.org/2000/svg" xmlns:xlink="http://www.w3.org/1999/xlink" x="0px" y="0px"
	 width="646.5px" height="388.7px" viewBox="0 0 646.5 388.7" enable-background="new 0 0 646.5 388.7" xml:space="preserve">
<g id="_x23_33073bff_13_">
	<path fill="#33073B" d="M89.2,86.8C89.2,84.8,91.6,86.8,89.2,86.8"/>
	<path fill="#33073B" d="M84,43.1c2.8-0.3,32.5-2,29.2,4.8c-5.6,0.4-9.3,2.8-11.1,7.3c-0.1,11,14.7-2.7,13.4-2
		c3.8,2.2,5-18.8,6.3-18.1c115.7-70.2,138.6,39.5,138.6,39.5c-95-118.5-155-6.5-76.2,12.2c-70-62.9-81.9-44.8-47.3,10.5
		c22.4,35.7,11.8,22.9-22-7.1c-0.1-0.5-5.5-18.2-2.5-17.9c-6.1-0.6-3.5,5.7-3.5,9.7c-7,10.8-21.2-25.2-22.2-26.4
		C90.7,60.1,85.7,44.9,84,43.1 M100.5,68.2c-2.2,1.7-1.9,6.4,1.8,4.8C102,71.4,103.6,67,100.5,68.2 M104.4,68
		c-0.1,1.7-0.1,3.5,0,5.2C108.8,72.9,106.1,69.7,104.4,68 M113.6,68.6c-2.8-0.3-7.9,2.8-2.3,2.8C114.1,73.7,118.7,68,113.6,68.6z"/>
	<path fill="#33073B" d="M238.4,43.1c22.7,4.4,16.8,43.6,40.6,48.5c18.2,21.6,10.1,17.6,23.9,0c35.7-26.7,23.3,39.8,56.2-1.8
		c8.9-18.3,22.2-58.8,49.6-50.8c-24.5,20-39.7,83-80.8,83.7c3,0-5.3-25.2-9.4-28.1c0.4,0-18.1,15.6-9.5,16.4c2.5,0.2-0.3-6.5,3.3-8
		c1.7,8.4,33.5,35,11.3,46.1c0.1-0.7,2.5-15.2,4-12.1c-2.6-16.5-8.5,0.6-11.2-5.1c8.2,1.5,1.1,21.4,14.2,22.7
		c0.9,5.1-1.5,8.2-7.3,9.1c-7.3,0-3.8-35.5-19.6-37.1c-1.8-3-0.5-3.7,4.1-2.1c0.1,1.9-47-26.8-53.2-41.1
		C247.9,68.2,238.1,57.8,238.4,43.1 M313.5,111.5C313.3,116.5,318.7,112.1,313.5,111.5 M306.4,115c-6.7-1.2,9.5,13.5,12.8,3.2
		C318.1,117.2,300.7,110.8,306.4,115 M318.4,122.1c-0.1,1.3-0.1,2.7,0,4C321.2,126.7,322.4,120,318.4,122.1 M323.5,158.1"/>
	<path fill="#33073B" d="M498.2,43.1C506.9,46.9,498.6,45.1,498.2,43.1C498.2,43.1,498.3,43.5,498.2,43.1z"/>
	<path fill="#33073B" d="M433.3,11.6c-55,6.9-55.1,41.4-55.2,41.2c122-65.2,152.5,22.8,106.1,54C569.8,50.1,548,2.5,433.3,11.6z"/>
	<path fill="#33073B" d="M200.5,57.2C205.8,57.7,199.7,56.9,200.5,57.2C201,57.2,200.5,57.2,200.5,57.2z"/>
	<path fill="#33073B" d="M416.6,61.3c5.1,1.7-4.2,8.3-5.2,9c-0.6-1.4-1.6-2.5-2.8-3.4C410.1,66.5,416.4,63,416.6,61.3
		C420,62.4,416.3,63.5,416.6,61.3z"/>
	<path fill="#33073B" d="M453.3,67c5.7,0.1-0.5,5.7-1.1,7.7C448.7,71.9,454.8,68.2,453.3,67C453.8,67,454.5,68,453.3,67z"/>
	<path fill="#33073B" d="M480.3,71.2c12.8,1.5-9.9,12.4-10.8,15.4c-0.3,1-15.3,7.4-19.6,15.9C451.3,98.4,480.4,74.8,480.3,71.2
		C481.6,71.3,480.3,71.6,480.3,71.2z"/>
	<path fill="#33073B" d="M375,81.9C375.3,84.8,374,89.3,375,81.9C375,81.9,374.9,83.1,375,81.9z"/>
	<path fill="#33073B" d="M194.5,96.2C194.5,97.4,192.6,98,194.5,96.2C194.5,96.2,194.2,96.5,194.5,96.2z"/>
	<path fill="#33073B" d="M436.4,99.8c16.3-1.2-5.6,7.2-10.2,3.8C429.5,101.6,434.1,103,436.4,99.8
		C438.6,99.6,436.2,100.1,436.4,99.8z"/>
	<path fill="#33073B" d="M414.6,109.1c5.7-2.3,8-4.2,8.9,1.2c-1.5,0.5-33.2,28.5-24,28.8c11.1,0.4,27-16.5,35.5-19.1
		c0.5,3.5-57,49.3-28.8,46.2c-0.4,8.8,2.3,19.3-6.8,30.1c-2.1-5.2-1.9-23.8-8.4-25.3c-24.8-5.8-19.8,1.5-28.8,22.4
		c-1.3,0.2-2.5,0.3-3.8,0.5c-0.1,0.3,0.5-6.2,0.5-6.2c-5.6,9.5-13.6,29.1-13.6,44.6c1.6-2.9,3-5.9,4.2-9c0.4-0.4,4.2,27.1,3.3,34.1
		c-9-3.2-3-8.9-4.1-10.5c-6.6-9.9-5.1,21.9-3.4,19.4c-3.1-3.1-8.7-1.6-10.8,1.6c-4,6.3,13.4,0.4,10.5-0.6c1.1,1.9-5.1,23.2-6.7,22.9
		c-1.5-25.1-31.4-12.7-28.4-31.2c-5.6,8.6-5.1,14.2-6,26.4c-4.5-3.2-4.2-16.7-4.2-21.5c-6.2-2.9-7.1,15.7-14.8,0.8
		c5.6-13.4,6.2-9.3,8.5-26.6c2.5,4.5,43.2,0.7,42.6,0.8c5.9-0.7-0.4-45.2,5.5-44c1,3.2-1,8.9,3.3,10.6c-0.2-0.1,3.9-10.6,3.8-10.6
		c4.2,4-11.7-1.1-6.6-0.2c10.4-13.1,27.3-22.6,37-35.2c-4.2-0.9-7.5-3-10.1-6.4c4.5,2.9,5.5,2.2,3-2c17.4,3.2,3.4,7.6,23.3,18.1
		c-2.2-15.4-15.1-9.1-6.5-27.3C392.6,124.3,400,116.3,414.6,109.1 M375.2,154.1c-0.2,2.8,3,3.7,5.2,4.1
		C379.4,156.1,377,155.3,375.2,154.1 M399.5,175.5C400,180.4,404.9,175.4,399.5,175.5 M344.6,233.3c-0.9,1.1-0.4,3.1,0.9,3.6
		C347.4,236.6,346.7,232.1,344.6,233.3 M334.6,239.9c1.1,6.2-12.4,12.2-6.2,22.4C332.6,269.4,343.2,245.6,334.6,239.9 M307.7,242.5
		c-1.8,6.1-1.1,13.1,8.8,22.2c1.5,1.4,8.6-18.3,10.1-22.4c-1.8,5-8.2-5-8.7,6.9C315,249.5,312,242.6,307.7,242.5 M342.7,243.3
		C343.3,248.5,347.7,243.1,342.7,243.3 M298.2,257.7c1.7,1.7,4.8-1.9,2.2-2.7C295.8,253.1,294.1,260.8,298.2,257.7 M302.5,257.1
		C298.8,261.1,308,257.7,302.5,257.1 M330.7,270.3"/>
	<path fill="#33073B" d="M442.6,110c4.7-0.7,4.1,1.9-1.8,7.6c0.3-2.8-1-3.4-3.7-1.8C437.3,112.1,439.1,110.2,442.6,110
		C443.3,110,441.4,110.4,442.6,110z"/>
	<path fill="#33073B" d="M186.5,115c-4.3,0.9,11.5-4.3,12.1,10.3C195.4,127.4,186.8,115,186.5,115
		C182.5,115.8,187.8,115.2,186.5,115z"/>
	<path fill="#33073B" d="M189.2,125.2"/>
	<path fill="#33073B" d="M250.5,136.2"/>
	<path fill="#33073B" d="M260.4,173.1c6.6,7.2,12.2,4.7,18.2,9.8C266.7,184.4,262.1,191.1,260.4,173.1
		C262.2,175,260.6,175.1,260.4,173.1z"/>
	<path fill="#33073B" d="M376.4,203.4c4-8.2,9.8-14.6,17.6-19.2c0.4,1.6,0.8,3.1,1,4.7C395.2,187.6,377.2,203.4,376.4,203.4
		C377.3,193.6,378.9,203.5,376.4,203.4z"/>
	<path fill="#33073B" d="M277.3,187.4c4.1,1.7,8.4,8.5,6,13.2C278.4,197.3,277.6,193,277.3,187.4
		C277.8,187.6,277.4,188.6,277.3,187.4z"/>
	<path fill="#33073B" d="M361.7,201.4c4-1.9,2,10.2-1.3,11.7C360.3,209.7,358.4,204.1,361.7,201.4
		C363.9,200.3,358.6,204,361.7,201.4z"/>
	<path fill="#33073B" d="M292.4,209.6c6.2-4,15.1-18.5,3.2,15.8C294.6,220.1,293.5,214.8,292.4,209.6
		C294.3,208.4,295.7,214.2,292.4,209.6z"/>
	<path fill="#33073B" d="M359.7,220c3.6-12.4-1.2,33.8,1.8,12.5C348,227.7,360.9,226.2,359.7,220C359.8,219.7,360.2,222.7,359.7,220
		z"/>
	<path fill="#33073B" d="M293.7,237.3c0.3-3.2,1-6.3,1.6-9.4C294.9,231,296.2,234.9,293.7,237.3z"/>
	<path fill="#33073B" d="M356.9,262.6c-4.3-3.7,4.7-3.9,5.3-4c3,6.8-5.1,6.4-3.6,12.2C346.2,265.7,362.1,266.9,356.9,262.6
		C355.4,261.2,359,264.3,356.9,262.6z"/>
	<path fill="#33073B" d="M327.3,283.4c7.8-0.3-0.7,37.2-0.7,37c0.1-2.2-0.2-4.3-0.8-6.3c0.8,2.5,0.3,4.7-1.5,6.5
		c2.1-6.4,0-8.4-6.2-6.2C326.7,302.8,327.3,298.2,327.3,283.4C327.8,283.3,327.3,283.8,327.3,283.4z"/>
	<path fill="#33073B" d="M320.4,286.8c2.1-4.7,3.4,7.3,2.2,10.4C321.9,293.8,321.1,290.3,320.4,286.8
		C320.6,286.3,320.7,290.4,320.4,286.8z"/>
	<path fill="#33073B" d="M339.4,300.3c4.9-7.1,3.8,0.6,3.2,3.9C339.3,307.5,338.2,306.2,339.4,300.3
		C340.2,299.1,336.5,303.5,339.4,300.3z"/>
	<path fill="#33073B" d="M324.5,300.1l0.7-0.4C329,302.1,323.4,304.6,324.5,300.1z"/>
	<path fill="#33073B" d="M308.1,294.6c2.4-14.5,5.4,11.2-0.1,14.7C303.8,305.9,303.8,300.9,308.1,294.6
		C308.5,292,307.7,299,308.1,294.6z"/>
</g>
<rect x="0" y="0" fill="none" width="646.5" height="388.7"/>
<g>
</g>
<g>
</g>
<g>
</g>
<g>
</g>
<g>
</g>
<g>
</g>
<g>
</g>
<g>
</g>
<g>
</g>
<g>
</g>
<g>
</g>
<g>
</g>
<g>
</g>
<g>
</g>
<g>
</g>
</svg>
