<?xml version="1.0" encoding="utf-8"?>
<!-- Generator: Adobe Illustrator 17.0.0, SVG Export Plug-In . SVG Version: 6.00 Build 0)  -->
<!DOCTYPE svg PUBLIC "-//W3C//DTD SVG 1.1//EN" "http://www.w3.org/Graphics/SVG/1.1/DTD/svg11.dtd">
<svg version="1.1" id="Layer_1" xmlns="http://www.w3.org/2000/svg" xmlns:xlink="http://www.w3.org/1999/xlink" x="0px" y="0px"
	 width="646.5px" height="388.7px" viewBox="0 0 646.5 388.7" enable-background="new 0 0 646.5 388.7" xml:space="preserve">
<g id="_x23_33073bff_17_">
	<path fill="#33073B" d="M311.7,94.4c21.7-4.2,30.1,21.7,52.7,24.7c10.6,0.2,44.7,67.6,46.1,78.1c-4.2,0.3-11.8-10.5-15-12.3
		c0.8,1.7-9.7,21.2-10.2,21.6c-3.5-5-4.7-6.8-8.2-11.1c0.8-2.1,17.7-49.2-11.6-45c-0.3,5.3-11.6,32-15.3,16.5
		c-3.2,2.3,3.4,49.4,5.5,55.3c-5.7,0.6-25.9,69.7-27.1,69.1c-7.1,2.7-8.5-17.8-13.1-16.2c-0.2,4,4.2,3.4-1,5.6
		c-2.2,0.9-0.4-8.2-3.3,0.4c-3.7,1.1-0.8-11.6,1.1-13c2.7,3.6,6,6.5,9.9,8.6c-0.4-5.6-2-26.6-1.6-27c8.9,0.9,7.1-0.8,17.9-0.6
		c1.8-6.2-23.6-2.2-19.9-3.8c-0.2,0.5-0.3,14.8-3.1,13.8c-2.6-10.8,1.8-7.8-12.1-11.7c3.7,7.7,7.3-7.6,7.1,3.7
		c-21.1,2.6-2.9,11.1-2.9,21.2c-2.5,0-3.8-1.8-3.9-5.3c1.6,3.6,1.1,6.1-1.5,7.4c-3.5-2.5-9.1-17.3-11.2-20.8
		c0.1-4.2,2.3-4.7,6.4-1.6c0.6-2.2-9.1-4.3-5.1-9.9c11.4,6,31.3-2.8,47,2.1c0.3-4.9,5.9-48.7-7.6-37.9c0.6-2.8,2.8-10.3-1.2-12.1
		c6.2-0.8,8.9,2.2,8,9c15-0.4,3.9-56.1,26-58.3c-5.4-23.3-26.9-9.4-36.4-38.3c-21.7-11-27.8,48.5-50.6,27.9
		c3.5,3.2-2.2,30.4-2.2,35.6c-3.1-3.9-4.6-8.3-4.4-13.3c0.3,0.4-9.5,13.8-15.3,10.1c0.6,5.9-38.1,55.1-35.8,59.6
		c-13.5-27.1,53.9-88.9,57.9-105.8c-3.2,1.7-5.5,4.2-7,7.5C292.4,128.2,299.4,108.1,311.7,94.4 M336.5,115.2c-1.5,0.8-1.5,2.9,0,3.7
		C338.8,119.2,338.8,114.9,336.5,115.2 M360.2,123c1.1,2.4,3.6,3.8,6.2,4.1C365.3,124.8,362.8,123.3,360.2,123 M284.6,130.7
		C271.3,135.8,296.7,129.2,284.6,130.7 M258.4,152.1c1.1,0.8,2.8,9.4,5.6,3.7c-0.9,1.9-1.6-13.8-1.6-11.8
		C258.9,145.6,257.6,148.3,258.4,152.1 M370.2,147c0.6,0.7,7.4,11.3,8.4,10.3C381.2,155.2,371.9,146.6,370.2,147 M257.5,158
		c-0.9,0-5.4,9.7-1.2,8.1C261.7,166.7,256.7,156,257.5,158 M335.6,251.4c-0.4,0.5-15,21.3-2.5,17.6
		C332.8,270.9,336.4,247,335.6,251.4z"/>
	<path fill="#33073B" d="M277.4,162.1C289,173.2,276.9,167.9,277.4,162.1C279.3,163.9,277.3,163.4,277.4,162.1z"/>
	<path fill="#33073B" d="M284.4,171c4.4-3,2.1,7.3,1.8,8.2C283.3,177.3,282.8,174.5,284.4,171C287.9,168.6,284.3,173,284.4,171z"/>
	<path fill="#33073B" d="M324.4,174c2.2,1.1,23.3,1.6,0.8,2.1C325.7,180.6,324.3,179.1,324.4,174C327.5,175.6,324.4,176,324.4,174z"
		/>
	<path fill="#33073B" d="M365.2,174.3c1.8,1.6,10.6,5.8,5.9,10C366.5,182.1,365.8,179.1,365.2,174.3
		C366.7,175.7,365.4,176.1,365.2,174.3z"/>
	<path fill="#33073B" d="M294.6,181.2c0.2-1.3,1.4-5.1,3-3.4C296.7,179,296.7,182.8,294.6,181.2z"/>
	<path fill="#33073B" d="M319.5,177c-2,0.2,12.1,20.2,11,22C322.2,196.4,315.9,185.7,319.5,177C323.1,176.6,318.9,178.6,319.5,177z"
		/>
	<path fill="#33073B" d="M335.4,180.2c3.1-2.8,5.5,9.1,1.1,8.7C336.1,186,335.7,183.1,335.4,180.2
		C338.3,177.5,334.1,183.3,335.4,180.2z"/>
	<path fill="#33073B" d="M279.2,190.9c-1.8-4.2-1.1-7.8,2.2-10.8c-0.3,0.6,10.1,26.7,2,25.9C279.5,202.2,282.2,193.4,279.2,190.9
		C280.1,187.2,280.7,192.1,279.2,190.9z"/>
	<path fill="#33073B" d="M241.7,200.2c4.7-7.8,14.7-5,18.6,1.9c-1.2,8.6-10.1-5-10.2-5.1c-6.5,3.5-14.7,34.8-22.7,35.2
		C227.1,217.8,235.4,212.1,241.7,200.2C243.4,197.5,240.8,202,241.7,200.2z"/>
	<path fill="#33073B" d="M294.5,195.1c7.4-2.3,2.8,43.7-16,36.3c0,16.1-20.2,29.8-20.4,45.8c-2.8-3.2,4.4-46.3,7.8-54.3
		c14.1,9.9,10.5-20,12.6-19c8.7,4.5-0.7,7.6-2.2,10.8c6.3,0.5,6.3,4.9,0,13.3c8.5,2.7,7-15.1,11.4-19.7c2.5-0.3,4,0.9,4.5,3.8
		C294.6,206.7,294.8,200.6,294.5,195.1C297.7,194.1,294.5,195.5,294.5,195.1z"/>
	<path fill="#33073B" d="M273.2,208C266.6,200,284.5,202.6,273.2,208C271.2,205.5,273.7,207.7,273.2,208z"/>
	<path fill="#33073B" d="M318.6,207.3c-0.7-1.8-3.3-4-1.2-5.7C319.9,202.2,320.3,204.1,318.6,207.3z"/>
	<path fill="#33073B" d="M264,208c0.7-6.9,4.7,5.8,5,7.3C266.3,215.5,262.9,210.2,264,208C264.2,206.3,263.9,208.3,264,208z"/>
	<path fill="#33073B" d="M375.3,209.1c-0.4-2.6,6,1.1-1.9,7.9C371.8,213.8,372.5,211.2,375.3,209.1
		C374.9,206.9,375.4,210.8,375.3,209.1z"/>
	<path fill="#33073B" d="M388.2,208.3c5.4-3.4,3.8,11.1-0.9,10.6C389.1,215.7,388.6,211.8,388.2,208.3z"/>
	<path fill="#33073B" d="M251.4,217c-6.2-6.2,7.5-4.3,8.5-1.4C260.8,218.3,252,217.2,251.4,217C249.9,215.5,252.7,217.5,251.4,217z"
		/>
	<path fill="#33073B" d="M279.4,241.1c-3.7-2.7,18.8,2,10,2.2C286.8,253.5,273.6,236.7,279.4,241.1z"/>
	<path fill="#33073B" d="M270.3,258.1c1.1,0.6,6.8,1.9,8,1.1c-0.5,4.4-2.2,8.5-5,12.1c18.8-6.5-0.8-0.5,8.3-1.8
		c-0.5,3.9-3,6.7-7.4,8.5C267.5,275.4,269.5,264.3,270.3,258.1z"/>
	<path fill="#33073B" d="M285,292.7C288.1,291.1,281,293.9,285,292.7c8.6-4.4,23.5,17,14.5,22.5"/>
	<path fill="#33073B" d="M308.1,340c-3.4-5.2-3.1-9.2,1-11.9c0.8,3.4,2.8,4.9,6.2,4.6c1.7-4.2,1-8.3,0.7-12.7
		c-5.5,1.3-0.6,6.8-4.4,11.2c-8.5-16.4-9.8-23.1-0.9-36 M266.2,303.1 M310.7,295.3c5.9,9.9,14.9,44.8,16.6,44.8
		c-1.7-3.2-1.6-6.2,0.1-8.9 M309.6,306.3c-0.7,2.8-0.5,13.8,1.8,13.8C326.4,319.6,308,300.4,309.6,306.3 M314.3,335.1
		c0.1,1.7-1,5,2,4C316.2,337.3,317.3,334.1,314.3,335.1z"/>
	<path fill="#33073B" d="M324.5,326C322.5,317.2,329.6,326.2,324.5,326C324.3,324.9,324.9,326,324.5,326z"/>
	<path fill="#33073B" d="M331.5,328.1c2.8,0.8,2.5,8.2-1.2,7C330.2,332.6,330.6,330.3,331.5,328.1z"/>
</g>
<rect x="0" y="0" fill="none" width="646.5" height="388.7"/>
<g>
</g>
<g>
</g>
<g>
</g>
<g>
</g>
<g>
</g>
<g>
</g>
<g>
</g>
<g>
</g>
<g>
</g>
<g>
</g>
<g>
</g>
<g>
</g>
<g>
</g>
<g>
</g>
<g>
</g>
</svg>
