<?xml version="1.0" encoding="utf-8"?>
<!-- Generator: Adobe Illustrator 17.0.0, SVG Export Plug-In . SVG Version: 6.00 Build 0)  -->
<!DOCTYPE svg PUBLIC "-//W3C//DTD SVG 1.1//EN" "http://www.w3.org/Graphics/SVG/1.1/DTD/svg11.dtd">
<svg version="1.1" id="Layer_1" xmlns="http://www.w3.org/2000/svg" xmlns:xlink="http://www.w3.org/1999/xlink" x="0px" y="0px"
	 width="646.5px" height="388.7px" viewBox="0 0 646.5 388.7" enable-background="new 0 0 646.5 388.7" xml:space="preserve">
<g id="_x23_33073bff_6_">
	<path fill="#33073B" d="M97.3,43.1c14.5,0,28.9,0,43.4,0c-3.3,5.2-20.6,3-26.3,2.9c11.3,17.1,47.6-11.7,50.7,2.1
		c-3.8,2.8-18.6,4.9-9.7,5c-1.1,3.2-30.7,5.2-26,9.1c-2.8-0.4-10-4.9-11.2,1.7c15.2,0.6,36-6.9,43,0.3c-9.8,2.6-19.9,6-32.9,6
		c-0.2,4,1.4,5,4.9,3c-2.3,3-5.3,4.9-9,5.8c14.3-3.3,21.9-3.3,38.4-9.8c-1.2,4.7-24.8,15.5-28.2,16.9c3.2,8.8,19.9,3.5,23,2.7
		c-2.6,5.6-7.1,6.4-12.8,7.2c2.2,3,5.1,5.2,8.6,6.6c-3.7,1.4-7.3,2.9-10.9,4.5c13,18.6,58.3-24.8,61.8-19.6
		c-13.6,14.9-78.8,45.7-82,7.6c18.9-6-14.1-17.9-11.9-34.9c3.3-0.1,6-1.2,8.4-3.5C117.3,55.2,99.9,44.2,97.3,43.1 M128.7,54.5
		c-3.2,0.2-6.3,0.4-9.5,0.7C122.6,59.6,128,54.9,128.7,54.5 M126.5,81.4c-0.9,2,2.4,2.3,3.7,2.3C130.8,82,127.8,80.6,126.5,81.4
		 M131.6,91.2C127.5,100.6,141.2,88.6,131.6,91.2 M136.3,101c-3.9-0.2,4.8,2.4,6.8,2.2C146,102.9,136.8,99.1,136.3,101
		C131.1,100.7,137,98.4,136.3,101z"/>
	<path fill="#33073B" d="M218.3,43.1C226.8,45.6,218.3,44.2,218.3,43.1C218.3,43.1,218.3,43.6,218.3,43.1z"/>
	<path fill="#33073B" d="M247.1,43.1c10.4,1.3,43.8,43.6,30.2,53.3c-3.5,0-2.3-3.5-3.8-3.7c-0.2,1.5-0.9,2.3-2.2,2.5
		c-2.3,1.1,4.4,7.8,3.1,8c1.1,0.3,9.8-4.1,10.1-8c7.5-2.3-4.8,12.4-4.4,10.9c29.7-3.5-3.3,32,22,34c16.9-16.2,10.5-25.9,41.1-27
		c-0.3,16-1.8-2.3,11.2,15.9c-0.3-0.1-13.4,7.8-12.6,7.3c-4.4-2.9-16.7-10.3-22.7-10.2c9,5,4.8,7.5,4.1,18.9
		c-4.1,0.6-7.4-0.6-10-3.9c0.5,3.8,3.3,18.5-2.1,17.7c-15.6,3.6-50.3-51-52-60.9c-0.6-3.3,9.9-0.5,4.1-14.5
		c-3.4,1.4-11.1,6.5-11.6,9.2c3.1-5,0.3-8.6,12.6-11.7c-0.3,0.8-1.9-6.9-1.8-6.6c-1.4,3.9-4,3.5-7.7-1.4c0.2-3,1.4-5.6,3.4-7.8
		c0.4,4,2.4,6.7,6.1,8.2C261.8,68.8,248.7,49.3,247.1,43.1 M275.3,115.2c0,0,3.3,10,3.2,11.8c0.9,0.2,10.4,1.5,11.6-1.5
		C293.3,117.5,276.1,116.2,275.3,115.2 M308.4,133.3c2.1,3.3,2.9-7.1,2.9-7.3C308.4,127.6,307.4,130,308.4,133.3 M305.4,146.1
		C305.1,154,319.2,145.1,305.4,146.1C305.3,146.8,307.4,145.9,305.4,146.1z"/>
	<path fill="#33073B" d="M353.1,43.1C362.7,46.4,353.7,46.8,353.1,43.1C353.1,43.1,353.3,44.7,353.1,43.1z"/>
	<path fill="#33073B" d="M376.7,43.1c7.7,5.4-14,96.2-24.7,92.4c4.7-8.6,9.5-10.9,11.1-21.5c-11.9,7.3,12.4-13.3-9.7,4.2
		c-3.2-3-0.7-10.4,2.9-8.8c-2.6-2.6-1.9-4.7,2.2-6.3c-17.3,5.2,10.1-48.4,12.8-48c-1.6,3-1.3,3.9,1,2.8c0.7-11.2-1.3-5.3,4.2-6.8
		C373.5,48.1,373.6,45.4,376.7,43.1 M364.6,91c-1.7,3.5-2.5,7.2-2.3,11C362.9,102.2,368.6,92.6,364.6,91 M361.4,106
		c0.5,2.3-0.2,4.8,1,7C365.3,111.9,364,107.1,361.4,106z"/>
	<path fill="#33073B" d="M432.6,43.1c1.9,2,6.7,0.4,7.9,4.8C436.9,47.3,429.1,50.4,432.6,43.1z"/>
	<path fill="#33073B" d="M439,43.1c3.5,0,7,0,10.5,0c-0.1,2.5-0.7,4.8-2,7C445.4,44.8,443,46.1,439,43.1z"/>
	<path fill="#33073B" d="M486.3,43.1c13.4,0,26.7,0,40.1,0c-0.1,3.2-1.7,3.7-1.2,13.5c-11,1.3-7.8,3.6-12.6,7.7
		c-0.7-6.1-8.9-3.5-15.3-5.2c1.2,6.5,18.7,3.4,17.1,10c-17.7,3.5-47.5-11.2-58.8-5.9c-1.3-1.1-2.7-2.1-4.1-3.2
		c8.5-9.9,3.9-7.6,5.7-12.8c20.6,2.6,40.9,5.2,61.3,6.8C513.2,51.1,486.3,47.9,486.3,43.1 M461.2,53.1c4.2-1.1,5.4-3,9.1,0.2
		c-1.9,1-2.9,2.6-3,4.7c-0.4-0.1,9.6-2.2,8.9-5.7C472.9,51.5,462.9,47.7,461.2,53.1 M490.5,53.4c-1.6,2.6,4.5,4.2,3.7,1.1
		C492.7,55.2,491.8,53.4,490.5,53.4 M474.3,56.4c-1.2,4.6,9.3,8.7,12,6.7c-3.1-1.4-3.9-3.4-2.5-6C480.7,58.9,477.5,58.7,474.3,56.4
		 M487.4,61.3c-2.2,5.9,15.5,7.6,18,7.8C503.1,62.4,484.3,63,487.4,61.3C486.2,64.5,489.4,60.2,487.4,61.3z"/>
	<path fill="#33073B" d="M405.2,47.1c4.4,0.8,26.2,12.7,25.1,18.1C424.4,63.2,406.5,56,405.2,47.1C407.2,47.5,405.7,50.7,405.2,47.1
		z"/>
	<path fill="#33073B" d="M357.6,49.5C357.9,49.3,347.4,55.7,357.6,49.5C359.2,48.3,355.9,50.6,357.6,49.5z"/>
	<path fill="#33073B" d="M388.3,51.3C404.6,48.2,384.7,60.7,388.3,51.3C391,50.8,387.4,53.5,388.3,51.3z"/>
	<path fill="#33073B" d="M186.1,53.2C192.1,44.6,188,64.1,186.1,53.2C187.1,51.8,186.2,53.7,186.1,53.2z"/>
	<path fill="#33073B" d="M425.3,52.1c3.5,0.3,6.5,1.6,9.1,3.9c-5.1-1.9-0.8,2.6-2.1,2C426.1,59.6,423.7,57.7,425.3,52.1
		C427.8,54.9,425.9,53.8,425.3,52.1z"/>
	<path fill="#33073B" d="M247.4,54.2c7.5-2.4,7.2,4.3,7.9,8.9C248.9,59.4,253.4,61.9,247.4,54.2C249.5,53.5,248.9,56.2,247.4,54.2z"
		/>
	<path fill="#33073B" d="M441.3,54c2.6,2.5,5.6,4.2,9.1,5.2C444.9,58.8,441.8,59.8,441.3,54C442.6,55.7,441.3,54.8,441.3,54z"/>
	<path fill="#33073B" d="M272.4,55c3.8,1.5,5.1,4.2,3.9,8.2C275.2,61.7,273.5,55.8,272.4,55C276.5,55.2,274.9,56.9,272.4,55z"/>
	<path fill="#33073B" d="M347.9,62.8c3.5-7.6-6,17.7,2.8,19.7C350.2,84.2,334.8,87.6,347.9,62.8C348.5,61.4,345.2,68,347.9,62.8z"/>
	<path fill="#33073B" d="M164.6,63.6C175.8,63.2,156.5,63.6,164.6,63.6C166.2,63.6,163.4,63.6,164.6,63.6z"/>
	<path fill="#33073B" d="M213.6,63.3C207.3,64.6,213.9,72.9,213.6,63.3C215.6,62.8,213.7,65.7,213.6,63.3z"/>
	<path fill="#33073B" d="M415.5,68.2C422.8,58.7,410.4,73.1,415.5,68.2C416.9,66.4,415.2,68.5,415.5,68.2z"/>
	<path fill="#33073B" d="M444.1,69.8c0.3-0.8,65.3,16.2,65.6,16.2c-2.1-1.7,7.3,10.9,7.7,10.5c-16.7-2.7-22.5,11-34,12.2
		c-0.4,1.3,38.8-3.9,47.9-2.5c0.1,4.9-8.8,0-12,3.9c4-2.4-0.7,6.5-0.9,8.1c-7.3-11.4,0.1-2.2-2.1-9.1c-4-1-7.6-0.4-10.9,1.9
		c-0.8-0.6,13.6,20.7,13.9,22.2c-3.6,0-39.1-13.4-37-11.1c3.1-1,5.9-2.6,8.2-4.8c-8.4-0.1-11.7-7.4-18.2-11.1
		c-0.4-0.1,18.7-1.6,19.8-5.5c0.9-3.2-10.2-5.7-10.7-5.6c-1.2-3.2,1.2-10.9-14.2-11.9c2.2-2,1.6-3.1-1.9-3.1
		c0.2,4.4,9.2,7.6,11.3,12c-5.2-4.7-7-4.9-5.4-0.7c-9.3-1.3-13.2-15-24.8-14.2c-0.6-7.9,8.4-2,10.1-2.1
		C453.1,70.7,449,68.9,444.1,69.8 M457.5,75.4c-0.8,2,2.1,3.4,3.7,3.3C461.6,77,458.8,75.8,457.5,75.4 M487.2,88.1
		c1.6,1.7,3.7,3.4,6.2,3.1C492.4,88.5,489.9,87.5,487.2,88.1 M502.6,112.3c-1.3,1-2.5,2.9-2.1,4.5
		C502.1,116.9,504.2,113,502.6,112.3 M494.6,113.2C494.7,120.3,493.1,113.7,494.6,113.2C494.6,115.8,497,112.4,494.6,113.2z"/>
	<path fill="#33073B" d="M523.7,70.3c2.9-1.1,5.8-2.2,8.7-3.3C532,91.1,510.3,67,523.7,70.3C526.6,69,519.9,69.3,523.7,70.3z"/>
	<path fill="#33073B" d="M406.4,68c6.3-0.1,9,2.3,7.9,7.2C407.8,71.1,409.7,70.4,406.4,68z"/>
	<path fill="#33073B" d="M538.3,69.9c-1.8,1.4-5.7-0.4-2.8-2.3C536.8,67.7,537.6,68.9,538.3,69.9z"/>
	<path fill="#33073B" d="M97.3,69.2c3.5,1.1,11.5,2.3,12.2,6.7C99.2,80.1,95.1,77.9,97.3,69.2C99.3,69.8,97.3,70.9,97.3,69.2z"/>
	<path fill="#33073B" d="M183.3,72.1C199,70.8,175.8,73,183.3,72.1C185,71.9,182.8,72.1,183.3,72.1z"/>
	<path fill="#33073B" d="M174.1,72.7c2.1-0.2,4.3,0.1,6.4-0.3C180.3,76.5,176,74,174.1,72.7z"/>
	<path fill="#33073B" d="M405.3,72.1C417,79.2,405.4,74.8,405.3,72.1C405.3,72.1,405.3,72.6,405.3,72.1z"/>
	<path fill="#33073B" d="M198.5,73.2C200.2,77,198,77.7,198.5,73.2C198.5,73.2,198.3,74.9,198.5,73.2z"/>
	<path fill="#33073B" d="M399.2,74.1c-0.9,0,14.3,3.2,7.9,5.9C403.4,79.5,400.8,77.5,399.2,74.1C400.9,74,401.3,76.4,399.2,74.1z"/>
	<path fill="#33073B" d="M522.4,78.3c12.2-2.3,39-4.9,35.8,3.6c-14.7,7.6-24.5,12.8-39.9,19.3c-1.1-7.7,26.4-19.3,28-20.7
		C543.9,80.2,522.4,78.4,522.4,78.3C529.3,77,522.5,78.8,522.4,78.3z"/>
	<path fill="#33073B" d="M110.3,76.2c4.9,2.3,15.1,11.4,14.1,12.2c-8.2-1.4-8.8-4.2-14-3.2C110.3,82.2,110.3,79.2,110.3,76.2
		C111.8,77,110.3,79.2,110.3,76.2z"/>
	<path fill="#33073B" d="M233.3,81c2.7-2.3,5.8-3.9,9.2-4.9c-7.4,10.1-5.8,4.4-4.3,13.2c0.4-0.4-6.6,5.6-10.9,5.8
		C227.2,93.6,235.6,80.6,233.3,81C236.8,80,231.1,81.4,233.3,81z"/>
	<path fill="#33073B" d="M503.5,79c-2.2-1.4,6.8-0.9,8-0.8C511.8,83.4,504.8,78.9,503.5,79C499.6,76.5,505,78.9,503.5,79z"/>
	<path fill="#33073B" d="M432.5,83.9c1-2.9,2.9-4.8,5.8-5.8c5.2,1-8.9,12.4,4,2c-0.9,3.2,2.6,9.8,3.7,6.7c4.1-6.5-8.5,4.1,6.3-3.8
		C455.9,96.4,436,86.7,432.5,83.9C432.5,80.3,435.3,86.1,432.5,83.9z"/>
	<path fill="#33073B" d="M491.4,81.4c6.5-4.6,7.2-3.5,6.8,1.7C494.7,84.8,491.9,81.4,491.4,81.4z"/>
	<path fill="#33073B" d="M401.5,80.2c1.4,0.5,3.4,0.8,2.9,2.8C401.8,83.8,398.6,82.8,401.5,80.2z"/>
	<path fill="#33073B" d="M239,89.7c2.5-3.9,5.9-5.4,10.3-4.4c-0.1,2-12.8,10.7-14.9,11C234.3,93.3,234.6,87.6,239,89.7
		C241.8,87,238.8,89.6,239,89.7z"/>
	<path fill="#33073B" d="M425.3,85c6.7,1.6,10.5,5.8,11.3,12.7c-2.7-2.5,28.8,13.8,20,17.2c-2.3-2.6-17.5-16.6-27-21.1
		c0.4,2.3-6.7,4.5-11.3,1.4C425.9,94.5,428.1,90.4,425.3,85C432.2,85,425.6,85.6,425.3,85z"/>
	<path fill="#33073B" d="M157.7,87C164.7,86.8,158.9,92.1,157.7,87C158.9,87,157.9,88.1,157.7,87z"/>
	<path fill="#33073B" d="M213.4,87.1c-2.7,4.9,1.6,9.2-6,12.8c0.6,0.4-1.4-8.5-2.9-4.5C206.6,94.8,212.9,89.2,213.4,87.1z"/>
	<path fill="#33073B" d="M385.3,88c33.1,1.3,25.9,32.2,15.7,40c-3.6,2.8,12.5,8.6,13.6,8.9c-1.6-0.9-2-2.1-1-3.4
		c5.1,1,14.8,8.9,21.9,10.6c-22.8-18.9-18.7-17.8-18.1-36c7,2.6,46.7,29.8,44.7,19.7c5.2-2.2,1,19.4-0.1,20.9
		c-7.6-3.3-3.8-9.7-3.7-12.7c-0.2,0.9-19-8.8-20-9.1c1.2,4.3,11.8,10.9,15.1,13.1c-2.5-0.2-33.4-20.4-33.8-16.6
		c0.1-2.3,1.3-3.2,3.7-2.6c0.3,0.4-8.5-4.6-8.7-4.5c-4.1,8.7,24.8,25.9,27.6,25.3c0.8,16.3-11.2,16.6-11.8,29.2
		c-3.7-0.7-7.5-0.2-11.2,0.2c-5.7,0.6,10.3,13.7,13.1,14.1c-3.3-1.5-3.9-3.8-2-6.8c1.3-0.1,2.7-0.3,4-0.4c-2.2,5.9-0.3,8.2,5.8,6.8
		c-1.6,0.1-0.8,4.5-2.2,6.3c-5.2-1.2-26.9-13.1-29-11.8c1.8,5,9.6,15.5,15.1,16.1c-2.2-2.4-3.5-5.1-4-8.1c7.7-2.5,20.8,32.3-6.1,16
		c4,17.3-33.9,23.9-42.9-2.1c1.9,6.4,5.6,8.4,11.1,6c-1.4-2.8-15.9-21.3-20.6-22.7c2.1,0.6,5.7,21.1,6.7,23.8
		c3.8,1-22.4-28.6-22.2-21.9c-2.2,9.2,16.3,16.8,9.9,24.8c-6.4,1-6.8-18.1-11.7-21.8c-7.6,15.8-10.2,23.1-28.3,24
		c1,2.2,15.3,3.7,17,3.1c-4.8,2.4-7,5.6-6.8,9.8c18.4-3.1,4.3,5.4,14.1,5.1c-4.9-14.2,8.5,8,11,9.1c2.6-0.4,6.8-11.6,8.8-10.3
		c-4.2,17.2-31.1,123.4-50.1,127.6c0.2-4,11.7-80.2,7.3-82.5c-0.6,4.1,10.7,85.9,7.2,82.5c-0.2,5.1-6.4-66.1-6.9-57.5
		c-1.5,22.7-31-15.1-20.3-14c-4.1-4.2-3.9-14.1-6.9-20.1c-4.5-0.5-8.5,0.6-12.1,3.3c-0.1-9.9,7-11.1,14.8-10.2
		c-1.2-14.1,1-36.2,11.3-35.9c-2.7-11.1,8.1-1.6,9.9-9.6c-8.2-1.6-6.9-9.5-1.8-7.9c-0.4-3.5-16.3-13.9-18.4-24.7
		c-6.2,4.1-11.4,53-15.4,52.2c-3-3.4-5.3-7.1-7-11.4c4.4,10.4-7.7,4.6-7.1,4.7c-6.2-0.5-1.5,5.5-4.3,8.6c0.2-4.8-10.1-6.1,3.3-9.1
		c-2.7-5.4-22.2-7.7-28-6.9c-10.3,1.3-9.4-8.5-12.3-6.9c2.3-8.9,12.3-14.4,16-23c7.7,4.5-19.7,15.3-21.4,16.9
		c-3.8-3.9,16.9-13.8,11.8-18.5c-1.5-1.4-8,8.3-11.2,8.1c1.9-2,1.6-3.8-0.9-5.6c-5.5,8.5-5.2,1.7-7.3-0.1c-3.7,4.5-14.5,10-13.9,9
		c-2.6,4.7,5.1,7.3-3.8,9.5c1.9-3.8,9.8-20.1,10.5-25.5c-2.1,2.5-4.4,2.8-6.8,0.9c1-12.9,21.9-18.1,23.3-29.8
		c-8.2,6.5-24.4,26-36.2,15.2c8.2-8,8.4-8.3,7.9-0.3c8.5-2.2,25.5-20.8,29-19.1c19.1-18,8.3-20,15.1-32.5c31,5.3,5.9,34.9,3.1,48.8
		c2,0,3.5-0.8,4.7-2.3c0,9.1-11.6,15-12.9,23.3c6.2-0.8,17.2-15.5,22.1-19.3c8,1.3,0.4,12.5-3.2,13.8c-5.1,1.8,3.8-6.8,2.1-6.7
		c-4.5-2.5-13.8,8.5-10.4,12.4c2.3,2.6,1.8-10.4,7-3.6c-1.9-2.5-9.7,29.3-9.7,29.4c3.3-3.2,5-2.5,5.1,1.9c2.7-4.1,6.4-7.1,11-9
		c0.5,3.1,0.1,6.1-1.1,9.1c10.5-12.2,21.1-39.9,36.9-46.8c3.1,0.5,25.8,18.5,29.9,21.7c-0.6,1.1,71.2-36.1,50.9-34.4
		c2.4-8.9,10.8-9.8,15.1-13.7c-1.1,2.6-0.4,4.3,2.2,5.1c-0.5-15,2.6-15.2,4-23c-4.3,1-1.4-6.5-10.2-16.8c5.3,0,17.9,17.1,18.8,16.6
		c3.3-7.8-9.9-6.5-6.2-13.9c3.5,1.1,7.1,1.4,10.7,1c-5.9-4.1-11.8-0.1-18.3-2.9c-1-6.1,22.3-0.7,24.3-1
		C402.4,101.4,385.6,94.8,385.3,88 M425.2,119.3c0.2,2.7,4,2.9,6.1,3.9C430.9,120,428,119.3,425.2,119.3 M394.2,135.3
		c2.1,9.1-4.4,4-3.8,5.7c7.6,3.5,22.2,18.7,23,28.1c1.1-3.7,3.1-5.1,6-4.3c0.3-1.1-17.5-18-17-24.4c-0.8,10.1,37.8,19.6,31,12.4
		C428.7,148,403.2,137.9,394.2,135.3 M241.3,143c-4.8,0.1-9.1,2.3-8.9,6.1c6.3-1.6,13.5-5.8,11.9,2c-3.6,2.3,10.4-9.8,5.3-8.9
		C245.7,143.5,240.6,139,241.3,143 M381.6,151.7c0.8,0.3,5.3,2.1-4.2,2.4c-0.7-1.9,13.7,13.9,14,14.2c-1,0.6-1.4,1.6-1.1,2.8
		c-4-0.9-5.1-8.8-7.8-9.9c0-0.1-14,16.8-12.5,16.8c5.7-0.5,4.6-3.9,9.2-4c0.1,10.4,31.9,21.5,25.2,30.2c-1.6-0.9,4.8-1.6,4.2-0.8
		c4-5.9-10.6-15.7-8.5-11.1c-4.5-1.9-2.1-8.4-1.5-10.1c6.1-1.8,10.7,19.5,18.7,18.9c-2.5-6.2-22.7-29.9-13-27.2
		C405.1,160.4,380.3,151.5,381.6,151.7 M434.5,147.4c-3.9,2,5,5.7,5.6,5.1C443,147.6,441.2,145.9,434.5,147.4 M389.5,148.4
		C384.1,158.9,400.9,146.3,389.5,148.4 M393.3,153c1.7,2.5,5.7,8.6,10,8.1C402.7,158.7,396.1,153.4,393.3,153 M213.3,168.2
		c4.3-0.1,7.7-6.9,8.1-10.2C217.4,160.3,214.7,163.7,213.3,168.2 M224.4,173.2C225.9,164.8,224.5,174.4,224.4,173.2 M287.6,171.4
		C280.8,176.3,286.9,172,287.6,171.4 M227.5,174.2c-3,4.5-13.5,7.7-14.2,14.9c9.4-0.4,6.1,1.2,11.8-2.3
		C220.3,179.2,232,173.9,227.5,174.2 M207.5,180.2C202.3,185.7,216.2,187.4,207.5,180.2 M351.3,180c0.8,2,1.9,4.3,4.1,5.1
		C354.8,183.1,353.8,180.1,351.3,180 M371.3,180.3C373.1,187.7,379.6,183.1,371.3,180.3 M298.3,183.1c0.1,1.7-1,5,2,4
		C300.2,185.4,301.3,182.1,298.3,183.1 M340.7,184.9c-3.3,1.4-5.4,3.8-6.5,7.2C348.5,195,338.3,181.4,340.7,184.9 M377.5,183
		c0.7,2.8-2.9,9.9,3.8,9.1C377.2,183.2,385.1,186.9,377.5,183 M277.7,185.4C276,198,258,199.3,263.8,208
		C267.5,213.6,287.4,179.4,277.7,185.4 M369.5,184.4c-0.6,1.7,1.8,4.1,3.5,3.5C372.9,186.4,371,184.5,369.5,184.4 M284.5,187.1
		c1.8,8.2-10.7,15.3-12.6,16.1c-0.2,3.2,0.8,5.8,3.2,7.9C277.4,202.2,290.7,192.9,284.5,187.1 M314.6,189.9
		c-4.8-0.2-5.7,1.9-7.1,5.2C316.3,197.5,317.3,194.1,314.6,189.9 M304.5,190.4c-0.8,1.2,0,3.6,1.6,3.4
		C308.3,192.9,306,190.2,304.5,190.4 M389.4,193.2c0.4,1.4,3.1,19,12.7,18c-1.5,0.2-10.4-10.5-7.6-12.7c1.9,1.2,4.1,8.5,7.7,3.4
		C400.9,195.5,392.4,191.6,389.4,193.2 M319.3,192.1c-0.9,2.5,2.7,3.7,1.2,6C324.3,198.9,323.8,189.8,319.3,192.1 M386.5,194.3
		c-3.4,2.3,2.2,7.6,3.8,3.1C388.2,197.3,388.2,194.2,386.5,194.3 M305.6,196.4C299.8,205.8,312.3,195.4,305.6,196.4 M380.3,196.1
		C387,203.7,385.9,195.9,380.3,196.1 M282.7,201.4c-3.8,2.7-3.1,10.2-8.4,15.7c3.5-1.9,4.5-0.6,2.9,4.1
		C283.4,217.8,285.2,200,282.7,201.4 M320.6,202.6c-5.7-0.2-5.8,1-0.4,3.6C318.4,203.7,328.2,202.4,320.6,202.6 M386.3,203.1
		c0.1,2.2,0,6.6,3.1,6C388.6,207.1,387.7,204.2,386.3,203.1 M233.5,206c1.3,2-1.3,3-1.3,5C235.4,211.5,237.1,205.6,233.5,206
		 M257.5,214.1c-4,3.8,7.5,5.2,4.8-0.1C262.4,212,257.2,212,257.5,214.1 M267.7,212.8C256.4,230.4,270.9,208.7,267.7,212.8
		 M320.3,221C320.3,227.3,332.9,224.1,320.3,221 M310.7,229c-9.3,19.9,19.8,6.9,22.5,3c-1.8-1.2-2.8-2.8-3-4.9
		c-9.2,2.6-4,8.3-9.9,10.2c4.5-12-3.1-2.9-6-4.2C315,226.4,310.6,227.2,310.7,229 M304.5,230.2C293,242.8,314.5,226.3,304.5,230.2
		 M336.1,236.8c-15.6,29.9-35.6-20.2-38.1,23.9c-20.9,16.2,19.6,9.2,28.1,4.5c-2,9.7,0.7,16.3,8.1,19.9
		C342.2,270.5,333.3,241,336.1,236.8 M350.6,241.4c-7.1,1.3-2.3,7.5-5.6,9.7C348.6,248.7,350.6,241.4,350.6,241.4 M304.3,286.1
		c3.1-0.2,4.3,2.1,3.8,7.1c1.3-6,1.2-7.2,0.3-13C303.7,279.5,302.4,281.4,304.3,286.1z"/>
	<path fill="#33073B" d="M445.7,91.4C455.1,73,446.2,111.7,445.7,91.4C447.1,88.7,445.8,95.6,445.7,91.4z"/>
	<path fill="#33073B" d="M250.8,92c1.8,2.7,8.1-0.6,0.8,6.1c-0.4-2.9-19.7,17.2-29.5,12.8C229.7,107.2,246.6,100.7,250.8,92z"/>
	<path fill="#33073B" d="M372.2,94.8C378.2,92.2,379.6,97.6,372.2,94.8C374.5,93.8,374.3,95.6,372.2,94.8z"/>
	<path fill="#33073B" d="M238.5,95.3c4.8-0.7,3.2,1.3-4.9,6C232.7,96.9,234.4,94.9,238.5,95.3C239,95.3,237.2,95.8,238.5,95.3z"/>
	<path fill="#33073B" d="M529.7,97.5C531.6,96.8,512.7,103.5,529.7,97.5C531.4,96.9,526.8,98.5,529.7,97.5z"/>
	<path fill="#33073B" d="M385.1,98.2c4.4,0,6.4,2.1,6.2,6.1C388.3,103.3,386.3,101.3,385.1,98.2C387.9,99.7,385.7,100.2,385.1,98.2z
		"/>
	<path fill="#33073B" d="M418.3,100.1c2.6,0.1,8.4,3.7,8,6.8C421.6,111.2,418.8,103.2,418.3,100.1
		C421.6,100.2,418.8,102.8,418.3,100.1z"/>
	<path fill="#33073B" d="M343.4,106.2C352.9,98.8,343.1,120.6,343.4,106.2C343.8,105.8,343.3,107.9,343.4,106.2z"/>
	<path fill="#33073B" d="M426.4,109.8c-0.7-2.6,8.8-4.7,8.1-0.7c-3.6,2.7,1.8,1.4-0.9,5.2C431.2,112.9,428.8,111.3,426.4,109.8
		C426,108.5,429.5,109.9,426.4,109.8z"/>
	<path fill="#33073B" d="M137.3,111.3C143.1,118.2,136.8,113.3,137.3,111.3C137.3,111.3,136.9,113,137.3,111.3z"/>
	<path fill="#33073B" d="M524.1,113.9C525.1,104.9,542.5,120.2,524.1,113.9C524.5,110.6,526.5,114.7,524.1,113.9z"/>
	<path fill="#33073B" d="M229.2,117.3C227.6,114.8,240.3,110.5,229.2,117.3C226.7,113.3,229.7,117,229.2,117.3z"/>
	<path fill="#33073B" d="M460.6,113.3c4-2.6,11,4,15.9,3.8c-0.3-1.7-4.5,11-3.2,7.8c-7.9-2.6,0.1-1.4-1-5.8
		c-5.9-3.4-9.3-2.7-10.1,2.2C462.9,119.9,454,116.3,460.6,113.3C461.7,112.6,458.3,114.4,460.6,113.3z"/>
	<path fill="#33073B" d="M248.6,115.7C256.1,114.1,242.9,126.7,248.6,115.7C249.5,115.5,247.8,117.2,248.6,115.7z"/>
	<path fill="#33073B" d="M138.3,118.1C137.7,111.9,142.5,128.4,138.3,118.1C137.9,113.6,138.7,119.1,138.3,118.1z"/>
	<path fill="#33073B" d="M149.5,116c3.7,2.1,6.3,5.1,7.6,9c-2.9-1.3-5.4-0.9-7.5,1.2c0.3-0.5,32.2-2.5,32.6-4.4
		c-2.5,0-13,9.1-17.1,7.7c2,8.2,9.8,46.7,5.8,45.6C170.8,148.4,144.4,133.4,149.5,116 M159.3,130.1c-0.7,3.2,2.3,6.3,6.1,4
		C165.7,131.1,161.7,130,159.3,130.1z"/>
	<path fill="#33073B" d="M371.5,119.9C378,111.4,384,124.5,371.5,119.9C373.3,117.5,373.2,120.5,371.5,119.9z"/>
	<path fill="#33073B" d="M521.2,117c8.7-2.5,12.1-0.1,10.1,7C525.8,124.5,519.7,124.4,521.2,117C524.3,118.8,521,118.1,521.2,117z"
		/>
	<path fill="#33073B" d="M455.9,118.7c2.7-1.6,4.8,6,9.3,5.1c1.1,1.1-14,3.1-14,0.7C460.7,125.8,451.9,119.5,455.9,118.7
		C458.7,116.9,453.2,119.2,455.9,118.7z"/>
	<path fill="#33073B" d="M347.3,119.1C360.7,119,347.5,126.2,347.3,119.1C348.8,119.1,347.3,119.6,347.3,119.1z"/>
	<path fill="#33073B" d="M383.9,121.8c3.4-7.8,1.6,11.4-9.8,5.5C374.4,121.4,379.2,122.5,383.9,121.8
		C384.4,120.7,382.2,122.1,383.9,121.8z"/>
	<path fill="#33073B" d="M227.5,123.9c12.3-3.7,3.1,7.4,9,8.5c-8.5,6.7-3.7-3.6-9.9-2.4c-10.8,2.2-22.3,25.9-33.1,33.2
		c-3-2.6-2.7-5.3,1-8.1c3.5-0.7-18.9,7.9-16.1-0.7c16.2,4.2,28.8-17.6,43.9-26.7c-2.2,2.4-1.8,4.1,1,5.1
		C223.3,129.5,223.4,125.3,227.5,123.9 M231.6,125.3C217.9,135,240.1,121.1,231.6,125.3C230,126.4,233.1,124.5,231.6,125.3z"/>
	<path fill="#33073B" d="M210.2,129.1c3-2.6,6.4-4.6,10.1-6.1c-3.1,15.8-32,17.4-38.8,29.2c-0.5-2.7-2-4.7-4.5-6
		C190.2,143.7,199.1,140.3,210.2,129.1z"/>
	<path fill="#33073B" d="M486.4,126.4c6.3-2.6,15.6-3.4,15.9,4.8c-8.1,1.2-16.4,3.9-30.1,3.7C475.6,130.4,481.4,129.4,486.4,126.4
		C490.1,124.8,485.5,126.9,486.4,126.4z"/>
	<path fill="#33073B" d="M177.2,131.5c1.7,0.4,11.3,0,11.1,0.6c0.4,4-5.9,7.6-8.8,7.9C177.9,137.2,178,134.5,177.2,131.5
		C178.4,131.7,177.3,131.8,177.2,131.5z"/>
	<path fill="#33073B" d="M147.6,132.9c15.8,4.3,2.6,15.1-6.2,15.1c-0.1-4.7,4.6-8.3,5-7.8c-4.7,0.8-6.4-0.9-5.1-5
		C147.5,138.2,149.6,137.5,147.6,132.9C150.2,133.6,147.8,133.9,147.6,132.9z"/>
	<path fill="#33073B" d="M321.4,146.9c3.5,1.9,4.1,4.7,1.8,8.2C318.5,149.3,322,152.6,321.4,146.9
		C325.9,147.3,321.6,148.7,321.4,146.9z"/>
	<path fill="#33073B" d="M258.5,148.3C268.2,149.7,251.8,155.3,258.5,148.3C260.6,148.6,257.6,149.1,258.5,148.3z"/>
	<path fill="#33073B" d="M263.2,154.1C267.7,155.7,264.4,163.9,263.2,154.1C264.2,154.5,263.4,155.8,263.2,154.1z"/>
	<path fill="#33073B" d="M325.5,157.4c6.1-0.6-1.8,8.7-5.3,7.7C322,162.5,323.8,160,325.5,157.4
		C327.7,157.2,322.1,158.3,325.5,157.4z"/>
	<path fill="#33073B" d="M389.3,159.9C391.5,159.2,395.1,167.6,389.3,159.9C390.2,159.6,389.3,159.9,389.3,159.9z"/>
	<path fill="#33073B" d="M264.1,166.9C266.2,165.4,264.7,178.1,264.1,166.9C268,164,264.1,167.5,264.1,166.9z"/>
	<path fill="#33073B" d="M437.5,173c5.8,2.8,7.1-10.5,6.7,4.2c3,0.7-14-2.8-12.9-3.3C431.6,169.9,433.7,169.6,437.5,173
		C440.8,174.6,436,171.6,437.5,173z"/>
	<path fill="#33073B" d="M258.3,195.1c-0.6-2.7,1.5-4.4,3.8-5.2C262.6,192.4,260.7,194.5,258.3,195.1z"/>
	<path fill="#33073B" d="M251.3,198.1C250.4,189.3,262.8,195.5,251.3,198.1C251,195.6,252.8,197.8,251.3,198.1z"/>
	<path fill="#33073B" d="M355.6,198.3c1.3-2.9,3.6-10,5,0.7C361.8,208.4,357.3,197.7,355.6,198.3
		C356.4,196.5,359.1,196.9,355.6,198.3z"/>
	<path fill="#33073B" d="M181.9,203.7c5.6-11.1,7.1,7.2,7.3,7.7C159.2,208.4,177.6,212.2,181.9,203.7
		C183.1,201.3,180.4,206.6,181.9,203.7z"/>
	<path fill="#33073B" d="M370,209.8c4.8-11.5,7.9,12.2,8.3,15.2C372.3,227.9,365,211.9,370,209.8C370.6,208.4,369,210.2,370,209.8z"
		/>
	<path fill="#33073B" d="M342.7,212.3c-0.2,0,15.6,3.9,16,7.7C350.8,220.9,341.9,222.5,342.7,212.3
		C344.8,212.2,342.6,213.3,342.7,212.3z"/>
	<path fill="#33073B" d="M219.3,217.7c3.3-2.4,6.6,1.8,3.9,5.8C218.3,225.1,218.9,217.5,219.3,217.7
		C219.6,217.5,220.8,218.7,219.3,217.7z"/>
	<path fill="#33073B" d="M284.5,218c4.7-3.4,2.6,10.8-1.5,12C279.3,230.4,284.5,217.7,284.5,218C285.7,217.1,284.2,219.8,284.5,218z
		"/>
	<path fill="#33073B" d="M362.6,218.3C369.1,213.7,357.9,221,362.6,218.3C368,214.5,359.6,220,362.6,218.3z"/>
	<path fill="#33073B" d="M261.2,234c2.3-3.9,15.9-8.7,13.2,1.2c-2,0.3-8.7-2-8-2.2C270,240,260.9,234.4,261.2,234
		C262.6,231.7,261,234.3,261.2,234z"/>
	<path fill="#33073B" d="M282.2,239.1c2.6-0.5,5.2,0.5,6.2,3.1C286.3,241.6,283.5,240.9,282.2,239.1z"/>
	<path fill="#33073B" d="M319,249.7c3.8-3.7,8.4-5.5,13.7-5.4c-3,5.1-13.9,16.8-21.8,11.8C308.7,250.3,311.4,248.1,319,249.7
		C323.5,247,316.1,250.4,319,249.7z"/>
	<path fill="#33073B" d="M279.6,280C284.5,279,281.7,291.1,279.6,280C281.9,279.5,279.9,281.4,279.6,280z"/>
</g>
<rect x="0" y="0" fill="none" width="646.5" height="388.7"/>
<g>
</g>
<g>
</g>
<g>
</g>
<g>
</g>
<g>
</g>
<g>
</g>
<g>
</g>
<g>
</g>
<g>
</g>
<g>
</g>
<g>
</g>
<g>
</g>
<g>
</g>
<g>
</g>
<g>
</g>
</svg>
