<?xml version="1.0" encoding="utf-8"?>
<!-- Generator: Adobe Illustrator 17.0.0, SVG Export Plug-In . SVG Version: 6.00 Build 0)  -->
<!DOCTYPE svg PUBLIC "-//W3C//DTD SVG 1.1//EN" "http://www.w3.org/Graphics/SVG/1.1/DTD/svg11.dtd">
<svg version="1.1" id="Layer_1" xmlns="http://www.w3.org/2000/svg" xmlns:xlink="http://www.w3.org/1999/xlink" x="0px" y="0px"
	 width="646.5px" height="388.7px" viewBox="0 0 646.5 388.7" enable-background="new 0 0 646.5 388.7" xml:space="preserve">
<g id="_x23_33073bff_15_">
	<path fill="#33073B" d="M351.3,86.8c2.4,0.5,3.7,1.9,4,4.3c-0.2,4.3,18.3-6,5,19.2c9.6-6.3,25.4,12.3,25.4,15.2
		c-2.1-1.7-11.8-39.6-40-22.2c-14.8,9.2-19.1-9.6-27.6-4.7c-26.4,10.1,4.3,22.6-31.4,9.4c-11.7,28.8-63.9,38.7-68.5,78.8
		c-1.5,3.2-21.8,33.1-9.9,36.2c-0.1-0.3-5.7-14.3-8.4-1.8c-0.2-1.1-1.3-10.5-0.8-3.9c-4.6-16.7,6.1-25.3,8.4-40.5
		c10.5,10.2,19.2-53.2,30.8-59.9c8.2-1.8,0,24.3,4,24.3c4,6.7,12.3-20.5,13.1-23.1c12.4-25.3,37.6-21.3,1.8-30.7
		c10.7-20.1,40.5,15.3,46.3,9.8 M347.6,96.4C336.2,102.4,354.3,92.9,347.6,96.4 M286.3,97c1.7,7.4,6.9,4.1,10,9.1
		C294.2,101.9,290.9,98.9,286.3,97 M279.5,112.2C273.4,116.5,290.2,113.9,279.5,112.2C278.6,112.9,280.6,112.4,279.5,112.2z"/>
	<path fill="#33073B" d="M374.3,84.1c47.1,0,51.2,116.3,51.5,133.4c-6.2-7.5-28.6-22.5-34.5-30.5c0.9,5.7-1.4,8.4-7,8.3
		c3.6-2.6,2.3-4.7-3.9-6.2c0.1,1.4-1.6,3.9-2.1,4.1c-9.7-5.1,8.1-6.3,1.5-8.8c-2.4,7.2-9.1-0.3-10.7-0.7c3.6-0.6,25.4-16.2,18-18.4
		c7.6,22.7,23.5,20.2,37.5,29.3c-2.1-8.1-37.4-71.4-31.5-82.3C395.6,107.6,373.3,90.5,374.3,84.1C375.7,84.1,374,85.9,374.3,84.1z"
		/>
	<path fill="#33073B" d="M251.4,94.3c2-3.3,4.7-4.3,8.1-3.2c-5.5,3.6-4.7,11.8-12.1,12C250.4,100.9,251.7,97.9,251.4,94.3
		C254.4,93.9,250.4,95.6,251.4,94.3z"/>
	<path fill="#33073B" d="M242.7,109.8c2.9-5,6.2-5.9,9.8-2.6c-4.2,4-4.5,4.9-5.3,6.8C242.5,114.4,238.2,118.8,242.7,109.8
		C245.5,109.5,241.9,111.5,242.7,109.8z"/>
	<path fill="#33073B" d="M269.7,157.6c3.2-3.9,10.2,2.2,9.4,5.3C275.5,162,272.4,160.3,269.7,157.6
		C270.9,156.3,270.9,159.5,269.7,157.6z"/>
	<path fill="#33073B" d="M266.2,165.9c10.3-9.1,4.9,9.7-1.9,9.3C267.7,172.4,268.3,169.3,266.2,165.9
		C267.4,164.8,266.8,167.2,266.2,165.9z"/>
	<path fill="#33073B" d="M256,163C259.4,158.7,265.6,176.6,256,163C257.7,160.9,257.3,164.9,256,163z"/>
	<path fill="#33073B" d="M281.5,171.1c2.2-0.2,5.5,6.5,4.3,6.9C280.9,179.8,281.9,174,281.5,171.1
		C282.2,171,281.6,171.8,281.5,171.1z"/>
	<path fill="#33073B" d="M385.7,265.6c-1.2-4.4-2.3-8.5-3.3-11.5c-6.1-18.5-23-42-22.2-57.2c-24.4,6.2-1.5-13.9-3.3-17.7
		c0-0.1-0.1-0.2-0.4-0.4c-0.2,0.1-0.3,0.1-0.4,0.2c-31.8,11.5,17.7,66.5,28.4,88.3C384.9,266.6,385.3,266.1,385.7,265.6z"/>
	<path fill="#33073B" d="M282,182.9c1.5-11.2,2.1,11.6,0.1,6.2C277.6,187.7,278.3,183.9,282,182.9
		C282.2,181.5,280.5,183.3,282,182.9z"/>
	<path fill="#33073B" d="M368.9,189.3c3.6,4.2,5.7-1.1,3.4,5.6c-6.6,0.4-4.3,2.6-11.9,1C362.6,193,365.5,190.8,368.9,189.3
		C369.5,190,366.5,191.9,368.9,189.3z"/>
	<path fill="#33073B" d="M275.6,203.9c-1.2-3.9-0.3-7.2,2.6-9.9C278.4,198.9,282.4,202.5,275.6,203.9
		C276.1,200.5,277.1,203.6,275.6,203.9z"/>
	<path fill="#33073B" d="M286.1,202.1c-0.4-7.9,1.5,38.8-6.7,33C266.1,216.4,282,213.7,286.1,202.1
		C285.9,199.1,285.9,202.6,286.1,202.1z"/>
	<path fill="#33073B" d="M293.3,220.3c2.9-1.2,7.4-7.7,2.2,17.8c15,0.4,27-2.1,43.7,3c-1.6-7.5-0.2-14.2,4.3-20.1
		c7.9,3.1-2.3,47.8-2.2,48c-32.1,19.7-10.2-17.7-10-26.8c-6.2-4.3-6.2,6.8-7.8,9.8c-5.8-3.5-5.5,0.8-9.9-1.1c0-3.6-1.4-6.2-4.3-7.9
		c-1.6-0.3-9.6,5.7-7.4,8.6C294.7,242.3,283.6,235.7,293.3,220.3 M334.5,250.2c0.1-0.2-9.7,25.4-0.5,16.6
		C334.8,264.9,341.7,250,334.5,250.2C333.6,251.9,334.9,250.2,334.5,250.2z"/>
	<path fill="#33073B" d="M273.2,244c-2.8-3.7-3.4-7.7-1.9-12.1c-0.5,3,10.6,12.8,10.9,11.9c-0.5,0-10.5,10.5-11.4,5.3
		c-1.9,2.2,3.7,26.3,3.3,30.7c-12.1,9.3-22.4-24.2-20.7-26.3C259.8,253.9,267.2,248.5,273.2,244 M263.6,255.7
		c-5.5-4.1,3.2,28.8,5.9,23.5C277.4,280.2,260.4,253.5,263.6,255.7C261.7,254.3,265.4,257,263.6,255.7z"/>
	<path fill="#33073B" d="M299.5,266.7c4.3-1.7,5.6,0.9,3.7,7.8C295.9,274.9,299.3,272.8,299.5,266.7
		C300.3,266.5,299.4,267.3,299.5,266.7z"/>
	<path fill="#33073B" d="M283.6,267.8c7.7-1.9-1.8,11.2-4.1,11.1C278.4,274.3,281.6,272.3,283.6,267.8
		C284.5,267.6,282.4,270.5,283.6,267.8z"/>
	<path fill="#33073B" d="M307.6,267.8c-0.7-3.2,7,4.4,4.8,4.6C308.7,278.4,308.3,269.7,307.6,267.8
		C307.3,266.2,308.2,269.4,307.6,267.8z"/>
	<path fill="#33073B" d="M278.6,278.8c0-0.1,6.6,4.3,6.9,4.4c-1.4,2.2-6.3,10.2-9.3,10C276,290.4,278.3,282.5,278.6,278.8z"/>
	<path fill="#33073B" d="M297.3,281c5.8-0.5,8.2,1.7,7.1,6.6C300.6,286.9,298.2,284.7,297.3,281C299.7,281.2,297,283,297.3,281z"/>
	<path fill="#33073B" d="M354.3,284.1c5.5,1.1,7.9,4.7,12,7.2c-2.2-5.8-0.1-6.4,6.1-1.8c-1.3,16.3-7.5-30.6-4,9.6
		c1.6-0.2-14.6,1.4-15.3-3.2c1-6.7,2.8-6.9,5.2-0.7C356.4,291.7,355.1,288,354.3,284.1C355.7,284.3,354.5,285.1,354.3,284.1z"/>
	<path fill="#33073B" d="M325.5,291.2c0.4,4.6,0.4,13.7,0.9,19.8c-0.1-3.4,1.5-5.1,4.9-5c-4.3,6.4-12.9,39.7-13,48.6
		C310.2,347.3,321.7,300.1,325.5,291.2z"/>
</g>
<rect x="0" y="0" fill="none" width="646.5" height="388.7"/>
<g>
</g>
<g>
</g>
<g>
</g>
<g>
</g>
<g>
</g>
<g>
</g>
<g>
</g>
<g>
</g>
<g>
</g>
<g>
</g>
<g>
</g>
<g>
</g>
<g>
</g>
<g>
</g>
<g>
</g>
</svg>
