<?xml version="1.0" encoding="utf-8"?>
<!-- Generator: Adobe Illustrator 17.0.0, SVG Export Plug-In . SVG Version: 6.00 Build 0)  -->
<!DOCTYPE svg PUBLIC "-//W3C//DTD SVG 1.1//EN" "http://www.w3.org/Graphics/SVG/1.1/DTD/svg11.dtd">
<svg version="1.1" id="Layer_1" xmlns="http://www.w3.org/2000/svg" xmlns:xlink="http://www.w3.org/1999/xlink" x="0px" y="0px"
	 width="646.5px" height="388.7px" viewBox="0 0 646.5 388.7" enable-background="new 0 0 646.5 388.7" xml:space="preserve">
<g id="_x23_33073bff_12_">
	<path fill="#33073B" d="M159.9,10.5c63.2,2.3,118,51.2,109,61.9c-16.5,8.2,26.8,45.6,29.7,36.5c5.9-18.6,22.8-38.3,36.1-7.5
		c33,0.3,32.4-65.7,63.2-58.4c-2.8,1.4-20.1,12.7-14.2,15.9c1.8,0.8,8.2-10.8,13.9-7.8c-3.2,14.3-46.7,80.3-68.9,71.8
		c1.6,0.9-4-23.5-4.5-21.7c-6.1-13-20.3-0.5-17.6,7.7c4.2,3.8,5.8,3.5,4.8-0.9c13.9,0.3,36.8,55.6,15,55.4c0.4-2.3-5.5,23.4-5.9,7.9
		c10.6-1.5-14.3-2.3,5.1-7.6c-5.9,0.6-8.6-1.9-8-7.5c1.9,2.3,3.6,2.3,5.1,0.2c15.8-6.5-43.6-60.1-66.6-44.3
		c7.8-14.7-1.5-32.9-1.5-32.9c-4.9-10.8-6.9,25.4-13.2,20c7.7-15.8,5.4-45.8,5.1-51.3c-13.6,0.1-18.6,3.2-26.9,26.6
		c-5.5-9.6,21.8-31.5-30.9-53.7L159.9,10.5z M308.3,112.1c-3.3,7.8-0.3,11.4,9.1,10.8c-2.3-2.9-3-6.2-2.1-9.7
		C311.1,114.6,310,111.5,308.3,112.1 M320.6,123.3c-1.5,0.3-3.2,1.8-2.1,3.4C319.9,127.1,322.5,124,320.6,123.3 M319.5,130.8
		c-8.6,2.2-10.7,19.1-9.2,22.9C322.5,148.1,319.8,131.8,319.5,130.8"/>
	<path fill="#33073B" d="M328.6,155.5C320.8,155.1,345.7,157.4,328.6,155.5C327.7,155.5,330.3,155.7,328.6,155.5z"/>
	<path fill="#33073B" d="M478.5,51.2c9.1-0.7-4.5,13.4-12.2,12.8C468.7,56.6,472.9,59.4,478.5,51.2
		C479.2,51.2,477.6,52.6,478.5,51.2z"/>
	<path fill="#33073B" d="M400.2,55c3.2-6.7,3.5,19.3-0.1,17.4c-1.3-0.6-2.6-1.2-3.9-1.5C396.4,64,400.2,63.6,400.2,55
		C400.5,54.4,400.2,55.7,400.2,55z"/>
	<g>
		<path fill="#33073B" d="M145.8,68.7c15.6-63.2-58.7-44.1-60.8-43.9c98.2,16.8-20.7,18.7-20.5,18.1c61.9-24.7,57.2-34.2,48.5-28.6
			c3.7,0.5,49.7,19,0,0C166.2,18.6,159.8,72.1,145.8,68.7z"/>
	</g>
	<path fill="#33073B" d="M425.4,59.1c2.3,1,3.7,0,6.8,3.1c-10.4,7.6-13.9,15.8-32,18.8c1.5-7.9,20.2-7.8,19.3-14
		c-0.2,0.1-8.6,3.1-6.2-1.1C416.4,63.6,423.3,63.6,425.4,59.1z"/>
	<path fill="#33073B" d="M262.4,64C266.7,68.8,261.5,65.3,262.4,64C262.4,64,260.7,66.5,262.4,64z"/>
	<path fill="#33073B" d="M492.2,73.2c2,15.7-10.6,13.6-24.9,14.6C471.9,83.5,492.5,77.9,492.2,73.2C492,71.1,492.4,75.5,492.2,73.2z
		"/>
	<path fill="#33073B" d="M194.4,80.9c17.2,5.8-21.5,21.7-20.1,2.3C180.7,82.9,199.8,94.6,194.4,80.9C195.9,81.4,195,82.3,194.4,80.9
		z"/>
	<path fill="#33073B" d="M454.3,90c3.3-1,6.7-2,10-3C460.8,94.4,459.3,90,454.3,90z"/>
	<path fill="#33073B" d="M154.4,99.2c6-0.2,10.7,1.8,14,5.9C167.4,110,153.2,105.1,154.4,99.2C158.3,100.9,154.3,99.7,154.4,99.2z"
		/>
	<path fill="#33073B" d="M415.2,164.5c-0.4,1.5-0.6,2.9-0.9,4.4c-0.8,5.1-4.2,9.4-9.8,9.2c-4.7-0.2-10-4.7-9.2-9.8
		c1.9-11.9,5.2-23.4,13.6-32.5c4-4.3,8.8-7.6,14.1-9.9c2.1-6.1,9.4-19.3,7.8-22.9c-4.3,7-11.1,13.1-16.2,20.3c6-3,6.8-1.1,2.6,5.7
		c-9.1,4.1-27.4,15.9-21.8,33.3c-4.4-0.4-19.5-8.6-25.1-11.3c4.7,4.2,4.4,5.2-0.9,3.1c2.5,3.4,5.5,6.3,9,8.6
		c-12,1.1-42.8,42.5-36,49.5c1.7,3.6,2.7,6.6,3.1,9.2c0.1-1.5,0.2-3.1,0.5-4.6c-1.6-1.7-2.5-4-2.5-6.6c0.2-8.5,3.7-17.6,11.7-21.1
		c0.5-0.9,1-1.7,1.5-2.6c4.1-6.5,10-11.8,17.1-11.8c4.1-5.4,7.1-10.5,7-13.9c-2.2-2.7,9.5,10.4,13.8,19.2c1.8,0.3,3.6,1.1,5.3,2.7
		c0.8,0.8,1.6,1.7,2.3,2.6c4-2.8,6.8-1.7,8.4,3.5c0.6-3.5,10.6-28.5,17.6-30.1c1.1-0.9,2.4-1.8,3.7-2.5c1.2-0.7,2.4-1.3,3.6-2
		c0,0,0,0,0,0c0.4-0.4,1.5-1.8,0.3-0.2c0,0,0,0,0,0c3-3.8,8-5.5,12.5-3c5.4-4.1,13.8-11.1,18.5-14.2
		C457,131.2,431.2,155.4,415.2,164.5z"/>
	<path fill="#33073B" d="M345.2,227.4c0.4-1.6,0.5-3.6,0.1-5.9C345.2,223.4,345.2,225.4,345.2,227.4z"/>
	<path fill="#33073B" d="M354.4,231.5c-2-1.8-3.1-4.5-3-7.3c0-0.2,0-0.4,0-0.6c-2.9,4.3-5,9-6,9.6c-0.1-2-0.2-3.9-0.2-5.9
		c-3.3,12.1-27.2,5.8-28.5,5.8c-4.5,0-20.7,18-23.6,3.2c4.4,0.9,4.7-23.7,4.1-27.1c-7.7-0.8-5.7,26.5-7.1,30.9
		c-3.3-4.2-9.6-11.3-14.8-10.8c-1.3,1.7-1.4,2.9-0.4,3.6c-12.8-3.5-32.7-10.8-40.6-17.1c-2.2,3.7,5.1,10.5,7.1,11.2
		c-3.1-5.3,22,2.4,36.4,13.1c2.6,0.9,5,2.2,7.4,3.9c8.9,6.4,14.2,16.1,15.9,26.9c0.6,3.8,0.8,7.8,0.4,11.6c0.7,1.6,1.3,3.2,1.5,4.7
		c1.3-7.3,1.6-14.6,1-22c16.5,10.3-8.4-18.4-8.8-19.4c6.8,1.7,12.7,4.7,13.1-2.9c2.9,1.8,4.2,4.5,4.1,7.9c3.3,1.6,7.1-7.1,10.8-7.5
		c-2.3,13.2-1.4,25.6,3.1,35.6c0.5-3.5,0.5-7,0-10.6c11,7.9,22.1-10.8,21.9-9.6C358.9,256.3,355.2,238.3,354.4,231.5z M310.5,237.4
		c1.2-0.6,2.4,0.4,3.7,0.1C315.4,240.1,309,240,310.5,237.4z M331.6,261.8c-1.9-8.6-7.1-18.1,3.9-21.4
		C342.4,243,338.6,261.5,331.6,261.8z M342.7,251.9c1.7-5-1.6-6.4-0.5-9.9C347.4,241.1,345.9,252.8,342.7,251.9z M349.3,246.1
		c0-2.4,0.8-4.7,0.1-7C353.3,237.8,353.4,247.2,349.3,246.1z"/>
	<path fill="#33073B" d="M382.3,155.1C385.7,167.2,387.8,154.4,382.3,155.1"/>
	<path fill="#33073B" d="M448.3,109c3-0.6,6.1-1.2,9.1-1.8C457,110.4,443.2,118.6,448.3,109C451.3,108.2,448,109.5,448.3,109z"/>
	<path fill="#33073B" d="M241.5,130.9c5.9,3.5,6.6,9.4,2.1,17.7C241.4,142.9,240.7,137,241.5,130.9
		C242.3,131.6,241.3,134.5,241.5,130.9z"/>
	<path fill="#33073B" d="M242.6,155.1c2.7,1.9,2.9,4.5,0.7,7.9c1.2,0.3,6.5-2.5,7-2.9c2.6,9,19,23.8,11.3,28.9
		c-2.2-7.1-15.4-16.1-16.2-15.9c-7.3-0.9,0.4,27.2-10.4,24.4C237.4,184.9,237.9,164.9,242.6,155.1
		C244.4,154.9,242,156.4,242.6,155.1z"/>
	<path fill="#33073B" d="M324.7,175c12-1,6.1,1.9,2.7,7.9c3.2-0.3,5.5,1.1,6.9,4.2c-2.8-0.3,6.1-7.9,8.3-7.8c-0.4,6-3.1,10.5-8,13.6
		c-3.3-1.4-2.7-2.1,2-2C331.5,181.9,313.8,190.6,324.7,175C325.1,175,323,177.4,324.7,175z"/>
	<path fill="#33073B" d="M266.5,192.8c0.4,0.2,16.8,4.8,5.7,6.6c1.1,1.5,12.2,7.9,12.9,8c-0.3,0.6-9.5,4-11.7,4.2
		C270.9,209.2,267,191.8,266.5,192.8C268.6,193.8,266.3,193.3,266.5,192.8z"/>
	<path fill="#33073B" d="M286.1,223c3.8-3.8,3.2,6.1,3.1,8.3C288.2,228.5,287.2,225.8,286.1,223C286.4,222.7,285.2,226.2,286.1,223z
		"/>
	<path fill="#33073B" d="M306.7,246.9C315.2,252.8,302.1,255.4,306.7,246.9C307.1,247.2,306.3,247.5,306.7,246.9z"/>
	<path fill="#33073B" d="M318.3,266c4.4-1.2,3.6,7.5,2.1,7.2C316.8,271.2,316.1,268.8,318.3,266C322.4,264.9,317.9,267,318.3,266z"
		/>
	<path fill="#33073B" d="M358,274.4c-1.3-0.2,12.8-27.9,0.7,10C358,278.9,355.5,279.6,358,274.4C354.8,273.9,357.4,275.6,358,274.4z
		"/>
	<path fill="#33073B" d="M344.5,276.2C346.3,280.5,345.9,279.4,344.5,276.2L344.5,276.2z"/>
	<path fill="#33073B" d="M323.5,285.9c5.1,9.8,6.7,18.2,3.1,27.5C325.4,299.1,323.1,296.2,323.5,285.9z"/>
	<path fill="#33073B" d="M329.6,292c4.1-2.6-0.7,29.1-1.2,31.5C324,322.7,329,296.6,329.6,292C330,291.7,329.4,293.8,329.6,292z"/>
	<path fill="#33073B" d="M308.3,306.9C314.8,312.9,306.2,322.5,308.3,306.9C310.3,308.7,307.9,309.5,308.3,306.9z"/>
	<path fill="#33073B" d="M334.3,319.3c-3-0.9-4.3-7.4-0.6-8.7C334.6,313.4,334.2,316.4,334.3,319.3z"/>
	<path fill="#33073B" d="M332,327.4C332.9,321.9,334.4,342.6,332,327.4C332.8,322.6,332,327.8,332,327.4z"/>
	<g>
		<path fill="#33073B" d="M84.2,59.4C84.2,59.4,84.2,59.4,84.2,59.4C84.2,59.4,84.2,59.4,84.2,59.4z"/>
		<g>
			<path fill="#33073B" d="M104.3,99.2C101.3,87,94,81.3,85.6,78.3C88.9,81.3,105.7,104.7,104.3,99.2z"/>
			<path fill="#33073B" d="M33.3,84.7c5.2,4.6,52.1,73.8,113.9,68.9C46.9,126.1,47.7,68.2,48.3,69.2c5,7.4,22.8,4.1,37.3,9.2
				c-0.3-0.3-0.5-0.4-0.6-0.3c1.3-1.7,52.3,18.2,60.9,37.5c8.4-16.4-71.2-47.9-75.7-53.6c2.2,0,4.3-0.1,6.5-0.3
				c-2.4,7.7,7.7,0.4,7.4-2.4c-0.7,0.4-19.3,0.7-17.6-5.3c18.6,4.2,4.5-2.2,3.6-7c3.7,1.2-2.5-4.4-5.5-4.3c2.8-3.5,9.6-11,20.5-18.1
				c-8.7,4.1-21,14.6-31.7,20.9C53.6,46.1,25.8,78.1,33.3,84.7z"/>
			<path fill="#33073B" d="M85.1,24.8c81-37.8,78.7,16.5,99.5,23.6l5.2-32.9C140.3-1.4,105.5,11.2,85.1,24.8z"/>
		</g>
		<path fill="#33073B" d="M56.1,55.1C56.1,55.1,56.1,55.1,56.1,55.1C56.2,55.1,56.2,55.1,56.1,55.1C56.2,55.1,56.1,55.1,56.1,55.1z"
			/>
	</g>
	<g>
		<path fill="#33073B" d="M589.6,59c0,0-0.1,0.1-0.1,0.1C589.5,59.2,589.6,59.1,589.6,59z"/>
		<g>
			<path fill="#33073B" d="M479.9,6.6c-95.8,16-101.7,46.4-101.8,46.2c122-65.2,181.7,1.1,106.1,54c59.9-41.9,47.2-75.8,3.2-89.5
				c23.7,3.5,80.1,36.5,52.8,57.3c16.7-18-38.8-66.1-0.8-52.8c0,0,40.2,16.1,15.8,48.2c19.3-33.8-59.8-56.4-9.3-54.4
				c0.9-0.3,38.1,38,26.9,62.8c32-17.8-70.9,56.8-80.3,70.2c150-102.7,57.4-136.9,57.4-136.9C540.8,2.6,506.2,4.5,479.9,6.6z"/>
		</g>
	</g>
</g>
<rect x="0" y="0" fill="none" width="646.5" height="388.7"/>
<g>
</g>
<g>
</g>
<g>
</g>
<g>
</g>
<g>
</g>
<g>
</g>
<g>
</g>
<g>
</g>
<g>
</g>
<g>
</g>
<g>
</g>
<g>
</g>
<g>
</g>
<g>
</g>
<g>
</g>
</svg>
