<?xml version="1.0" encoding="utf-8"?>
<!-- Generator: Adobe Illustrator 17.0.0, SVG Export Plug-In . SVG Version: 6.00 Build 0)  -->
<!DOCTYPE svg PUBLIC "-//W3C//DTD SVG 1.1//EN" "http://www.w3.org/Graphics/SVG/1.1/DTD/svg11.dtd">
<svg version="1.1" id="Layer_1" xmlns="http://www.w3.org/2000/svg" xmlns:xlink="http://www.w3.org/1999/xlink" x="0px" y="0px"
	 width="646.5px" height="388.7px" viewBox="0 0 646.5 388.7" enable-background="new 0 0 646.5 388.7" xml:space="preserve">
<g id="_x23_33073bff_19_">
	<path fill="#33073B" d="M311.9,102.6c34.8-19.8,78.1,93.2,73.1,96.3c-0.6-5.8-10.7-20.9-6.9-23.7c7.5,9,11.8,19.3,13.1,30.9
		c-2-3.1-4.6-3.8-7.8-2c5.3,6.7,7,13.7,5.2,20.9c9.5-8.7-48.8-5.8-18.2-31.7c-0.7-0.1-8.5-36.1-8-41.3
		c-13.2,12.1-33.4-48.9-45.3-43.2c1.7-0.5-43.1,53.4-43.7,58c2.5,5.3,18.3-1.7,13.9-9.9c8.6,1.8,12.6,5.9,11.9,12.3
		c-5.7-2.4-2.6-2.2-6.7-6.4c-4.2-4.4-6.1,28.4-7.1,29.8c-2.2-7.7-0.7-12.6-7.3-15.4c1.2,5,1.8,10.1,1.9,15.2
		c-3.4-0.6-1.2-6.7-5.8-9.1c0.6,0.2-0.1,11.1,0.3,9.9c-4.8,4.4,0.2-9.8-4.5-10.8c-4.6-0.9-4.4,14.5-1.4,11.9
		c-2,3.1-5.7,34.7,3.7,26.5c-0.1,0.5-11.6-21.5-1.8-19c6.3,0.1-3,8.5,4.7,3c1.5,3.6,0.6,5.1-2.8,4.4c4.1,8.7,9,1.1,12.2-1.3
		c2.6,0.9,3.9,2.4,3.8,4.7c-4.8-1-6.5,2.5-5.1,10.4c-6-0.3-2.9-10-6.8-10.7c-5.5,12.8,0.8,8.5-5.8,19.6c0.9,7.6-17.4-19.2-12.4-18.9
		c-3.9-0.3-6.5,7.8-7.4,10.9c-5.5-2.5,5.2-33.3,2.6-34c-1,2.8-3.4,8.6-7.3,9.1c-1.8-20.1,28.3-43.7,31-62.2
		C300.7,129.6,293.5,108,311.9,102.6 M351.5,140.2C342.1,146.7,371.4,143.5,351.5,140.2 M265.1,163.2c-3.8,0.3-9.3,23.2-7.6,25.7
		c4.4-1.7,12.5-27.9,10.9-34C267.3,157.7,266.2,160.5,265.1,163.2 M266.5,175.2c-1.5,0.8-1.5,2.9,0,3.7
		C268.8,179.2,268.8,174.9,266.5,175.2 M255.3,194.1c0,1.8,0,5.4,0,7.1C257.4,199.2,260.1,194.4,255.3,194.1 M371.5,194.2
		c-9.3,6.5,8.1,10.4,6.9,9.7C378.4,201.5,374.1,194.6,371.5,194.2 M370.6,203.4C361.7,204.4,372.9,202.9,370.6,203.4
		C367.6,203.8,371.1,203.3,370.6,203.4z"/>
	<path fill="#33073B" d="M311.9,156.3c3.1-2.1,6.2-4.2,9.3-6.3c-0.5,2.1-1.4,4.1-2.7,5.8c0.1,0.2,23.5,0.3,30.6-1.5
		c6.2,3.4,6.9,7.6,2.1,12.7c7.4-0.9-14.3-8.9-6.1,5.9c-5.7,2.7-8.7,9.7-5,14.8c-10.8,17.4,15.5,25.6,15.1,36.3
		c-5.9,2.1-8.8-0.3-8.7-7.2c0,11.8-1.3,25.7-1.1,30.5c-0.3-4.4,5.2,6.8,4.3-1.3c-2.6-2.3-20.2,50.6-9.8,49.1c-0.2-3.8,1.3-4.8,4.4-3
		c1.2-6.2-6-7.6,1-15.4c3.2,4.9,11.1,45.6,6,39.3c4.6-14.5-1.6-9.7-8.5-21.6c5.9,4.1,3,24.7-2.4,25.9c1.4-5-2-22.2-6.1-26.5
		c-0.2,3.5-0.1,18.6-5.5,19.6c-8.4-1.7-10.2-8.2-5.5-19.6c1.4,3.3,2.6,6.6,3.7,10c2.5,0.7,7.4-23.7,7.1-24.7c-1-2.6-10.1,2.7-7,11.9
		c-7.8,1.9-6.7-42.4-8.3-40.5c-7.7,6.3-0.1,20.8-16.7,6.4c-5.6,6.4,10.8,17.3-4,17.8c-1.1-4.9,0.2-16.4-0.1-22
		c-4.1,4.2-9.2-7.5-16.8-7.9c1.3-1.8,1.6-3.8,0.9-6c3.3,2,6.1,4.4,8.6,7.4c-2.4-12.8,3.2-26.7,3.5-41.5c-2.7,0.1,15.7-11.4,17.9-9.7
		c2.2,5.6-2.6,28.5,10.1,24.9c-4.6-4.1-5.1-7.3-1.5-9.7c2,2.7,3.8,5.6,5.4,8.5c1.9-5.4,5.5-7.7,11-7c-5.7-9-14.8-6.7-21.2-8.5
		c2.9-0.3-2.1-12.3-1.6-13.1c4.5,1.7,7,5,7.5,10.1c4.1-16.4-9.5-15.7-15.6-24.4C310.4,174.5,311.9,161,311.9,156.3 M315.3,164.1
		c1.5-6.1,8.4,1.2,9.1,1C325.9,166.5,311.3,147.3,315.3,164.1 M323.5,166.6c-4.4-1.2-6.1,0.3-5.2,4.6
		C321.8,167.6,334,170.2,323.5,166.6 M328.3,170.1c0.5,6.4-4.9,28.3,6,31C333.8,199.6,339.4,168.2,328.3,170.1 M303.5,207.2
		c-4.9,12.2-5.7,21.8-9,34.9c15.2,2,30.2,1.4,45.8,4c3.3-6.3-0.3-28.9-1.9-32c-12.3,4-13.8,40.3-31,13.2
		C304.6,223,306.4,208.8,303.5,207.2 M311.5,222.4c3.6-2.4,2.9,6.5,2.9,8.5c3.2-0.7,9.1,3,10-3c0.6-4.8-6,1.2-1.9-4.6
		C318.8,222.9,315.1,222.7,311.5,222.4 M328.3,248.9C328.4,249,330.2,245.7,328.3,248.9 M303.5,249.3c-5.1,2.7,8.6,13.9,7,11.7
		C310.9,261,309,249.1,303.5,249.3 M334.3,253.2c-3,1.8-12.3,21-1.2,16.8C341.1,257.7,341.5,252.1,334.3,253.2 M330.6,304.4
		C326.3,306.1,327,313.6,330.6,304.4C328.1,305.4,330.6,304.4,330.6,304.4z"/>
	<path fill="#33073B" d="M285.3,152.2C294.4,157,285,154.2,285.3,152.2C286.7,152.9,285,154.1,285.3,152.2z"/>
	<path fill="#33073B" d="M304.9,162c1.8-3,3.6-6,5.3-9.1C310.4,156.8,310.1,165.1,304.9,162C305.2,158.3,305.4,162.3,304.9,162z"/>
	<path fill="#33073B" d="M354.3,166.1c1.3-3,3.6-4.7,6.8-5C365,168.6,358.5,166.3,354.3,166.1C356.2,164.1,356.5,166.2,354.3,166.1z
		"/>
	<path fill="#33073B" d="M349.5,167.2c5.8-0.7,9.3,2,14.6,3.3c0.1-0.2-4.1,12.8-2.4,12.8c-1-7.6-7.7,2.8-9.5,2.8
		C352.3,179.2,348.2,171.1,349.5,167.2C350,167.2,349.1,168.5,349.5,167.2z"/>
	<path fill="#33073B" d="M290.5,169.2c2.8,0.4,8.4,5.2,2.5,7.7C289.5,178.4,291.5,170.6,290.5,169.2z"/>
	<path fill="#33073B" d="M295,183.1c1-3.3,1.9-6.6,2.9-9.9c0.3,0.7,8.9,19.5,0.4,11.8c-2.4,12.4,5.1,4.3,9,7.1
		c-1.9,4.5-16.2,7-16.9,7C290.5,195.3,292.7,185.5,295,183.1C295.6,179.8,293.2,185,295,183.1z"/>
	<path fill="#33073B" d="M291.6,178.1c3.9,1.5-1,12.7-2.5,14.3C287.8,183.7,288.3,185.4,291.6,178.1
		C293.5,178.8,290.8,179.8,291.6,178.1z"/>
	<path fill="#33073B" d="M303.1,182.3C313.9,167.7,300.9,195,303.1,182.3C303.9,181.1,302.4,186,303.1,182.3z"/>
	<path fill="#33073B" d="M344.5,183c11.4-1.5-1.8,12.3-3.2,12.1C341.9,190.9,342.5,186.8,344.5,183
		C345.5,182.9,344.2,183.6,344.5,183z"/>
	<path fill="#33073B" d="M308.4,183.4C310.5,183.2,311.1,188.2,308.4,183.4C308.9,183.4,308.4,183.4,308.4,183.4z"/>
	<path fill="#33073B" d="M367.2,220C367.2,220.3,365.6,223.8,367.2,220C366.9,218.7,366.6,221.4,367.2,220z"/>
	<path fill="#33073B" d="M270,235.9c2.1-2.3,4.3-4.6,6.4-6.9c1,8.2,3.3,9.7,3.8,16.3C278.1,238.1,272.5,247.8,270,235.9
		C272.6,234.1,270.5,238.3,270,235.9z"/>
	<path fill="#33073B" d="M361,250.1c8.1-3.9,8.6,3.9,9,12.9C364.8,264.5,363.6,253.2,361,250.1z"/>
	<path fill="#33073B" d="M280.4,264.5C275.6,264.9,287.9,264,280.4,264.5C278,264.7,281.1,264.5,280.4,264.5z"/>
	<path fill="#33073B" d="M347.4,265.2c3-1.6,6.8,2.9,5.2,7.1c1.5-2.5,2.2-5.3,2.3-8.2c4.4,1.8,3.6,11.4-1.6,11
		C349,275.4,347.2,268.4,347.4,265.2C348,264.9,347.3,265.7,347.4,265.2z"/>
	<path fill="#33073B" d="M308.3,340c-0.6-17.2-10.5-31.4,3.1-43.8c-0.1-0.1,0.3,43.6,5.7,42.8c2.7-16.1-8.4-52.9-2.8-53.1
		c-7.6,20.2-9.5-28.4-7.1-18.7 M291.2,310.5 M307.2,267.3c22.1,10.7,1.9,62,18.6,71.9c1.1-4.6,0-14.9,6.4-15.2
		c-2.8,4.6-4,9.6-3.5,15c8.2,5.8,5.5-6.7,7.4-10.2c3.6,30.3,6.6-3.5,6.2-0.8"/>
	<path fill="#33073B" d="M363,274.8c1-4.1-3.3-8.9,3.3-6.1C365.9,269.2,365.8,280.7,363,274.8C363.5,272.6,363.2,275.1,363,274.8z"
		/>
	<path fill="#33073B" d="M325.7,320c-2.7-4.7-2-6,2.2-3.8c-1.3,2.6-1.1,4.9,0.6,6.9C322.4,334.1,326.2,322.3,325.7,320
		C320.6,314.8,326.2,322.1,325.7,320z"/>
	<path fill="#33073B" d="M293.5,322C294,321.9,293.6,324.3,293.5,322"/>
</g>
<rect x="0" y="0" fill="none" width="646.5" height="388.7"/>
<g>
</g>
<g>
</g>
<g>
</g>
<g>
</g>
<g>
</g>
<g>
</g>
<g>
</g>
<g>
</g>
<g>
</g>
<g>
</g>
<g>
</g>
<g>
</g>
<g>
</g>
<g>
</g>
<g>
</g>
</svg>
