<?xml version="1.0" encoding="utf-8"?>
<!-- Generator: Adobe Illustrator 17.0.0, SVG Export Plug-In . SVG Version: 6.00 Build 0)  -->
<!DOCTYPE svg PUBLIC "-//W3C//DTD SVG 1.1//EN" "http://www.w3.org/Graphics/SVG/1.1/DTD/svg11.dtd">
<svg version="1.1" id="Layer_1" xmlns="http://www.w3.org/2000/svg" xmlns:xlink="http://www.w3.org/1999/xlink" x="0px" y="0px"
	 width="646.5px" height="388.7px" viewBox="0 0 646.5 388.7" enable-background="new 0 0 646.5 388.7" xml:space="preserve">
<g id="_x23_33073bff_14_">
	<path fill="#33073B" d="M219.9,43.1c26.8-0.7,70,61.8,79.5,59c9.7-2.4,9-16.4,23.6-14.7c8.4,5.6,8.4,10.4,17.4,9
		c-3.3,6.9-2.8,4-2.9,11.6c3.2-1.2,19.1-21.2,3.5-13.6c1-8.2,4.1-10.5,9.3-7.1c-5-14.6,35.7-44.3,56.1-44.2
		c-0.5,6.3-0.7,10.7-2.9,15.2c-1.4-4.6-1.8-9.4-1.3-14.3c-6,3.5-34.7,28.6-35.4,35c-1.1,11.5-36.5,45.1-36.7,43.3
		c-1.6-4.6-0.6-16.4-0.5-16.1c-4.4-11.7-24.4-11.1-19.4-2.4c-14.9,18.4,13.4,23.1,11.9,12.3c-8,2.3-15.6,2.5-16-6.3
		c1.8-2,4-2.9,6.6-2.6c-0.5,2.2,26.5,28.6-6.5,16c-24.3-9.3-55.6-74.7-83.7-65.1c-4.1,3,3.3,6,4,7.7c-24.8-9.4-10.9,8.8-11.2,15.9
		c-3,3.5-47.4,31.8-36.8,43.1c-6.9,0.5-12.6,11-15.2,10.4C152.3,116.5,225.2,50.6,219.9,43.1 M250.3,61c0,1.9-0.1,5.4,1.9,6
		C254,64.6,253,62,250.3,61 M334.6,112.3c-1.1,0.4-2.9,1-2.1,2.6C333.7,117.8,336.5,112.8,334.6,112.3z"/>
	<path fill="#33073B" d="M424.5,50.3c1.5-4.5,60.9,42.5,56.8,64c2.5-13.2-40.9,15.3-46.8,19.8c-1.5-12.9,34.5-29.3,24-41.2
		c-10-11.3-12.4-26.1-29.2-19.9c0.7-4.8-2.6-5.8-7.1-6.2c2.3-1,8.8,3.8,8.7-1.4c7.1-12.6-19.8-2.4-21.5-1.3
		C399.9,62.3,427,47.5,424.5,50.3 M463.4,105c0,3.3,3.5,3.7,4.9,1.2C466.6,105.9,465,105.4,463.4,105z"/>
	<path fill="#33073B" d="M226.1,69c-0.5-3.9,6.9-2.8,4.2,0.1C228.9,69.6,227.5,69.7,226.1,69z"/>
	<path fill="#33073B" d="M396.2,78.1c0.5-5.4,3.5-7.8,9-7.1C404.2,75.4,401.2,77.8,396.2,78.1C395.2,73,398.6,77.2,396.2,78.1z"/>
	<path fill="#33073B" d="M424.2,76c6.3-3.4-1.9,9.9-5.9,9.1C418.3,84.9,423,77,424.2,76C424.7,75.8,423.8,76.3,424.2,76z"/>
	<path fill="#33073B" d="M207.4,86.3c7.6-5.7,2.4,1.6-0.3,4.8C197.8,93.3,205.5,87.1,207.4,86.3C208.6,85.4,206.9,86.5,207.4,86.3z"
		/>
	<path fill="#33073B" d="M430.8,100.2c7.9-6.8-2.8,20.9-4.1,22.1c0.9-1.9-6.1-9-5.7-8.7c-11.7-6.9-34.9,34-32.6,33.5
		c1.1,0.3,7.9-8,11-7.7c1.2,4.5-3,15.5-7.9,8.7c-1.2,11.9,16.1,27.7,4.1,39.1c-1.3-6.5-2.8-16-5.6-21.8c-0.1-0.2-9.2,6.8-6.6-8.8
		c-14.7-0.3,9.3-49.3,28-45.6c0.6,2.5,0.2,4.9-1.2,7C412.7,116.1,431.5,102.2,430.8,100.2C432.7,98.5,432,103.5,430.8,100.2z"/>
	<path fill="#33073B" d="M422.6,130.1c2.5-1.3,5.1-2.6,7.6-3.9c2.7,6.4-11.6,3.9-9.9,12.5C417.9,134.5,421.1,124,422.6,130.1
		C425.1,128.7,422.3,128.7,422.6,130.1z"/>
	<path fill="#33073B" d="M212.3,133.1c35.6-11.9,31.5,25.4,24,47.9C223.3,177.8,262.7,99.2,212.3,133.1
		C242,123.2,260.7,100.6,212.3,133.1z"/>
	<path fill="#33073B" d="M240.5,135.8c14.3,5.8,21.2,22.8,24.1,30.8c-1,0.9-2,1.7-3,2.5C255.4,159.9,240.3,143.9,240.5,135.8
		C242.7,136.7,240.5,136.3,240.5,135.8z"/>
	<path fill="#33073B" d="M400.5,141.1C402.8,133.5,405.8,144.3,400.5,141.1C400.8,140,401,141.4,400.5,141.1z"/>
	<path fill="#33073B" d="M146.3,149c2.8-7.2,7.1-13.4,12.9-18.5c-3.4,3.2-5.6,6.9-6.7,11.3c0.4,6.5,73.5-31,59.9-8.7
		c5.3-4.4,6.9-9.4,4.6-14.8C201.9,113.4,159.9,143.6,146.3,149C147.2,143.1,193.7,130.1,146.3,149z"/>
	<path fill="#33073B" d="M367.7,158.7c12.7,6-13.5,11.7,3.9,12.6c-5,8.2-11.4,34.7-22.2,25.9c1,22.3-3,45,0.9,57c0.1-4,0.4-8,1-12
		c2.2,4.7,2.5,9.8,1.1,15c-5.6-1.8-18.8,13.3-18,18.6c7.1-0.2,3.5-1.7,4.8,5.5c-4.4-0.4-14.5,3.7-16.7-3.3c9,3.7,2.9,0.1,10.7-3
		c-0.3-3.5-14.4-16.9-13.8-26c7.3,2.6,6.5-4.5,13.9-6.1c-22.2-13.5-4.6,24.3-30.9,1.2c1.7,12.5,0.4,20.4,5.1,30.3
		c3.7-2.6-25.3-30.9-25.1-35.4c2.4-0.5,10.6,5.4,16.2,4.8c-11.1-6.7-3.9-8-15.1-16.7c0.3,1.9,0,3.6-1,5.1
		c-3.4,0.5-0.1-14.4,0.8-17.1c-5.5-5.3-7.7-1.6-13.1-7.8c7.3-1.2-2.4-2.3,5.1-6.3c5.4,8.9,15.2,9.8,14.3,22
		c2.7-3.9,5.4-24.9,11.8-24c-0.6,13.1-5.7,25.2-6,38.9c2.8,0.4,63.8,4.5,43.4-18c-2.3,7.1-7.8,6.5-11.5,11c2.3-0.7,4-0.3,5.3,1.4
		c-1.5,10.9-8.6-4.6-8.3-4.5c-0.3,0.8,16.3-13.5,18.1-13c-0.1-3-12.9-29.4,2.4-29.5C348.5,185.3,360.4,155.9,367.7,158.7
		 M355.4,183.2c-1,0.8-8.5,5.8-7.5,10c0.2,1,8.1,0.5,10.5,0.9C353.8,183.3,361.8,188.1,355.4,183.2 M345.5,188.3
		c-1.1,2.9-2.2,5.8-3.2,8.8C348,189.2,349.1,186.3,345.5,188.3 M335.5,244.4c-8.8,4.1-13.2,19.6-0.4,19.6
		C335.3,265.6,335.3,241.6,335.5,244.4z"/>
	<path fill="#33073B" d="M247.5,163c0.2-1.3-3.1-2.3-1.2-2.9C248.7,158.8,250.8,163.9,247.5,163z"/>
	<path fill="#33073B" d="M244.5,161.9c2.2,0.5,7.5,4.8,3.1,7.2C243.5,169,242.5,166.6,244.5,161.9
		C245.5,162.2,245.5,163.9,244.5,161.9z"/>
	<path fill="#33073B" d="M240.2,169.3c9.5,2.2,1.7,15.1-3.9,11.7c-1.7-4.6,6.9-3.4,6.9-3.4C247.1,174.7,239.5,171.7,240.2,169.3
		C241.6,169.7,239.6,171.4,240.2,169.3z"/>
	<path fill="#33073B" d="M267.6,171c8.6,1.3,17,18.1,16.6,26.1c2.4-0.5-19.5,1-10.1,2.3C276.4,188.8,263.1,180.8,267.6,171
		C268.2,171.1,267.3,171.6,267.6,171z"/>
	<path fill="#33073B" d="M260,192.1c1.7-7.1,6.8-14.1,9.9-20.7c4.5,5.7,27.6,34.8,3.3,27.5c-23.4-7.1-7.9-9-11.7-29.8
		c3.2-1.4,25.3,25.5,18.8,28.6C273.1,198.1,266.3,196.2,260,192.1z"/>
	<path fill="#33073B" d="M275.1,246.8c3.7-0.5,7.8,7.4,8.1,8.2C278.2,262.5,267.5,248.8,275.1,246.8
		C276.1,246.6,273.6,247.2,275.1,246.8z"/>
	<path fill="#33073B" d="M312.2,259.1c3.3,0.3,2.8,2.6,2.8,5.1C312.5,264.3,312.5,260.9,312.2,259.1z"/>
	<path fill="#33073B" d="M316.3,279.2c4.9-1.1,5.2,2.3,1,10.1C315.7,286.6,316.5,283.9,316.3,279.2
		C316.8,279.2,316.3,279.9,316.3,279.2z"/>
	<path fill="#33073B" d="M345.3,286.3c-1.3-2.7-3.5-7.5,1.1-6.2C346.6,282.2,346.2,284.4,345.3,286.3z"/>
	<path fill="#33073B" d="M317.5,298.7c-1.8-9.8-0.6-10.6,3.5-2.2C320.1,304.5,318.9,305.3,317.5,298.7
		C316.7,296.1,318.2,300,317.5,298.7z"/>
	<path fill="#33073B" d="M327.4,302c-0.2-3-0.3-6.1-0.5-9.1C327.8,293.9,332.7,303.7,327.4,302C327.1,299,331.2,303.2,327.4,302z"/>
	<path fill="#33073B" d="M314.2,300.1C319.2,300.1,315,307.3,314.2,300.1C314.7,300.1,314.3,301.3,314.2,300.1z"/>
	<path fill="#33073B" d="M297.3,310c4.5,0.8,6.8,1.5,7.8,6.1C300.9,318.7,299.1,312.9,297.3,310C299,310.3,298.1,311.3,297.3,310z"
		/>
	<path fill="#33073B" d="M324.6,312c3.3,1.7,0.2,6.1,0.6,9C320.4,322.1,324.3,314.5,324.6,312z"/>
	<path fill="#33073B" d="M303.4,317.2C314,310.4,299.7,330,303.4,317.2C303.8,316.9,302.5,320.2,303.4,317.2z"/>
	<path fill="#33073B" d="M307.2,331.1c3.3,2.5,5.4,5.9,6.3,10c-2.8,0.6-10.7-0.3-12.5-0.8C310.2,339.6,309.6,339.5,307.2,331.1
		C309.9,330.4,308,333.7,307.2,331.1z"/>
</g>
<rect x="0" y="0" fill="none" width="646.5" height="388.7"/>
<g>
</g>
<g>
</g>
<g>
</g>
<g>
</g>
<g>
</g>
<g>
</g>
<g>
</g>
<g>
</g>
<g>
</g>
<g>
</g>
<g>
</g>
<g>
</g>
<g>
</g>
<g>
</g>
<g>
</g>
</svg>
