<?xml version="1.0" encoding="utf-8"?>
<!-- Generator: Adobe Illustrator 17.0.0, SVG Export Plug-In . SVG Version: 6.00 Build 0)  -->
<!DOCTYPE svg PUBLIC "-//W3C//DTD SVG 1.1//EN" "http://www.w3.org/Graphics/SVG/1.1/DTD/svg11.dtd">
<svg version="1.1" id="Layer_1" xmlns="http://www.w3.org/2000/svg" xmlns:xlink="http://www.w3.org/1999/xlink" x="0px" y="0px"
	 width="646.5px" height="388.7px" viewBox="0 0 646.5 388.7" enable-background="new 0 0 646.5 388.7" xml:space="preserve">
<g id="_x23_33073bff_5_">
	<path fill="#33073B" d="M121.9,43.1c18.7,3.4,27.7,6.1,48.2,0c1.7,3.8,0.2,3.3-2.9,4.2c3,2.7,10.4,16.2,3.2,13.8
		c-4.2-2-5.5-6.7-1.4-9.2c0.2-1.6-29.6,4.2-33.7,4.2c2.9,1.5,3,3.4,0.2,5.5c4.8,3.4,9.8,3.3,14.9-0.4c0.9,5.3-14,11.1-17.3,13.7
		c12,10.7,35.5-11.7,46.5-12.8c-6.4,9.2-38.5,19.7-37.7,24.8c6.7,2.8,14.6-1.9,15.7,10.1c-3.8-2.2-6.9-1.2-9.3,3
		c0.9-0.4,26-2.8,26.2-5c-0.2,4.1-22.4,15.7-24.3,15.4c0.9,9.5,22.2-0.9,24.4-2.3c-0.2,4.2-3,7.6-2.9,11.6c0,2.9-18.4,2.7-20.7,2.8
		c3.7-0.2,8.4,9.7,18.3,5.9c6.8,3.3,10.1-12.2,18.3-5.7c-17.2,3.1-13.5,13-32.1,12.8c0.5-2.2,4.2,8.8,4,7.6
		c-6.6,0-19.5-24.1-11.9-27.7c-6.8-0.9-11.2-0.6-11.1-8.2c4.8-2.1,9.8-2.9,15-2.2c2.4-8.7-31.9-13.7-11.8-25.5
		c-4.4,1.1-13.4-6.4-15.2-9.2c10.9,1-21.1-8.4,12-18.2C136.1,49.4,122.8,46,121.9,43.1 M155.3,117.1c-1.5,4.4,3.4,2.8,6.1,2.9
		C160.3,117.6,158,116.5,155.3,117.1z"/>
	<path fill="#33073B" d="M210.3,43.1c3.1,0.8,12.7,0,12.2,6.7c-6.3-0.6-7.4,6.3-0.1,1.2c1.9,14.3-2.9,0.1,1.9,11.8
		C217.3,64.4,212.7,47.1,210.3,43.1z"/>
	<path fill="#33073B" d="M236.3,43.1c26-6.8,31,46.9,47,65.2c-3.9,0.7-6.9,2.4-8.9,2.8c0,0-3.3-20-8.2-19.9
		c-4.8,0.2,6.6,28.9,5.2,31.9c27.1-5,18.6,21.4,34.7,26.6c1.7-10.1-5.4-25.9,14.3-23.7c0,0,8.1,1.1,9.1,16.9c3-3.2,13.4-5,11-9.2
		c14.1,16.5,24.8-100.9,60.9-90.7c-2,4.7-11.3,13.4,3,5.8c-4.5,10.8-14.5,12.3-16.9,26.1c-19.8,11.2-4.7,22.9-1.9,34.9
		c-5.1-2.9-11.3,9.4-8.7-4.8c14.2,29.8-49.5,47.5-49.7,50c-2.9-1.2,5.9-11.7-2.5-12.2c0.9,10-3,5.6-5.3,6.2
		c-17.2,4.4,9.3,22.7-20.6,7.6c-11-6.9-34.8-48.1-36.8-48.6c-0.7,8.3-3.1,5.8-9.6,6.8c-0.9-7.8,4.1-15.6,10-18.2
		c-4-3.1-13-4.3-16-3.7c-1.6-6.6,6.4-8.4-1.8-12.2c2.4-2.4,7.3,1.1,7.4,0.6C243.3,67.4,241.3,55.4,236.3,43.1 M242.3,51.1
		c0.4,2,1.2,5.2,3.8,5.1C246.3,53.4,246.1,50,242.3,51.1 M388.4,52c2.8,2.9-4.1,2.5-1,5C389.9,56.8,392.2,51.4,388.4,52 M385.6,59.4
		c-0.8,1.9-4.5,7.3-0.5,6.6C385.4,64.2,387.5,59.2,385.6,59.4 M376.6,63.3c-0.6,1.2,0.4,2.4,0.1,3.7
		C379.3,68.1,379.2,61.8,376.6,63.3 M253.2,73.4C254.7,79.3,263.6,74.8,253.2,73.4 M256.4,86c0.8,2,0.9,5.7,3.9,5.2
		C261.2,88,259.4,86.2,256.4,86 M260.5,100C263.3,104.8,256.4,101.4,260.5,100 M367.3,105.1c0.1,6.2-0.1,14.2-1.8,19.2
		C372.5,124,372,104,367.3,105.1 M276.2,132.1c-1.2-2.6,10,13.2,10.3,11c1-2.2,2.1-4.3,3.2-6.4C286.8,132,282.3,130.5,276.2,132.1
		 M311.6,132.4c0.2-0.2-8.1,12.7-1.4,10.7C315.2,133.9,315.6,130.4,311.6,132.4z"/>
	<path fill="#33073B" d="M422.7,43.1C421.2,44.6,416.1,52.3,422.7,43.1C422.7,43.1,421.6,44.5,422.7,43.1z"/>
	<path fill="#33073B" d="M435.4,43.1c13.3,1,10.1,3.9,24,6.2C454,58.8,437.8,44.6,435.4,43.1z"/>
	<path fill="#33073B" d="M496.5,43.1c5.9,0,11.9,0,17.8,0c1.7,6.1-1,9.6-8.1,10.5c2,5.7,7.3-0.6,7.1,7.6
		c-16.3,4.2-29.1,11.4-44.6-3.3c-0.3-2.3,15.8,6.1,18.8,3.4c-2.6,8.1,17.6,6.1,17.9-2.8c-4,1.4-4.4,0.6-1.1-2.3
		c-2.7,0.9-7,2.7-9.6,2.3c-0.3-4.5-4.8-0.9-7.5-7.3c5.7,3,11.1,2.6,16.2-1.2C494,48.1,491.7,45.9,496.5,43.1z"/>
	<path fill="#33073B" d="M526.8,48.8C527.7,40.4,534,55.6,526.8,48.8C526.9,47.6,527.6,49.6,526.8,48.8z"/>
	<path fill="#33073B" d="M422.3,47c0.9-0.3,9,6.5,9,7.5C426,56.4,423,53.8,422.3,47C426.2,45.9,423.6,49.7,422.3,47z"/>
	<path fill="#33073B" d="M461.4,51.3C460.6,51.2,461.4,41.5,461.4,51.3C459.6,51.2,461.4,51.3,461.4,51.3z"/>
	<path fill="#33073B" d="M438.2,48.4C449.4,51,438.2,49.4,438.2,48.4C438.2,48.4,438.3,51.4,438.2,48.4z"/>
	<path fill="#33073B" d="M199.7,51.5C201.5,50.4,192.9,61.6,199.7,51.5C202.3,49.9,198.6,53.1,199.7,51.5z"/>
	<path fill="#33073B" d="M409.4,51.3c5.9,1.1,9,5.2,9.6,8.9C415.3,59,408.8,55.8,409.4,51.3C412.1,51.8,409.3,51.6,409.4,51.3z"/>
	<path fill="#33073B" d="M466.7,60C461.3,43,472.1,68.4,466.7,60C465.9,57.7,466.8,60.3,466.7,60z"/>
	<path fill="#33073B" d="M422.4,54.2c6.2,2.9,5.5,4.1-0.2,6.1c3.7,4,9.2,3.2,7.8,10c-1.6-3.3-14.1-0.5-13.7-9
		C423.2,62.4,419.5,61,422.4,54.2z"/>
	<path fill="#33073B" d="M430.3,60.2c-0.8,0.2-0.1-2.5,7.2-0.8C433.3,67.1,433.3,60.3,430.3,60.2C426.4,61.2,432.3,60.2,430.3,60.2z
		"/>
	<path fill="#33073B" d="M398.3,59c2.9,1.6,8.2,3.6,7,8.1C403.2,64.4,399.5,62.6,398.3,59z"/>
	<path fill="#33073B" d="M412.3,67.6c6.4-14.2-1.9-2.8,8.1,1C414.1,69.7,418.4,67,412.3,67.6C413.4,65.1,412.8,67.6,412.3,67.6z"/>
	<path fill="#33073B" d="M164.3,61C173.9,59.2,162.6,72.9,164.3,61C166.9,60.5,164,62.9,164.3,61z"/>
	<path fill="#33073B" d="M202.4,66.1c4.3-1.6,8.7-3.3,13-4.9C215.4,62.9,203,69.1,202.4,66.1C206.3,63.5,202.7,67.7,202.4,66.1z"/>
	<path fill="#33073B" d="M224.4,62.8C229.4,59.2,217,64.5,224.4,62.8C225.1,62.3,223.9,62.9,224.4,62.8z"/>
	<path fill="#33073B" d="M403.2,68.6c3.8-1.3,6.1,0.7,6.9,3.4C406.7,75.5,404.4,74.4,403.2,68.6C404.7,68.1,405,70,403.2,68.6z"/>
	<path fill="#33073B" d="M141.9,71.6C146.2,68.2,149.5,70.3,141.9,71.6C143,70.8,141.9,71.6,141.9,71.6z"/>
	<path fill="#33073B" d="M446.5,68.9c6.7-1.6,8.1,0.6,4,6.4c2.9-1.2,17.4-3.3,18,6.4c-2.7-0.7-5.3-0.3-7.8,1.1
		c7.3,1.9,12.7,8.1,17.6,11.1c-8.9-5.5-19.5-10.3-31.9-13.9C446.8,81.4,446.6,68.3,446.5,68.9 M453.4,74
		C452.8,83.8,457.7,76.7,453.4,74C453.3,75.7,454.4,74.6,453.4,74z"/>
	<path fill="#33073B" d="M503.5,69.2c4.2-0.8-1,7.5,0.7,10c0,0-9.9-6.7-9.9-7.1C498,70.6,499.9,71.3,503.5,69.2
		C505.2,68.9,501.8,70.2,503.5,69.2z"/>
	<path fill="#33073B" d="M394.4,71.2C398,67.8,399.2,82.6,394.4,71.2C395,70.6,394.9,72.4,394.4,71.2z"/>
	<path fill="#33073B" d="M421.5,70.1c2.4,3.3,5.2,5.2,0.2,7.7C414.6,62.8,424,77.7,421.5,70.1C422.9,71.9,422.6,73.3,421.5,70.1z"/>
	<path fill="#33073B" d="M170.4,72.1C171.6,70.3,181,70.7,170.4,72.1C170.6,71.8,172.3,71.9,170.4,72.1z"/>
	<path fill="#33073B" d="M215,71.8C225,68.3,210.3,81,215,71.8C216.1,71.5,214.8,72.3,215,71.8z"/>
	<path fill="#33073B" d="M465.7,73.4c5.2-1.4,29.5,10.5,28.7,15.7c11.2-6.8,8.9-1.1,18.9-5c0.7,3.1-0.2,5.8-2.6,8.1
		c7.8-2.5,2.6,8.7-0.3,7.9c-0.9-5.6-3.5-7.5-4-12.7c-5.6,0.9-10.5,7-15.9,7.2c-0.1,0.5,6.8,3.7,8.9,2.3
		c-5.1,13.7-4.5,29.7-11.9,33.6c2.9,3.2,5.5,3,8.1-0.5c1.5,8.3-3.6,10-15.1,5c-1.2-5,0.9-5.7,6.2-2.1c-5.1-4.7-8.8-3.7-9.1,2.1
		c-5.1,1.6-6.5,0.3-4-4c-14.1,2.7-5.9,36.2-13.1,14c-20.6-2.7-26.4-20-46.1-33.9c0.4-0.2,28.4,14.8,30.9,16.2
		c6.3,12.6,20.3,1,32.2,2.8c-4.8-9,3.6,0.4,2-4.5c-6.9-1.2-21.3-2.1-22.9-11.5c9.2,7.4,18.3,4.8,27.1,15.9
		c7.2-1.8-11.6-21.6-16.6-26c10.4,4.1,12.3,2.8,23.4-3.4c0.2,0.6-12.4-3.4-9.4-7.5c2.6-3.5,9.6-1.1,10.5-6
		C483.5,87.5,458.5,75.7,465.7,73.4 M483.6,113.3c-0.9,5.7,6.5-2.5,5-4.5C485.2,104.2,480.2,110.6,483.6,113.3 M421.6,117.3
		c-1.9,0.8-0.5,3.9,0.4,4.5C421.9,120.4,424.4,116.5,421.6,117.3 M434.5,130.4c-0.6,1.7,1.8,4.1,3.5,3.5
		C437.9,132.4,436,130.5,434.5,130.4 M441.5,131.1c-2.6,6.9,10,12.6,14.6,11.7C458.7,139.6,444.8,132.2,441.5,131.1
		C440.8,132.8,443.4,131.7,441.5,131.1z"/>
	<path fill="#33073B" d="M166.4,73.2C172.4,73.4,169.4,79.6,166.4,73.2C167.1,73.2,167,74.4,166.4,73.2z"/>
	<path fill="#33073B" d="M410.4,72.8c9.1,1.2,25.5,19.2,27,24.1c-2.3-0.6-5.5,0.7-8.1,1.2c1.5,8.9-2.9,2.1-8.1-3.2
		c2.8-3.4,9.5,6.8,9.9-0.1c2.2-6.5-18.9-14.8-21.6-16c3,3.7,2.6,4.5-1.3,2.2C413.1,79.5,413.8,76.7,410.4,72.8
		C413.2,73.1,409,74.9,410.4,72.8z"/>
	<path fill="#33073B" d="M118.3,75C126.4,80.8,118.2,83.6,118.3,75C120.2,76.3,118.3,76.6,118.3,75z"/>
	<path fill="#33073B" d="M169.1,80.7c7.2,0.3,14-1.2,20.4-4.4C182.2,82.4,171.2,88.8,169.1,80.7C176.4,84.3,169.6,82.5,169.1,80.7z"
		/>
	<path fill="#33073B" d="M235.7,81.9c16.4,5.6-5.5,3.9-3.4,14.3c1.5-1.5,3.2-2.2,5-2.2c4.7,1.6-9.2,7.3-6.3,3.8
		c-2.4,2.3,5.1,7.8-0.7,9.3c-3.5,0.9,0.1-19.6,1.2-19.1c0-0.7-11.2,1.8-11.1,1.9c3.4-4,3-5.7-1.2-5.1c6.9-5.6,7.9-1.4,14.1-0.8
		C228.5,78.1,229.3,77.4,235.7,81.9C239.3,83.1,235,79.1,235.7,81.9z"/>
	<path fill="#33073B" d="M398.5,76c0.4-0.1,18.3,7.1,16.8,12.2c-3.8-0.6-11.7,0.3-4.8,8.4c-1.7,0.4-3.5,0.6-5.2,0.4
		C400.6,90.5,401.3,83.4,398.5,76z"/>
	<path fill="#33073B" d="M489.3,77.1c1.5,1.3,14.6,3.8,3.2,6.4C485.5,83,491.2,80.6,489.3,77.1z"/>
	<path fill="#33073B" d="M152.8,81.4c4.6-3.6,8.4-3,11.5,1.7c-5.7-1.2-6.6,0.1-2.8,4C151.5,87.6,149.1,88.9,152.8,81.4
		C155,80.6,152.2,82.5,152.8,81.4z"/>
	<path fill="#33073B" d="M440.6,81.1c0.6,0.2,4.9,9.4,5.4,9.9c-2-0.1-12.2-5.4-12.9-6.8C436.3,84.8,438.8,83.7,440.6,81.1
		C442.7,81.8,440.2,84.4,440.6,81.1z"/>
	<path fill="#33073B" d="M182.6,85.4c6.7,0.9-5.8,7.6-4.7,6.9C178.5,89.3,180.1,87.1,182.6,85.4C185.9,85.9,181.1,87.6,182.6,85.4z"
		/>
	<path fill="#33073B" d="M194.2,86.1C196.6,79.7,192.3,90.2,194.2,86.1C194.8,84.4,194,86.4,194.2,86.1z"/>
	<path fill="#33073B" d="M156.5,89.1c2.4,0.3,2.9,5.3-0.2,4C154,93.4,156.5,90.2,156.5,89.1z"/>
	<path fill="#33073B" d="M226.6,89.4c3.2,0.1,0,4.5-2,3.5C224.6,91.5,226.3,90.7,226.6,89.4z"/>
	<path fill="#33073B" d="M393,88.8C399.7,90.4,395.7,94.3,393,88.8C394.8,89.2,393.6,89.9,393,88.8z"/>
	<path fill="#33073B" d="M213.6,90.2c5.6-0.5-5.8,9.6-7.3,9.9C206.1,96.7,212.2,92.6,213.6,90.2z"/>
	<path fill="#33073B" d="M449.3,90.2c-0.1,0,7.2,6.2,7,7.9C447.2,99.1,444.9,96.4,449.3,90.2C449.8,90.1,447.9,91.8,449.3,90.2z"/>
	<path fill="#33073B" d="M196.7,93.2c10.5-3.3-16,21.7-15.4,10C183.2,104.7,196.3,96.3,196.7,93.2C198.2,92.7,196.5,94.9,196.7,93.2
		z"/>
	<path fill="#33073B" d="M393.5,94c2.3,2.5,8.6,10.4,12.8,10.9c-2.9,4-7.2,12.2-10.7,13.2c0.9,0.7-6.5-14.9-7.2-13
		c1.8-1.2,12.3,2.6,13,0.1C393.8,99,394.6,101.5,393.5,94C395.4,96,393.7,95.6,393.5,94z"/>
	<path fill="#33073B" d="M245.1,100.9C243.5,89.5,245.7,110.1,245.1,100.9C244.7,97.7,245.2,101.7,245.1,100.9z"/>
	<path fill="#33073B" d="M403.3,97.2c4.5-0.4,4.7,1.6,4,5.8C403.5,104,402.2,102,403.3,97.2C403.8,97.2,404.7,98.9,403.3,97.2z"/>
	<path fill="#33073B" d="M204,99.8c1.7-1.9,0.4,7.4-0.5,9.7C201.3,110.8,203.9,99.9,204,99.8C206.1,97.6,201.7,101.2,204,99.8z"/>
	<path fill="#33073B" d="M248.5,100.2c3,0.3,1,2.6,3,6c-5.3-1.1-7.8,14.2-10.1,15.7c-1.7-4.1-1.1-7.3,2-9.5
		c-6.5,1-16.6,4.5-23.1,9.6c-1.3-3.2,1.2-5,2.7-8.1c2.5,8.3,17.1-11.9,22.1-13c1.1,3.6-0.6,6-4.9,7.3
		C244,106.5,246.8,103.8,248.5,100.2C249,100.2,247.6,101.3,248.5,100.2z"/>
	<path fill="#33073B" d="M213.5,104.6C222,104.1,209.7,110.7,213.5,104.6C214.3,104.5,212.8,105.7,213.5,104.6z"/>
	<path fill="#33073B" d="M217.5,105C221.5,112.9,215.4,108.8,217.5,105C217.5,105,216.5,106.9,217.5,105z"/>
	<path fill="#33073B" d="M406.3,104.9c2.3,2,4.7,4.1,7,6.1C408.6,111.5,407.7,110.9,406.3,104.9
		C409.2,106.2,406.6,106.3,406.3,104.9z"/>
	<path fill="#33073B" d="M445.4,106c4.4,0.3,4.4,5.5,10.3,4.8C451.9,117.9,452.2,116.1,445.4,106C445.9,106,447.5,109.1,445.4,106z"
		/>
	<path fill="#33073B" d="M386.2,113.6c-5.1-10.3,11.1,12,15,14.5c0.3-0.3,3.9-7.4-1.1-5.2c13.4-7.5,27.9,16,40.4,21
		c-8.4,1.3,21.1,16.6,0.6,15.3c5.5,0.5,7.7,3.2,6.6,8.1c0.2,2.7-15.8-1.3-14.3,2.7c3.9,0.4,7.2,0.9,11,0.3
		c-0.5,23.6,0,11.8-12.1,10.8c-0.2,2.2-2.9,13.2,3.8,13.1c2.6-6.4-1.2-3.2,6.1,0.8c-10.1,1.4-1,7.7-1.7,14.3
		c-5.4,4.2-7.4-12.4-5.9-12.4c0.5,1.2-3.3,0.8-5,3.4c3.2-7.9-8.6-5.8-8.7-8.7c0.4,10.2,4.3,2.4,5.7,10.4c-4.3-0.5-8-2.1-11.2-5.1
		c8.1,7.9,10.3,8.6,17,14c-14.9-0.3-6.2-8.2-8,5.2c-10.8-1.3-10.2-12-18-13.2c3.1,8.9,8.1,9.1,11.2,17c-8.1,5.4-3.6-3.2-9.9-1.9
		c2.3,14.4-24,5.5-29.4,6.1c-1.3,9.2-4.5,6.8-10-2.8c8.6-2,9.5,1.1,16.4-2.2c-0.3,0.8-3.7-12.5-3.6-12.3c4.3-0.9,6.8,9.8,7.4,10.2
		c3.3-0.7,6.1-10,5.7-10c0.9,2.6,7.9,12.6,8.7,10.8c7.1-15.2-5.8-16.9-7.8-15.9c4.6-2.3-22.5-16.6,3.5-16.9
		c-0.1,4,17.9,16.5,17.8,18.4c0.7-15-36.6-22.7-31.1-38.7c6.4-0.2,6.5,5.6,10.9,10.5c-2.2-5-0.1-6.5,6.2-4.3
		c-4.7-4-37.4-13.2-25.3-0.7c1.7-7.4,0.5-5.4,7.4-5.5c-3.2,3.6-12.5,22.3-4.1,25.3c-3,1.1-12.8-10.8-14.1-4.9
		c-6.3-13.4,25.7-50.9,24-51.3c-1.9-2.1-4.1-2.3-6.4-0.5c-1.1-6.3,0-8.1,3.5-5.3c-2.4-7.2-4.5-5.7-1.4-10c0.7,3.9,7.7,8.8,7.6,11
		C400.4,126.2,373.6,113.4,386.2,113.6 M408.3,127c-1.7,0.3-1.5,10.9-3.1,12.8c4.8,1.4,22.1,2.4,22.2,12c0,0.4-32.9-3.9-36.2-4.6
		c0,1,17.5,21.5,20.6,24.4c-1.5-1.4-0.3-19.5-11.3-19.9c0.4,5.7,33.1,6.2,39.6,9.2C443.8,146.1,407,132.6,408.3,127 M393.3,160.1
		C392.2,177.5,406.3,158.1,393.3,160.1 M414.3,164c-0.2,2.5,2.3,3.9,4.1,5.2C418.5,166.7,416.1,165.3,414.3,164 M414.3,170.8
		c-0.2,2.6,2.3,4.1,4.1,5.4C418.5,173.6,415.9,172.3,414.3,170.8 M413.5,185.3C412.9,187.5,416.7,186.1,413.5,185.3 M418.4,182
		c1.3,4,4,6.4,8,7.1c-3.3-4.6-3-5.3,1-2C427.5,182.2,422.5,181.9,418.4,182 M412.3,192.1c-0.3,2,1.5,3.2,3,4.1
		C415.8,194.1,414.8,191.5,412.3,192.1 M412.4,204C416.3,213.8,417.4,205.1,412.4,204C413,205.6,413.6,204.3,412.4,204z"/>
	<path fill="#33073B" d="M191.3,115c9.8-5.8-2.7,9.3-5.6,5C186.3,121,190.6,115.4,191.3,115C192.3,114.4,190.3,115.6,191.3,115z"/>
	<path fill="#33073B" d="M246.3,121.8c-0.7,0.1,13.3-5.4,13.3,0.4c-5.4,3.1-9.3-1.9-12.3,6.9c3.8-3,6.3-2.3,7.4,2
		c-13.7,7.2,2.8,18.8-7.4,34.1c3.4-0.1,34.3-20.1,26,11c-0.7-2.5-2.3-3.5-4.7-3c0.9,5.4,4.2,8.7,9.7,9.8c0.4-4.6-1.1-5.2,3.1,0.3
		c-0.9-16.1,38.4,3.2,45,9c-13.7,4.5-6.3,24-9.1,24.9c1.9-3,4.6-4.1,8.1-3.1c1.8-6.2-9.5-12.7,1.2-15.3c0.3,3.2-1.2,5.3-4.4,6.4
		c10.6,1.7,22.6-47.5,35.5-14.9c3.7,9.3,14.8,12.7,13.5,23.1c-0.3-0.2-10.8-4.7-8.8-7.3c-1.7,2.2,5.4,11,1,12.3
		c-2.8-6.6-6.4-12.6-10.9-18.1c1.3-2.1,3.3,23.4,2.7,18.9c-4,1.2-4.6-26.6-11.9-30.9c-0.8-0.3-10.5,14.8-10.6,17.9
		c4.6-1.3,5.9-1.7,7.9-6.2c9.5,0-14.8,25.7-14.1,21.1c14.1,14.2,26.7,32.5,24.5,55.3c-2.1-8.8-5.1,14.5-11.5,15
		c-0.7,37.2-17.9-8.7-19.3-10c-2.6,1.1,18.8,1.6,16,2c9.7,12.9-8.3,100.4-17.9,96.4c-14.7-6.1-10.5-93-28.9-93.5
		c0.2-23.7,9.3-35.8,10.2-53c0.3,9.3,4.9,11.4,13.7,6.5c-0.8,1.8-2.1,2.4-4.1,1.8c8,4.1,21.4,5.9,25-5.2c0.9-2.6-5.3,2.3-4.2-3.3
		c-7.1,0.8-9.3,3-6.5,6.5c-8,1.5-5.5-12.8-14.3-4.3c3.9-10.9-4.6-8.5,5.2-15.9c-9,1.1-10.8-22.6-21.9-15.9c3,10.3-2,4.7-5.2,12.9
		c-6.2,0-2.7-6.2-4.9-5.4c-7.8,2.8-5.6,15.2-2.1-4.6c-6.9-1.2-1.5,30.7-22.4,27.8c-5.5-0.8-30.1-7.8-27.6-14.9
		c-31.1,4.2-3.3-20-9.7-21.8c-4.1,6.2-8,6.9-14.5,8.8c0.2-10,9.3-13.2,4.3-19.2c-2.2,5.5-5.4,9.2-11.4,9.2
		c-2.5-11.2,16.6-20.9,15-26.7c-8.8-0.5-14.4,7.5-21,6.5c-0.1-1.3,34.4-27,40.6-27.8c2.3-5.4,1.1-7.2-3.7-5.4
		c0.7-9.5,9.5,2.4,9.2,4.3C238.6,147.5,243.4,125.2,246.3,121.8 M242.1,149c-4.3-2.4-21.4,12-19.7,18.1c1.3,0.4,26.2-14.2,26-13
		C248.4,153.6,241.9,146.1,242.1,149 M226.4,154.1c-4.3,2.1-7.1,5.5-8.2,10.2C221.3,161.2,224.1,157.8,226.4,154.1 M236.5,162.1
		C233.9,178.2,241.2,160.5,236.5,162.1 M216.3,167.1c2.4,0.8,2.2-1.1,1.9-2.8C216.4,160.7,213.5,167.4,216.3,167.1 M250.2,168.1
		c-3.6,2.5-4.8,5.7-3.7,9.8c1.6,0.7,9.2-1.2,7.7,1.7c-6.6,5.5-14,17.8-21.9,23.7c15.5-0.6,12.6-15.1,21.2-17.9
		c-0.3,3.5-13.3,33.8-11.1,34.1c2.1,5.9,5.5-1.7,8.1-1.2c-3.8-2-5.2-4.3-4.2-7c0,0,14.8-5,15.2-3c0.4-1.1-5.3-4.1-2.8-11.9
		c3.6,2.4,24.7,4.1,23.8-0.9c-3.8-3.6-7.7-4-11.8-1c-1.7-5.6-0.2-15.3-11.3-23.2c4.6,3.8,7.6,3.9,9.1,0.2
		C270.1,166.2,252.8,162.3,250.2,168.1 M220.6,167.4c-2.4,2.7-4.5,5.6-6.3,8.6C221.8,173.8,219.6,168.7,220.6,167.4 M232.5,171
		c-1.2,7.2-17.8,18.3-15.3,25.1C217.5,196,240.3,173.1,232.5,171 M221.5,177.3c-2,3.2-4.4,6-7.1,8.6
		C218.5,190.9,223,176.7,221.5,177.3 M237.3,180.1c0,2.2-0.8,5.2,1.9,6.1C238.8,184.2,240.9,179.2,237.3,180.1 M346.3,185.1
		c-1.1,3,5.3,4.6,4.1,1C350.7,184,347.5,185.5,346.3,185.1 M228.5,187.1c-0.3,2-0.7,4-1.2,6C229.5,192.5,232.3,186.3,228.5,187.1
		 M291.4,194c-3.5,3-7.6-2.1-4.9,3.9c0.2,0.1,6.3-2.1,6.1-0.1C292.3,198,297.1,178,291.4,194 M278.3,191.1c-0.4,3,3.9,3,6,3
		C285.8,189.8,280.9,191.2,278.3,191.1 M298.2,192.1c3.1,4,17.8,9.9,18.1,3.3C310.1,195.3,304.1,194.2,298.2,192.1 M278.6,200.4
		C275.9,200.6,272.1,202.6,278.6,200.4 M300.3,200.1c-0.7,4,1.6,5.7,7.1,5C306,202.1,303.6,200.4,300.3,200.1 M266.3,206.1
		c0.5-0.7-6.9,9.9-6.6,15.9c1.1,0.4,8.6-8.3,11.5-4.7C275.6,207.9,274,204.2,266.3,206.1 M308.5,206.4
		C307.9,206.5,305.8,209,308.5,206.4 M255.3,212.1c1.9,5.9,0.3-4.5,2,6C266.7,219.5,252.2,205.3,255.3,212.1 M320.6,229.4
		C313,231.5,321,229.3,320.6,229.4 M336,244.6c-12.9-1.9-59.7,15-29.6,18.4c0,1.1-16.2,11.1-8.9,14.9c3.4-0.8,26.6-7,29.6-5.7
		c-2.9,10-0.7,16.9,6.6,20.8C338.2,283.9,339.5,240.6,336,244.6 M345.6,256.8c1.7-7.4,0.1,16.6,2.4,10.6
		C346.6,266.1,346.7,254.8,345.6,256.8 M305.3,286c0-1.1,11.1,72.6,15,71.5C334.5,325.1,309.5,286.3,305.3,286
		C305.4,289.1,309.2,286.3,305.3,286z"/>
	<path fill="#33073B" d="M227.9,120.9C228.5,114.9,225.9,128,227.9,120.9C228,120.3,227.6,121.9,227.9,120.9z"/>
	<path fill="#33073B" d="M215.2,123.2C222.4,122.6,221.1,131.4,215.2,123.2C216.9,123.1,215.5,123.6,215.2,123.2z"/>
	<path fill="#33073B" d="M379.6,123.4c4.6-0.4,1,11.1-0.9,11.6C378.2,128.1,375.7,128.5,379.6,123.4
		C381.2,123.2,378.7,124.6,379.6,123.4z"/>
	<path fill="#33073B" d="M212.2,127.3c7.1-0.8,6.2,3.1,5,5.8C211,134.2,214.5,129,212.2,127.3z"/>
	<path fill="#33073B" d="M228.6,128.9c-4.9,30.1-29.6,30.2-52.5,31.8c2.2,1.6,4.4,2,6.7,1.2c-2.5-2.5-2-4.7,1.7-6.4
		c-11.7,4.2-8.7-8.2-6.2-12.3c-4,0.3-7.4-1.1-10.1-4c10.1,0,15.4-0.6,23.2-0.1c-0.6,5.2-9.1,5.6-9,10.9c10.4,3.9,13.7-6.6,20.9-6.9
		c-0.6,5.5-17.3,10-15.8,16.8C204.3,158.3,219.7,142.9,228.6,128.9z"/>
	<path fill="#33073B" d="M253.2,133.3C260.5,129.6,241.8,138.9,253.2,133.3C253.8,133,252.8,133.5,253.2,133.3z"/>
	<path fill="#33073B" d="M253.2,135.9C265,135,251.2,139.9,253.2,135.9C254.6,135.8,252.4,137.5,253.2,135.9z"/>
	<path fill="#33073B" d="M254.3,169.6C261.8,169.5,254,174,254.3,169.6C255.4,169.6,254.2,170,254.3,169.6z"/>
	<path fill="#33073B" d="M188.3,173.2C196.4,179.3,186.3,177.4,188.3,173.2C189.6,174.2,187.9,174.2,188.3,173.2z"/>
	<path fill="#33073B" d="M251.5,174.4c1.3-1.7,5.7,0.4,2.9,1.7C253.4,175.3,250.5,176.5,251.5,174.4z"/>
	<path fill="#33073B" d="M383.1,178.9c3.2-10-0.9,1.2,4.3,0.5c-4.5-0.6-6.2,1-5.1,4.9c0.8,0,6.1-1.5,6-1.2
		C388.8,187.4,370.7,182.9,383.1,178.9C383.6,177.4,381.2,179.5,383.1,178.9z"/>
	<path fill="#33073B" d="M358.4,184C355.7,171.5,369.8,196.5,358.4,184C357.9,181.9,359.4,185.1,358.4,184z"/>
	<path fill="#33073B" d="M386.5,189.6C399,188.7,374.2,195.9,386.5,189.6C387.9,189.5,385.5,190.1,386.5,189.6z"/>
	<path fill="#33073B" d="M367.2,191.9c5.2,1.6,3.7,3,7,7.4c1.3,2.1,5-7,6.1-7.3c-0.9,4.9,0.8,8.7,5,11.2
		C377.7,204,363.2,204.5,367.2,191.9C367.9,192.1,366.7,193.4,367.2,191.9z"/>
	<path fill="#33073B" d="M441.5,201.3c-2.5,1.3-2.8-3.5,2.7-4.4C444.3,205.9,441.1,206.2,441.5,201.3
		C437.9,203.1,441.4,202.7,441.5,201.3z"/>
	<path fill="#33073B" d="M299.9,219.9C299.7,214.4,303.4,213.9,299.9,219.9C299.9,218.2,299.9,219.9,299.9,219.9z"/>
	<path fill="#33073B" d="M354.7,224.3c2.2,0.9-1.5,4.3-2.7,2.1C350.5,224.7,353.8,225,354.7,224.3z"/>
	<path fill="#33073B" d="M342.1,230.7c4.6-1,12.2,0.1,10.7,6.4C349.3,234.6,345.4,233.5,342.1,230.7
		C343,230.5,343.1,231.5,342.1,230.7z"/>
	<path fill="#33073B" d="M309.2,235C308.7,236.2,299.9,227.9,309.2,235C307.4,239.1,309.2,235,309.2,235z"/>
	<path fill="#33073B" d="M357.3,238.9c-2.4,0.2-4.6-3.3-0.9-2.9C358.9,235.1,358.7,237.7,357.3,238.9z"/>
	<path fill="#33073B" d="M316.5,253.6c5.3-0.9,10.6-1.7,15.9-2.6c4.6,25.1-23.5,3.7-24.2,3.1C311.1,255,313.8,254.9,316.5,253.6
		C322.2,256.6,315.3,256.5,316.5,253.6z"/>
</g>
<rect x="0" y="0" fill="none" width="646.5" height="388.7"/>
<g>
</g>
<g>
</g>
<g>
</g>
<g>
</g>
<g>
</g>
<g>
</g>
<g>
</g>
<g>
</g>
<g>
</g>
<g>
</g>
<g>
</g>
<g>
</g>
<g>
</g>
<g>
</g>
<g>
</g>
</svg>
