<?xml version="1.0" encoding="utf-8"?>
<!-- Generator: Adobe Illustrator 17.0.0, SVG Export Plug-In . SVG Version: 6.00 Build 0)  -->
<!DOCTYPE svg PUBLIC "-//W3C//DTD SVG 1.1//EN" "http://www.w3.org/Graphics/SVG/1.1/DTD/svg11.dtd">
<svg version="1.1" id="Layer_1" xmlns="http://www.w3.org/2000/svg" xmlns:xlink="http://www.w3.org/1999/xlink" x="0px" y="0px"
	 width="646.5px" height="388.7px" viewBox="0 0 646.5 388.7" enable-background="new 0 0 646.5 388.7" xml:space="preserve">
<g id="_x23_33073bff_1_">
	<path fill="#33073B" d="M311.9,102.3c-11.6-13.6,19-29.6,15.4-4.2C331.6,105.6,309.7,110.5,311.9,102.3
		C306.7,96.2,311.8,102.7,311.9,102.3z"/>
	<path fill="#33073B" d="M306.9,104.2C314.3,93.1,305.4,120.4,306.9,104.2C308.1,102.4,306.8,105.2,306.9,104.2z"/>
	<path fill="#33073B" d="M329.5,103.2c4.2-2,2.8,5.6-0.9,3.9C328.8,105.8,328.3,104.2,329.5,103.2z"/>
	<path fill="#33073B" d="M310,112.8c9-8.6,32.7,4.9,43.3,5.2c11.5,0.1,11.1,32.1,10.7,32c9.1-17.5,8.2,17.3,8.1,18.3
		c-9.5-21.3-5.8,4.8-6.6,11.9c6.6-1.8,0.5-2.5,4-6.3c3.4,8.8-2.2,37.4-1,49c5,34.6,9.9,28.2,22.8,44.2c0-2.1-18.8,31.7,2.9,33.1
		c-1.8-3.1-1.2-5.6,1.8-7.3c-2.7,6.3,7.6,11.7,10.3,14.4c-4,14.7,7.1,10.7,7,23.9c-2.7,0.8-5.4,1.8-8.1,2.9
		c-7.2,5.7,10.9,7.5,10.5,7.1c-31.2,0-62.5,0-93.7,0c0.9-2.8,36.5-1,40.3-1c-4.8-7.5-13.5-42.6-11.8-46.9c4.2-0.3,6.5,1.6,6.9,5.8
		c-0.4-1.1,3.7-25.4-3.1-23.9c0,1-1.2,24.1-5.5,15.8c-0.1-1.4-8.8-47.8,0.7-47.2c3,7.4-3.8,19.5,1.5,26.6c1.2,1.7-2.2-34.9,2.1-39.5
		c-1.8,1.9,11.7,78.1,12.2,91.4c3-7.8,17.2-11.7,6.9-18.1c-2.3-5.1-11.6-41,0.2-41.1c-0.7,0.7-3.3,11.3,1,8.2
		c3.8-0.6-1.4-12.6-1.6-14.4c-1.9,6.8-4.1,7.5-6.6,1.9c-2.1-5.1-0.4-7.1,5-6.1c-4.7-12.7-1-112-22-116.6
		c16.6-13-47.1-13.2-53.8-12.8c1,11.4-15.3,48.1-16.6,67.2c-1.9,27.1,13.3,74.5-4.8,99.1c-6.1-32.3-28.2,48.8-19.3,43.2
		c7.6-12.7,12.3-15.1,17.5-32.4c-5.2,28.5-3.9,13,7,18c-7.5-3.4,14.7-99.6,12.5-104.3c-1.8-10.3-12.6-57.4-4.6-65.9
		c17.2-18.1,33.1-9.8,57.9-17c-1.6,7.1,4.4,8.1,7.6,12.5c10.5,14.8-2.7,37.1-0.7,54.3c-3.4,14.5-4.4,30.5-1.8,45.2
		c-11.3,0.2-5.5-16.9-6-23c0.3,3.5-7.5,19.9-8,25.6c-7.3,1.9-4,4.1-5,10.4c-0.2-4.7,1.6-7.8,5.5-9.3c0.6,8-2,12.9-0.5,18.2
		c-13.5-3.1-16.8-33.3-10.3-35.7c-48.3-8.4-15.1,43.4-23.9,61.6c-2.6,0.1-11.6-9.3-14.9-10c-0.3,10,3.2,17.3,0.2,26.2
		c-5.7,26.6-1.9,25.8,16.1,33.8c-11.3,0-90.3-1.9-60.2-2.1c-3.2-6.2-13.3-0.9-14.7-10.7c13.3-7.5,18.8-34.9,19.4-35.1
		c12.6-5,27.3-34.8,25.1-47.6c5.9-7.3,6.5-94,3.2-98.8C274.9,143,277.1,109.3,310,112.8 M358.5,127.4c-0.6,1.1-0.8,3.5,0.8,3.8
		C361.4,130.8,360.4,126.9,358.5,127.4 M295.3,146.2c1.1,0.3,19.5,1.6,18-3C316.2,143.5,292.6,145.5,295.3,146.2 M317.5,143.3
		C308.3,147.9,326.7,140,317.5,143.3 M329.6,143.8c0.4,2.2,13.1,3.8,13.2,3.3C345,139.2,330.6,145.8,329.6,143.8 M291.5,149
		c0.2,1.7,0.3,3.4,0.9,5C295.4,155.3,294.4,148.2,291.5,149 M296,158.8c-2.7,9-2.8,30.1-2.7,44.3c10.1,1.2,1.5-22,1-19.1
		c1.6,5.6,6.2-38.6,4-33.9C297.2,152.9,296.5,155.8,296,158.8 M338.7,154.3c-0.9,6.6-8.1,16.8,4.6,16.8
		C343.8,161.4,337.3,150.5,338.7,154.3 M347.4,150.1c-0.1,2.5-0.9,6.3,2.9,5C350.4,152.5,351.2,148.8,347.4,150.1 M369.6,150.4
		c-1.9,0.8-2.2,5.9,0.7,4.7C370,153.9,371.2,149.6,369.6,150.4 M289.5,153.2C274.7,166.9,297,150,289.5,153.2 M318.5,153.2
		C309.3,160.1,331.5,150.5,318.5,153.2 M331.5,157.2c-2.8,1.6,1.3,2.9,2.6,1.5C335.2,157.1,332.6,156.5,331.5,157.2 M317.3,159.1
		c0,3.6,5.5,2.8,8.1,4C323.8,160.4,320.4,159.2,317.3,159.1 M328.5,164.1C330.3,161.1,331.7,170.6,328.5,164.1 M307.2,164.3
		C307.2,168.1,325.9,167.3,307.2,164.3 M304.4,178c2.7,0.8,11.5-3.3,11.8-3.9C308.6,168.4,307.1,172.4,304.4,178 M331.6,171.5
		c-3.7,0.6-4.8,2.7-3.2,6.3C334.8,180.7,337.9,171.1,331.6,171.5 M321.5,174.5c-6,0.5-6.7,1.8-2.2,4
		C324.1,177.2,328.8,174,321.5,174.5 M313.2,181.9c-11.6-4-0.5,8.8,0.2,10c-12.6,2.1-26,35.4-15.6,38.3c34.3,9.5,54.1-46,33.1-49.7
		C331.6,180.7,314.5,185.9,313.2,181.9 M344.1,181.1c-2.2,1.1-7.4-1-5.8,4c6.3-3.6,3.7,7.8,7.3,14.8
		C351.4,198.9,344.9,178.4,344.1,181.1 M293.4,207.1c-0.4,3.3-0.7,6.6-1.1,10C298.2,217,293.4,207.1,293.4,207.1 M292.7,218.3
		c0,1.3,1.8,2.2,1.1,3.7C296.9,222.8,295.2,216.7,292.7,218.3 M333.6,219.3c-4.5,5.2,3.3,7.4,4.8,4.1
		C339.7,218.7,338.1,217.3,333.6,219.3 M288.3,226.1c1,2.8,2.6,5.4,0.1,8C293.7,236.2,292.2,225.5,288.3,226.1 M291.6,235.4
		c-0.7,0.4-3.6,17-3.3,15.7C296.3,250.7,289.9,236.7,291.6,235.4 M287.5,267c-1.5,7.6-0.8,9.1,2.1,4.7
		C289.5,268.1,286.8,258.1,287.5,267 M267.4,267.1c-0.5,2.6-0.2,5,3,4C267.8,270,270.3,266.2,267.4,267.1 M373.5,283.2
		c-1.2,17.3,11.7,11.3,11.5,26.8c-0.1,5-8.1-5.7-7.6-5.8c2,4.1,7.3,27.2,16.8,31.1C399.3,320.8,381.7,281.7,373.5,283.2
		 M358.3,304.1c0,3-1.5,8.4,2.9,8C361,309,363.5,302.5,358.3,304.1 M379.4,325.3c-2.4,1.3,1.4,3.3,2.7,2.5
		C383,326.3,380.6,325.3,379.4,325.3 M269.5,327.4c-0.5,5.7-3,8.4-7.5,7.9c-9.7,4.2,28.9,1.7,16.3,4.8c2.4-7.7-6-0.9-6.7-0.9
		C270,339.1,271.1,329.2,269.5,327.4 M375.9,333.9C384,332,377,340.2,375.9,333.9 M239.3,329.1c-1.3,3.2,2.1,4.1,3.8,1.9
		C243.3,329,240.7,329,239.3,329.1 M388.3,329.3c0.4,2.5,0.7,10.6,6.1,9.8C393.9,333.7,393.6,330.3,388.3,329.3 M256.5,331.2
		c-0.6,2.3-1.4,4.6-1.2,7C257.8,337.5,260.3,330.4,256.5,331.2z"/>
	<path fill="#33073B" d="M320.7,195c2.7,2.5,6.4,0,9.9,3.3c-1.1,0.6-10.8,8.8-10.4,8.9c-1-12.3,2.3-3.3-4.1-2.6
		C312.3,195,321.4,200.8,320.7,195z"/>
	<path fill="#33073B" d="M305.9,235.4c3.9-1.1,5,1.5,3.2,7.8C305.9,242.9,306.6,237.1,305.9,235.4z"/>
	<path fill="#33073B" d="M310.3,239.1c4.5-1.2,1.4,5.4,2,8C310.5,245.8,310.6,241.6,310.3,239.1z"/>
	<path fill="#33073B" d="M310.6,251.4c4.5-2.7,2.7,13.6,2.6,12.8c-3.2-4.5-3.9-4.2-1.9,1C301.7,270.1,303.2,252.7,310.6,251.4
		C313.2,249.8,307.9,251.9,310.6,251.4z"/>
	<path fill="#33073B" d="M297.4,253.2c4.1-0.3,2.5,6.1-1,4.9C297.7,256.5,295.8,254.5,297.4,253.2z"/>
	<path fill="#33073B" d="M385.4,272.2c-1.5-5,8.8-0.1,3,0C387.6,272.2,386.1,272.2,385.4,272.2z"/>
	<path fill="#33073B" d="M132.3,291.4c19.4,5.3,52.4,0.3,67.3,20c-12.3,5.8-38.4-15.3-38.4-14.3C155,296.3,138.3,301.3,132.3,291.4
		C137.9,292.9,133.8,293.9,132.3,291.4z"/>
	<path fill="#33073B" d="M302.3,292c-1.3,11.7,2.7,5.9-9.8,15.3C292.3,310,302.5,291.9,302.3,292z"/>
	<path fill="#33073B" d="M508.3,300.4c-20-4-39.3,9.5-56.5,13.2c-0.1,0.1,11.2-9.5,8.3-9.2c-6.6,3.1-15.5,9.3-22,8.6
		c2.6,2,5.6,2.6,8.8,1.8c-7.5,0.4-13,3.3-16.6,8.7c21.7-0.4,57.8-23.4,71.3-18.2c-1.6-0.6-8.1,10.2-9.3,14.4
		C499.1,317.2,506.2,306.1,508.3,300.4C506.1,299.9,507,303.9,508.3,300.4z"/>
	<path fill="#33073B" d="M316.5,303.3c-13.9,5,26.6,39.2-13.2,37.8c8.2-14,3.9-20.8,5-33.8c9,2.1-2.1,10.3,6,16.9
		C314.3,316.1,314.2,310.6,316.5,303.3 M312.3,331.1c0.2,2.8-1.5,6.9,2,8.1C313.4,336.7,314.4,332.2,312.3,331.1z"/>
	<path fill="#33073B" d="M204.3,320.1c0.8-3.7,13.9,6,13.9,5.8C214.5,327.3,203.6,327,204.3,320.1
		C205.3,315.8,203.8,325.4,204.3,320.1z"/>
</g>
<rect x="0" y="0" fill="none" width="646.5" height="388.7"/>
<g>
</g>
<g>
</g>
<g>
</g>
<g>
</g>
<g>
</g>
<g>
</g>
<g>
</g>
<g>
</g>
<g>
</g>
<g>
</g>
<g>
</g>
<g>
</g>
<g>
</g>
<g>
</g>
<g>
</g>
</svg>
