<?xml version="1.0" encoding="utf-8"?>
<!-- Generator: Adobe Illustrator 17.0.0, SVG Export Plug-In . SVG Version: 6.00 Build 0)  -->
<!DOCTYPE svg PUBLIC "-//W3C//DTD SVG 1.1//EN" "http://www.w3.org/Graphics/SVG/1.1/DTD/svg11.dtd">
<svg version="1.1" id="Layer_1" xmlns="http://www.w3.org/2000/svg" xmlns:xlink="http://www.w3.org/1999/xlink" x="0px" y="0px"
	 width="646.5px" height="388.7px" viewBox="0 0 646.5 388.7" enable-background="new 0 0 646.5 388.7" xml:space="preserve">
<g id="_x23_33073bff_9_">
	<path fill="#33073B" d="M184.4,7.3c8.4-0.5,92.2-3.8,95,12.9c-0.4,3.2-11.1,29.2-0.1,43.1c-1.8-5.2,0.2-7.3,5.9-6.3
		c-0.3,0.5,1.7,6.1,2.2,6.2C274.9,65,294.6,96,279.3,93c4.2,21.5,18.9,29.8,26.4,9.4c17.4-14.7,34.5,9.6,41.5-14.2
		c-21.6-13.1,14.6-46.8,32.4-45.2c-4.7,3.8-12.4,25.5-10.2,32c-4.4,35.2-9.4,39.5-39.8,57.2c1.6-1.1-11.2,33.8-14.5-6.4
		c-24.4,21.4-54.3-57.4-65.7-20.7c0.7-0.3,6.6-4.7,6.2-1.1c-2.6,2.6-5.2,22.3-6,22.2c1.8-3.4,1.1-4.1-2.2-2.1c2-8.1,0.4-1.1,3.7-9
		c-0.7,1.5-13.4,7.7-12.6,7.9c6-7.8,1.4-9-0.2-13c-2.3-9.3,24.9-22.4,24.3-17.1c3.7,0.4,1.6-6.2,1.7-7.8c2.3,1.1,3.5,3,3.8,5.6
		c1.7-8.7-2.6-7.6-7.8-8.9c1.6-13.7,31.7-46.2,17.2-64.6 M268.5,67.2c-4.6,2.3,5.3,17.4,4.3,17.6c4.1-0.7,1.6-6.7,10.4-6
		C283.7,77.6,267,67.4,268.5,67.2 M356.7,73.5c0.8-1-12.2,0.9-10.3,0.8c2.2,2.2,12.7,13.2,12.2,16.9c-5.5-0.3-9.5,2-12.1,6.9
		c4.7,2.1,0.6,7.5,1.1,7.5c-8.7,4.6-15.3,5.7-25,7.7c-0.6,2.3,2.3,16,0.8,19.3c2.1-4.8,37.2-17,34.9-27.5c8-11.8,2.7-24.5,8.1-37.6
		C362.8,69,359.6,71,356.7,73.5 M272.2,86.1c0.3,3.2,8.9,9,5.1,0L272.2,86.1 M257.5,92.5c-4.6,3.1,5,4,3.9-0.4
		C260.1,92.3,258.8,92.5,257.5,92.5 M316.6,100.4c-2.3,1.7-4.7,3.4-7,5C307.7,109.8,326.9,98,316.6,100.4 M323,108.2
		c-3.9,2.5,5.5,4,2.2,1C330.7,109.7,323.8,103.4,323,108.2 M308.5,109.3c-1.8,1.1,0.3,3.3-1,4.9C310.7,115,311.9,107.8,308.5,109.3
		 M316.5,114.1c0,0.4-7,11,0.9,10C313.5,120.7,320.8,115,316.5,114.1 M307.4,126.2c0.8-3.3-2.9-1.6-3.1,2.9c6.1-1.8,8-5.7,5.8-11.9
		C308.4,119.9,307.5,122.9,307.4,126.2 M321.4,137.1c1.2,1.5,3.7,4.5,5,6.1C326.2,139.9,325.6,135.7,321.4,137.1z"/>
	<path fill="#33073B" d="M278.5,43.1C278.3,46.5,274.4,56.4,278.5,43.1C278.5,43.1,277.8,45.4,278.5,43.1z"/>
	<path fill="#33073B" d="M494.1,43.1C508.6,48.2,493.8,46,494.1,43.1C494.1,43.1,493.7,46.5,494.1,43.1z"/>
	<path fill="#33073B" d="M549.3,43.1c3.2,0.4,8.7-2.1,9.2,1.9C549.6,48,546.6,47.4,549.3,43.1z"/>
	<path fill="#33073B" d="M565.4,29.7l-3.9,17.8c3.8,11.2,1.3,15.9-0.1,15.9c-3,12.6-11.6,32.2-31.7,28.9c1.4-4.1,2.5-3.9,4.8-5.8
		c-1.5-0.1-14.4,1.3-14.9,0.7c-2.5-8-5.9-4.4-13.1,3.9c4.6,0.4,9-0.5,13.1-2.8c-5.2,4.2-28.8,17.6-36,15c1.8-2.1,1.4-3.7-1.1-4.8
		c2.3-0.8,4.7-1.6,7-2.3c-1.8-2.8-13.2-0.9-17.2-1c1.3-7.5,36.4-9.8,41-22.8c-8.3,0.8-60.2,14-53.7,29c3.8-3.2-3-6.2,7.5-4.9
		c5.6,2.9-7,6.3-6,6.6c-0.8,1.2,5.7,3,6.4,4c-7.7,1.7-21.1,7.3-20.1-1.9c-4.6,1.5-15.2,6.8-27.7,14c9.9-2.8,20.5-3.6,30.7-3.4
		c6,0.1,11.9,1,17.8,1.8c17.9-8.9,40.7-12,53.2-14.4c-4.4-11.5,9.8-6.1,9.1-3c-1.1-0.4-7.4-1.7-8.3-1.8c0.8,4.8,16.1,2.7,20.7,2
		c-2.3-0.6,3.1-3.6,9.2-6.6c2.6-8,7.1-15,13.2-21c0.2-1.2,1.4-4,0.9-6.7c1-3.6,3.4-5.2,7.2-4.7c-0.4,1-1,3.2-1.9,6
		c3-2.4,6.2-5,9.5-7.4c0.7-1.5,1.5-2.9,2.4-4.2C577.8,45,568.6,31.1,565.4,29.7z M472.4,99.6c2.7-0.1,5.5-0.1,8.2,0
		C479.1,102,473.6,103.1,472.4,99.6z"/>
	<path fill="#33073B" d="M438.4,165.8c-4.2-9.8-4.6-20.5,0.7-30.1c0.9-1.6,1.9-3.2,3.1-4.7c-21.5,14.7-41.1,31.6-41.8,43
		c0.7-0.8,10.6,7.7-2.1-0.1c2.5,27.2,4.4,0.9,9.4,9.4c3.8,6.6-22.6,17-23.5,21.7c-0.5-0.2-3.7-17-7.7-11c-2.3,3.5,1.8,7.8,2,14.1
		c2-2.5,2.5,16.9,11.7,22.1c0.7-8.2,8.3-19.4,7.4-21.2c3,0.2,5.6,1.2,8,2.8c-1.1,0.9,2.9,30.2,3.2,29.6c13.5-11.7-7.4-40.4,7.9-33.2
		c5-12.6,24.5-11.1,18.2-20.5C431.9,183.5,436.3,172.3,438.4,165.8z M408.9,209c-2,0.9-2.3-2.6-1.3-3.7
		C410.3,204.3,408.7,207.7,408.9,209z M428.1,177.1c-2.6,0.4-2.9-4.5-6.4-3c-0.1,3.4,1.1,6.1,3.6,8.3c-2,4.7-37.5-19.9-5-23.5
		c2.7-1.3,5.3-2.6,8-3.9C422.6,168.6,429.8,164,428.1,177.1z M430.5,157.4c2.2,2,5.6-1,4.8,3.8C434.9,164,425.4,160.6,430.5,157.4z
		 M430.3,174.2c-1.5-4.7-0.4-8.4,3.2-11C436.8,166.9,435.7,170.5,430.3,174.2z"/>
	<path fill="#33073B" d="M519.5,100.6C511.7,103.1,533.4,106.7,519.5,100.6"/>
	<path fill="#33073B" d="M388.7,208.3C382.9,218.2,393.3,205.7,388.7,208.3C388.1,209.4,390.9,207.1,388.7,208.3z"/>
	<path fill="#33073B" d="M513.3,47C525.2,47.9,515.8,53.8,513.3,47C515.3,47.1,514,49,513.3,47z"/>
	<path fill="#33073B" d="M94.1,49C96.3,51.2,91.7,49.7,94.1,49"/>
	<path fill="#33073B" d="M496.9,52c-0.7-0.9,17.3,4.7,16.5,5.2c-0.6,2-2,2.7-4.2,2c2.1,3.6,9.1,5,12.8,4.6c-0.7-1.6-1,5.4-0.7,5.3
		C518.5,66.9,493.2,54.8,496.9,52C498.9,54.6,496.5,52.3,496.9,52z"/>
	<path fill="#33073B" d="M528.2,52.3c5.5-3.4,7.8-2.8,6.9,1.8c-1,0.7-13.7,3.7-14.1,3.2C519.1,54.6,532.6,53.6,528.2,52.3
		C530.7,53.4,526,51.6,528.2,52.3z"/>
	<path fill="#33073B" d="M206.5,55.2c8.1-0.1-16.2,18.3-14.8,16.1C194.6,67.4,207,59.9,206.5,55.2C207.2,55.2,206.8,58.1,206.5,55.2
		z"/>
	<path fill="#33073B" d="M106.1,60c-1.5-1.9,11.9-3.9,12-1c-1.7,6.5-28.5,10.7-31.9,13c0-0.2,1.9-8,1.3-8c3,0,11.9,6,13.7,0.2
		C101.1,64.5,81.4,57.9,106.1,60C104.9,58.4,103.1,59.7,106.1,60z"/>
	<path fill="#33073B" d="M146.2,57c2.9,1.6,6,2,9.2,1.2c-0.4-2.7-5.6,9.9-1.5,5.5c-1.3,1.3-5.1,2.4-7.4,3.4
		C145.1,66.2,146.2,57,146.2,57z"/>
	<path fill="#33073B" d="M134.5,59.2c0.7,9.2-32.3,22.4-32.3,15C105.4,76,135,60,134.5,59.2z"/>
	<path fill="#33073B" d="M243.5,61.6c3.4-3.9,15.7,0,10.8,6.7C254.9,61.9,250.6,68.2,243.5,61.6C245,59.9,246.3,64.2,243.5,61.6z"/>
	<path fill="#33073B" d="M229.4,61.3c7.2,2.7,6.2,5.6,12.9,1.7c-0.8,0.2,1.3,4.7,1.8,5.2c0.3,4.4-16.8,4.6-16.8,4.6
		C227.2,70.7,231.2,59.8,229.4,61.3 M231.4,67.1C230.3,81.2,234.9,66,231.4,67.1C231.3,68.8,233.4,66.5,231.4,67.1z"/>
	<path fill="#33073B" d="M489.5,67.5c1.2,0,3.5-0.7,3,1.6C492,71.5,488.4,69.2,489.5,67.5z"/>
	<path fill="#33073B" d="M145.5,69.2C161.9,64,130,88.2,145.5,69.2C147.1,68.7,143.8,71.4,145.5,69.2z"/>
	<path fill="#33073B" d="M254,69.3c2.1-2.6,4.6-2.4,7.4,0.6c-1.7,1.3-8.9,13.4-2.1,15.5c1.2-1.7-15.5,7.4-15.5,7.4
		c-4.8-0.9,13.5-10.9,12.5-8.4c-2.6-2.2-10.8-4.2-10-8.3c2.5,0.3,4.1,1.7,4.8,4.1C252.8,70.7,241.4,71.2,254,69.3
		C255.3,70.5,252.6,69.5,254,69.3z"/>
	<path fill="#33073B" d="M497,69.8C500.5,65.3,505.5,71.7,497,69.8C498.4,68,497.6,69.9,497,69.8z"/>
	<path fill="#33073B" d="M186.3,71c13.6-0.4-3.8,15-4.9,6.2C185.9,77.3,187.5,75.3,186.3,71C188.5,71,188.5,74.6,186.3,71z"/>
	<path fill="#33073B" d="M454.5,71.3c-0.3,0.1,8.5,5,8.6,5.5C459.5,78.2,449.8,74.2,454.5,71.3C456.2,70.5,453.7,71.8,454.5,71.3z"
		/>
	<path fill="#33073B" d="M468.6,71.1c4.1,3.5,7.3-0.4,7.7,5.1c-1.9,0-12.8-1.2-11.5,0.9C463,73.5,464.3,71.5,468.6,71.1
		C469,71.4,468.1,73.7,468.6,71.1z"/>
	<path fill="#33073B" d="M392.3,81.1c2.8-8.7,11.6,1.8,18.2,11C403.5,90.3,397.5,81.7,392.3,81.1C393,78.8,392.8,81.1,392.3,81.1z"
		/>
	<path fill="#33073B" d="M484.5,79.1c10.4-2.4,1,4.7-3.5,4.2C480.3,80.8,484.8,77.4,484.5,79.1C485.9,78.8,485.2,75.1,484.5,79.1z"
		/>
	<path fill="#33073B" d="M97.2,78.2C110,77.4,94.2,77.6,97.2,78.2C99.3,78.1,97.2,78.2,97.2,78.2z"/>
	<path fill="#33073B" d="M151.5,77.1C156.9,78.6,148.2,85.2,151.5,77.1C152.4,77.4,151,78.2,151.5,77.1z"/>
	<path fill="#33073B" d="M133.2,81.8C131.6,75.4,142.9,79.8,133.2,81.8C132.5,79,134.1,81.6,133.2,81.8z"/>
	<path fill="#33073B" d="M236.6,79.3C243.5,75.1,234.1,91.8,236.6,79.3C238.1,78.4,236.3,80.8,236.6,79.3z"/>
	<path fill="#33073B" d="M446.9,82.8c12.5-7.9-2-2.6,9.2-0.4c3.2,5.6-19.7,6.8-24.8,9.6C430.9,90.6,443.6,81.1,446.9,82.8
		C448.9,81.5,442.7,80.6,446.9,82.8z"/>
	<path fill="#33073B" d="M242.5,79.3c12.4,3-14.3,18.1-15,16.6C227,93.3,242.1,83.1,242.5,79.3C244.2,79.7,242.2,82.1,242.5,79.3z"
		/>
	<path fill="#33073B" d="M102.5,108.1c-1.2-1.9-1.9-3-2.3-3.6c0.5,0.5,1.4,0.8,1.1-2.3c1.5,0.8,12.5,4.2,14.5,3.8
		c-2.1,2.4-1.6,4.5,1.6,6.2c-4.7-2.5-9.7-3.5-14.9-3c1.5,0.4,10.6,5.3,12.4,6.7c-1.7-3.5-0.2-4.4,4.6-2.8c-0.4,2.3,0.9,4.6,3,6.6
		c3.1,1.1,6.2,2.3,9.3,3.4c1,0.3,1.9,0.7,2.9,1.1c1.9-0.3,3.4-1.4,4-3.6c-7.8-4.3,2.9,1.8-6.5-7.3c3.8,0.9,18.8,8,18.4,11.9
		c7.3-8.3-23.8-20.3-32.3-20.2c6.8-7.1,16.1-5.4,21.6-15.1c-14,1-28.9,21.3-40.6,4.4c14.2-7.5,19.3-4.4,15.7-8.7
		c-0.6,1.2-3.7,2.5-4.2,0.8c1.1-0.6,2-1.3,3-2.1c0.1,0,0.1,0,0.2,0c-0.6-0.7-1.4-1.5-2.2-2.4c-5.9,5-19.2,5.1-25.1,9.3
		c0.1-0.3,11.5,7.2,12,11.9c-4.8-0.3-11.2-3.4-14-6c13.3-1.1-9.6-6.2-5.9,0.7C80.3,101.2,95.4,106.9,102.5,108.1z"/>
	<path fill="#33073B" d="M125.5,112.2C115,121.4,136.6,111.4,125.5,112.2C123.8,113.7,126.2,112.2,125.5,112.2z"/>
	<path fill="#33073B" d="M382.4,81.3c2.7-0.1,7.9,2.2,7.8,5.4C387.2,87,381.8,83.8,382.4,81.3C384.1,81.3,382.3,81.8,382.4,81.3z"/>
	<path fill="#33073B" d="M381.3,89c6,4.2,8.7,20.3,13.9,15.4c0.7,0.4-2.2,20.9-4.2,9.5c-7.9,9.4-2.4,20.3-15.6,11
		c1.9,6.7-0.1,9.1,5.7,14.1c18,17-2.4,12.5-5.8,18.8c-6.9,10.8,15.3,30.1-6.6,30.3c0.7,5.5,3.3,10,8,13.5
		c-0.8,1.8-17.2-8.8-9.5-18.6c0.6,4.1,5.2-6.3,7.2-4c-2.1-1-4-2.2-5.7-3.7c-1.6,11.3-4.2-3-6.1,8.9c-1.1,1.3-6.5-6.4-6.2-6.2
		c-0.4-0.3-1.1,13.5-5.1,15.6c-8.6-2.2-2.9-17.6-3.1-18.1c-10.6,0.3-8.6,11.3-19.8,8.4c4.6,9.5,17.4,11.1,10,22.9
		c4.8,0.4,2.8-1.2,8.8-1.6c-1.7,6.9,1.1,7.3-4.7,7c4.6,9.4,3.1,8,1.9,19.9c13.3-1.2-0.8,23.9-1.7,31.8c5-1.1,20.3-7.5,23.7-4.7
		c-4.5,7.4-30.9,14.8-36.1,12.8c5.3,3.5,4,4.8-3.8,3.8c-3.8-3.4-3.9-14.2-5.1-18.7c5.6-1.6-16.5,0-13.2,1.4
		c21.2,51-20.6,9.1-5.7-0.2c-15.8,0.2-22.3-13-22.6-22.3c7.8-1.8,4.4,1,11.5,1.3c1.1-3.7,8.4-27.3,8.1-33.1
		c-7.9,0.7-22.1-16.3-21.3-13.9c-5.9-3.2,6.6-10-0.9-14.4c2.7,1.4,4.8,0.9,6.4-1.6c-7,1.2-6.7,1.5-15,2.8
		c-2.6-13,13.2-27.3,6.7-16.1c3.2,0.4,19.5-23.7,15.1-5.9c6.6-5,31.7,7.6,45.7,6.7c8-6.6,13.8-29.4,23.4-8.8c3-1.2,5.3-3.2,6.9-6.2
		c-0.1,2-3.9-5.9-3.6-10.2c0.7-10.6,20.6-21,21.4-16.1c-0.1-0.5-26.8-31.4-7.5-22.6C371.8,115.2,384.4,100.6,381.3,89 M382.3,106.1
		c1.6,6.2-0.1,6.9-5.1,2c1.5,3.2,3.8,5.1,6.8,5.9C386.4,110.5,385.8,107.9,382.3,106.1 M369.3,129c-4-0.7,1.8,26.3,9,24.1
		C377.9,146.9,371.8,122,369.3,129 M369.6,149.2c-0.7-5.2-1,11.8,0.6,7.4c-0.5-3.1,0.9-3.6,4.2-1.5
		C374.6,158.9,369.3,147.9,369.6,149.2 M349.6,157.4C346.5,156.8,348.5,157.7,349.6,157.4 M363.3,157c0.3,1.7,0.8,3.3,1.2,5
		C368.1,163.1,365.2,157.5,363.3,157 M358.4,164.7c3.2,1.8,5.8,4.3,7.9,7.5C360.9,159.7,356.9,163.6,358.4,164.7 M297.3,162
		c-1.1,3.3,1.5,3.4,4.1,3C300,164.1,299.4,161.8,297.3,162 M351.4,165.1C358.2,159.2,350.7,169,351.4,165.1 M277.3,165.1
		c-2.5-2.6,3.6,10.9,4,2.9C282.3,162.6,281,161.6,277.3,165.1 M345.4,165c-0.4,1,7.7,12.5,7,12.2C352,170.7,344.8,163.6,345.4,165
		 M292.6,164.4c-4.5,17.8,4.9,31.8,7.7,41.8c3.2-5.2,7.6-6.2,13.1-3c-4.4-1.5-7.7-4.1-10-8c3.9,0.1,7.3-1.3,9.9-4.1
		c-4.6,1.4-18.5-12.9-14-17c-10-3.8-1.1,2-4.7,5.4C288.1,175.3,297,166.8,292.6,164.4 M325.3,166c-0.7,3.9,9.1,4.4,10.8,3.8
		C332.6,168.2,329,166.9,325.3,166 M368.5,167.3c-2.6,1.2,0.5,3.1,1.8,3.9C370.1,169.6,371.4,165.9,368.5,167.3 M302.3,168.1
		c-0.3,4,8.4,4,8.1,0C307.7,168,305,168,302.3,168.1 M313.3,170.1c0.2-0.5,5.7,5.1,5.3,4.9C323.6,174,313.4,165.9,313.3,170.1
		 M332.5,173.2c-1.5,0.8-1.5,2.9,0,3.7C334.8,177.2,334.8,172.9,332.5,173.2 M304.3,174.1c0.1,1.9,0.3,5.5,3,5
		C307.4,176.5,308.2,172.8,304.3,174.1 M315.5,180.2c-3.4,3.1,3,1.6,4.9,1.8C319.8,179.8,317.4,179.9,315.5,180.2 M307.5,181.5
		C304.2,186.7,320,181.3,307.5,181.5 M320.7,185.6c-1.1-0.1-5.3,1.3-2.4,1.6C321.3,187.1,331.2,184.1,320.7,185.6 M318.4,190.4
		c-3,2.6,2.9,3,3.6,1C320.8,191,319.6,190.5,318.4,190.4 M323.3,191.1c0.9,1.9,4.1,1.6,6,2.1C330.3,189.5,325.3,191.6,323.3,191.1
		 M330.3,199.1C330.8,205.6,333.5,203.9,330.3,199.1 M334.3,199c-0.9,3.4,2.2,4.7,5,4.1C339.1,199.7,336.1,201.1,334.3,199
		 M315.3,201.1c-0.6,2.9,3.5,1.9,4.9,3.9C323.6,202,317.7,200.6,315.3,201.1 M324.3,212.9c3.9,0.4,6.6-1.2,8.2-4.8
		C332.4,208.3,323.2,199.5,324.3,212.9 M314.6,208.3c-23.5,16.5-18.9,5.8-20.1,39.7c-4.5-13.2,55.5,12.6,40.7,17
		c4.6-9,10.2-43.7,3-49.7c-4.6,0.6-17.2,14.4-18.7,2.7c3,1.8,5.6,1.4,7.7-1.1C327.5,216,317.8,208.2,314.6,208.3 M284.3,241.3
		c1.7,1.6,2,8.8,5,9.9C296.9,248.1,287.3,241.4,284.3,241.3 M306.3,264c-1.2,2.3,0.7,12.3,3.9,12C314.3,270.1,313,266.1,306.3,264
		C303.9,268.8,308.7,264.8,306.3,264z"/>
	<path fill="#33073B" d="M502.5,94.2c3.2,0.3,0.6,4.4-1.2,5C501.4,97.5,500.8,95.3,502.5,94.2z"/>
	<path fill="#33073B" d="M106.2,99.9c1.3-4.1,4-5.4,8-3.7C111.7,97.8,109,99.1,106.2,99.9C106.4,96.4,107.6,99.5,106.2,99.9z"/>
	<path fill="#33073B" d="M206.3,110c2.7-2.3,5.5-4.6,8.2-7c-0.9,12.9-15.8,15.5-20.1,25.9c7.1-1.1,8.6,4.5,7.9,9.7
		c-7.5-1.3-16.8-0.1-26.9-4c-0.3,0.8,19.2-5,18.1-4.8C189.5,122.2,196.6,117.6,206.3,110C209.1,107.8,204.6,111.4,206.3,110z"/>
	<path fill="#33073B" d="M402.7,104.1c1.6,3.4,1.1,6.5-1.8,9.2c-1.9-0.6-3.9-1.2-5.8-1.9C399,110.4,401.6,108,402.7,104.1
		C407,106.6,402.3,106.1,402.7,104.1z"/>
	<path fill="#33073B" d="M412.5,104.2c3.6-1.4-1.9,3.4-1.1,6.9C402.6,107.6,408.4,106.6,412.5,104.2
		C413.7,103.7,412,104.5,412.5,104.2z"/>
	<path fill="#33073B" d="M177.1,107c5.1-8.5-10.3,25.7-15.7,14.5c9.8,1.9-5.1,11.7-6.3-0.3C157.9,122.1,176.8,108.4,177.1,107
		C177.4,106.6,176.7,108.5,177.1,107z"/>
	<path fill="#33073B" d="M423.5,106.2C422.2,114.3,421.9,106.4,423.5,106.2C423.5,106.2,420.4,106.6,423.5,106.2z"/>
	<path fill="#33073B" d="M419.5,108.3C418,116.4,416.5,110.1,419.5,108.3C419.5,108.3,417.6,109.4,419.5,108.3z"/>
	<path fill="#33073B" d="M254.1,111c1-0.7,2.1-1.4,3.1-2C262.8,107.8,253.1,117,254.1,111z"/>
	<path fill="#33073B" d="M430.5,109.1c7.3,0.7-11.3,54.9-40.3,39.7c4.2-4.6,1.3,3.6-0.3-5.5c14.7,3.6,26.1-13.6,25.3-20.6
		c4.2-3.3,6-1.8,5.3,4.5C426,124.2,429.8,114.8,430.5,109.1C432.7,109.4,430.4,109.6,430.5,109.1z"/>
	<path fill="#33073B" d="M169.5,119c4.5-0.1,1.7,4.6-1.3,4.2C169.2,121.9,170.5,120.6,169.5,119z"/>
	<path fill="#33073B" d="M232.4,127.1C232.3,124.2,232.1,128,232.4,127.1C232.3,124.6,231.5,129.6,232.4,127.1z"/>
	<path fill="#33073B" d="M385.5,128.7c5.5-2.6,16.1,12.3,14,17.5C392.3,144.3,382.5,135.7,385.5,128.7
		C386,128.5,384.9,130.1,385.5,128.7z"/>
	<path fill="#33073B" d="M163.5,130.1c7.9-2.9,11.6-1.7,11,3.7C174.4,130,160.3,144.2,163.5,130.1
		C166.4,132.7,163,132.1,163.5,130.1z"/>
	<path fill="#33073B" d="M246.7,132.2c10-2-21.3,39.7-19.4,14.8c-3.1,4.7-7.7,6.7-13.8,6.1c-0.3,3,12.5-21.2,16-19.3
		c1,1.3,1.5,2.7,1.8,4.2c-1.6,1-9-1.7-4.8,4.8c4.2,2.6,11.8,0,12.8,0.2C240.7,141.3,246.1,134.7,246.7,132.2
		C248.4,131.9,246.1,134.7,246.7,132.2z"/>
	<path fill="#33073B" d="M311.3,139.1c-4.5,1.8-5.9,0.6-4.2-3.6C311.3,128.2,313.6,139.2,311.3,139.1
		C303.9,143.8,313.6,139.2,311.3,139.1z"/>
	<path fill="#33073B" d="M162.2,138.8C155.6,145.9,163.1,128.4,162.2,138.8C160.4,140.8,162.2,138.5,162.2,138.8z"/>
	<path fill="#33073B" d="M214.4,140.9C224.9,145.8,214.4,141.8,214.4,140.9C215.6,141.5,214.6,144.1,214.4,140.9z"/>
	<path fill="#33073B" d="M312.7,141.6c11.8-2.8,11.6,9.8,8.4,16.1C311.1,157.9,309.3,149.3,312.7,141.6 M313.2,145.1
		c-1.2,1.8,7.8,5.6,6.9,5.9C321.7,145.9,313.2,144.5,313.2,145.1C312.6,146,313.3,143.1,313.2,145.1z"/>
	<path fill="#33073B" d="M217.3,187.2c5.9-5.6,26.1,12.6,20.8,16.1C230.7,201.1,215.9,192.5,217.3,187.2
		C220.2,184.4,216.9,188.5,217.3,187.2z"/>
	<path fill="#33073B" d="M299.6,187.4c2.4-2.1,1,4.9,1.6,6.5C298,197.5,296.4,188.6,299.6,187.4z"/>
	<path fill="#33073B" d="M357.3,192c-1-4.6,17.1,41.5,16.8,41.2c9.1,8-20.1,29.6-21.9,13.9c3.6,6.2,25.7-20.6,8.3-32.9
		c0,0.7-5.5,12.7-6.3,12.8C355.6,214.8,364.8,205.7,357.3,192z"/>
	<path fill="#33073B" d="M355.5,195.1c3.7,0,1.6,12.2,1.7,16.2C341.6,205.3,356.9,204.3,355.5,195.1
		C356.1,195.1,355.6,195.8,355.5,195.1z"/>
	<path fill="#33073B" d="M268.6,203.5c2.1-1.8,14-2.7,13.8,2.6c-17.3,2.4,3.7,8.4-14.3,7.9C268.3,210.4,268.4,207,268.6,203.5
		C270.2,202.2,268.5,206.1,268.6,203.5z"/>
	<path fill="#33073B" d="M345.9,211.5C346.8,208.2,348.1,209.9,345.9,211.5C346.1,210.7,345.9,211.5,345.9,211.5z"/>
	<path fill="#33073B" d="M279.3,226.3C287.5,229.8,262.8,236.5,279.3,226.3C279.6,226.5,277.4,227.5,279.3,226.3z"/>
	<path fill="#33073B" d="M393.8,231.1c1.4-3.6,4-5.1,7.8-4.4c-0.8,1.2-18.5,23.9-18.5,22.4c0,2.3,8.5,3.6,3.3,6.9
		c-3.7-4.6-16.5,6.3-20.9,2.5C371.6,250.5,389.3,242.1,393.8,231.1C395.1,228.2,393.3,232.2,393.8,231.1z"/>
	<path fill="#33073B" d="M279.5,239.5c-0.9,1.1,0.2,7.1-9,9.6C269.4,241.2,275.3,244.2,279.5,239.5z"/>
	<path fill="#33073B" d="M99.6,27.2c14.1-5.3,39.3-14.9,68.7-20.6C146.8,8.8,119.3,17.7,99.6,27.2z"/>
	<path fill="#33073B" d="M131.5,73c2.6,5.4,6.7,12.7,8,18.9C142.6,85.6,139.4,78.7,131.5,73z"/>
	<path fill="#33073B" d="M76.7,99.4c4.3,3.4,8.8,5.3,13.8,7.5c3.1,1.4,5.7,3.3,7.6,5.7c11.5,2.2,22.9,6.6,33.7,10.5
		c8,2.9,15.4,6.7,21.2,12.2c6.2-0.3,13.3-0.8,21.5-1.4C132.2,122.2,99.9,109.8,76.7,99.4z"/>
	<path fill="#33073B" d="M108.1,81.8c-0.3-0.3,24.5-12.2,21.5,2.9c1.3-1.7,53.9,10.1,62.5,29.4c8.4-16.4-71.2-47.9-75.7-53.6
		c26.7-3.4,49.2,2.4,61.2,11c-4.7-9.6-5-13.1,22.3,6.4c-20.7-31.3-59-17.4-87.3-25.2c18.6-6.9,77.4-7.4-17.2-17.6
		c0,38.5-6.8,19-9.8,19.2c-2.8-3.6-7.9-9-5.6-15.7c-3.7,3.6-7.1,7.5-10.1,11.8c-2.4,6.2,0,13.1,5.3,20.2
		C77,69.1,84.6,70.4,108.1,81.8z"/>
	<path fill="#33073B" d="M137.2,14.2C319.3-7.4,243,12.2,273,55.2l-7.2,24.3C255.8-7.8,157.6,0.7,137.2,14.2z"/>
	<g>
		<path fill="#33073B" d="M540.2,74.6c13.3-10.2,6.7-23.2-6.3-34.3C540.5,52.2,547.7,66.4,540.2,74.6z"/>
		<path fill="#33073B" d="M558.7,64.7c-1.3,1.7-2.5,3.5-3.5,5.3C556.5,68.2,557.7,66.4,558.7,64.7z"/>
		<path fill="#33073B" d="M566.3,70c4.8-25.4,29.9-29.8,29.9-29.8c0-18-90-35.7-116.3-33.7c-95.8,16-101.7,46.4-101.8,46.2
			c122-65.2,181.7,1.1,106.1,54c59.9-41.9,47.2-75.8,3.2-89.5c12.1,1.8,32.8,11.3,46.5,23c-8.1-14.5-15.4-25.7,5.5-18.4
			c0,0,35.7,14.3,19.3,42.9c12.8-16.9,17.4-35.2,30.2-35C571.2,29.7,561.7,60.5,566.3,70z"/>
	</g>
</g>
<rect x="0" y="0" fill="none" width="646.5" height="388.7"/>
<g>
</g>
<g>
</g>
<g>
</g>
<g>
</g>
<g>
</g>
<g>
</g>
<g>
</g>
<g>
</g>
<g>
</g>
<g>
</g>
<g>
</g>
<g>
</g>
<g>
</g>
<g>
</g>
<g>
</g>
</svg>
