<?xml version="1.0" encoding="utf-8"?>
<!-- Generator: Adobe Illustrator 17.0.0, SVG Export Plug-In . SVG Version: 6.00 Build 0)  -->
<!DOCTYPE svg PUBLIC "-//W3C//DTD SVG 1.1//EN" "http://www.w3.org/Graphics/SVG/1.1/DTD/svg11.dtd">
<svg version="1.1" id="Layer_1" xmlns="http://www.w3.org/2000/svg" xmlns:xlink="http://www.w3.org/1999/xlink" x="0px" y="0px"
	 width="646.5px" height="388.7px" viewBox="0 0 646.5 388.7" enable-background="new 0 0 646.5 388.7" xml:space="preserve">
<g id="_x23_33073bff">
	<path fill="#33073B" d="M295.6,225.5c0.6,13.6,3,32.8,4.6,45.5C301.8,257.1,299.3,241.4,295.6,225.5z"/>
	<path fill="#33073B" d="M289.5,281.3c1.2,8.1-0.9,16.5-4.5,23.8c-4.7,9.5-11.7,16.5-19.9,22.4c0.7,5.8,6.2,14.9,8.4,21.7
		c-0.2-3.2-0.2-6.4,2.4-7.5c-4.4-4.4-9.4-9.9-9.3-10.4c3-4.9,6.5-5.8,9.7-1.3c5.7-16.8,25.3-46.5,25.4-46.7
		c-0.1-1.7-0.7-6.3-1.5-12.3c-1,8.2-3.4,15.8-8,22.3C291.9,290.9,290.9,286.7,289.5,281.3z"/>
	<path fill="#33073B" d="M272.2,357.4c2.6-1.3,2.5-4.4,1.3-8.3C273.7,352.5,274.1,356,272.2,357.4z"/>
	<path fill="#33073B" d="M278.6,341.1c-1.1,0-2,0.2-2.8,0.5c3.1,3.1,6,5.7,6.5,5.5c-1.7-8.5-3.8-14.1-6-17.2
		C274,336.8,273.9,341.6,278.6,341.1z"/>
	<path fill="#33073B" d="M272.2,357.4c-0.8,0.4-1.9,0.6-3.3,0.6C270.4,358.2,271.4,358,272.2,357.4z"/>
	<path fill="#33073B" d="M368.5,141c0-0.2,0.1-0.3,0.1-0.5c-0.5-1.1-1-2.1-1.5-3.2c-2.4-5.9-3.6-12-4.4-18.3c-0.4-0.5-0.8-1-1.1-1.5
		c-0.3-9.9-12.2-9.7-21.8-10.2c28.6,13.2,28.5,84,22.5,134.4c0.9-1.9,1.8-3.5,2.8-4.8c0.1,1.2,0.1,2.8,0.1,4.6
		c1.5-2.6,3.2-5,5.1-7.4C369.7,200.6,372,173,368.5,141z"/>
	<path fill="#33073B" d="M318.4,171.3c0.1-3.6-2-3.2-5.1-0.6C316.1,171.3,318.9,171.6,318.4,171.3z"/>
	<path fill="#33073B" d="M277.1,227c0.3-8.1,0.2-15-0.3-19.6c-0.7-6.8-2.1-13.3-3.5-19.8C272.7,198.2,274.5,212.4,277.1,227z"/>
	<path fill="#33073B" d="M355.2,282.7c-0.3,1.3-0.7,2.5-1,3.5c-10.9-10.4-4.5-26.4-8.6-40.1c-1.2,0.7-2.4,1.4-3.7,1.9
		c4,21.5,5.7,61.6,14.9,81.4C355.1,316.6,354.4,299.1,355.2,282.7z"/>
	<path fill="#33073B" d="M370.1,341.1c-5.7-0.2-9.9-4.6-13.2-11.6c1.3,9.2,3.1,16.1,5.4,18.6c2.4-1.1,7.8-3.1,10.7-4.7
		C372,342.6,371,341.9,370.1,341.1z"/>
	<path fill="#33073B" d="M328.2,103.5c0.8-2.9,2.9-4,6.5-3.3c-4.6-2.1-8.2-11.8-8.1-16.5c0.4-16.3-24-6.8-14.4,7.1
		c7.8,6.9,14.9-8.1,13.9,8c-9.5,6.9-43.3-5.3-48.2,18c-3,10.2-5.9,15.9-7.8,28c-3.1,15.3,0.1,28.8,3.1,42.7c0.3-4.6,1-8.5,2.3-11.4
		c-2.3-40.1,7.6-52.2,35-65.8c7.1-3.5,13.3-5.2,18.8-5.2C328.9,104.6,328.5,104.1,328.2,103.5z"/>
	<path fill="#33073B" d="M346.3,226.4c11.9-21.9-0.1-64.7,10.4-89.3C346,97.8,317,136,305,120.1c-37.7,15.6-19.4,61.5-9.4,105.3
		c-0.4-8.4-0.1-14.7,1.4-15.9c3-2.4,44.6-2.7,44.7-3C340.8,209.9,339.4,224.5,346.3,226.4z M343.2,213c0.3-0.5,0.8-1.4,1-1.9
		C349.8,210.3,343.5,220.5,343.2,213z M345.3,203.7c0-0.3,0.1-28.3-0.4-28.4C348.1,180.3,347,194,345.3,203.7z M347.3,134.1
		c2.9-1,1.9,2.3,2,4C346.4,139.1,347.4,135.8,347.3,134.1z M343.4,157.6c1.1-0.2,2.4-0.7,3.6-0.2
		C347.7,159.6,342.6,160.1,343.4,157.6z M342.1,127.1c0.4,6.1-11.9,1.8-12-1C334.1,126.8,338.1,127.1,342.1,127.1z M342.2,158
		c-0.3,0.4-6-14.8-1.5-21C341.3,138.5,342.6,148.5,342.2,158z M330.5,133.5c1.1-0.6,2.5,0,3.7,0.2
		C335.1,136.1,329.2,135.9,330.5,133.5z M325.5,145c-2.2-0.1-10.3-2-5-3.5C322.5,141.7,324.1,143.6,325.5,145z M321.4,138.2
		c-2.3,0.8-4,0.8-3-2.1C320.4,134.9,325.8,138,321.4,138.2z M318.3,159c-0.9,1.1-9.2,0.1-10.9-3.7C305.1,153.6,318,158.2,318.3,159z
		 M307.3,142.2c1.1-1.6,2.4-3.2,3.4-4.9C313.9,138.2,309.8,143.1,307.3,142.2z M316.5,127.1c0.7-2.1,7.9,2.2,0.2,6.1
		C310.6,136.1,316.7,128.3,316.5,127.1z M317.3,147.1c0.1,0.4-11.9,4.7-8.7,0.1C311.5,147.2,314.4,147.2,317.3,147.1z M312.5,126.2
		c-4.1,6.5-13.4,1.1-14.2,1C297.6,125.6,308.3,126.9,312.5,126.2z M299.6,138.4c4.2-1.2-0.7,5.4-3.4,3.8
		C298.5,141.2,296.9,138.5,299.6,138.4z M302.6,139.8c2.3,2.7,3.5,5.7,3.5,9.3c0.3-1.1-16.2,0.1-8.8,14
		C287,166.2,302.1,135,302.6,139.8z M295.4,167c9.2-1.5-4.5,23.4-1.5,23.3C290.2,190.4,296.5,170.1,295.4,167z M289.4,139
		c-1.5,0.6-2.8-2.1-0.8-2.3C289.7,133.4,295.7,140.8,289.4,139z M294.1,204.5c-1-2.6-1.1-5.4-0.5-8.2c-7.6,8.9,10.4-18,19.6-25.7
		c-2.7-0.6-5.4-1.6-4.9-2.5c0.1,2.7,18.4-8.3,22.4-12.2c0.7,5.4,9.3,22.5,5.6,24C347.1,182.2,305.7,211.3,294.1,204.5z M339.9,167
		c-10.9-6.5,21-2.1,6.3,4.4C341.1,173.6,342.7,157.9,339.9,167z"/>
	<path fill="#33073B" d="M355.2,282.7c2.5-9.4,5.1-24.1,7.1-41.1C358.2,250.6,356,266.2,355.2,282.7z"/>
	<path fill="#33073B" d="M339.8,107.2c-3.1-1.4-6.5-2.2-10.3-2.2C331.5,106.6,335.4,107,339.8,107.2z"/>
	<path fill="#33073B" d="M280,265.1c0.7-2.7,0.7-5.5,0-8.3c0.8-0.8,2.5,6.7,1.2,9.4c3.1,2.9,5.7,6.3,7.1,10.3
		c-3.3-13.2-7.9-31.7-11.2-49.5c-0.4,10.3-1.3,22.4-2.5,34.1C276.5,262.3,278.3,263.6,280,265.1z"/>
	<path fill="#33073B" d="M322.4,130.5C322.7,134.7,327.4,129.8,322.4,130.5"/>
	<path fill="#33073B" d="M307.7,133.2C300.5,136.8,313.1,135.2,307.7,133.2"/>
	<path fill="#33073B" d="M324.7,138.3C324.9,142.6,329.4,136.4,324.7,138.3"/>
	<path fill="#33073B" d="M328.5,145.1C328.6,155.3,335.4,143.3,328.5,145.1"/>
	<path fill="#33073B" d="M320.5,146.3C317.2,149.6,325.3,147.4,320.5,146.3"/>
	<path fill="#33073B" d="M317.5,152.4C317.4,157.2,322.8,151.1,317.5,152.4"/>
	<path fill="#33073B" d="M321.6,156.2C317.1,161.1,326.5,157.2,321.6,156.2"/>
	<path fill="#33073B" d="M308.7,97.3c-0.7-3.2-0.2-6.1,3.5-6.4C310.7,92.7,311,96.1,308.7,97.3z"/>
	<path fill="#33073B" d="M322.5,173.5c8.8,0.6,9.2,2.4,1.1,5.6C329.3,178.4,316.3,174,322.5,173.5
		C324.8,174.2,318.4,173.9,322.5,173.5z"/>
	<path fill="#33073B" d="M317.5,175.1c5.8,3-1.3,8.8-5,9.8C313.4,181.2,315,178,317.5,175.1C321.6,177.2,316.1,177.1,317.5,175.1z"
		/>
	<path fill="#33073B" d="M324.9,186.9c0-0.1,5.8-0.7-6.9,6.3C317.6,190.2,320.3,185.5,324.9,186.9
		C323.6,180.4,321,185.8,324.9,186.9z"/>
	<path fill="#33073B" d="M311.2,189.2c-2.8-2.5,1.4-2.2,3.3-2.3C317.1,190.1,313.9,190,311.2,189.2z"/>
	<path fill="#33073B" d="M313.2,210.8c1.5-0.1-13.2,11-12.9,10.6c-1.6-2.4-2.2-5.1-2.1-8C304,212,304.6,211.7,313.2,210.8
		C320.3,210.4,311.4,210.9,313.2,210.8z"/>
	<path fill="#33073B" d="M329.5,212.2c2.8,2.4,5.7,13.7,3.6,17.2c-5.3-15.2,0.9,9.2,1.6,11.8c0.8,3.2-11.6-1.1-9.8,0.2
		C319.8,237.6,327.8,214.5,329.5,212.2C330.6,213.1,328.7,213.3,329.5,212.2z"/>
	<path fill="#33073B" d="M337.6,213.3"/>
	<path fill="#33073B" d="M317.7,216.4"/>
	<path fill="#33073B" d="M338.4,221.8c-2.3-4.3,3.6-6.1,3.1-0.5C340.5,221.5,339.4,221.7,338.4,221.8z"/>
	<path fill="#33073B" d="M313,241C311.9,241.3,312.5,227.6,313,241C307.2,242.6,313,241,313,241z"/>
	<path fill="#33073B" d="M333.4,244.1c3.3-0.8,2.7,6.3,0,7.1C333.3,248.9,333.2,246.5,333.4,244.1z"/>
	<path fill="#33073B" d="M326.4,247.3c2.8-0.8,2,4.8,0,1.6C326.4,248.5,326.4,247.7,326.4,247.3z"/>
	<path fill="#33073B" d="M310.1,257.2c2.3,0.5,5.1,0.8,4.2,3.9C312.9,260,310.4,259.4,310.1,257.2z"/>
	<path fill="#33073B" d="M316.5,273.2"/>
	<path fill="#33073B" d="M320.6,277.9c-1.3,3.7-4-2.2-0.3-0.8L320.6,277.9z"/>
	<path fill="#33073B" d="M310.6,278.7c3.3,11-5.9-54.3,3.9,15.5c4.5-3.2,0.3-8,2.9-11.5c5.5,7,6.5,58.2-11.7,44.6
		C299.6,322.8,313,285.6,310.6,278.7 M314.6,301.4c-0.7,1.3-0.7,3.1,0,4.4C316,305.5,316,301.7,314.6,301.4z"/>
	<path fill="#33073B" d="M289.4,308.3C297.6,304,283,323.4,289.4,308.3C292.9,306.5,286,316.5,289.4,308.3z"/>
	<path fill="#33073B" d="M290.3,314.9c5.9,4.8-2.1,23.6,6.4,26.2c-5.8,0-11.5,0-17.3,0c1.3-4.9,2.8-9.7,4.5-14.4
		c1.6,4.4,2.8,8.9,3.5,13.5C290.8,332.1,291.8,323.7,290.3,314.9C293,317,290.3,320.2,290.3,314.9z"/>
	<path fill="#33073B" d="M297.4,341.1c0.5-1.9,3.4-1.9,3.9,0H297.4z"/>
</g>
<rect x="0" y="0" fill="none" width="646.5" height="388.7"/>
<g>
</g>
<g>
</g>
<g>
</g>
<g>
</g>
<g>
</g>
<g>
</g>
<g>
</g>
<g>
</g>
<g>
</g>
<g>
</g>
<g>
</g>
<g>
</g>
<g>
</g>
<g>
</g>
<g>
</g>
</svg>
