<?xml version="1.0" encoding="utf-8"?>
<!-- Generator: Adobe Illustrator 17.0.0, SVG Export Plug-In . SVG Version: 6.00 Build 0)  -->
<!DOCTYPE svg PUBLIC "-//W3C//DTD SVG 1.1//EN" "http://www.w3.org/Graphics/SVG/1.1/DTD/svg11.dtd">
<svg version="1.1" id="Layer_1" xmlns="http://www.w3.org/2000/svg" xmlns:xlink="http://www.w3.org/1999/xlink" x="0px" y="0px"
	 width="646.5px" height="388.7px" viewBox="0 0 646.5 388.7" enable-background="new 0 0 646.5 388.7" xml:space="preserve">
<g id="_x23_33073bff_2_">
	<path fill="#33073B" d="M36.4,43.1c2.6,4,12.1,18.7,13.1,21.8C45.9,64.6,35.6,45.8,36.4,43.1z"/>
	<path fill="#33073B" d="M595.4,52.3c5.2,2.1,0.3,3.9-4.3,8.7c12.3-2.1-6.1,1.6,4.3,4.5c-21.9,17.4-21.1,11.3-27,43.8
		c28.6-10.7-13,3.7,11.7-1.3c-1.3,0.3,18.5-34,18.4-33.1c6.5,8.8-5.6,7.8-2.1,16.1c1-2.3,2.6-3.1,5-2.6
		c-0.5,0.8-26.2,48.7-27.3,41.6c-1-6.7,12.7-15.9,2.6-18.5c20.1,5.1-89.7,81.7-92.9,62.8c-26.7,10.3-98.1,32.2-116.6,18.9
		c4.2,7.3,3.2,6.6,2.9,12.4c4.9-2.1,16.7-4.3,19.3-0.7c13.1,0.1,34.2-20,52.8-13.8c-1.3,3.8-4,6-8.1,6.5c0,2.3,12.5,0.2,7,5.5
		c-16.7-0.4-5.6,14.7-17,0.1c-13.3,6.3,0.8,14.4-9.7,3.6c-4,15.3-15.4,30-32.2,20.8c1.3-2.5,3-7.2,4.1-11.2
		c-10.7,5.4-21.8-9.9-24.4,15c-5.2-0.7,5.6-31.4,6.2-29.2c-1.6,1.3-2.3,3-2.1,5.1c-2.7-0.4-9.4-8.6-14-11c2.8,6.4,3,4.7,7.4,7
		c-5.8,14.8-26.3-16.3-25.2,19.8c-3.9,17.1,18.9,24.5,6.9,41.1c9.4,0.2-0.8,30.3,1.1,28.1c-3.2,4.5,6.5,23.1-15.9,26.8
		c0.4-14.9-9.6-19.4,5.2-30.7c-9.6-1.4-19.9,2.5-29.5,2.9c-12.3,0.2-3.9,10.2-11,13.3c-4.3-16.2,1.6-26.1-0.7-42.3
		c-5.9,4.9,9.5-30.6,11-22.7c-4.1,1.6-0.5-7.9,0.9-8.4c0.6-13.3,11.2-10.8,14.1-17.8c-21.4-3.2,8.7-11.7-0.9-16.3
		c-2,9-9.6,1.7-17.2,1.2c9.9,0.7-10.9,41.8-12,47c-4.4-1.8,4.2-25.8,4.2-25.7c0.2-1.4-7-7.2-4.4-14.4c-2.4,0.2-3.8,1.5-3.9,4
		c-5-1.8,3.9-11.4,3.9-10.3c0-0.6-13.9,6.1-18,3.4c7.6,0.4,9.6-2.5,6-8.8c-7.2-5-69.4-6.9-69.7-6.7c-3-0.4-28.1-9.6-45.1-11.5
		c3.1,1.9,2.7,2.6-1,2.1c2.1,0.5,3.1,1.8,3.2,3.9c-2-2.5-2.8-2.5-2.4,0.2c-7.8,1.9-26.7-14.8-32.8-15.2c11.8,18.8-30.7-9.8,0.2-0.9
		c-14.9-12.8-74-26.2-66.2-60c3.4,3.4,19.3,27.1,24.1,27.8c-3.4-11.4-14.2-51.8-26.3-51.6c5.3,14.9-2.9,21.8,0.1,38
		C47,110.1,41.6,94.6,38.6,81.9c8.1,0.1,13.6,24.4,18.8,24.1c-1.2-16.9-10.1-28-7.2-41c7.5,2.4,28.3,18.4,24.3,28.8
		c1.8-0.1,2.1-1,0.8-2.9c3.6,2.1,9.6,12.7,12.9,12.2c-5.1-4.6,27.8,13,34.2,16.4c-3.9,0.6-4.2,2-0.8,4.3c-2.7,0.1-4.5-1.5-5.4-5
		c0,5.3,2.7,8,8,8.2c-1.7-1.7-2.3-3.7-1.8-6.1c7.7,3.6,16.5,12.9,24.8,19.2c-0.9-10,7.2,2.3,3.9,5.6c9.9,0.9,21.2,14.3,33.1,19.2
		c-2.9,3.1,36,7.4,45.9,10.2c3.1,1.6,66.9-3.2,67.3-11.8c-6.2-0.9-13.5,0.1-18-4.1c8.9-4.1,41.5-2.1,45.5,6.1
		c-7.1-17.8,41.4-12.6,45.8-9.3c-2.3,1.3-30.1,5.4-23.6,8.5c8.5,4,51.2,0.5,51.3,12.6c17.6-5,35.7-9.2,51.8-11.1
		c14.3-1.7,44.3-31.6,52.1-28.7c-5.8-5.3-3.5-8.7,7-10.3c-2.2,5.2,0.9,1.6,4.8,5.3c2.9-5.1,2-7.9-2.9-8.3c4-3.4,22.3-8.8,22.2-8.6
		c-5.2-1.7-0.3-2.2-5.4-2.6c2.2-1.6,31.8-18.4,31.6-21.8c11.7-3.4,13.5-36.6,30.3-29.1C591.8,58.7,593.6,55.5,595.4,52.3
		 M573.5,71.2C565.2,79.9,587.2,67.5,573.5,71.2 M60.6,78.3c-4.3,1.3,0.4,2.9,2.5,1.6C63.4,78.6,61.6,77.7,60.6,78.3 M556.6,93.2
		c-1.9,0.7-0.9,3.1,0.8,2.9C559.4,95.9,558.6,92.1,556.6,93.2 M588.5,101.3c-1.2,1.9-2.2,5,0.7,5.9
		C588.9,105.6,590.3,101,588.5,101.3 M565.2,107.2c-6.5,6.6-13.5,6.1-8.9,13.8c-6.6,6.9-53.3,20.9-57,37.1
		C511,151.8,579.5,126.6,565.2,107.2 M81.3,116c6.2-0.7,8.4,1,6.7,5.2c-1.3-1.5-2.7-1.8-4.4-1c0.8,6.3,23,31,34.8,27.9
		c-12.2-7.5-5.4-22.5-24.1-28.1c0.4,0.7,0.4,1.5-0.1,2.2C93.9,121.4,79,105.8,81.3,116 M524.2,116.2c-0.1,2.9,5.4,4.2,6.2,1
		C528.3,117.1,526.2,117,524.2,116.2 M521.5,119.5C518.6,128.9,534,116.5,521.5,119.5 M128.3,129C128.8,138.2,140.7,129.5,128.3,129
		 M120.3,145.1c0.9,1.9-1,6.7,2,5.9C121.9,149,123.9,144.1,120.3,145.1 M124.5,145.3c-5,4.4,7.5,9.3,9.8,8.9
		c-0.9,0.6-1.9,1.2-2.9,1.8c4.1-1,7.7-0.4,10.8,1.9C144.9,152.2,127.3,146.1,124.5,145.3 M146.8,156.4c2.3,6.1,6.5,10.3,12.6,12.7
		C152.4,147.5,146,156.6,146.8,156.4 M492.3,154.9c-3.2-0.7-16.7,11.6-18.7,14.5c0.8-1.2,15.2-0.2,13.5,0.6
		c-0.9-7.1,5.6-7.9,10.3-7.9C497.4,161.8,493.9,149.7,492.3,154.9 M302.6,162.5C290.5,168.7,313.6,156.6,302.6,162.5 M170.4,166.1
		c0.2,0.3-7.3-0.5-5.9,4.9c3.8,0.9,28.9,11.9,30.7,3.3C184.6,172,185.7,169.1,170.4,166.1 M341.7,167.4
		c-20.1,23.3-64.6-10.9-77.3,9.6c-14.1-2.2,26.4,12.6,16.7,15c5.9,1.8,11.2-6.5,20.8-3.5c2.8,6.8,24.3,3.4,23.7,3.4
		c5.7-0.3,28.3,1,32.6,0.1c5.6-21.1,8.6-11.4,31.9-11.3c-1-5.4-19.9,0.7-21.9-8.6c-3.5,0.3-3.8,1.6-0.8,3.9
		C358.7,174.1,352,166.1,341.7,167.4 M468.7,167.3c-4.4,5.7-3.2,7.6,3.7,5.8C474.1,168.8,472.9,166.9,468.7,167.3 M455.6,170.3
		C453.5,172.2,457.5,185.2,455.6,170.3 M266.3,171c-0.6,1.9,1.9,4.3,3.3,2.4C271.6,171.6,267.4,171.5,266.3,171 M388.5,171.1
		c0.4,6.5-8-2.1-10.2,1.5c-0.9,1.5,14.7,5.7,15,3.5C394.1,172.3,392.6,170.7,388.5,171.1 M196.2,176.8c-3.7,0.6,3,6.7,5.9,2.1
		C201.6,173.3,199.7,172.6,196.2,176.8 M318.6,174.4C310.4,175.7,334,173.1,318.6,174.4 M446.5,175.4
		C445.9,176.7,457.7,181.2,446.5,175.4 M366.3,187.1c-1.7,0,3.3,2.3,6.1,3.1C373.3,179.8,362.9,180.9,366.3,187.1 M263.4,185
		c0.2,0.3-6,4.5,4,5.1C265.1,181,277.2,191.6,263.4,185 M384.5,185.4c-6.2,5.3,17,1.5,22,1.6C402.9,182.5,389.4,186.7,384.5,185.4
		 M373.6,186c0.4,2.8-0.7,6.5,3.5,6C379.8,188.8,376.8,186.4,373.6,186 M430.4,197.1C437.8,205.6,425,197.2,430.4,197.1
		 M291.2,202.1c1.7,5.6,3.6,11.4,2.2,16.1C300,217.6,295.8,201.9,291.2,202.1 M317.3,203.1C323.9,210.8,322.7,202.8,317.3,203.1
		 M320.2,213.4c-3.7,1.6,7.9,2.7,6.1-0.9C325.3,210.5,316.4,206.3,320.2,213.4 M392.7,209.3c0,1.7,1.5,7.2,3.6,7.9
		C396.1,216.5,396.8,206.6,392.7,209.3 M390.6,210.4c-6.8,1.1-1,9.7-0.5,5.5C390.3,213.7,391.6,209.8,390.6,210.4 M316.7,217.4
		c-11.4,1.6,28.2,7.5,9.8,3.4C324.1,217.3,320.8,216.1,316.7,217.4 M390.6,218.4C386.5,218.9,392.8,217.2,390.6,218.4 M312.4,224.1
		c13,8.3-0.9-8.2-1.3-5.1C307,222.3,307.4,224,312.4,224.1 M307.6,230.4c-2.9,1.2-3.4,6.2,0.7,4.6
		C308,233.9,309.2,229.5,307.6,230.4 M331.1,232.8c-4.9,0.5-5.1,2.7-0.8,6.6C334.9,240,334.8,226.5,331.1,232.8 M315.3,234
		c0.4,1.3,8.5,6,9.9,9.3c-15-9.4-14.5-4.8-20.6,3.8c2.5,0.5,16.3-3.2,11.8,11c0.2,0.1,19.7-17.2,19.9-16.8
		C326.1,239.1,324.2,233.8,315.3,234 M308.6,247c0.1,1.7-18.7,23.1-11.1,38.8c5.9-1.7,27.9-6.8,33-5.8c-6.5,18.3,23.3-34.3,7-33
		c-6.9,3.9-1.4,2.6-11.9,7.2c0.1,5.2,11.4-1.3,2.5,10.7c-4.1-1-6.3-4.8-15.5-3C310,258.5,314.8,249.3,308.6,247 M332.5,292.1
		c-3.2,3.6-3.6,7.9-1,12.9C338.3,305.2,336.2,291,332.5,292.1C332.3,293.6,334.2,291.6,332.5,292.1z"/>
	<path fill="#33073B" d="M615.5,56c0.3,5.6-0.1,16.6,0.6,23.1c-1.3-1.4-2.8-2.3-4.6-2.8C607.7,83.5,614.8,59.4,615.5,56z"/>
	<path fill="#33073B" d="M26.2,76.1c-0.8-3-0.9-6.1-0.1-9.1c-0.1,2,4.2,10.1,4.7,13.4C26.3,82.1,24.8,80.7,26.2,76.1
		C29,73.1,23.2,82.4,26.2,76.1z"/>
	<path fill="#33073B" d="M72.3,77c13.2,1.6-4.9,11.1-2.1,3.2C74.7,81.5,73.8,82.5,72.3,77C74.2,77.2,72.7,78.3,72.3,77z"/>
	<path fill="#33073B" d="M574.3,90.4c4-2.8,6-6.7,6-11.7C592,97.2,578.3,90.1,574.3,90.4z"/>
	<path fill="#33073B" d="M76.1,85c3.7-6.5,7.5,0.6,9.2,5C82.9,91.3,76.5,88,76.1,85C76.9,83.7,76.3,86.7,76.1,85z"/>
	<path fill="#33073B" d="M322.6,132.9c18.1-0.8-0.5,17.6,5.6,21.3c0.3-2.3,4.5-4,5.5-3c-1.7,9.6-23.4,4.3-25.6,2.9
		C314.2,144.6,308.4,133.5,322.6,132.9C324.5,132.8,320.9,133,322.6,132.9z"/>
	<path fill="#33073B" d="M273.8,161C278.9,153.7,280.1,167.9,273.8,161C274.1,160.5,276.2,163.6,273.8,161z"/>
	<path fill="#33073B" d="M376.9,166.8c1.7,0.1,3.1,1.9,5.5,0.6C383.9,171.9,376.5,170,376.9,166.8z"/>
	<path fill="#33073B" d="M194.2,189.2c20.1,12.3,55.7,10.1,73.2,6.1c-0.9,17.3-9.9,14.5-22,12.1c-4.3,10.2,8.2,25.8,11.6,13.5
		c0,2.2,0.3,4.3,0.7,6.4c4.7-1.3,8.8-19,10.7-22.3c16.2,5-13,25.2-8.5,22.6c-6.6,0.1-1.5,7.8,2.3,8.7c-0.3-0.8-7.1,4.4-7.4,5.3
		c-1-0.8-14.5-24.3-15.4-24.5c-3.7,7.1-22.8-10.7-27.5-12.6c2-1.1,2.6-2.9,2-5.3C205.5,198,193.1,199.2,194.2,189.2 M238.5,203.4
		c-0.6,1.1-0.8,3.5,0.8,3.8C241.4,206.8,240.4,202.9,238.5,203.4 M233.4,208.1C230.9,227.3,237.2,206.9,233.4,208.1
		C233.1,210.5,236.7,207.1,233.4,208.1z"/>
	<path fill="#33073B" d="M373.5,219.1C379.8,218.6,371.9,231,373.5,219.1C375,219,373.3,220.5,373.5,219.1z"/>
	<path fill="#33073B" d="M389.7,229.9c3,5.5-3.3,12.9-9.6,11.3C384.3,237.4,386.6,234.6,389.7,229.9
		C390.3,231,388.8,231.2,389.7,229.9z"/>
	<path fill="#33073B" d="M282.1,245.9c1.5-2.2,3.9,0.8,2.6,2.6C283.1,249.5,282.8,246.7,282.1,245.9z"/>
	<path fill="#33073B" d="M303.4,293.5c15-2.9,16.9,15.4,8.7,26.5C299.6,320.3,292.1,297.2,303.4,293.5 M306.7,295.8
		c-1.3,7.4-2.1,5.8,0.8,12.3C313.2,305.7,306.8,296.8,306.7,295.8C306.4,298,306.4,293.1,306.7,295.8z"/>
</g>
<rect x="0" y="0" fill="none" width="646.5" height="388.7"/>
<rect x="0" y="0" fill="none" width="646.5" height="388.7"/>
<g>
</g>
<g>
</g>
<g>
</g>
<g>
</g>
<g>
</g>
<g>
</g>
<g>
</g>
<g>
</g>
<g>
</g>
<g>
</g>
<g>
</g>
<g>
</g>
<g>
</g>
<g>
</g>
<g>
</g>
</svg>
