<?xml version="1.0" encoding="utf-8"?>
<!-- Generator: Adobe Illustrator 17.0.0, SVG Export Plug-In . SVG Version: 6.00 Build 0)  -->
<!DOCTYPE svg PUBLIC "-//W3C//DTD SVG 1.1//EN" "http://www.w3.org/Graphics/SVG/1.1/DTD/svg11.dtd">
<svg version="1.1" id="Layer_1" xmlns="http://www.w3.org/2000/svg" xmlns:xlink="http://www.w3.org/1999/xlink" x="0px" y="0px"
	 width="646.5px" height="388.7px" viewBox="0 0 646.5 388.7" enable-background="new 0 0 646.5 388.7" xml:space="preserve">
<g id="_x23_33073bff_8_">
	<path fill="#33073B" d="M92.7,43.1c5.7,0,11.3,0,17,0c-1.7,4.1-61.5,16.7-59.6,5.9C66.3,51.3,77.8,44,92.7,43.1z"/>
	<path fill="#33073B" d="M134.7,43.1c0.8,0.3,11.3,5.6,11.3,5.6C129.9,60,97.8,65.5,83.3,64.3C95.2,52.9,118.8,49.6,134.7,43.1z"/>
	<path fill="#33073B" d="M142.3,39c3.1,0,91-34.4,97.4-15.4C238.9,24.5,142.2,43.6,142.3,39z"/>
	<path fill="#33073B" d="M219.2,24.6c39.8-10.5,58.8,90.1,85.1,101.6c-7.6-3.3,6.5-29.9,18.2-27.4c4.6,3.7,12.5,20.3,19.7,12.1
		c2.6-7.4-16.8-10.7-15.8-17.7c11.4-20,35.1-41.6,43.6-60.2C382,7,355.1,55,372,47.9c2.3-4.7,11.2-24.9,16.6-24.3
		c-0.4,3.9-21.9,31.6-14.4,32.5c-1.2,2.2-2.6,1.8-4.1-1c1.4,17.4-5,89-40.6,80.9c-0.4-4.4,55.9-40.8,29.1-50.7
		c-1.4,3.7-9.4,13.8-11.5,11.4c2.3-0.7,3.5,0,3.5,2c-5.2-1.2,0.1,4.1-6.3-3.8c-2.4,3.3,1.6,13.7,1.9,20
		c-2.9,15.7-27.7,9.2-28.2,14.3c-2.1-2-2.4-4.3-0.9-6.8c-5.7,0.5-4.6,14.5-5,19.6c-12.7,15.3-50.3-55.6-49.8-56.8
		c11.6-13.7-14.1-48.2-22.7-61.6 M360.5,76.1c-3.3,5.1-3.1,7.9,0.8,8.3C362.6,83,365.1,75.5,360.5,76.1 M273.5,87.1
		c-0.5,5.3,0.8,8.6,2.1,13.9c-0.4,0.1,11-11.4,10.9-11.7C286.1,85.1,267.3,82.7,273.5,87.1 M336.5,91.2c-3,2.1,0.5,3.9,2.8,3.9
		C339.7,93.3,339,90.4,336.5,91.2 M316.2,107.1c1.2,3,4.5,3.1,7.2,3.8C324.3,106.9,318.9,107.4,316.2,107.1 M281.5,115.4
		c-0.6,1.7,1.8,4.1,3.5,3.5C284.9,117.4,283,115.5,281.5,115.4 M308.3,127c-0.6,4-5.6,4.9-1.8,7.4C310.2,136.9,312.1,128,308.3,127
		C308,128.9,311.8,128,308.3,127z"/>
	<path fill="#33073B" d="M405.3,23.6c0.6,0.2,53.3,18.3,49.2,23.9C452.3,46.4,406.3,24,405.3,23.6z"/>
	<path fill="#33073B" d="M487.3,43.1c13.8,5,33.7,18.9,43.2,17.8c-13.8,0.5,17.1,11.4,15.8,5.2c19.4,7.4-28.3,16-29.4,16
		c4.4-1.1,4.7-2,7.5-5.8c-14.5-2.7-33-4.9-35.7-17.4c9.4,0.4,19.4,9.9,18.5,11.2c9.1-0.6,16.4,2.6,27.1,1.8
		C536.4,63.8,479.8,56.3,487.3,43.1z"/>
	<path fill="#33073B" d="M507.1,43.1c21.4,0.5,26.8,11.4,45.4,12C551.9,59.4,509.7,47.9,507.1,43.1z"/>
	<path fill="#33073B" d="M475.6,46.4C479.7,45.8,466.7,51.2,475.6,46.4C477.3,46.2,474.4,47.1,475.6,46.4z"/>
	<path fill="#33073B" d="M477.3,46.1c2.7,0.5,3.4,2.8,4,5.1C479,50.6,476.8,48.6,477.3,46.1z"/>
	<path fill="#33073B" d="M418.3,28.3c111.5-0.6,37.2,28.1,40.1,20C459.7,47.8,417.6,30.3,418.3,28.3z"/>
	<path fill="#33073B" d="M469.2,51.2C479.4,54.6,470.5,57,469.2,51.2C470.9,51.8,469.5,52.5,469.2,51.2z"/>
	<path fill="#33073B" d="M132.5,57.5c4.3-2.2,8.9-3.6,13.7-4.3c5.1,7.4-6.8,5-5.8,11.9c-5.1-1.5-16.5,2.6-23.8,8.1
		c-12.7,4.9-13.2-3.8-24.4-4.3C96.6,62,123.3,67.5,132.5,57.5C137.3,57.2,131.1,59,132.5,57.5z"/>
	<path fill="#33073B" d="M156.4,55.2C167.1,53.9,155.5,64.2,156.4,55.2C157.9,55,156.3,56.5,156.4,55.2z"/>
	<path fill="#33073B" d="M463.3,57c2.1,0.7,5.2,0.6,6.1,3C467.4,58.9,462.6,60.3,463.3,57z"/>
	<path fill="#33073B" d="M150.4,58.3C163.8,57.3,154.4,65,150.4,58.3C151.1,58.2,151.4,59.9,150.4,58.3z"/>
	<path fill="#33073B" d="M203.4,62.3c12.7-4.9-12.3,20-19.7,20C188.6,74.4,201.1,67.4,203.4,62.3C205.8,61.4,202.8,63.5,203.4,62.3z
		"/>
	<path fill="#33073B" d="M395.2,62.1c25.5-4.6,0.7,7.4,5.4,6.2C399.7,65.5,397.9,63.4,395.2,62.1C398.4,61.5,395.9,65.1,395.2,62.1z
		"/>
	<path fill="#33073B" d="M152.5,76.2c4.3-6.3,10.3-9.9,17.8-10.8c1,16.9-48.2,21.7-47,35.7c-0.6,0.1,16.8,2.5,18.1,3.1
		c-0.4,1.5-8.4,1.9-10.2,3.9c4.4,0.1,19.7,2.8,24.1,3c-1.7,0-14.3,2.4-14,6c9.1,0.3,14.1-3.1,19,4.1c-5.3-1.4-6.6,3.8-10.9,7.9
		c26.7-4.3,37.8-34.4,61.9-40c1.5,3.9-0.9,3.7-1,7.3c-31.2,7.9-48.5,59.9-81.1,32.3c18.9-7.1-32.7-12.7-28.6-25
		c10,0.4,14.8,6.1,24.9,0.5c-11.4-3.4-15.5-1.4-4.8-6.8c-4.5-0.5-40.8-23.1-37.4-26.6c10.6-4,24.9,12.2,37.2,8.2
		c-1.6,5.4-5.6,7.8-12.2,7.1c9.4,12.6,15.2-16.1,1,5.9C124.7,95.2,140.1,83.7,152.5,76.2 M122.5,109.2c-9.9,6.5,37.9,25.1,27.8,10.9
		c-24.9-2.7-7.8,0.1-11-9C133.5,113.7,126.9,112.1,122.5,109.2 M136.2,130.1c3,2.4,6.5,4.1,10.3,5
		C142.4,134.5,142.6,129.9,136.2,130.1C137.3,131.2,138,130,136.2,130.1z"/>
	<path fill="#33073B" d="M187.1,65.8c14.1-4-4.2,9.5-7.9,3.3C181.7,67.7,184.3,66.6,187.1,65.8C188.8,65.4,185.6,67.5,187.1,65.8z"
		/>
	<path fill="#33073B" d="M572.6,65.2c12.4-2.3-5.9,17-17.3,8.5C560.3,69.4,568.5,70.1,572.6,65.2C573.1,65.1,571.3,66.8,572.6,65.2z
		"/>
	<path fill="#33073B" d="M552.3,66.9c3.4,1.2,6.8,1.3,10.3,0.3C556.6,69.7,544.6,67.4,552.3,66.9C553.5,66.8,550.5,67,552.3,66.9z"
		/>
	<path fill="#33073B" d="M74.5,69.2C76.8,76.7,72.8,71.4,74.5,69.2C74.5,69.2,74.1,69.7,74.5,69.2z"/>
	<path fill="#33073B" d="M63.1,70.2c3.1,1.2,6.2,2.1,9.5,2.6C69.6,74.5,64.6,76.6,63.1,70.2C64.5,70.7,63.7,72.7,63.1,70.2z"/>
	<path fill="#33073B" d="M143.6,70.4c2.3,0.3-1.4,4-3.3,2.7C139.6,70.7,142.1,71,143.6,70.4z"/>
	<path fill="#33073B" d="M452.2,70c1.9,0.6,8.1,1.2,4.9,3.9C454.8,74.4,453.5,71.6,452.2,70z"/>
	<path fill="#33073B" d="M175.4,73.1c5.3-0.9,6.1-1.5,6.8,3.7C182,76.9,162.1,78.3,175.4,73.1C176.7,72.9,173.7,73.8,175.4,73.1z"/>
	<path fill="#33073B" d="M235.6,73.2c2.1-0.2,9.1,2.9,5.5,5.7c-2,1.5-20,13.7-21.9,13.9C220.7,85,232.6,79.6,235.6,73.2
		C236,73.2,234,76.5,235.6,73.2z"/>
	<path fill="#33073B" d="M439.4,74.3c11.1,3.5,3.1,4.4-0.3,2.9c1.2,5.1,18.1,17.3,18.2,16.9c-1.6-1.6-3.3-1.8-4.9-0.4
		c13.9,7.9-0.2-2.7,7.9-0.7c-2.5,17.4-29.3,21-36,6c2.7-0.3,8.6,4.5,12.4,3.5c1.7-0.4-20.5-16.8-26.6-15.8
		C411.6,78.3,434.3,89.2,439.4,74.3 M431.2,82.4c-2.9,16.3,11.6,14.9,20.2,13.5C447.9,90.1,435.6,83,431.2,82.4
		C431,83.9,433.6,82.7,431.2,82.4z"/>
	<path fill="#33073B" d="M154.5,81.3c5.6,2.3,9.2-7.1,10.9,1.9c-7.4,0.8-14,2.9-20.3,7.2C141.8,85.9,152.3,83.5,154.5,81.3
		C158,82.7,153.8,82,154.5,81.3z"/>
	<path fill="#33073B" d="M246.6,79.3c-5,2.6,21,1.3,13.8,1.7c0.7,7.6-27.7,7.9-26.9,22.9C213.5,103.8,244.2,79.1,246.6,79.3
		C250,77.6,241.7,78.8,246.6,79.3z"/>
	<path fill="#33073B" d="M389.1,80.1c4-3.4,24.8,17.2,18.3,19.5c1.3,0.5-16.5,7.2-15,1.5c3.4-2.3,7.9-4.6,12-4
		C404.3,86.6,387.5,89.3,389.1,80.1C389.4,79.8,388.8,81.6,389.1,80.1z"/>
	<path fill="#33073B" d="M490.6,79.1c3.4,3.5,7.3,4.2,11.8,2c-2.4,1.2-3.7,3.2-3.9,5.7c-5.3,1.5-17.9,3.5-23.3,5.3
		c2.5-4.6,0.5-4.9-5.9-0.9C470.9,81.7,490.9,82.6,490.6,79.1C492.8,83.4,490.9,82.5,490.6,79.1z"/>
	<path fill="#33073B" d="M509.2,80.2C521,79.5,509,88.3,509.2,80.2C510,80.2,509.2,82.2,509.2,80.2z"/>
	<path fill="#33073B" d="M197.3,82.7c3.3-1.8,5-0.3,5.1,4.4c-5-3-15.6,19.5-26.4,20.2c2.4-8,11.6-14.4,17.4-20.1
		c-2.9-1-11.6,7-14.3,9C176.8,88.6,198.3,83.5,197.3,82.7C198.2,82.4,199.2,84.2,197.3,82.7z"/>
	<path fill="#33073B" d="M203.1,92.3C197.9,83.8,217.6,96.3,203.1,92.3C201.2,89.3,204.1,92.6,203.1,92.3z"/>
	<path fill="#33073B" d="M257.6,90.4C269.9,89.3,257.2,92.8,257.6,90.4C259.4,90.3,257.5,91.1,257.6,90.4z"/>
	<path fill="#33073B" d="M385.8,90.2c2.3-2.6,4.5,0.1,5.8,2.2C389.5,93.7,387.7,90.9,385.8,90.2z"/>
	<path fill="#33073B" d="M248.5,92.1c6.7-3.1,8.6-2.1,5.6,3.1c-3.5-0.1-6.4,1.2-8.8,4C238.7,86.7,250.7,98.7,248.5,92.1z"/>
	<path fill="#33073B" d="M382.5,95.1c32.2,10.4,0.4,25.4,2.1,39.6c-0.4-3.3,4,6.5,2.9,3.6c1.6-1.4,1.2-8.5,2.4-7.8
		c2.1,3.3,26.1,27.5,16.3,29.6c11.1-5.5,1.2-19.8-5.2-26.8c7,0.8,9.6,10.4,16.3,13c-5.7,8.2-4.9,11.5,2.6,9.9
		c-6.5,12.6-37,11.5-37.5,11c0.7,10.2,8.4,24.7,15.1,30.8c-8.7,1.8-12.5-11.2-17.3-15.8c3.3,10.3,14.9,15.9,16.1,23
		c-2.8-1.2-5.2-2.5-8.3-3c-2.2,3.8-1.7,7,1.5,9.8c-2.4-2-4.8-4-7.1-6c0.4,5.8,8.3,7,0,10.2c-2.5-6-22-32.5-29.8-38.1
		c-4.8,4.4,11.8,24.1,9.1,32.3c-1.8-0.2-7-8.5-10.1-5.2c2,5.8,7.3,4.4,7.1,11.9c-4.3-1.4-13.6-4.8-15.2-7.7
		c2.3-0.4,20.2-13.2,5.1-15.1c0.1,2.7,4.1,16.2-6.4,0.9c2.5-5.8,4.1-5.8,4.5,0c-0.9-5.9-3.5-10.8-1.2-16.4
		c-6.7,1-22.9,26.8-10.8,31.3c0.6-6.5-3.9-17.8,6.2-21.2c-2.7-2.5,2.8,31.8,2.8,31.2c2.5-2.8,4.9-2.3,7.4,1.5
		c-8.2-2.3-7.5,21.7-3.5,23.5c-0.3-3.8,0.9-6.3,2.3-10.1c5.6,3.1,4.9-0.7,5.8,11.1c1.6,0.8-49.8,49.9-51.4,128.4
		c11.3-59.9,19-104,18.2-114.4c-2.5-0.4-5-0.3-7.6,0.3c2.1-4.3-10.6,50.1-6.9,80.6c-4.8-9.1-20-138-25.3-88
		c10.3-2.1,9.3-6.2,11.2-19.2c2,8,2.2,16,0.8,24.1c11.5,2.9,21.2-5.8,31.5-6.7c0.6,6.5,2.6,12.6,6.1,18.1c2.8,1.9,14.1-43,7.1-47.2
		c-11.4-2.1-40.1,8.8-46,7.2c-5.1-5.8-3.3-9.3,5.2-10.5c0-0.2-15.1-15.3-17.1-14.8c2.2,4.9-10.2,13.1-11.7,22.1
		c-16,3.5,3.5-60.7,4.6-58.7c-1.6-3.1-0.6,7.4,0.4,2.9c9.3-21,35.4-4.2,52-4.7c5.6,2.1,19.8-7,20.8-10.9c3.2-11.5,12.4,5.3,14.6,5.4
		c11.8,0.3-0.5-33.2,21.4-31c-1.5-13.9,4.7-18.4,8.1-19C388.5,102,380.6,104,382.5,95.1 M378.1,139.1c-2.2-0.4-10.4,0.5-10.8,4.1
		c7.3-0.4,1.8,10,9.8,8c-0.7-5.6,5.3-6.5-0.4-9.5c1.3,0.9,8.1,3.6,8.7-1.5C385.4,140,372.9,128.6,378.1,139.1 M390.2,140.1
		c0.4,2.3,1.2,4.9,4.1,4C393.8,142,392.3,140.6,390.2,140.1 M383.2,144.1c0.7,3.7,10.3,15,13.1,15.1c-3.1-3.3-2.8-4,0.9-2.3
		C395.9,156.6,391.6,144.1,383.2,144.1 M394.2,145.1c0.9,2.3,3.9,3.1,6.2,3C399.4,145.5,396.9,144.5,394.2,145.1 M378.3,148.1
		c-0.3,6.1-4.7,8.2,1.7,13c1.6-2.8,2.6-4.4,5.2-5.9C383,152.8,380.7,150.4,378.3,148.1 M353.5,156.4
		C357,155.3,351,158.8,353.5,156.4 M368.6,159.2C369,170,379.5,155.9,368.6,159.2 M390.3,160c-0.6,3.1,2.9,3.4,5.1,3.1
		C394.7,161.1,392.2,160.3,390.3,160 M345.6,167.3c1.3,5.8,1.3,7,5.8,10.9C351.3,173.2,350.9,165.8,345.6,167.3 M360.5,168.4
		c-3.5,2.7,3.7,7.2,5,8C365.2,173.2,363.5,170.5,360.5,168.4 M336.5,172.3c-0.5-0.2-9.2,2.1-10.7,1.9
		C336.3,175.6,337,171.8,336.5,172.3 M354.5,170.2c-1.9,2.3-0.8,5.7,1.8,6.9C355.9,174.8,358.5,168.7,354.5,170.2 M275.9,175.7
		c-4,4.2-3.8,5.5,0.8,3.6c1.2-1.8,2.4-3.5,3.7-5.3C279.9,175.6,279,164.4,275.9,175.7 M291.2,179c-5.9,3.5-1.6,11.6-1.9,15.1
		c-1.6-2.8-2.9-2.7-3.8,0.3c-0.8,4.3,12.2,13.5,12,18.8c-3.3,3.3,9.9-11.5,7.4-4.7c-5.5-1.1-6.5-7.9-5.5-12.3c3,1.7,4.7,4.3,5,7.8
		c3.5-0.7,15.8-7.5,18.9-5.9c2.9,7-26.9-11.8-23.9-12c0.7,3,1,6,0.8,9.1c14.4,0.6-13.9-16.6-10.1-11.9
		C290.1,181.9,297,157.6,291.2,179 M301.2,172.2c-0.5,10,13.2,2.7,13.9,2.6C314.6,176.3,302.9,173,301.2,172.2 M321.6,175.5
		c-4.1,2-6.7,8.7-0.3,7.9C314.2,184.3,330.6,175,321.6,175.5 M280.6,183.4c-5.2,1.2-10.3,5-10.2,10.8
		C282.8,188,278.4,177.5,280.6,183.4 M331.3,180.1c-1,1.9,3.1,4.6,3.1,2C335.2,179.6,333,180,331.3,180.1 M270.5,182.1
		c-4.1,1.6-5.4,4.5-4,8.8C272.3,193.2,273.9,181,270.5,182.1 M368.5,183.3c-2.3,8-6,2-6.1,2.8c-0.3-0.3,21.9,17,22,17
		C381.9,196.8,377.3,179.4,368.5,183.3 M320.4,184.2c-8.6,4.4,18.8,5.6,10,4.9C328.4,185.1,325.1,183.5,320.4,184.2 M347.5,186
		c2,2.7,3.9,5.5,5.9,8.2C351.6,191.3,349.6,188.6,347.5,186 M281.2,193.1c-6.6-3.1-2,9.8-1.7,8.8c-5.3-2.1-8.2-0.5-7.1,7.1
		C281.4,212,282.8,180,281.2,193.1 M373.5,194.4C358.7,200.5,397.3,200.4,373.5,194.4 M307.5,204.2c-6,3.9,3.6,6.6,1.7,6.8
		C314.3,210.3,313.7,208,307.5,204.2 M319.6,208.5C310.3,213.8,324.4,207.3,319.6,208.5 M324.5,212c4.4,6-19.5-2.1-22.2,7.1
		c4.4,0.9,34.6,10.8,31.1-6C330.4,212.7,327.4,212.3,324.5,212 M295.3,262.1c-0.7,3.2,4.6,1,3.2,5.1
		C302.9,265.6,301.3,259,295.3,262.1 M305.4,269.1c-4.6,0.8,4.3,10.2,3.9,9.9C311.5,273.3,306.2,259.4,305.4,269.1
		C303.4,269.5,305.5,267.6,305.4,269.1z"/>
	<path fill="#33073B" d="M250.4,96.9c14.3,1.5-1.8,7.4-3.2,16.3c21-8.3-4.9-2.8,4.2,6c-4.8,1.3-13,5.2-14.3,10.8
		c14.2-7.9-6.7,8-7.6,5.5c1.1,3,6.8,3.2,10,4c-8.5,10.6-20.8,34.5-41.3,26.2c0.3-1.2,15.3-23,16.1-24.8c-3.1-1,32.3-20,31-24.7
		C238.6,112.2,246.1,102.2,250.4,96.9 M227.5,138.2c0,1.7-2.8,5.9,0.6,4.8C228.1,141.3,230.9,137.1,227.5,138.2 M223.6,148.4
		C213.8,153.1,220.5,151.9,223.6,148.4 M216.5,155.2C204.5,162.4,229.2,150.4,216.5,155.2C214.7,156.3,218.4,154.5,216.5,155.2z"/>
	<path fill="#33073B" d="M216.3,99.9c5.5-3.7,6.1-2,1.9,5.3c11.2-11.5-3,11.5-3.9,6.8c0.8,2.5,2.4,2.9,4.8,1.1
		c-1.1,4.2-2.3,4.5-5.7,7c1.9-3.1,1.3-4.8-2-5c-0.2,6.1-0.2,6.5-3.1,11.3c-2.5-5,0.7-5.6,1-12.5c-9.9,2.1-1,5.5-8.1,11.1
		c-0.6-1.9-0.3-3.6,1.1-5.2c-2.6,0.2-18.7,19.5-18.1,18c-4.1,1.2-6.6-1.8-8.8-4.7C189.4,123.7,200.5,108.7,216.3,99.9
		C217.6,99.2,215.7,100.2,216.3,99.9z"/>
	<path fill="#33073B" d="M257.5,100.7c3.1-0.1,6.1-0.3,9.2-0.4C259.1,105.8,256,105.9,257.5,100.7
		C260.6,100.1,257.4,101.3,257.5,100.7z"/>
	<path fill="#33073B" d="M411.4,98.9c3.1,4,7.6,5.5,13.7,4.4c-1.1,6.1-19.6,5-22,0.9C408.5,105,411.2,103.3,411.4,98.9
		C411.8,99.3,411.1,100,411.4,98.9z"/>
	<path fill="#33073B" d="M401.3,106c19.4,5.9,8.7,16.8,18.1,33c-2,0.7-7.5-3.9-7.9,0.4c0.4-3.8-7.9-18-1.1-14.3
		C408.7,121.3,401.8,110.4,401.3,106C403.3,106.7,401.5,107.8,401.3,106z"/>
	<path fill="#33073B" d="M176.3,110.2c-2.6,1-2.9-4.2-0.3-2.9C176.5,108,178,109.9,176.3,110.2z"/>
	<path fill="#33073B" d="M378.6,108.3c1.4-0.8,4.6-0.5,4.4,1.5C381.6,110.7,379,109.7,378.6,108.3z"/>
	<path fill="#33073B" d="M253,112.9c15.9-4.5-5.1,4.1,7.4,1.2C257.1,121.2,254.6,120.7,253,112.9C254.8,112.3,251.9,115.7,253,112.9
		z"/>
	<path fill="#33073B" d="M231.5,121c4.4-6.9,6.4-6.3,5.8,1.9C236.4,115.8,235.4,121.1,231.5,121C231.7,118.2,233.9,121,231.5,121z"
		/>
	<path fill="#33073B" d="M219.4,124.5c3.1-1.5,6.1-3.3,8.8-5.4c1.2,12.3-26.4,25.2-32,23.6c4.1-4.6-0.9-3,7.2-2.6
		c-2.1-3.2,0.3-6.2,5.2-13.1C208.8,127.2,221.4,136.4,219.4,124.5C223,124.6,219.6,125.7,219.4,124.5z"/>
	<path fill="#33073B" d="M249.4,121.4c4.8-0.3,1.8,4,2.9,7.5C248,127.4,248.8,125.2,249.4,121.4
		C250.5,121.3,249.2,122.8,249.4,121.4z"/>
	<path fill="#33073B" d="M398.4,123.3c6.7-5.1,0.8,3.8,6.9,0C403.8,130.9,398.1,124.2,398.4,123.3
		C399.5,122.5,397.8,125.3,398.4,123.3z"/>
	<path fill="#33073B" d="M161.5,123.3C166.1,124.1,157.1,131.9,161.5,123.3C163,123.6,161.2,123.8,161.5,123.3z"/>
	<path fill="#33073B" d="M420.3,126.8c3.3-3.2,8.9,9.2,9,7.4C425.1,133,422.3,130.3,420.3,126.8
		C421.7,125.4,420.6,127.3,420.3,126.8z"/>
	<path fill="#33073B" d="M429.6,135.9c4.4,0.2,6.6,2.9,6.5,8.2c-3,2.1-5.9,1.7-8.7-1.1c1.1,6.3-3.6,3.6-1.4,11.9
		c-0.2-0.1-8.7-3.8-7.6-5.8c8.5,1.7,2.3-1.8,3-8.1C424.4,146.5,430.1,139.6,429.6,135.9C430.7,136.2,429.7,137,429.6,135.9z"/>
	<path fill="#33073B" d="M330.5,137.3C331.7,136.7,324.1,146.7,330.5,137.3C332.3,136.4,329.6,138.6,330.5,137.3z"/>
	<path fill="#33073B" d="M171.2,140c3.2-0.2,6.1,2,8.2,4.1C176.2,144.1,173.1,142.7,171.2,140z"/>
	<path fill="#33073B" d="M240.2,143.1C239.8,141.6,248.1,140.8,240.2,143.1C239.2,139.5,240.2,143.1,240.2,143.1z"/>
	<path fill="#33073B" d="M145.3,142.9c4,1.2,12.8,0.3,15.1,5.1C156.7,155.6,147.1,145.8,145.3,142.9
		C147.4,143.6,146,144,145.3,142.9z"/>
	<path fill="#33073B" d="M238.3,143.4c6.1-1.3-0.4,8.8-2.2,10.4c10.2,0.9-2.2,13.1-5.8,14.2C230.2,160.2,239.5,154.1,238.3,143.4
		C238.8,143.3,238.4,144.7,238.3,143.4z"/>
	<path fill="#33073B" d="M162.5,145.1C170.2,153.1,158.8,147.4,162.5,145.1C163.9,146.6,161.2,145.9,162.5,145.1z"/>
	<path fill="#33073B" d="M361,202.2c1,0.2,12,3.2,6.1,6.6C363.5,208.1,361.4,205.9,361,202.2C362.2,202.4,362.1,204.9,361,202.2z"/>
	<path fill="#33073B" d="M390.8,218c-1.3-3.8-0.1-6.1,3.6-6.9C394.8,214.9,394.4,217.9,390.8,218C390.9,215.2,391.2,218,390.8,218z"
		/>
	<path fill="#33073B" d="M285.4,223.2c4.7-2.9-8.4,12.7-10.3,2.2C278.6,225,282,224.2,285.4,223.2z"/>
	<path fill="#33073B" d="M275.3,230c5.9,0,7.4-0.5,5.7,5.8C279,243.3,274.6,229.5,275.3,230C276.7,230,276.8,231.2,275.3,230z"/>
	<path fill="#33073B" d="M283.7,245.2C284.6,243.8,298.7,256.1,283.7,245.2C285.5,242.6,283.7,245.2,283.7,245.2z"/>
</g>
<rect x="0" y="0" fill="none" width="646.5" height="388.7"/>
<g>
</g>
<g>
</g>
<g>
</g>
<g>
</g>
<g>
</g>
<g>
</g>
<g>
</g>
<g>
</g>
<g>
</g>
<g>
</g>
<g>
</g>
<g>
</g>
<g>
</g>
<g>
</g>
<g>
</g>
</svg>
