<?xml version="1.0" encoding="utf-8"?>
<!-- Generator: Adobe Illustrator 17.0.0, SVG Export Plug-In . SVG Version: 6.00 Build 0)  -->
<!DOCTYPE svg PUBLIC "-//W3C//DTD SVG 1.1//EN" "http://www.w3.org/Graphics/SVG/1.1/DTD/svg11.dtd">
<svg version="1.1" id="Layer_1" xmlns="http://www.w3.org/2000/svg" xmlns:xlink="http://www.w3.org/1999/xlink" x="0px" y="0px"
	 width="646.5px" height="388.7px" viewBox="0 0 646.5 388.7" enable-background="new 0 0 646.5 388.7" xml:space="preserve">
<g id="_x23_33073bff_3_">
	<path fill="#33073B" d="M116.1,43.1c11-3.8,2.9,2.2,3.3,4c13.9,0.4,28.6,4.8,30.1,28.1c-4-2.6-6.2-9.8-8.4-14
		c2.3,0.3-5.8,8.5-5.7,8.9c1.7-2.5-7.1-24.4-11.1-23.9c2.4,4.7,0.9,6.6-4.7,5.9c1.6-5,0.4-5.6-3.7-1.6
		C115.3,47.6,120.9,44.6,116.1,43.1z"/>
	<path fill="#33073B" d="M134.1,43.1c3.2,0.2,7-0.1,9.6,0.8C139,47,135.8,46.8,134.1,43.1z"/>
	<path fill="#33073B" d="M143.2,43.1c16.9,6.7,57.8,57.3,68.2,83.1c-12.4-0.4-37.6-36.9-45.3-49c4,0.3,5-1.9-1.9-0.4
		c0.7-2.9,3.4-13.1-4.7-10C157.4,62.8,150.4,50.4,143.2,43.1z"/>
	<path fill="#33073B" d="M480.3,43.1c4.7,0,9.4,0,14.2,0c0.1,2.5-5.6,11.4-7.9,7.3c9.2,16.7-39.5,48.1-39.3,64.6
		c-7.4,1.8,2.2-16.8-8,8.1c11.5,2.5,14.7-20.2,23.5-16c-5.8,16.5-66.5,47.8-62.3,63.7c30.4,2.7,47.2-61.4,72.7-64.4
		c15.9,9.3-67.8,69.9-31.1,72.6c-3.1,4.5-3.5,1.9-8,1.9c-1.6,0,0.8,10.4-17.8,0c-0.8,10.6,7.8,29.8-5.9,17.8
		c2.2,20.7,3,13.6-11,12.1c-1,3.1,3.3,6.4-1.6,8.6c0.3,0.2-5.4-14.8-5.4-15.3c20.9-19.5-7.3,3.8,14.7,5.9
		c-1.1-9.9-7.6-14.5-0.9-24.1c-3.7,2.3-5,1.3-4.1-3c-1.9,1.4-3.5,3.1-4.6,5.2c-2.4-3.2-1.7-19-3.5-23.9c-5.9-0.5-7.5,25.4-19.9,11.9
		c3.1-3.2,9.1,1.4,11.3-3.9c-4.1-2.1-10.6-1.8-14.2-0.5c15.1-5.6-12,42.8-16.7,22.9c1.4,5.7,3.5,4.8,8,4.5c-1.8,2.4-6.4,6-8.9,8.1
		c-0.2-4,0.4-11.1,0.8-10.2c-3.9-0.3-36.1,3-26.4,11c2.4-6.5,1.9-0.5,7.2,1.3c-4,3.1-3.4,3-9,5.3c5.6-0.8,8.5,1.5,8.6,6.7
		c-0.6,3-14.1,1-17.4,2.7c-0.4,1.3,16.9,4.6,15.9,4.5c-1,5-2.2,3.9-6.1,7.4c6.6-1.4,13.8,15.1,19.2,12.2c-0.1,0.5-0.4,21.9-5.3,13
		c1.6,10.7,5.7,16.2,4.1,29.2c-0.6-4.1-25.1,58.5-26.5,62.1c5.8,18.5,16.7-41.1,4.8-37.3c-0.7,2.9,2-29.6,2.9-27
		c-8.1-3.9-13.3-3.3-15.4,1.8c31.8,17.2,3.4,84.1-0.3,66.7c12.8-4.8-42.2-136.2,3.8-130.8c-1.9-2.5-4.3-3.2-7.4-2.3
		c5.3-12.4,16.6-4.5,18.3-9.5c1-3.1-15.8-2.9-17.1-2c1.2-6.9,1,0.9,6.3-8.9c-4.8-1.9-12.5-6-19.2-7.2c4.4,6.4,5.4,13.2,3,20.6
		c-5.3-2.5-1.7-11.1-6.9-16.4c-0.8,14.8,4.3,13.2-7.4,24.4c4.6,1.6-0.2-22,0.1-24.4c-1.1,5.8-3.1,7.6-5.9,5.1
		c1.1-4.4,3.1-8.5,5.9-12.2c-4.5-1.4-15,6.5-17.9-6c4.2,0.2,10.1-2.4,1.2-8c-1.9,3.9-1.2,5.9-4.3,11c-16.4-5.7,0.2-17.3,0.3-19.9
		c-8.9,4.5-14.1-6.4-15.4-6.8c-5.8-2.7-27.4-12-35.8-24.2c4-0.4,7.3,1,9.9,4.1c2.7-5.2-10.3-13.7-12.1-15.2
		c8.4-3.7,37.2,23.2,41.1,23c1,0,29.9,7.7,33.4,10.8c0.4,8.4-16.4,1.3-18.6,1.4c7.5-3.2,8.4,12.7,8.4,12.7c7,15.2,9.2,3.1,23.9,10.2
		c14,6.8,55.7-5.9,59.9,1.9c-3.3-22.9,24.9-15.7,24.2-27c-13,1.2-34.2,1.3-45.2,8c-3.9,1.7-14.1,15.2-15.5,15.3
		c-1.9,0.1-33.9-29.9-35.5-21.6c5.8,0.6,10.8,0.4,16.3,1.3c-4.5-7.1-16.1-7.5-22.2-8.9c1.5-0.9,6.9,0.7,6.1-2c-0.9-1-2-1.1-3.2-0.2
		c8.5-10.6,35,7.3,38.5,15.8c8.2-2.5,9-13.1,23.7-11.5c1.1-3.6-3.8-5.6,6-8.1c0.1-0.4-9.1,12.1-4.4,13.6
		c12.2,3.8,47.6-17.2,52.5-15.6c-8.2-0.2-15.4,1-20-5.1c23,3.9,125.1-65.3,101.7-91.7c-1.1,0.9-2.1,1.9-3,3
		C478.2,49.7,478.9,46.3,480.3,43.1 M482.3,44.1c-1.2,3.9,2.6,3,5.1,3C486.3,45.4,484,45.1,482.3,44.1 M432.5,127.6
		c1.4-0.6-11.2,8.1-10.2,10.5C427.8,138.6,443,126.7,432.5,127.6 M224.4,142.4c-3,2.3,4.3,2.5,4.6,1
		C227.5,143,225.9,142.7,224.4,142.4 M226.3,145.1c-1,2.9,2.3,1.9,4,2C231.3,144.1,228.1,145.2,226.3,145.1 M303.5,162.4
		c-1,2,2.4,2.3,3.7,2.3C307.8,163,304.8,161.6,303.5,162.4 M421.4,173.2c2.8,6.9-2,5.9,8,9.9c-1.7-4.5-5.3-8.5,0-8
		C428.6,174,421.7,166.8,421.4,173.2 M318.5,175.2c-2.9,2.1,1.9,3.1,3.6,2.8C325.1,175.9,320.2,174.9,318.5,175.2 M274.4,179
		c-0.1,2.7-0.1,5.4,0,8.1C278.7,187.9,277.9,179.8,274.4,179 M411.2,188.9c1.1,3,2.8,5.8,5,8.3C408.2,184.7,417,186.8,411.2,188.9
		 M286.6,191.3c-1,1.1-0.8,4.6,1.3,3.7C287.7,193.7,289.3,190.3,286.6,191.3 M286.4,199c0.6,2.4-2.6,9.3,1.7,7.9
		C288.9,204.4,291,198.8,286.4,199 M315.5,199.4c-0.6,1.1-0.8,3.5,0.8,3.8C318.4,202.8,317.4,198.9,315.5,199.4 M319.5,203.2
		C309.1,208.4,333.5,201,319.5,203.2 M308.4,232.1C309.3,237,312.8,234.9,308.4,232.1 M318.4,234.2c-2.8,2.4,2.2,2.9,4,3
		C322,235.3,319.9,234.9,318.4,234.2 M307.2,240.9c-2.3,2.6-16.7,41.4-10.7,44c6.7-1.5,36-1.4,30.7-4.6c6.7,27.8,10.1-25.3,8.3-18.9
		c16.6-19.5-9.8-5.1-17.4-8.2c-1.9,2.8,26.6-17.3,7.2-15c1.9,0.8-2.1,5.6-4,7c-2-2.1-1.3-2.8,2.1-2
		C322.4,240.5,306.8,236.9,307.2,240.9 M332.6,288.2c0,3.3-0.6,11.1,0.5,15.1C333.4,301.4,339.5,286.7,332.6,288.2 M305.5,293.1
		c-2.1,5.2-1.4,9.9,2,14C311.1,305.5,309.7,292.7,305.5,293.1C305.2,296,307.7,292.9,305.5,293.1z"/>
	<path fill="#33073B" d="M506.2,43.1c3.8,0,7.6,0,11.4,0c-8.3,6.1-5.3,9.7-14.3,14.3C500.5,52,509.4,54.3,506.2,43.1z"/>
	<path fill="#33073B" d="M522.5,43.1c0.3,2.9,4.3,6.1-1.3,14.2C521,56.8,517.8,45.8,522.5,43.1z"/>
	<path fill="#33073B" d="M117,56.2c13-0.3,2-0.1,11.4,7.9C119.9,63.5,119.1,65.1,117,56.2 M121.5,55.2c-2.8,2,1.2,2.5,2.8,2.9
		C124.9,55.7,124.1,54.3,121.5,55.2z"/>
	<path fill="#33073B" d="M497.8,63c-1.6-9.3-7.7,31.5-27.7,33.1C471.4,87.5,493.9,62.4,497.8,63C497.3,60,495.9,62.7,497.8,63z"/>
	<path fill="#33073B" d="M157.4,79.1c4.7,2.9,7,7.1,6.9,12.5c-1.5-3.7-3.2-4.4-4.8-2.2C158,86.2,157.3,82.7,157.4,79.1
		C160.7,82.3,156,81.8,157.4,79.1z"/>
	<path fill="#33073B" d="M166.3,96.1c3.3-1.7,38.9,28.8,39.4,29.1c-13.1,2,2.2,0.9-2.5,4.3C191.5,122.6,173.9,107.2,166.3,96.1z"/>
	<path fill="#33073B" d="M463.6,103.3c3.4-8.4,6.3-9.8,8.6-4.1C470.9,100.9,461.9,111.7,463.6,103.3
		C463.7,99.4,463.5,103.8,463.6,103.3z"/>
	<path fill="#33073B" d="M164.8,110C169,115.1,152.6,117.6,164.8,110C166.9,112.6,163.4,110.9,164.8,110z"/>
	<path fill="#33073B" d="M181.4,123.1c2.4-0.1,82,66.2,80.5,74.7c-3.5-0.5-5.9,0.9-7.5,4.2c-7.2-14.4-8.3-10.5-15.7-22.9
		c-1.8,5.2-3.3,32.4-1.6,31.9c4.3-6.1,0-16.4,9.1-15.9c-3.6,10.4,1.3,17.8-3.7,29c11.2,6.1-2.7-15.9,4.7,7.2c-0.2-0.2-5.7-5.9-5.5-1
		c-1.7-5-2.3-10.1-1.7-15.3c-10.1,4.7-8.8,6.3-6.2-19c-0.8,0.1-9.5,13.5-13.4,5.2c3.4-9,0.9-2.5,3.7-16.2
		c-0.6,0.6-17.3,12.8-17.4,11.4c-3-9.3-7.9-17-8.5-25c5.5-6.4,3,7,4.8,6.9c-2.1-8.3,10-1.7,11.3-10c0,0.1-12.3-10.5-12.1-17.2
		c-5.1-1.4-1.8,17.5-6.8,17c-1.5-6.8,1.6-7.2,0.9-13.1c-13-1.2-8.3,0.5-18.2-7.8C191.7,146.3,181.1,133,181.4,123.1 M188.5,144.5
		c-5.4,1,1.5,6.2-6.2,6.8c-1.8,10.3,13.4-3.1,12.7-2.4C194.6,149.5,188.6,144.5,188.5,144.5 M215.4,169.2c-0.8,4-7,7.3-6.1,10.9
		c1.5-2.4,3.6-3.8,6.4-4.2c-1.6,5-3.5,9.5-4.1,14.1c-3.9-1.4,11.1-2.4,4.7-0.1c5.9-10.5,0.9-8.4,7-11.1
		C223,177.4,217.8,167.8,215.4,169.2 M230.6,179.4c-2.8,5.4-3.6,14-5.2,19.8C232.3,200.7,232.3,179,230.6,179.4 M233.6,211
		c-0.2,2-1.1,3.6-2.3,5.1C234,216.5,237.2,212.3,233.6,211z"/>
	<path fill="#33073B" d="M171.3,135.3c-4.7-5.4,7.7-5.1,7.2-4.9c-10.3,25.5-4.2-0.5-3.5,3C173.5,132.2,170.7,133.1,171.3,135.3
		C168.4,132,170.7,133.1,171.3,135.3z"/>
	<path fill="#33073B" d="M315.1,133.9c11-2.2,16.2-3.7,18.3,8.1c-8.3-2-3.7,3.6-2.3,9.3c3.3,1.8-22.2,7.7-20.8,4.1
		c-1.9-1.4-2.7-3.2-2.2-5.5C313.4,152.3,308.6,140.1,315.1,133.9C318.8,133.2,313.9,135.1,315.1,133.9z"/>
	<path fill="#33073B" d="M208.9,134.7C206.2,136.1,211.4,134.5,208.9,134.7C211.3,133.4,206.2,134.8,208.9,134.7z"/>
	<path fill="#33073B" d="M377.8,138.9c1.6-0.9,3.4-1.1,5-0.1C382.9,142.7,379.5,139.6,377.8,138.9z"/>
	<path fill="#33073B" d="M457.5,143.2C459.7,150.9,456.9,143.6,457.5,143.2C457.5,143.2,455.8,144.2,457.5,143.2z"/>
	<path fill="#33073B" d="M356,146.3c4.6-3.7,9.1-3.5,13.5,0.8C365,146.8,360.5,146.5,356,146.3C357.8,144.9,360.4,147.1,356,146.3z"
		/>
	<path fill="#33073B" d="M329.5,154.8C328.2,150.6,343.8,159.3,329.5,154.8C328.7,152.3,331.1,155.3,329.5,154.8z"/>
	<path fill="#33073B" d="M438.5,163.4c1.9-0.5,2.9,3.5,0.8,3.8C437.7,166.9,437.9,164.5,438.5,163.4z"/>
	<path fill="#33073B" d="M441.4,167.2C440.3,173,439.3,168.7,441.4,167.2C441.4,167.2,440.6,167.8,441.4,167.2z"/>
	<path fill="#33073B" d="M387.4,183.7c8.4-2.8,4,14.8,1.1,16.5c-2.9-15.6-3.6-3.5-4.2,2.9c0.5,0-8.3-9.4-6.7-9.1
		C377.5,194.2,392.9,190,387.4,183.7C389,183.2,387.7,184.1,387.4,183.7z"/>
	<path fill="#33073B" d="M442.4,183.2C445.1,182.3,449,189.2,442.4,183.2C444.3,182.6,442.4,183.2,442.4,183.2z"/>
	<path fill="#33073B" d="M376.6,188C382.7,186.5,377.8,197,376.6,188C378.9,187.5,376.7,189,376.6,188z"/>
	<path fill="#33073B" d="M363.3,195c-0.1,2,10.8,14.4-4.2,18.6C356.3,208.4,365.2,202,363.3,195z"/>
	<path fill="#33073B" d="M275.6,197.4C279.8,195.8,272.3,207.4,275.6,197.4C276.3,197.2,275.2,198.5,275.6,197.4z"/>
	<path fill="#33073B" d="M371.8,208.5c-3.2-14.9,11.7,13.5-0.7,14C369.1,217.8,369.4,213.1,371.8,208.5
		C371.2,205.7,373,211.8,371.8,208.5z"/>
	<path fill="#33073B" d="M283.5,211.2c6.6-2.8-1,7.3-0.6,6.6C278.4,218.8,278.6,216.6,283.5,211.2
		C285.9,210.2,281.8,213.1,283.5,211.2z"/>
	<path fill="#33073B" d="M292.5,218.1C299.1,221.7,291.1,226.9,292.5,218.1C293.8,218.8,292.3,219.4,292.5,218.1z"/>
	<path fill="#33073B" d="M300.5,219.2c2.8-1.3,1.6,2.3,1.8,3.9C299.9,223.8,298.1,220.5,300.5,219.2z"/>
	<path fill="#33073B" d="M285.4,224.9c7.4,5.1-3.7,21.5-5.3,20C282.8,239.9,286.5,230.7,285.4,224.9
		C287.2,226.1,285.8,227,285.4,224.9z"/>
	<path fill="#33073B" d="M375.9,232.1c2.3-1.9,5.4-1.1,5.6,2.1C379.5,234.1,377.6,233.1,375.9,232.1z"/>
	<path fill="#33073B" d="M251.6,233.9c0.8,0.2,7.2,8.7,7.7,6.7C257.5,248.8,247.1,240.1,251.6,233.9
		C255.3,234.7,251.3,234.2,251.6,233.9z"/>
	<path fill="#33073B" d="M273.6,237.5c18,1.4-13.4,17.2-5.4,2.5c-4.5,2.6-2.4,5.1-7.8,5.7C252.8,246.5,274.8,235.8,273.6,237.5
		C274.3,237.5,272,239.5,273.6,237.5z"/>
	<path fill="#33073B" d="M307.4,249.2C309.3,249.5,313.6,246.4,307.4,249.2C310.5,249.7,304.3,250.6,307.4,249.2z"/>
	<path fill="#33073B" d="M314.3,252.9C311.2,254.2,311.4,250.1,314.3,252.9C310.9,254.3,314.3,252.9,314.3,252.9z"/>
	<path fill="#33073B" d="M327.4,256.4c13.3,5.4-4.3,8.4-3.1,13.2C323.8,267.4,326.3,258.8,327.4,256.4
		C330,257.4,327,257.3,327.4,256.4z"/>
</g>
<rect x="0" y="0" fill="none" width="646.5" height="388.7"/>
<g>
</g>
<g>
</g>
<g>
</g>
<g>
</g>
<g>
</g>
<g>
</g>
<g>
</g>
<g>
</g>
<g>
</g>
<g>
</g>
<g>
</g>
<g>
</g>
<g>
</g>
<g>
</g>
<g>
</g>
</svg>
