<svg xmlns="http://www.w3.org/2000/svg" viewBox="0 0 503.3 399.8" enable-background="new 0 0 503.3 399.8"><g fill="#f0f0f0"><path d="M1.9,2.9c3.8,2,10.9,10,6.5,15.7C3,12,1.7,13.7,1.9,2.9"/><path d="m40.3 4.9c.2-4.4 8-.8 10-1.6-1.7 5.3 1 23.6 2.3 29.5.3 1.5 18.9 25.2 19.7 19.4-3.2-6.6-2.5-11.2 1.9-13.7-.3 2 2.5 53.1 3.2 52.9 3.5-.7 4.4-7.4 7-7.6 3.1-.2-23.4 35.1-15 38.6-6.1-2.5 13.4-6.6 13.9-4.9 0 .2-28.6 19.6-31.5 26.5-4.6-9.5 16.2-41.4 18.4-53.4-.3-25.8-3.2-24.7-17.1-40.2-1.8-1.7-16.2-12.8-18.9-6.9-4.2 9.3-17.6 5.5-20.3 15.6-2.2 6.6 4.6 30.9 15.4 21.4 9.8-9.1-4.2-13.4.7-21.1 9.4-.5 13.7 9 14.4 14.1-.9-.8-5.9 19.7-5.9 20.5.4 5.1 5.5 8.9 6.3 13 2.2 7 8.3 1.4 6.4 8.5-3.1 5.1-7.5 13.2-7.8 19.6-.3 1.7 2.6 34.5 8.1 21.3 4.8-6.7 18.4-6.7 22.2-12.4 13.3-6.4 40.6-23.8 17.7-40.4-5.5-4 28.5-60.1-5-49.3 3.9-19.1-1-20.1-9.6-33.9 4.6-7.7 18.8-.1 13.3-17.1 5-2 17.9-1 22.5.1-23.9 19.4 8 33.9 9 13.5.9-7.8 21.1 2.3 22 .7 1.4-2.6 15.6-15.1 3.8-14.2 10.5-1.8 21.1-.4 26.2 10.5-19.1 1.1-23.3 3.2-37.6 14.4-11.9 6.2-9.6 25.3-18.7 34.1 7.1 4.3-18.3 79.1 6.7 94.3 24.9 22.7 52.2 11.9 67.5-13.3 6.1-13.8-7.6-47.7-11.5-23-3.5 11.9-9.9 20.3-23.8 20.3 4.9-8.5 28.5-18.9 17.3-35.4-3.7-5.5-6.6-1.9-9 5.3-1.3 2.5-21.1 18.3-20 8.4 8.5-1.8 23.8-26 13.7-25.6 3.3-.1-37.3 15.9-23.8-1.7 18.8 3.9 18.6-14.2 16.5-13.8-6.4 0-15.9-12.5-5.4-14.7 5 24.9 20.7-5.4 11.1-5.4-7.8-6.1-5.3-15.7.3-21.8 15.2-2.7 56.1-15.9 65.2 8.9-9.5 4.2-23-4.8-18.4 15.9 1.8 5.7 18.8-2.1 25.2-1.5 12.5 2 19.7 18.2 28.8 20 4.5 2.7 4 13.8 8.1 3.7 4.6-11 19.4-20.9 29.2-23.7 7.5-1.1 13-1.6 20.1 1.4 6.9 10.2 8.2-9.8 6.5-9.8-.1 0-12.8-7.2-18.2-6.7 10.4-16.3 46.7-21.2 61.9-12.1 4.3 2.9 5.3 6.6 7.8 10.9.2 7.4-9.1 14.6-8.9 16.1-.8 12.9 17.1 16.6 16.1 3.3 3.6-.9 1.8 13.4-8 14.3 1.9.2-.3 27.4 17.6 13.4 6 .3-16.9 19.9-18.8 4.8-.5-4.9-13.1 4.1-5.1 12.4 4.8 5.1 6.3 7.9 13.7 9 6.9 8.4-35-14.1-23.3-15.8-26-2.5 10.1 38.9 10.4 36.5-7.2 12.5-20.7-16-22.1-19.1-11.5-18-4.6.6-12.8 9.4-10.6 2.9 10.3 34 18 35.5 4.1 1.3 47.7 6.8 47.7-6.7 30-47 17.3-142.9-45.8-142.9 0-9.6 20.2-10.2 24.4-9.7-1.9 1.5-3.2 3.4-4 5.7 1.8 6.9 14.1 6.3 18.3 5 13.2-.4 16 3.1 21.9 13.6 6.3 4.9 6.5-18.8.4-24 15-1.7 17.7-3.1 20.4 10.4-.5 4.7 13 4.6 14.6 5.4-1.8 1.9-9.7 7.2-10.6 10.3-.9 3.5-.2 23.2-.7 23.7-.9.8-24.2-4.4-12.6 11.2 5.1 9.7 4 25.2 8.6 36.5-28.8 10 9.7 38.9 22.1 41.9 3.6 1 23.7 16.9 22.4 9 7.5-11.8-1.3-31.7-8.9-40.3 4.3-2.3 12-7.8 12.9-13.5 1.8-6.8-6.5-28.4-2.3-31.3 7.8-3.3 21.2-17.6 9.8 2.5 1.7.6 2 10.1 10.3 9.5 7.5-.3 3.7 25.8 3.8 32.4.1.7-11.2 35.1-2.3 32.4-9.8 5.4-6.7 17.5-2.6 24.7 0 3.5 5.8 3.7 4.4 11.9-2.2 13 3.1 27.4-.3 40.1-7.2 22.6-26.1 6.9-37.4 14.3.2 0 22.7 49.8 36.6 13.6 3.4 1.6 1.6 28.4 1.5 33.6-5.9-4-4.9-14.1-8.5-16.2 1.3 1.3-31.6 16.9-28.8 25.6 8.9.7 16.8-11.4 22.9.6-2.2 0-20.1 4.1-13 8.2 5.1 2.9 15.4-3.9 15.4 9.3-.9 11.3-26.1 2.2-27.1 4.8-1.7 32.7 21.9 18.1 38.9 14.7 0 26.8-.3 12.5-17.3 20-5.4 2.4-8.6 16.2-7.9 15.8-2.6 1.8 6.6 20.9 10.4 16.4 3.1-3.6-1.9-13.4 7-12-5.3 12.5 6.8 8.8 7.9 13.5 4.2 18-37.7 13.6-43.9 13.8 0-19-8.4-32.9-27.9-35.3-24.9-1.5-31.2 7.5-44.5 24.3-8.9 7 2.3 14.1-14.9 11.2-6.6-1.1-7.1-11.7-14.9-12.9-3.4-1.8-34.9-19.1-36.4-18.6-7.8 2.6-1.7 25.5-.6 30.9-11 1.2-22.1.2-33.2.5 2.2-5.7 4.9-19.9-3.9-21.4 4.9-10.3 24 5.8 19.6-20.3-.3 1.5-6.1-8-5.6-7.3 6.9-4.2 5.1-14.9 3.9-21.4-.8-4.3-8.6-7.8-10.8-11 4.3-7.4-1.2-9.6-2.2-14.5-.6-3.1-14.2-23.2-14.3-22.8-3.7 9.1 3.1 22.3-12 24.1-13.7 0-7.9-16.7-12.8-24.4-.1-.1-24.4 47.6-26.2 48.3-7.5 3.1 4.8 25.9-4.4 33.6-3.1 1.4.8 13.2 4.4 14.9 5.7 2.8 10.5 1 16.4.5-4.4 5.3-9.8 10.1-5.1 20.4-2.4 4.1-31.6 3.8-32-1.4 1.2-8.1 2-14.1.7-22.4-2-6.1-24.9 10.3-32.9 13-13.3 3.9-13.2 12.3-26.8 12.1-11.4-.1-17-30.1-29.4-27.1-18.8-3.1-48.2-5.6-54.1 18.8-6.4 20-38.3 4.5-55.8 3.4 0-10.9 5.9-18.5 5.9-8 0 5.3 3.2 5.8 8.2 5.4 8.6-.7 3-9.9 5.6-14.3 4.8 2.5 4.3 14.4 7.2 14.5 9 2.2 12.4-25 6.1-27.5-4.5-4-26.1-13.6-26.8-3.3-10.5 10.9-7.4-20.8-3.9-23.9.7-8.4 11.7 1.7 16.5 3.7 20.7 15.7 40.8-15.3 34.4-17.8-2.4-.9-29.9 3.1-27.9-3.6-.5.7 17.7-19.9 17.6-11.8-.3-10.5-12-1.9-13.3-8.8 6.8-7.1 21.4 4.2 24.1 1.4 6.9-7.5-22.1-18.3-21.3-17.4-10.1-8.5-8.8-3.2-15.8 7.9-9.4 11-28.1-3.1-9-5.6 16.4-3.8 2.9-22.2 8-31.5 10 7.8 9.3 16.5 24.9 14.2 1.7-1.2 22.2-23.1 15.9-25.1-9.4-2.3-27.1 6.9-31.9-5.6-5.7-9.7-13.9-17.1-24.2-10 .1-6.9-4-20.4 4.2-21.5 2.9-.4 6.5-5.6 6.8-8.4 1.2-7.8.7-14.8-5.5-20 6.9-5.5 21.9 8.3 21.4-12.1-.1-2.3-1.9-9.1-4.6-10.5-7.1-12.6 1.1 0 .5-9.6.5-4.8 2.1-25-6.8-27.3-9.8-4 .6-13.9-6.7-19.6-13-16.1-20.6-58.2 2.2-68.4 8.4-4.6 21.3 6.9 25.6 3.7 8.7-5.7 3.9-17.6 1.2-24.8m314.2 30.2c-19.7 7.7-7.7 28.5-17.8 41.5.9.1-12.7-6.9-10.6-3.5 3.4-7-19.3 6-8.5 15 6.1 5 15.5.9 20-.6.4.6 5.9 24.3 8.2 12.2 7.7-2 7.1-27.2 6.8-32.3-.6-10.8 3.1-11.1 8-16.4 7.7-8.6-6.1-15.5-6.1-15.9m-190.7 3.8c-1-.1 8.3 29.9 8.7 34.6 1.7 12.2-1.5 17.1 3.8 25.5 10.1 16 7-12.1 11.7-11.3-2.3 6.1 16.9 1.9 18.4 1.5 13.8-16.4-15.6-15.2-15.6-15.1-8.8 7.6-7.4-55.1-27-35.5m114.4 40.3c-4.2 8.7-.4 40.9-12.4 39.1 0-4.3 1.7-15.7-3.5-18.3-5.3-2.7-5.5 18.4-5.6 18.8-5.2-.5-9.5-9.5-8.7-15.4 2.9 1.8 2.3-17.2 2.4-14.1-3.3-7.5-10.8-7-10.5-6.5-5.3 3.5-5.3 4.7-7.7 10.8-2.6-1-10.1-.8-12.3.8-4.5 3.3-2.2 14.6-1.6 18.8 1.4 9.7 13.6-16.7 14.8 2.7-12.8 22.3 14 37.9 25.7 17.7.3.1.6.3.8.5-1.6 5.6-9.8 27.6-18.7 22 .4-.3-14.9-23.2-14.3 3.3-6.1-1.6-6.7-14.9-7.3-14.7-10.4 1.9-13.3 25.9-5.5 32.4 10.2 8.4 28.7-.1 38.6-3 8.7-.8 4.1-5.8 12.7-3.8 3.8 2.4 17.3 8.1 21.5 8 35.5 17.6 22.8-37.9 15.7-33.6-4.1 2.5.2 12-6.7 13.9 2.3-10.1-2.5-16.8-11.8-12.9-5.2 1.2 3.1 12.4-9 8.7-1.6-7.1-12.7-11.5-11.8-20.5 2.5 2.6 33.4 13.7 28.8.8 3.5-9.5-3-18.2 0-24.9 2.7-6.1 9.6 4.9 9.6 4.5 23.4-4.9-23.2-36.7-23.3-35.4m143.9 71.7c6.9-.8-3 19.8-4.9 21.7-6.1 6-17.6 1.5-23.8-2.5-9.6-6.1-13.7.2-11.2 8.1 4.3 17.9-.8 12.4-8.6 20.5.4 5.1-25.4-5.3-27.7-10.8-2.5-5.9-1.5-21.4-5-25-10.4-10.9-10.3 23.7-7.3 28.2 4.6 7 12.8 11.7 19 17.5-.6 4.4-7.1 4.6-4.6 12.4-1.5 3.2 16.1 8.4 16.8 5 2.5-12.2-6.8-.5 5.6-15.8 4.2 2 15.6-5.2 18.9-7.3 1.3.5 5.5-8 5.4-9.2-1-11.3 7.5-5.4 14.1-5.9 10.4-.8 16.5-3.3 24.7-8.4 7.2-2.5 19.8-7.2 25.3-1.4 12.9 13.7 4.8 13.8 10.3 30.7-5.4-2.6-17.4 10.6-27.3 2.8-.5.8-3-9.6-3-9.8-.6-6.8 10.6-8.4 10.6-12 0-6.3-14.6.2-14.3.8-5.3 5.5-6.5 11-5.9 19.6-1 2.2 8.4 12.7 9.6 11.9.5 1.6-7 16.8-8.5 19.1-7.2-7.5-9.6-18.2-21.6-20.1-7.6-.2-30 11.9-20.6 22.4-1-5.5-14-17-20.4-10.3-5.5 5.7-3.3 26.6-.5 32.8 3.8 4.5 15.7 13.9 13.6-.6-1.9-2.4 9.6 6.3 9.6 6.3 0 10.4-1.4 12.8-6.9 18.6-18.6 19.7-28.5-21.1-38.6-17.6 1.4-2.4-14.4-11.3-15.6-13.2-1.8 3.8-7.7-19 .1-19.4-6.9-.9-13.1 5.3-21.4 3.8-2.1-.6-.6-3.9-4.2-2.7-.4 4.4 22.3-9.3 13.5-10.6-14.2-2-9.9.7-13.5-11.2 12-9.4 22.7 4 26-8.8 8.2-11-18.7-16.6-21.2-16.9-5.6 2.7-24.1 15.6-28.8 14.6-1.6-.4-3.4-18.5-6.1-21.9-1.8-7.2-13.8-6.3-14.5-7.7-17.6 3.9-10.7 17.4-17.1 29.7-9.3 1.1-54.9-32.9-51.1 5.7.7 6.7 15.5 3.4 21.7 2.6 4-6.7 4.3 21.1.6 14.7-2.7 5-11.6-2.1-11.6 4.3-.6 6 11.8 2.7 13.7 4.4-12.2 10-12.6-.9-23.8.9-1.5.4 1.1 11.5 4.2 10.6-1 1.5-1.9 5.8-5.9 10-1.1-1.1-12.9 11-12.9 10.9-4.6-3.2-24.3 34.6-41.9 22.2 1.7-3.1-9.6-16.7 1-27.8-1.4-.2 17 12.9 13.2 7.9 12.6-.7 3.8-24.8 4-29.3-4 .3 1.8-18-13.6-7.6-1.3-.8-6.4 7.5-7.3 8-2-42.3-45.2-7.7-40.8-.8-2.1 2.5-7.1-19.7-10.9-16.5 2.3 3.3 12-18.2 12-21.4-.1-8-14.5-15.8-14.5-15.9-10.8-.1 4.7 10 2.5 17.9-2.4 8.3-19.3 14.7-23.7 9.2-16.1-20.1 3.5-50.9 26.5-36 12.6 8.2 27.2 9.9 42.8 7.5 3.4 12 4 20.3 19.1 22 6 2.1 9.4 3.3 14.6 6.5 5.8 6.7-6.9 7.9-2.5 12.2 10.7 10.5 23.8-22.9 9-17.3-.3-1.3 15.1-10.2 16.3-13.6 2.3 1.4 14.7-35.1 3.3-37.4-5.6-1.1-9.5 22.9-10.6 27.1-3.4 13-22 10.7-29.6 11.4-19.1 1.8 6.2-28.7-10.6-30-12-.9-17.4 14.5-32.4 4-2.9-2-8.8-32.8-13.2-16.7-3.2.5-1.8 10.3-2.9 12.5-.4-1.4-15.8-4.2-17.6-4.2-3.7-.1-26.5 10.3-24.1 13.1-6.7 8.8-8.2 20-4.6 31.2-2.2 9.3 22.1 21.7 22 22-2.7-.2-3.2 6.4-3.1 6.4 8.5 4.9 16.2-12.3 16.8 4.6-2.7 1.3-7.4 12.6-4.7 15.2.5 6.2-4 28.5 3.7 31.6 4.9 2 10.4-19.3 19.7-1.8 6.9 12.9 18.7 25.5 33.8 25.6 6 0 53.5-21.7 48.6-28.7-3.3-1.6 55.9-41.1 56-40.7-1.3-1.4 31.6-7 32.7-7 0-3 29.6 12.9 31.4 12.1 0-.2 47.4 37.6 47.3 37.6 9.9 9.1 39.3 33.9 54.2 20.2 4.7 2 19.1-15.2 19.1-19.4 3.6-1 7-8.4 11-10.4 5.6-2.8 11.6 7.2 13.1 5.6 14.8 0-7.3-61 8.5-51 2.4 2.7 5.3 3.5 8.5 2.5 2.6-.9-2.8-7.2-2.1-7.7 5.6-4.1 39.5-27 21.7-41-3.5-8-7.9-10.3-13.3-17.8.5-.6-31-8.4-32.3-1 .7 4.2-9.8-28-12.3-16m-167.1 90.5c-11 0-77.4 44.2-73.2 59-.3-1.1 38.9-26 38.4-27.7.9.2 29-12 28.8-11.5 8.3 1.2 6.3 8.8 4.1 16.4-1.9 2.2 6.8 11.7 8.9 6.7 4.4 1.4 3.7-15.3 2.6-17.1 5.2-7.5.3.4 11.7-5.6.2.2 27.3 11.6 26.8 12.2 2.8 8.2 30.2 18.8 33.1 24.9 0-18.2-65.7-66.2-81.1-56.8m83.6 63.2c-4 .4-22.9 6.8-20.4 10.6-.2 1.2-8.5 25.3-5.1 24.4 7.5 31.4 27 16.5 46.4 22.6.6 5.3 12.9 21.7 12.5 13.5-.8-19.6.1-10.4 11.6-22.5 1.9 1.6 27.5 8.5 27 6.1 2.1-.5-4.7-16.9-3-21.6 7.1-15 35.7-4.7 39.8 9.2 1 3.5-.5 24.6 8.5 21.6 16.9-5.7-6.1-37.8-10.3-42.2-4.2 9.2-5.3-15.2-2-11 4.2-14-14.9-9-15.3-9.6 10.7 14.9-29.1 22.7-27.9 24.1-1.4 1.5-3 4.5-3.1 6.4-.7 10.1-1.3 3.9-8 7.9 1.5-8-28.4 5.5-30.7 6.1-15.1 9.5-38.4 1.1-35.9-18.4 4-20.6 15.3-10.7 29.1-10.7-.5.7 2.6 10.2 1.5 12.5-1.1 2.2-10.1 4.3-8.9 7.8 2.3 6.5 27.4-5.9 17.6-23.4-2.8-4.9-15.6-19.3-23.4-13.1m-167.4 4c-32.5 0-10.7 50.1 1.5 35.4 2.2-2.6-13.2-5.2-8.6-16.3.8-1.9 3.7-4.6 4.6-6.7 6.7 4.3 19.3-6.8 24.6 8 6.3 32.7-21 20.4-37.8 23.7-10.1-2.3-16.9-6.2-29.7-5.6-8.8-3.1-6.1-14.9-14.8-16.5-5.3-4.8-34.8-4.7-22-18.3-.3-1.4-.6-2.7-1-4-18.4-3.8-14.4 21.1-10.5 19.2-.2 1.5-15.6 12.2-17.6 16.4-10.8 11.3 3.7 42.3 6.3 21.7 8.2-20 4-28.1 30.9-28.5 23.2 8.1-5.7 28.1 17.3 28.1 9.2-2.6 11.7-8 23-6.9 3.7.8 7.7 11.1 9.1 11.3-1.5-4.7-.1 25.7 5.8 10.3 8.1-2.5.4-12 9.2-13.9 2.8 1.4 9.2 3.3 11.7 1.7 4.6 0 25.9-4.1 25.3-12.9 4.7 1.6 8.1-33.2 2.7-32.6-2-12.5-30.6-16.1-30.1-13.6"/><path d="m189.4 3.5c5.6-1.6 15.4 2 13.4 10.5-5.4 2-10.9-7-13.4-10.5"/><path d="m205 2.9c9.3 2.3 14 7.9 23.6 4.9 14.7-1.9 12.7-9.9 20.1 6.7 3.1 6.4 4.8 34.3 12.8 37.4 8.4 2.4 11.4-30.1 11.9-31.5 7.9-12.4-1.4-18.5 17.1-17.3 9.9 14.2 19.8-.1 29-.1-6.6 13.9-20.4 15.5-30.4 23.9-3.8 3.2-23.3 37.7-26.9 38.4-1.6-6.4-19.4-38.4-25.8-37.2-7.8-1.6-31.2-16.5-31.2-25.1"/><path d="m327.4 3.5c4-2.6 7-2.6 8.9-.1-.3 2.2-9.1 10.3-12.1 10.3-3.4-1.4 2.7-9.2 3.2-10.2"/><path d="m472.6 6.9c-2-4.8 8.6-7.5 9.1-.1.2 3.2-3.8 6.2-3.8 10.3 0 19.1 14.6 6.1 24.2 6.1-.1 8.6 0 17.2.1 25.8-.4 4-7.2-1.4-6.9 2.6-1.2-1.2-4.4-9.8-7.4-9.6-9.5-1.2-33.2 9.8-33.1 22.6.2 13.3-5.4 31.5 3.1 44.9 3.5 5.5 17.5 24 12.6 30.8-2.9-1.3-8.1-15.4-11.5-14.1-5.5-.9-16.8-6-20.3-10.7 1.9-3.4 15.7 5.1 14.6-2.8-.2-1.4-2.2-11.1-4.5-11.8-2-.6-14-11.9-10.8-19.3-.4 0 8 9.2 8.5 7.1 2.1-3.5 3.1-52.1 4.4-49.8 1.8 3.3.8 22.2 10.7 5 8.2-1.4 13.3-32 11.2-36.8"/><path d="m406.8 242.8c16.2-4.7 14.6 18 18.2 26.3-10.7 0-7.8 1.3-15.4-4.2-4.3-5.3-7.3-1.9-12.7-1 6.3-8-7.8-14.1 9.9-21.1"/><path d="m108.7 246.8c18.5-3.9 15.1 10 14.2 20.9-7.7 0-10.9-5.9-12.7 5.6-1.3.4-11.7 6.8-12.6 1.3-2.1-6.5 2.2-26.8 10.9-27.9"/><path d="m257.8 333.2c9.7-1.9 19.8 25 18.5 32.4-5.5 8.2-9.4 2.3-9.1 14.3 0 10-13.1 13.8-12.4 10.5-2-1.7-1.6-6.2-3.1-8 1.3-12.3-8.2-10.4-9.1-21.7 2.8-5.9 9.6-26.9 15.6-27.3"/><path d="m324.2 380.1c5.2 4.8 8.7 10.2 14.4 14.6-10.3 9.1-15.5-8.1-14.4-14.7"/><path d="m424.4 386.9c5.2-4 15.3 4.4 17.2 8.6-3.4 0-18.2-3.1-17.2-8.6"/><path d="m84.6 393.7c2.7-.2 5.3-.3 8-.5-2.8 4.9-16.3 2.9-8 .5"/></g><g fill="#900"><path d="m155.5 35.6l33.1 133 100.8-30.6-6.6-39.4-42.4 10.4-3.7-7.5 18.6-1.8-3.5-37.9-13.6 4.4-3.3-7.1 21-6.3-15.6-44.7-84.8 27.5"/><path d="m157.2 265.7l-32 5.3-20.6 18.2 3 23.5 14.4-4.2 5.5 6.2-14.5 6.2 9.2 22.8 73.4-40.7-14.4-16.6-14.7 5.8-8.5-4.6 14.8-9.3-15.6-12.6"/><path d="m193.4 306.6l-68.9 39.3 21.2 25.5 15.6-12 4.6 3-.6 17.3 47.9 1.2 5.6-75.6-25.4 1.3m-23.4 42.6l11-11.8-5.2 14.5-5.8-2.7"/><path d="m241.9 296.4l-19.8 10.8-3 72.1 35.1-25.8-2.5-10.8 19-38.7-28.8-7.6m1.1 28l-2.1-8.4 8.2-.4-6.1 8.8"/><path d="m317 280.5l-30.8-4.5-23.8 16.8 19.8 54.4 29.6-20.5-5-8.4 10.2-37.8m-21.7 21.1l-4.8-5.2 9.9-4.9-5.1 10.1"/><path d="m383.1 277.8l5.9 12.1 15.5-5.4.1-9.6-21.5 2.9"/><path d="m61.4 282.6l-14.3 1.4-6.1 15.7 20.2 7 15.5-9.2v-10.1l15.3-4.8 13 11 18.4-14.2-44-8.3-18 11.5"/><path d="m138.3 270.1l21.1-22-3.5-6.8 18.7-2.9 8.5 9.4-11.3 5.4-12.6 19.3-20.9-2.4"/><path d="m114.7 109l36.5-47.4-44.4-36.5-74 20.3 37.2 172.9 89-36 16.2-49.3-60.5-24m-39.2-37.2l22.7.3-11.4 18.8-11.3-19.1m27.1 94.9l-6.5-14.1 34-.5-27.5 14.6"/></g><path fill="#040404" d="m361.9 291.8l2.5-1.1 1 4.3 2.3 2.8.1 3-3.2 4.7-3.3 2.5-1.5 2.7-.6-.9.5-4.9 4.3-2.7-.6-6.7-1.5-3.7"/><path fill="#900" d="m308.3 273.9l29.2 22.4 10.5 19.2 18-12.9-3.3-18.9 10.2-10.1-31.2-11.7-5 7.2-9.1-1.6-19.3 6.4"/><g fill="#040404"><path d="m.3 2.1l2.4-2.1h498.4l1.9.8v394.5l-.8 2.9-1.2.3-.2-.5h-43.4l-3.8 1.9.6-1.8-7 1.8-.3-1.9h-14.2l.6 1.9-1.3-1.9-63.7.8-2-1.1-1.3 2 .6-1.9-23.8 1.2-2.9-1.2-1.7 1.4-3.2-1.3-20-.2.1.5-2.1 1.4 1.4-1.9h-3.8l-2.5 1.7-2.2-1.8 1.4 2-2.1-1.9-2.5.2-.6 1.7-1.3-1.8-1.3 1-10.4-1-3.9 1.9-2-1.9-3.8-.1 2.1 1.9-2.9-1.8-33.4.6-2.6-.8-1.8 1.3-33.2-1.2-3.2 1.4-1.3-1.4h-32.4l-1.5 1.9-1.2-1.8-8.6 1-5.6-1.2-1.8 1.7-2.1-1.8-27.3.1-1.4 1.1-54.2.2 1.4-1.4-66.8-.2.1-396m7.5.6l-4.4.1-1 5.2-1.1-2.7.6 5.2h-.6l.6 17.3h-.6l.8 48.5-.2.5-.6.2.1 20 .6.1-.1 8.4h-.6l.3 9.9 1.5 2.7 4-3 3.2-.3 1.5-2.1-1.9.6.5-5.3-.6-.7.1-4.5-.5.2.5-11.2-.5.2.3-1.8-1-4.2.6.1-.1-7.3.6-.1-.6-10.9.6-.2-.1-30.9 1.9 6.5-1.9-9 .6-4.7 1.4-2.6-.6-4.3.8-2h1.2l-.3-17.7.3-.5-5.1.1m7.7-1.2l-.7 6.7-.6-.2 1.4 5.2-2.1 12.4-1.3-4.1 1.4 4.8-.2 4.3.5-.2.2.8-1.2 6.7-.6-.3-1.2 51.1 1-.1v2.7l-1.2 3.7.1 4.7.7-.2-.3 2.1-.6.2v4.2l1.9 4 .1-3.4.7 1.5-.1.6.7.2-.8 5.6 2-.8-1.4 2 3.7-.1 3.2-3.3 2.9 2.9-.9-2.8 5.9-2.5 1.3-1.4.8.3.6 1.2 3.4 2.3 2.4.1-1.4-3.8.7-2.6-1.2-6-1.2.1-.8-.3-.6-42.6-.6-.1 1.4-4 .1-2.5 1.9-3.8-3 1.6-3-.8 1.3-1.6 11.3-5.1-.3-4.7 1.7-1.1-.3.6 15.3-6 1.4.7 14.5-4.3v1l7.3-1.9-.1.6 9.5-2.9 3.9.4.6-1 3 .8.3-.3 6.6.8 2.9 1.4 1.5-1.3.3.8 3.7 1 .1 1.5h.6l2.1 1.4-.1-2.6 2.8 3.2-.3.6 5.4.6 1.7-.6.8.3-.7 2.3 3.8 1.3 3.2 2.8 1.4-3.4 1.5 5.1 12.1 17-.5 3 3.1 3.6 2.1 8.4-2.2-.1 1.6 1.9-.3 13.6 2.6-.2 2.5-1.4 2.7.9-.1-2.7 6.5-3.3-.7-9-.6.8-1.8-5.2-.3-5.2-1.7-4.1v-3.8l-.5.3-.8-.8.7-4.7-1.4-7.5-1.1-.9-1.2.8-4.8-11.7.3-3.8 2.7-.1-.1 1.9 2.9 6-.3 1.8 2.7-5.2-2.4.7.3-5.5 1.6-1.2-.9-1.2-1.4.6-11-.7.8-1.6 8.6-1.6 2.9.7 4.6-3.5 2.5.8-3.3-2 1.6-9.5-3.2-1.9-.9 1.2-3-1.2h-7.1l.1-1.1-5.3 1.1-8.4-1.3.8 1.2-6.3-.2-1.6 1.2.1-2.1-5.1-.2 1.4 1.4-9.1-.1-.3 2.1-.9-.3.1-1.2-.5.2-4.7-.8-1.2.8-4-.8-2 1.4.1-1.4-8.5-1.3v.6h-1.3v.6l-7.7-1.2.4 1.4-3.8-.2-1.2-1.2-.5 1.4-9.3-1.4.8 1.2-2.7.8-4-.8-1.7-.9-9.3 6.3-1-.1-1.4-1.3.3 4-.9.8-3.4 1.2-3-.1-1.2 2.2-.9-3.1 5.7-4.3 2.7 2 .1-3.2 5.8-4.6h-7.8v.6h-.6v.6l-.8 2-1.1-.8-.4-1.5-11.7-.8.1.6-2 .1v-.6l-5.2 1.2-2.5-.5v-.7l-9.7-.1m151 0l1.9 9 1.2.8-.6-8.4-2.5-1.4m12.9 1.9l3.9.6 2.9-1-5.3-1.2-1.5 1.6m7.9 0l.8 3.2-.8-3.2m-16.2 1.3l.1 5.2-.1-5.2m4.7 2.1l1.2 3.2-1.2-3.2m8.3 4.5l-3.4-1.4 3.4 1.4m-3.8 1.3l-.8 2.5 3.3-2.6-2.5.1m57.1 7.2l-3.9-.2-2.5.8h-4.5l-.3 1.4-3.1-2.1.1 1.2-.8 1.6-2.3-2.1-5.2.8-.1 1.2 6.7 4.4 2.9.7 13.8 9.1h.6l-1.4-5.3 4-3.9 1.3-8.5-5.3.9m-37.4-.1l-1.4 3.4-.3 5.7 4.4-4.4-.3-2.1-.5-.2-.1-1.4-1.8-1m-23 3.1l-2.2 2.3-2.1-.3-4.3 8 1.9 4.5.5-.8 3.2-2-.2-2.1 2.5-3.8 1.1 1.5.5-3.4.6.8.8-7.3-2.1 2.7m10.6-2.4l-13 15.9-.1 2.9h-2.6l4.5 8.3.1 2.6 1.3-1.9 3.8-1.6-.5-2.5 1.2-2.6 1.2.7v.6l1.4 1.4.8.2-8 10.8 3.2-.1 2.3.8-.3.6h.6l-2.7 2.5 2.9-.6-.3 2 6.9-11.6 2-1 1.9-4.6 2.5-1.9.9-3.6-.1-3.4 3.9-6-4.1 4.9.6-4.7-1-1.3.5-2.1-7 10.1-1.4-1.4 6.4-13.9-12.4 17-1.1.1-.6-1.2 5.7-8.7.8 1.4v-2.1l3.7-6.3-4.4.1m-26.4 1.2l3.1 5.1-.9-4.1-2.2-1m44.5 4.6l-3.2 4.6-.1 2.5 3-3.4 2.1.1-.1-3.3 1.6-2.4-3.3 1.9m-113.4-.2l4 .6 1 .5 4.1.3 1.2-1.9-10.3.5m12.3.1l-1.3.1 4.1 1.2-2.8-1.3m106.4.1l-5.4 9.3-.7-2.1-2.5 3.8 1.9-.6.2.8-3.9 3.8-1.2-.7-.6 3.5-4.6 5.8-2.7 1 1.4.6-10.2 14.5-.1 4.4 1.3 4 .8-.8-.3 4.1 1.2-5.4 1.4 3.5.3 8.4-1.1.6 1.4 2.7-1.4 5.1 1.9-4 .1 2.7 3.5-2.7.7.2-8.1 8.9-1.9 5.2 1.2 4 1.2-.9.8.8-2.1 1.9 1.7 2.7 5.2-9.1.1-1.9 5.1-6 2 .1.8 1-.6 1.2-1.4-1.5-1.3 7.4-7.8 11-2.8 9 2.1-.8-.6.9 8.9 24.5.1 2.7 1.7-1.3 1.6 1.4-3.2 3.5.5 4.7 5.7-12.4 3.2-3.4 2.1 1.6-1.5 2.8-1.7-1.4 1.8 1.7.7.2-1.4 1.7-2.5.2.8 3 .9-1 .6-.3 2.1.7 4.1-1.2 3.9-3.5 1.5 1.8 9.4-1.6 3.5-2 3.2.3 4.2-1 7.1-13.7 2.3.1-.6 3.4-2.1-2.1 1.5 3.2-.1 2-3.6 3.8 1.4 1 12.8-3.5.3-.5 6.7-2.2 2.5-2.6 1 1.4 1.6-2 3 .1-.7-7.3.1-.5-.7-4.3.6.3-1.4-12.4-1.7 1.5-2.8 5.4-2.5-1.7v-3.1l-5.7 3.9-.3-.5h-3.2l-.8 2.6-1.3-.7v-2.6h-5.6l-2.2 1.4-3.7.6-3.6-.8.3-1.9-2.7 2.7-1.8-.6.1 3.2-1.5 4.5.7 1.2-1.3 1.3-2.5 4.7h-1.2l-.6 5.4-5.1 5.6-.5-.1-.7-5.8 4.9-5.4 4.9-14.1-.4-1.1 1.8-2.1 1.1-.1-.6-4.5-1.2.1 1.2-1.6-.1-3.2 9.1-8.9v-.8l3.9-5.2-.3-1.6 3.2-5.2-.3-10.5-4.4 2.8-.6-.2-1.4 11.7-5.2 4.6v-2.6l3-5.5-1.6.3.3-7.3.3-.5-7.8 1.3-3.9 7.4-1.2 1.2-3.2-.6-3.9 9.7-.5.1-2.3-2.3-1.6 1.6-1.4-2.2-1.6 1.3.7-2.9 4 .3 2.5-4 2.6.1 1.5-5.2-3.3 2-1.6 2.7-1.4-1.4 8.4-11.7-1.1-10.9-.5.1-12.5 22.6v1.5l-7.4 8.5-3 1.1-.5-1.8 9.8-16.4.5.1 10.3-17.8.1-3.1 1-1.2 2.9.6 2.1-5.3 5-5.9 1-3-1-3.2-2.3-1.2v1.9l-1.2 1.4-.3-2.2-1.7 4.2-5.4 6.4-3.1 2 1.2-3.3-2.1-.3 1.9-5-1.7-1.4-1.2 2.7-.3-.8 1.2-2.9-.9-1.6-6.8 7.1-.1 2.5-1.2 3.4-5 .7 1.1-7.9.8.8h3l.7-3.4 1.1-.2 5.9-9 2.6-1.4-4.3-3m-198.9 2.1l.5 2.5-.5-2.5m70 1.2l-2.7 1.8 8.4-2.1 1.2.2-4.7-.4-2.3.5m14 .1l3.9 1.2-3.9-1.2m121.8.8l-.8 2.5.8-2.5m2 3.3l-3.4 3.2-.1 3.8 2.5-.3 3.6-6.2-1-2.1.1-2-1.7 3.6m-150.2-.8l-2.3.3-6.2 3.4 13-5.8-4.5 2.1m45.3-1.5l3.3 2.5-2.5-1.2-.8-1.3m-21.4 3.7l-7.6.9-1.9 1.9.1 3.2-3.9 9.3.5 1.9-1.9 8.3-2.7 3.2 3.8-2.7-.6 2 2.2-1.5.3-3.1 1.9-4 1.3-.6.8.1.2 2.1-2 2.6 3.5-4.3 2.4-6 1.2-.5 1.9-4.7-1.4-2 5.2-4-1.1-2.5-2.4.3m5.9 4l-1.4 2.6-.3 2.7-5.6 11.3-6 6.4 1.9 4.4 4.5 1.2 3.7-7.3 1.2-1 1.6 1.9.6-2.4-2.1-.1v-1.6l.6.2 3.2-7.3.6.1 2-4.1 4.7-4.3-1.2-6.6-1.2.3-1.4-1.3-5.5 5m23.2-4.3l1.6 1.6-1.6-1.6m79.1 0l.5 2.5-.5-2.5m-147.1 2.9l-1.2.3.3.5-2.2 2.5 3.1.1 2.9-2.5-1.7.4 4.1-3.7-1.2.7v-.6l-4.1 2.3m-7 1.5l5.2-2-5.2 2m84.9-2l2.7 2.7-2.7-2.7m-51.8 2.6l-.9 2.7-1.9 2.3-.1 2.1 5.2-9.1-2.3 2m32.8-1.8l.3 1-5.5 12.4-.4 5.4-1.2 1.7.1-2-1.5 1.2-1.4 3-4.7 4.3-.8 3 2.7.2.5 2.3 4.1 1.6.1 1.3 3.2-2.1 1.3-3.8v-.5l2.4-2.1.1 3.4-2.7 4.5 3.2-4.7.5-1.8 2.5-2.3 1.4-3.5 1.7-1.9 1.5-3.2 1.5-.8 1.8-5.1.1-2.7-3.9 7.8-2.4 2.5-.8 2.8-2.8-.2 2.9-4.9 1-.6 1.5-.2.1-9.4-1.3-1.7 1.1.1.1-4-2.1.6-4.3-1.7m-40.2 2.5l-2.3 2.9-1.8 5.5.8.8-5.6 6.4-2.4 7.6-5.5 4.7-2.3 5-3.2 3.6-4.3 13.9 5.6-3.2 1.6 2.1-1.2.1-.7 4-1.3.5-.8 1.2 2.6-1.9 6.6-9.8-3.8 4.1-2.9-1 7.3-13.5 1.7.8-.1-3.5 1.4-.5.9-2.2 1.6 1-1-3.2 13.7-18.4-1.9 1.5-.1-4.7 1.5-4.3-4 .5m160.8 2.7l-9.1 12.2 2.7.1 2.6-4.6 2.4-.1.5-3.8 1-.6.1 1.4 2.5 3.1-.6-2 2.4-.7 2.3.3 3.2-1.7-.8-2.5-1.1.2-.1-.7-2.7-1.4-1-1.3-4.3 2.1m-171 0l-4.9 2.6-1.2 5.8-2.1 4 1.6-2.1 1.5-.4.6-4 7-6.7-2.5.8m59.6-1.1l-1.6 5.1 3.2-5.3-1.6.2m15.5.6l1.6 2.3-1.6-2.3m34.8.6l-.7 6.4h1.3v-6.5l-.6.1m-44.6 4.5l-11.1 19.5.6 1.4-9.5 14.3.5 1-5 4.8 1.6 1.4 1.1 1.9-7.5 4.3-2.6 3.9 1.7-.3-4.6 5.8-.8 5.6-13 16.8.6-.1-.4 1.6-4.3 7.3-2.9 2.3-1.9 5.3-1 .4-3.8 7.3-1.9 1.4-2.7-1.6.3-2 .9-.5.3 1.3 4-7.5 2.5-.5-.1-7.6 8.4-12.5 1.3.3 1.4-5.2-.6.1 9.7-13.6.1-.5 2.6-4.1-.1-3-2.1.4-1.7-.7-.8 3 .1-2.1-7.8 5.7-1.9 4-.8.8-.4 6.8-8 13-5 2.8-5.8 7.8 2.2.8-3.4 1.3 4.4 14.8 1-1.3 1.2 3.3-.8 1.1 1.4 5.2-.3 2.1-2.3-4.1v1.9l1.8 4 2.1 1.9-.8-1.9 1.3-2.2-.6-1.7h.6l3.2 2.5.1-3.9 7.1-10.4 2.1.5-1.6-3.2 7.5-13.1 1.9 4.9-2 1.8-3.4 7.7 1.4 1.4.9-4.4.9-1.6 2.6-2-.1-2.1 4-.9-1.1-2.8 5.6-10.4.6-3.2 3.2-3.7 1.4-3.2 2.5-1.5 1.6.9-16.8 29.8-1.9-.3-.6 6.7-.7.7-2.7-1.6.8 3.4-1.9 2-2.1.6-.1-.6 1.6-1.6.6-3.8-11.1 18.2-1.2-.8 1.3 3.2v-.6l1.2.3.1 4.3-.8 1.3 1 1.8 2.3 2.2 1.3-1 3.4-7.6 1.7.1v-4.9l2-1.9-.3 4.3-4.1 9.3 2.2 2.2-3.9 5.2.5 5.1 3.3 3-.1-1.9-1.6-1.2 2-1 6.6-8.9 4.4-2.4 2.1 1-1.2 3.6.1.7-3.4 5.8.1.4-1.9 4-3.3 3.2-1.5 3-4.5 3.4 2.3 1.7 6.2-4.5 1 .6 6.7-4.8 1.8.8.6.7.9-4.4 7.1-9.9-.8-6.4-1.2-2.6-1.2-1.3-.1-1.2-.9-2.5-1.6 1.4-2.8-.1 1.3 2.6-.3 2.4-1.6 2.8-1.2.1-1.9-1.6 1.7-2.5 1.4-5.8-1.4.5 4.4-5.2.1-4-.6-1.1-.6-3.9.5-3.9-2.6-2.1-11.5 23.8-1.4-.3-.6-1.1 5.1-7.4-1.2-2.5 1.5-1.8-2.7.6 4.5-8.5 1.2.1 4-8.6-.2-2.1 5.8-7.8 1.4-5.6 9.6-13.8.3-1 8.9-13.4 1.4-.9 8.4-11.7 1.7-1.2.6-4.9 1-1.7 2.5 1.3-1.3-3.4.6-2.5 2.1-1.3.8 1.2-1.6 7.2 4-4.1-.1-3.8-.6.1.5-7.8-3-10.4-1.2 2.3-.9-1.4.1 2.6-1.2-.2-2.2 12.1-8.5 11.2.3 2.3-6.2 7.4-1.8 6.2-1.7-1.3-.7 3.8-4.7 8-.6-1.4.6-2.8-.8-2.9 1.6-2.7-1.9-1.2 7.8-9.3-.8-1.5 3.8-3.7 4.7-8.6-.8-.8 3.2-1.7 1.2-4 .6.1 7.3-16.1-.6-.1.1-1.4-1.8-2.3-.3-2.6 2.2-.2-1.9-3.2-1.9 2.7m-80.4 1.5l.5-2.1-5.7 6.6-.1 5.1.5-.2-.5 4.7 1.8 1.9.5-3.5 4.6-8.3-.3-1 3.2-4.6 1.2-.4.8 1.4-2.9 6.7 3.4-5.3.4.2-.3-3.9-2.1-.8-5 3.5m93.3-3.2l2.3 2.3-2.3-2.3m28.5-.2v3.2-3.2m-35 .6l3.2 7.9-1.2-4.6-2-3.3m-30.4 2.1l-4.8 9.5 2.1 1.5 3.7-11.1-1 .1m65.4 1.3l1.4 8.4h1.2l-.7-8.4h-1.9m-107.5 2.1l-9.2 12.3-.2-.7-1.3-2 2.6-2.7.5-3.1-3.2 3.9-1.8-.6-2.1 1.3-.1 2.4 2.5-2.1-1 3.9-4 5.3 1.9 1.8-.6 2.1 1.7 1.8 3.2-6.2 3.2-2.3 2.9-5.6 3-2.9 3.5-8.2-1.7 1.6m-25.9.3l.1 5.8 1.6.4.2-3.6-1.9-2.6m195.7.2l1.9.5-1.9-.5m-89.4 2.6l1.7 2.7-.1-2.8-1.6.1m-66.7 2.6l-1.8.1-2.9 2.1-.4 2.3-2.7 4.6.7.1-2.8.5.8 2.5-3.4 3.2-4.3 8.6.8 1.6 6.8-13 1.9 2.3 2.7-2.1-.6 2.1 2.3-1.4 2.8-4.6-3.9 3.4 3.2-7.9-2.3 1.8-4 7.4-1.4-2.1 5.1-8.4 3.8-1.5 1.4-4.5-1.8 2.7m89.5-2.7l1.4 4-1.4-4m11.7.5v8.7l.5-4.5.5-.8-1-3.4m66.7.3l-4.1 3-4 .7 2.7-.6-.8 2.5 4.7-2.5 3.6-.2 2.8-3.8-4.9.8m-98.6 3.3l-.5-.1 1.5 7.3-1.5 1.8 2.6-1.9-.6-3.9 1.4-4.5-2.9 1.3m79.8.5l-.7 2.5.3 3.1 4.9-.6-3.2-3.5.2.5-.7.3-.7-.6-.1-1.7m-188.6.2l.5 5.8-.5-5.8m101.7.7l1.2 3.9-1.2-3.9m27.2.6l.8 6.4 1.7.8-.8-7.1-1.7-.1m-124.4 4l-.5 4.4 1-3.3.1-4.3-.6 3.2m209.4-2.7l-5.4 1.2.3-.5-5.2 1.5-2.7-.2 1.8 1.2 4.7-.6 1.2.6 2.7-1.3 5.2 1.3 1.7-.1 2.2 2.7-.7 11.7 1.8-.7.4.9-1.4 2.4-.5.1.1 13.6-2.2 2.5 2.7-.6-.8 2.4-10.1 2.9-4-1.6-4 2.1 2.7-1.3-1.1 4-2 .3 10.1-.6.3-.6 1.2.6 8-4.5 2.1.5 9.1-5.8 5.1.1 2-1.4 2-.3-.8-1.7 1 .8 1.2-2.5 1.2-10.4-2.6-3.4-4.3-1.8-2.9-2.5-1.6 1.5-.3-3.6-3.2.1-.8-2.8-7.8-3v-.5l1-3.4-7.2.6m-109.7.2l1.3 4-1.3-4m36.3 7.1l1.4-1.9h1.7l-.1 3.1-1 1.6.8 3.9-1.1 1.9-1.1-2.1.1 3.9 1.2-1.3 2.3-.1.4 4 1.4-5.2-.6.1-.1-.6.6-3.8-2-.1.6-4.1-2.5-4.5-2 5.2m51.2-3.1l-.8 2.5.8-2.5m-146.5.6l2.6 1.3-2.6-1.3m171.1 1.3l1.3 4-1.3-4m-84.9.8l1 3.5-1-3.5m-27.2 1.3l1.8 2.5-.6.1-.7 6.4 2.4-6.4-2.9-2.6m-59.1 2.2l-1.4 1.9 7.3-.5-1.2-1.9-2.2-.5-2.5 1m66.1-1.1l3.2 1.2-3.2-1.2m62.9.6l-.8 3.3.8-3.3m-143.9 1.2l.3 6.8-2.1.7.7 1.3-16.2 21.4-.8 2.9 1.4 10.7-4.1-10.6v6.5h.6l1.2 6.5 1.5 1.2.1 3.6 1.2-.9 2 .4-.1-2.3 3.8-3.4-1.9-3.7 1.9-4.7 1.2 1.6.1 1.7 4.7-5.2-1.5.9 1.4-6.1-3.9 5.4 1.6-5.7 4.7-4.4 2.9-11.1 3.2-.5-1.9-2.5.6-5.1 2.8 1.1 2.3 6v-4.5l-.5.2-.7-2.1h.6v-4.6l-5.1 2.7-2-4.2m40.8.2l2.7 1.7-2.7-1.7m117.9 0l-2.1 6.5 2.3-1.8-.2-4.7m-137.3 2.6l-1.8 2.1.6-2-8.4 3.9 1.6 5.2 2.8.5.8.8-1.7 3-2.3 2 3.8 1.4h2l.6-4.5 3.8-3.8 1.2-.2 4.8-5.7-2.1-3.2.2-.6-5.8 1.2m-46.6 1.9l1.3 3.9h.6l-.8-6.4-1.1 2.5m5.3-1.2l-.8 2.5.8-2.5m173.7 3.1l1.6-2.3-1.6 2.3m-75.2-1.3l-.8 6.5 2-1.9-1.2-4.6m-3.2 1.3l-3.4 14.9 2.6-3.2.5-2.1.7.8-.4-10.4m108.8.2v5.6l.4-5.8-.4.2m-72.6 1.1l-.2 2.1 1 3 .3-1.7-1.1-3.4m4.5.7l.2 7.7 2.5.8-.8-5.2-1.9-3.3m-88.8 1.5l-2.7 4.5 3.4-3.2-.7-1.3m53.2 3.3l-1.4 3 4.6-2.1-1.2-1.7-.1-2.1-1.9 2.9m138-.3l-.3 2 .8 3.6-.7 3.5 3.8-2.7 1.2-5.3-2.5-2.5h-1.1l-1.2 1.3m-242.4-2v1.9l1.9-1.9h-1.9m59.7.2l-2.1 3 3.2-3.2-1.1.2m144.5.9l-2.9 5.9 4 1.9.6-8.9-1.7 1.1m34.1-.4v4-4m-150.3 3.8l-.5 2.7-3.5 4.5 7.1-9-3.1 1.8m29.8-1.8l-9.3 5.1 2.7.6 4.4-2.7v.6l.8 1.2-5.8 2.3-.8-.8-5.5 9.5 7.8.2.3.8-.1.6 3.8.6.8 2.2 1.7 1.4.3-1.4 1.2-2.3 4.4 3.2-1-4.5-.8-1-3.2-11.3.2.5-1.4.3-2.2-1.4.6-1.3 3.5.1 1.1-.7 1.8-.1-1.7-2.5-.1 1.3-2.6-.1 1.4-1.2-2.5.8m-117.9-.1l1.2 9.1 1.4-3.2-.8-1.9.1-2.9-1.9-1.1m27.6 4.2l-4.3 10.8.1 1.4-1.3 3.8-1-3.4-1.6 1.6 1.7 1.8-11 19.4.8 6.4.3-1.6 2-3.4 1-.2 2.1-7.1 1.3 3.2 1.4-5.8 3.4-.5-.1-5.1 8.4-5.5.8-1-.2-1.9-1.9-1.4.6-2.5-1.2-.8.6.1v-.6l3.2.7-1.8-3.2-1.6-9.1-2.1 4.3m99.5 1l1.7 4.1 1.3.6-1.3-3.9v-3.8l-.7-1.9-1 4.9m-92.7-4.3l1.3 5.2-1.3-5.2m15.5.1l-.8 1.9 3.2-1.3-2.4-.6m88.2.6l.5 4.5 1.3-2.7-1.8-1.8m-46.7 3.4l-.7.6.7 2.8 3.1-4.3-3.1.9m42-2.5l1.2 3.8-1.2-3.8m105.6 4.3l1 .7-.6-5.1-.4 4.4m12.1-.5l-1.2-.2 2 9.8 1.3.5.1 6.7h1l.8 2.6-1.4 3.8 1.8-1.4 1.6 6.6-1.4 3.7 1.2 3.4-.4 9.1 1.2-.1-1.9 6.1-.7-.8-.1-5.4-.6-1 .2-17.6-2 2.1-.8-.9.9-7-.8-1.9.9-3.1-1.4-.7-.8-1.9.8-4-2 .6-.7-4.4-2.4 11.1.6 1.2.6 26 .5-.1-.4 2.5 2.7 6-.1 5.7 1.9 2.1.7 2.1-2 7 .3.8-2.3 4.9-3.2 3.4-2.3-1.3-4.6-.6 4.6-9.8-2.1.8 1.4-6.1-2 2.1-.5-3.4 1.9-4.5 2.5.7-.9-3.9 2.1-4-1.8-1.5-1.7 2.7-1-1.9-2.3-.4-5.9 1.4-.2-1.5-2.6 3.8-6 .6.1-.5-4.6-1.4 2.1 2.1-3.4 1.7-3.1-.5-3.9 1.3-1.2 1.9-.6.1-3.5 1.7-1.2 2.1-.8-.8.8-.7-9.3 2.7-2.5-1.4.2 2.1-2.1 1.2-3.8.8-.5 2.8-1.6 1.4.6-2.7-7.8 3.1-4.5-.5-1.1 1.5-5.4.6.2.6-3.3 1.2-7.1-.1-.1 1.9-2.2.6-1.3-1.7-2.4 1.4-3.1-4.7 2.6 5.2-2.5 2.5-.8-.6-4.1-15.9.1-1.2-.5.2-2.8-2.7 2.1 3.3-.8 5.5.6.8-1 2 .5 3.1.9 1-2.9 1.1v-1.2l-.6-.1.1-17.6.6.2 1.2-1.5.1 1.4 1.2-6.1 1.4.9.9 2.1-2.3-10-1.5 2.4-1.7-7.3.1 11-2.5 5.3-2.1-2.1 1.2 5.1-1.8 2.3.6 2.9 2.2-1.4.1-2.7.8 6.4-.6-.1.7 8.7-3.9.3-7.5 16.2-11.7 11.1-3.4 1.2.3-1.6-1.9 3.3-1.2.3-.7-1.6 1.2-.5.1-3 4.6-1.4.1 2.3 12.4-13.6-24.8 13.4-3.8 3.8-1.4-.3.1-.6-4 3.3.8 1.1-4.7-.5-3.9 1.5-2.4 2.4-2.1 5.8 2.1.1-.1 3.8 1.2 1.2 9.3 2.6.5 1.4-.6.8-4.7-.5-1.3.4-1.9-1.9-.5 2.6 11.4-.1.3 1.6-4.1.8 13.9-1.6-.6-3.2 5.1-2-.5 2.2-3.4 1.2.7 2.4-2.8 1-2.6 2.1-10.2.6-4.5 2.1-1.4-1.3-3.2.9-3.4-6-.8-.6-.5-4-2.1.5.3-.5v-2.7l-2.1-1.4 1.5-6.4-1.2.9-2.3-.4.5 7h.6l1.9 8.6-.1-2.5h.6l1.6 1.7-3.8 3.6-1.4 4.4-6.9 3.8-10 .7 1 3.5-1.7 3.6 3.8-1.5.7-1.2 3.2.2 1.6-.7h1.7l3.4-2.5 6.3.3.7-1.3 7.1-1.1.8-2.7h6.5l-.9-1.4 4.7-2.4.2 1.9-1.5.8.8 1.4-7 3.9-.1-1.5-.5.3-6 1.2-.7 2.2-3.5 3.1-.2-.8.7-1.3-1.9-1.2-2.8 2.5-6.8 1.7-4.8 3.7 1.2-2.9-24.5 6.7v-.6l-4 1.8-.6.8-3.9 1.5-2.7-1.6 1.4-1.7 3.8-2.3 6 .1-.3-1.2h3.4l1.2.6 4.2-3.7 2.5-.3 4.3-5.6-2.9 2.7-2.6-2-1.9 2.1-2.1 1.2-2.5.1-.5.2-2.4-.1-4.9 4.5 1.9-3.4-5.6 1.4-1.6 1.8-.1-2-13.6 4.1 1.4 1.6 1.9-.3 1.3 1.1.8-3.3.8.8-.3.5-.1 1.8 4.8.5-3.4 2.3 5.4.8-6 1.7v-1.2l-1.8-2.5-1.4 1.3-3.3-.2-4.1 1-1.7-.3-.1-1.9 4-3.2-5.8 2.5-3.2 2.7.5-3.2 1.4-.1-4-1.6 1.8-1.9.8.8 14.1-3.4.8-1.7 7.8-2.7 1.2.7 6.4-1.4 1.4.2 9-2.1 1.2.3 1.6-.9 1.4-2.7 1.6-.6.3.8-.1.5 9.7-4v-.6h3.2l-.2-2.1 4.7-1.8 3.1-8.5-.9-3.4-1.4-1.6v-.7l-16.7 4.1-1.5 1.4-2.1-.5-1.7 1-3.9.6-1.3-2.5 4.9-1.4-1.8-1.1-2.5.5-1.8 1.7-1.6 3.9-2.9.9-.4-2.9-1.6 1.4-.8 2.8.7 1.2-3.2-.8-3.9-5.1-1.8-4.9-2-.9v-.6l-2.7-2.6-.6-4.5-.8-.3.1-4.4-1.5-4.3 1.4-2.3-1.7-2.5-.1 1.4v-2.9l1.9-2.7 2.1 4.1-1.4-7.7-1.4-.1-.5-7.6-1.1-.1-.1-.5-1.2-1-3-12.2.3-1.2h-.6l-.1-1.9-1.7-.1-.6 1.5-.9-.8-.6.3-1.8-.8-.8-6.5-.5.1-.3-10-2.4.7-1.4-3.1.3-1.4-.7-4.7 1.6-3.7.1-3.1-1.7-1.7-1.1 1.5-4 1.3v-6.9l1.7 2.9-.6-4.5-2.6-.6-1.6 1.3-4-2.2-4.5 4.6-2.1 1.2h-.6l-2.5-1.2-1.5 3.2 1.8 2.1-1.5 1.4-.3-1.7-1.1 2.9.9 5.6-.6.1.5 8.4 1.8.2-.7 10.9.8-1.2-.8 8.9 1.3-2.6.1 6.4 1.2 2 .6-.1.8.3-1.4 1.2-.6-.1 1.9 9 .7.8-1.7 4.5-1.2-6.5-1.2 4.1-.8-3 .1-4.5.1-.4-1.6-13.8.8-2.6v-.4l-2.7-4 .6-.6.1-5.2-.2 4.7-.5-3.4-.5.3.5-4.7.5-.5-1.8-12.6-.4.3-2-3.3-1.6 3.6-4.1.4-1.2 3.1-.9.1-.2 25.1h-.3l.8 10.4-.3.5v6h-.5l.6 16.8h-.6l.6 22h-.6l.9 16.3-.2.2-.6.2.6 13 .6-.1.8.8-.7 2.4.4 2.1-.9 1.6-.7 3.5 1.7 10.4 2.8 5.2.5-.1.8.3.1 4.3 2.4 3.1h1.6l.6 5.8 1.8 2.9-.1 4.4.6-.1 1.3 3.3 1.3.1 2.7 7 1-.1v1.9l7.3 13.7v.6l8.6 17.8-.1 1.2.5-.3 2.3 5.3 1 .8 1.6-.1 1.7 8 1.9-.7v.6l-.6 1.8 2.5 6.2.8.6-.8 1.6 1.7.5 2.5 4.5-.2.5.6-.1 2.4 5.9-.5 2.6 1.4-1.4.5.2.8 3.8-1.5 1.7 1.9.1-.6 2.5 1.6-1.9.9 1.2.1 4.1.6-.1-.1.5-1 .3 2 5.7.5-.3.8 2.2-.3.4 1.4 4.1 2.5-.8-2-4.2 1.2-.2 2 3.4-.6 1.8-1.9.8.1 2.5 3.2-2.9 1.3 1.6v.6l-.6.6h65.5v-.6l-.3-.6 3.4.8 4.3-4.1.6 1.4-2.3 2.1 2.1 1.1 6.5-.1-.2-.7.9-.3-.1 1.1 8.4.1v-1.3l.8 1.1 13.4.2v-1.4l4.1.6-.2.7h20.1l-.4-.4-.1-.6 1.5-.3.1.6-.6.6h19.4l.1-1.3-.3-.8 1.9-1.3.2.8.7.8-2.1 1.7h24.6l.1-1.1 1.7-3.6 1.5-1.1.8 2.3.6-2.3 1.9-.5 1 4.6-.4-.3-.6.3-2.8-.8v.7h-.6l7.8 1.9.1-1.2 1.2-2.2.2 1.7-.8 1.7 2.1-1.2-.3.5.1.6h26.9l-1.2-1.9v-.6l.6-.2 1.8 2.7 5.1-.6.1-.6.6.1-.1 1.1 18.8-.1v-.6l1.4.2-.1.5h9.7l-.3-4.7 1.8-6.5 1.7.3-1.4-5.3-1 1-.8-.8.7-1.2 2.5-.9 1.4-3.8-.6-.1.7-7.6-1.2.1.9-2.3.3-4.3-.8-1.1-.6-3 .8.9 1.1-13-1.1.1-1.3-1.4.1 1.5-2.7 1.2-9.1 9.6-.5 2.9-4.1 5.5-1.1.2-.8 5.7-1.4 1.3-5.7 11.2-3.3 2.5-1.3-4.1-.6 4.1-.8-5.4 1.2-1.3.7-8.4 2.1-4.3.6.2-.1-15.4-.8-.8 1.6-6.4-13.8 18.1-3.1-.5 3.2 1.9.6 1.7-3.7.3-1.4-3.9 3-1.6 3.4-8.3-1.9.2-1 1.7-1.1-.6h-4.2l-1 1.8-2.4-.5-.8-3.3.3-1.8 3.1 1.3-.7-6.8.9-2.3 3.4-2.2 2.7 3.2 1.4-2.6.1 6.6-2.8 2.4-3.2-1.3.1 1.9 6.9.6 1.3-3.3 3.4-1.1 1.2-6-.5.1-1.5-4 .1-3.8-1.4-3.2-.4 9.9-2.8-3.6v-1.3l-1.2-2.9-.8-.8-1.3-7.1v.7l-1.2-1.4-.1-3.2-2.6-4.7 1.6 3.9-3.2 5.5-21.7 19.7.1.7-4.7.1.1 3.2-.7 1 1.2 5.4 3.2-.3 2.1-1.1-1 4.4-2.6 2.9-3.8.5 2.7 1.4-5.8 1.4-1.7 2.9-13.4 11.9-3.1.1-.8-7.8h-.6v-5.8l1.9-4.6-2 2.7-2.7-5.5 2-6.9-.8-17 .7-.9.5-6.7-1.9-2.8 1.5-1.2 1.9 2.7.6 5.2-.3-17.6-1 1.8-.6 7.3-.7-1.4-.1-7.7-2.5 10.3h-.7l.7-10.9 1.9-2.7 3.3.5-.2-5 8.4-2.6 1.5 2.1 1.2 5-.1-.6 2.9-2.2-.3-3-2.4 2-.3-2.8-1.1-1.8 3.2-.1 2.6-1.4-1.9-3 .7-.8-.1-2.5 1.8-.8.1.8-.6.1 2.5 2.1 1.6-.1.5 3.6.6-2.9 2.7-.1 1.2-1.2 3.1-1 1 .3 4.5-1.4-.1 2.9 2.8-.2-.8.8-5.9-.1 3.1 1.9 3.6.2-.3.4 8 4.2 3 3.8.8-1.2 1.8 1.2-.6-1.9-.1-2.7-4.3-7-2 .1-.8-3.9-3.4-1.6 5-1.7 2.5.1 8.1-6.2 4.7-1.2-.1-.6 2.6-1.8 1.2 1.6 3.6-3.8 6.5.5-2.7 2.5-3.3.6h3.2l3.8-2.1 3.3 1.9 3.7-1.2.8 4 2.6-1.2.8-2.9 3.7-1-2.5-1.2-2.7-2.7 3.8-.6 3.4 3.1-.7-5.5.8 2.2 4.4-1.5 1.7-1.2 9.1-.3 2.1 3.7 2.5 2.1-.8 1.4 2.1 1.1 3.3-1 2.9-5.1 1.6-6.9 3.6.1-.3 1.5 21.3 3.8v.6l1.9 4.5-5.9 6 1.9.1 1.9-2.1.6.7 4.5-5.2-.5 2.9-10.2 8.4 1.9 4.5-1.4.6-1.4-.6.1-4.1-1.9 3.1-.6.1 4.2 10.4-.6 3.8-2.4.1-4.5 2-4-1.4 1.6 3.1 2.3-1.2 1.5 5.4-3.4 3.2 1.5.2-.8 1.7-1.9-.5-1.6-1.5-1.2 2.8-1.1-1.5 1.3-3.2-.8 1.2-2.9-1.3-5.4-9.6.3-1.3 8.1 5.2.8 3.9 4.5 1.9v-2.7l-2.6 1.4-.2-1.1-2.4-4.8-2.9-.5-5.2-6-1.6 2.3-9-8.5.1-1.4-1.8-.7-.9.9-5.4-3.7-1.4-.3-2.1 2.5.6 9.7-.6.6.3 1.7-7.1 9.3-.1.7.6 1.9-5.8 6 3-2.8 3-.8 1-1.8 4.1-2.7-.3-1.7.8-1 1.4 2.3 1.6 1.2.1 2.7-3.6-1.9-6.5 5.8-4.1 1.9 2.1 3.9-1.4 2.5 5.4-.9 1-1.2 1-.5 2.3 1.2.1-1.9 2.8-1.5 5.1 3.9-2 .9 2.7 4.8-1.5.2-3.8-3.8v-.5l-2.7-.2-1.5.7-2.4-.5-5.6 3.3-3.9.9-1.5.8-2.1 2.3-1.5 4.9-1.6 1.9-1.3 13-1.5-.9-2 24.1 3-2.9 1-6.3 2.5-3.2 1.2-3.8 1.6-1.4 2-4.5 3.8-3.8 1.5-5.2 2.3 1.7 4.5-5.2 4.6-2.3 4 .6 2.9 21.9-2.9 4.6.6-.2-.5 5.9 2.5.1.8-10.4h.6l.8-2.1 1.1.8-.1-5.3 4.1-10.9 1.9 2.5-.6 4.5-1.9 4.2-1.2-.3.6 4.3-4 10.3-1.5.6.9 4.7-3.7 10.2.3 4.3-2.5 6.4 12.2.1v-.6l.6-.1v.6l20.1.1-.6-11.7 2.4.1.2-4.9 1.7 8.6 2.7 1.3 1.2 1.4.1 1.6-.8-.1-2.2-2.3-1.6 5.4 7.8.6.3-1.5.6.8h4.2l.1-1.2.8.2-.1 1.6 58.3-.6-.1.6h16.2l-.1-.6h.6l.1.6 5.7-.6 1.4-2.1 23.5-18.1v1.6l3.9-2.3 1.8-2.6 1 .2.2-.6 3.2-.7-2.6-1-1.2-4.5 2.6.6-.1-2.5 3.2-1.6-.5-2.3 1.2-4.1 2.7-3.2-5.2 2.5.3 3.4-3.5.1-.2-3.4-1 2.7-1.6.5-.6-3.2 2.4-1.6-3.4 1.3-1.1-2.1 15-8.5.3-1.6 3.7-2.1 2.6-3.9v-68l-2-3.9h-.6l-42.3-33-2.4-.8-9.5-7.3-.9-1.7-83-53.5-7 .5-.3-2.9.9-1.7.5-.3.1-3.8-3 2.1-1.9.6-2.5-1.2-4.7 1.7-1.2-1.9-3.4.6 2 1.7-2.1.9-3.8-.5-1.6-4 10-5.8 1.2.1-.2-.5 2.1-1.5 1.9-.1 5.2-12.3-.8-2.1.2-4.3-.5.1-.8-9.8-7.8-3.4-2.2.5v-3l-3-1.2.6 11.7.7.1-.1 1.7-.6.6-.5.1-1-9.9-.5-1.1.7-2.7h-2.5l-1.8-3-1.7-.1-11.1-8.3-5.6-2-2.8-2.5-1.3 4.9-2.1-7.1-2.7-2.7-5.2-.4-.8-.8.8-2.5-3.2.6-3.9-2 .2-2.9-1.5 3.6m-121.6-2.3l.6 4-.6-4m-46.7 2.7l-.8 4.5.8-4.5m20.1 1.1l.2 1.3-2.3 5.3 3.7-5.9-1.6-.7m34.9.9l-.8 3.9.8-3.9m-140.6.5l1.2 3.3-1.2-3.3m5.1 0l.1 4.8 1.7 1.7-.6-5-1.2-1.5m83.6.2l-1.5 2.5 1.5-2.5m146.5-.1l1.1 1.8 2.8-1.8h-3.9m-105.6.8l.5 2.5-.5-2.5m-37.6 1.9l-5.1 1.4-4.6 3.6 9.5-3.8 2.7-2.6-2.5 1.4m40-.8l1.4 3.4-.5 5.2 1.1 5.2-.3 3.3 1 1 1.9 4.8.6 6.4 2-2.5-2-4 1.3-8.6.8 10.4 2.5 4.6-1.4-4.5.5-4.7-1.2-5.1-1.3-1.4h-3.2l.6-10.4-3.8-3.1m111.5.6l1.9 4.7-1.9-4.7m-209.3.6l3.9.8-3.9-.8m64.8.9l-1.7 1.2 2.3.3 1.9-2.5-2.5 1m137.3 0l2.7 3-.8 10.6.5-.3-.5 5.4.6 1.2-.5 4.1-.9 1.6 2.2 4.7-1.5 3.8 3.4-1.3 1.7.7.8-7.2-2.6 1.4.6-6.9-.7-2.9-.7-.8 1.6-1.1.6.1 1.9 3.2-.6-9.7-1 4.5-2 .6-.2-15.7-4.5.8m-235.8-.1v6.6l.6-.2.8 3.2-.8-9.4-.6-.2m224.2 2.1l-4.8 1.4.8 1.7 4.4-2 1.3.7-1.7-1.8m4.6 0l-2.2 2.4 3.2-1.5-1-.9m3.1 1.3l.1 3.9-.1-3.9m-127.6.8l-1.4 1.7h3.9l-2.5-1.7m137.4-.3l1.9 5.2-1.9-5.2m-101.8.6l2 4.5-2-4.5m-48.6 1.5l-.8 2.5 3.3-2.7-2.5.2m144.5 5l-1.2 18.3 1.7 3.7.7-22-.8-1.2-.1-3.6-.3 4.8m-124.4-3.2l3.2 1.2-3.2-1.2m18.1 0l.1 5.1.5-5.2-.6.1m115.4.2l.5 3.7-.5-3.7m-25.3.6l-4.1 1.7 4.1-1.7m-105 .4l.1 1.9 4-.6-4.1-1.3m-112.7 1.3v4.7-4.7m116.7 0l-.1 2 4.6-1.2-.5.2-4-1m-75.2 2.9l.5 3.1-.5-3.1m51.2 2.7l-3.4-.3-.1-1.1h-7.1l1.4 1.3-1.3 3.4.1 3.9-4.7 9 .6 1.2 1.5 1.4-1.4 1.4-3 .1-6.7 7.1 1.4-6-2.5 2 1 5.1 5.7-2.1 1.4.8 2.7-.7 6.7-11.5 3-2.7 3.8-8.6 2.1.1-.5-3 .8-2.5-1.3 1.7m3 1.1l-2.3 8.8-5 6.2-2.6-1.4 2.9 2.9-7.3 7.1 1.2 1 4.7 1.3 4.5-.1 3-3.1-.1-2.1 6.2-9 .4.2 4.4-9.3 2.3.2-.7-3.4-1.9-1.5-3.2-.4-1.2-.6-5.1 3.2m-68.1-.1l-2.9 4.3-.6 2.5-1.2-.7-.2 4.5 5.2-8.9.5-.1 2.2-3.9-3 2.3m93.3-2.2l2.5 2.4-2.5-2.4m-53.1 7.1l-19.8 29.5 9.5-4.7 4.8-.6-.3-.5 2.2-3.3-1.4-.5v-1.5l1.5-2.5 9.9-8.9-.3-4.3 5.3-3.6 1-4.8-5.7 2-.7-3.1-6 6.8m-46.1-3.5l-1.7 6 1.6-3.8 3.5-3.3.8-1.4-4.2 2.5m88.2-1l-2.3 6.9-8.7 12.7.3 2.3-5.4 4.9 2.5.1-.6 1.9 1.4-1.3 3.6-1.5 1.8-5.7 1.6.1 2.1-2.1 1.8.7 4.5-10.3-2.3 3.4-2.4-1.4 1.3 2.6-1.7 4-1.4-1.9 4.5-11.8.7-.7h-.7l3.9-1.1-4.5-1.8m16.4-.4l2.6 1.9-2.6-1.9m-163.9 4.2l-1.8.4v1.8l4-.6-.3-.3 2 .5 1.5-.7 3.2 1.3-2.1-2.2.1-2.4-2.1 1.6v-1.6l-4.5 2.2m280.6-2.2l1.2 3.2-1.2-3.2m-2 1.3l1.3 4-1.3-4m-123.7.6l-.5 6.7-1.6 1.7-7.9 16.5-.2 2.5-7.4 10.2-.6 3.3-6.5 8.3-1.2 4.5-.8.8-1-2.3-2.3 3.5 2-.6-3.2 7.7.7.1-.5 2-1.5 2.5 15-6.4 14.6-13.9.8-10.8.5-.1.9 3.9-.8 1.6.1 3 2.6.6 1.3-2.7h.5l4-10.7.6.1.1-10.8-.6-1.2-.5-4.5 1-4.4-1.4-1.7-.5-3.8-.5 2.5-.6.2-4.6-8.3m-4 1.4l-.8 1.9 2.7-1.9h-1.9m-34.9 1.4l-.8 2.3.8-2.3m164.7-.2l-.3 2.1h-.3l-.7-.8 1.9 8.5-1.2-4.7 1.6-.3-1-4.8m-226.2.7l-1.3 4.5-2.6 4 2.3 1.8-.1-3.4 2.7-1.2 1.3-4.1-2.3-1.6m-18 3.4l.4 2.7-.4-2.7m7.7 1.9l1.1 4.5 1.2-4.7-2.3.2m24 2.7l-.8 3.8 3.4-6.5-2.6 2.7m103-.2l-.4 1.2 1.2 4.1 1-4.7-1.8-.6m-60.9 1l-.1 3.1.1-3.1m53.8 7l.1 3.5.1.4 1.6-2.8.1-7-1.9 5.9m-118-5.3l1.3 2.6-1.3-2.6m2 .7v1.9l1.9-1.9h-1.9m216.4.7l-.8 1.9 4.5-.8-3.7-1.1m-224.2 2.4l2.6 5.2-2.6-5.2m131.5.3l-.2 3.1.9-.2-.7-2.9m-27.8 1.7l-4.4 2.4 1.4 1.4-1 1.2-3-1.2 1.9 2.1-.6 3.8-2.5 3.4-4.7-1.5.6 3.2-4.5 6.5 3.2-1.6 1.9-4-.3-.5 1.6-.5 1.8 1.4 9.7-17.1-1.2.6m98.5 2.5l-.9.3-2.6 2.1-1.9-.6.8 2.5 3.7-.6-1.9-1.2 2.5-.8.3-1.7m-195 .4l2.6 4.5-2.6-4.5m-5.2 1.2l1.4 7.8 1.2.1-2.6-7.9m63.5 1l-3.5 2.4 3.5-2.4m11.6-.2l-6.1 3.2 4.7.1 1.4-3.3m231.4-.1l1.9 3.3-1.9-3.3m-168.5.6l2.6 5.9-2.6-5.9m62.2 1.5l-1.6 1.3 5.6.2-1.6-1.9-2.4.4m43.4.1l.5 4.3-.5-4.3m-153.6.3l-.8 4 .8-4m51.9 2.7l.6 2.6-.7 4.5.6-.3 2 4.1.6.1 1.8-2.9-1.4-3.6-.5.3-.7-3.6h-.6l-.6-3.1-1.1 1.9m-78.5-1.8l-2.1 2.3 4-1.2-1.9-1.1m128.3.8l-2.4.3 3.3.7 3.2-1.4-4.1.4m-25.1-.4l2 2.6-2-2.6m72 4.5l-.6 9.1 3.2 2.6-1.1-1.5-.4-1.9 1.5-1.8-.1-4-.6.2-.7-.7.1-6.7-1.3 4.5m-64.2-2.9l-2.8 2.3 2.3-1 .5-1.3m132.3 1.6l-8.4 7.3-3.6.6-3.5 1.9 11.1-2 3.8-2.6.7 1.5-.1 1.2 2.6-4-.8-2.3.1-3.4-1.9 1.8m-232.1-1.2l2.7 4 .8.6 1.2 2.6-.1-3.4-1.9-2.5-.6.1-2.1-1.4m106.4.9l-6.9 2.9 8.9-1.7 3.3-2.1-5.3.9m-99.8-.1l.5 1.9 1.5 1.7-2-3.6m81 .2l-2.8 2.4 3.3-2.5-.5.1m-38.9 1.2l2.5.5-.6 4.6 1.9-5.2-3.8.1m43.4-.7l-.8 2.5 3.9-1.4-3.1-1.1m77.1-.1l.5 5.2-.5-5.2m-179.5.6l.7 1.8 6.5.2-7.2-2m8.6.2l2.3 2.3-2.3-2.3m83.6.1l-3.3 5 1.4-1.9 2.3-1-.4-2.1m-27.8 4.7l-.8 6.1 2.6-9.2-1.8 3.1m42.7-2.8l-.6 2 .6-2m-115.3 1.7v3.4l-.3.6.7.1 1.8 6.2 11.7-3.8 1.3-1.4 2.7-.8.5.4v-3.8h-4l-2.6-2-2.3 1.4-4.7-.2-1.1.8-.4-1.6-3.5.8m65.5 3l-.3 4.7.1-2.5 1.5 2.2-2 3.2-.8 6.9 2.4-.8 2-12.9-.6-4.4-2.3 3.6m121.2-1.7l1.2 5.2-1.2-5.2m-77.8.8l-3.4 1.7 3.4-1.7m-39.5 1.7v4.5l1.4-.8-1.4-3.7m25.3 2l4.2-.3 1.5-1.1-5.7 1.4m-63.5 2l-.8 3.2 4.5-4.7-3.7 1.5m-5.8 2.6l-5.1 5.3-.6 3.2-4 7.3-.6 2.9-3.8 4.8-.1 1.7 3.9-1.9 1.4.1-.1.6 5.3-3.9 3-8.7.6.2 1.8-7.1 2.9.6.6-3.9-1.8 1.4.1-3.2-.8-.3.1-3.1-2.8 4m-9.8.1l-6.5 1.7 4.3 1.8 1.7-2.7-.8 2.1 4.5-4-3.2 1.1m-21.8 1.7l-.6 2.3.6-2.3m63.6 2l-2.1 3 2.4-.8-.3-2.2m-95.3.5l4.6 12.4-4.6-12.4m89.4 5.9l3.9-3.3-3.9 3.3m8.4-2v3.3-3.3m-99.1.8l1.9 5.6-1.5-5.8-.4.2m43.3 4.6l-7.5 16-.8-.7.8 1.2 2.5-1.5 4.7-1.2 7.8-16.3-1.4.7-.8-.8-2.3-1.2-3 3.5m38.2 4.7l-3.5 1.7 4-1.9.5-3.8-1 4m-70-2.6l-2.8 3.7 3.2-4-.4.3m11 2.5l-5.4 7.6 5.8-7.9-.4.3m-20.2 1l.8 4-.8-4m-6.5 1.4l.8 3.9-.8-3.9m77.8 2.1l-1.5 2.5 1.5-2.5m-7.7.6l-1.3 1.7 1.3-1.7m-6.8 3.2l-1.8.6 2.6.1 4-2.8-4.8 2.1m-62.8-1.2l1.2 4.3-1.2-4.3m71.9 0l-1.5 1.8h2.7l-1.2-1.8m-61.5.8l-1.6 3 3 1.2.6-3-2-1.2m46.5-.1l-2.1 1.7h1.9l.2-1.7m-38.2.4l.6 3.1 2.5-1.8-3.1-1.3m33.5 3.3l-2.8.2.3 2.3 9.7-2.5-2.6-.6-4.6.6m-34.2.1l-1 4.9 1-4.9m-11.7 1.8l-1.4 2.1 3.1 3.8v7.1l1.2-3.5 1.5.9.5-4.6-2.5-4-.3 2.1-.7-1 .2-1.3-1.7-1.7m48 2.2l-2.8 1.1 2.8-1.1m-24.6 1.7h3.2-3.2m4.5 1.3h-.6l5.2.6-.1-.6h-4.5m23.3.6l.8 5 1.6-2.1-2.4-2.9m-23.1 2.2l-2.1 1.7 4.4-.1-2.3-1.6m26.3 8.1l2.1 2.6-1.5-2.5.8-4.7-1.4 4.6m-51.8-.7l.9 2.2 1.6-.8-2.5-1.4m58.3 6.6h4.1-4.1m-16.4.5l-7.2 7.1 2.4-.1 3.6-3.6 1.2-3.4m-11 6l-.8 2.5 2.6-1.8-1.8-.7m248.9 43.4l1.6-.7 12.1 2.6-5.2-2.1-.1-1-5.8-.5 2-1-4.6 2.7m-23.4-.1l7.3 5.8-1.9-2.6-.2 1.9-1.2-2.5-4-2.6m17.7.8l-.1 2.4.1-2.4m20.1-.1v4.3l1.1-4.4-1.1.1m-40.9 1.1l1 2 2.5-.6-1.6 3.5-2.5-.3.4 2.9 2.9-.3 2.7 2 1.2-2.6-1.2-1 3.7 1.6-4.5-4.8 1.3.3-5.9-2.7m25.9 2.7l-3.1 2.7 4-1.4 2.4-4.5-3.3 3.2m5.4-2.9l.4 5-.4-5m1.3 7l-3.2.7-2.9 3.6-.5.2-.2-2.1-2.4 2.1-1.3-1.9-.1 2.9 1.4 2.3 1.7 1 1.4-.1 2.5-2.3 1.7-4.1 1.5-.6 1.6-1.7 1.9 1-.6 4 5.8-8.5-4.9 3.6.7-4.7-4.1 4.6m-35.7-2.4l-1.9 1.5 4.4 4.8-2-6.4-.5.1m-8.5 3.7l3.2 1.8 1.4-3.2-4.6 1.4m27.8-1.4l1.2 3.3.1 2.7 5.4 7.1.9-3.6-.8 2.5-3.8-5.5.1-1.6-1-2.5-2.1-2.1m-34.8.8l-2.2 4.1 1.8.8.4-4.9m-11.9 1.5l1.4 11 2.3-1.7.3-2.8 1.2-1.9-2.6 1.3-1.2-.6-.8-2.1 1.4-1.4-2-1.8m13.6 3.3l-.2 1.5.8 5.1.4-9-1 2.4m-11.2-1.8l2 1.3-2-1.3m37.5.8l.1 1.7 8.3 6.6-3.6-6.5-.8 1.4-2.2-3.8-1.8.6m-5.1.6l1.4 3.2-1.4-3.2m-26.4 1.3l.5 3.4 2.7-3.2-3.2-.2m15.5.8l-.1 1.8 2.6.7v-2.4l-2.5-.1m-17 1.2l.1 3.9 1.8-2.5-1.9-1.4m53.2.2l-2.1 3.7 2.1-3.7m3.9 3.7l-3.4.1-.8 2.5-2.5-1.9 1.4 11 1.1-.1 1-2 2.4 1.4-1.4-3.2.8-2.7 2.7-.7-.8 1.4 1.9 3.9.8-4.6-.1-.6.8-2-2-.9.6-4.3-2.5 2.7m-43.5-2v1.9l1.9-1.9h-1.9m-12.3 3.3l-1 .5-1.6 2.9-4.5-2.2 2.5 1.9-.4 1.4 1.8 1.3-1.9 3.2 3.8-3.8-1.2-1.4 1.5-.9.5.1.6-3.2m13.3-.3l-.4 5.6.7-5.9-.3.3m33.5-.2l.1 2.9-.1-2.9m-45.4 2.4l.3 5.4-1.7 2.5.1 3.6 2.5-2.1-.1-1.5 1.9-2.2.2-3.6-3.4-2.2m-52.4 1.9l-1.5-.3 4.7-.1-3.2.4m67.4-1.1l.5 3.2-.5-3.2m-31.7 2.5l2.5 3.3-2.5-3.3m-46.7 2.7v1.3l3.9-1.2-3.9-.1m73.8 1.5l-2.7 2.5-1.6 3.9 5.9-7.1-1.6.8m-5.9-.1l-1.6 3.1 2.7-1.4-.5 3.2-.6-4.9m-17.7 2.4l2.7 3.3-2.7-3.3m-3.8.7l.6 3.2-.6-3.2m-40.7.8l-.6.6-1.5 6.4 1.2-.1 1.4-7.1-.5.2m3.9 0l1.7 3.8-1.3-2-.4-1.8m-20.1.4l1.2 11.5 2.1 1.4-.7.1.1 6.5.8.1-.8 9.1.6 1-3.3-1.2.1 17-.2.5.3 4 1.4 2.7.9-3.4.8.6-.8 6.1.6 1.7-2 6.6 4-6.5 5.7-2.7-.6 2.6-4.6 5.8 4.5-3.3 1-2.3-3.1-6 4.2-3.8-.8-13.9.7-.5.3 7.1.7-2.7 3-.6-1.3-2.6-1.4 2.2-1.3-8.6-2.7 3.3-.6-3.2 1.4-4.9 1.7.7-.6-2.3-2.5 1.1-.1-4-.6-.2.1-8.2.7-.1.1-7.3-1.9-.5-.1 20.1-2-.4-.5-11.9-1.9-.1-.6-9.9-1.9-1.2m31.8.5l-.2 3.1.9-.2-.7-2.9m12.1 1.1l.1 8.5h.6l-1.4 6.5 2.6-6.5h-.6l.7-3.2-1.9-5.2m-32.2.9l-2.1.5.8 4.3 1 .8 1.4-5.9-1.1.3m34.8.4l.8 3.2-.8-3.2m-6.4.8l-.8 4.4.8-4.4m-19.4 2.5l-.8 2.5.8-2.5m37.5 5.1l1.9 2-.1-1.9-1.9-3.3.1 3.2m-43.4-.1l-.4 1.5.4 3 2.3 1.5.4-.3.3 4.3-.6 2.3-1-.5-.6-4.5-1.7-1.3.8 7.2-.3.5.8 4.6h.6l.5 2.5 7.1-9.2v-.4l-1.8-2.3 2.5-1.7 1.2 1.9 2.1-8.5-5.1 5.5-.8-.9 2.1-5.2-4 3.3-.6-1.4.9-.7 1-1.7-3.8-.8-2.2 1.2m26.7-1.7l.5 3-.5-3m-31.1 3.6l.5 5.4.6-7.8-1.1 2.4m24 2l1.9 4-1.9-4m-34.4.8l1.9 6.5-.7-6.5h-1.2m54.5 1.3l1.9 4.6-1.9-4.6m14.9 2.5l1.3 2.6-1.3-2.6m-71.3 3.3l1.3 4.5-.1-4.7-1.2.2m27.2.6l-.7 3.2.7-3.2m-.6 4l-.2 2.5.2-2.5m-28.5 8.9l2.6 3.2-.8-3.2.7-3.8-2.5 3.8m.8 4.7l.5 2.5-.5-2.5m16.6 1.2l-.3 3.2-.3.4 1.5 3.7-.9 3.8 2.4-1.2.8-7.3-1.7 1.4-.1-2.8 2.5-.1-3.9-1.1m30.4 2.5l2.6 1.3-2.6-1.3m-47.3 2.5l-.6 2.7 1.7-.7-.6-3.1-.5 1.1m6.5 16.9l-.8 3.2.8-3.2m94.6 4.5l-1 4.6-1.7-1.4.8 4.7-.8 5.1 2.5-1.6-.6-5.4 1.5-4.7 2 .5-2.5-1.9m-3.4 14.8l-.7 5.2.7-5.2m-3.3 3.2l1.2 3.2-1.2-3.2"/><path d="m41.7 3.4l3.8-.3-.6 3-7.3 7.5-.2 2.1 1.9-2.1 2.5.3-.7 2.7-3.9 3.4-4.8-1.5 1.4-5.4 2.1.1 1.3-5.1 2 1.9.6-3.7 1.9-2.9"/><path d="m102 4l1.2-.7-.1 8.6-1.1-1.5.5-5.1-.6-1.3"/><path d="m115.6 4.7l2.1 2.1-1.3 10.4-1.4-2 .6-10.5"/><path d="m160.3 7.3l2 3.5-.5 2.5-1.5-6"/><path d="m129.9 9.2l.8.7-.2 3.8-.8-2.1-.1-2.1.3-.3"/><path d="m146.1 9.2l1-.3.8.8-1.6 2.5-1-1.1.8-1.9"/><path d="m89 9.9l.8 2-1 1.5.2-3.5"/><path d="m146.1 17.6l1.5-3.1-.2 4.6-1.3-1.5"/><path d="m21 23.5l3-3.1.7.3-.8 2.8h-2.9"/><path d="m116.3 23.5l.9 1.9-1.4-1 .5-.9"/><path d="m132.5 27.3l.6-.8 1 2.9-1 1-.6-3.1"/><path d="m181.1 31.9l2.5-2.6-2 3.8-.5-1.2"/><path d="m195.3 33.8l1.2.5-.9 4.7-1.6 1 .8-3.4-.1-2.2.6-.6"/><path d="m186.2 37.1l2-2 1.4 2.6-1.9 2.7-.1 1.2-2.6 1.4-1.4-.1v-.6l2-1.7.6-3.5"/><path d="m103.3 37.7l-.7-.9 1.4.3.7 4.5-1.2 1.2-.2-5.1"/><path d="m179.8 39l2.6-1.2-2.6 1.2"/><path d="m195.3 39l.6.8-1.6 3.6-10.3 10.2-.7-2.1 12-12.5"/><path d="m210.2 41.6l2.3-.7.3.8-1.5 2-1.1-2.1"/><path d="m179.8 41.6l1.3-1 .5 6-2.6.8-1.9-.7 2.7-4.9"/><path d="m89 43.6l1.4.4 1.2 1.5-1.1 2.2-4.7 1.7v-.7l3.2-5.1"/><path d="m206.3 46.1l2.5-2.7 1.7 1.9-6.1 10.1-2.1-.8.8-3.5 1.9-1.6 1.3-3.4"/><path d="m153.2 45.5l1 1.4.6 5.2-.6.6-1-7.2"/><path d="m212.2 46.8l1.4-.6-1.5 4.4 1.6-.4-1.2 2.7-3.6 1.6-2.6 5.9-2.6 2.1-2 3.3.1 1.2-1.2 1.6-3.1.4v-.6l1.2-4 13.5-17.6"/><path d="m84.5 53.9l1.3-4 1.1 1.6-1.6 2.5-.8-.1"/><path d="m197.9 52l2.1-.9-1.4 2.3-.7-1.4"/><path d="m196 55.2l2.9-1.4-1.2 4.8-1.5-.9-.9 1.6.7 1.4 2.1.6.8 1.9-2.9-.9-.6.8-3.2 1.2-.1.6-.8-.5 1.1-3.1.6-.2h1.9l-1.5-2.4 2.6-3.5"/><path d="m199.9 58.5l2.2-3.2.5 2-2.7 1.2"/><path d="m208.9 57.2l2.1 1.4-2.9 4.5-2.4.1 3.2-6"/><path d="m111.7 61.7l2.1-1.1-.6 3.1-1.2.8-.3-2.8"/><path d="m50.8 63l1.3.1.2 1.3-1.9 3.9.4-5.3"/><path d="m190.1 64.9l1-.7.8.5.1-.6 1.5 1.5-2.4 3.6-2.4 1.6-.8-1.6.9-2.3 2.5-.2-1.2-1.8"/><path d="m201.8 66.9l1.7 1.7-1.9 2.7 1.7-.7-1.6 3.3-2.3-.6 1.3 2.5-5.4 7.8v1.4l-2.9 3.2-1.6-2.2.8-3.3 8.1-11.6.9-2.7 1.2-1.5m-8.2 16.1l-.6 2.3.6-2.3"/><path d="m47.6 70.1l1.6-2.6-1.6 2.6"/><path d="m194.7 69.5l5.4-.6-1.4 1.9-3 1.4-1.6-.1.6-2.6"/><path d="m192.1 70.1l.6.6-.1 1.2-.7.7-1.3-.6 1.5-1.9"/><path d="m266 76l.5-4.7.7 3.6-1.2 1.1"/><path d="m195.3 72.1l.6-.3-.6 2.3-1.4 1.2-.1-2.4 1.5-.8"/><path d="m190.1 78.5l3.4-3.2-2 3-.1 1.2-1.3-1"/><path d="m232.9 81.8l1.6 1.4-3.2 9.2-1.3 1.7-1.1.1.4-4.5 3.8-7.9"/><path d="m267.3 81.1l.6-.1.1 4.5-1.3.8.6-5.2"/><path d="m210.9 85.7l2.9-.5-.1 2.6-2.7-1.5-.1-.6"/><path d="m231.6 90.9l2.5-2.8-.6 3.9-1.2.9-1.2-.8.5-1.2"/><path d="m209.6 92.2l1.5 1-2.1 2.7-1.6-2.3 2.2-1.4"/><path d="m210.9 96.7l2.3-5.3 2.5 1 .5-.1-.6 2.6-3 1 .8 2.2-5 9.6-2.3.6-.4.5 2.7-8.9 2.5-3.2"/><path d="m205.7 94.7l1.6-1.6 1.6 2.3-2.7 6.4-1.7 1.9-3.4 2.1-1.2-1 5.8-10.1"/><path d="m227.1 94.7l2.7-.8.6 1.5-5 12.4.4 3.1-1.9.8-1.2-.3-2.7 2.3-.2 3-1.8.1.1-2.7-.7-1.2 5.1-7.9-.6-1.9v-.6l5.2-7.8"/><path d="m296.4 96l1-1.1.3 9.9-1.3-8.8"/><path d="m103.3 101.2l1 1.9-4.3 8-.1 1.1-2.7.7 6.1-11.7"/><path d="m55.3 107.7l2.4.2.1 3.4-.9 1-.1-1.7-1.2-1.6-.3-1.3"/><path d="m100.1 110.9l3.2-1.4-1.9 2.8-1.3-.3v-1.1"/><path d="m208.3 109.7l.2 1.7-2.3-.1 2.1-1.6"/><path d="m102 112.9l1.9-2.3.2 2.9-2.3 1.2.2-1.8"/><path d="m222.5 111.6l1.2.3-.6 3.8-.6.7v-4.8"/><path d="m99.4 112.2l.6-.1.7.2-2.3 3.3 1-3.4"/><path d="m205 115.5l1.4-2.9.3 2.3-1.7.6"/><path d="m259.5 116.8l1.7-3.4 5.1 2.8-.6 2.6-.3-.1-1.3-1.3-2.9 2.6-1.9-.5.2-2.7"/><path d="m325.6 113.5l1.1 2.2-.6 5.1h-.6l.1-7.3"/><path d="m215.4 116.1l1.6-.5-1.6 4.5-.1 2-2.3-2.3.5 3.2-.5.9-1.5-2.8.8-1.7 3.2-3.5"/><path d="m96.8 115.5l.6.6-11.9 20.4-1.4-2.9 1.7-1 2.9-4.7h-3.4l-.7-.8 8.2-9.4 4-2.1"/><path d="m201.8 116.1h1.8l-.8 1.4-2 .6 1-2"/><path d="m250.4 115.5l1.3.7h2.1l-3.1 5.8-.3-6.5"/><path d="m49.5 116.8l2.2-.9-.3 5.3.6 1.8-1.9-.6-.9-4 .3-1.7"/><path d="m239.4 116.1l1.7 4-1.7 8.5.5 1.4-4.1 5.7-1.2-1.2v-.6l4.1-9.8-.5-6.1 1.2-1.9"/><path d="m247.8 120l1.8-3.9.8 1.6.2 4.5-.7.7-2.9-.3.8-2.6"/><path d="m199.2 121.3l.5-4.7-.5 4.7"/><path d="m266 117.4l1.8 1.4-.1 1-.7 1.5-1.4-2.7.4-1.2"/><path d="m16.5 120.7l4.1-1.9 10-.1 4.9 1.5-.1.5-2.3.8-13.9.4-.9.8-1.8-2"/><path d="m201.8 119.4h.4l1.5 1.9-2 .1.1-2"/><path d="m215.4 120l1.2-1 .8 1.5-2 1.9v-2.4"/><path d="m258.8 119.4l2.4.5-1.7 7.4-4.5 7.1-2.7-2 1.2-3.5-.3-1.2 2-.7 2.1-2.8.1-1.7 1.4-3.1"/><path d="m38.5 121.3l1.1-1.5-.6 5.2-1.4-.8.9-2.9"/><path d="m235.5 123.3l1.2-2.6 2.2 3.6-2.9 7.6-.1-2.6-1.1 5.3-.5-.3-2.1 1.5-2.5-.6.6-2.1 1.9-1.9 3.3-7.9"/><path d="m197.3 122.6l1.7-1 .2 1.2-.8 1.4-1.1-1.6"/><path d="m214.8 126.5l.7-3.8v4l-.7-.2"/><path d="m216.7 123.9l2.5-1.2.1 2.5-1.5-1-1.1-.3"/><path d="m246.5 124.6l.6-2.3 2.9.3-.2 1.2-2-.6 1.3 1.9-.7 1.3-1.7-.7-.2-1.1"/><path d="m301 125.9l1.7-1.9-1.7 1.9"/><path d="m248.5 126.5l.7-1.3.3 1.3-3.2 3.2.5-4 1.7.8"/><path d="m194 128.4l2.3-2.3.6.2-2.5 2.7-.4-.6"/><path d="m265.3 129.1l1.7-3.2.6 3.8-2 4.5-1-1.4.7-3.7"/><path d="m208.9 126.5l2.1.8-1.5 5.1-1.1 1.4-.4.2.9-5.5-.5-1.4.5-.6"/><path d="m214.1 127.1l.3-.7 1.9.9-1.3 5.4-.9-5.6"/><path d="m212.2 129.1l1-2.1v2.9l-1.4 1.4-.7-.8 1.1-1.4"/><path d="m190.8 130.4h2.3l-.1 1.7-2.6-.5-.1-.5.5-.7"/><path d="m83.9 130.4l2.2 2.1-1.7 1-.5-3.1"/><path d="m161 132.3l2.8.6-3.2 5.8.4-6.4"/><path d="m147.4 132.3l2.1 2.3-.5 1-2.1 2.1.5-5.4"/><path d="m164.9 133h.6v4.4l-1.8 3.4.1 2.9 1.2-.1-2 4.5-2.5-3.9h-.5l-5.1 5.2-8.6 16.1 1.7-8 2.5-1.9.1-2.6 4.3-7.5 3-2.5-.7-2.4v-.6l.8-1.2 1.4 3.4 1.4-.5 4.4-8.6"/><path d="m208.9 134.3l.8 1.6-.1 1.7-1.2.8-2.9 3.8-.5-.3-.4-1 1.6-4 1.3.8.6-2.1.8-1.3"/><path d="m212.2 134.9l.8-.8.1 1.7-1.1 2.3-.5-1.3.7-1.9"/><path d="m340.5 137.5l1.5-2.1v3.2l-1 2-.5-3.1"/><path d="m179.8 135.6l1 .2 1.4 10.1-1.2 1.5-1.5-2.3.2-3.5.6-1.5-.5-4.7"/><path d="m251.7 136.9l.8-1.6 1.5 1-1.5 1.4-.6-.3-.2-.5"/><path d="m228.4 140.8l1.6-4.7 1 1.4-1.5 5.8 3.6-1.9-.1 1.6-4 1-.6-3.2"/><path d="m232.9 138.2l1.7-2.3.5 1.1-1.3 3.2-.9-2"/><path d="m340.5 140.8l1-2 .8 7.2-1.8-5.2"/><path d="m57.9 145.3l.6-6.1-.3 1.9 2.4 4-2.5.8-.2-.6"/><path d="m195.3 140.1l.4.8-1.7 3.3 1.3-4.1"/><path d="m277.6 140.1l3.1.6.8 7.8-.7 1.8v4.9l-1.2.1-1.6-7 .2-1.2-.8-4.7.2-2.3"/><path d="m297.7 143.4l1.9-3.6-.6 8 1.9-2.1-.1 7.1-.6.2.5 3.2 1.4.6-1.9 4.1-1.2-3.5-.3-.4-2.3-1 1 3.5 5.1 4.7-1.6 2.3-3.2.5-.3-4-2.3-3.8 2.7-8.6-.1-5.1-.4-.8.4-1.3"/><path d="m216.1 142.1l2.7-1.3-2.3 7.6-1.5-1.8-.8-2.5 1.9-2"/><path d="m208.3 141.4l.6-.1.8 2.5-.5.7-.9-1.4v-1.7"/><path d="m157.7 146.6l2.1-2.4h.5l-3.2 9.1-1.6-2 2.2-4.7"/><path d="m59.2 149.2l2.1-2.3.4 2.5-.9.5-1.6-.7"/><path d="m251.7 147.9l1.2-1.9 1.7 1-2.9.9"/><path d="m161.6 149.2l1-2.3 1.1 2.3h-2.1"/><path d="m342.4 146.6l.6 3.5-.1 1-1.4 1 .9-5.5"/><path d="m159.7 151.8l2.1-1.1-1.5 11.1v-.6l-1.4-4.7.8-2.7v-2"/><path d="m154.5 152.4l1.2 3.5-1.9 3.2-2.1 1.3 1.9-6.7.9-1.3"/><path d="m45 153.7l1.8.8-1.2 3.2-1.7.6 1.1-4.6"/><path d="m61.8 156.3l1.1-.8.3 1.2-.8 1.6-1.3-.8.7-1.2"/><path d="m74.1 160.8l2.3-2.9-.5 2.8-2 3.6-.5.3-.2-1.3.9-2.5"/><path d="m47.6 158.3l1.3-.3-.6 1.4.5 5.1-1.1.9-.8-4.1.7-3"/><path d="m64.4 162.8l.8-3.2.1 3.7-.9-.5"/><path d="m331.4 160.8l1.4-.5.4 1.2-1.6 2.4 2.4 1 .3.6-3.2.1-5.1 1.7-.9-1.5 3.5-1.6-5.4.6-.5 3.2 3.3-.6-3.4 4-1.3-3.2-2.7 1.4-.7-1.6 3.4-.6-2.5-4.4 1.6.7 4.9-1.4.8-1.2.7.7-.3.5 3.4-.3 1.7-.9"/><path d="m150 162.8l2-2.4.8.8-2.7 5.2-.5-2.8.4-.8"/><path d="m72.2 162.8l1.3.7.2 1.3-2.2 3.1h-.6l1.3-5.1"/><path d="m81.3 163.4l1.4.8-.7 1.9-1.4-2.1.7-.6"/><path d="m142.8 164.7l1.3-1 .6 1-.2 2.4 2.5-.5 1.9.7-1.2 3.2-.1 2.1-2.7 2.3-3.8 6.1-2 1.1 1-7.8h1.7l2.3-1.4 2.6-4.2-1.9 1-.6.1-3.5 2.5 2.3-6.8-.3-1"/><path d="m302.9 164.7l13.9-.5 3.3 1-2.9.3-.1 2.3-13.9.3-.3-3.4"/><path d="m273.7 168.6l2.1-.8 1.2 2.3-3.3-1.5"/><path d="m350.2 167.3h.6l-.1 1.2-4.3 2 .3-2.6 1.7.3 1.8-.9"/><path d="m68.3 169.9l1.3-2.1 1.8.1-.4 1-2.7 1"/><path d="m316.5 168l1-.2.9 2.8-12.3 5.8-20.6 2.2 1.8-2.9-6.6.8 4.1 2.3-3.2.9-.6-.1.1-.5-.8-1.6-6.7-1.8 3.5-1.9.6.6-.9 1.8 4.8-2 1.8-4.6.7 2 1.8-1.2.7 4.7 16.5-3 1.9-1.6.8 3.2 1.2-1.5 2-1.2 4.7 1-.6-1.4h1.9l1.5-2.6"/><path d="m269.8 168.6h2.6l2.7 2.9-1.3 2.1-6.5-2.5 3.2-.2.1-.6-.8-1.7"/><path d="m275.7 171.2l1.8-.5.2 1-5.4 2.7-.6-1.4h.6l1.2.6 1.3-2.1.9-.3"/><path d="m54 171.9l2.5 6.9-.6 1.7h-.6l-1.3-8.6"/><path d="m51.5 172.5l.6.9-.8 2.3-1.2-2.5 1.4-.7"/><path d="m268.6 175.1l3.7-.1-1.6 2.1 3-.7 2.1.8v1l-17.2 6.2-2.7-1.9-.6 2.6.5 1.7-1.2.3-2.7-1.4 1.1-2.8 9.9-3.6-6 1-1.8-1.6 9.3-1.6 4.2-2"/><path d="m334.7 174.5l5.8-.3-.1.5-5.6 2.1-.1-2.3"/><path d="m79.3 177.7l.4-2.3.7 3-1.4 1-1.4-.6 1.7-1.1"/><path d="m51.5 176.4l2 2.9-.2.6-1.3-1.4-1.2.6v-.6l.7-2.1"/><path d="m20.3 179.6l.8-2.7.5 6.4-.6 2.6-1.8.1v-3.7l1.1-2.7"/><path d="m17.8 177.7l.6 4.7-.6-4.7"/><path d="m250.4 179l3-1.7-.2 1.4 1.2 1.9-11.8 2.6-.1-.6 3.6-3.3.4.3 3.9-.6"/><path d="m277.6 178.3l3.4.7-.1.5-4 1.5.7-2.7"/><path d="m236.8 180.9l4.9.6.3 1-3.6.6-.8-.8-.8-1.4"/><path d="m268.6 180.9l3.2-.8 2.3.7-1.2 1.7-4.3-1.6"/><path d="m231 182.2l1.9-1.3h.5l.3 2.1-4.7 2.5 2-3.3"/><path d="m317.2 180.9l1.8 1-4 1.4 2.2-2.4"/><path d="m365.1 180.9l3.2 1.4.2 1.7-3.4-3.1"/><path d="m266 181.6l2-.1.8 1.5-1.4.6-1.4-2"/><path d="m259.5 184.2l6.1-1.3-.9 2.6-7.6 1.6-1.2-.4-.5-1.7 4.1-.8"/><path d="m359.3 182.2l3.3 2.5-2.9-.1-.4-2.4"/><path d="m21 186.1l.6-2.6.6 7.3.6 1.2-.3 2.7-.3-2.1-1.7 2.9-.6-5.1 1.1-4.3"/><path d="m240 184.8l2.1-1.2-1.4 1.9 7.9-1.4 2 1.2-11.1 2.3-2.1-1 2.6-1.8"/><path d="m370.3 184.8l.7-.4 3.2 3.3-3.9-2.9"/><path d="m231 185.5l3.2.3-.1 2.9 2.7-.5.2.6-1.8.7-1.7-.1-1 .5-1.6 1.5.6-1.2-4-.5 3-1.7.5-2.5"/><path d="m251.7 185.5l2.7 1.4-.3.5-1.2.6h-.6l-.6-2.5"/><path d="m249.1 187.4l1.6-1 1.8 1.7h.6l.9 1.4-4-1.3-.9-.8"/><path d="m216.1 186.8l3.2 1.4 1.4 2.4-3.5 2.5 2.9 1-.3 1.1-1.1 1.5-2.1.5-3.1-2.7.7-1.7-4.1 3-9.7 1.4 5.2-5.7 1.3.5 2.5-.5 1 .7 7.5-2.5-2.8-.3.9-2.7m-9.5 6.1l-2.8 2.4 3.4-1.2-.6-1.2"/><path d="m243.3 186.8l.5-.1 5.3 1.7 1.4 1.4-3.8 1.1-2.5-1.7-.8 1.6-.1-4"/><path d="m223.2 188.1l3.4-.8 1 .1.1 1.2-2.1 1.2-1.5.2-2.7-.5 1.8-1.4"/><path d="m212.8 190l2-.8.6 1.4-1.1.5-1.5-1.1"/><path d="m266.6 190.7l.1-2.8 1.3 2.7-2.9-.5 1.5.6"/><path d="m298.4 188.1l3.3.3-4 1.6v-.6l.7-1.3"/><path d="m237.4 192l3.8-1.9 2.3 1.7-5.1 2.5-3.2-2 2.2-.3"/><path d="m221.2 192l2.3-1.6 4 1.2-6.7 2 .4-1.6"/><path d="m289.3 192l3.5-.1-6 1.6 2.5-1.5"/><path d="m361.9 191.3l.6-.1 1.1 4.8-.5 1.1v4l.3 1-.5 6h-.6l-.4-16.8"/><path d="m224.5 197.1l9.3-5.4 2.1 2.9-7.1 3.2-1.1 1.2-6.2 1.2-1.7-3.2 1.6-1.5 3.1 1.6m4.9-3.7l-.8 1.9 2.6-2-1.8.1"/><path d="m20.3 195.2l1.7-2.9.7 3.3-.5.6-1.4 6.2-1-3.5.5-3.7"/><path d="m264 193.3l2.3.1-3 3.8.5-3.4 1.2 2.1-1-2.6"/><path d="m144.1 194.5l2.8-.6 2.1 1.9-5.1 2.8.2-4.1"/><path d="m386.5 193.9l3.8 2.1.1 1.8-3.9-3.9"/><path d="m137.6 194.5l4.6.4-.8 2.6-4.9 2.3v-.6l.5-.8-.5-1.8 1.1-2.1"/><path d="m210.2 195.8l3.5-1.3 1.5 1.4-.8.6-5.2.1.1 1.1-2.1-2.1 3 .2"/><path d="m273.7 195.8l9.7-1.6-.2.5-4 2-5.8-.4.3-.5"/><path d="m195.3 197.1l4.6-1.7-1.2 1.3-3.4.4"/><path d="m188.8 197.1l6.1.7-.1.6-2.8 1.8 2.9 1 8.7-3.8 3.4 1.4-12.5 4.6-2.5 2.1-.5-.2-4.1.2-.1-2.1 1.6-1.2-4.7.8.7 1-1.6 2.2.1.5-2.4.1-3.9 2.4.1-1 .5-1-18.1 8.4-1.2-2.3.6-.3 3.9-3.4 14.8-4.9 1.5 1.3 5.2-4.6-.9-2.1 5.5-2.5m-.5 2.9l-2.9 1.7 2.5-.1.4-1.6"/><path d="m198.6 197.1l.5 1.2-5.8 2.5-1.5-.5 6.8-3.2"/><path d="m172 202.3l-.5-3.9.5 3.9"/><path d="m139.6 199.1l1.4 2.5-.1 3.8-1.3-6.3"/><path d="m225.1 199.7l1.2-.6-.5 5.2-.7-4.6"/><path d="m328.8 201l3.2.6-.1 7.1h-.7l-1.7-6.1-.7 4.7v-6.3"/><path d="m396.2 201.7l2.5 1.2v1l-2.4-1.3-.1-.9"/><path d="m22.9 205.6l1.1-4 .1 8.6-2.5-1.4 1.3-3.2"/><path d="m173.9 201.7l1.2-.3 4.1.6-4.8 2.3-.5-2.6"/><path d="m204.4 202.3l2.7.8 9-1.1 5.9 7.1.5.1.2 4.3-1.2 1.6-2.7-2.1.6-1.4-4.6-7.7-6.5 2.6.2-1.1-4.2.4-1.7 1.6-3.1.4-2.8 1.4.7-1.9-2.2-.1 3.5-2.5 3.8-1.1 1.1 1 .8-2.3"/><path d="m226.4 204.3l.8-3 .6 3.5-.4 2.7-1.4 2.7.1-1.8-1.3-1.6 1.7-2.4"/><path d="m308.7 203l.6.1-1.4 10.5.8-10.6"/><path d="m185 204.3l.8 2.2-.3.6-2.1-.6 1.6-2.2"/><path d="m297.1 206.2l2.1-2-1.4 3.2-1.2-1.2h.5"/><path d="m163.6 205.6l1.6 1.6-3-.6 1.4-1"/><path d="m191.4 205.6l1.2.8 1.2.3-1.3 3-4.5 1-2.6 1.7-7.5.1-1.7 1.9-3.2-.5-2.7 2.1-3.6.8-5.3 3.2-.3-2.5.8-1.2 5.8-2.5 1.8 1-.3-1.9 4.7-1.4 2.1.6v-1.9l2.5 1.4-.6-2 3.3 1.4 1.3-1.7.7.3 1.4-1.1 3.1.1 3.5-2.9"/><path d="m245.9 206.9l5.4-1.4-.1.5-4.4 1.4-.9-.5"/><path d="m156.4 208.8l4-.4 1.8.5-4 1.9-1-.6-.8-1.4"/><path d="m24.2 208.2l.7 3.6-1.6 4.9-.5.3-.5-4 1.7-2.6.2-2.2"/><path d="m151.9 208.8l4.3-.1-1 2.1-3.9-1.8.6-.2"/><path d="m405.9 209.5l.9-.5 1.9.8.2 2-3-2.3"/><path d="m147.4 210.1l1.4-.3v3l-2.8 1-2.5 2.1 1.9.1-2.5 1.9-5.2-.8 4.5-1.7-7.1.8.5-1.6 11.8-4.5"/><path d="m149.3 209.5l.6-.4 1.6 1.6-.1 1.4h-.4l-1.7-2.6"/><path d="m230.3 211.4l3.3 1-3.4 3.7v.5l.1-5.2"/><path d="m294.5 211.4l.6.1-1.3 8.9h-.6l1.3-9"/><path d="m362.5 211.4h.6l.7 5.8-.6 1.2-.7-7"/><path d="m417.6 211.4l3.2.6-.1 5.1-1.2-1.4h-.6l-.1-3.1-.6-.2-.8 6.3 1.5.6-3.2 2.1.2-1.7.9-.9.8-7.6"/><path d="m152.6 212.7l4.1-.8-1.3 1.4-2.8-.6"/><path d="m221.9 214.6l.8-1.3.5.2.7 3.2-1.8.6-.2-2.7"/><path d="m154.5 215.3l.8-.2 2.7 1.2-2.7.7-.5-.1-.3-1.6"/><path d="m23.6 216.6l1.4-.6h.4l1.1 3.9-.8 1.4 1.3 4.5.1-1.9.6.2.8 6.6-.4 1.5.9 3-1.4 5.6 2.1-1.4-.6 4 1.7-1.3.6 1.8-.1 1.9-.7 1.2-2.7 1-.8-.8-1.4-19.1-1.3-.6.7-5.1-1.2.7-.3-3.4.9-2.3-1.4-.7.5-.3"/><path d="m150.6 218.5l-.6-1.9 1.4 2.1v.6l-.8-.8"/><path d="m157.7 216.6l3.8.8.3 2.5-1.8 1-4.9-1.6.8-1 2.6 1.4-.6-3.2"/><path d="m244.6 217.9l2.5 2-.1.7-2-.5-.4-2.2"/><path d="m328.2 217.9l.6.1.9 3-.6 6.1-.9-9.2"/><path d="m330.8 217.9l1.2.8-.1 8.4-.5-.7-.6-8.5"/><path d="m225.8 219.2l1.2-.8 9.1 7.3 2.2 4.5.3-.6 2.8.7-1.3 2.3 2.5 1.5.1.5-1 2.4 9.6 12.4 1.7.3 3.9 3v2.8l13 15.5 1.2 5.3 1.1 1.9 2.3 2-.1 1.7-.6.1-2.3-.4 1.1 1.6-2.7 3.3-2.5-.1-3.3-2.5 2.7.5 3.1-3.8-7.2-14.3-1.9-2-1.2-.6-2.7-4.1-4.1-1.6-1.1-1.3.1-2.8-2.1-3.2-1.7.5-.1-1-3.9-6-.5-.1-.8-.5-14.1-20.9-.2-2.5-2.3.7v-2"/><path d="m242 218.5l1.9.7 1.3 1.4v.6l-1.9-.7-1.3-2"/><path d="m412.4 219.2l4.4-.1-.9.9-3.1-.1-1 1.4-1.1-.6 1.7-1.5"/><path d="m151.9 220.5l3.4-.6-.6 1.5-2.8-.9"/><path d="m148.7 219.8l2.6-.3 1.4 2.1-4-1.8"/><path d="m145.4 221.8l2.3-.7 3.9 1.6-10.2 2-2.9-1.4 6.9-1.5"/><path d="m426 221.1l2.5 1.9-.5.5-1.4-.6-.6-1.8"/><path d="m404.6 222.4l2.7-.3-4.9 2.1 2.2-1.8"/><path d="m409.2 223.1l2.7-1.4.5 1.2-2.3.7h-.9v-.5"/><path d="m247.8 222.4l2-.1 1.6 4.5-2.5.4v-.7l-1.1-4.1"/><path d="m295.1 227l.6-4.7-.6 4.7"/><path d="m345.7 224.4l1.1-2.1.6 1.4h3.4l-5.1.7"/><path d="M186.2,225l3.7-1.4v3.4l-3.7,1.7V225"/><path d="m421.5 223.7l-.8 4-1.3-.3 1.9-2.3.2-1.4"/><path d="m136.3 224.4l2.6 1.7-2.2 1.4-1.9-1.3 1.5-1.8"/><path d="m207 225.7l.7 1.6-3 8.8-3.2.2 5.4-10.5"/><path d="m396.9 227.6l3.4-1.2.1.6-3.8 2.4.3-1.8"/><path d="m409.2 227l2.3-1-.5 3.2-1.4.6-.4-2.8"/><path d="m431.2 226.3l2.1 1 2.1 2.5-4.2-3.5"/><path d="m245.2 226.3l2.5.7 3.4 3.9v.6l-5.9-5.2"/><path d="m297.1 229.5l2-3.3-1.6 4.7-.4-1.4"/><path d="m291.2 227.6l.5-.2 1.9 4.1.6.6 2.2-.7-.8 1.7-4.4.6v-6.1"/><path d="m392.3 228.2l1.2 3.3-2.1 1.2-.8-3.5 1.7-1"/><path d="m317.8 230.8l4.8-1.8-1.2 1.1-.9-.4-2.3 3.4-.4-2.3"/><path d="m413.7 228.9l1.1.1-1.4 1.2-2.1-.1 2.4-1.2"/><path d="m109.8 232.1l.7-3 2.5.3-3.2 2.7"/><path d="m195.3 231.5l1-1.6 4.4 6.5-5.4-4.9"/><path d="m420.2 231.5l-.3-1.2 2.9.2-2.7 3.3 1.5-1-1.4-1.3"/><path d="m433.8 230.2l2.5-.1-.4 3.2-3.8 1.2 2.3-2.3-2.7.5 2.1-2.5"/><path d="m242 231.5l2.5 2.1.1 1.2-1.9-.1-.7-3.2"/><path d="m255.6 231.5l2 3.2-1.1 4.2-1.2-6 .3-1.4"/><path d="m396.9 231.5l.8.8 3.4-.8.5 1.4-1.5 1.4-2.6-.2-.6-1.8v-.8"/><path d="m417.6 231.5l.5-.1.1 1.2-3.2 2.7 2.6-3.8"/><path d="m388.4 232.1l.5-.1 1.4.6-4.1 2.8-.4-1.9 2.6-1.4"/><path d="m405.3 233.4l3.2-1.2-.2.9-1.5 1-1.6-.3.1-.4"/><path d="m411.1 232.1l.4-.1 3.3.5-1 1.6-4.1-.3 1.4-1.7"/><path d="m170.7 233.4l2.5-.7-.2.6-3.5 1.6 1.2-1.5"/><path d="m319.1 232.8v2.9l-2.1 2.1-.6-.8 1.8-1.9.9-2.3"/><path d="m391.7 234.1l3.8-.5-1 2.7-3.2 1.3v-1.2l2.6-2.1-2.7 1.4.5-1.6"/><path d="m422.8 235.4l2.5-.6-.8 2.9-1-.2-.7-.6v-1.5"/><path d="m300.3 236.7l2.4-.4 3.8 1.2-6.2-.8"/><path d="m314.6 235.4l.6.8-2.1 1.4-1.4.3 2.9-2.5"/><path d="m382.6 236l2.7-.3-3.8 2.7-1 .3.7-1.9 1.4-.8"/><path d="m404.6 235.4l2.8.5-3.6 2-1.2-.5 2-2"/><path d="m162.3 238l4.1-1.9-.3.5-3.8 1.4"/><path d="m201.8 236h.6l1.3 4.3-1.4 2.8-.5-7.1"/><path d="m386.5 237.3l2.9-.3 1.3.9v.6l-2 .9-2.2-2.1"/><path d="m399.5 236.7l2.1-.5-.5 3.4-2.9 2.4-1.4-.6 1.6-1.2 1.1-3.5"/><path d="m215.4 241.2l1.2-4.6 2-.1 1.3 3.5-1.5 2.1-1.8-1.4.1 4.9-.8.1-1.6-.5 1.4-2.2-.3-1.7"/><path d="m251.7 236.7l3.3 2.5-.2 1.4-3.4-3.2.3-.7"/><path d="m258.2 238l.7-1.2 5.8 7.3-.1 1.4-2.4-1.8-2.7-.9-1.3-4.8"/><path d="m409.2 238l2.2-.7v2.3l-1.3.7-.9-2.3"/><path d="m442.9 238.6l3.3-.6-1.5 1.3-.5 2.6-1.3 1.3h-.6l-.3-3.2-4.5 1.2 5.4-2.6"/><path d="m249.1 239.9l.3-1.3 2.1 1.4-.6 1.1-1.8-1.2"/><path d="m374.8 240.6l2.5-1.7 2.2.3-3.5 4-1.4.5.2-3.1"/><path d="m383.9 238.6l.6.6-2.1 2.5-.1.6-3.3 2-1.1.2 6-5.9"/><path d="m415 239.3l2.5-.5.8 1.4-3.2 2.3-4.4-1 3.4-2.1.9-.1"/><path d="m444.8 239.3l3.2-.6 4.7 5h-1.2l-4.7-3.8-2.6 2.1.6-2.7"/><path d="m166.8 239.9l8.4-.2-1.5 2.7-5.6.3-.9-.8.2-.5-.6-1.5m2.7.3l4.2.3-4.2-.3"/><path d="m308.7 239.3l.4-.2 2.9.7-.3.8-3.7.6.7-1.9"/><path d="m369.7 239.3l.5 3.2-4.6.8.2.9-3.2 2.3-.8-2.7 7.9-4.5"/><path d="m424.7 239.3l.5 1.1-2.4 1.2-1.6-.5 3.5-1.8"/><path d="m160.3 239.9l5.6-.1-.1.6-2.6.3.8 1.7-2.9.6-1.3 2.7-1.7-2.1.6 3.6-2.3-3.2 3.9-4.1"/><path d="m177.8 241.2l1.4-1.2 2.6 4.5-1.4 6.5-1.8-.1-.9-.5-1.9-.4-.6-1.1 2.6-7.7"/><path d="m180.4 239.9l4.6 5.8-2 4.6-.6-9.7-2-.7"/><path d="m204.4 240.6l2.1 1.4-.5 5.2-.7-2.3.4-2.9-1.3-1.4"/><path d="m388.4 241.9l3.2-1.8.1.5-1.2 1-2.1.3"/><path d="m402.7 240.6l2.6-.3-1.3 1.4-1.3-1.1"/><path d="m164.9 242.5l2.7-.7.9.8-3.6-.1"/><path d="m415.7 245.1l3.4-2.9 2.2.3-5.6 2.6"/><path d="m63.8 243.8l2-1.3 1.2 1.9-3-.1-.2-.5"/><path d="m142.2 243.8l2.9-1-.8 1.8-2.1-.8"/><path d="m253 242.5h1.4l6.5 6.5-7.3-4.7-.6-1.8"/><path d="m378.7 244.4l3.3-2 .1.8-3.3 1.9-.1-.7"/><path d="m160.3 245.7l1.3-2.7 3.1 1.7-3.4 1.9 2.1 1-6.8 7.6-3 1 1.9.2-4.1 3.6 1.9 3.7.2-2.4 1.9-2.7-.1 4.8.1.5-.8 14.8 3 5.3-.4 5.7-2.1-2.7 2 5.4-1.9 1-1.4-5.8.8-1.5-3-.1-2.9 2.2-1.1 2.6-.2-1.2.6-2.5 2-2.1.1-2.1.6 2 1.9-1.1.1-3.5 1.1-1.7-2.6-.6-1.6-3 1.6 2.2 2.6-2.1.5-6.4h-5.1l-1.2-4.4-2.7-.3 3.2-6.4 2.4-.6 1-2.7 7.3-6.9.8-2"/><path d="m202.5 243.2l2.2 3.8-2-1.9.5 8-1.1-.4.4-9.5"/><path d="m374.8 243.8l1.4-.5v1.4l-.6 1.3-2.2-.8 1.4-1.4"/><path d="m429.9 245.7l4.7-2.5-3.6 4.1-1.7-.3-2.6.8-.5-.8 3.7-1.3"/><path d="m440.9 244.4l1.4-1.4h.6l-1.4 2.6-4.5 1.8v-.5l2.5-.8 1.4-1.7"/><path d="m165.5 246.4l4.5-2.8 5.3 4.9-.2.4-1.8 1.9-1.1-.1-.1-.5.6-2.7-2 1.2-5.2-2.4"/><path d="m31.4 245.7l4-.6.8 2.2-2.5.6-.8 3 1.4-1.2h4.7l-7 3.4.5 2.4 3.8 1.4 3.7-.1.8-2.5 5.1-1.6.5.3 4.9-1.9 1.4-1.5 3 2-.5-2 5.1.7v1.2l-2.9.2-2.7 2.5-.8-.6-4.3.6-2.1 1.3-5.8.1.5 1.6-6.7 5.4-.9-.6-5.7 1.3-2.3-2.8 1.9.2 3.2-2.8-.7-1.9-.7-.8.7-3.6-1.9 1.6-5.2 2.3-1.4-.8-.4-2.5 5.7-2.5 3.6-4"/><path d="m253 247l.5-1.9 1.5 2.1-.8 1.4-1.2-1.6"/><path d="m359.3 245.1l3 .1.4 1.4-3.7 1.4.3-2.9"/><path d="m133.8 246.4h4.8l-5.6 1.9.8-1.9"/><path d="m265.3 245.7l2.2.6 2.6 3.2-1 .6-1.6-.8-2.2-3.6"/><path d="m356 245.7l.6.6-.3 1.3-3.2 2.1-.6-2.5 3.5-1.5"/><path d="m375.5 245.7l.8.5-6.2 2.7 5.4-3.2"/><path d="m379.4 249l2.9-2.3 1.8.3-4.7 2"/><path d="m402.1 248.3l1.8-2.5 1.6 1.2-3.4 1.3"/><path d="m408.5 246.4l4.8-.2-4.7 2.8-1.6-1.3 1.5-1.3"/><path d="m216.1 246.4l-.2 6.2 2.8 7-.1.7-1.8-.1-1.7-6.8-.6 3-1.9-.9.2-4.9 3.3-4.2"/><path d="m395.6 247l2.1-.5-1.2 1.8-2.7 2-1.4.2-7.3 5.6.1-1.8 10.4-7.3"/><path d="m434.5 246.4l2.5.8v.5l-2.6 1.4.1-2.7"/><path d="m3.5 247.7l1.7-.3-.1 3.3-.5 1.6-1.1-4.6"/><path d="m164.2 250.3l1.6-2.1 4.8 1 2-1.2-.6 2.7-6.5.8-1.3-1.2"/><path d="m367.1 247l1.1 1.4-2.8 1.8 1.7-3.2"/><path d="m264.7 247.7l3.4 2.1-.1 1.2-3.3-3.3"/><path d="m361.9 248.3l.5 3.6-1.4-1.6.9-2"/><path d="m126.6 252.2l5.1-2.5-.3.6-17.3 12.7-.3-1.4 3.8-4 9-5.4"/><path d="m256.2 250.3l.6-1.4 1.9 3.8-.6.9-1.2-.9-.7-2.4"/><path d="m347.6 250.3l2.7-1 .5 1.4-3.2-.4"/><path d="m376.8 249l.5 1.1-1.9.8-3.4.3 4.8-2.2"/><path d="m424.1 249l2.7 1-2.9 1.5.2-2.5"/><path d="m173.3 250.9l2-1.6 1.9 2.7-3.8.9-.1-2"/><path d="m269.2 250.3l1-.6.5-.1 2.9 4-4.4-3.3"/><path d="m417.6 251.6l5.6-2-5.6 6.4-1-.1-.8-.8 4.1-3.4h-2.3"/><path d="m429.9 250.9l3-1.5-4 3.2 1-1.7"/><path d="m162.9 250.3l2.7 2.6v.9l-3.4 5.5-1.2.7-1.4-5.2.1-2 1.9-.6 1.2 3.1.3-5.1"/><path d="m245.2 250.3l2.5.3.1 1-.8.5-1.2.1-.6-1.9"/><path d="m460.4 250.9l.8-.7 2.7 2.7-3.5-2"/><path d="m265.3 250.9l4.9 4.5-.5 1.9-4.4-6.4"/><path d="m345 252.2l2.2-.8.1 3.8.9 1.9-1.2.1-2.7-1.4.1-2.7.6-.9"/><path d="m168.1 252.2l.5.9 3.8.1-6 4.8-1.9.6 3.6-6.4"/><path d="m258.8 252.9l2.1.1 1.5 4.7-1.6-1.4-2-3.4"/><path d="m273.1 252.9l2.2 2.5-2.2-2.5"/><path d="m396.9 252.2l1.3 1.2-5.5 2-.1-.6 4.3-2.6"/><path d="m413.1 253.5l1.6.1-.1 2.8-3.4 1.9-1.2-.3.3-.5 3.5-1.4-1.2-2.4.5-.2"/><path d="m203.7 254.2l.9-1 3.7 2.9 1.6-1.9-.7 5.1-5.5-5.1"/><path d="m341.1 257.4l2.9-3.8-2.3 2.9h2.1l-5.2 2.9 1.1-4 1.4 2"/><path d="m348.3 254.2l2.5-.8-.6 2.4-1.9 1.4-.9-1.9.9-1.1"/><path d="m354.7 254.2l.5.5-1.4 1.9-1.2-.1.5-1 1.6-1.3"/><path d="m358.6 255.5l2.6-.6.1 2.5-2.7-1.9"/><path d="m269.8 257.4l.5-1.9 3.7 2.7-.1 1.2 3.1 2-.6-.7 1.4-.8-2.2-3.8 11.7 14.6.4 5.1-1.2-.3-3.1-4.2 1.4-.4-4.1-5.2-1.5-4h-1.8l1 5.5-8.6-9.8"/><path d="m409.8 255.5l1.2 1.4-5.3 1.4-.1-.5 4.2-2.3"/><path d="m212.2 256.1l1 7.2.8.6-.2 2.5-1.2-.8-1.4 1.1-.1.5 1.1-11.1"/><path d="m262.1 256.1l13.5 13-6-1 1.4-2.6-3.2-1.1-1.6-3.6-2.2 2.1-.1-3.6-1.9-1.7-.2-1.4"/><path d="m335.3 257.4l3.3-1.4.1 3.2-2.7-1.2-.7-.6"/><path d="m348.3 257.4l1.9-1.4 1.4 1.3-5.3.2 2-.1"/><path d="m382.6 259.4l1.5-2.3-1.5 2.3"/><path d="m416.3 256.1l1 .1 1 .8 2.3-.4.1.6-1.2.3-3.2-.1v-1.3"/><path d="m386.5 256.8l2.3.2.5-.1-.2.5-2.5 2-.6-1.9.5-.7"/><path d="m333.4 258.7l2.1.5 1.2 1.4-2 .1-1.3-2"/><path d="m411.8 258.7l1.2-.4-2.5 4.7-1.9 1.1v-3.6l3.2-1.8"/><path d="m161 260l1.2-.7.6-.1-3.3 4.5-4.4 3.2.1-3.1 1.2-2.5 4.6-1.3"/><path d="m218.7 259.4l2.2 2.9v.6l-1.7-.8-.6-1.9.1-.8"/><path d="m331.4 259.4l1.9 2.4-6.5 2.8v-3.2l4.6-2"/><path d="m403.3 259.4l1.1.3.2.5-.1 1.4-1.2-2.2"/><path d="m414.4 260.6l4.3.5-4 1.4h-.3l-.8-.7.8-1.2"/><path d="m24.2 263.2l1.3-1.7 2.9 2-2.5 3.2-.3-2-5 1.4.7-3.2 2.9.3"/><path d="m474.6 260.6l1.9 2.5-1.9-2.5"/><path d="m111.1 263.9l2.3-.6-4.5 4.3.3-1.7 1.9-2"/><path d="m324.9 262.6l-.1 2.5-2.7-.3 2.8-2.2"/><path d="m337.9 266.5l2.5-4.3-2.5 4.3"/><path d="m404.6 262.6l1-.2.4 1.3-.7.6-2.7.3 2-2"/><path d="m414.4 262.6h.3l.1.5-1.5 2.1h-.4l-.6-.6 2.1-2"/><path d="m221.2 263.9l1.7.2.1.7 2.5 2.6-.6 3.7-3.7-7.2"/><path d="m447.4 265.2l4.9-1.2 1 2.7-1-.3-2.6-1.7-1.5 1.3-.8-.8"/><path d="m41.7 264.5h.6l-1.4 3.2 2.3.2-2.9 3.1-3.4 8.9-2.5.1-.1-1.4 2.2-7.6 5.1-6.5"/><path d="m170.7 265.8l2.8 1.9.6 2-3.4-3.2v-.7"/><path d="m283.5 271.7l-2.9-6 2.9 6"/><path d="m393 269.7l5.2-4-1.4 3.2-2.3-1.4-1.5 2.2"/><path d="m481.8 265.8l3.9 2.1v.5l-1.4.5-2.5-3.1"/><path d="m133.1 269.1l11.5-2.3-.1 1.2-2.5 2.8-.2-1.2-5.2 2.6-.6-.7.8-1.1-5.3.5v-.6l1.5-1.2"/><path d="m144.8 267.8l2.9-1.6-.4 3-1.8 2-1.2.5-2.6 2.3h1.8l3.4-1.2.4-.7 2.3-2 2.3.1 2.1 3.9.1 1.1-2.7.8-1.2-5.2-.1 3.2-6.9 2.8.5 2.9-1.2-1.4-.1 4.1 1.4-1.8 2.3.6.2.5-2.1 1.6-3 4-1.1-3.4-2.3 4-.1-1.2-2.6-5.3 1.5 2.9-2.1-.9-1.4-3.9-3.1 3.3-1.1-.9-1.6.9-.7-1.9 1.2-1.3 1.6 1.2-.5-2.5 1.2-2.7-3.9 1-.2-2.2 6.2-.5-.3-3 1.2-.1 3.4 3.8 6-3.7 2.3-3.1m-5.7 6.5l-2.1 1.7 3.4 1.1-1.3-2.8"/><path d="m160.3 266.5l6.8 5.6-.5 1.3-.1 2-2.2-.3 2.8.8.4-2.6 5 5-1 1.4-1.9.7-2.3-.5-1.2-2.6-.6 3.5-6.9-12.4 1.6-1.9"/><path d="m105.2 270.4l2.7-3.2-1.6 5.3-1.4 1-1.7 2.8 3.6 3.6-1.8-3.3 1.3-4 4.4 2.8.9 1.9-.8.6-3.3-2.6 2 3.4-1 3.2-8.2 1.9 3.4-5.2-1.2.1-4.2 3-3.2.1 1.1-.5-.3-2.7-2.7 2.5-1.4 3.7-6.3.3-6.5 2.9-.6 3.5.7.3-3.2 9.2-2.1-1.7 1.4-1.5-.4-2.7 1.9-2.1-2.1-2.7-.9 6.5-.6.4-3.3 4.7 3-1.4.5 2-3.1 2-4.7.7-1.1 1.4-3.3-1.1-2.1 1.3-3.2-.2 1 1.7.3 2.7 1.3-1.4 1.2 1.4-.1 2.6-7.6-6.7-3.4-.9-1.9 1.6-.1-2.2-3.8-2.8-1.2-2.1-.5-5 3.8-7.2 9.7-5.5 4.5.7 2.7-.7 11.4-8 7.9-1.6 3.4 2.3-.8 2.1 2.7-2.6 3.9-.3 1.2-1.7-4.1-.8.6.1 5.5-1.4.6.9.1 1.2 5.6-1.7 3.6.9 1.9-1.8m-6 2.9l2.5 1.2-2.5-1.2m-23.2 2.1l-2.2 3.1 3.3-3.3-1.1.2m24.4.5l1.8 1.9-1.8-1.9m-40.8 12.9l-5.2 3.2 3.4-1.7 4.4.5.1.7-4 4.5 4.3-1 .6.2 2-4.7-.4-1.6.5-2.1-5.7 2m6.6 5.2l-.7 3.2.7-3.2m-13 .7l.5 3.9 3.6-1.7-1.6-.1-2.5-2.1m7.3 4.1l-1.5 1.7 1.5-1.7m4.6 1.3l-1.5 1.7 3.2-2-1.7.3m-18.5 2.2l2.3.5 1.7 1.5-2-3.9-2 1.9"/><path d="m331.4 267.1l4 1.9.1 2.7-4.1-4.6"/><path d="m407.9 267.1l.5-.4.5 4.2-2.7.1 1.7-3.9"/><path d="m211.5 267.8l.8.8.3 5.4-1.1-6.2"/><path d="m225.1 271l.3-2 1.6 4.3-1.9-2.3"/><path d="m337.2 271l3.8.5-2.6 1.9-2.1.2-.1-.5 1-2.1"/><path d="m441.6 269.7l.5 1.2-2.6 3.6 2.1-4.8"/><path d="m454.5 269.7l.5.1 2.3 1.7-.2 2-1.2-1.3.1 1.8-1.5-4.3"/><path d="m125.3 271l3.7.1-3.4 1.7-1.2-.9.9-.9"/><path d="m296.4 271l7.7-.3-9.3 1.8 1.6-1.5"/><path d="m422.8 271l7.3.8v1.2l-.5-.1-2.9-1.2-2.3.6-1.6-.3-.7-1h.7"/><path d="m214.8 271l.2 15.2-1.7-12.1 1.5-3.1"/><path d="m273.1 271l3.8 2.3 2.6 3.2.1 1.9-5.3-5.1-1.2-2.3"/><path d="m380.7 271l2.1-.2.6.6 1.6 3.3 2.1-1.6 1.3 1.6-.1.6-4.4-.1-6.1-3.5 2.9-.7"/><path d="m118.9 276.9l4.7-4.9 2.5 4.6 1.5-.3-2.3 1.9 3.4 9-.8.3.1 4 .5.1.8-3.5 3.2-3 2-1 1.7 6-.1 1.2-2.1 1.3-1.2-2.6-4.3 2.4 2.1 7.9-1 .8.8 2.1.3 5.8-2.3-.9-2.7 3.5.1-6.7-1.9 2.7-.5 2.1-3.4.3-.8-1.2v2.7l.8-1.5 1.3 1.4 2.7 8.7 1.8-2.5 2.4 3.6-4.3-8 .7-1.1 1-.5 3.4 6.3 1.9 1.2.8 6.6 1.6-1.8 2.1.6-.2 1.1-.5.3-4.4 4.9-2.1.6-2.4 3.7-2.2-1-4.4-.1-.7-.7 1-4.1-.3 1-2.5.3.2 3.1-1.1-3.1 1.4-4.1-.5-1.3-1.5-1.9 1.4-2.5-3.4-6.5.3-1-1.9-4.4-5.5-5.9.8-1.1-.8-5.8-3.1-5.2 2.6.2 1.2-1.6.2 1.5 1.8-5.2-2 3.2-4.3-.1 1.3-1.3-2.2-3.8 3.6.6.6-1.5 2.2-1.5 1-3.2 2.1-1.5 2.9.1.6.5-1.9 2.2 2.7 3.9.1 2-1.2-.4-1.5 4.1h3.4l.5-7.9-1.1.7 1.6-2.7 1.4 1.9-.4-3.2.3-1.2m3.5.6l-1.9 2.6.6 4.5 1.8-6.4 1.4-2.2-1.9 1.5m-12.2 5.2l.8 6 1 2.3.3-4.4-2.1-3.9m11.6 4.6l-.8 3.2h2.7l-1.9-3.2m-4.6 3.1l.5 1.9-3.2 1.5-3.8-.8v2.6l4-.8.5.7-6.4 2.5 3.9 3.4.7.3v2.7l3.6.1 1.7-3.8 1.7 1.1-1.9 2.7 2.5-.2 6-4.9-1.2-4.7-1.7 1.4-.9-2.7-1.8 1.5-5.2-.1 3.8-3.2-2.5-1.4m-.8 15.7h4-4m0 9l1.9 5.2.1-2.1 1.9-.6-3.9-2.5m9 9.6l2.3 2.6 1-2.6h-3.3m-4.4 5.1l.8 2.5 2.5-2.4-3.3-.1"/><path d="m181.7 275.6l.2-2 2 3.1-2.2-1.1"/><path d="m421.5 273.6l2.7-.8-.1.6-4.1 2.2 1.5-2"/><path d="m430.6 273h.6l.6 8.4-.6-1-.6-7.4"/><path d="m227.7 273.6l2.7.1-.1 3.8-.6-.6-2-3.3"/><path d="m212.2 274.3l.6-.1.1 12.8 2.2 1.8.9 3.6-3.2-3.3-.6-14.8"/><path d="m393.6 276.2l-.8-2.2 2 1 .3.6-1.5.6"/><path d="m388.4 276.9l3.3 1.6-2.7-.5 2.1 1.9-.2.5-3-.1-2.9-1.9 3.4-1.5"/><path d="m394.9 278.1l3.6-.8 3.8 1-2.5 1.2-2.7-.6-3.5 1.8 3.5-.5 1.7-.8-.5 2.8 5.2-2 4 2.8-8.5 4.3v-1.7l-5.8 3-2.7 2.6h-.7l-.5-2.5.9-1.2 3-2.1 2.7-.4 1.2-2.8-9.1 4.5-1.6-.8.3 1.6.5-.2.8 1.3-3.8-.1.1-6.5 2.5 1.7 4.3-3.5.2-.5 3.3-1.6.5-.1m7.3 3.8l-.8 2.3h2.7l-1.9-2.3"/><path d="m498 278.1l2.7.4.1.5-.3.3-2.5-1.2"/><path d="m157.7 278.8l.5-.6.6 2.1 2.9 1.7-1.9 2.7 5.8 7.1-3.4-2.1-2.3.2-1.5-1.2-.7-9.9"/><path d="m351.5 279.4l1.2-.1.3 1.7-1.1 2.2-3.2-.2 2.8-3.6"/><path d="m150 280.7l2.1-1.1.2 2-.6 1.2-1.6-1.3-.1-.8"/><path d="m185.6 279.4l3.6 3 .3 2.3-2-.6-.7-.7-1.2-4"/><path d="m228.4 280.1l1.4-.1 1.3 2.8-1.1-.2-1.4-1.2-.2-1.3"/><path d="m457.8 281.4l-.1-1.5.6.2 2.9 6.6-1.7-1.5-1.5-3.8"/><path d="m186.9 283.3l-1.9-2.7 1.5 1.4.4 1.3"/><path d="m437.7 287.2l.6-6.4-.6 7.8v-1.4"/><path d="m467.5 282l4.1-.8 3 2.9 1.4 3.7-1.2-1.4-7.3-4.4"/><path d="m163.6 283.3v-1.9l2.7.3 1.6 2.7-5.9 3.1-2-2.5 1.4-1.9 2.2.2"/><path d="m408.5 282l3.6 3.1.1.5-.6 1-2.4-2.7-.7-1.9"/><path d="m146.7 283.3l1.3.6-.2 3.6-1.1-3v-1.2"/><path d="m467.5 285.3l1.6-2.1 1 5.3-1.3 1.4-.6-1.4.3-1.2-1-2"/><path d="m170.7 284l1.2.3 2.7-.2-1.4 2.7-2.5-2.8"/><path d="m231.6 284l.5.1 2.9 3.1-.3 1.5-1.9-1.9-1.2-2.8"/><path d="m431.9 284l.5-.2-1.3 6.5-.6-.6v-5.1l1.4-.6"/><path d="m144.1 285.9l.9-1.1-.2 3.7-2 .9 1.3-3.5"/><path d="m371.6 285.9l6.4-1.1-.7 2.1-3.8.3 1.4.7-1.9.1-1.4-2.1"/><path d="m136.3 285.3l.6 1.3-.8 4-.4-1.1.6-4.2"/><path d="m409.8 289.2l.3-3.3 1.9 1.9-.2 4h-.6l-1.4-2.6"/><path d="m91.6 287.9l4-.6.6 1.8-1-.1-.8-1-2.8-.1"/><path d="m177.2 288.5l4.1-2.1 3 5.4 1.6.4 1.2 2.6-.3 4.1 2.2 3.8-1.2.8-.2-2.1-7.1.1 3.8-.9.1-6.4-1.9 2.1-1.4-2.8-2.5.2-.6-3.3-2.5 1.5-.3 1.9-.6-1.9-1.9 1.9-1-.4.4-2.9-1.2-1.9 3.6 1.4 1.3-3 1.4 1.5"/><path d="m293.2 286.6l1.2.6 1.1 3.4-2.3 1.7-.8-2.5.8-3.2"/><path d="m473.3 287.2l1.6-.6 2.4 2.2 1.5 2.5-5.5-4.1"/><path d="m477.2 286.6l4.7 2.5-2.7.7-2-3.2"/><path d="m234.9 287.2l2.2 1.4-.2 1.2.3 2-2.7-3.2.4-1.4"/><path d="m190.8 287.9l2.6 3.8-1.9 1.3-.8-3 .1-2.1"/><path d="m378.7 287.9l7.9 5.1-2.5.3-1.4-.7-4.1 2.3-1.8.1 1.9-7.1m2.1 1.4l-.7 1.7.7-1.7"/><path d="m402.1 287.9l1.7 3-1.7-3"/><path d="m369 289.8l3.4.9-2.2 1 4.4 3.6-.1 1.4-4.4-.1-1.4-1.2.3-5.6"/><path d="m468.2 288.5l1.8 5.1-1.2.1-.6-5.2"/><path d="m144.8 289.8l2.5.1.4 6.9 1.1 1.6-.9.6-1.9-2.6-.5-3.3-.3 2.1-3.6-2.2v4.9l-2.3 3.1.1-1.6-1 2.7-3.1 2.2-.3 7.8-4.4-4.9-.1-3.6 2.6-.8-1.3-1.3v-2.7l1.8 1.5.6 1.9 1.5 1.2 1-4.5-.3-1.6 1.5.1 1.2-2.4 6-5.2"/><path d="m194 291.8l1.6-1.5 1.1 4.6-2.7-3.1"/><path d="m160.3 292.4l1.4-2.1 2.9 2.9 3.5-2.9.9 1.9-.7 1.9.6 5.4-1.7-1.4-.1-3.2-1.4-.6-1.5 2.5-2.3 1.4-1.4-1.4-.2-4.4"/><path d="m260.1 290.5l1.8 2.5-1.1.1-.9-2.1.2-.5"/><path d="m479.8 290.5l3.2.9-3.2-.5v-.4"/><path d="m96.2 293.7l-.6-2.9 1.6 2.1-.3 1.2-.7-.4"/><path d="m149.3 293.1l1.9-1.9 1.4.1-1.3 1.9-2-.1"/><path d="m388.4 291.8l1.3-.8h.7l-.6 3.1-3.3 2.3-.7-1.4 2.6-3.2"/><path d="m483.7 291.8l5.9-.6-.1 1.3-5.8.1v-.8"/><path d="m411.1 291.8l2.6.1-.1 5.1-2.5.1v-5.3"/><path d="m433.8 293.7l.5-2 1.4 7.5-.5 4.3-.6-8.6-.8-1.2"/><path d="m437.7 298.2v-6.1l1.7 1.9-.5 1.8.8 9.2-1 4.3-1-11.1"/><path d="m464.9 292.4l1.2 4.5-1.1.1-.1-4.5"/><path d="m170 296.3l.5-3.4 2.1.7.4 2.6-3 .1"/><path d="m153.2 295.6l1-1.4.7 2.7-1.7-1.3"/><path d="m157.7 293.7l2.3 3.2-.5 1.2-2.3-1.6.5-2.8"/><path d="m262.1 294.3l3 .3 5.8 6 .7 3.1-.6 2.1-3-5.2-.1 1.5-6.6-5.9.8-1.6"/><path d="m352.2 293.7l.6-.2 2.3 1.4-.9 4-2-5.2"/><path d="m413.7 296.9l.4-3.2.1 12.7-.5-9.5"/><path d="m472 295l.3-1.2 1.5 3.6-.7.6-1.1-3"/><path d="m130.5 294.3l.6.8.6 6.5-1.1-.8-1-3 .9-3.5"/><path d="m192.1 294.3l3.9 1.6-.8 1.4-4.1-1.1-1 .3 2-2.2"/><path d="m217.4 295l2.4.1.5.4.4 1.9 2.1 3-1.8-.1-3.6-5.3"/><path d="m390.4 294.3l2.3.8-2.5 6.4-1.2-2.6 1.4-4.6"/><path d="m172.6 295l2.5.1-1.4 5.2-.9-2.1-.2-3.2"/><path d="m179.1 298.2l-.3-3.2 1.8-.1 1.2 4.1-2.7-.8"/><path d="m382 296.3l1.7-.2-1.7.2"/><path d="m98.8 296.9l.7-.6.4.3.7 2.9-1.8-2.6"/><path d="m380 296.3l1.8 1.2v.5l-5.8-.6.1-.7 1.2.3 2.7-.7"/><path d="m103.3 297.6l2.6-.7-1.3 1.9-2.8 1.2.5-2.7 1 .3"/><path d="m121.4 296.9l2.4 2.2-1.4 1-1.8-1.7.8-1.5"/><path d="m156.4 298.2l1.3-.5.9 1.4.1 3.9-2.3-4.8"/><path d="m159.7 298.2l.5-1.2 1.4 1.4v.6l-2.1.3.2-1.1"/><path d="m188.2 296.9l3.8 3.3-2-.6-2.7-1.9.9-.8"/><path d="m198.6 296.9l3.8 5.3-3.2-2.1v1.4l-.8-.6.2-4"/><path d="m142.8 298.2l1.8-.5-.6 2.3-.9-.5-.3-1.3"/><path d="m228.4 299.5l4-1.8-4 1.8"/><path d="m368.4 297.6h1.3l6 1.7-5.9.9-1.4-2.6"/><path d="m22.9 298.2l.6-.2 3.9 2.9.8.3-.6 1.5-2.8-1.9-1.9-2.6"/><path d="m116.3 299.5l4.2-.6-1.7.6h-2.5"/><path d="m161 300.2l1.4 1.2 1.3-.5.5.1 1.2 2.4-1.8 4.5 3.8-.6 2.9 3.4-.2 1.8-2.9-3.4-1.1 2h-.6l-.1-2.7-2.4.1-1.2 1.2-1.3-.7.5-8.8m1.3 1.9l1.4 3.9-1.4-3.9"/><path d="m140.9 300.8l1.3.5 5.1.1 1.2 3.8.1 3.2-5.1 4.7-2.7.1.1 2.3 2.5-1.4 2.4 1.5 5.6-1.8-1.4-5.6.1-1.6.6-1.6.7 1.5 1.8-2.5 2 4.8 2.5.1-1.4-1.9-.6-4.5 1.4-.8 1.2 4.2 2.9 4-.2.5.5 3.2-5.6 6-1.8-.1-2.3 2.3-1.9-1.7-4 1.1-1.7 2.4-.1.5-4.9 2.1-2 2.3 1.9.5-4.5 2.5-3.4.4-.5-.8 1-1.2 4.7-2.4.5-2.7 2.7.6-3.6-2.6.1-.5 1.4-2.6-3.2.2-1 2.4-.2-2.1.6-1.9-.7-1.2.6-1.9 2.6.7.5 2.6 1.2-2.9.1 2.3 2.3-2.6-1.2-3.4 2-1 .5-3-3.2-1.2-1.4-2.7 3.1-.4v-.6l.9-2.1m4.3 4.3l.1.7 1.8.1.1-1.4-.6-.2-.1-1.9-1.3 2.7m9.1 4.4l2.6 1.3-2.6-1.3m3.5 2.8l-1.3 2.3 1.3-2.3m-4.8 2.4l.6 3.2 1.4-2-2-1.2"/><path d="m175.2 301.5l2.1-.9 1.3 2.8-.6.3-2.1-1-.7-1.2"/><path d="m205 302.1l-1.3-1.4 3.4 1.6-2.1-.2"/><path d="m464.3 300.8l.5.1 2.6 5.7-1.2.1-1.9-5.9"/><path d="m466.9 304.7l1.8-3.6 1.2 7.7-1.2 2.7-.6.1.2-2.5-1.4-4.4"/><path d="m178.5 302.8l2.5 1 2.5-1.1-.6 4.9 2.3.5-.8 3.8-2.5.1-1.2 2.9.5-2.9h-1.6l-.5-1.3-4.5 2.6-.7-.6 1.5-1.2-1.3-2.9 2.9 1.6.7-1.6-3.8-2.4-1.5 2-1.6-3.4.6-1.2 1.6 1.4.6-2.1 3 1.7 2.4-.8-.6 3.3 1.2 1.9 1.5-1-1.5-3.7-.6-.6-.5-.9"/><path d="m190.8 302.1l2.7 2.7 1.8-1.4 4.8 3.2-1.4 1.9 3.8-2.3.1 1.9 4.7-2.5 4.3 1.2-1.9 1.3-1.4-.1h3.9l3.9 2.9 1.2 10.8-1.9.3v-6.2l-5-3.1v4l-1.6 4.5-2.2-2.6-2.1 6-.7-2.1 1.8-3.9-1.6-2.7-1.4 3.4-2.5 2.6-1-1.6 3.3-2.2-.5-6.7-4.7-2-4.8 1.6.1 1-2.7-.3-.5 1.7-1 .6-3.3.1-.7-2 .1-.5 3.3-2.7 1.4-.5 1.7-6m1.6 3l1.4 1.6 2.5 1.1-3.9-2.7m12.3 7.5l-2.1 2.3 5.2-.6-3.1-1.7"/><path d="m440.9 302.1l1.9 16.8-1.8-4.2.5-1-.6-11.6"/><path d="m29.4 302.8l5.3 3.2-.1 1.4-4.9-2.3-.3-2.3"/><path d="m319.7 307.3l2.8-4.7.2 1.6-1.9 4.5-1.1-1.4"/><path d="m102 305.4l2.2-1.3h.6l2.3 1.4-5.1-.1"/><path d="m216.1 305.4l1.2 3.4-1.2 1.4v-4.8"/><path d="m107.8 305.4l1.7 1.4 1.4 3.2-2.3.1-.8-4.7"/><path d="m170.7 307.3l1.5 1 .5.7.5 3.2-2.6 2-.6-1.9.2-1.8 1-.8-.5-2.4"/><path d="m362.5 307.3l1.2 6.4-.6.1-.1-2.6-.8-1.4.3-2.5"/><path d="m386.5 307.3h.7l.1 1.7-1.4 3.6.6-5.3"/><path d="m37.2 308.6l2.6.7.8.7-.8 1.6-2.6-3"/><path d="m410.5 308l.6.2.6 14.2-1.2-14.3"/><path d="m434.5 308l.8 1 .5 10.3-.6-.1-.6-11"/><path d="m337.9 309.9l2.1-1.2-1.9 3.6-.2-2.4"/><path d="m475.3 309.3l1.3 3.2-1.8 4.3-2.6-.1-.2-2.3 2.1 1.1 1.2-6.2"/><path d="m130.5 310.5l3.8 2.8-.8 1.7-4.7-.1-.3-1.4 2-3"/><path d="m135.7 312.5l1.1-1.7.5 3-1.6-1.3"/><path d="m382.6 315.1l1.2-4.7-1.2 4.7"/><path d="m437 311.2l1.2 6.4-.5.3-.7-6.7"/><path d="m168.1 313.1l1.7-1.2.3.4.6 1.9.9.8-3.4-.1-.1-1.8"/><path d="m193.4 311.8l6.5.8-2.8.6 1.5 1.3-6.1 4-3-3.7.6-2.3 3.8 3.2-.6-3.9"/><path d="m327.5 312.5l2.7.5-.6 2.1-1.5-1.5-1.2 6-.3-1.9.9-5.2"/><path d="m338.5 312.5l2 6.6-4.5-.8 1.2-1.7 1.9 1.3-.6-5.4"/><path d="m356.7 312.5l.7.8-3.3 4.9-2.3-1.7 2.8-1.4.8-1.7 1.3-.9"/><path d="m57.9 315.1l.8-1 1.6 1.9-.7 1.2-1.7-2.1"/><path d="m108.5 313.8l1.1.2 1.7 4.1-.8 1.6-1.4-2.5-.6-3.4"/><path d="m161.6 313.8l2.1 1.2.7 1.4-2.2 1.2-1.7-.6-.8-1.3 1.9-1.9"/><path d="m348.9 314.4l1.1 1.5.3 1.2-2.9.3 1.5-3"/><path d="m361.9 315.7l1.4-.3-.2 7.8-1.2-7.5"/><path d="m46.9 315.7l4.7-.8.7.8-5.1 1.1-.3-1.1"/><path d="m178.5 315.1l1.1.4-2.9 2.3.3-1.9 1.5-.8"/><path d="m393 315.7l1.8.2-.6 1.3-1.2-1.5"/><path d="m179.8 319l2.6-3.1-.1 2.7 4.6 7.3 3.8-3.3 3.4 1.2.1 1.8-2.6-1.4-.7 6.4-1.8-.3-.9 4.4-1.8-1.2-1.9-.3-.8-2.6 2.5 2.3-4.4-11.1 2.5 1.2.8-3.2-2.7 1.1-2.6-1.9m4.6 6.5l1.7 3.2-1.7-3.2"/><path d="m317.8 316.4l3.6 4.5-3.8-.6-1.9 2.7 2.1-6.6"/><path d="m173.9 317.7l.5-.7 2.1 1.8 2.6.8 1.6 2.3 1.1 5-2.1.1 2.1 10.9 1.6 1.9-1.1 5.1 1.9 1.4v.5l-5.7 1.2-1.2.8 1.4-3.8 1.7.5-2.3-8.8-1 3-1.2.6-1.2 5.9-1 1.5.2-2.3-2.5-.2-.4-.3-1.9-8.4-2.9-3.3 2 3.9-.6.8-2-1.4v4.7l1.3 3.2v1.9l-2.7-5.2-1.8-1.3.4 3.4-2.5.5.3-1-.8-1.1.6-4.9 4.5-.2-.1-5.1h.6l2 1.3.1-5.4 1 2.2-.3 1.2 1.2 2.8.5-3.2 3.3-2-1.9-.3-.2-1.3.8-.6h.5l4.4-5.8-2.5 1.9-1.7-2.5 1.3-1.8m1.5 7.4l-.8 7.9 2.7-2.5-.3-5.8-1.6.4m-3.4 9.4l.7 4.3 1.8-1.1-.1-2.9-.8-2.5-1.6 2.2"/><path d="m196.6 317l1.8 3.3-2.6 4 .8-7.3"/><path d="m475.9 317l.6 1.2-5.4.8 4.8-2"/><path d="m62.5 317.7l3 3.6-.2 2.2-2.8-5.8"/><path d="m155.8 319.6l2.3-1.9 5.6.5-8 2.7.1-1.3"/><path d="m350.2 319l2.9-.4-.9 2.7-4.1 1.8.7-2.6 1.4-1.5"/><path d="m188.2 320.9l3.2-2.5-.2 3.4.1-2.1-2.1 1.4-1-.2"/><path d="m347 319h1.7l-4.2 2.9 2.5-2.9"/><path d="m438.3 318.3l.8.3-1.4 5.7.6 10.4h-.6l-.7-11.5 1.4-4.1v-.8"/><path d="m61.2 321.6l-.1-2.9 1.5 2.2-.2 1.4-1.2-.7"/><path d="m75.4 319.6l3.8 5.1h-.6l-3.1-4.5-.1-.6"/><path d="m337.9 321.6l1.7-.8.5 1.9-3.8 2 .1-1.8 1.5-1.3"/><path d="m168.1 323.5l3.7-3.3.8 2.7-1.4.2-3.3 1.7.2-1.3"/><path d="m325.6 320.3l.7 1.3.3 4.1-1-.3-1.4-2.3 1.4-2.8"/><path d="m33.3 322.2l.6-1.4 1.9 3.5-1.4-.8-1.1-1.3"/><path d="m112.4 322.9l.5-2 1.3 1.9.1 2.1h-.6l-1.3-2"/><path d="m331.4 321.6l.5-.6 1.4 1.4v.5l-1.1 1.3.6 1.4-5.2.3 3.9-2.3v-2"/><path d="m75.4 321.6l1.3 2.9-1.5 1.9-.5-.3-.6-2.9 1.3-1.6"/><path d="m197.9 326.8l1-5.3.8 2.1 2.7 1.6 1.4 4.3-3.2.4-2-5.2.6 3.3h-1.3l-.1-1.2"/><path d="m218.7 321.6h.7l.7 6.5.6.7-1 .6.1 10.2.7.6-1.4 3.9v1.4l-.5-.8-.1-23.2"/><path d="m440.9 322.2l.7-.5.1 5.8-.8-1.9v-3.4"/><path d="m72.2 322.2l.8 2.7-.1 1-.7 1.4v-5.1"/><path d="m348.3 322.9l2-.6-.3 2.3-1.6 1.7.1-2.4-1.5-.8 1.3-.2"/><path d="m161 326.8l7.5-3-2.8 7.6h-.6l-1.9-2.7v-1.9l-1.3 2.3-.9-2.3"/><path d="m215.4 322.9l-.1 3.2.1-3.2"/><path d="m207 323.5l-.9 4.2-.7-.7 1.6-3.5"/><path d="m63.8 324.2l.5.3 2.1 2.7-.1.9-.6.3-1.9-4.2"/><path d="m194 324.8l1.3-.5.8 1-.7 2.1-1.5-1.2.6-.5-.5-.3v-.6"/><path d="m78.7 327.4l.1-2.8 2.7 7.3-.7 1.2-2.1-5.7"/><path d="m345 328.7l1.2-3.6.1 1.1-1.3 2.5"/><path d="m359.3 330.6l.4-6.2.3 4-.7 2.2"/><path d="m66.4 325.5l3.6 4.4-.6 2.8-3.2-4.6.2-2.6"/><path d="m115.6 325.5l1.4-.1.5 1.3-1.4 4.1-.5-.3v-5"/><path d="m143.5 326.8l1.4-1.1 2.7-.1-.8 1.3-3.2.6-.1-.7"/><path d="m155.1 329.3l3.2-1.6.2 5.5 2.5-2.8-.6 6.1-.6.1-2.2-4.6-3.2-.8 2.2-1.1-1.4-.7"/><path d="m315.2 330l.8-.8-.8.8"/><path d="m441.6 328l.5-.1.9 1.5-1 4.4-.4-5.8"/><path d="m213.5 328.7l.5 4.5-1.6 1.9 1.1-6.4"/><path d="m245.2 331.3l1.4-2.9.8 1.2-2.2 1.7"/><path d="m444.2 328.7l.5.2-.1 11h-.6l.1-11.2"/><path d="m194 329.3l2.3.5.2 1.4-1.9.7-.8.9.2-3.5"/><path d="m234.2 333.2l-.6-4.3.8.2-.2 4.1"/><path d="m413.1 329.3l.6.1.6 1.4-.2 8.6-1-10.1"/><path d="m214.8 332.6l1.8-2.9.3 4.7-.5.8-.3-1.9-1.3-.7"/><path d="m146.1 331.9l.4-1.5 1.4 2.9.3-1.9 5.4 3.3 1.4 1.6-1.6 1.6-3-4.1 3.1 5.4 2 .1 1.2 2.1 1-2.5h.6l-.6 1.9.6 7.3 2.5-.6-1.8 2.8-3.3-.3 3 3 2.3-1 .5-2.5 2.5 5.8-11 1.6 2.1 3.4-3.8 3.3-2.7-.7-2.7-1.8 1.4-1.4-3.5-.7-.6-.7-8.4-4.1-1.9 1.6-.6.2-.1-2.8.9-2.3-1 1.2-1-1.5-.4 2.2-4-5.7-4.5-3.3.2-2.3 5.2 4.7-1.2-2.8 2-.5 1.3-2.8 2.3 1.6.2 1.2-.6 3 2.1.3.6-.8 1.1.1.2 4.3 3.9 2.7-2.7-3.8 3.2-2.5-1.8-.8 2.2-6.9-.9-1.9 1.7-1.1 4.4-1.1.3-2.7m.8 3.8l.8 5.9 1.7 1.9-1.2 1.8.5 2.1-3-4.1 1.1 3.3.4.5-3.4.8-2.1-1.4 1.2 2.6v.6l.5-.3 4.9 3.8-.3 1.8 2.9-4.1.5.3v3.2l1.8-1.5v-3l.8-.6-4.6-1.5-.1-2.5 2-.6 2.9 3.5-.2.5h3.8l-2.7-4.4-1.9-.8-.5.1-.1-3.3-1.7 1.2-2.1-1.7-1.1-.3 1.6-1-2.4-2.8m-5.7 6.5h-.6l3.2 2.5.1-4-2.7 1.5m-9.6 4.5l-1.4 1.5 1.7 1.7-.3-3.2m10.7 7.1l4 2.5-4-2.5"/><path d="m358.6 330.6l.5.3-.6 9 .1-9.3"/><path d="m68.3 331.9l.6-.8.8 1.3 2.2-.1 1.9 5.2-1.4.1-.8-1.6-2.1-.9-1.2-3.2"/><path d="m81.3 331.9l1.9 1.1-2.6 2.7-.1-2.7.8-1.1"/><path d="m199.2 331.9l3.2 2.3-.2.6-1.9-2.1.5 1.9-1.2 1.4h-2.1l.3-2.5 1.4-1.6"/><path d="m203.7 333.9l1-2.6 1.4.1 1.5 1.4-3.9 1.1"/><path d="m39.8 333.2l.8-.9 1.4 2.7.2 3.5-2.4-5.3"/><path d="m129.9 333.2l2.5 3.2-.7.8-1.8-4"/><path d="m380 338.4l.6-5.3.3 2.3-.9 3"/><path d="m122.7 341l1.4-6.7 2.2 1-2.6 2.5-.3 4-.6-.3v-.5"/><path d="m185.6 334.5l2.7 1.6 1.6-1.4 1.6 3.4-3.2-1.4 2.5 4.6.1 1.7.9 1.4 2.7 1.3 2.3 5.1-3.3-.1-2.4-5.2-3.3-2.4-.3-3.5-1.7-2.3-1.2-.8 1.2-2.1"/><path d="m205.7 335.2l1.4 1.3-.2 2.7-.6.1-.6-4.1"/><path d="m263.4 335.2l.6-.7 4 7.3v1.7l-5.1-7.3.5-1"/><path d="m342.4 334.5l1 .6-2 4.5.3-3.6-2.2 2.6-1.4 5.6.6-6.1 3.7-3.6"/><path d="m155.8 335.8l1-.7 1.5 2.9.1 1.2h-.6l-2-3.4"/><path d="m211.5 339.7l.4-4.4.8 4.6-1.2-.2"/><path d="m193.4 335.8l2.7.3 1.2.5-1.3 2.5 3.3-.1 1.7 2.1-.3 1.9-4.9-3.2-1.6-.2-.9-3.8"/><path d="m71.5 339.1l-.1-2.9 2.7 3.6v-1.9l4.7 6.8 1.2 4.5-2.7-2.6-.6.1-2.5-4.5-1.4-.5-1.2-2.7"/><path d="m190.8 336.5l1.4.6.6 4-1.6.1.1-3.3-.5-1.4"/><path d="m137 337.8l2.1 3.9-.1 1-1.9-1.2-2.7-.5.1 4.3-.6.8-.3-4.1 3.4-4.2"/><path d="m201.8 338.4l.8-.5.3 3-1.1-2.5"/><path d="m44.3 341l.1-3 3.2 9.4-1.7-.8v-.6l-1.6-5"/><path d="m119.5 338.4l3 2.7-.2 2.8-3-4.1.2-1.4"/><path d="m229 338.4l1.7.4-1 2.9-.7-3.3"/><path d="m332.1 338.4l3.7 5.3-1.9-.7-3-3.3 1.2-1.3"/><path d="m440.9 339.7l1.2-1.6 1.3 1.6-.5 3.1-2.1-2.5.1-.6"/><path d="m89 341l1.9-2.1.6 3.4-4.3 1.3 1.8-2.6"/><path d="m376.8 346.2l.6-7.3.7.7-.3 5.8-1 .8"/><path d="m416.3 339.1h.6l1.3 16.1-.8-.6-1.1-15.5"/><path d="m83.9 340.4l2.5 2.7-2.5-.7v-2"/><path d="m193.4 341.7l1.3-.9 2.9 5.1-2.2 2.3-2-6.5"/><path d="m414.4 341l1 3.3-.7 6.2-.3-9.5"/><path d="m352.8 342.3l.6-.6 3.6 2.6-1 1.2-3.2-3.2"/><path d="m74.1 342.3l2.5 4.5-.6.2-1.9-4.7"/><path d="m338.5 342.3l1.5.7-1.9 4.1-1.6-1.9 1.4-.6.6-2.3"/><path d="m184.3 343l1.2.6 1.9 2.7 1.7.3 1.6 3.8-.6 1.7-1.6.5-2.3-1.2-1.2-1.9-1.6.8.9-7.3"/><path d="m251.7 343l2.2 1.9.7 4.1-1.5 3.1-1.5-1.9.6-.7.9-3.3-1.3-2.5-.1-.7"/><path d="m47.6 347.5l-.8-3.5 2.9 6h-.7l-1.4-2.5"/><path d="m166.8 344.2h.5l2.1 4-1.8-.1-.6-1.9-.2-2"/><path d="m211.5 349.4l1.9-5.6-.4 4.9-2.1 4.5.6-3.8"/><path d="m201.2 348.1l.4-2.9h.4l-.8 2.9"/><path d="m207.6 345.5l.5-.2-3.3 3.2-1.8.6 1.2-2.6 3.4-1"/><path d="m219.3 345.5l.2 6-.2-6"/><path d="m249.8 345.5l1.1.1-.1 6.4h-1.8l-.5-3.2 1-.6.3-2.7"/><path d="m260.1 351.4l1.9-5.5-.6 5.4.2.5-.8.5-.7-.9"/><path d="m208.9 346.2l-.1 5.4-.3.5-.4-1.9.8-4"/><path d="m359.3 351.4l1.2-5.3-.6 10.5-.6-5.2"/><path d="m375.5 355.9l1.1-9.7 1.6 8.6-.6 1.9-1.4.1-.3 9.5h-.6l.1-10.3"/><path d="m76.1 346.8l1.3-.3 2.5 5-1-.3-2.8-4.4"/><path d="m175.2 346.8l.5-.1.3 1.9-.9 1.4.1-3.2"/><path d="m235.5 348.1l1.9 2.6-1.9-2.6"/><path d="m262.7 348.8l.4-.7 2.1 4.2.1 2.3-1.2.7-3.2-1.2 1.3-.8.5-4.5"/><path d="m163.6 351.4l.3-2.3 1.1 1.4 2.2 1.5 1.1 3.2 1.7 1.9.6 3.1-1.9-.6.6 3.2-2.3-1.6-2.6-4.9 1.6-3.8-2.4-1.1"/><path d="m197.9 350.1h1.9l1.2 1.9-.1-2.9 2.1.1 1.8-.6.5 3.4-3.2 3.2-2.9-1.4-.8-3.2-.5-.5"/><path d="m229 348.8l1.9 4.5-1.5 1.4h-.6l.2-5.9"/><path d="m80.6 350.1l1.3-.1 1.2 2-.2 4.6-2.3-6.5"/><path d="m146.7 350.1l3.4-.2.6.8-2.2 2.7-1.8-3.3"/><path d="m173.9 354l-.9-3.5 1.4 1.6 3.4 13.7-1.2 2.5-2 .5-.8-1.1.7-2.1.1-6.6-1.8 9.8-1.3-.7-.7 1.9-4.1 1 .8-1.5-.5-9.1.3.4 2.3 1.6.1 2.4 1.2-5-.1-1 1.3-1.9 1.5.4.3-3.3"/><path d="m50.2 354l.6-2.7 2.1 4-1.2-.1-1.5-1.2"/><path d="m175.2 352.7l1.7-1.2 1.9 2-.2 1.5 1.1 1.2-.8.8-3.7-4.3"/><path d="m181.7 351.4l1.2 2.2-.9.6-2.4-.6 2.1-2.2"/><path d="m205.7 352l.8-.6.3.5-.2 1.9-1.2 1.4-1-2.2 1.3-1"/><path d="m185 352.7l1 1-.2 11-.8-12"/><path d="m194.7 352.7l2.4.5.3 1.1-1.4 1.6-1.9 1.2.6-4.4"/><path d="m187.5 354l.7 1.3.4 16.8-1.1-18.1"/><path d="m267.3 354.6l4-1.1.1.6-4.1.5"/><path d="m192.7 357.2l-.1-2.3.1 2.3"/><path d="m81.3 355.3l1.4-.6 1.9 4.7-1.7-.8-1.5-3.2"/><path d="m198.6 355.3l.4 1.3v1.4l-1.9-1 1.5-1.7"/><path d="m291.2 354.6l1 1.2-.8 1.9-.8-1.7.6-1.4"/><path d="m337.2 356.6l1-2.1 2.1 7.8-1.2-.1-2-5.2.1-.4"/><path d="m208.9 361.1l1.1-5.6-1.1 5.6"/><path d="m477.9 355.3l3.6.8-3.1.3-.6 1.2-3.2 2.9-3.5.5.7-1.4 6.1-4.3"/><path d="m86.4 359.8l-.7-4.1 1.2 4-.5.1"/><path d="m132.5 355.9l.6-.2 3.2 4-1.2.2-2.6-3.4v-.6"/><path d="m181.1 373.4l.5-17.5 1 9.8.6 1.2-1.3.3-.1 5.6-.8.8"/><path d="m155.8 358.5l2.8-1.4v2l-.8-.6h-2"/><path d="m199.9 358.5l3.2-1.2-.1 5.4-.6.3-.3-3.4-2.7 4 .1-4.7.4-.4"/><path d="m219.9 362.4l.3-6-.6 2 .3 4"/><path d="m356 356.6l.8.5.7 7.5-1.4.5-.1-8.5"/><path d="m195.3 357.9l1.4-.6-1.9 4-.2-2.1.7-1.3"/><path d="m358.6 357.2l.6.1-.3 14.2-.3-14.3"/><path d="m481.1 357.2l.6 1.9-.6 3.2h-2.9l-.7-1.4 3.6-3.7"/><path d="m142.8 359.8l.6-1.5 5.3 4.6-2 .7-3.9-3.8"/><path d="m162.3 358.5l.2 1.2-.5 1.5.1 1.8-.8-3 .2-.6.8-.9"/><path d="m268.6 359.8l3.3 2.2-3.3-2.2"/><path d="m136.3 359.8l1.3.7 2.1 2.5-1 .7-1.2-1.3-1.2-2.6"/><path d="m84.5 360.5l1.3.9.6 2.5-1.7-1.5-.2-1.9"/><path d="m139.6 360.5h.6l4 4-1 2.2h-.6l-4-2.7 1-.7v-2.8"/><path d="m197.3 361.7l2.3-.2.2 1.8-.5 2.6-.5.1-.1-1.4-1.4-2.9"/><path d="m486.9 365l-1.2-4.9 1.2 3.6v1.3"/><path d="m87.7 361.7l.6-.3 1.2 2.9-1.6.6-.2-3.2"/><path d="m208.3 361.7l.6.3-.6 5.1v-5.4"/><path d="m157.1 363.7l4.1 1.9 1.9 3.9-3.2-.7-2.8-5.1"/><path d="m194 363.7l2.3.7-.5.1-1.8-.8"/><path d="m466.9 363l2.3-.3-3.2 2.5-1-1 1.9-1.2"/><path d="m91.6 364.3l8-1 2.6 3-2.3-1.5-4.5-.5-1.4 2-1.3-.8-1.1-1.2"/><path d="m118.9 364.3l1.3-1.3 7.3.1-.1 1.9-.6-.8h-7.9"/><path d="m81.3 366.3l3.8-1.6-1.9 1.7 4.3.6.4 1.2-6.5-1.9"/><path d="m341.1 364.3l.3-.8 2 2.9-.6.6-1.2-1-.5-1.7"/><path d="m57.3 364.3h.6l2.2 4.3h-1.2l-1.6-4.3"/><path d="m205.7 364.3l1.2 1.3.6 4.6-1.5.6-.3-6.5"/><path d="m219.3 365l.5.1.5 10.8-1.2-.1.2-10.8"/><path d="m277.6 365h.6l-2.1 5.3-.4-2.3 1.9-3"/><path d="m97.5 366.3l1.8-.3 2.1 1-7.1.1-.4-.5 3.6-.3"/><path d="m196 365.6l2.5.8.5-.1-1.3 3.6-2.4.1.7-4.4"/><path d="m215.4 366.3l2.8-.2-5.9 6.8-.9-1.3 4-5.3"/><path d="m461.7 365.6l.7.8-4.2 3.3 3.5-4.1"/><path d="m113 366.3l1.2 1.3-1.9 1.4-.5.1v-1.9l1.2-.9"/><path d="m116.3 366.3l4.2.1 1.2 1 1.2 2.3.2 1.1-7-3.2.3-1.2"/><path d="m142.8 366.3h.6l2 1.7-1.4.9-1.2-2.6"/><path d="m145.4 368.2l.8-2.2 1.2 3h-.4l-1.6-.8"/><path d="m178.5 366.3l.5.2v4.4l-1.2 1-.7-.6 1.4-5"/><path d="m192.7 366.3l.5-.1-.8 1.7-.6 7 1.4 2.1-2.1-.6-.5-9 2.1-1.1"/><path d="m282.2 367.6l.8-1.4 6.4 8.2-.6.6-1.9-.8.1-1-4.9-5.4"/><path d="m356 366.3l.6.9.2 7.1-.9 1.1.1-9.1"/><path d="m376.8 366.3l-1 28.7-.5-.3-.3-.4.6-1.3 1.2-26.7"/><path d="m121.4 366.9l3.5 1.2-2.3 1.6-1.2-2.3v-.5"/><path d="m249.1 366.9l4.7 4.6-.6-.1-4.1-4.5"/><path d="m344.4 368.2l.6-.1 2.3 4.7-2.9-4.6"/><path d="m91.6 371.5l.6-2.9 1.7 2.2-2 1.3-.3-.6"/><path d="m149.3 370.2l2.7 1.9-3.2-.5.5-1.4"/><path d="m159.7 368.9l1.2.4.8.8.5 3.4-.5-.3-.8-1-1.2-3.3"/><path d="m164.9 368.9l.8.5.3 1.6 5.9.6.9 3.6 2-2.7.9 1.6v.7l1.9 1.6 1.1-1 3.8 1.4 1.7-.6 3.4 4.5.1 2.1-3.4-2.1-6.8-.5-1.8-2.2-3.5.6 2.1 1.7-6.1-.9-.6-.8.6-4.4-2.6-.3-1.9-3.8 1.2-1.2"/><path d="m453.2 372.1l4.7-2.6-.2 1.3-2.3 1.4-2.2-.1"/><path d="m122.7 369.5l.5-.3 2.1 2.8-2.5-1.4-.1-1.1"/><path d="m126.6 369.5l5.1 4v1.3l-5.1-3.4v-1.9"/><path d="m215.4 372.1l1.6-1-1.2 2.7-.4-1.7"/><path d="m198.6 370.2l1.6 3.5 2.3 1.2-2.3 2 1.6 2.7.6-.4.8 1.9-5.1 1.9-3.4-1.9-7.1 1.6-.1-2.1 5.8-.1-2.8-1.8.8-.8 3.8 1.3.3-1.9 3.8 4-2.8-4.2 2.8-.6-3.8-.3-1.6-.6.1-1.2 4.7-4.2"/><path d="m208.3 370.2l1.4 1.4-.3 1.9 1 4.7-1.5-.1-.7-.8.8-1.8-1.4-3.1.8-2.3"/><path d="m279.6 370.2l.8-.2 6.5 7.3-.8.7-6.5-7.8"/><path d="m59.9 370.8l1.4-.2 2 6.4-3.4-5.1v-1.1"/><path d="m202.5 371.5l.7.8 3.7 1.9-1.8 1.9-.5.2-2.1-4.8"/><path d="m96.8 372.8l2.7.6-4 1.4 1.3-2"/><path d="m153.2 372.1l3.2 2.7.7 1.2-2.1-.4 3.4 3.6-1.4.6-2.4-2.5-1.5-3.8.1-1.4"/><path d="m119.5 374.1l.7-1.6 5.4.6-2.1 2.5-.6-.7-3.8 2.3.5-3.4"/><path d="m448.1 376l4.1-3.1-4.1 3.1"/><path d="m273.7 373.4l.8.7-1.6 3.5.8-4.2"/><path d="m212.8 374.7l.7-.6.1 7.3-2.7.1 2-4.6-.1-2.2"/><path d="m91.6 374.7l.5-.1-3.3 5.2 1.3.6-1.1-3.9 2.6-1.8"/><path d="m164.2 376l.7-1.4 3.3 4.9-4.7-.1.7-3.4"/><path d="m188.8 374.7l.8 2.8-2.6.7.2-1.5 1.6-2"/><path d="m95.5 376l1.5 1.5-.9 1.7-.6-3.2"/><path d="m258.8 376l2.9 2 .4 1.2-2.7-.7-.6-2.5"/><path d="m355.4 376l1.9 8.6-1.4-.5-.5-8.1"/><path d="m115 377.3l3.1 1.1-3.5 2.3-2.2-2.6 2.6-.8"/><path d="m118.9 377.3l2-1 .5-.1 1.4 2.3-.1 1.1-1.7-2-2.7 1.9.1-1.8.5-.4"/><path d="m256.9 376.7l.8 1.2-1.4 3.5-1.9.8 2.5-5.5"/><path d="m349.6 376.7l2.2.3 1.8 1.2-4.6 1.1.6-2.6"/><path d="m442.2 379.2l3.3-1.2-1.1 1.2h-2.2"/><path d="m133.8 379.2l-.5-2.3 5.1 4.9-1.2.9-3.4-3.5"/><path d="m262.1 377.9l2.7 2.8-2.4-1.6-.3-1.2"/><path d="m286.1 377.9l.8-.7 2.1.1-.1 1-1.4 1-1.4-1.4"/><path d="m235.5 377.9l4.5 5.9-4.5-4v-1.9"/><path d="m122.7 378.6l.4-.2.4.3.7 2.9-1.7-1.9.2-1.1"/><path d="m204.4 380.5l1.7-2.1 2 1.9h1.9v.6l-5.8-.1.2-.3"/><path d="m95.5 381.2l.3-2.5 3.4 8.6-3.7-6.1"/><path d="m109.1 379.2l.9.5-7.6 5.2-3.8-1.9v-2.7l1.5 3.3 2.9-.7 6.1-3.7"/><path d="m113 379.2l1 1.1-3.7 2.4-1-.9 3.7-2.6"/><path d="m126 381.2l2.2-.9-2.4 2 .2-1.1"/><path d="m129.2 379.9l1.7-.1-.9 1.9-.5.2-.8-1.1.5-.9"/><path d="m252.4 381.8l1.8-2.6-1.4 2.5-.4.1"/><path d="m437.7 381.2l4-1.6-.6 1.4-2.7 1.4-.7-1.2"/><path d="m270.5 379.9l.5-.2.5.8-1.9 4-.3-1.6 1.2-3"/><path d="m138.9 381.2l.8-.9 3.2 5.4v1.9l-1.7-1.5-2.3-4.9"/><path d="m262.1 381.2l.9-1 1.9 3.5-2.8-2.5"/><path d="m253.6 382.5l.5-.1.2 1-3.4 4.2 2.7-5.1"/><path d="m267.3 382.5l1.3-.1-.1 4.9-.6-.1-1.2-.5-.2-.7.8-3.5"/><path d="m61.2 383.1l1.6 3.5v.6l-.9-.1-.7-4"/><path d="m67 383.8l1.1-.3 3.6 7.5-1.5-.4-1.9.3-1.3-7.1"/><path d="m127.3 383.1l-1.6 4.9.1-2.9 1.5-2"/><path d="m203.7 383.8l1.6 2.3-.8.5-2.8-1.4 2-1.4"/><path d="m249.8 383.8l1.5-.6-2.9 5.4.8 1.4-2.5-.3-.2-1.2 3.3-4.7"/><path d="m256.2 387.7l1.3-3.6.2 3.2-1.2 2.8-.3-2.4"/><path d="m373.5 384.4v8.1-8.1"/><path d="m98.8 386.4l.6-.8 2.7 4.3-.1 3-3-5.3-.2-1.2"/><path d="m142.8 385.7l.2 6-.9-.6.7-5.4"/><path d="m423.4 390.9l8.6-4.7-7.1 6.6-1.7-1 .2-.9"/><path d="m102.7 390.3l-.2-4 4.7 8.7.1 1.4-4-3.4-.6-2.7"/><path d="m248.5 388.3l3.4-2.1-2.7 3.5-.7-1.4"/><path d="m295.8 386.4l3.4 2.1-.6 1.9-.6.6-2.5-3.8.3-.8"/><path d="m267.3 390.3l.6-3 1.2.1 2 1.4-3.4 1.1-.4.4"/><path d="m139.6 392.9l1.3-4.1.7 2.5-2 1.6"/><path d="m124 389l.4 1.4-2.1 2.8.7-2.7 1-1.5"/><path d="m129.9 391.6l-.3-2.7 2.9 5.2-.6.1-2-2.6"/><path d="m221.9 389.6l.9.6-5.4 4.8-.2-.8 4.7-4.6"/><path d="m102 392.9l.1-3 .6.3.5 2.7 1.7 1.7-.5 1h-.6l-1.8-2.7"/><path d="m132.5 390.3l3.4 5.1h-.6l-2.8-5.1"/><path d="m290.6 391.6l1.9-1.7-1.2 6.2-.4-.1-.3-4.4"/><path d="m299.7 390.9l1-.8 3.7 3.4 1.4.6.7 1.3-.5.1-2.7-1.4-3.6-3.2"/><path d="m70.9 390.9l.5.1 1.7 3.4-.5.8-2.1-.9.4-3.4"/><path d="m159 392.2l2.7 1.5.5 1-2.1 1.1-1-.7-.1-2.9"/><path d="m365.1 394.1l2.6 1.6h-1.9l-.7-1.6"/><path d="m152.6 394.1h2l-1 1.5-3.6-.6 2.6-.9"/></g></svg>