<svg xmlns="http://www.w3.org/2000/svg" xmlns:xlink="http://www.w3.org/1999/xlink" viewBox="0 0 503.3 890.7" enable-background="new 0 0 503.3 890.7"><defs><pattern id="6" xlink:href="#0" patternTransform="matrix(0.5214 0 0 0.5214 -3238.1023 -4113.8809)"/><pattern id="5" xlink:href="#0" patternTransform="matrix(0.5214 0 0 0.5214 -3238.1023 -4113.8809)"/><pattern id="7" xlink:href="#0" patternTransform="matrix(0.5214 0 0 0.5214 -3238.1023 -4113.8809)"/><pattern id="4" xlink:href="#0" patternTransform="matrix(0.5214 0 0 0.5214 -3238.1023 -4113.8809)"/><pattern id="3" xlink:href="#0" patternTransform="matrix(0.5214 0 0 0.5214 -3238.1023 -4113.8809)"/><pattern x="-634.9" y="806.2" width="139.8" height="138.3" patternUnits="userSpaceOnUse" id="0" viewBox="309 -414.9 139.8 138.3"><path fill="none" d="m309-414.9h139.8v138.3h-139.8z"/><path fill="#3b2e83" d="m597.5-80.9c-12.8-21.2-8.6-44-2-51.8-8.3 7.4-12.7 13.2-14.5 25.5-7.7-6.7-12.5-8.7-21.7-10.5 14.2 8.8 19.8 19.8 24.2 34.7-4-7.4-10.5-13.1-18.2-16 6.3 6.1 3.9 11.7 7.9 21.7 2.5 6.4 6.6 10.4 10.5 12.3 0 0-5.6 1-10-4.1 7.6 23.6 33.5 14.1 46.2 25.4-10.8-5.2-27.5.2-27.5 15.6 0 9.6 8.2 17 16.8 17 8.5 0 13.6-5.8 13.6-11.3 0-4.9-2.5-7.4-5.1-8.3 2.6 3.6.4 8.5-4.1 8.5-3.1 0-6.3-2.5-6.3-6.5 0-6.3 5.8-8.8 10.8-8.8 6.7 0 13.1 2.9 15.1 8.5 2.6-23.7-23.1-31.1-35.7-51.9m114.2-42.9c-16.1 5.9-34.7-1.7-51.4 7.7 17.9-6.2 38.6-3.2 50.1 15.8-4.6-4.6-13.3-6.2-20-6.2 15.6 8.7 13.8 31.7-.5 36.2 0 0 4.6-3.2 4.6-11.5 0-11.1-9.8-20.3-28-20.3-12.4 0-22.9 5.2-27.5 13.9 4.9-5.8 13.3-9.9 22.6-9.9 13.3 0 18.6 9.8 18.7 17.5.1 8.1-5.1 13.6-9.4 15.9 5.7-6.3 1.2-14.9-6.8-14.9-11.7 0-16.5 14.1-14.3 25.7 2.7-9.8 7.9-15 17.6-16.7-7 5.6-9.7 11.4-8.6 20.9 6.2-13.6 18.5-6.8 24.2-20.4 1.4 7.6.1 19-10.8 24.3-12.2 5.9-22.4 3.2-32 14.4-2.7-22.6-17.3-27.7-31.2-42.6-18-19.3-17-46.1-8.3-60.4-2.1 14.3.5 27.4 9.2 38.7-5.1-17.1-4.2-35.1 4.2-49-1.2 9.2-1 14.3 2 22.6.9-18 8.5-30.7 22.8-41.5-5.7 9.6-8.6 22-7 31.9 6.3-25.9 24.1-37 36.7-40.6-4.3 5.4-7 11.5-8.2 18.2 9.4-19.6 27.8-22.3 37.8-28.3 7.2-4.3 4.2-12.3-.2-12.3-2.4 0-3.8 1.4-5.1 4 1-5.2 4.4-7.9 8-7.9 5.3 0 9.3 5.2 9.3 11.7 0 17.3-22.9 29.5-49 44.3-22.4 12.7-32.5 22.3-35.8 40-3.4 18 5.9 35.2 5.9 35.2s-8.6-29.6 4.6-47.9c12-16.6 30.3-23.9 47.2-33.9 18.7-11 35.9-22.6 30.7-41.5 9.5 9.5 12.7 24.3 5.3 33.4-9.6 11.7-28.5 14.2-36 21.7 13.2-6.6 25.2-4.1 34.7-7.9 9.3-3.7 9.2-14.3 9.2-14.3 3.9 13.1.1 28.4-15.3 34m-108.4 77.2c-7.4-.2-15.5 4.8-15.2 10.1-7.3-9.6 6.3-13.5 15.2-10.1m82.6-8.3c9.4 9.2-4.7 15.6-14.8 13.3 8.1-.9 16-7.6 14.8-13.3m18.7-30.2c5.7 8.7 4.5 24.1-7.4 18.5 5.7-.9 9.3-10.6 7.4-18.5m-95.8 80.8c-7.1 11.1-16.3-1.3-16.1-11.7 2.6 7.6 10.8 14 16.1 11.7"/><path fill="#3b2e83" d="m457.7-80.9c-12.8-21.2-8.6-44-2-51.8-8.3 7.4-12.7 13.2-14.5 25.5-7.7-6.7-12.5-8.7-21.7-10.5 14.2 8.8 19.8 19.8 24.2 34.7-4-7.4-10.5-13.1-18.2-16 6.3 6.1 3.9 11.7 7.9 21.7 2.5 6.4 6.6 10.4 10.5 12.3 0 0-5.6 1-10-4.1 7.6 23.6 33.5 14.1 46.2 25.4-10.8-5.2-27.5.2-27.5 15.6 0 9.6 8.2 17 16.8 17 8.5 0 13.6-5.8 13.6-11.3 0-4.9-2.5-7.4-5.1-8.3 2.6 3.6.4 8.5-4.1 8.5-3.1 0-6.3-2.5-6.3-6.5 0-6.3 5.8-8.8 10.8-8.8 6.7 0 13.1 2.9 15.1 8.5 2.6-23.7-23.1-31.1-35.7-51.9m114.2-42.9c-16.1 5.9-34.7-1.7-51.4 7.7 17.9-6.2 38.6-3.2 50.1 15.8-4.6-4.6-13.3-6.2-20-6.2 15.6 8.7 13.8 31.7-.5 36.2 0 0 4.6-3.2 4.6-11.5 0-11.1-9.8-20.3-28-20.3-12.4 0-22.9 5.2-27.5 13.9 4.9-5.8 13.3-9.9 22.6-9.9 13.3 0 18.6 9.8 18.7 17.5.1 8.1-5.1 13.6-9.4 15.9 5.7-6.3 1.2-14.9-6.8-14.9-11.7 0-16.5 14.1-14.3 25.7 2.7-9.8 7.9-15 17.6-16.7-7 5.6-9.7 11.4-8.6 20.9 6.2-13.6 18.5-6.8 24.2-20.4 1.4 7.6.1 19-10.8 24.3-12.2 5.9-22.4 3.2-32 14.4-2.7-22.6-17.3-27.7-31.2-42.6-18-19.3-17-46.1-8.3-60.4-2.1 14.3.5 27.4 9.2 38.7-5.1-17.1-4.2-35.1 4.2-49-1.2 9.2-1 14.3 2 22.6.9-18 8.5-30.7 22.8-41.5-5.7 9.6-8.6 22-7 31.9 6.3-25.9 24.1-37 36.7-40.6-4.3 5.4-7 11.5-8.2 18.2 9.4-19.6 27.8-22.3 37.8-28.3 7.2-4.3 4.2-12.3-.2-12.3-2.4 0-3.8 1.4-5.1 4 1-5.2 4.4-7.9 8-7.9 5.3 0 9.3 5.2 9.3 11.7 0 17.3-22.9 29.5-49 44.3-22.4 12.7-32.5 22.3-35.8 40-3.4 18 5.9 35.2 5.9 35.2s-8.6-29.6 4.6-47.9c12-16.6 30.3-23.9 47.3-33.9 18.7-11 35.9-22.6 30.7-41.5 9.5 9.5 12.7 24.3 5.3 33.4-9.6 11.7-28.5 14.2-36 21.7 13.2-6.6 25.2-4.1 34.7-7.9 9.3-3.7 9.2-14.3 9.2-14.3 3.8 13.1 0 28.4-15.4 34m-108.4 77.2c-7.4-.2-15.5 4.8-15.2 10.1-7.3-9.6 6.3-13.5 15.2-10.1m82.6-8.3c9.4 9.2-4.7 15.6-14.8 13.3 8-.9 16-7.6 14.8-13.3m18.7-30.2c5.7 8.7 4.5 24.1-7.4 18.5 5.7-.9 9.3-10.6 7.4-18.5m-95.8 80.8c-7.1 11.1-16.3-1.3-16.1-11.7 2.5 7.6 10.8 14 16.1 11.7"/><path fill="#3b2e83" d="m317.8-80.9c-12.8-21.2-8.6-44-2-51.8-8.3 7.4-12.7 13.2-14.5 25.5-7.7-6.7-12.5-8.7-21.7-10.5 14.2 8.8 19.8 19.8 24.2 34.7-4-7.4-10.5-13.1-18.2-16 6.3 6.1 3.9 11.7 7.9 21.7 2.5 6.4 6.6 10.4 10.5 12.3 0 0-5.6 1-10-4.1 7.6 23.6 33.5 14.1 46.2 25.4-10.8-5.2-27.5.2-27.5 15.6 0 9.6 8.2 17 16.8 17 8.5 0 13.6-5.8 13.6-11.3 0-4.9-2.5-7.4-5.1-8.3 2.6 3.6.4 8.5-4.1 8.5-3.1 0-6.3-2.5-6.3-6.5 0-6.3 5.8-8.8 10.8-8.8 6.7 0 13.1 2.9 15.1 8.5 2.7-23.7-23-31.1-35.7-51.9m114.3-42.9c-16.1 5.9-34.7-1.7-51.4 7.7 17.9-6.2 38.6-3.2 50.1 15.8-4.6-4.6-13.3-6.2-20-6.2 15.6 8.7 13.8 31.7-.5 36.2 0 0 4.6-3.2 4.6-11.5 0-11.1-9.8-20.3-28-20.3-12.4 0-22.9 5.2-27.5 13.9 4.9-5.8 13.3-9.9 22.6-9.9 13.3 0 18.6 9.8 18.7 17.5.1 8.1-5.1 13.6-9.4 15.9 5.7-6.3 1.2-14.9-6.8-14.9-11.7 0-16.5 14.1-14.3 25.7 2.7-9.8 7.9-15 17.6-16.7-7 5.6-9.7 11.4-8.6 20.9 6.2-13.6 18.5-6.8 24.2-20.4 1.4 7.6.1 19-10.8 24.3-12.2 5.9-22.4 3.2-32 14.4-2.7-22.6-17.3-27.7-31.2-42.6-18-19.3-17-46.1-8.3-60.4-2.1 14.3.5 27.4 9.2 38.7-5.1-17.1-4.2-35.1 4.2-49-1.2 9.2-1 14.3 2 22.6.9-18 8.5-30.7 22.8-41.5-5.7 9.6-8.6 22-7 31.9 6.3-25.9 24.1-37 36.7-40.6-4.3 5.4-7 11.5-8.2 18.2 9.4-19.6 27.8-22.3 37.8-28.3 7.2-4.3 4.2-12.3-.2-12.3-2.4 0-3.8 1.4-5.1 4 1-5.2 4.4-7.9 8-7.9 5.3 0 9.3 5.2 9.3 11.7 0 17.3-22.9 29.5-49 44.3-22.4 12.7-32.5 22.3-35.8 40-3.4 18 5.9 35.2 5.9 35.2s-8.6-29.6 4.6-47.9c12-16.6 30.3-23.9 47.2-33.9 18.7-11 35.9-22.6 30.7-41.5 9.5 9.5 12.7 24.3 5.3 33.4-9.6 11.7-28.5 14.2-36 21.7 13.2-6.6 25.2-4.1 34.7-7.9 9.3-3.7 9.2-14.3 9.2-14.3 3.9 13.1.1 28.4-15.3 34m-108.4 77.2c-7.4-.2-15.5 4.8-15.2 10.1-7.3-9.6 6.3-13.5 15.2-10.1m82.6-8.3c9.4 9.2-4.7 15.6-14.8 13.3 8-.9 16-7.6 14.8-13.3m18.7-30.2c5.7 8.7 4.5 24.1-7.4 18.5 5.7-.9 9.3-10.6 7.4-18.5m-95.8 80.8c-7.1 11.1-16.3-1.3-16.1-11.7 2.5 7.6 10.7 14 16.1 11.7"/><path fill="#3b2e83" d="m178-80.9c-12.8-21.2-8.6-44-2-51.8-8.3 7.4-12.7 13.2-14.5 25.5-7.7-6.7-12.5-8.7-21.7-10.5 14.2 8.8 19.8 19.8 24.2 34.7-4-7.4-10.5-13.1-18.2-16 6.3 6.1 3.9 11.7 7.9 21.7 2.5 6.4 6.6 10.4 10.5 12.3 0 0-5.6 1-10-4.1 7.6 23.6 33.5 14.1 46.2 25.4-10.8-5.2-27.5.2-27.5 15.6 0 9.6 8.2 17 16.8 17 8.5 0 13.6-5.8 13.6-11.3 0-4.9-2.5-7.4-5.1-8.3 2.6 3.6.4 8.5-4.1 8.5-3.1 0-6.3-2.5-6.3-6.5 0-6.3 5.8-8.8 10.8-8.8 6.7 0 13.1 2.9 15.1 8.5 2.7-23.7-23-31.1-35.7-51.9m114.3-42.9c-16.1 5.9-34.7-1.7-51.4 7.7 17.9-6.2 38.6-3.2 50.1 15.8-4.6-4.6-13.3-6.2-20-6.2 15.6 8.7 13.8 31.7-.5 36.2 0 0 4.6-3.2 4.6-11.5 0-11.1-9.8-20.3-28-20.3-12.4 0-22.9 5.2-27.5 13.9 4.9-5.8 13.3-9.9 22.6-9.9 13.3 0 18.6 9.8 18.7 17.5.1 8.1-5.1 13.6-9.4 15.9 5.7-6.3 1.2-14.9-6.8-14.9-11.7 0-16.5 14.1-14.3 25.7 2.7-9.8 7.9-15 17.6-16.7-7 5.6-9.7 11.4-8.6 20.9 6.2-13.6 18.5-6.8 24.2-20.4 1.4 7.6.1 19-10.8 24.3-12.2 5.9-22.4 3.2-32 14.4-2.7-22.6-17.3-27.7-31.2-42.6-18-19.3-17-46.1-8.3-60.4-2.1 14.3.5 27.4 9.2 38.7-5.1-17.1-4.2-35.1 4.2-49-1.2 9.2-1 14.3 2 22.6.9-18 8.5-30.7 22.8-41.5-5.7 9.6-8.6 22-7 31.9 6.3-25.9 24.1-37 36.7-40.6-4.3 5.4-7 11.5-8.2 18.2 9.4-19.6 27.8-22.3 37.8-28.3 7.2-4.3 4.2-12.3-.2-12.3-2.4 0-3.8 1.4-5.1 4 1-5.2 4.4-7.9 8-7.9 5.3 0 9.3 5.2 9.3 11.7 0 17.3-22.9 29.5-49 44.3-22.4 12.7-32.5 22.3-35.8 40-3.4 18 5.9 35.2 5.9 35.2s-8.6-29.6 4.6-47.9c12-16.6 30.3-23.9 47.2-33.9 18.7-11 35.9-22.6 30.7-41.5 9.5 9.5 12.7 24.3 5.3 33.4-9.6 11.7-28.5 14.2-36 21.7 13.2-6.6 25.2-4.1 34.7-7.9 9.3-3.7 9.2-14.3 9.2-14.3 3.9 13.1 0 28.4-15.3 34m-108.4 77.2c-7.4-.2-15.5 4.8-15.2 10.1-7.3-9.6 6.3-13.5 15.2-10.1m82.6-8.3c9.4 9.2-4.7 15.6-14.8 13.3 8-.9 16-7.6 14.8-13.3m18.7-30.2c5.7 8.7 4.5 24.1-7.4 18.5 5.7-.9 9.3-10.6 7.4-18.5m-95.8 80.8c-7.1 11.1-16.3-1.3-16.1-11.7 2.5 7.6 10.7 14 16.1 11.7"/><path fill="#3b2e83" d="m38.2-80.9c-12.8-21.2-8.6-44-2-51.8-8.3 7.4-12.7 13.2-14.5 25.5-7.6-6.8-12.5-8.8-21.7-10.6 14.2 8.8 19.8 19.8 24.2 34.7-4-7.4-10.5-13.1-18.2-16 6.3 6.1 3.9 11.7 7.9 21.7 2.5 6.4 6.6 10.4 10.5 12.3 0 0-5.6 1-10-4.1 7.6 23.6 33.5 14.1 46.2 25.4-11-5.2-27.7.2-27.7 15.6 0 9.6 8.2 17 16.8 17 8.5 0 13.6-5.8 13.6-11.3 0-4.9-2.5-7.4-5.1-8.3 2.6 3.6.4 8.5-4.1 8.5-3.1 0-6.3-2.5-6.3-6.5 0-6.3 5.8-8.8 10.8-8.8 6.7 0 13.1 2.9 15.1 8.5 2.9-23.6-22.9-31-35.5-51.8m114.3-42.9c-16.1 5.9-34.7-1.7-51.4 7.7 17.9-6.2 38.6-3.2 50.1 15.8-4.6-4.6-13.3-6.2-20-6.2 15.6 8.7 13.8 31.7-.5 36.2 0 0 4.6-3.2 4.6-11.5 0-11.1-9.8-20.3-28-20.3-12.4 0-22.9 5.2-27.5 13.9 4.9-5.8 13.3-9.9 22.6-9.9 13.3 0 18.6 9.8 18.7 17.5.1 8.1-5.1 13.6-9.4 15.9 5.7-6.3 1.2-14.9-6.8-14.9-11.7 0-16.5 14.1-14.3 25.7 2.7-9.8 7.9-15 17.6-16.7-7 5.6-9.7 11.4-8.6 20.9 6.2-13.6 18.5-6.8 24.2-20.4 1.4 7.6.1 19-10.8 24.3-12.2 5.9-22.4 3.2-32 14.4-2.7-22.6-17.3-27.7-31.2-42.6-18-19.3-17-46.1-8.3-60.4-2.1 14.3.5 27.4 9.2 38.7-5.1-17.1-4.2-35.1 4.2-49-1.2 9.2-1 14.3 2 22.6.9-18 8.5-30.7 22.8-41.5-5.7 9.6-8.6 22-7 31.9 6.3-25.9 24.1-37 36.7-40.6-4.3 5.4-7 11.5-8.2 18.2 9.4-19.6 27.8-22.3 37.8-28.3 7.2-4.3 4.2-12.3-.2-12.3-2.4 0-3.8 1.4-5.1 4 1-5.2 4.4-7.9 8-7.9 5.3 0 9.3 5.2 9.3 11.7 0 17.3-22.9 29.5-49 44.3-22.4 12.7-32.5 22.3-35.8 40-3.4 18 5.9 35.2 5.9 35.2s-8.6-29.6 4.6-47.9c12-16.6 30.3-23.9 47.2-33.9 18.7-11 35.9-22.6 30.7-41.5 9.5 9.5 12.7 24.3 5.3 33.4-9.6 11.7-28.5 14.2-36 21.7 13.2-6.6 25.2-4.1 34.7-7.9 9.3-3.7 9.2-14.3 9.2-14.3 3.9 13.1 0 28.4-15.3 34m-108.4 77.2c-7.4-.2-15.5 4.8-15.2 10.1-7.3-9.6 6.3-13.5 15.2-10.1m82.6-8.3c9.4 9.2-4.7 15.6-14.8 13.3 8-.9 16-7.6 14.8-13.3m18.7-30.2c5.7 8.7 4.5 24.1-7.4 18.5 5.7-.9 9.3-10.6 7.4-18.5m-95.9 80.8c-7.1 11-16.2-1.4-16.1-11.7 2.6 7.6 10.8 14 16.1 11.7"/><path fill="#3b2e83" d="m597.5-219.2c-12.8-21.2-8.6-44-2-51.8-8.3 7.4-12.7 13.2-14.5 25.5-7.7-6.7-12.5-8.7-21.7-10.5 14.2 8.8 19.8 19.8 24.2 34.7-4-7.4-10.5-13.1-18.2-16 6.3 6.1 3.9 11.7 7.9 21.7 2.5 6.4 6.6 10.4 10.5 12.3 0 0-5.6 1-10-4.1 7.6 23.6 33.5 14.1 46.2 25.4-10.8-5.2-27.5.2-27.5 15.6 0 9.6 8.2 17 16.8 17 8.5 0 13.6-5.8 13.6-11.3 0-4.9-2.5-7.4-5.1-8.3 2.6 3.6.4 8.5-4.1 8.5-3.1 0-6.3-2.5-6.3-6.5 0-6.3 5.8-8.8 10.8-8.8 6.7 0 13.1 2.9 15.1 8.5 2.6-23.7-23.1-31.1-35.7-51.9m114.2-42.9c-16.1 5.9-34.7-1.7-51.4 7.7 17.9-6.2 38.6-3.2 50.1 15.8-4.6-4.6-13.3-6.2-20-6.2 15.6 8.7 13.8 31.7-.5 36.2 0 0 4.6-3.2 4.6-11.5 0-11.1-9.8-20.3-28-20.3-12.4 0-22.9 5.2-27.5 13.9 4.9-5.8 13.3-9.9 22.6-9.9 13.3 0 18.6 9.8 18.7 17.5.1 8.1-5.1 13.6-9.4 15.9 5.7-6.3 1.2-14.9-6.8-14.9-11.7 0-16.5 14.1-14.3 25.7 2.7-9.8 7.9-15 17.6-16.7-7 5.6-9.7 11.4-8.6 20.9 6.2-13.6 18.5-6.8 24.2-20.4 1.4 7.6.1 19-10.8 24.3-12.2 5.9-22.4 3.2-32 14.4-2.7-22.6-17.3-27.7-31.2-42.6-18-19.3-17-46.1-8.3-60.4-2.1 14.3.5 27.4 9.2 38.7-5.1-17.1-4.2-35.1 4.2-49-1.2 9.3-1 14.3 2 22.6.9-18 8.5-30.7 22.8-41.5-5.7 9.6-8.6 22-7 31.9 6.3-25.9 24.1-37 36.7-40.6-4.3 5.4-7 11.5-8.2 18.2 9.4-19.6 27.8-22.3 37.8-28.3 7.2-4.3 4.2-12.3-.2-12.3-2.4 0-3.8 1.4-5.1 4 1-5.2 4.4-7.9 8-7.9 5.3 0 9.3 5.2 9.3 11.7 0 17.3-22.9 29.5-49 44.3-22.4 12.7-32.5 22.3-35.8 40-3.4 18 5.9 35.2 5.9 35.2s-8.6-29.6 4.6-47.9c12-16.6 30.3-23.9 47.2-33.9 18.7-11 35.9-22.6 30.7-41.5 9.5 9.5 12.7 24.3 5.3 33.4-9.6 11.7-28.5 14.2-36 21.7 13.2-6.6 25.2-4.1 34.7-7.9 9.3-3.7 9.2-14.3 9.2-14.3 3.9 13.1.1 28.4-15.3 34m-108.4 77.2c-7.4-.2-15.5 4.8-15.2 10.1-7.3-9.6 6.3-13.5 15.2-10.1m82.6-8.3c9.4 9.2-4.7 15.6-14.8 13.3 8.1-.9 16-7.6 14.8-13.3m18.7-30.2c5.7 8.7 4.5 24.1-7.4 18.5 5.7-.8 9.3-10.6 7.4-18.5m-95.8 80.8c-7.1 11.1-16.3-1.3-16.1-11.7 2.6 7.6 10.8 14 16.1 11.7"/><path fill="#3b2e83" d="m457.7-219.2c-12.8-21.2-8.6-44-2-51.8-8.3 7.4-12.7 13.2-14.5 25.5-7.7-6.7-12.5-8.7-21.7-10.5 14.2 8.8 19.8 19.8 24.2 34.7-4-7.4-10.5-13.1-18.2-16 6.3 6.1 3.9 11.7 7.9 21.7 2.5 6.4 6.6 10.4 10.5 12.3 0 0-5.6 1-10-4.1 7.6 23.6 33.5 14.1 46.2 25.4-10.8-5.2-27.5.2-27.5 15.6 0 9.6 8.2 17 16.8 17 8.5 0 13.6-5.8 13.6-11.3 0-4.9-2.5-7.4-5.1-8.3 2.6 3.6.4 8.5-4.1 8.5-3.1 0-6.3-2.5-6.3-6.5 0-6.3 5.8-8.8 10.8-8.8 6.7 0 13.1 2.9 15.1 8.5 2.6-23.7-23.1-31.1-35.7-51.9m114.2-42.9c-16.1 5.9-34.7-1.7-51.4 7.7 17.9-6.2 38.6-3.2 50.1 15.8-4.6-4.6-13.3-6.2-20-6.2 15.6 8.7 13.8 31.7-.5 36.2 0 0 4.6-3.2 4.6-11.5 0-11.1-9.8-20.3-28-20.3-12.4 0-22.9 5.2-27.5 13.9 4.9-5.8 13.3-9.9 22.6-9.9 13.3 0 18.6 9.8 18.7 17.5.1 8.1-5.1 13.6-9.4 15.9 5.7-6.3 1.2-14.9-6.8-14.9-11.7 0-16.5 14.1-14.3 25.7 2.7-9.8 7.9-15 17.6-16.7-7 5.6-9.7 11.4-8.6 20.9 6.2-13.6 18.5-6.8 24.2-20.4 1.4 7.6.1 19-10.8 24.3-12.2 5.9-22.4 3.2-32 14.4-2.7-22.6-17.3-27.7-31.2-42.6-18-19.3-17-46.1-8.3-60.4-2.1 14.3.5 27.4 9.2 38.7-5.1-17.1-4.2-35.1 4.2-49-1.2 9.3-1 14.3 2 22.6.9-18 8.5-30.7 22.8-41.5-5.7 9.6-8.6 22-7 31.9 6.3-25.9 24.1-37 36.7-40.6-4.3 5.4-7 11.5-8.2 18.2 9.4-19.6 27.8-22.3 37.8-28.3 7.2-4.3 4.2-12.3-.2-12.3-2.4 0-3.8 1.4-5.1 4 1-5.2 4.4-7.9 8-7.9 5.3 0 9.3 5.2 9.3 11.7 0 17.3-22.9 29.5-49 44.3-22.4 12.7-32.5 22.3-35.8 40-3.4 18 5.9 35.2 5.9 35.2s-8.6-29.6 4.6-47.9c12-16.6 30.3-23.9 47.3-33.9 18.7-11 35.9-22.6 30.7-41.5 9.5 9.5 12.7 24.3 5.3 33.4-9.6 11.7-28.5 14.2-36 21.7 13.2-6.6 25.2-4.1 34.7-7.9 9.3-3.7 9.2-14.3 9.2-14.3 3.8 13.1 0 28.4-15.4 34m-108.4 77.2c-7.4-.2-15.5 4.8-15.2 10.1-7.3-9.6 6.3-13.5 15.2-10.1m82.6-8.3c9.4 9.2-4.7 15.6-14.8 13.3 8-.9 16-7.6 14.8-13.3m18.7-30.2c5.7 8.7 4.5 24.1-7.4 18.5 5.7-.8 9.3-10.6 7.4-18.5m-95.8 80.8c-7.1 11.1-16.3-1.3-16.1-11.7 2.5 7.6 10.8 14 16.1 11.7"/><path fill="#3b2e83" d="m317.8-219.2c-12.8-21.2-8.6-44-2-51.8-8.3 7.4-12.7 13.2-14.5 25.5-7.7-6.7-12.5-8.7-21.7-10.5 14.2 8.8 19.8 19.8 24.2 34.7-4-7.4-10.5-13.1-18.2-16 6.3 6.1 3.9 11.7 7.9 21.7 2.5 6.4 6.6 10.4 10.5 12.3 0 0-5.6 1-10-4.1 7.6 23.6 33.5 14.1 46.2 25.4-10.8-5.2-27.5.2-27.5 15.6 0 9.6 8.2 17 16.8 17 8.5 0 13.6-5.8 13.6-11.3 0-4.9-2.5-7.4-5.1-8.3 2.6 3.6.4 8.5-4.1 8.5-3.1 0-6.3-2.5-6.3-6.5 0-6.3 5.8-8.8 10.8-8.8 6.7 0 13.1 2.9 15.1 8.5 2.7-23.7-23-31.1-35.7-51.9m114.3-42.9c-16.1 5.9-34.7-1.7-51.4 7.7 17.9-6.2 38.6-3.2 50.1 15.8-4.6-4.6-13.3-6.2-20-6.2 15.6 8.7 13.8 31.7-.5 36.2 0 0 4.6-3.2 4.6-11.5 0-11.1-9.8-20.3-28-20.3-12.4 0-22.9 5.2-27.5 13.9 4.9-5.8 13.3-9.9 22.6-9.9 13.3 0 18.6 9.8 18.7 17.5.1 8.1-5.1 13.6-9.4 15.9 5.7-6.3 1.2-14.9-6.8-14.9-11.7 0-16.5 14.1-14.3 25.7 2.7-9.8 7.9-15 17.6-16.7-7 5.6-9.7 11.4-8.6 20.9 6.2-13.6 18.5-6.8 24.2-20.4 1.4 7.6.1 19-10.8 24.3-12.2 5.9-22.4 3.2-32 14.4-2.7-22.6-17.3-27.7-31.2-42.6-18-19.3-17-46.1-8.3-60.4-2.1 14.3.5 27.4 9.2 38.7-5.1-17.1-4.2-35.1 4.2-49-1.2 9.3-1 14.3 2 22.6.9-18 8.5-30.7 22.8-41.5-5.7 9.6-8.6 22-7 31.9 6.3-25.9 24.1-37 36.7-40.6-4.3 5.4-7 11.5-8.2 18.2 9.4-19.6 27.8-22.3 37.8-28.3 7.2-4.3 4.2-12.3-.2-12.3-2.4 0-3.8 1.4-5.1 4 1-5.2 4.4-7.9 8-7.9 5.3 0 9.3 5.2 9.3 11.7 0 17.3-22.9 29.5-49 44.3-22.4 12.7-32.5 22.3-35.8 40-3.4 18 5.9 35.2 5.9 35.2s-8.6-29.6 4.6-47.9c12-16.6 30.3-23.9 47.2-33.9 18.7-11 35.9-22.6 30.7-41.5 9.5 9.5 12.7 24.3 5.3 33.4-9.6 11.7-28.5 14.2-36 21.7 13.2-6.6 25.2-4.1 34.7-7.9 9.3-3.7 9.2-14.3 9.2-14.3 3.9 13.1.1 28.4-15.3 34m-108.4 77.2c-7.4-.2-15.5 4.8-15.2 10.1-7.3-9.6 6.3-13.5 15.2-10.1m82.6-8.3c9.4 9.2-4.7 15.6-14.8 13.3 8-.9 16-7.6 14.8-13.3m18.7-30.2c5.7 8.7 4.5 24.1-7.4 18.5 5.7-.8 9.3-10.6 7.4-18.5m-95.8 80.8c-7.1 11.1-16.3-1.3-16.1-11.7 2.5 7.6 10.7 14 16.1 11.7"/><path fill="#3b2e83" d="m178-219.2c-12.8-21.2-8.6-44-2-51.8-8.3 7.4-12.7 13.2-14.5 25.5-7.7-6.7-12.5-8.7-21.7-10.5 14.2 8.8 19.8 19.8 24.2 34.7-4-7.4-10.5-13.1-18.2-16 6.3 6.1 3.9 11.7 7.9 21.7 2.5 6.4 6.6 10.4 10.5 12.3 0 0-5.6 1-10-4.1 7.6 23.6 33.5 14.1 46.2 25.4-10.8-5.2-27.5.2-27.5 15.6 0 9.6 8.2 17 16.8 17 8.5 0 13.6-5.8 13.6-11.3 0-4.9-2.5-7.4-5.1-8.3 2.6 3.6.4 8.5-4.1 8.5-3.1 0-6.3-2.5-6.3-6.5 0-6.3 5.8-8.8 10.8-8.8 6.7 0 13.1 2.9 15.1 8.5 2.7-23.7-23-31.1-35.7-51.9m114.3-42.9c-16.1 5.9-34.7-1.7-51.4 7.7 17.9-6.2 38.6-3.2 50.1 15.8-4.6-4.6-13.3-6.2-20-6.2 15.6 8.7 13.8 31.7-.5 36.2 0 0 4.6-3.2 4.6-11.5 0-11.1-9.8-20.3-28-20.3-12.4 0-22.9 5.2-27.5 13.9 4.9-5.8 13.3-9.9 22.6-9.9 13.3 0 18.6 9.8 18.7 17.5.1 8.1-5.1 13.6-9.4 15.9 5.7-6.3 1.2-14.9-6.8-14.9-11.7 0-16.5 14.1-14.3 25.7 2.7-9.8 7.9-15 17.6-16.7-7 5.6-9.7 11.4-8.6 20.9 6.2-13.6 18.5-6.8 24.2-20.4 1.4 7.6.1 19-10.8 24.3-12.2 5.9-22.4 3.2-32 14.4-2.7-22.6-17.3-27.7-31.2-42.6-18-19.3-17-46.1-8.3-60.4-2.1 14.3.5 27.4 9.2 38.7-5.1-17.1-4.2-35.1 4.2-49-1.2 9.3-1 14.3 2 22.6.9-18 8.5-30.7 22.8-41.5-5.7 9.6-8.6 22-7 31.9 6.3-25.9 24.1-37 36.7-40.6-4.3 5.4-7 11.5-8.2 18.2 9.4-19.6 27.8-22.3 37.8-28.3 7.2-4.3 4.2-12.3-.2-12.3-2.4 0-3.8 1.4-5.1 4 1-5.2 4.4-7.9 8-7.9 5.3 0 9.3 5.2 9.3 11.7 0 17.3-22.9 29.5-49 44.3-22.4 12.7-32.5 22.3-35.8 40-3.4 18 5.9 35.2 5.9 35.2s-8.6-29.6 4.6-47.9c12-16.6 30.3-23.9 47.2-33.9 18.7-11 35.9-22.6 30.7-41.5 9.5 9.5 12.7 24.3 5.3 33.4-9.6 11.7-28.5 14.2-36 21.7 13.2-6.6 25.2-4.1 34.7-7.9 9.3-3.7 9.2-14.3 9.2-14.3 3.9 13.1 0 28.4-15.3 34m-108.4 77.2c-7.4-.2-15.5 4.8-15.2 10.1-7.3-9.6 6.3-13.5 15.2-10.1m82.6-8.3c9.4 9.2-4.7 15.6-14.8 13.3 8-.9 16-7.6 14.8-13.3m18.7-30.2c5.7 8.7 4.5 24.1-7.4 18.5 5.7-.8 9.3-10.6 7.4-18.5m-95.8 80.8c-7.1 11.1-16.3-1.3-16.1-11.7 2.5 7.6 10.7 14 16.1 11.7"/><path fill="#3b2e83" d="m38.2-219.2c-12.8-21.2-8.6-44-2-51.8-8.3 7.4-12.7 13.2-14.5 25.5-7.7-6.7-12.5-8.7-21.7-10.5 14.2 8.8 19.8 19.8 24.2 34.7-4-7.4-10.5-13.1-18.2-16 6.3 6.1 3.9 11.7 7.9 21.7 2.5 6.4 6.6 10.4 10.5 12.3 0 0-5.6 1-10-4.1 7.6 23.6 33.5 14.1 46.2 25.4-10.8-5.2-27.5.2-27.5 15.6 0 9.6 8.2 17 16.8 17 8.5 0 13.6-5.8 13.6-11.3 0-4.9-2.5-7.4-5.1-8.3 2.6 3.6.4 8.5-4.1 8.5-3.1 0-6.3-2.5-6.3-6.5 0-6.3 5.8-8.8 10.8-8.8 6.7 0 13.1 2.9 15.1 8.5 2.7-23.7-23.1-31.1-35.7-51.9m114.3-42.9c-16.1 5.9-34.7-1.7-51.4 7.7 17.9-6.2 38.6-3.2 50.1 15.8-4.6-4.6-13.3-6.2-20-6.2 15.6 8.7 13.8 31.7-.5 36.2 0 0 4.6-3.2 4.6-11.5 0-11.1-9.8-20.3-28-20.3-12.4 0-22.9 5.2-27.5 13.9 4.9-5.8 13.3-9.9 22.6-9.9 13.3 0 18.6 9.8 18.7 17.5.1 8.1-5.1 13.6-9.4 15.9 5.7-6.3 1.2-14.9-6.8-14.9-11.7 0-16.5 14.1-14.3 25.7 2.7-9.8 7.9-15 17.6-16.7-7 5.6-9.7 11.4-8.6 20.9 6.2-13.6 18.5-6.8 24.2-20.4 1.4 7.6.1 19-10.8 24.3-12.2 5.9-22.4 3.2-32 14.4-2.7-22.6-17.3-27.7-31.2-42.6-18-19.3-17-46.1-8.3-60.4-2.1 14.3.5 27.4 9.2 38.7-5.1-17.1-4.2-35.1 4.2-49-1.2 9.3-1 14.3 2 22.6.9-18 8.5-30.7 22.8-41.5-5.7 9.6-8.6 22-7 31.9 6.3-25.9 24.1-37 36.7-40.6-4.3 5.4-7 11.5-8.2 18.2 9.4-19.6 27.8-22.3 37.8-28.3 7.2-4.3 4.2-12.3-.2-12.3-2.4 0-3.8 1.4-5.1 4 1-5.2 4.4-7.9 8-7.9 5.3 0 9.3 5.2 9.3 11.7 0 17.3-22.9 29.5-49 44.3-22.4 12.7-32.5 22.3-35.8 40-3.4 18 5.9 35.2 5.9 35.2s-8.6-29.6 4.6-47.9c12-16.6 30.3-23.9 47.2-33.9 18.7-11 35.9-22.6 30.7-41.5 9.5 9.5 12.7 24.3 5.3 33.4-9.6 11.7-28.5 14.2-36 21.7 13.2-6.6 25.2-4.1 34.7-7.9 9.3-3.7 9.2-14.3 9.2-14.3 3.9 13.1 0 28.4-15.3 34m-108.4 77.2c-7.4-.2-15.5 4.8-15.2 10.1-7.3-9.6 6.3-13.5 15.2-10.1m82.6-8.3c9.4 9.2-4.7 15.6-14.8 13.3 8-.9 16-7.6 14.8-13.3m18.7-30.2c5.7 8.7 4.5 24.1-7.4 18.5 5.7-.8 9.3-10.6 7.4-18.5m-95.9 80.8c-7.1 11.1-16.3-1.3-16.1-11.7 2.6 7.6 10.8 14 16.1 11.7"/><path fill="#3b2e83" d="m597.5-357.5c-12.8-21.2-8.6-44-2-51.8-8.3 7.4-12.7 13.2-14.5 25.5-7.7-6.7-12.5-8.7-21.7-10.5 14.2 8.8 19.8 19.8 24.2 34.7-4-7.4-10.5-13.1-18.2-16 6.3 6.1 3.9 11.7 7.9 21.7 2.5 6.4 6.6 10.4 10.5 12.3 0 0-5.6 1-10-4.1 7.6 23.6 33.5 14.1 46.2 25.4-10.8-5.2-27.5.2-27.5 15.6 0 9.6 8.2 17 16.8 17 8.5 0 13.6-5.8 13.6-11.3 0-4.9-2.5-7.4-5.1-8.3 2.6 3.6.4 8.5-4.1 8.5-3.1 0-6.3-2.5-6.3-6.5 0-6.3 5.8-8.8 10.8-8.8 6.7 0 13.1 2.9 15.1 8.5 2.6-23.7-23.1-31.1-35.7-51.9m114.2-42.9c-16.1 5.9-34.7-1.7-51.4 7.7 17.9-6.2 38.6-3.2 50.1 15.8-4.6-4.6-13.3-6.2-20-6.2 15.6 8.7 13.8 31.7-.5 36.2 0 0 4.6-3.2 4.6-11.5 0-11.1-9.8-20.3-28-20.3-12.4 0-22.9 5.2-27.5 13.9 4.9-5.8 13.3-9.9 22.6-9.9 13.3 0 18.6 9.8 18.7 17.5.1 8.1-5.1 13.6-9.4 15.9 5.7-6.3 1.2-14.9-6.8-14.9-11.7 0-16.5 14.1-14.3 25.7 2.7-9.8 7.9-15 17.6-16.7-7 5.6-9.7 11.4-8.6 20.9 6.2-13.6 18.5-6.8 24.2-20.4 1.4 7.6.1 19-10.8 24.3-12.2 5.9-22.4 3.2-32 14.4-2.7-22.6-17.3-27.7-31.2-42.6-18-19.3-17-46.1-8.3-60.4-2.1 14.3.5 27.4 9.2 38.7-5.1-17.1-4.2-35.1 4.2-49-1.2 9.3-1 14.3 2 22.6.9-18 8.5-30.7 22.8-41.5-5.7 9.6-8.6 22-7 31.9 6.3-25.9 24.1-37 36.7-40.6-4.3 5.4-7 11.5-8.2 18.2 9.4-19.6 27.8-22.3 37.8-28.3 7.2-4.3 4.2-12.3-.2-12.3-2.4 0-3.8 1.4-5.1 4 1-5.2 4.4-7.9 8-7.9 5.3 0 9.3 5.2 9.3 11.7 0 17.3-22.9 29.5-49 44.3-22.4 12.7-32.5 22.3-35.8 40-3.4 18 5.9 35.2 5.9 35.2s-8.6-29.6 4.6-47.9c12-16.6 30.3-23.9 47.2-33.9 18.7-11 35.9-22.6 30.7-41.5 9.5 9.5 12.7 24.3 5.3 33.4-9.6 11.7-28.5 14.2-36 21.7 13.2-6.6 25.2-4.1 34.7-7.9 9.3-3.7 9.2-14.3 9.2-14.3 3.9 13.1.1 28.4-15.3 34m-108.4 77.3c-7.4-.2-15.5 4.8-15.2 10.1-7.3-9.7 6.3-13.6 15.2-10.1m82.6-8.4c9.4 9.2-4.7 15.6-14.8 13.3 8.1-.9 16-7.6 14.8-13.3m18.7-30.2c5.7 8.7 4.5 24.1-7.4 18.5 5.7-.8 9.3-10.6 7.4-18.5m-95.8 80.8c-7.1 11.1-16.3-1.3-16.1-11.7 2.6 7.6 10.8 14 16.1 11.7"/><path fill="#3b2e83" d="m457.7-357.5c-12.8-21.2-8.6-44-2-51.8-8.3 7.4-12.7 13.2-14.5 25.5-7.7-6.7-12.5-8.7-21.7-10.5 14.2 8.8 19.8 19.8 24.2 34.7-4-7.4-10.5-13.1-18.2-16 6.3 6.1 3.9 11.7 7.9 21.7 2.5 6.4 6.6 10.4 10.5 12.3 0 0-5.6 1-10-4.1 7.6 23.6 33.5 14.1 46.2 25.4-10.8-5.2-27.5.2-27.5 15.6 0 9.6 8.2 17 16.8 17 8.5 0 13.6-5.8 13.6-11.3 0-4.9-2.5-7.4-5.1-8.3 2.6 3.6.4 8.5-4.1 8.5-3.1 0-6.3-2.5-6.3-6.5 0-6.3 5.8-8.8 10.8-8.8 6.7 0 13.1 2.9 15.1 8.5 2.6-23.7-23.1-31.1-35.7-51.9m114.2-42.9c-16.1 5.9-34.7-1.7-51.4 7.7 17.9-6.2 38.6-3.2 50.1 15.8-4.6-4.6-13.3-6.2-20-6.2 15.6 8.7 13.8 31.7-.5 36.2 0 0 4.6-3.2 4.6-11.5 0-11.1-9.8-20.3-28-20.3-12.4 0-22.9 5.2-27.5 13.9 4.9-5.8 13.3-9.9 22.6-9.9 13.3 0 18.6 9.8 18.7 17.5.1 8.1-5.1 13.6-9.4 15.9 5.7-6.3 1.2-14.9-6.8-14.9-11.7 0-16.5 14.1-14.3 25.7 2.7-9.8 7.9-15 17.6-16.7-7 5.6-9.7 11.4-8.6 20.9 6.2-13.6 18.5-6.8 24.2-20.4 1.4 7.6.1 19-10.8 24.3-12.2 5.9-22.4 3.2-32 14.4-2.7-22.6-17.3-27.7-31.2-42.6-18-19.3-17-46.1-8.3-60.4-2.1 14.3.5 27.4 9.2 38.7-5.1-17.1-4.2-35.1 4.2-49-1.2 9.3-1 14.3 2 22.6.9-18 8.5-30.7 22.8-41.5-5.7 9.6-8.6 22-7 31.9 6.3-25.9 24.1-37 36.7-40.6-4.3 5.4-7 11.5-8.2 18.2 9.4-19.6 27.8-22.3 37.8-28.3 7.2-4.3 4.2-12.3-.2-12.3-2.4 0-3.8 1.4-5.1 4 1-5.2 4.4-7.9 8-7.9 5.3 0 9.3 5.2 9.3 11.7 0 17.3-22.9 29.5-49 44.3-22.4 12.7-32.5 22.3-35.8 40-3.4 18 5.9 35.2 5.9 35.2s-8.6-29.6 4.6-47.9c12-16.6 30.3-23.9 47.3-33.9 18.7-11 35.9-22.6 30.7-41.5 9.5 9.5 12.7 24.3 5.3 33.4-9.6 11.7-28.5 14.2-36 21.7 13.2-6.6 25.2-4.1 34.7-7.9 9.3-3.7 9.2-14.3 9.2-14.3 3.8 13.1 0 28.4-15.4 34m-108.4 77.3c-7.4-.2-15.5 4.8-15.2 10.1-7.3-9.7 6.3-13.6 15.2-10.1m82.6-8.4c9.4 9.2-4.7 15.6-14.8 13.3 8-.9 16-7.6 14.8-13.3m18.7-30.2c5.7 8.7 4.5 24.1-7.4 18.5 5.7-.8 9.3-10.6 7.4-18.5m-95.8 80.8c-7.1 11.1-16.3-1.3-16.1-11.7 2.5 7.6 10.8 14 16.1 11.7"/><path fill="#3b2e83" d="m317.8-357.5c-12.8-21.2-8.6-44-2-51.8-8.3 7.4-12.7 13.2-14.5 25.5-7.7-6.7-12.5-8.7-21.7-10.5 14.2 8.8 19.8 19.8 24.2 34.7-4-7.4-10.5-13.1-18.2-16 6.3 6.1 3.9 11.7 7.9 21.7 2.5 6.4 6.6 10.4 10.5 12.3 0 0-5.6 1-10-4.1 7.6 23.6 33.5 14.1 46.2 25.4-10.8-5.2-27.5.2-27.5 15.6 0 9.6 8.2 17 16.8 17 8.5 0 13.6-5.8 13.6-11.3 0-4.9-2.5-7.4-5.1-8.3 2.6 3.6.4 8.5-4.1 8.5-3.1 0-6.3-2.5-6.3-6.5 0-6.3 5.8-8.8 10.8-8.8 6.7 0 13.1 2.9 15.1 8.5 2.7-23.7-23-31.1-35.7-51.9m114.3-42.9c-16.1 5.9-34.7-1.7-51.4 7.7 17.9-6.2 38.6-3.2 50.1 15.8-4.6-4.6-13.3-6.2-20-6.2 15.6 8.7 13.8 31.7-.5 36.2 0 0 4.6-3.2 4.6-11.5 0-11.1-9.8-20.3-28-20.3-12.4 0-22.9 5.2-27.5 13.9 4.9-5.8 13.3-9.9 22.6-9.9 13.3 0 18.6 9.8 18.7 17.5.1 8.1-5.1 13.6-9.4 15.9 5.7-6.3 1.2-14.9-6.8-14.9-11.7 0-16.5 14.1-14.3 25.7 2.7-9.8 7.9-15 17.6-16.7-7 5.6-9.7 11.4-8.6 20.9 6.2-13.6 18.5-6.8 24.2-20.4 1.4 7.6.1 19-10.8 24.3-12.2 5.9-22.4 3.2-32 14.4-2.7-22.6-17.3-27.7-31.2-42.6-18-19.3-17-46.1-8.3-60.4-2.1 14.3.5 27.4 9.2 38.7-5.1-17.1-4.2-35.1 4.2-49-1.2 9.3-1 14.3 2 22.6.9-18 8.5-30.7 22.8-41.5-5.7 9.6-8.6 22-7 31.9 6.3-25.9 24.1-37 36.7-40.6-4.3 5.4-7 11.5-8.2 18.2 9.4-19.6 27.8-22.3 37.8-28.3 7.2-4.3 4.2-12.3-.2-12.3-2.4 0-3.8 1.4-5.1 4 1-5.2 4.4-7.9 8-7.9 5.3 0 9.3 5.2 9.3 11.7 0 17.3-22.9 29.5-49 44.3-22.4 12.7-32.5 22.3-35.8 40-3.4 18 5.9 35.2 5.9 35.2s-8.6-29.6 4.6-47.9c12-16.6 30.3-23.9 47.2-33.9 18.7-11 35.9-22.6 30.7-41.5 9.5 9.5 12.7 24.3 5.3 33.4-9.6 11.7-28.5 14.2-36 21.7 13.2-6.6 25.2-4.1 34.7-7.9 9.3-3.7 9.2-14.3 9.2-14.3 3.9 13.1.1 28.4-15.3 34m-108.4 77.3c-7.4-.2-15.5 4.8-15.2 10.1-7.3-9.7 6.3-13.6 15.2-10.1m82.6-8.4c9.4 9.2-4.7 15.6-14.8 13.3 8-.9 16-7.6 14.8-13.3m18.7-30.2c5.7 8.7 4.5 24.1-7.4 18.5 5.7-.8 9.3-10.6 7.4-18.5m-95.8 80.8c-7.1 11.1-16.3-1.3-16.1-11.7 2.5 7.6 10.7 14 16.1 11.7"/></pattern><pattern id="2" xlink:href="#0" patternTransform="matrix(0.5214 0 0 0.5214 -3238.1023 -4113.8809)"/><pattern id="1" xlink:href="#0" patternTransform="matrix(0.5214 0 0 0.5214 -3238.1023 -4113.8809)"/></defs><g fill="#f0f0f0"><path d="m1.9 368.1c3.8 2 10.9 10 6.5 15.7-5.4-6.6-6.7-4.9-6.5-15.7"/><path d="m40.3 370.1c.2-4.4 8-.8 10-1.6-1.7 5.3 1 23.6 2.3 29.5.3 1.5 18.9 25.2 19.7 19.4-3.2-6.6-2.5-11.2 1.9-13.7-.3 2 2.5 53.1 3.2 52.9 3.5-.7 4.4-7.4 7-7.6 3.1-.2-23.4 35.1-15 38.6-6.1-2.5 13.4-6.6 13.9-4.9 0 .2-28.6 19.6-31.5 26.5-4.6-9.5 16.2-41.4 18.4-53.4-.3-25.7-3.1-24.6-17.1-40.1-1.8-1.7-16.2-12.8-18.9-6.9-4.2 9.3-17.5 5.5-20.2 15.6-2.2 6.6 4.6 30.9 15.4 21.4 9.8-9.1-4.2-13.4.7-21.1 9.4-.5 13.7 9 14.4 14.1-.9-.8-5.9 19.7-5.9 20.5.4 5.1 5.5 8.9 6.3 13 2.2 7 8.3 1.4 6.4 8.5-3.1 5.1-7.5 13.2-7.8 19.6-.3 1.7 2.6 34.5 8.1 21.3 4.8-6.7 18.4-6.7 22.2-12.4 13.3-6.4 40.6-23.8 17.7-40.4-5.5-4 28.5-60.1-5-49.3 3.9-19.1-1-20.1-9.6-33.9 4.6-7.7 18.8-.1 13.3-17.1 5-2 17.9-1 22.5.1-23.9 19.4 8 33.9 9 13.5.9-7.8 21.1 2.3 22 .7 1.4-2.6 15.6-15.1 3.8-14.2 10.5-1.8 21.1-.4 26.2 10.5-19.1 1.1-23.3 3.2-37.6 14.4-11.9 6.2-9.6 25.3-18.7 34.1 7.1 4.3-18.3 79.1 6.7 94.3 24.9 22.7 52.2 11.9 67.5-13.3 6.1-13.8-7.6-47.7-11.5-23-3.5 11.9-9.9 20.3-23.8 20.3 4.9-8.5 28.5-18.9 17.3-35.4-3.7-5.5-6.6-1.9-9 5.3-1.3 2.5-21.1 18.3-20 8.4 8.5-1.8 23.8-26 13.7-25.6 3.3-.1-37.3 15.9-23.8-1.7 18.8 3.9 18.6-14.2 16.5-13.8-6.4 0-15.9-12.5-5.4-14.7 5 24.9 20.7-5.4 11.1-5.4-7.8-6.1-5.3-15.7.3-21.8 15.2-2.7 56.1-15.9 65.2 8.9-9.5 4.2-23-4.8-18.4 15.9 1.8 5.7 18.8-2.1 25.2-1.5 12.5 2 19.7 18.2 28.8 20 4.5 2.7 4 13.8 8.1 3.7 4.6-11 19.4-20.9 29.2-23.7 7.5-1.1 13-1.6 20.1 1.4 6.9 10.2 8.2-9.8 6.5-9.8-.1 0-12.8-7.2-18.2-6.7 10.4-16.3 46.7-21.2 61.9-12.1 4.3 2.9 5.3 6.6 7.8 10.9.2 7.4-9.1 14.6-8.9 16.1-.8 12.9 17.1 16.6 16.1 3.3 3.6-.9 1.8 13.4-8 14.3 1.9.2-.3 27.4 17.6 13.4 6 .3-16.9 19.9-18.8 4.8-.5-4.9-13.1 4.1-5.1 12.4 4.8 5.1 6.3 7.9 13.7 9 6.9 8.4-35-14.1-23.3-15.8-26-2.5 10.1 38.9 10.4 36.5-7.2 12.5-20.7-16-22.1-19.1-11.5-18-4.6.6-12.8 9.4-10.6 2.9 10.3 34 18 35.5 4.1 1.3 47.7 6.8 47.7-6.7 30-47 17.3-142.9-45.8-142.9 0-9.6 20.2-10.2 24.4-9.7-1.9 1.5-3.2 3.4-4 5.7 1.8 6.9 14.1 6.3 18.3 5 13.2-.4 16 3.1 21.9 13.6 6.3 4.9 6.5-18.8.4-24 15-1.7 17.7-3.1 20.4 10.4-.5 4.7 13 4.6 14.6 5.4-1.8 1.9-9.7 7.2-10.6 10.3-.9 3.5-.2 23.2-.7 23.7-.9.8-24.2-4.4-12.6 11.2 5.1 9.7 4 25.2 8.6 36.5-28.8 10 9.7 38.9 22.1 41.9 3.6 1 23.7 16.9 22.4 9 7.5-11.8-1.3-31.7-8.9-40.3 4.3-2.3 12-7.8 12.9-13.5 1.8-6.8-6.5-28.4-2.3-31.3 7.8-3.3 21.2-17.6 9.8 2.5 1.7.6 2 10.1 10.3 9.5 7.5-.3 3.7 25.8 3.8 32.4.1.7-11.2 35.1-2.3 32.4-9.8 5.4-6.7 17.5-2.6 24.7 0 3.5 5.8 3.7 4.4 11.9-2.2 13 3.1 27.4-.3 40.1-7.2 22.6-26.1 6.9-37.4 14.3.2 0 22.7 49.8 36.6 13.6 3.4 1.6 1.6 28.4 1.5 33.6-5.9-4-4.9-14.1-8.5-16.2 1.3 1.3-31.6 16.9-28.8 25.6 8.9.7 16.8-11.4 22.9.6-2.2 0-20.1 4.1-13 8.2 5.1 2.9 15.4-3.9 15.4 9.3-.9 11.3-26.1 2.2-27.1 4.8-1.7 32.7 21.9 18.1 38.9 14.7 0 26.8-.3 12.5-17.3 20-5.4 2.4-8.6 16.2-7.9 15.8-2.6 1.8 6.6 20.9 10.4 16.4 3.1-3.6-1.9-13.4 7-12-5.3 12.5 6.8 8.8 7.9 13.5 4.2 18-37.7 13.6-43.9 13.8 0-19-8.4-32.9-27.9-35.3-24.9-1.5-31.2 7.5-44.5 24.3-8.9 7 2.3 14.1-14.9 11.2-6.6-1.1-7.1-11.7-14.9-12.9-3.4-1.8-34.9-19.1-36.4-18.6-7.8 2.6-1.7 25.5-.6 30.9-11 1.2-22.1.2-33.2.5 2.2-5.7 4.9-19.9-3.9-21.4 4.9-10.3 24 5.8 19.6-20.3-.3 1.5-6.1-8-5.6-7.3 6.9-4.2 5.1-14.9 3.9-21.4-.8-4.3-8.6-7.8-10.8-11 4.3-7.4-1.2-9.6-2.2-14.5-.6-3.1-14.2-23.2-14.3-22.8-3.7 9.1 3.1 22.3-12 24.1-13.7 0-7.9-16.7-12.8-24.4-.1-.1-24.4 47.6-26.2 48.3-7.5 3.1 4.8 25.9-4.4 33.6-3.1 1.4.8 13.2 4.4 14.9 5.7 2.8 10.5 1 16.4.5-4.4 5.3-9.8 10.1-5.1 20.4-2.4 4.1-31.6 3.8-32-1.4 1.2-8.1 2-14.1.7-22.4-2-6.1-24.9 10.3-32.9 13-13.3 3.9-13.2 12.3-26.8 12.1-11.4-.1-17-30.1-29.4-27.1-18.8-3.1-48.2-5.6-54.1 18.8-6.4 20-38.3 4.5-55.8 3.4 0-10.9 5.9-18.5 5.9-8 0 5.3 3.2 5.8 8.2 5.4 8.6-.7 3-9.9 5.6-14.3 4.8 2.5 4.3 14.4 7.2 14.5 9 2.2 12.4-25 6.1-27.5-4.5-4-26.1-13.6-26.8-3.3-10.5 10.9-7.4-20.8-3.9-23.9.7-8.4 11.7 1.7 16.5 3.7 20.7 15.7 40.8-15.3 34.4-17.8-2.4-.9-29.9 3.1-27.9-3.6-.5.7 17.7-19.9 17.6-11.8-.3-10.5-12-1.9-13.3-8.8 6.8-7.1 21.4 4.2 24.1 1.4 6.9-7.5-22.1-18.3-21.3-17.4-10.1-8.5-8.8-3.2-15.8 7.9-9.4 11-28.1-3.1-9-5.6 16.4-3.8 2.9-22.2 8-31.5 10 7.8 9.3 16.5 24.9 14.2 1.7-1.2 22.2-23.1 15.9-25.1-9.4-2.3-27.1 6.9-31.9-5.6-5.7-9.7-13.9-17.1-24.2-10 .1-6.9-4-20.4 4.2-21.5 2.9-.4 6.5-5.6 6.8-8.4 1.2-7.8.7-14.8-5.5-20 6.9-5.5 21.9 8.3 21.4-12.1-.1-2.3-1.9-9.1-4.6-10.5-7.1-12.6 1.1 0 .5-9.6.5-4.8 2.1-25-6.8-27.3-9.8-4 .6-13.9-6.7-19.6-12.8-15.6-20.4-57.7 2.3-67.9 8.4-4.6 21.3 6.9 25.6 3.7 8.7-5.7 3.9-17.6 1.2-24.8m314 29.6c-19.7 7.7-7.7 28.5-17.8 41.5.9.1-12.7-6.9-10.6-3.5 3.4-7-19.3 6-8.5 15 6.1 5 15.5.9 20-.6.4.6 5.9 24.3 8.2 12.2 7.7-2 7.1-27.2 6.8-32.3-.6-10.8 3.1-11.1 8-16.4 7.7-8.5-6.1-15.5-6.1-15.9m-190.7 3.9c-1-.1 8.3 29.9 8.7 34.6 1.7 12.2-1.5 17.1 3.8 25.5 10.1 16 7-12.1 11.7-11.3-2.3 6.1 16.9 1.9 18.4 1.5 13.8-16.4-15.6-15.2-15.6-15.1-8.8 7.6-7.4-55.1-27-35.5m114.4 40.2c-4.2 8.7-.4 40.9-12.4 39.1 0-4.3 1.7-15.7-3.5-18.3-5.3-2.7-5.5 18.4-5.6 18.8-5.2-.5-9.5-9.5-8.7-15.4 2.9 1.8 2.3-17.2 2.4-14.1-3.3-7.5-10.8-7-10.5-6.5-5.3 3.5-5.3 4.7-7.7 10.8-2.6-1-10.1-.8-12.3.8-4.5 3.3-2.2 14.6-1.6 18.8 1.4 9.7 13.6-16.7 14.8 2.7-12.8 22.3 14 37.9 25.7 17.7.3.1.6.3.8.5-1.6 5.6-9.8 27.6-18.7 22 .4-.3-14.9-23.2-14.3 3.3-6.1-1.6-6.7-14.9-7.3-14.7-10.4 1.9-13.3 25.9-5.5 32.4 10.2 8.4 28.7-.1 38.6-3 8.7-.8 4.1-5.8 12.7-3.8 3.8 2.4 17.3 8.1 21.5 8 35.5 17.6 22.8-37.9 15.7-33.6-4.1 2.5.2 12-6.7 13.9 2.3-10.1-2.5-16.8-11.8-12.9-5.2 1.2 3.1 12.4-9 8.7-1.6-7.1-12.7-11.5-11.8-20.5 2.5 2.6 33.4 13.7 28.8.8 3.5-9.5-3-18.2 0-24.9 2.7-6.1 9.6 4.9 9.6 4.5 23.4-4.9-23.2-36.7-23.3-35.4m143.9 71.7c6.9-.8-3 19.8-4.9 21.7-6.1 6-17.6 1.5-23.8-2.5-9.6-6.1-13.7.2-11.2 8.1 4.3 17.9-.8 12.4-8.6 20.5.4 5.1-25.4-5.3-27.7-10.8-2.5-5.9-1.5-21.4-5-25-10.4-10.9-10.3 23.7-7.3 28.2 4.6 7 12.8 11.7 19 17.5-.6 4.4-7.1 4.6-4.6 12.4-1.5 3.2 16.1 8.4 16.8 5 2.5-12.2-6.8-.5 5.6-15.8 4.2 2 15.6-5.2 18.9-7.3 1.3.5 5.5-8 5.4-9.2-1-11.3 7.5-5.4 14.1-5.9 10.4-.8 16.5-3.3 24.7-8.4 7.2-2.5 19.8-7.2 25.3-1.4 12.9 13.7 4.8 13.8 10.3 30.7-5.4-2.6-17.4 10.6-27.3 2.8-.5.8-3-9.6-3-9.8-.6-6.8 10.6-8.4 10.6-12 0-6.3-14.6.2-14.3.8-5.3 5.5-6.5 11-5.9 19.6-1 2.2 8.4 12.7 9.6 11.9.5 1.6-7 16.8-8.5 19.1-7.2-7.5-9.6-18.2-21.6-20.1-7.6-.2-30 11.9-20.6 22.4-1-5.5-14-17-20.4-10.3-5.5 5.7-3.3 26.6-.5 32.8 3.8 4.5 15.7 13.9 13.6-.6-1.9-2.4 9.6 6.3 9.6 6.3 0 10.4-1.4 12.8-6.9 18.6-18.6 19.7-28.5-21.1-38.6-17.6 1.4-2.4-14.4-11.3-15.6-13.2-1.8 3.8-7.7-19 .1-19.4-6.9-.9-13.1 5.3-21.4 3.8-2.1-.6-.6-3.9-4.2-2.7-.4 4.4 22.3-9.3 13.5-10.6-14.2-2-9.9.7-13.5-11.2 12-9.4 22.7 4 26-8.8 8.2-11-18.7-16.6-21.2-16.9-5.6 2.7-24.1 15.6-28.8 14.6-1.6-.4-3.4-18.5-6.1-21.9-1.8-7.2-13.8-6.3-14.5-7.7-17.6 3.9-10.7 17.4-17.1 29.7-9.3 1.1-54.9-32.9-51.1 5.7.7 6.7 15.5 3.4 21.7 2.6 4-6.7 4.3 21.1.6 14.7-2.7 5-11.6-2.1-11.6 4.3-.6 6 11.8 2.7 13.7 4.4-12.2 10-12.6-.9-23.8.9-1.5.4 1.1 11.5 4.2 10.6-1 1.5-1.9 5.8-5.9 10-1.1-1.1-12.9 11-12.9 10.9-4.6-3.2-24.3 34.6-41.9 22.2 1.7-3.1-9.6-16.7 1-27.8-1.4-.2 17 12.9 13.2 7.9 12.6-.7 3.8-24.8 4-29.3-4 .3 1.8-18-13.6-7.6-1.3-.8-6.4 7.5-7.3 8-2-42.3-45.2-7.7-40.8-.8-2.1 2.5-7.1-19.7-10.9-16.5 2.3 3.3 12-18.2 12-21.4-.1-8-14.5-15.8-14.5-15.9-10.8-.1 4.7 10 2.5 17.9-2.4 8.3-19.3 14.7-23.7 9.2-16.1-20.1 3.5-50.9 26.5-36 12.6 8.2 27.2 9.9 42.8 7.5 3.4 12 4 20.3 19.1 22 6 2.1 9.4 3.3 14.6 6.5 5.8 6.7-6.9 7.9-2.5 12.2 10.7 10.5 23.8-22.9 9-17.3-.3-1.3 15.1-10.2 16.3-13.6 2.3 1.4 14.7-35.1 3.3-37.4-5.6-1.1-9.5 22.9-10.6 27.1-3.4 13-22 10.7-29.6 11.4-19.1 1.8 6.2-28.7-10.6-30-12-.9-17.4 14.5-32.4 4-2.9-2-8.8-32.8-13.2-16.7-3.2.5-1.8 10.3-2.9 12.5-.4-1.4-15.8-4.2-17.6-4.2-3.7-.1-26.5 10.3-24.1 13.1-6.7 8.8-8.2 20-4.6 31.2-2.2 9.3 22.1 21.7 22 22-2.7-.2-3.2 6.4-3.1 6.4 8.5 4.9 16.2-12.3 16.8 4.6-2.7 1.3-7.4 12.6-4.7 15.2.5 6.2-4 28.5 3.7 31.6 4.9 2 10.4-19.3 19.7-1.8 6.9 12.9 18.7 25.5 33.8 25.6 6 0 53.5-21.7 48.6-28.7-3.3-1.6 55.9-41.1 56-40.7-1.3-1.4 31.6-7 32.7-7 0-3 29.6 12.9 31.4 12.1 0-.2 47.4 37.6 47.3 37.6 9.9 9.1 39.3 33.9 54.2 20.2 4.7 2 19.1-15.2 19.1-19.4 3.6-1 7-8.4 11-10.4 5.6-2.8 11.6 7.2 13.1 5.6 14.8 0-7.3-61 8.5-51 2.4 2.7 5.3 3.5 8.5 2.5 2.6-.9-2.8-7.2-2.1-7.7 5.6-4.1 39.5-27 21.7-41-3.5-8-7.9-10.3-13.3-17.8.5-.6-31-8.4-32.3-1 .7 4.2-9.8-28-12.3-16m-167.1 90.5c-11 0-77.4 44.2-73.2 59-.3-1.1 38.9-26 38.4-27.7.9.2 29-12 28.8-11.5 8.3 1.2 6.3 8.8 4.1 16.4-1.9 2.2 6.8 11.7 8.9 6.7 4.4 1.4 3.7-15.3 2.6-17.1 5.2-7.5.3.4 11.7-5.6.2.2 27.3 11.6 26.8 12.2 2.8 8.2 30.2 18.8 33.1 24.9 0-18.2-65.7-66.2-81.1-56.8m83.6 63.2c-4 .4-22.9 6.8-20.4 10.6-.2 1.2-8.5 25.3-5.1 24.4 7.5 31.4 27 16.5 46.4 22.6.6 5.3 12.9 21.7 12.5 13.5-.8-19.6.1-10.4 11.6-22.5 1.9 1.6 27.5 8.5 27 6.1 2.1-.5-4.7-16.9-3-21.6 7.1-15 35.7-4.7 39.8 9.2 1 3.5-.5 24.6 8.5 21.6 16.9-5.7-6.1-37.8-10.3-42.2-4.2 9.2-5.3-15.2-2-11 4.2-14-14.9-9-15.3-9.6 10.7 14.9-29.1 22.7-27.9 24.1-1.4 1.5-3 4.5-3.1 6.4-.7 10.1-1.3 3.9-8 7.9 1.5-8-28.4 5.5-30.7 6.1-15.1 9.5-38.4 1.1-35.9-18.4 4-20.6 15.3-10.7 29.1-10.7-.5.7 2.6 10.2 1.5 12.5-1.1 2.2-10.1 4.3-8.9 7.8 2.3 6.5 27.4-5.9 17.6-23.4-2.8-4.9-15.6-19.3-23.4-13.1m-167.4 4c-32.5 0-10.7 50.1 1.5 35.4 2.2-2.6-13.2-5.2-8.6-16.3.8-1.9 3.7-4.6 4.6-6.7 6.7 4.3 19.3-6.8 24.6 8 6.3 32.7-21 20.4-37.8 23.7-10.1-2.3-16.9-6.2-29.7-5.6-8.8-3.1-6.1-14.9-14.8-16.5-5.3-4.8-34.8-4.7-22-18.3-.3-1.4-.6-2.7-1-4-18.4-3.8-14.4 21.1-10.5 19.2-.2 1.5-15.6 12.2-17.6 16.4-10.8 11.3 3.7 42.3 6.3 21.7 8.2-20 4-28.1 30.9-28.5 23.2 8.1-5.7 28.1 17.3 28.1 9.2-2.6 11.7-8 23-6.9 3.7.8 7.7 11.1 9.1 11.3-1.5-4.7-.1 25.7 5.8 10.3 8.1-2.5.4-12 9.2-13.9 2.8 1.4 9.2 3.3 11.7 1.7 4.6 0 25.9-4.1 25.3-12.9 4.7 1.6 8.1-33.2 2.7-32.6-2-12.5-30.6-16.1-30.1-13.6"/><path d="m189.4 368.8c5.6-1.6 15.4 2 13.4 10.5-5.4 1.9-10.9-7-13.4-10.5"/><path d="m205 368.1c9.3 2.3 14 7.9 23.6 4.9 14.7-1.9 12.7-9.9 20.1 6.7 3.1 6.4 4.8 34.3 12.8 37.4 8.4 2.4 11.4-30.1 11.9-31.5 7.9-12.4-1.4-18.5 17.1-17.3 9.9 14.2 19.8-.1 29-.1-6.6 13.9-20.4 15.5-30.4 23.9-3.8 3.2-23.3 37.7-26.9 38.4-1.6-6.4-19.4-38.4-25.8-37.2-7.8-1.6-31.2-16.5-31.2-25.1"/><path d="m327.4 368.8c4-2.6 7-2.6 8.9-.1-.3 2.2-9.1 10.3-12.1 10.3-3.4-1.5 2.7-9.3 3.2-10.2"/><path d="m472.6 372.2c-2-4.8 8.6-7.5 9.1-.1.2 3.2-3.8 6.2-3.8 10.3 0 19.1 14.6 6.1 24.2 6.1-.1 8.6 0 17.2.1 25.8-.4 4-7.2-1.4-6.9 2.6-1.2-1.2-4.4-9.8-7.4-9.6-9.5-1.2-33.2 9.8-33.1 22.6.2 13.3-5.4 31.5 3.1 44.9 3.5 5.5 17.5 24 12.6 30.8-2.9-1.3-8.1-15.4-11.5-14.1-5.5-.9-16.8-6-20.3-10.7 1.9-3.4 15.7 5.1 14.6-2.8-.2-1.4-2.2-11.1-4.5-11.8-2-.6-14-11.9-10.8-19.3-.4 0 8 9.2 8.5 7.1 2.1-3.5 3.1-52.1 4.4-49.8 1.8 3.3.8 22.2 10.7 5 8.2-1.4 13.3-32 11.2-36.8"/><path d="m406.8 608c16.2-4.7 14.6 18 18.2 26.3-10.7 0-7.8 1.3-15.4-4.2-4.3-5.3-7.3-1.9-12.7-1 6.3-7.9-7.8-14.1 9.9-21.1"/><path d="m108.7 612.1c18.5-3.9 15.1 10 14.2 20.9-7.7 0-10.9-5.9-12.7 5.6-1.3.4-11.7 6.8-12.6 1.3-2.1-6.5 2.2-26.8 10.9-27.9"/><path d="m257.8 698.4c9.7-1.9 19.8 25 18.5 32.4-5.5 8.2-9.4 2.3-9.1 14.3 0 10-13.1 13.8-12.4 10.5-2-1.7-1.6-6.2-3.1-8 1.3-12.3-8.2-10.4-9.1-21.7 2.8-5.9 9.6-26.9 15.6-27.3"/><path d="m324.2 745.3c5.2 4.8 8.7 10.2 14.4 14.6-10.3 9.1-15.5-8.1-14.4-14.7"/><path d="m424.4 752.1c5.2-4 15.3 4.4 17.2 8.6-3.4.1-18.2-3-17.2-8.6"/><path d="m84.6 758.9c2.7-.2 5.3-.3 8-.5-2.8 4.9-16.3 2.9-8 .5"/></g><g fill="#9a0101"><path d="m335.9 415.4c-.4-2-.2-3.8-.3-5.7-.2-3.6-.2-7.2-.3-10.8-.2-6.8-.4-13.5-.6-20.3-.2-7.3-.3-14.7-.5-22-.2-6.6-.4-13.2-.6-19.7-.1-3.8-.2-7.6-.2-11.4-.2-9.1-.5-18.2-.7-27.3-.1-5.2-.2-10.4-.4-15.5-.2-8.8-.5-17.6-.7-26.4-.1-5.1-.2-10.1-.4-15.2-.3-10-.6-19.9-.8-29.9-.2-7.2-.3-14.4-.5-21.7-.2-6.7-.4-13.4-.6-20.1-.1-3.7-.2-7.3-.2-11-.2-7.7-.3-15.4-.5-23.1 0-1.5.2-1.5 1.4-1.5 7.9.1 15.7-.4 23.6.3 2.5.2 5 .7 7.3 1.5 3.8 1.2 6.5 3.7 8.6 7 2.5 4 4 8.4 5.3 12.9 1.8 6.5 2.8 13.1 3.5 19.7 1.1 9.8 1.6 19.6 1.9 29.5.3 9.5.6 19.1.9 28.6.3 9.6.7 19.2 1 28.8.3 9.5.7 19 1.1 28.5.4 10.8.9 21.6 1.3 32.5.3 7.6.5 15.3.8 22.9.4 7.9.5 15.8.2 23.8-.3 7.9-.8 15.8-3 23.5-.9 3.2-2.2 6.3-4.1 9-1.6 2.3-3.6 4-6.2 5.2-3.7 1.7-7.7 2.5-11.7 3.3-7.4 1.5-14.9 2.8-22.3 4-.7.4-1.5.5-2.3.6m13.2-37.9c2.9-.5 5.6-.9 8.3-1.3 6.7-1.1 12.1-5.8 13.3-13.8.7-4.6.9-9.2 1-13.8.1-3.6-.1-7.1-.2-10.7-.2-4.9-.3-9.8-.5-14.7-.3-8.7-.6-17.5-.9-26.2-.2-6.5-.4-13-.6-19.6-.3-7.9-.6-15.8-.8-23.7-.2-5.6-.3-11.3-.5-16.9-.3-8.7-.7-17.3-.9-26-.2-8-.4-16-1.2-23.9-.3-3-.8-6-2-8.8-1.7-4.3-4.6-7.2-9.2-8.3-1.6-.4-3.2-.6-4.8-.5-2 .1-4 .2-5.9.3-1.5.1-1.6 0-1.5 1.5.1 3.6.2 7.1.3 10.7.2 6.9.4 13.7.6 20.6.3 8.2.6 16.4.8 24.6.2 6 .3 12 .5 18 .3 9.1.6 18.2.9 27.2.3 9.1.5 18.3.8 27.4.3 8.9.6 17.8.8 26.7.2 6.3.4 12.6.6 18.9.2 7.3.4 14.7.7 22 .1 3.3.2 6.7.4 10.3"/><path d="m257.8 284.3c0-60.4 0-114.6 0-168.8 0-2.9-.5-2.5 2.5-2.5 2.2 0 4.4 0 6.6 0 .9 0 1.4.2 1.5 1.3.9 8.1 1.9 16.2 2.9 24.3 1 8.2 2 16.4 3 24.6 1 8.1 1.9 16.2 2.9 24.3 1 8 2 16 3 24.1.8 6.8 1.7 13.5 2.5 20.3 1 8.1 2 16.2 3.1 24.2.2 1.2.3 2.5.5 3.7.2 1.4.2 1.4 1.5 1.3 3.4-.2 6.9-.4 10.3-.7 1.3-.1 2.5-.2 3.8-.2.9 0 1.1-.4 1.1-1.2-.1-6-.1-11.9-.2-17.9 0-3.8-.1-7.5-.2-11.3 0-5.4 0-10.7-.1-16.1-.3-13-.2-26-.4-39-.2-12.7-.3-25.3-.4-38-.1-7.2-.2-14.3-.3-21.5 0-.4 0-.8 0-1.2-.1-.9.3-1.1 1.2-1.1 2.4 0 4.8 0 7.2 0 .9 0 1.3.2 1.3 1.2 0 2.8.1 5.7.2 8.5.1 6.2.2 12.3.3 18.5.1 9.5.2 18.9.4 28.4.2 8.1.2 16.2.4 24.2.2 8.3.2 16.6.4 24.8.2 8.1.2 16.2.4 24.2.2 8.3.2 16.6.4 24.8.2 8.1.2 16.3.4 24.4.2 8.2.2 16.4.4 24.6.2 8.1.2 16.3.4 24.4.2 8.2.2 16.4.4 24.6.2 8.2.2 16.4.4 24.6.2 8.1.2 16.3.4 24.4.2 7.7.3 15.4.4 23 0 .5 0 .9 0 1.4 0 .6-.2.8-.8.9-4 .3-7.9.5-11.9.9-.8.1-1-.4-1.1-1.1-.3-2.8-.7-5.5-1-8.3-.9-7.2-1.8-14.5-2.6-21.7-.9-7.2-1.7-14.3-2.6-21.5-.9-7.3-1.7-14.6-2.6-21.9-.9-7.2-1.7-14.5-2.6-21.7-.9-7.5-1.8-15-2.6-22.5-.7-6.2-1.4-12.4-2.1-18.6-.4-3.5-.8-7-1.2-10.5-.1-.9-.4-1.1-1.2-1.1-4.8.3-9.5.6-14.3.8-.9 0-1.3.4-1.2 1.3.3 5.8-.1 11.7.2 17.5 0 .3 0 .5 0 .8 0 7.7.1 15.4.1 23.1.1 12.3 0 24.5.2 36.8.2 15.9.3 31.8.3 47.7 0 4.6 0 9.3.1 13.9 0 2.3.1 4.6.1 7 0 1-.3 1.4-1.4 1.4-3 0-6 0-8.9.1-.9 0-1.4-.2-1.3-1.2.1-.5 0-.9 0-1.4 0-21.6.1-43.2 0-64.8-.3-31.8-.1-64.3-.2-90.5"/><path d="m238.9 244.3c.3.9.2 1.7.2 2.5-.1 12-.2 24-.3 36.1-.1 4.9-.2 9.8-.3 14.7 0 1.1-.2 1.5-1.5 1.5-6.3-.4-12.6-.6-18.9-.9-.2 0-.4 0-.7 0-1.9 0-1.7.2-1.7 1.7 0 3-.1 6.1-.1 9.1-.2 12.3-.2 24.6-.5 37-.2 10.5-.3 21.1-.4 31.6-.1 7.3-.2 14.5-.4 21.8 0 2.2.1 1.9 1.9 2 7.2.4 14.4.9 21.5 1.3.5 0 1 .1 1.6.1 2.3.2 2.2.2 2.2 2.3-.1 4.6-.1 9.2-.1 13.8-.1 7.1-.1 14.3-.1 21.4-.1 6.7-.1 13.4-.2 20 0 .4 0 .7-.3 1.2-4.3-.3-8.8-.6-13.2-.9-7.8-.6-15.7-1.3-23.5-2.1-2.7-.2-5.5-.6-8.2-.8-.9-.1-1.3-.4-1.2-1.3.1-3.6.1-7.3.2-10.9.1-6.2.3-12.3.4-18.5.2-10.4.5-20.8.7-31.1.1-4.1.1-8.2.2-12.2.2-10.1.5-20.2.7-30.3.1-3.9.1-7.7.2-11.6.3-12 .5-24 .8-36 .2-9.4.3-18.8.6-28.3.2-10.4.5-20.8.7-31.1.1-5.9.2-11.7.3-17.6.2-11.6.5-23.3.7-34.9.2-7.8.3-15.6.5-23.4.2-10.3.5-20.6.7-30.9.1-3.9.1-7.9.2-11.8.2-11 .5-22 .7-32.9 0-1 .3-1.4 1.4-1.4 6.1.1 12.2 0 18.3.1 5.8.2 11.6 0 17.4 0 .4 0 .9 0 1.3 0 1.2-.2 1.5.3 1.4 1.5-.1 11.1-.1 22.3-.3 33.4-.1 7.3-.2 14.5-.2 21.8 0 2 0 2-1.9 2-6.5-.1-12.9-.2-19.4-.3-2.7 0-2.4-.4-2.4 2.3-.2 11.4-.2 22.7-.5 34.1-.2 10.4-.3 20.8-.4 31.2-.1 7.3-.2 14.7-.4 22 0 1.8-.3 1.9 1.9 1.9 6.5.2 13 .5 19.6.7.3 0 .6.1.8.1"/><path d="m11.8 242c0-12.9-.1-25.9 0-38.8.1-14.6.3-29.1.3-43.7 0-7.2.1-14.3.2-21.5 0-.2 0-.5 0-.7-.1-.9.5-1 1.1-.9 2.2 0 4.5 0 6.7.1 4.3.1 8.6.2 12.9.4 3.9.2 7.7.5 11.5 1.3 5.4 1.2 9.1 4.4 11.2 9.4 2 4.6 3.2 9.5 3.9 14.5.9 5.5.9 11 1 16.5.2 8.4-.1 16.9-.4 25.3-.3 10.7-.7 21.3-1.1 32-.4 10.7-.7 21.3-1.1 32-.4 10.7-.7 21.3-1.1 32-.4 10.1-.6 20.1-1.1 30.2-.4 8.5-1 16.9-2.4 25.3-.5 3.1-1.2 6.1-2.7 8.8-2.2 4.1-2.9 3.5-6 2.5-2.7-.9-5.1-2.2-7.6-3.5-8.5-4.7-16.9-9.6-25.1-14.7-1-.6-1.3-1.3-1.3-2.4.1-8.7 0-17.5.1-26.2.2-14.7.3-29.5.3-44.2 0-3.6 0-7.3.1-10.9 0-5.9.1-11.9.1-17.8 0-1.6 0-3.2 0-4.7.3-.3.4-.3.5-.3m13.3-80.6c-.4.5-.3 1-.3 1.5-.2 7.6-.4 15.2-.5 22.7-.1 4.7-.1 9.3-.2 14-.2 7.8-.4 15.6-.6 23.5-.2 7.7-.3 15.4-.5 23.1-.2 9.3-.4 18.5-.6 27.8-.1 3-.1 6.1-.1 9.1-.2 7.8-.4 15.6-.6 23.5-.1 3.7-.2 7.4-.2 11.1-.1 4-.2 8-.2 12 0 .6 0 1 .7 1.3 2.2.9 4.2 2.1 6.5 2.8 7.1 2 13.2-1.5 14.9-8.6.8-3.4 1.3-6.8 1.6-10.2.6-6.9.4-13.8.7-20.7.3-8 .4-16 .6-24 .3-10.8.6-21.7.8-32.5.2-8.2.4-16.4.6-24.5.2-9.6.6-19.3.6-28.9 0-3.2-.1-6.3-.7-9.4-1.1-5.5-3.9-9.8-9.5-11.7-1.7-.6-3.5-.9-5.3-1.1-2.7-.3-5.2-.7-7.7-.8"/></g><path fill="#010101" d="m251.9 159c82.6 0 165.2 0 247.7 0 1.7 0 1.7 0 1.7 5.8 0 3.7 0 7.4 0 11.1 0 1.7-.2 2.3-.6 2.2-.3-.1-.6 0-.9 0-165.3 0-330.6 0-496 0-1.5 0-1.5 0-1.5-5.2 0-3.7 0-7.4 0-11.1 0-2.4.2-3 .9-2.8.3.1.7 0 1 0 82.5 0 165.1 0 247.7 0"/><g fill="#9a0101"><path d="m410.4 387.9c-.2-4.7-.4-9.5-.5-14.2-.3-7.7-.7-15.4-1-23.2-.4-9.4-.7-18.9-1.1-28.3-.4-9.9-.9-19.9-1.3-29.8-.4-9.4-.7-18.9-1.1-28.3-.3-8.3-.7-16.7-1-25-.4-11.1-.9-22.1-1.3-33.2-.4-11.1-.9-22.2-1.3-33.3-.3-8.3-.7-16.6-1-24.8 0-1.1-.2-2.2-.2-3.3-.1-1.5-.1-1.5 1.4-1.5 6.3 0 12.7-.1 19-.1 2.7 0 5.3-.1 8-.1 1.2 0 1.2 0 1.2 1.2.4 9.3.7 18.6 1.1 27.8.1 1.8.2 3.7.3 5.5 0 1.3 0 1.4-1.3 1.5-3.5.3-7 .6-10.5.9-1.4.1-2.9.2-4.3.3-1.3.1-1.3.1-1.2 1.4.1 3.3.3 6.6.4 9.8.2 4.4.4 8.8.5 13.2.3 7.5.6 15 .9 22.5.2 4.6.4 9.1.5 13.7 0 .6.1 1.2.2 2 5.3-.8 10.6-1.6 16-2.4.1 1.7.2 3.4.3 5 .4 8.9.7 17.9 1 26.8 0 .2 0 .3 0 .5.2 1-.5 1.2-1.2 1.4-3.1.7-6.2 1.3-9.3 2-1.5.3-2.9.7-4.4.9-.9.1-1.2.6-1.1 1.4.2 4.8.4 9.7.6 14.5.4 9.4.7 18.8 1.1 28.2.3 8.2.7 16.4 1 24.7 0 .6.1 1.1.2 1.6.4.3.8.1 1.1 0 5.4-1.6 10.8-3.2 16.1-4.8 1.5-.4 1.5-.4 1.5 1 .3 8.8.7 17.7 1 26.5.1 2 .1 4 .2 6 .1.9-.1 1.3-1 1.6-3 1.1-6 2.3-9 3.4-6.5 2.4-12.9 4.7-19.5 6.9-.1 0-.4.3-1 .1"/><path d="m112.9 281.3c-6-1.2-12.1-2.4-18.3-3.7-.1 2.9-.3 5.6-.4 8.4-.4 9.4-.8 18.9-1.2 28.3-.4 10.6-.8 21.3-1.2 31.9-.1 3.4-.2 6.7-.5 10.1-.1 1.1.2 1.4 1.2 1.7 6.2 1.6 12.4 3.3 18.5 5 2.1.6 2.1.6 2 2.6-.3 6-.5 11.9-.7 17.9-.3 7.5-.6 15-.9 22.4 0 .1-.1.2-.1.4-.4.4-.8.1-1.2-.1-10.9-3.6-21.7-7.4-32.4-11.5-1.6-.6-1.5-.4-1.5-2.3.5-12.7 1-25.3 1.5-38 .4-11 .8-21.9 1.2-32.9.4-10.3.8-20.5 1.3-30.8.4-9.5.8-19 1.1-28.5.5-12.1.9-24.2 1.4-36.3.4-10.3.9-20.5 1.3-30.8.5-12 .9-23.9 1.4-35.9.4-10.9.9-21.8 1.4-32.7.1-1.5.1-1.5 1.6-1.5 6.3.1 12.6.1 18.8.2 4 0 8 0 12 .1 1.3 0 1.3.1 1.3 1.3-.2 6.5-.5 13.1-.8 19.6-.2 5.2-.4 10.4-.6 15.6-.1 2-.2 3.9-.2 5.9 0 1-.4 1.2-1.4 1.1-5-.4-10-.8-15-1.1-1.1-.1-2.5-.6-3.3 0-.7.6-.4 2-.4 3.1-.3 8.5-.7 17-1 25.5-.4 10.6-.9 21.2-1.4 31.7-.1 3.1-.1 6.2-.4 9.3-.1.8.2 1.1 1 1.2 2.3.3 4.6.7 7 1 3.1.4 6.2.8 9.2 1.2 1.4.2 1.4.2 1.4 1.7-.3 8.2-.7 16.3-1 24.5-.2 4.4-.3 8.9-.5 13.3.1.4.1.7-.2 1.1"/><path d="m151.2 434.2c-3.1-.4-5.8-1.2-8.7-1.8-2.2-.5-4.4-1.1-6.6-1.5-1-.2-1.2-.6-1.2-1.5.3-4 .3-8 .4-11.9.2-7.1.5-14.1.8-21.2.4-9.3.7-18.6 1.1-28 .2-5.9.4-11.8.6-17.7.3-9.2.7-18.4 1.1-27.6.2-5.9.4-11.8.6-17.7.3-9.3.7-18.5 1.1-27.8.2-5.8.4-11.7.6-17.5.3-9.3.7-18.6 1.1-28 .2-5.9.3-11.8.6-17.7.3-9.2.7-18.4 1.1-27.6.2-6 .4-11.9.6-17.9.3-9.2.7-18.4 1.1-27.6.2-5.9.4-11.8.6-17.7.1-4 .3-8.1.4-12.1 0-1 .4-1.3 1.3-1.3 4.5.1 8.9-.1 13.4.1 3.6.1 7.1 0 10.7 0 3.6 0 7.1 0 10.7.1 1.5 0 1.5 0 1.5 1.4-.1 4-.2 8.1-.3 12.1-.1 4.3-.3 8.6-.4 13-.2 8-.5 15.9-.7 23.9-.1 1.5-.1 1.6-1.7 1.5-6.2-.3-12.5-.6-18.7-.9-2.8-.1-2.2-.1-2.3 2.3-.2 7.8-.5 15.6-.8 23.5-.3 10.6-.6 21.1-1 31.7-.2 7.6-.5 15.2-.7 22.8 0 1.6 0 1.6 1.5 1.7 5.5.5 11.1.9 16.6 1.3 2.2.2 2.1.1 2.1 2.4-.2 7.9-.4 15.8-.6 23.7-.2 7.1-.4 14.1-.6 21.2 0 1.4 0 1.4-1.6 1.3-6.1-.7-12.1-1.5-18.2-2.2-.2 0-.4 0-.8 0-1.6 47.8-3.2 95.4-4.7 143.2"/><path d="m494.2 336.5c0-1.9 0-3.8 0-5.7-.1-5.6-.2-11.2-.3-16.8-.1-6.1-.3-12.2-.4-18.2-.2-8.2-.3-16.4-.5-24.6-.1-3.6-.6-7.1-1.4-10.6-1.1-5.1-5.5-8.6-11.8-7.8-2.2.3-4.3 1.1-6.4 1.7-.6.2-.7.5-.7 1 0 1.4.1 2.9.1 4.3.1 6 .3 12.1.4 18.1.2 8.5.4 17 .6 25.5.2 8.3.4 16.6.6 24.9.2 5.9.4 11.7.5 17.6 0 2.4.4 1.7-1.7 2.9-2.4 1.3-4.9 2.6-7.5 3.9-.1-2.7-.2-5.1-.3-7.6-.3-8.3-.6-16.6-.9-24.9-.2-4.7-.3-9.4-.4-14.1-.3-7.6-.6-15.1-.8-22.7-.2-4.8-.3-9.6-.4-14.4-.3-7.5-.6-14.9-.8-22.4-.2-4.7-.3-9.5-.4-14.2-.3-7.6-.6-15.1-.8-22.7-.2-4.7-.3-9.5-.4-14.2-.3-7.5-.6-15-.8-22.5-.2-4.8-.3-9.7-.4-14.5 0-1.2-.1-2.5-.2-3.7-.1-.8.2-1 .9-1 3.2 0 6.4-.2 9.6-.1 3.5.1 7-.1 10.5.1 2.9.2 5.7.5 8.5 1.3 1.8.5 3.2 1.5 4.3 3.1 1.7 2.4 2.9 5.1 3.8 7.9 1.5 4.6 2.3 9.3 2.7 14.1.9 11.1.8 22.1.6 33.2-.1 4.2-.7 8.4-1.7 12.5-.4 1.4-1 2.7-1.9 3.8-2.1 2.7-4.6 5-7.4 7-1.1.8-1.6 1.7-1.2 3 .1.2.1.5.1.8 0 3.1 1.6 5.2 4.3 6.6 1.4.7 2.8 1.6 4.1 2.5.9.7 1.5 1.5 1.9 2.5 1.6 3.9 2 8 2.2 12.1.3 6.3.3 12.7.3 19 0 8.1 0 16.2.1 24.3 0 7.9.1 15.8.2 23.7 0 1-.2 1.7-1.2 2.2-1.5.8-3 1.8-4.5 2.7-.2.3-.4.6-1.1.4m-21.9-100.9c3.1-.6 6.1-1.1 9-1.9 5.3-1.6 8.6-5 9.6-10.6.7-4.1.7-8.3.7-12.5 0-2.2-.1-4.4-.2-6.6-.1-3.2-.1-6.4-.2-9.6-.1-3.4-.4-6.8-1.4-10.1-1.8-6.2-6.9-9-12.8-8.6-1.7.1-3.5.3-5.2.5-1.1.1-1.1.1-1.1 1.2 0 1.9.2 3.8.2 5.7.1 6.6.3 13.3.4 19.9.2 8.1.4 16.3.6 24.4.2 2.7.3 5.3.4 8.2"/></g><g fill="#010101"><path d="m138.3 76.3c-.6-8.6-1.2-17.1-1.1-25.7 0-6.5.4-13 2.3-19.3 2.1-6.9 6-12.5 12.3-16.2 5.1-2.9 10.6-3.9 16.4-3.4 5.5.5 10.3 2.6 14.2 6.5 3.7 3.7 6.3 8.2 7.9 13.1 1.9 6 2.9 12.2 3.5 18.4.9 8.9 1.2 17.9 1.4 26.9 0 1.3 0 1.3-1.1 1.3-11.7.5-23.4 1-35.1 1.5-.3 0-.6.1-.9.1-.9 0-1.1.3-1.1 1.3.5 9.6 1 19.2 1.5 28.8.3 5.3.4 10.5 1.1 15.8.2 1.8.5 3.6 1.1 5.3 1.4 4 4.5 6.5 8.5 6.6 4.5.1 7.9-2.1 9.5-6.3 1-2.6 1.2-5.3 1.2-8 .1-6.8-.3-13.6-.6-20.3 0-.9-.1-1.7-.1-2.6 0-.7.2-1.1 1-1.1 5-.1 10.1-.3 15.1-.5.6 0 .9.2.9.9.2 8.8.9 17.6-.3 26.4-.9 6.5-3.2 12.6-6.8 18.1-3.5 5.4-8.7 8-15 8.4-5.3.3-10.4-.3-15.2-2.7-4.5-2.3-8.1-5.6-10.7-9.9-3.2-5.2-5.1-10.9-6.2-16.9-1.2-6.9-1.7-13.9-2.1-20.9-.4-7.6-.9-15.3-1.3-22.9-.3-1-.3-1.9-.3-2.7m17.1-26.1c.3 5.1.6 10.3.8 15.4 0 .9.3 1.2 1.2 1.1 5.6-.4 11.2-.7 16.8-1 1.5-.1 1.6-.1 1.5-1.6-.4-7.5-.6-15-1.2-22.5-.3-3.1-.5-6.2-1.7-9.2-1.5-3.8-4.7-6-8.4-5.7-4.5.3-7.7 2.8-8.7 6.9-.6 2.4-.6 4.9-.6 7.4 0 3.1.2 6.1.3 9.2"/><path d="m443.2 65.2c-2.1-.2-4.3-.5-6.5-.7-2.9-.3-5.9-.6-8.8-1-1.4-.2-1.4-.2-1.3-1.5.2-2.7.4-5.4.5-8.1.3-4.1.5-8.2.2-12.4-.1-1.7-.4-3.3-1.1-4.8-1.6-3.9-5.2-6.3-9.3-6.1-4 .1-7.2 2.7-8.6 6.8-.9 2.7-1.2 5.4-1.4 8.2-.6 7.7-1.1 15.4-1.6 23.1-.6 8.7-1.2 17.3-1.7 26-.6 9.2-1.3 18.3-1.7 27.5-.2 4.1-.1 8.1 1.2 12.1 1 2.8 2.6 5.1 5.3 6.3 4.1 1.9 8.9.5 11.7-3.2 1.3-1.8 2-3.8 2.5-5.9.8-3.6 1.2-7.2 1.5-10.8.3-4.5.6-9 .9-13.5.1-1.6.2-1.6 1.7-1.5 4.2.3 8.4.6 12.5.9 1.4.1 1.4.1 1.3 1.5-.5 6-.9 12.1-2 18-1.6 8.3-5 15.7-10.8 21.9-4.3 4.7-9.9 6.9-16.1 7.3-3.1.2-6.3.2-9.4-.4-7.3-1.4-12.3-5.7-15.2-12.4-1.9-4.5-2.8-9.2-3.3-14-1-9.5-.5-19 .1-28.4.5-7.2.9-14.4 1.3-21.6.6-9.4 1-18.8 1.9-28.2.6-5.8 1.3-11.7 3.3-17.2 3-8.3 8.6-14.1 17.3-16.3 7.5-1.9 14.5-.1 20.8 4 7.6 5 12 12.3 13.7 21.1 1.5 7.6 1.2 15.3 1.1 23 .2 0 .1.1 0 .3"/><path d="m488.1 107.5c2.8.3 5.5.6 8.2.9 1.4.2 2.8.3 4.2.5.5.1.8.2.8.8-.1 5.1 0 10.2-1.2 15.2-1.1 4.6-3.5 8.5-6.9 11.7-2.7 2.5-6 3.9-9.6 4.5-5.1.8-10.2.7-15.1-1-4.9-1.7-8.5-4.8-10.7-9.6-1.8-3.9-2.5-8.1-2.7-12.3-.3-4.9 0-9.8.3-14.7.3-7 .7-14 1.2-21 .4-5.7.5-11.4 1.2-17.1.5-4.3 1.4-8.5 3-12.5.5-1.1 1-2.2 1.7-3.2 3.1-4.7 7.6-6.6 13-5.9 12.3 1.6 20 8.9 23.8 20.4 1.4 4.1 1.8 8.4 2.1 12.7.3 4.8.1 9.7.1 14.5 0 .5 0 1-.2 1.6-1.8-.2-3.6-.5-5.5-.7-6.2-.8-12.4-1.6-18.6-2.4-1.7-.2-3.4-.4-5.1-.6-1.1-.1-1.1-.1-1.2 1.1-.2 4-.3 8.1-.5 12.1-.2 5.5-.5 11-.7 16.5-.1 2.4 0 4.8.4 7.2.7 3.4 3 5.9 6.2 6.4 3.6.6 6.8-.4 9-3.6 1.1-1.6 1.5-3.5 1.8-5.4.6-3.5.6-7.1.8-10.7 0-1.7.1-3.5.2-5.4m-.6-23.2c.1-.4.2-.8.2-1.3.1-6.2.5-12.3.4-18.5 0-1.8-.1-3.5-.7-5.2-.7-2.3-2.1-4.1-4.4-5.1-3.7-1.5-7.9-.7-9.7 3.2-.4.8-.6 1.7-.7 2.6-.6 3.3-.7 6.7-.8 10.1-.2 3.5-.3 7-.4 10.4 0 1.3 0 1.3 1.2 1.5 4.6.8 9.3 1.5 13.9 2.3.2.1.6.2 1 0"/><path d="m286 22c1.6-4.2 3.4-8.1 6.3-11.4 5.2-6.2 14.5-5.4 18.8.4 2.5 3.4 3.9 7.1 4.5 11.2.9 6.6.8 13.3.7 20-.1 6.5-.3 13-.4 19.5-.2 6.7-.4 13.3-.6 20-.2 5.9-.3 11.8-.5 17.7-.3 8.9-.6 17.8-.8 26.7-.2 7.7-.4 15.3-.6 23-.1 2.9 0 2.9-2.8 2.9-4.6 0-9.1 0-13.7 0-.5 0-.9 0-1.4 0-.5 0-.7-.3-.7-.8.1-5.6.2-11.2.3-16.8.1-3.8.1-7.7.2-11.5.1-10 .2-20.1.4-30.1.2-7.1.2-14.2.4-21.3.2-7.3.2-14.5.4-21.8.1-5.3.1-10.6-.1-15.9-.1-1.5-.2-3.1-.6-4.6-1.2-4.4-4.3-6.8-8.9-7-.3-.2-.5-.2-.9-.2"/><path d="m334.8 83.2c.4-9.3.8-18.6 1.1-27.8.4-8.9.8-17.8 1.2-26.7.1-1.9.1-1.9 2-1.8 4.6.4 9.3.8 13.9 1.2.8.1.8.4.8 1-.2 3.6-.4 7.3-.6 10.9-.5 9.1-1 18.2-1.4 27.2-.5 9.2-1 18.4-1.4 27.5-.5 9.1-1 18.2-1.4 27.2-.3 5.5-.6 11-.9 16.5-.1 1.1-.1 1.1-1.1 1.1-4.5 0-9 0-13.5 0-1 0-1 0-1-1.1.3-6.2.5-12.4.8-18.7.2-4.2.4-8.3.5-12.5.3-7.8.7-15.9 1-24"/><path d="m274.8 47.9c.7-.1.5-.9 1.2-1.1 0 1 0 2 0 3-.1 5.7-.2 11.3-.2 17-.1 10.8-.2 21.6-.4 32.4-.2 9.1-.2 18.2-.3 27.3-.1 8-.2 16-.3 23.9 0 1.3 0 1.3-1.2 1.3-5.4 0-10.8 0-16.1 0-.9 0-1.2-.3-1.1-1.1 0-.4 0-.8 0-1.2 0-24 0-48 0-72 0-22.5 0-44.9.1-67.4 0-.3 0-.6 0-.9-.1-.9.3-1.1 1.1-1.1 1.5.1 3 .1 4.4.1 4.2 0 8.4.1 12.6.1.4 0 .7 0 1.1 0 1.3.1 1.4.2 1.3 1.5-.5 9.1-.9 18.3-1.4 27.4-.4 3.6-.6 7.2-.8 10.8"/><path d="m75.1 8.2c.2 2.3.3 4.4.5 6.6.8 11.8 1.5 23.7 2.3 35.5 0 .3-.5 1.3.6 1 .2-.1.1.3.1.5-.4 5.8 0 11.6.4 17.5.4 5.6.7 11.3 1.1 16.9.5 7.7 1 15.5 1.5 23.2.5 7 .9 14.1 1.4 21.1.3 5 .7 10 1 15 .1 1.3.1 1.3-1.3 1.3-5 0-10 0-15.2 0-.1-.9-.2-1.9-.3-2.8-.5-8.1-.9-16.2-1.4-24.2-.5-8.6-1-17.1-1.5-25.7-.6-9.1-1.1-18.3-1.6-27.4-.5-8.7-1.1-17.3-1.6-26-.4-6.2-.7-12.4-1.1-18.6-.2-3.1-.4-6.2-.6-9.4-.1-.8.2-1.1 1-1.3 4.6-1.1 9.2-2.2 13.8-3.3.3.1.5.1.9.1"/><path d="m83.3 43.4c2-3.4 3.8-6.9 6.6-9.8 2.4-2.5 5.2-4.3 8.8-4.8 2.3-.3 4.4.1 6.3 1.3 3.8 2.5 5.9 6.2 6.7 10.6 1 5.7 1.5 11.5 1.9 17.4.5 7.8 1 15.6 1.5 23.4.5 7.4.9 14.7 1.4 22.1.5 8 1.1 16 1.6 24.1.4 5.8.7 11.6 1.1 17.4.1 1.4.1 1.5-1.4 1.5-3.6 0-7.1 0-10.7.1-1.2 0-2.4.1-3.6.1-.7 0-.9-.3-1-.9-.3-5-.6-10-1-15-.5-7.6-1-15.2-1.5-22.8-.4-5.6-.7-11.2-1.1-16.8-.5-7.6-1-15.2-1.5-22.8-.3-4.6-.5-9.3-1.1-13.9-.2-1.7-.5-3.4-.9-5.1-1.5-5.7-6-8.1-11.6-6.1-.1.1-.3.1-.5.1.1 0 0 0 0-.1"/><path d="m14.9 54.6c-2 .4-3.7.8-5.6 1.2-.2-2.1-.2-4-.2-6 0-.7.4-.9 1-1.1 1.2-.3 2.5-.8 3.7-1 .8-.2 1.1-.5 1.1-1.3-.1-4.3-.2-8.7-.2-13 0-1.3 0-2.6 0-3.9 0-.5.1-.9.7-1.1 4.8-1.5 9.5-3.1 14.4-4.4.1 0 .2 0 .5.1.3 6.3.5 12.5.8 19 2.5-.6 4.8-1.1 7.3-1.7.4.5.4 1.1.4 1.7.1 1.8.1 3.5.2 5.3.1.8-.2 1.1-.9 1.2-1.7.3-3.4.7-5 1-1.5.3-1.6.3-1.5 1.8.2 4.8.4 9.6.5 14.5.2 4.9.4 9.8.6 14.7.3 8.3.7 16.6 1 24.9.3 6.6.5 13.2.8 19.8.2 3.2.4 6.5 1 9.7.8 3.8 3.1 5.8 6.8 6.5 2.1.4 2.1.4 2.3 2.5.1 1.9.1 3.8.3 5.7.1.9-.3 1.2-1.1 1.2-.2 0-.5 0-.7 0-4.9 0-9.8.1-14.7-.3-3.4-.3-6.4-1.3-8.7-4.1-1.3-1.7-2.2-3.5-2.4-5.6-.5-4.1-.8-8.3-.8-12.4-.1-9-.2-18.1-.4-27.1-.2-7.5-.2-14.9-.4-22.4-.2-7.5-.3-15-.4-22.6-.2-.8-.3-1.7-.4-2.8"/><path d="m338.6 0c3 .3 6 .6 9 .9 2.2.2 4.5.5 6.7.7.7.1 1 .3 1 1-.2 2.8-.3 5.5-.4 8.3 0 .6-.1.9-.9.9-4.9-.5-9.8-.9-14.7-1.3-1.1-.1-1.2-.1-1.1-1.3.1-2.9.3-5.8.4-8.7-.2-.2-.1-.3 0-.5"/><path d="m78 51.4c0 .1-.1.2-.2.1-.1-.1 0-.2.1-.3 0 0 .1.1.1.2"/></g><g stroke="#000" stroke-width="2.607" stroke-miterlimit="10"><path d="m141.4 811.9l12.5-1 .6 7.5c1.6-3.2 3.3-5.6 5.1-7 1.8-1.5 4.1-2.3 6.8-2.5 3.7-.3 6.7.9 9 3.7 2.3 2.7 3.7 7.1 4.2 13.2l2.4 29.2-13.4 1.1-2-25.3c-.2-2.9-.8-4.9-1.7-6-.9-1.1-2.1-1.6-3.6-1.5-1.6.1-2.9 1-3.7 2.7-.9 1.7-1.1 4.6-.8 8.8l1.8 22.1-13.4 1.1-3.8-46.1z"/><path d="m176.7 826.7c.6-2.6 2.6-4.4 6.1-5.3 3.4-1 7.8-.8 13 .4 5.9 1.4 10.2 3.4 12.8 6.1 2.1 2.2 2.8 4.4 2.3 6.7-.6 2.6-2.6 4.4-6 5.4s-7.8.8-13.1-.4c-4.8-1.1-8.5-2.7-11.1-4.8-3.4-2.6-4.6-5.3-4-8.1zm11.4 2.7c-.4 1.5-.1 2.8.8 3.7.9 1 2.2 1.7 3.8 2 1.6.4 3.1.3 4.3-.1 1.2-.5 2-1.5 2.4-3.1.3-1.5.1-2.7-.8-3.7-.9-1-2.1-1.6-3.7-2-1.7-.4-3.1-.3-4.4.1-1.2.6-2 1.6-2.4 3.1z"/><path d="m240.4 789.7l-4.1 19.2 9.6 2-3 14.2-9.6-2-3.8 17.9c-.5 2.2-.6 3.6-.4 4.4.3 1.2 1.2 2 2.7 2.3 1.3.3 3.2.2 5.7-.1l-1.6 13.6c-4.5.1-8.7-.2-12.4-1-4.4-.9-7.4-2.2-9.2-3.9-1.8-1.7-2.9-3.9-3.4-6.6-.5-2.7-.1-6.9 1.1-12.6l3.8-17.8-6.4-1.4 3-14.2 6.4 1.4 2-9.3 19.6-6.1z"/><path d="m245.5 797.9l13.1-1.9 2.5 17.4c1.5-2.1 3.1-3.7 4.8-4.7 1.6-1 3.7-1.7 6.1-2.1 3.6-.5 6.5.2 8.9 2.1 2.4 1.9 3.9 5.1 4.5 9.6l3.1 21.8-13.2 1.9-2.7-18.8c-.3-2.1-.9-3.6-1.8-4.4s-2.1-1.1-3.5-.9c-1.6.2-2.8 1-3.6 2.4s-1 3.6-.6 6.7l2.3 16.4-13.1 1.9-6.8-47.4z"/><path d="m293.8 821.5l9.8 2-5.2 25.6-9.8-2 5.2-25.6zm2-9.8l9.8 2-1.4 6.7-9.8-2 1.4-6.7z"/><path d="m302.9 830.5l8.5-1 .4 3.5c1.1-1.6 2.3-2.7 3.5-3.5 1.2-.8 2.8-1.2 4.7-1.5 2.5-.3 4.6.2 6.2 1.4s2.5 3.2 2.9 6l1.5 13.6-9.2 1-1.3-11.7c-.2-1.3-.5-2.3-1.2-2.8-.6-.5-1.4-.7-2.4-.6-1.1.1-2 .6-2.6 1.4-.6.8-.8 2.2-.6 4.2l1.1 10.2-9.2 1-2.3-21.2z"/><path d="m352.6 816.8l7 1.5-7 33.1-.3 1.6c-.5 2.2-1.2 4.2-2.1 6.1-.9 1.9-2 3.3-3.1 4.4-1.1 1.1-2.4 1.7-3.8 2-1.4.3-3 .2-4.7-.1-3.9-.8-6.3-2.4-7.4-4.9-1-2.4-1.1-5.4-.4-8.9.1-.4.2-1 .4-1.8l6.9 3c-.1 1.2 0 2.1.3 2.7.4.8 1 1.3 1.8 1.5 1.1.2 2-.1 2.7-1s1.4-2.7 1.9-5.2l1.1-5.3c-1.1 1.4-2 2.4-2.9 2.9-1.4.9-2.7 1.1-4.1.9-2.6-.5-4.3-3-5-7.5-.5-3.1-.3-7.1.7-11.9 1.2-5.5 2.8-9.5 4.8-12 2.1-2.6 4.3-3.6 6.6-3.1 1.5.3 2.7 1 3.4 2.2.8 1.1 1.4 2.9 1.8 5.2l1.4-5.4zm-10.6 15.5c-.5 2.5-.6 4.5-.3 5.8.3 1.3 1 2.1 2 2.3.9.2 1.8-.3 2.7-1.4s1.6-3 2.2-5.5c.5-2.6.6-4.6.3-6.1-.4-1.5-1-2.3-2-2.5-.9-.2-1.8.3-2.7 1.4-.9 1.2-1.6 3.2-2.2 6z"/></g><path fill="url(#1)" d="m141.4 811.9l12.5-1 .6 7.5c1.6-3.2 3.3-5.6 5.1-7 1.8-1.5 4.1-2.3 6.8-2.5 3.7-.3 6.7.9 9 3.7 2.3 2.7 3.7 7.1 4.2 13.2l2.4 29.2-13.4 1.1-2-25.3c-.2-2.9-.8-4.9-1.7-6-.9-1.1-2.1-1.6-3.6-1.5-1.6.1-2.9 1-3.7 2.7-.9 1.7-1.1 4.6-.8 8.8l1.8 22.1-13.4 1.1-3.8-46.1"/><path fill="url(#2)" d="m176.7 826.7c.6-2.6 2.6-4.4 6.1-5.3 3.4-1 7.8-.8 13 .4 5.9 1.4 10.2 3.4 12.8 6.1 2.1 2.2 2.8 4.4 2.3 6.7-.6 2.6-2.6 4.4-6 5.4s-7.8.8-13.1-.4c-4.8-1.1-8.5-2.7-11.1-4.8-3.4-2.6-4.6-5.3-4-8.1m11.4 2.7c-.4 1.5-.1 2.8.8 3.7.9 1 2.2 1.7 3.8 2 1.6.4 3.1.3 4.3-.1 1.2-.5 2-1.5 2.4-3.1.3-1.5.1-2.7-.8-3.7-.9-1-2.1-1.6-3.7-2-1.7-.4-3.1-.3-4.4.1-1.2.6-2 1.6-2.4 3.1"/><path fill="url(#3)" d="m240.4 789.7l-4.1 19.2 9.6 2-3 14.2-9.6-2-3.8 17.9c-.5 2.2-.6 3.6-.4 4.4.3 1.2 1.2 2 2.7 2.3 1.3.3 3.2.2 5.7-.1l-1.6 13.6c-4.5.1-8.7-.2-12.4-1-4.4-.9-7.4-2.2-9.2-3.9-1.8-1.7-2.9-3.9-3.4-6.6-.5-2.7-.1-6.9 1.1-12.6l3.8-17.8-6.4-1.4 3-14.2 6.4 1.4 2-9.3 19.6-6.1"/><path fill="url(#4)" d="m245.5 797.9l13.1-1.9 2.5 17.4c1.5-2.1 3.1-3.7 4.8-4.7 1.6-1 3.7-1.7 6.1-2.1 3.6-.5 6.5.2 8.9 2.1 2.4 1.9 3.9 5.1 4.5 9.6l3.1 21.8-13.2 1.9-2.7-18.8c-.3-2.1-.9-3.6-1.8-4.4s-2.1-1.1-3.5-.9c-1.6.2-2.8 1-3.6 2.4s-1 3.6-.6 6.7l2.3 16.4-13.1 1.9-6.8-47.4"/><path fill="url(#5)" d="m293.8 821.5l9.8 2-5.2 25.6-9.8-2 5.2-25.6m2-9.8l9.8 2-1.4 6.7-9.8-2 1.4-6.7"/><path fill="url(#6)" d="m302.9 830.5l8.5-1 .4 3.5c1.1-1.6 2.3-2.7 3.5-3.5 1.2-.8 2.8-1.2 4.7-1.5 2.5-.3 4.6.2 6.2 1.4s2.5 3.2 2.9 6l1.5 13.6-9.2 1-1.3-11.7c-.2-1.3-.5-2.3-1.2-2.8-.6-.5-1.4-.7-2.4-.6-1.1.1-2 .6-2.6 1.4-.6.8-.8 2.2-.6 4.2l1.1 10.2-9.2 1-2.3-21.2"/><path fill="url(#7)" d="m352.6 816.8l7 1.5-7 33.1-.3 1.6c-.5 2.2-1.2 4.2-2.1 6.1-.9 1.9-2 3.3-3.1 4.4-1.1 1.1-2.4 1.7-3.8 2-1.4.3-3 .2-4.7-.1-3.9-.8-6.3-2.4-7.4-4.9-1-2.4-1.1-5.4-.4-8.9.1-.4.2-1 .4-1.8l6.9 3c-.1 1.2 0 2.1.3 2.7.4.8 1 1.3 1.8 1.5 1.1.2 2-.1 2.7-1s1.4-2.7 1.9-5.2l1.1-5.3c-1.1 1.4-2 2.4-2.9 2.9-1.4.9-2.7 1.1-4.1.9-2.6-.5-4.3-3-5-7.5-.5-3.1-.3-7.1.7-11.9 1.2-5.5 2.8-9.5 4.8-12 2.1-2.6 4.3-3.6 6.6-3.1 1.5.3 2.7 1 3.4 2.2.8 1.1 1.4 2.9 1.8 5.2l1.4-5.4m-10.6 15.5c-.5 2.5-.6 4.5-.3 5.8.3 1.3 1 2.1 2 2.3.9.2 1.8-.3 2.7-1.4s1.6-3 2.2-5.5c.5-2.6.6-4.6.3-6.1-.4-1.5-1-2.3-2-2.5-.9-.2-1.8.3-2.7 1.4-.9 1.2-1.6 3.2-2.2 6"/></svg>