<svg xmlns="http://www.w3.org/2000/svg" xmlns:xlink="http://www.w3.org/1999/xlink" viewBox="0 0 503.8 689.8" enable-background="new 0 0 503.8 689.8"><defs><pattern id="6" xlink:href="#0" patternTransform="matrix(0.5214 0 0 0.5214 -2928.3843 -4227.1147)"/><pattern id="5" xlink:href="#0" patternTransform="matrix(0.5214 0 0 0.5214 -2928.3843 -4227.1147)"/><pattern id="7" xlink:href="#0" patternTransform="matrix(0.5214 0 0 0.5214 -2928.3843 -4227.1147)"/><pattern id="4" xlink:href="#0" patternTransform="matrix(0.5214 0 0 0.5214 -2928.3843 -4227.1147)"/><pattern id="3" xlink:href="#0" patternTransform="matrix(0.5214 0 0 0.5214 -2928.3843 -4227.1147)"/><pattern x="-1215.7" y="730.9" width="139.8" height="138.3" patternUnits="userSpaceOnUse" id="0" viewBox="309 -414.9 139.8 138.3"><path fill="none" d="m309-414.9h139.8v138.3h-139.8z"/><path fill="#3b2e83" d="m597.5-80.9c-12.8-21.2-8.6-44-2-51.8-8.3 7.4-12.7 13.2-14.5 25.5-7.7-6.7-12.5-8.7-21.7-10.5 14.2 8.8 19.8 19.8 24.2 34.7-4-7.4-10.5-13.1-18.2-16 6.3 6.1 3.9 11.7 7.9 21.7 2.5 6.4 6.6 10.4 10.5 12.3 0 0-5.6 1-10-4.1 7.6 23.6 33.5 14.1 46.2 25.4-10.8-5.2-27.5.2-27.5 15.6 0 9.6 8.2 17 16.8 17 8.5 0 13.6-5.8 13.6-11.3 0-4.9-2.5-7.4-5.1-8.3 2.6 3.6.4 8.5-4.1 8.5-3.1 0-6.3-2.5-6.3-6.5 0-6.3 5.8-8.8 10.8-8.8 6.7 0 13.1 2.9 15.1 8.5 2.6-23.7-23.1-31.1-35.7-51.9m114.2-42.9c-16.1 5.9-34.7-1.7-51.4 7.7 17.9-6.2 38.6-3.2 50.1 15.8-4.6-4.6-13.3-6.2-20-6.2 15.6 8.7 13.8 31.7-.5 36.2 0 0 4.6-3.2 4.6-11.5 0-11.1-9.8-20.3-28-20.3-12.4 0-22.9 5.2-27.5 13.9 4.9-5.8 13.3-9.9 22.6-9.9 13.3 0 18.6 9.8 18.7 17.5.1 8.1-5.1 13.6-9.4 15.9 5.7-6.3 1.2-14.9-6.8-14.9-11.7 0-16.5 14.1-14.3 25.7 2.7-9.8 7.9-15 17.6-16.7-7 5.6-9.7 11.4-8.6 20.9 6.2-13.6 18.5-6.8 24.2-20.4 1.4 7.6.1 19-10.8 24.3-12.2 5.9-22.4 3.2-32 14.4-2.7-22.6-17.3-27.7-31.2-42.6-18-19.3-17-46.1-8.3-60.4-2.1 14.3.5 27.4 9.2 38.7-5.1-17.1-4.2-35.1 4.2-49-1.2 9.2-1 14.3 2 22.6.9-18 8.5-30.7 22.8-41.5-5.7 9.6-8.6 22-7 31.9 6.3-25.9 24.1-37 36.7-40.6-4.3 5.4-7 11.5-8.2 18.2 9.4-19.6 27.8-22.3 37.8-28.3 7.2-4.3 4.2-12.3-.2-12.3-2.4 0-3.8 1.4-5.1 4 1-5.2 4.4-7.9 8-7.9 5.3 0 9.3 5.2 9.3 11.7 0 17.3-22.9 29.5-49 44.3-22.4 12.7-32.5 22.3-35.8 40-3.4 18 5.9 35.2 5.9 35.2s-8.6-29.6 4.6-47.9c12-16.6 30.3-23.9 47.2-33.9 18.7-11 35.9-22.6 30.7-41.5 9.5 9.5 12.7 24.3 5.3 33.4-9.6 11.7-28.5 14.2-36 21.7 13.2-6.6 25.2-4.1 34.7-7.9 9.3-3.7 9.2-14.3 9.2-14.3 3.9 13.1.1 28.4-15.3 34m-108.4 77.2c-7.4-.2-15.5 4.8-15.2 10.1-7.3-9.6 6.3-13.5 15.2-10.1m82.6-8.3c9.4 9.2-4.7 15.6-14.8 13.3 8.1-.9 16-7.6 14.8-13.3m18.7-30.2c5.7 8.7 4.5 24.1-7.4 18.5 5.7-.9 9.3-10.6 7.4-18.5m-95.8 80.8c-7.1 11.1-16.3-1.3-16.1-11.7 2.6 7.6 10.8 14 16.1 11.7"/><path fill="#3b2e83" d="m457.7-80.9c-12.8-21.2-8.6-44-2-51.8-8.3 7.4-12.7 13.2-14.5 25.5-7.7-6.7-12.5-8.7-21.7-10.5 14.2 8.8 19.8 19.8 24.2 34.7-4-7.4-10.5-13.1-18.2-16 6.3 6.1 3.9 11.7 7.9 21.7 2.5 6.4 6.6 10.4 10.5 12.3 0 0-5.6 1-10-4.1 7.6 23.6 33.5 14.1 46.2 25.4-10.8-5.2-27.5.2-27.5 15.6 0 9.6 8.2 17 16.8 17 8.5 0 13.6-5.8 13.6-11.3 0-4.9-2.5-7.4-5.1-8.3 2.6 3.6.4 8.5-4.1 8.5-3.1 0-6.3-2.5-6.3-6.5 0-6.3 5.8-8.8 10.8-8.8 6.7 0 13.1 2.9 15.1 8.5 2.6-23.7-23.1-31.1-35.7-51.9m114.2-42.9c-16.1 5.9-34.7-1.7-51.4 7.7 17.9-6.2 38.6-3.2 50.1 15.8-4.6-4.6-13.3-6.2-20-6.2 15.6 8.7 13.8 31.7-.5 36.2 0 0 4.6-3.2 4.6-11.5 0-11.1-9.8-20.3-28-20.3-12.4 0-22.9 5.2-27.5 13.9 4.9-5.8 13.3-9.9 22.6-9.9 13.3 0 18.6 9.8 18.7 17.5.1 8.1-5.1 13.6-9.4 15.9 5.7-6.3 1.2-14.9-6.8-14.9-11.7 0-16.5 14.1-14.3 25.7 2.7-9.8 7.9-15 17.6-16.7-7 5.6-9.7 11.4-8.6 20.9 6.2-13.6 18.5-6.8 24.2-20.4 1.4 7.6.1 19-10.8 24.3-12.2 5.9-22.4 3.2-32 14.4-2.7-22.6-17.3-27.7-31.2-42.6-18-19.3-17-46.1-8.3-60.4-2.1 14.3.5 27.4 9.2 38.7-5.1-17.1-4.2-35.1 4.2-49-1.2 9.2-1 14.3 2 22.6.9-18 8.5-30.7 22.8-41.5-5.7 9.6-8.6 22-7 31.9 6.3-25.9 24.1-37 36.7-40.6-4.3 5.4-7 11.5-8.2 18.2 9.4-19.6 27.8-22.3 37.8-28.3 7.2-4.3 4.2-12.3-.2-12.3-2.4 0-3.8 1.4-5.1 4 1-5.2 4.4-7.9 8-7.9 5.3 0 9.3 5.2 9.3 11.7 0 17.3-22.9 29.5-49 44.3-22.4 12.7-32.5 22.3-35.8 40-3.4 18 5.9 35.2 5.9 35.2s-8.6-29.6 4.6-47.9c12-16.6 30.3-23.9 47.3-33.9 18.7-11 35.9-22.6 30.7-41.5 9.5 9.5 12.7 24.3 5.3 33.4-9.6 11.7-28.5 14.2-36 21.7 13.2-6.6 25.2-4.1 34.7-7.9 9.3-3.7 9.2-14.3 9.2-14.3 3.8 13.1 0 28.4-15.4 34m-108.4 77.2c-7.4-.2-15.5 4.8-15.2 10.1-7.3-9.6 6.3-13.5 15.2-10.1m82.6-8.3c9.4 9.2-4.7 15.6-14.8 13.3 8-.9 16-7.6 14.8-13.3m18.7-30.2c5.7 8.7 4.5 24.1-7.4 18.5 5.7-.9 9.3-10.6 7.4-18.5m-95.8 80.8c-7.1 11.1-16.3-1.3-16.1-11.7 2.5 7.6 10.8 14 16.1 11.7"/><path fill="#3b2e83" d="m317.8-80.9c-12.8-21.2-8.6-44-2-51.8-8.3 7.4-12.7 13.2-14.5 25.5-7.7-6.7-12.5-8.7-21.7-10.5 14.2 8.8 19.8 19.8 24.2 34.7-4-7.4-10.5-13.1-18.2-16 6.3 6.1 3.9 11.7 7.9 21.7 2.5 6.4 6.6 10.4 10.5 12.3 0 0-5.6 1-10-4.1 7.6 23.6 33.5 14.1 46.2 25.4-10.8-5.2-27.5.2-27.5 15.6 0 9.6 8.2 17 16.8 17 8.5 0 13.6-5.8 13.6-11.3 0-4.9-2.5-7.4-5.1-8.3 2.6 3.6.4 8.5-4.1 8.5-3.1 0-6.3-2.5-6.3-6.5 0-6.3 5.8-8.8 10.8-8.8 6.7 0 13.1 2.9 15.1 8.5 2.7-23.7-23-31.1-35.7-51.9m114.3-42.9c-16.1 5.9-34.7-1.7-51.4 7.7 17.9-6.2 38.6-3.2 50.1 15.8-4.6-4.6-13.3-6.2-20-6.2 15.6 8.7 13.8 31.7-.5 36.2 0 0 4.6-3.2 4.6-11.5 0-11.1-9.8-20.3-28-20.3-12.4 0-22.9 5.2-27.5 13.9 4.9-5.8 13.3-9.9 22.6-9.9 13.3 0 18.6 9.8 18.7 17.5.1 8.1-5.1 13.6-9.4 15.9 5.7-6.3 1.2-14.9-6.8-14.9-11.7 0-16.5 14.1-14.3 25.7 2.7-9.8 7.9-15 17.6-16.7-7 5.6-9.7 11.4-8.6 20.9 6.2-13.6 18.5-6.8 24.2-20.4 1.4 7.6.1 19-10.8 24.3-12.2 5.9-22.4 3.2-32 14.4-2.7-22.6-17.3-27.7-31.2-42.6-18-19.3-17-46.1-8.3-60.4-2.1 14.3.5 27.4 9.2 38.7-5.1-17.1-4.2-35.1 4.2-49-1.2 9.2-1 14.3 2 22.6.9-18 8.5-30.7 22.8-41.5-5.7 9.6-8.6 22-7 31.9 6.3-25.9 24.1-37 36.7-40.6-4.3 5.4-7 11.5-8.2 18.2 9.4-19.6 27.8-22.3 37.8-28.3 7.2-4.3 4.2-12.3-.2-12.3-2.4 0-3.8 1.4-5.1 4 1-5.2 4.4-7.9 8-7.9 5.3 0 9.3 5.2 9.3 11.7 0 17.3-22.9 29.5-49 44.3-22.4 12.7-32.5 22.3-35.8 40-3.4 18 5.9 35.2 5.9 35.2s-8.6-29.6 4.6-47.9c12-16.6 30.3-23.9 47.2-33.9 18.7-11 35.9-22.6 30.7-41.5 9.5 9.5 12.7 24.3 5.3 33.4-9.6 11.7-28.5 14.2-36 21.7 13.2-6.6 25.2-4.1 34.7-7.9 9.3-3.7 9.2-14.3 9.2-14.3 3.9 13.1.1 28.4-15.3 34m-108.4 77.2c-7.4-.2-15.5 4.8-15.2 10.1-7.3-9.6 6.3-13.5 15.2-10.1m82.6-8.3c9.4 9.2-4.7 15.6-14.8 13.3 8-.9 16-7.6 14.8-13.3m18.7-30.2c5.7 8.7 4.5 24.1-7.4 18.5 5.7-.9 9.3-10.6 7.4-18.5m-95.8 80.8c-7.1 11.1-16.3-1.3-16.1-11.7 2.5 7.6 10.7 14 16.1 11.7"/><path fill="#3b2e83" d="m178-80.9c-12.8-21.2-8.6-44-2-51.8-8.3 7.4-12.7 13.2-14.5 25.5-7.7-6.7-12.5-8.7-21.7-10.5 14.2 8.8 19.8 19.8 24.2 34.7-4-7.4-10.5-13.1-18.2-16 6.3 6.1 3.9 11.7 7.9 21.7 2.5 6.4 6.6 10.4 10.5 12.3 0 0-5.6 1-10-4.1 7.6 23.6 33.5 14.1 46.2 25.4-10.8-5.2-27.5.2-27.5 15.6 0 9.6 8.2 17 16.8 17 8.5 0 13.6-5.8 13.6-11.3 0-4.9-2.5-7.4-5.1-8.3 2.6 3.6.4 8.5-4.1 8.5-3.1 0-6.3-2.5-6.3-6.5 0-6.3 5.8-8.8 10.8-8.8 6.7 0 13.1 2.9 15.1 8.5 2.7-23.7-23-31.1-35.7-51.9m114.3-42.9c-16.1 5.9-34.7-1.7-51.4 7.7 17.9-6.2 38.6-3.2 50.1 15.8-4.6-4.6-13.3-6.2-20-6.2 15.6 8.7 13.8 31.7-.5 36.2 0 0 4.6-3.2 4.6-11.5 0-11.1-9.8-20.3-28-20.3-12.4 0-22.9 5.2-27.5 13.9 4.9-5.8 13.3-9.9 22.6-9.9 13.3 0 18.6 9.8 18.7 17.5.1 8.1-5.1 13.6-9.4 15.9 5.7-6.3 1.2-14.9-6.8-14.9-11.7 0-16.5 14.1-14.3 25.7 2.7-9.8 7.9-15 17.6-16.7-7 5.6-9.7 11.4-8.6 20.9 6.2-13.6 18.5-6.8 24.2-20.4 1.4 7.6.1 19-10.8 24.3-12.2 5.9-22.4 3.2-32 14.4-2.7-22.6-17.3-27.7-31.2-42.6-18-19.3-17-46.1-8.3-60.4-2.1 14.3.5 27.4 9.2 38.7-5.1-17.1-4.2-35.1 4.2-49-1.2 9.2-1 14.3 2 22.6.9-18 8.5-30.7 22.8-41.5-5.7 9.6-8.6 22-7 31.9 6.3-25.9 24.1-37 36.7-40.6-4.3 5.4-7 11.5-8.2 18.2 9.4-19.6 27.8-22.3 37.8-28.3 7.2-4.3 4.2-12.3-.2-12.3-2.4 0-3.8 1.4-5.1 4 1-5.2 4.4-7.9 8-7.9 5.3 0 9.3 5.2 9.3 11.7 0 17.3-22.9 29.5-49 44.3-22.4 12.7-32.5 22.3-35.8 40-3.4 18 5.9 35.2 5.9 35.2s-8.6-29.6 4.6-47.9c12-16.6 30.3-23.9 47.2-33.9 18.7-11 35.9-22.6 30.7-41.5 9.5 9.5 12.7 24.3 5.3 33.4-9.6 11.7-28.5 14.2-36 21.7 13.2-6.6 25.2-4.1 34.7-7.9 9.3-3.7 9.2-14.3 9.2-14.3 3.9 13.1 0 28.4-15.3 34m-108.4 77.2c-7.4-.2-15.5 4.8-15.2 10.1-7.3-9.6 6.3-13.5 15.2-10.1m82.6-8.3c9.4 9.2-4.7 15.6-14.8 13.3 8-.9 16-7.6 14.8-13.3m18.7-30.2c5.7 8.7 4.5 24.1-7.4 18.5 5.7-.9 9.3-10.6 7.4-18.5m-95.8 80.8c-7.1 11.1-16.3-1.3-16.1-11.7 2.5 7.6 10.7 14 16.1 11.7"/><path fill="#3b2e83" d="m38.2-80.9c-12.8-21.2-8.6-44-2-51.8-8.3 7.4-12.7 13.2-14.5 25.5-7.6-6.8-12.5-8.8-21.7-10.6 14.2 8.8 19.8 19.8 24.2 34.7-4-7.4-10.5-13.1-18.2-16 6.3 6.1 3.9 11.7 7.9 21.7 2.5 6.4 6.6 10.4 10.5 12.3 0 0-5.6 1-10-4.1 7.6 23.6 33.5 14.1 46.2 25.4-11-5.2-27.7.2-27.7 15.6 0 9.6 8.2 17 16.8 17 8.5 0 13.6-5.8 13.6-11.3 0-4.9-2.5-7.4-5.1-8.3 2.6 3.6.4 8.5-4.1 8.5-3.1 0-6.3-2.5-6.3-6.5 0-6.3 5.8-8.8 10.8-8.8 6.7 0 13.1 2.9 15.1 8.5 2.9-23.6-22.9-31-35.5-51.8m114.3-42.9c-16.1 5.9-34.7-1.7-51.4 7.7 17.9-6.2 38.6-3.2 50.1 15.8-4.6-4.6-13.3-6.2-20-6.2 15.6 8.7 13.8 31.7-.5 36.2 0 0 4.6-3.2 4.6-11.5 0-11.1-9.8-20.3-28-20.3-12.4 0-22.9 5.2-27.5 13.9 4.9-5.8 13.3-9.9 22.6-9.9 13.3 0 18.6 9.8 18.7 17.5.1 8.1-5.1 13.6-9.4 15.9 5.7-6.3 1.2-14.9-6.8-14.9-11.7 0-16.5 14.1-14.3 25.7 2.7-9.8 7.9-15 17.6-16.7-7 5.6-9.7 11.4-8.6 20.9 6.2-13.6 18.5-6.8 24.2-20.4 1.4 7.6.1 19-10.8 24.3-12.2 5.9-22.4 3.2-32 14.4-2.7-22.6-17.3-27.7-31.2-42.6-18-19.3-17-46.1-8.3-60.4-2.1 14.3.5 27.4 9.2 38.7-5.1-17.1-4.2-35.1 4.2-49-1.2 9.2-1 14.3 2 22.6.9-18 8.5-30.7 22.8-41.5-5.7 9.6-8.6 22-7 31.9 6.3-25.9 24.1-37 36.7-40.6-4.3 5.4-7 11.5-8.2 18.2 9.4-19.6 27.8-22.3 37.8-28.3 7.2-4.3 4.2-12.3-.2-12.3-2.4 0-3.8 1.4-5.1 4 1-5.2 4.4-7.9 8-7.9 5.3 0 9.3 5.2 9.3 11.7 0 17.3-22.9 29.5-49 44.3-22.4 12.7-32.5 22.3-35.8 40-3.4 18 5.9 35.2 5.9 35.2s-8.6-29.6 4.6-47.9c12-16.6 30.3-23.9 47.2-33.9 18.7-11 35.9-22.6 30.7-41.5 9.5 9.5 12.7 24.3 5.3 33.4-9.6 11.7-28.5 14.2-36 21.7 13.2-6.6 25.2-4.1 34.7-7.9 9.3-3.7 9.2-14.3 9.2-14.3 3.9 13.1 0 28.4-15.3 34m-108.4 77.2c-7.4-.2-15.5 4.8-15.2 10.1-7.3-9.6 6.3-13.5 15.2-10.1m82.6-8.3c9.4 9.2-4.7 15.6-14.8 13.3 8-.9 16-7.6 14.8-13.3m18.7-30.2c5.7 8.7 4.5 24.1-7.4 18.5 5.7-.9 9.3-10.6 7.4-18.5m-95.9 80.8c-7.1 11-16.2-1.4-16.1-11.7 2.6 7.6 10.8 14 16.1 11.7"/><path fill="#3b2e83" d="m597.5-219.2c-12.8-21.2-8.6-44-2-51.8-8.3 7.4-12.7 13.2-14.5 25.5-7.7-6.7-12.5-8.7-21.7-10.5 14.2 8.8 19.8 19.8 24.2 34.7-4-7.4-10.5-13.1-18.2-16 6.3 6.1 3.9 11.7 7.9 21.7 2.5 6.4 6.6 10.4 10.5 12.3 0 0-5.6 1-10-4.1 7.6 23.6 33.5 14.1 46.2 25.4-10.8-5.2-27.5.2-27.5 15.6 0 9.6 8.2 17 16.8 17 8.5 0 13.6-5.8 13.6-11.3 0-4.9-2.5-7.4-5.1-8.3 2.6 3.6.4 8.5-4.1 8.5-3.1 0-6.3-2.5-6.3-6.5 0-6.3 5.8-8.8 10.8-8.8 6.7 0 13.1 2.9 15.1 8.5 2.6-23.7-23.1-31.1-35.7-51.9m114.2-42.9c-16.1 5.9-34.7-1.7-51.4 7.7 17.9-6.2 38.6-3.2 50.1 15.8-4.6-4.6-13.3-6.2-20-6.2 15.6 8.7 13.8 31.7-.5 36.2 0 0 4.6-3.2 4.6-11.5 0-11.1-9.8-20.3-28-20.3-12.4 0-22.9 5.2-27.5 13.9 4.9-5.8 13.3-9.9 22.6-9.9 13.3 0 18.6 9.8 18.7 17.5.1 8.1-5.1 13.6-9.4 15.9 5.7-6.3 1.2-14.9-6.8-14.9-11.7 0-16.5 14.1-14.3 25.7 2.7-9.8 7.9-15 17.6-16.7-7 5.6-9.7 11.4-8.6 20.9 6.2-13.6 18.5-6.8 24.2-20.4 1.4 7.6.1 19-10.8 24.3-12.2 5.9-22.4 3.2-32 14.4-2.7-22.6-17.3-27.7-31.2-42.6-18-19.3-17-46.1-8.3-60.4-2.1 14.3.5 27.4 9.2 38.7-5.1-17.1-4.2-35.1 4.2-49-1.2 9.3-1 14.3 2 22.6.9-18 8.5-30.7 22.8-41.5-5.7 9.6-8.6 22-7 31.9 6.3-25.9 24.1-37 36.7-40.6-4.3 5.4-7 11.5-8.2 18.2 9.4-19.6 27.8-22.3 37.8-28.3 7.2-4.3 4.2-12.3-.2-12.3-2.4 0-3.8 1.4-5.1 4 1-5.2 4.4-7.9 8-7.9 5.3 0 9.3 5.2 9.3 11.7 0 17.3-22.9 29.5-49 44.3-22.4 12.7-32.5 22.3-35.8 40-3.4 18 5.9 35.2 5.9 35.2s-8.6-29.6 4.6-47.9c12-16.6 30.3-23.9 47.2-33.9 18.7-11 35.9-22.6 30.7-41.5 9.5 9.5 12.7 24.3 5.3 33.4-9.6 11.7-28.5 14.2-36 21.7 13.2-6.6 25.2-4.1 34.7-7.9 9.3-3.7 9.2-14.3 9.2-14.3 3.9 13.1.1 28.4-15.3 34m-108.4 77.2c-7.4-.2-15.5 4.8-15.2 10.1-7.3-9.6 6.3-13.5 15.2-10.1m82.6-8.3c9.4 9.2-4.7 15.6-14.8 13.3 8.1-.9 16-7.6 14.8-13.3m18.7-30.2c5.7 8.7 4.5 24.1-7.4 18.5 5.7-.8 9.3-10.6 7.4-18.5m-95.8 80.8c-7.1 11.1-16.3-1.3-16.1-11.7 2.6 7.6 10.8 14 16.1 11.7"/><path fill="#3b2e83" d="m457.7-219.2c-12.8-21.2-8.6-44-2-51.8-8.3 7.4-12.7 13.2-14.5 25.5-7.7-6.7-12.5-8.7-21.7-10.5 14.2 8.8 19.8 19.8 24.2 34.7-4-7.4-10.5-13.1-18.2-16 6.3 6.1 3.9 11.7 7.9 21.7 2.5 6.4 6.6 10.4 10.5 12.3 0 0-5.6 1-10-4.1 7.6 23.6 33.5 14.1 46.2 25.4-10.8-5.2-27.5.2-27.5 15.6 0 9.6 8.2 17 16.8 17 8.5 0 13.6-5.8 13.6-11.3 0-4.9-2.5-7.4-5.1-8.3 2.6 3.6.4 8.5-4.1 8.5-3.1 0-6.3-2.5-6.3-6.5 0-6.3 5.8-8.8 10.8-8.8 6.7 0 13.1 2.9 15.1 8.5 2.6-23.7-23.1-31.1-35.7-51.9m114.2-42.9c-16.1 5.9-34.7-1.7-51.4 7.7 17.9-6.2 38.6-3.2 50.1 15.8-4.6-4.6-13.3-6.2-20-6.2 15.6 8.7 13.8 31.7-.5 36.2 0 0 4.6-3.2 4.6-11.5 0-11.1-9.8-20.3-28-20.3-12.4 0-22.9 5.2-27.5 13.9 4.9-5.8 13.3-9.9 22.6-9.9 13.3 0 18.6 9.8 18.7 17.5.1 8.1-5.1 13.6-9.4 15.9 5.7-6.3 1.2-14.9-6.8-14.9-11.7 0-16.5 14.1-14.3 25.7 2.7-9.8 7.9-15 17.6-16.7-7 5.6-9.7 11.4-8.6 20.9 6.2-13.6 18.5-6.8 24.2-20.4 1.4 7.6.1 19-10.8 24.3-12.2 5.9-22.4 3.2-32 14.4-2.7-22.6-17.3-27.7-31.2-42.6-18-19.3-17-46.1-8.3-60.4-2.1 14.3.5 27.4 9.2 38.7-5.1-17.1-4.2-35.1 4.2-49-1.2 9.3-1 14.3 2 22.6.9-18 8.5-30.7 22.8-41.5-5.7 9.6-8.6 22-7 31.9 6.3-25.9 24.1-37 36.7-40.6-4.3 5.4-7 11.5-8.2 18.2 9.4-19.6 27.8-22.3 37.8-28.3 7.2-4.3 4.2-12.3-.2-12.3-2.4 0-3.8 1.4-5.1 4 1-5.2 4.4-7.9 8-7.9 5.3 0 9.3 5.2 9.3 11.7 0 17.3-22.9 29.5-49 44.3-22.4 12.7-32.5 22.3-35.8 40-3.4 18 5.9 35.2 5.9 35.2s-8.6-29.6 4.6-47.9c12-16.6 30.3-23.9 47.3-33.9 18.7-11 35.9-22.6 30.7-41.5 9.5 9.5 12.7 24.3 5.3 33.4-9.6 11.7-28.5 14.2-36 21.7 13.2-6.6 25.2-4.1 34.7-7.9 9.3-3.7 9.2-14.3 9.2-14.3 3.8 13.1 0 28.4-15.4 34m-108.4 77.2c-7.4-.2-15.5 4.8-15.2 10.1-7.3-9.6 6.3-13.5 15.2-10.1m82.6-8.3c9.4 9.2-4.7 15.6-14.8 13.3 8-.9 16-7.6 14.8-13.3m18.7-30.2c5.7 8.7 4.5 24.1-7.4 18.5 5.7-.8 9.3-10.6 7.4-18.5m-95.8 80.8c-7.1 11.1-16.3-1.3-16.1-11.7 2.5 7.6 10.8 14 16.1 11.7"/><path fill="#3b2e83" d="m317.8-219.2c-12.8-21.2-8.6-44-2-51.8-8.3 7.4-12.7 13.2-14.5 25.5-7.7-6.7-12.5-8.7-21.7-10.5 14.2 8.8 19.8 19.8 24.2 34.7-4-7.4-10.5-13.1-18.2-16 6.3 6.1 3.9 11.7 7.9 21.7 2.5 6.4 6.6 10.4 10.5 12.3 0 0-5.6 1-10-4.1 7.6 23.6 33.5 14.1 46.2 25.4-10.8-5.2-27.5.2-27.5 15.6 0 9.6 8.2 17 16.8 17 8.5 0 13.6-5.8 13.6-11.3 0-4.9-2.5-7.4-5.1-8.3 2.6 3.6.4 8.5-4.1 8.5-3.1 0-6.3-2.5-6.3-6.5 0-6.3 5.8-8.8 10.8-8.8 6.7 0 13.1 2.9 15.1 8.5 2.7-23.7-23-31.1-35.7-51.9m114.3-42.9c-16.1 5.9-34.7-1.7-51.4 7.7 17.9-6.2 38.6-3.2 50.1 15.8-4.6-4.6-13.3-6.2-20-6.2 15.6 8.7 13.8 31.7-.5 36.2 0 0 4.6-3.2 4.6-11.5 0-11.1-9.8-20.3-28-20.3-12.4 0-22.9 5.2-27.5 13.9 4.9-5.8 13.3-9.9 22.6-9.9 13.3 0 18.6 9.8 18.7 17.5.1 8.1-5.1 13.6-9.4 15.9 5.7-6.3 1.2-14.9-6.8-14.9-11.7 0-16.5 14.1-14.3 25.7 2.7-9.8 7.9-15 17.6-16.7-7 5.6-9.7 11.4-8.6 20.9 6.2-13.6 18.5-6.8 24.2-20.4 1.4 7.6.1 19-10.8 24.3-12.2 5.9-22.4 3.2-32 14.4-2.7-22.6-17.3-27.7-31.2-42.6-18-19.3-17-46.1-8.3-60.4-2.1 14.3.5 27.4 9.2 38.7-5.1-17.1-4.2-35.1 4.2-49-1.2 9.3-1 14.3 2 22.6.9-18 8.5-30.7 22.8-41.5-5.7 9.6-8.6 22-7 31.9 6.3-25.9 24.1-37 36.7-40.6-4.3 5.4-7 11.5-8.2 18.2 9.4-19.6 27.8-22.3 37.8-28.3 7.2-4.3 4.2-12.3-.2-12.3-2.4 0-3.8 1.4-5.1 4 1-5.2 4.4-7.9 8-7.9 5.3 0 9.3 5.2 9.3 11.7 0 17.3-22.9 29.5-49 44.3-22.4 12.7-32.5 22.3-35.8 40-3.4 18 5.9 35.2 5.9 35.2s-8.6-29.6 4.6-47.9c12-16.6 30.3-23.9 47.2-33.9 18.7-11 35.9-22.6 30.7-41.5 9.5 9.5 12.7 24.3 5.3 33.4-9.6 11.7-28.5 14.2-36 21.7 13.2-6.6 25.2-4.1 34.7-7.9 9.3-3.7 9.2-14.3 9.2-14.3 3.9 13.1.1 28.4-15.3 34m-108.4 77.2c-7.4-.2-15.5 4.8-15.2 10.1-7.3-9.6 6.3-13.5 15.2-10.1m82.6-8.3c9.4 9.2-4.7 15.6-14.8 13.3 8-.9 16-7.6 14.8-13.3m18.7-30.2c5.7 8.7 4.5 24.1-7.4 18.5 5.7-.8 9.3-10.6 7.4-18.5m-95.8 80.8c-7.1 11.1-16.3-1.3-16.1-11.7 2.5 7.6 10.7 14 16.1 11.7"/><path fill="#3b2e83" d="m178-219.2c-12.8-21.2-8.6-44-2-51.8-8.3 7.4-12.7 13.2-14.5 25.5-7.7-6.7-12.5-8.7-21.7-10.5 14.2 8.8 19.8 19.8 24.2 34.7-4-7.4-10.5-13.1-18.2-16 6.3 6.1 3.9 11.7 7.9 21.7 2.5 6.4 6.6 10.4 10.5 12.3 0 0-5.6 1-10-4.1 7.6 23.6 33.5 14.1 46.2 25.4-10.8-5.2-27.5.2-27.5 15.6 0 9.6 8.2 17 16.8 17 8.5 0 13.6-5.8 13.6-11.3 0-4.9-2.5-7.4-5.1-8.3 2.6 3.6.4 8.5-4.1 8.5-3.1 0-6.3-2.5-6.3-6.5 0-6.3 5.8-8.8 10.8-8.8 6.7 0 13.1 2.9 15.1 8.5 2.7-23.7-23-31.1-35.7-51.9m114.3-42.9c-16.1 5.9-34.7-1.7-51.4 7.7 17.9-6.2 38.6-3.2 50.1 15.8-4.6-4.6-13.3-6.2-20-6.2 15.6 8.7 13.8 31.7-.5 36.2 0 0 4.6-3.2 4.6-11.5 0-11.1-9.8-20.3-28-20.3-12.4 0-22.9 5.2-27.5 13.9 4.9-5.8 13.3-9.9 22.6-9.9 13.3 0 18.6 9.8 18.7 17.5.1 8.1-5.1 13.6-9.4 15.9 5.7-6.3 1.2-14.9-6.8-14.9-11.7 0-16.5 14.1-14.3 25.7 2.7-9.8 7.9-15 17.6-16.7-7 5.6-9.7 11.4-8.6 20.9 6.2-13.6 18.5-6.8 24.2-20.4 1.4 7.6.1 19-10.8 24.3-12.2 5.9-22.4 3.2-32 14.4-2.7-22.6-17.3-27.7-31.2-42.6-18-19.3-17-46.1-8.3-60.4-2.1 14.3.5 27.4 9.2 38.7-5.1-17.1-4.2-35.1 4.2-49-1.2 9.3-1 14.3 2 22.6.9-18 8.5-30.7 22.8-41.5-5.7 9.6-8.6 22-7 31.9 6.3-25.9 24.1-37 36.7-40.6-4.3 5.4-7 11.5-8.2 18.2 9.4-19.6 27.8-22.3 37.8-28.3 7.2-4.3 4.2-12.3-.2-12.3-2.4 0-3.8 1.4-5.1 4 1-5.2 4.4-7.9 8-7.9 5.3 0 9.3 5.2 9.3 11.7 0 17.3-22.9 29.5-49 44.3-22.4 12.7-32.5 22.3-35.8 40-3.4 18 5.9 35.2 5.9 35.2s-8.6-29.6 4.6-47.9c12-16.6 30.3-23.9 47.2-33.9 18.7-11 35.9-22.6 30.7-41.5 9.5 9.5 12.7 24.3 5.3 33.4-9.6 11.7-28.5 14.2-36 21.7 13.2-6.6 25.2-4.1 34.7-7.9 9.3-3.7 9.2-14.3 9.2-14.3 3.9 13.1 0 28.4-15.3 34m-108.4 77.2c-7.4-.2-15.5 4.8-15.2 10.1-7.3-9.6 6.3-13.5 15.2-10.1m82.6-8.3c9.4 9.2-4.7 15.6-14.8 13.3 8-.9 16-7.6 14.8-13.3m18.7-30.2c5.7 8.7 4.5 24.1-7.4 18.5 5.7-.8 9.3-10.6 7.4-18.5m-95.8 80.8c-7.1 11.1-16.3-1.3-16.1-11.7 2.5 7.6 10.7 14 16.1 11.7"/><path fill="#3b2e83" d="m38.2-219.2c-12.8-21.2-8.6-44-2-51.8-8.3 7.4-12.7 13.2-14.5 25.5-7.7-6.7-12.5-8.7-21.7-10.5 14.2 8.8 19.8 19.8 24.2 34.7-4-7.4-10.5-13.1-18.2-16 6.3 6.1 3.9 11.7 7.9 21.7 2.5 6.4 6.6 10.4 10.5 12.3 0 0-5.6 1-10-4.1 7.6 23.6 33.5 14.1 46.2 25.4-10.8-5.2-27.5.2-27.5 15.6 0 9.6 8.2 17 16.8 17 8.5 0 13.6-5.8 13.6-11.3 0-4.9-2.5-7.4-5.1-8.3 2.6 3.6.4 8.5-4.1 8.5-3.1 0-6.3-2.5-6.3-6.5 0-6.3 5.8-8.8 10.8-8.8 6.7 0 13.1 2.9 15.1 8.5 2.7-23.7-23.1-31.1-35.7-51.9m114.3-42.9c-16.1 5.9-34.7-1.7-51.4 7.7 17.9-6.2 38.6-3.2 50.1 15.8-4.6-4.6-13.3-6.2-20-6.2 15.6 8.7 13.8 31.7-.5 36.2 0 0 4.6-3.2 4.6-11.5 0-11.1-9.8-20.3-28-20.3-12.4 0-22.9 5.2-27.5 13.9 4.9-5.8 13.3-9.9 22.6-9.9 13.3 0 18.6 9.8 18.7 17.5.1 8.1-5.1 13.6-9.4 15.9 5.7-6.3 1.2-14.9-6.8-14.9-11.7 0-16.5 14.1-14.3 25.7 2.7-9.8 7.9-15 17.6-16.7-7 5.6-9.7 11.4-8.6 20.9 6.2-13.6 18.5-6.8 24.2-20.4 1.4 7.6.1 19-10.8 24.3-12.2 5.9-22.4 3.2-32 14.4-2.7-22.6-17.3-27.7-31.2-42.6-18-19.3-17-46.1-8.3-60.4-2.1 14.3.5 27.4 9.2 38.7-5.1-17.1-4.2-35.1 4.2-49-1.2 9.3-1 14.3 2 22.6.9-18 8.5-30.7 22.8-41.5-5.7 9.6-8.6 22-7 31.9 6.3-25.9 24.1-37 36.7-40.6-4.3 5.4-7 11.5-8.2 18.2 9.4-19.6 27.8-22.3 37.8-28.3 7.2-4.3 4.2-12.3-.2-12.3-2.4 0-3.8 1.4-5.1 4 1-5.2 4.4-7.9 8-7.9 5.3 0 9.3 5.2 9.3 11.7 0 17.3-22.9 29.5-49 44.3-22.4 12.7-32.5 22.3-35.8 40-3.4 18 5.9 35.2 5.9 35.2s-8.6-29.6 4.6-47.9c12-16.6 30.3-23.9 47.2-33.9 18.7-11 35.9-22.6 30.7-41.5 9.5 9.5 12.7 24.3 5.3 33.4-9.6 11.7-28.5 14.2-36 21.7 13.2-6.6 25.2-4.1 34.7-7.9 9.3-3.7 9.2-14.3 9.2-14.3 3.9 13.1 0 28.4-15.3 34m-108.4 77.2c-7.4-.2-15.5 4.8-15.2 10.1-7.3-9.6 6.3-13.5 15.2-10.1m82.6-8.3c9.4 9.2-4.7 15.6-14.8 13.3 8-.9 16-7.6 14.8-13.3m18.7-30.2c5.7 8.7 4.5 24.1-7.4 18.5 5.7-.8 9.3-10.6 7.4-18.5m-95.9 80.8c-7.1 11.1-16.3-1.3-16.1-11.7 2.6 7.6 10.8 14 16.1 11.7"/><path fill="#3b2e83" d="m597.5-357.5c-12.8-21.2-8.6-44-2-51.8-8.3 7.4-12.7 13.2-14.5 25.5-7.7-6.7-12.5-8.7-21.7-10.5 14.2 8.8 19.8 19.8 24.2 34.7-4-7.4-10.5-13.1-18.2-16 6.3 6.1 3.9 11.7 7.9 21.7 2.5 6.4 6.6 10.4 10.5 12.3 0 0-5.6 1-10-4.1 7.6 23.6 33.5 14.1 46.2 25.4-10.8-5.2-27.5.2-27.5 15.6 0 9.6 8.2 17 16.8 17 8.5 0 13.6-5.8 13.6-11.3 0-4.9-2.5-7.4-5.1-8.3 2.6 3.6.4 8.5-4.1 8.5-3.1 0-6.3-2.5-6.3-6.5 0-6.3 5.8-8.8 10.8-8.8 6.7 0 13.1 2.9 15.1 8.5 2.6-23.7-23.1-31.1-35.7-51.9m114.2-42.9c-16.1 5.9-34.7-1.7-51.4 7.7 17.9-6.2 38.6-3.2 50.1 15.8-4.6-4.6-13.3-6.2-20-6.2 15.6 8.7 13.8 31.7-.5 36.2 0 0 4.6-3.2 4.6-11.5 0-11.1-9.8-20.3-28-20.3-12.4 0-22.9 5.2-27.5 13.9 4.9-5.8 13.3-9.9 22.6-9.9 13.3 0 18.6 9.8 18.7 17.5.1 8.1-5.1 13.6-9.4 15.9 5.7-6.3 1.2-14.9-6.8-14.9-11.7 0-16.5 14.1-14.3 25.7 2.7-9.8 7.9-15 17.6-16.7-7 5.6-9.7 11.4-8.6 20.9 6.2-13.6 18.5-6.8 24.2-20.4 1.4 7.6.1 19-10.8 24.3-12.2 5.9-22.4 3.2-32 14.4-2.7-22.6-17.3-27.7-31.2-42.6-18-19.3-17-46.1-8.3-60.4-2.1 14.3.5 27.4 9.2 38.7-5.1-17.1-4.2-35.1 4.2-49-1.2 9.3-1 14.3 2 22.6.9-18 8.5-30.7 22.8-41.5-5.7 9.6-8.6 22-7 31.9 6.3-25.9 24.1-37 36.7-40.6-4.3 5.4-7 11.5-8.2 18.2 9.4-19.6 27.8-22.3 37.8-28.3 7.2-4.3 4.2-12.3-.2-12.3-2.4 0-3.8 1.4-5.1 4 1-5.2 4.4-7.9 8-7.9 5.3 0 9.3 5.2 9.3 11.7 0 17.3-22.9 29.5-49 44.3-22.4 12.7-32.5 22.3-35.8 40-3.4 18 5.9 35.2 5.9 35.2s-8.6-29.6 4.6-47.9c12-16.6 30.3-23.9 47.2-33.9 18.7-11 35.9-22.6 30.7-41.5 9.5 9.5 12.7 24.3 5.3 33.4-9.6 11.7-28.5 14.2-36 21.7 13.2-6.6 25.2-4.1 34.7-7.9 9.3-3.7 9.2-14.3 9.2-14.3 3.9 13.1.1 28.4-15.3 34m-108.4 77.3c-7.4-.2-15.5 4.8-15.2 10.1-7.3-9.7 6.3-13.6 15.2-10.1m82.6-8.4c9.4 9.2-4.7 15.6-14.8 13.3 8.1-.9 16-7.6 14.8-13.3m18.7-30.2c5.7 8.7 4.5 24.1-7.4 18.5 5.7-.8 9.3-10.6 7.4-18.5m-95.8 80.8c-7.1 11.1-16.3-1.3-16.1-11.7 2.6 7.6 10.8 14 16.1 11.7"/><path fill="#3b2e83" d="m457.7-357.5c-12.8-21.2-8.6-44-2-51.8-8.3 7.4-12.7 13.2-14.5 25.5-7.7-6.7-12.5-8.7-21.7-10.5 14.2 8.8 19.8 19.8 24.2 34.7-4-7.4-10.5-13.1-18.2-16 6.3 6.1 3.9 11.7 7.9 21.7 2.5 6.4 6.6 10.4 10.5 12.3 0 0-5.6 1-10-4.1 7.6 23.6 33.5 14.1 46.2 25.4-10.8-5.2-27.5.2-27.5 15.6 0 9.6 8.2 17 16.8 17 8.5 0 13.6-5.8 13.6-11.3 0-4.9-2.5-7.4-5.1-8.3 2.6 3.6.4 8.5-4.1 8.5-3.1 0-6.3-2.5-6.3-6.5 0-6.3 5.8-8.8 10.8-8.8 6.7 0 13.1 2.9 15.1 8.5 2.6-23.7-23.1-31.1-35.7-51.9m114.2-42.9c-16.1 5.9-34.7-1.7-51.4 7.7 17.9-6.2 38.6-3.2 50.1 15.8-4.6-4.6-13.3-6.2-20-6.2 15.6 8.7 13.8 31.7-.5 36.2 0 0 4.6-3.2 4.6-11.5 0-11.1-9.8-20.3-28-20.3-12.4 0-22.9 5.2-27.5 13.9 4.9-5.8 13.3-9.9 22.6-9.9 13.3 0 18.6 9.8 18.7 17.5.1 8.1-5.1 13.6-9.4 15.9 5.7-6.3 1.2-14.9-6.8-14.9-11.7 0-16.5 14.1-14.3 25.7 2.7-9.8 7.9-15 17.6-16.7-7 5.6-9.7 11.4-8.6 20.9 6.2-13.6 18.5-6.8 24.2-20.4 1.4 7.6.1 19-10.8 24.3-12.2 5.9-22.4 3.2-32 14.4-2.7-22.6-17.3-27.7-31.2-42.6-18-19.3-17-46.1-8.3-60.4-2.1 14.3.5 27.4 9.2 38.7-5.1-17.1-4.2-35.1 4.2-49-1.2 9.3-1 14.3 2 22.6.9-18 8.5-30.7 22.8-41.5-5.7 9.6-8.6 22-7 31.9 6.3-25.9 24.1-37 36.7-40.6-4.3 5.4-7 11.5-8.2 18.2 9.4-19.6 27.8-22.3 37.8-28.3 7.2-4.3 4.2-12.3-.2-12.3-2.4 0-3.8 1.4-5.1 4 1-5.2 4.4-7.9 8-7.9 5.3 0 9.3 5.2 9.3 11.7 0 17.3-22.9 29.5-49 44.3-22.4 12.7-32.5 22.3-35.8 40-3.4 18 5.9 35.2 5.9 35.2s-8.6-29.6 4.6-47.9c12-16.6 30.3-23.9 47.3-33.9 18.7-11 35.9-22.6 30.7-41.5 9.5 9.5 12.7 24.3 5.3 33.4-9.6 11.7-28.5 14.2-36 21.7 13.2-6.6 25.2-4.1 34.7-7.9 9.3-3.7 9.2-14.3 9.2-14.3 3.8 13.1 0 28.4-15.4 34m-108.4 77.3c-7.4-.2-15.5 4.8-15.2 10.1-7.3-9.7 6.3-13.6 15.2-10.1m82.6-8.4c9.4 9.2-4.7 15.6-14.8 13.3 8-.9 16-7.6 14.8-13.3m18.7-30.2c5.7 8.7 4.5 24.1-7.4 18.5 5.7-.8 9.3-10.6 7.4-18.5m-95.8 80.8c-7.1 11.1-16.3-1.3-16.1-11.7 2.5 7.6 10.8 14 16.1 11.7"/><path fill="#3b2e83" d="m317.8-357.5c-12.8-21.2-8.6-44-2-51.8-8.3 7.4-12.7 13.2-14.5 25.5-7.7-6.7-12.5-8.7-21.7-10.5 14.2 8.8 19.8 19.8 24.2 34.7-4-7.4-10.5-13.1-18.2-16 6.3 6.1 3.9 11.7 7.9 21.7 2.5 6.4 6.6 10.4 10.5 12.3 0 0-5.6 1-10-4.1 7.6 23.6 33.5 14.1 46.2 25.4-10.8-5.2-27.5.2-27.5 15.6 0 9.6 8.2 17 16.8 17 8.5 0 13.6-5.8 13.6-11.3 0-4.9-2.5-7.4-5.1-8.3 2.6 3.6.4 8.5-4.1 8.5-3.1 0-6.3-2.5-6.3-6.5 0-6.3 5.8-8.8 10.8-8.8 6.7 0 13.1 2.9 15.1 8.5 2.7-23.7-23-31.1-35.7-51.9m114.3-42.9c-16.1 5.9-34.7-1.7-51.4 7.7 17.9-6.2 38.6-3.2 50.1 15.8-4.6-4.6-13.3-6.2-20-6.2 15.6 8.7 13.8 31.7-.5 36.2 0 0 4.6-3.2 4.6-11.5 0-11.1-9.8-20.3-28-20.3-12.4 0-22.9 5.2-27.5 13.9 4.9-5.8 13.3-9.9 22.6-9.9 13.3 0 18.6 9.8 18.7 17.5.1 8.1-5.1 13.6-9.4 15.9 5.7-6.3 1.2-14.9-6.8-14.9-11.7 0-16.5 14.1-14.3 25.7 2.7-9.8 7.9-15 17.6-16.7-7 5.6-9.7 11.4-8.6 20.9 6.2-13.6 18.5-6.8 24.2-20.4 1.4 7.6.1 19-10.8 24.3-12.2 5.9-22.4 3.2-32 14.4-2.7-22.6-17.3-27.7-31.2-42.6-18-19.3-17-46.1-8.3-60.4-2.1 14.3.5 27.4 9.2 38.7-5.1-17.1-4.2-35.1 4.2-49-1.2 9.3-1 14.3 2 22.6.9-18 8.5-30.7 22.8-41.5-5.7 9.6-8.6 22-7 31.9 6.3-25.9 24.1-37 36.7-40.6-4.3 5.4-7 11.5-8.2 18.2 9.4-19.6 27.8-22.3 37.8-28.3 7.2-4.3 4.2-12.3-.2-12.3-2.4 0-3.8 1.4-5.1 4 1-5.2 4.4-7.9 8-7.9 5.3 0 9.3 5.2 9.3 11.7 0 17.3-22.9 29.5-49 44.3-22.4 12.7-32.5 22.3-35.8 40-3.4 18 5.9 35.2 5.9 35.2s-8.6-29.6 4.6-47.9c12-16.6 30.3-23.9 47.2-33.9 18.7-11 35.9-22.6 30.7-41.5 9.5 9.5 12.7 24.3 5.3 33.4-9.6 11.7-28.5 14.2-36 21.7 13.2-6.6 25.2-4.1 34.7-7.9 9.3-3.7 9.2-14.3 9.2-14.3 3.9 13.1.1 28.4-15.3 34m-108.4 77.3c-7.4-.2-15.5 4.8-15.2 10.1-7.3-9.7 6.3-13.6 15.2-10.1m82.6-8.4c9.4 9.2-4.7 15.6-14.8 13.3 8-.9 16-7.6 14.8-13.3m18.7-30.2c5.7 8.7 4.5 24.1-7.4 18.5 5.7-.8 9.3-10.6 7.4-18.5m-95.8 80.8c-7.1 11.1-16.3-1.3-16.1-11.7 2.5 7.6 10.7 14 16.1 11.7"/></pattern><pattern id="2" xlink:href="#0" patternTransform="matrix(0.5214 0 0 0.5214 -2928.3843 -4227.1147)"/><pattern id="1" xlink:href="#0" patternTransform="matrix(0.5214 0 0 0.5214 -2928.3843 -4227.1147)"/></defs><g fill="#f0f0f0"><path d="m1.9 271.3c3.8 2 10.9 10 6.5 15.7-5.4-6.6-6.7-4.9-6.5-15.7"/><path d="m40.3 273.3c.2-4.4 8-.8 10-1.6-1.7 5.3 1 23.6 2.3 29.6.3 1.6 19 25.2 19.7 19.4-3.2-6.6-2.5-11.2 1.9-13.7-.3 2 2.5 53.1 3.2 53 3.5-.7 4.4-7.4 7.1-7.6 3.1-.2-23.4 35.1-15 38.6-6.1-2.5 13.4-6.6 13.9-4.9 0 .2-28.6 19.6-31.6 26.5-4.6-9.6 16.2-41.5 18.4-53.6-.3-25.8-3.2-24.6-17.1-40.1-1.8-1.7-16.2-12.8-19-6.9-4.2 9.3-17.5 5.5-20.3 15.6-2.2 6.6 4.6 30.9 15.4 21.4 9.8-9.1-4.2-13.4.7-21.1 9.4-.5 13.7 9 14.4 14.2-.9-.8-5.9 19.7-5.9 20.5.4 5.1 5.5 8.9 6.3 13 2.2 7 8.3 1.4 6.4 8.5-3.1 5.1-7.5 13.2-7.8 19.7-.3 1.7 2.6 34.5 8.1 21.4 4.8-6.7 18.5-6.7 22.2-12.5 13.3-6.4 40.7-23.8 17.7-40.4-5.5-4 28.5-60.2-5-49.4 3.9-19.1-1-20.1-9.6-34 4.6-7.8 18.9-.1 13.4-17.1 5-2 17.9-1 22.5.1-23.9 19.4 8 33.9 9 13.5.9-7.8 21.1 2.3 22 .7 1.4-2.6 15.6-15.1 3.8-14.3 10.5-1.8 21.1-.4 26.3 10.5-19.1 1.1-23.3 3.2-37.7 14.4-11.9 6.2-9.6 25.3-18.7 34.1 7.1 4.3-18.3 79.2 6.7 94.4 24.9 22.7 52.2 11.9 67.6-13.3 6.1-13.8-7.6-47.8-11.5-23.1-3.5 11.9-9.9 20.3-23.8 20.3 4.9-8.5 28.5-18.9 17.3-35.4-3.7-5.5-6.7-1.9-9.1 5.3-1.3 2.5-21.1 18.3-20 8.4 8.5-1.8 23.9-26 13.7-25.7 3.3-.1-37.4 15.9-23.8-1.7 18.8 3.9 18.6-14.2 16.6-13.8-6.4 0-15.9-12.5-5.4-14.7 5 24.9 20.7-5.4 11.1-5.4-7.8-6.1-5.3-15.7.3-21.8 15.3-2.7 56.2-15.9 65.3 8.9-9.5 4.2-23-4.8-18.4 15.9 1.8 5.7 18.9-2.1 25.2-1.5 12.5 2 19.8 18.2 28.9 20.1 4.5 2.7 4 13.8 8.1 3.7 4.6-11 19.4-21 29.2-23.7 7.5-1.1 13-1.6 20.1 1.4 6.9 10.2 8.2-9.8 6.5-9.8-.1 0-12.8-7.2-18.2-6.7 10.4-16.3 46.7-21.2 62-12.1 4.3 2.9 5.3 6.6 7.8 11 .2 7.4-9.1 14.6-8.9 16.1-.8 12.9 17.1 16.6 16.2 3.3 3.6-.9 1.8 13.4-8 14.3 1.9.2-.3 27.4 17.7 13.4 6 .3-16.9 20-18.8 4.8-.5-4.9-13.1 4.2-5.1 12.5 4.8 5.1 6.3 7.9 13.7 9 6.9 8.5-35-14.1-23.3-15.8-26.1-2.5 10.1 38.9 10.4 36.5-7.2 12.5-20.7-16-22.2-19.1-11.5-18-4.6.6-12.8 9.5-10.6 2.9 10.3 34.1 18 35.5 4.1 1.3 47.7 6.8 47.7-6.7 30-47 17.3-143.1-45.9-143.1 0-9.6 20.2-10.2 24.4-9.7-1.9 1.5-3.2 3.4-4 5.7 1.8 6.9 14.1 6.3 18.3 5 13.3-.4 16 3.1 22 13.6 6.3 4.9 6.5-18.8.4-24 15-1.7 17.7-3.1 20.5 10.4-.5 4.7 13.1 4.6 14.6 5.4-1.8 1.9-9.8 7.2-10.6 10.3-.9 3.5-.2 23.3-.7 23.7-.9.8-24.2-4.4-12.6 11.2 5.1 9.7 4 25.2 8.6 36.5-28.9 10 9.7 38.9 22.2 41.9 3.6 1 23.7 16.9 22.4 9 7.5-11.8-1.3-31.8-8.9-40.3 4.3-2.3 12-7.8 12.9-13.5 1.8-6.8-6.6-28.4-2.3-31.3 7.8-3.3 21.2-17.6 9.8 2.5 1.7.6 2 10.1 10.3 9.5 7.5-.3 3.7 25.8 3.8 32.4.1.7-11.2 35.1-2.3 32.4-9.8 5.4-6.7 17.5-2.6 24.7 0 3.5 5.8 3.7 4.4 11.9-2.2 13 3.1 27.4-.3 40.1-7.2 22.7-26.1 6.9-37.4 14.4.2 0 22.7 49.9 36.6 13.6 3.4 1.6 1.6 28.5 1.5 33.6-6-4-4.9-14.1-8.5-16.3 1.3 1.3-31.6 17-28.9 25.6 8.9.7 16.9-11.5 22.9.6-2.2 0-20.1 4.1-13 8.2 5.2 2.9 15.4-3.9 15.4 9.3-.9 11.3-26.1 2.2-27.2 4.8-1.7 32.8 21.9 18.1 39 14.8 0 26.8-.3 12.6-17.3 20-5.4 2.4-8.6 16.2-8 15.8-2.6 1.8 6.6 21 10.4 16.5 3.1-3.6-2-13.4 7-12.1-5.3 12.5 6.8 8.8 7.9 13.5 4.2 18-37.7 13.6-43.9 13.8 0-19-8.4-33-27.9-35.3-24.9-1.5-31.2 7.5-44.5 24.3-8.9 7 2.3 14.1-14.9 11.2-6.6-1.1-7.1-11.7-14.9-12.9-3.4-1.8-35-19.1-36.4-18.7-7.8 2.6-1.7 25.5-.6 30.9-11.1 1.2-22.2.2-33.2.5 2.2-5.7 4.9-19.9-3.9-21.4 4.9-10.3 24 5.8 19.6-20.3-.3 1.6-6.1-8-5.6-7.3 6.9-4.2 5.1-14.9 3.9-21.5-.8-4.3-8.6-7.8-10.8-11 4.3-7.4-1.2-9.6-2.2-14.5-.6-3.1-14.2-23.2-14.3-22.8-3.7 9.1 3.1 22.4-12 24.1-13.7 0-8-16.7-12.8-24.4-.1-.1-24.5 47.6-26.3 48.3-7.5 3.1 4.8 26-4.4 33.7-3.1 1.4.8 13.3 4.4 14.9 5.8 2.8 10.5 1 16.4.5-4.4 5.4-9.8 10.1-5.1 20.4-2.4 4.1-31.6 3.8-32-1.4 1.2-8.1 2-14.1.7-22.4-2-6.1-24.9 10.3-32.9 13.1-13.3 3.9-13.2 12.3-26.8 12.1-11.4-.1-17-30.2-29.5-27.1-18.8-3.1-48.3-5.6-54.2 18.8-6.4 20-38.3 4.5-55.9 3.4 0-10.9 5.9-18.5 5.9-8 0 5.3 3.2 5.8 8.2 5.4 8.6-.7 3-9.9 5.6-14.4 4.8 2.5 4.3 14.4 7.2 14.5 9 2.2 12.4-25 6.1-27.5-4.5-4-26.1-13.6-26.9-3.3-10.5 10.9-7.4-20.8-3.9-23.9.7-8.4 11.7 1.7 16.6 3.7 20.7 15.7 40.9-15.4 34.4-17.8-2.4-.9-29.9 3.1-27.9-3.6-.5.7 17.8-19.9 17.6-11.8-.3-10.5-12-1.9-13.4-8.8 6.8-7.1 21.5 4.2 24.1 1.4 6.9-7.5-22.1-18.3-21.3-17.4-10.1-8.5-8.8-3.2-15.8 7.9-9.4 11-28.1-3.1-9.1-5.6 16.4-3.8 2.9-22.2 8-31.5 10 7.8 9.3 16.5 25 14.2 1.7-1.2 22.3-23.1 15.9-25.2-9.4-2.3-27.1 6.9-31.9-5.6-5.7-9.7-13.9-17.1-24.2-10 .1-6.9-4-20.5 4.2-21.6 2.9-.4 6.6-5.6 6.9-8.4 1.2-7.8.7-14.8-5.5-20.1 6.9-5.5 21.9 8.3 21.4-12.1-.1-2.3-1.9-9.1-4.6-10.5-7.1-12.6 1.1 0 .5-9.6.5-4.8 2.1-25-6.8-27.4-9.8-4 .6-13.9-6.7-19.7-12.8-15.6-20.4-57.8 2.3-68 8.4-4.6 21.3 7 25.6 3.7 8.7-5.7 3.9-17.6 1.2-24.8m314.4 30.2c-19.7 7.7-7.7 28.5-17.9 41.5.9.1-12.7-6.9-10.6-3.5 3.4-7-19.3 6-8.5 15 6.1 5.1 15.5.9 20-.6.4.6 5.9 24.4 8.2 12.2 7.8-2 7.1-27.3 6.8-32.3-.6-10.8 3.1-11.1 8-16.4 7.8-8.5-6-15.5-6-15.9m-190.9 3.9c-1-.1 8.3 29.9 8.7 34.6 1.7 12.2-1.5 17.1 3.8 25.6 10.1 16 7-12.1 11.7-11.3-2.3 6.1 16.9 1.9 18.4 1.5 13.8-16.4-15.7-15.3-15.6-15.1-8.8 7.6-7.4-55.2-27-35.5m114.5 40.2c-4.2 8.7-.4 41-12.4 39.2 0-4.3 1.7-15.7-3.5-18.4-5.3-2.7-5.5 18.4-5.6 18.8-5.2-.5-9.5-9.5-8.7-15.4 2.9 1.8 2.3-17.3 2.4-14.2-3.3-7.5-10.9-7-10.5-6.5-5.3 3.5-5.4 4.7-7.7 10.8-2.6-1-10.1-.8-12.3.8-4.5 3.3-2.2 14.6-1.6 18.8 1.4 9.7 13.6-16.7 14.9 2.7-12.8 22.3 14 38 25.7 17.7.3.1.6.3.8.5-1.6 5.6-9.8 27.6-18.7 22 .4-.3-14.9-23.2-14.3 3.3-6.1-1.6-6.8-14.9-7.3-14.8-10.4 1.9-13.3 25.9-5.5 32.4 10.2 8.4 28.7-.1 38.7-3 8.7-.8 4.1-5.8 12.7-3.8 3.8 2.4 17.3 8.2 21.6 8 35.5 17.7 22.8-37.9 15.7-33.6-4.1 2.5.2 12-6.7 13.9 2.3-10.1-2.6-16.8-11.9-12.9-5.2 1.2 3.1 12.4-9.1 8.7-1.6-7.1-12.7-11.5-11.9-20.5 2.5 2.6 33.4 13.7 28.8.8 3.5-9.5-3-18.3 0-24.9 2.7-6.1 9.6 4.9 9.6 4.5 23.4-4.9-23.2-36.7-23.3-35.4m144.1 71.9c6.9-.8-3 19.8-5 21.7-6.1 6-17.7 1.5-23.9-2.5-9.6-6.1-13.7.2-11.2 8.1 4.3 17.9-.8 12.4-8.6 20.5.4 5.1-25.5-5.3-27.8-10.8-2.5-5.9-1.5-21.4-5-25.1-10.5-10.9-10.3 23.8-7.3 28.2 4.6 7 12.8 11.7 19 17.5-.6 4.4-7.1 4.6-4.6 12.5-1.5 3.2 16.1 8.4 16.8 5 2.6-12.2-6.8-.5 5.6-15.8 4.2 2 15.6-5.2 19-7.3 1.3.5 5.5-8 5.4-9.2-1-11.3 7.5-5.4 14.1-5.9 10.4-.8 16.5-3.3 24.8-8.4 7.2-2.5 19.9-7.2 25.3-1.4 12.9 13.7 4.8 13.8 10.4 30.7-5.4-2.7-17.4 10.6-27.4 2.8-.5.8-3-9.6-3-9.8-.6-6.8 10.6-8.4 10.6-12.1 0-6.3-14.6.2-14.3.8-5.3 5.5-6.5 11-5.9 19.7-1 2.2 8.4 12.7 9.6 11.9.5 1.6-7 16.8-8.5 19.1-7.2-7.5-9.6-18.2-21.6-20.1-7.6-.2-30 11.9-20.7 22.4-1-5.5-14-17-20.4-10.3-5.5 5.7-3.3 26.6-.5 32.8 3.8 4.5 15.7 13.9 13.6-.6-1.9-2.4 9.6 6.3 9.6 6.3 0 10.4-1.4 12.8-6.9 18.6-18.6 19.8-28.5-21.2-38.6-17.6 1.4-2.4-14.4-11.3-15.6-13.2-1.8 3.8-7.7-19 .1-19.5-6.9-.9-13.1 5.3-21.4 3.8-2.1-.6-.6-3.9-4.2-2.7-.4 4.4 22.4-9.4 13.5-10.6-14.2-2-9.9.7-13.5-11.3 12-9.4 22.7 4 26-8.8 8.2-11-18.7-16.6-21.2-16.9-5.6 2.7-24.2 15.6-28.8 14.6-1.6-.4-3.4-18.6-6.1-21.9-1.8-7.2-13.9-6.3-14.5-7.7-17.6 3.9-10.8 17.4-17.1 29.7-9.3 1.1-54.9-32.9-51.1 5.7.7 6.7 15.5 3.4 21.7 2.6 4-6.7 4.3 21.1.6 14.7-2.7 5-11.6-2.1-11.6 4.4-.6 6 11.8 2.7 13.8 4.4-12.2 10-12.6-.9-23.8.9-1.5.4 1.1 11.5 4.2 10.6-1 1.5-1.9 5.8-5.9 10-1.1-1.1-12.9 11-12.9 11-4.6-3.2-24.4 34.6-41.9 22.2 1.7-3.1-9.6-16.7 1-27.8-1.4-.2 17 12.9 13.2 7.9 12.6-.7 3.8-24.8 4-29.3-4 .3 1.8-18-13.6-7.6-1.3-.8-6.4 7.5-7.3 8-2-42.3-45.2-7.7-40.8-.8-2.1 2.5-7.1-19.7-10.9-16.5 2.3 3.3 12-18.2 12-21.4-.1-8-14.5-15.9-14.5-15.9-10.8-.1 4.7 10.1 2.5 17.9-2.4 8.3-19.3 14.8-23.7 9.2-16.1-20.1 3.5-51 26.5-36.1 12.7 8.2 27.2 9.9 42.8 7.5 3.4 12 4.1 20.3 19.1 22 6 2.1 9.5 3.3 14.6 6.5 5.8 6.7-6.9 7.9-2.5 12.2 10.8 10.5 23.8-23 9-17.4-.3-1.3 15.1-10.2 16.4-13.6 2.3 1.4 14.8-35.2 3.3-37.5-5.6-1.1-9.5 23-10.6 27.2-3.4 13.1-22 10.7-29.7 11.4-19.2 1.8 6.2-28.8-10.6-30-12-.9-17.4 14.5-32.4 4-2.9-2-8.8-32.8-13.2-16.8-3.2.5-1.8 10.3-2.9 12.5-.4-1.4-15.8-4.2-17.7-4.2-3.7-.1-26.6 10.4-24.1 13.1-6.7 8.8-8.2 20-4.6 31.2-2.2 9.3 22.1 21.8 22 22-2.8-.2-3.2 6.4-3.1 6.4 8.5 4.9 16.2-12.3 16.8 4.6-2.7 1.3-7.4 12.6-4.7 15.2.5 6.3-4 28.6 3.7 31.7 4.9 2 10.4-19.3 19.7-1.8 6.9 13 18.7 25.5 33.8 25.6 6 0 53.5-21.7 48.6-28.7-3.3-1.6 56-41.2 56.1-40.8-1.3-1.4 31.6-7 32.7-7 0-3 29.6 12.9 31.5 12.1 0-.2 47.4 37.6 47.3 37.6 9.9 9.1 39.3 33.9 54.3 20.2 4.7 2 19.1-15.2 19.1-19.5 3.6-1 7-8.4 11-10.4 5.7-2.8 11.6 7.2 13.1 5.6 14.8 0-7.3-61 8.5-51.1 2.4 2.7 5.3 3.5 8.5 2.5 2.6-.9-2.9-7.2-2.1-7.8 5.6-4.1 39.6-27 21.7-41-3.5-8-7.9-10.3-13.4-17.8.5-.6-31-8.4-32.3-1 .7 4.2-9.8-28-12.3-16m-167.3 91.3c-11 0-77.5 44.2-73.3 59-.3-1.1 38.9-26.1 38.5-27.7.9.2 29.1-12 28.8-11.5 8.3 1.2 6.3 8.8 4.1 16.5-1.9 2.2 6.8 11.7 8.9 6.7 4.4 1.4 3.7-15.3 2.6-17.1 5.2-7.5.3.4 11.7-5.6.2.2 27.3 11.6 26.9 12.2 2.8 8.2 30.2 18.8 33.2 25 0-18.2-65.8-66.3-81.1-56.9m83.5 63.1c-4 .4-22.9 6.8-20.5 10.6-.2 1.2-8.5 25.3-5.1 24.4 7.5 31.4 27 16.5 46.4 22.6.6 5.4 12.9 21.7 12.6 13.5-.8-19.6.1-10.5 11.6-22.5 1.9 1.6 27.6 8.5 27 6.1 2.1-.5-4.7-16.9-3-21.6 7.1-15 35.7-4.7 39.8 9.2 1 3.5-.5 24.6 8.5 21.6 17-5.7-6.1-37.9-10.3-42.2-4.2 9.2-5.3-15.2-2-11 4.2-14-15-9-15.3-9.6 10.7 15-29.1 22.7-27.9 24.1-1.4 1.5-3 4.5-3.2 6.4-.7 10.1-1.3 3.9-8 7.9 1.5-8-28.5 5.5-30.7 6.1-15.1 9.5-38.4 1.1-36-18.4 4-20.7 15.3-10.8 29.1-10.8-.5.7 2.6 10.2 1.5 12.5-1.1 2.2-10.1 4.3-8.9 7.8 2.3 6.5 27.5-5.9 17.6-23.4-2.8-4.9-15.6-19.3-23.5-13.1m-167.3 4.1c-32.5 0-10.7 50.2 1.5 35.4 2.2-2.6-13.2-5.2-8.6-16.3.8-1.9 3.7-4.6 4.6-6.7 6.7 4.3 19.4-6.8 24.6 8 6.3 32.8-21 20.4-37.9 23.7-10.2-2.3-16.9-6.2-29.7-5.6-8.8-3.1-6.1-14.9-14.8-16.5-5.3-4.8-34.9-4.7-22-18.3-.3-1.4-.6-2.7-1-4-18.4-3.8-14.4 21.1-10.5 19.2-.2 1.5-15.6 12.2-17.7 16.5-10.8 11.3 3.7 42.3 6.3 21.8 8.2-20 4-28.1 30.9-28.6 23.2 8.1-5.7 28.1 17.3 28.1 9.2-2.6 11.7-8 23-6.9 3.7.8 7.7 11.1 9.1 11.4-1.6-4.7-.1 25.8 5.8 10.3 8.2-2.5.4-12 9.2-13.9 2.8 1.4 9.2 3.3 11.7 1.7 4.6 0 25.9-4.1 25.3-12.9 4.7 1.6 8.1-33.3 2.7-32.7-2-12.5-30.6-16.2-30.2-13.6"/><path d="m189.6 272c5.6-1.6 15.5 2 13.4 10.5-5.3 1.9-10.9-7-13.4-10.5"/><path d="m205.2 271.3c9.3 2.3 14.1 7.9 23.7 4.9 14.7-1.9 12.7-9.9 20.1 6.7 3.1 6.4 4.8 34.4 12.8 37.5 8.4 2.4 11.4-30.1 11.9-31.6 7.9-12.4-1.4-18.5 17.1-17.3 9.9 14.2 19.8-.1 29.1-.1-6.6 13.9-20.4 15.5-30.5 23.9-3.8 3.2-23.4 37.7-27 38.5-1.6-6.4-19.4-38.5-25.9-37.2-7.8-1.6-31.2-16.5-31.2-25.2"/><path d="m327.8 272c4-2.6 7-2.6 8.9-.1-.3 2.2-9.1 10.3-12.1 10.3-3.4-1.5 2.7-9.3 3.2-10.2"/><path d="m473.1 275.4c-2-4.8 8.6-7.5 9.1-.1.2 3.2-3.8 6.2-3.8 10.3 0 19.1 14.6 6.1 24.2 6.1-.1 8.6 0 17.2.1 25.9-.4 4-7.2-1.4-6.9 2.6-1.2-1.2-4.4-9.9-7.4-9.6-9.5-1.2-33.3 9.8-33.1 22.6.2 13.3-5.4 31.6 3.1 44.9 3.5 5.5 17.6 24 12.6 30.8-2.9-1.3-8.1-15.4-11.5-14.1-5.5-.9-16.8-6-20.3-10.7 1.9-3.4 15.7 5.1 14.6-2.8-.2-1.4-2.2-11.2-4.5-11.8-2-.6-14-11.9-10.8-19.3-.4 0 8 9.2 8.5 7.1 2.1-3.5 3.1-52.2 4.4-49.9 1.8 3.3.8 22.2 10.7 5 8.2-1.4 13.4-32 11.2-36.8"/><path d="m407.3 511.4c16.3-4.7 14.6 18 18.2 26.3-10.7 0-7.9 1.3-15.4-4.2-4.3-5.3-7.3-1.9-12.7-1 6.3-7.9-7.9-14.1 9.9-21.1"/><path d="m108.8 515.5c18.5-3.9 15.1 10 14.2 20.9-7.7 0-10.9-5.9-12.7 5.6-1.3.4-11.7 6.8-12.6 1.3-2.1-6.5 2.2-26.8 10.9-28"/><path d="m258 601.9c9.8-1.9 19.8 25 18.5 32.4-5.5 8.2-9.4 2.3-9.1 14.3 0 10.1-13.1 13.9-12.4 10.5-2-1.7-1.6-6.3-3.1-8 1.3-12.3-8.2-10.4-9.1-21.7 2.8-5.9 9.6-27 15.6-27.4"/><path d="m324.5 648.9c5.2 4.8 8.7 10.2 14.4 14.6-10.3 9.1-15.6-8.1-14.4-14.8"/><path d="m424.9 655.7c5.2-4 15.3 4.4 17.2 8.6-3.4.1-18.2-3-17.2-8.6"/><path d="m84.7 662.5c2.7-.2 5.3-.3 8-.5-2.8 4.9-16.3 2.9-8 .5"/></g><g stroke="#000" stroke-width="2.607" stroke-miterlimit="10"><path d="m146.2 611l12.5-1 .6 7.5c1.6-3.2 3.3-5.6 5.1-7 1.8-1.5 4.1-2.3 6.8-2.5 3.7-.3 6.7.9 9 3.7 2.3 2.7 3.7 7.1 4.2 13.2l2.4 29.2-13.4 1.1-2-25.3c-.2-2.9-.8-4.9-1.7-6-.9-1.1-2.1-1.6-3.6-1.5-1.6.1-2.9 1-3.7 2.7-.9 1.7-1.1 4.6-.8 8.8l1.8 22.1-13.4 1.1-3.8-46.1z"/><path d="m181.5 625.8c.6-2.6 2.6-4.4 6.1-5.3 3.4-1 7.8-.8 13 .4 5.9 1.4 10.2 3.4 12.8 6.1 2.1 2.2 2.8 4.4 2.3 6.7-.6 2.6-2.6 4.4-6 5.4s-7.8.8-13.1-.4c-4.8-1.1-8.5-2.7-11.1-4.8-3.3-2.7-4.6-5.3-4-8.1zm11.4 2.6c-.4 1.5-.1 2.8.8 3.7.9 1 2.2 1.7 3.8 2 1.6.4 3.1.3 4.3-.1 1.2-.5 2-1.5 2.4-3.1.3-1.5.1-2.7-.8-3.7-.9-1-2.1-1.6-3.7-2-1.7-.4-3.1-.3-4.4.1-1.2.7-2 1.6-2.4 3.1z"/><path d="m245.2 588.7l-4.1 19.2 9.6 2-3 14.2-9.6-2-3.8 17.9c-.5 2.2-.6 3.6-.4 4.4.3 1.2 1.2 2 2.7 2.3 1.3.3 3.2.2 5.7-.1l-1.6 13.6c-4.5.1-8.7-.2-12.4-1-4.4-.9-7.4-2.2-9.2-3.9-1.8-1.7-2.9-3.9-3.4-6.6-.5-2.7-.1-6.9 1.1-12.6l3.8-17.8-6.4-1.4 3-14.2 6.4 1.4 2-9.3 19.6-6.1z"/><path d="m250.3 596.9l13.1-1.9 2.5 17.4c1.5-2.1 3.1-3.7 4.8-4.7 1.6-1 3.7-1.7 6.1-2.1 3.6-.5 6.5.2 8.9 2.1 2.4 1.9 3.9 5.1 4.5 9.6l3.1 21.8-13.2 1.9-2.7-18.8c-.3-2.1-.9-3.6-1.8-4.4s-2.1-1.1-3.5-.9c-1.6.2-2.8 1-3.6 2.4s-1 3.6-.6 6.7l2.3 16.4-13.1 1.9-6.8-47.4z"/><path d="m298.6 620.6l9.8 2-5.2 25.6-9.8-2 5.2-25.6zm2-9.8l9.8 2-1.4 6.7-9.8-2 1.4-6.7z"/><path d="m307.7 629.5l8.5-1 .4 3.5c1.1-1.6 2.3-2.7 3.5-3.5 1.2-.8 2.8-1.2 4.7-1.5 2.5-.3 4.6.2 6.2 1.4s2.5 3.2 2.9 6l1.5 13.6-9.2 1-1.3-11.7c-.2-1.3-.5-2.3-1.2-2.8-.6-.5-1.4-.7-2.4-.6-1.1.1-2 .6-2.6 1.4-.6.8-.8 2.2-.6 4.2l1.1 10.2-9.2 1-2.3-21.2z"/><path d="m357.4 615.9l7 1.5-7 33.1-.4 1.5c-.5 2.2-1.2 4.2-2.1 6.1-.9 1.9-2 3.3-3.1 4.4-1.1 1.1-2.4 1.7-3.8 2-1.4.3-3 .2-4.7-.1-3.9-.8-6.3-2.4-7.4-4.9-1-2.4-1.1-5.4-.4-8.9.1-.4.2-1 .4-1.8l6.9 3c-.1 1.2 0 2.1.3 2.7.4.8 1 1.3 1.8 1.5 1.1.2 2-.1 2.7-1s1.4-2.7 1.9-5.2l1.1-5.3c-1.1 1.4-2 2.4-2.9 2.9-1.4.9-2.7 1.1-4.1.9-2.6-.5-4.3-3-5-7.5-.5-3.1-.3-7.1.7-11.9 1.2-5.5 2.8-9.5 4.8-12 2.1-2.6 4.3-3.6 6.6-3.1 1.5.3 2.7 1 3.4 2.2.8 1.1 1.4 2.9 1.8 5.2l1.5-5.3zm-10.6 15.5c-.5 2.5-.6 4.5-.3 5.8.3 1.3 1 2.1 2 2.3.9.2 1.8-.3 2.7-1.4s1.6-3 2.2-5.5c.5-2.6.6-4.6.3-6.1-.4-1.5-1-2.3-2-2.5-.9-.2-1.8.3-2.7 1.4-.9 1.1-1.6 3.1-2.2 6z"/></g><path fill="url(#1)" d="m146.2 611l12.5-1 .6 7.5c1.6-3.2 3.3-5.6 5.1-7 1.8-1.5 4.1-2.3 6.8-2.5 3.7-.3 6.7.9 9 3.7 2.3 2.7 3.7 7.1 4.2 13.2l2.4 29.2-13.4 1.1-2-25.3c-.2-2.9-.8-4.9-1.7-6-.9-1.1-2.1-1.6-3.6-1.5-1.6.1-2.9 1-3.7 2.7-.9 1.7-1.1 4.6-.8 8.8l1.8 22.1-13.4 1.1-3.8-46.1"/><path fill="url(#2)" d="m181.5 625.8c.6-2.6 2.6-4.4 6.1-5.3 3.4-1 7.8-.8 13 .4 5.9 1.4 10.2 3.4 12.8 6.1 2.1 2.2 2.8 4.4 2.3 6.7-.6 2.6-2.6 4.4-6 5.4s-7.8.8-13.1-.4c-4.8-1.1-8.5-2.7-11.1-4.8-3.3-2.7-4.6-5.3-4-8.1m11.4 2.6c-.4 1.5-.1 2.8.8 3.7.9 1 2.2 1.7 3.8 2 1.6.4 3.1.3 4.3-.1 1.2-.5 2-1.5 2.4-3.1.3-1.5.1-2.7-.8-3.7-.9-1-2.1-1.6-3.7-2-1.7-.4-3.1-.3-4.4.1-1.2.7-2 1.6-2.4 3.1"/><path fill="url(#3)" d="m245.2 588.7l-4.1 19.2 9.6 2-3 14.2-9.6-2-3.8 17.9c-.5 2.2-.6 3.6-.4 4.4.3 1.2 1.2 2 2.7 2.3 1.3.3 3.2.2 5.7-.1l-1.6 13.6c-4.5.1-8.7-.2-12.4-1-4.4-.9-7.4-2.2-9.2-3.9-1.8-1.7-2.9-3.9-3.4-6.6-.5-2.7-.1-6.9 1.1-12.6l3.8-17.8-6.4-1.4 3-14.2 6.4 1.4 2-9.3 19.6-6.1"/><path fill="url(#4)" d="m250.3 596.9l13.1-1.9 2.5 17.4c1.5-2.1 3.1-3.7 4.8-4.7 1.6-1 3.7-1.7 6.1-2.1 3.6-.5 6.5.2 8.9 2.1 2.4 1.9 3.9 5.1 4.5 9.6l3.1 21.8-13.2 1.9-2.7-18.8c-.3-2.1-.9-3.6-1.8-4.4s-2.1-1.1-3.5-.9c-1.6.2-2.8 1-3.6 2.4s-1 3.6-.6 6.7l2.3 16.4-13.1 1.9-6.8-47.4"/><path fill="url(#5)" d="m298.6 620.6l9.8 2-5.2 25.6-9.8-2 5.2-25.6m2-9.8l9.8 2-1.4 6.7-9.8-2 1.4-6.7"/><path fill="url(#6)" d="m307.7 629.5l8.5-1 .4 3.5c1.1-1.6 2.3-2.7 3.5-3.5 1.2-.8 2.8-1.2 4.7-1.5 2.5-.3 4.6.2 6.2 1.4s2.5 3.2 2.9 6l1.5 13.6-9.2 1-1.3-11.7c-.2-1.3-.5-2.3-1.2-2.8-.6-.5-1.4-.7-2.4-.6-1.1.1-2 .6-2.6 1.4-.6.8-.8 2.2-.6 4.2l1.1 10.2-9.2 1-2.3-21.2"/><path fill="url(#7)" d="m357.4 615.9l7 1.5-7 33.1-.4 1.5c-.5 2.2-1.2 4.2-2.1 6.1-.9 1.9-2 3.3-3.1 4.4-1.1 1.1-2.4 1.7-3.8 2-1.4.3-3 .2-4.7-.1-3.9-.8-6.3-2.4-7.4-4.9-1-2.4-1.1-5.4-.4-8.9.1-.4.2-1 .4-1.8l6.9 3c-.1 1.2 0 2.1.3 2.7.4.8 1 1.3 1.8 1.5 1.1.2 2-.1 2.7-1s1.4-2.7 1.9-5.2l1.1-5.3c-1.1 1.4-2 2.4-2.9 2.9-1.4.9-2.7 1.1-4.1.9-2.6-.5-4.3-3-5-7.5-.5-3.1-.3-7.1.7-11.9 1.2-5.5 2.8-9.5 4.8-12 2.1-2.6 4.3-3.6 6.6-3.1 1.5.3 2.7 1 3.4 2.2.8 1.1 1.4 2.9 1.8 5.2l1.5-5.3m-10.6 15.5c-.5 2.5-.6 4.5-.3 5.8.3 1.3 1 2.1 2 2.3.9.2 1.8-.3 2.7-1.4s1.6-3 2.2-5.5c.5-2.6.6-4.6.3-6.1-.4-1.5-1-2.3-2-2.5-.9-.2-1.8.3-2.7 1.4-.9 1.1-1.6 3.1-2.2 6"/><path d="m231.8 499.2l-4.8-.5c.2-.8.4-1.5.8-2 .3-.5.8-.9 1.5-1.2.5-.3 1.1-.4 1.9-.6s1.7-.2 2.6-.2c1.5 0 2.7.1 3.6.3s1.7.5 2.3 1c.4.4.8.9 1 1.6s.4 1.3.4 1.9v5.7c0 .6 0 1.1.1 1.4.1.3.2.8.5 1.3h-4.7c-.2-.3-.3-.6-.4-.8s-.1-.5-.2-.8c-.7.6-1.3 1.1-1.9 1.3-.9.4-1.9.5-3.1.5-1.5 0-2.7-.4-3.5-1.1s-1.2-1.6-1.2-2.7c0-1 .3-1.8.9-2.4.6-.6 1.6-1.1 3.2-1.4 1.9-.4 3.1-.6 3.6-.8.6-.2 1.1-.3 1.8-.6 0-.6-.1-1-.4-1.3s-.7-.4-1.3-.4c-.8 0-1.4.1-1.8.4-.4.4-.7.8-.9 1.4m4.3 2.6c-.7.2-1.4.5-2.1.6-1 .3-1.6.5-1.9.8-.3.3-.4.6-.4.9 0 .4.1.7.4 1 .3.2.7.4 1.2.4.6 0 1.1-.1 1.5-.4.5-.3.8-.6 1-1 .2-.4.3-.9.3-1.5v-.8"/><path d="m244 495h4.6v2.1c.7-.9 1.4-1.5 2.1-1.9.7-.4 1.6-.6 2.6-.6 1.4 0 2.5.4 3.2 1.2.8.8 1.2 2.1 1.2 3.8v8.2h-5v-7.1c0-.8-.2-1.4-.5-1.7-.3-.3-.7-.5-1.3-.5-.6 0-1.1.2-1.5.7s-.6 1.3-.6 2.5v6.2h-5v-12.9z"/><path d="m274.3 490.1v17.9h-4.7v-2c-.7.8-1.2 1.4-1.8 1.7-.7.4-1.5.6-2.4.6-1.8 0-3.1-.7-4.1-2-.9-1.3-1.4-3-1.4-4.9 0-2.2.5-3.8 1.5-4.9s2.3-1.7 3.9-1.7c.8 0 1.5.1 2.1.4.6.3 1.2.7 1.7 1.2v-6.2h5.2zm-5 11.3c0-1-.2-1.8-.6-2.3-.4-.5-1-.8-1.6-.8-.6 0-1.1.2-1.5.7-.4.5-.6 1.3-.6 2.4 0 1.1.2 1.8.6 2.3.4.5.9.7 1.5.7.6 0 1.2-.2 1.6-.7s.6-1.1.6-2.3"/><g fill="#9a0101"><path d="m336 415.8c-.4-2-.2-3.9-.3-5.7-.2-3.6-.2-7.2-.3-10.8-.2-6.8-.4-13.5-.6-20.3-.2-7.3-.3-14.7-.5-22-.2-6.6-.4-13.2-.6-19.8-.1-3.8-.2-7.6-.2-11.4-.2-9.1-.5-18.2-.7-27.3-.1-5.2-.2-10.4-.4-15.6-.2-8.8-.5-17.6-.7-26.4-.1-5.1-.2-10.1-.4-15.2-.3-10-.6-19.9-.8-29.9-.2-7.2-.3-14.5-.5-21.7-.2-6.7-.4-13.4-.6-20.1-.1-3.7-.2-7.3-.2-11-.2-7.7-.3-15.4-.6-23.1 0-1.5.2-1.5 1.4-1.5 7.9.1 15.8-.4 23.6.3 2.5.2 5 .7 7.4 1.5 3.8 1.2 6.5 3.7 8.6 7 2.5 4 4 8.4 5.3 12.9 1.8 6.5 2.8 13.1 3.6 19.8 1.1 9.8 1.6 19.6 1.9 29.5.3 9.6.6 19.1.9 28.7.3 9.6.7 19.2 1 28.8.3 9.5.7 19 1.1 28.5.4 10.8.9 21.7 1.3 32.5.3 7.6.5 15.3.8 22.9.4 7.9.5 15.9.2 23.8-.3 7.9-.8 15.8-3 23.5-.9 3.2-2.2 6.3-4.1 9-1.6 2.3-3.6 4-6.2 5.2-3.7 1.7-7.7 2.5-11.7 3.3-7.4 1.5-14.9 2.8-22.4 4-.7.4-1.5.5-2.3.6m13.2-37.9c2.9-.5 5.6-.9 8.3-1.3 6.7-1.1 12.1-5.8 13.3-13.8.7-4.6.9-9.2 1-13.8.1-3.6-.1-7.1-.2-10.7-.2-4.9-.3-9.8-.5-14.7-.3-8.7-.6-17.5-.9-26.2-.2-6.5-.4-13.1-.6-19.6-.3-7.9-.6-15.8-.8-23.8-.2-5.7-.3-11.3-.5-17-.3-8.7-.7-17.4-.9-26-.2-8-.4-16-1.2-23.9-.3-3-.8-6-2-8.8-1.7-4.3-4.6-7.2-9.2-8.3-1.6-.4-3.2-.6-4.9-.5-2 .1-4 .2-5.9.3-1.6.1-1.6 0-1.5 1.5.1 3.6.2 7.1.3 10.7.2 6.9.4 13.8.6 20.6.3 8.2.6 16.4.8 24.6.2 6 .3 12 .5 18 .3 9.1.6 18.2.9 27.3.3 9.1.5 18.3.8 27.4.3 8.9.6 17.8.8 26.7.2 6.3.4 12.6.6 18.9.2 7.3.4 14.7.7 22 .2 3.4.4 6.8.5 10.4"/><path d="m257.8 284.6c0-60.5 0-114.7 0-168.9 0-2.9-.5-2.5 2.5-2.5 2.2 0 4.4 0 6.6 0 1 0 1.4.2 1.5 1.3.9 8.1 1.9 16.2 2.9 24.3 1 8.2 2 16.4 3 24.7 1 8.1 1.9 16.2 2.9 24.3 1 8 2 16.1 3 24.1.8 6.8 1.7 13.6 2.5 20.3 1 8.1 2 16.2 3.1 24.3.2 1.2.3 2.5.5 3.7.2 1.4.2 1.4 1.5 1.3 3.4-.2 6.9-.4 10.3-.7 1.3-.1 2.5-.2 3.8-.2.9 0 1.1-.4 1.1-1.2-.1-6-.1-11.9-.2-17.9 0-3.8-.1-7.6-.2-11.3 0-5.4 0-10.8-.1-16.1-.3-13-.2-26-.4-39-.2-12.7-.3-25.3-.4-38-.1-7.2-.2-14.3-.3-21.5 0-.4 0-.8 0-1.2-.1-.9.3-1.1 1.2-1.1 2.4 0 4.8 0 7.2 0 .9 0 1.3.2 1.3 1.2 0 2.8.1 5.7.2 8.6.1 6.2.2 12.3.3 18.5.1 9.5.2 19 .4 28.4.2 8.1.2 16.2.4 24.3.2 8.3.2 16.6.4 24.9.2 8.1.2 16.2.4 24.3.2 8.3.2 16.6.4 24.9.2 8.2.2 16.3.4 24.5.2 8.2.2 16.4.4 24.7.2 8.2.2 16.3.4 24.5.2 8.2.2 16.4.4 24.7.2 8.2.2 16.4.4 24.7.2 8.2.2 16.3.4 24.5.2 7.7.3 15.4.4 23.1 0 .5 0 .9 0 1.4 0 .6-.2.8-.8.9-4 .3-7.9.6-11.9.9-.8.1-1-.4-1.1-1.1-.3-2.8-.7-5.5-1-8.3-.9-7.2-1.8-14.5-2.6-21.7-.9-7.2-1.7-14.4-2.6-21.5-.9-7.3-1.7-14.6-2.6-21.9-.9-7.2-1.7-14.5-2.6-21.7-.9-7.5-1.8-15-2.6-22.5-.7-6.2-1.4-12.4-2.1-18.6-.4-3.5-.8-7-1.2-10.5-.1-.9-.4-1.1-1.2-1.1-4.8.3-9.5.6-14.3.8-.9 0-1.3.4-1.2 1.3.3 5.8-.1 11.7.2 17.5 0 .3 0 .5 0 .8 0 7.7.1 15.4.1 23.1.1 12.3 0 24.6.2 36.8.2 15.9.3 31.8.3 47.8 0 4.6 0 9.3.1 13.9 0 2.3.1 4.6.1 7 0 1-.3 1.4-1.4 1.4-3 0-6 0-9 .1-.9 0-1.4-.2-1.3-1.2.1-.5 0-.9 0-1.4 0-21.6.1-43.3 0-64.9-.2-33.1 0-65.6-.1-91.8"/><path d="m238.9 244.6c.3.9.2 1.7.2 2.5-.1 12-.2 24.1-.3 36.1-.1 4.9-.2 9.8-.3 14.7 0 1.1-.2 1.5-1.5 1.5-6.3-.4-12.6-.6-18.9-.9-.2 0-.4 0-.7 0-1.9 0-1.7.2-1.7 1.7 0 3-.1 6.1-.1 9.1-.2 12.3-.2 24.7-.5 37-.2 10.5-.3 21.1-.4 31.6-.1 7.3-.2 14.6-.4 21.8 0 2.2.1 1.9 1.9 2.1 7.2.4 14.4.9 21.6 1.3.5 0 1 .1 1.6.1 2.3.2 2.3.2 2.2 2.3-.1 4.6-.1 9.2-.1 13.8-.1 7.1-.1 14.3-.1 21.4-.1 6.7-.1 13.4-.2 20.1 0 .4 0 .7-.3 1.2-4.3-.3-8.8-.6-13.2-.9-7.8-.6-15.7-1.3-23.5-2.1-2.7-.2-5.5-.6-8.2-.8-.9-.1-1.3-.4-1.2-1.3.1-3.6.1-7.3.2-10.9.1-6.2.3-12.3.4-18.5.2-10.4.5-20.8.7-31.2.1-4.1.1-8.2.2-12.3.2-10.1.5-20.2.7-30.3.1-3.9.1-7.7.2-11.6.3-12 .5-24.1.8-36.1.2-9.4.3-18.9.6-28.3.2-10.4.5-20.8.7-31.2.1-5.9.2-11.7.3-17.6.2-11.7.5-23.3.7-35 .2-7.8.3-15.6.5-23.4.2-10.3.5-20.6.7-31 .1-3.9.1-7.9.2-11.8.2-11 .5-22 .7-33 0-1 .3-1.4 1.4-1.4 6.1.1 12.2 0 18.3.1 5.8.2 11.6 0 17.4 0 .4 0 .9 0 1.3 0 1.2-.2 1.5.3 1.4 1.5-.1 11.1-.1 22.3-.3 33.4-.1 7.3-.2 14.6-.2 21.8 0 2 0 2-1.9 2-6.5-.1-12.9-.2-19.4-.3-2.7 0-2.4-.4-2.4 2.3-.2 11.4-.2 22.7-.5 34.1-.2 10.4-.3 20.8-.4 31.2-.1 7.4-.2 14.7-.4 22.1 0 1.8-.3 1.9 1.9 1.9 6.5.2 13.1.5 19.6.7.2.4.5.4.7.5"/><path d="m11.5 242.2c0-12.9-.1-25.9 0-38.8.1-14.6.3-29.2.3-43.7 0-7.2.1-14.3.2-21.5 0-.2 0-.5 0-.7-.1-.9.5-1 1.1-1 2.2 0 4.5 0 6.7.1 4.3.1 8.6.2 12.9.4 3.9.2 7.7.5 11.6 1.3 5.4 1.2 9.1 4.4 11.3 9.4 2 4.7 3.2 9.6 4 14.5.9 5.5.9 11 1 16.5.2 8.4-.1 16.9-.4 25.3-.3 10.7-.7 21.3-1.1 32s-.7 21.3-1.1 32c-.4 10.7-.7 21.3-1.1 32-.4 10.1-.7 20.1-1.1 30.2-.4 8.5-1 17-2.4 25.4-.5 3.1-1.2 6.1-2.7 8.9-2.2 4.1-2.9 3.5-6 2.5-2.7-.9-5.1-2.2-7.6-3.6-8.5-4.7-16.9-9.6-25.1-14.7-1-.6-1.3-1.3-1.3-2.4.1-8.7 0-17.5.1-26.2.2-14.8.3-29.5.3-44.3 0-3.6 0-7.3.1-10.9 0-6 .1-11.9.1-17.9 0-1.6 0-3.2 0-4.7.1-.1.2-.1.2-.1m13.3-80.6c-.4.5-.3 1-.3 1.5-.2 7.6-.4 15.2-.5 22.8-.1 4.7-.1 9.3-.2 14-.2 7.8-.4 15.7-.6 23.5-.2 7.7-.3 15.4-.5 23.1-.2 9.3-.4 18.6-.6 27.9-.1 3-.1 6.1-.1 9.1-.2 7.8-.4 15.7-.6 23.5-.1 3.7-.2 7.4-.2 11.1-.1 4-.2 8-.2 12 0 .6 0 1 .7 1.3 2.2.9 4.2 2.1 6.5 2.8 7.1 2 13.2-1.5 15-8.6.8-3.4 1.3-6.8 1.6-10.2.6-6.9.4-13.8.7-20.7.3-8 .4-16 .6-24 .3-10.9.6-21.7.8-32.6.2-8.2.4-16.4.6-24.6.2-9.7.6-19.3.6-29 0-3.2-.1-6.3-.7-9.4-1.1-5.5-3.9-9.8-9.5-11.7-1.7-.6-3.5-.9-5.3-1.1-2.8-.2-5.3-.6-7.8-.7"/></g><path fill="#010101" d="m251.9 159.2c82.7 0 165.3 0 248 0 1.7 0 1.7 0 1.7 5.8 0 3.7 0 7.4 0 11.1 0 1.7-.2 2.3-.6 2.2-.3-.1-.6 0-.9 0-165.5 0-331 0-496.5 0-1.5 0-1.5 0-1.5-5.2 0-3.7 0-7.4 0-11.1 0-2.4.2-3 .9-2.8.3.1.7 0 1 0 82.5 0 165.2 0 247.9 0"/><g fill="#9a0101"><path d="m410.5 388.3c-.2-4.8-.4-9.5-.5-14.2-.3-7.7-.7-15.5-1-23.2-.4-9.5-.7-18.9-1.1-28.4-.4-10-.9-19.9-1.3-29.9-.4-9.5-.7-18.9-1.1-28.4-.3-8.3-.7-16.7-1-25-.4-11.1-.9-22.1-1.3-33.2-.4-11.1-.9-22.3-1.3-33.4-.3-8.3-.7-16.6-1-24.9 0-1.1-.2-2.2-.2-3.3-.1-1.5-.1-1.5 1.4-1.5 6.4 0 12.7-.1 19.1-.1 2.7 0 5.3-.1 8-.1 1.2 0 1.2 0 1.2 1.2.4 9.3.7 18.6 1.1 27.9.1 1.8.2 3.7.3 5.5 0 1.3 0 1.4-1.3 1.5-3.5.3-7 .6-10.5.9-1.4.1-2.9.2-4.3.3-1.3.1-1.3.1-1.2 1.4.1 3.3.3 6.6.4 9.8.2 4.4.4 8.8.5 13.2.3 7.5.6 15 .9 22.5.2 4.6.4 9.1.5 13.7 0 .6.1 1.2.2 2 5.4-.8 10.6-1.6 16-2.4.1 1.7.2 3.4.3 5 .4 9 .7 17.9 1 26.9 0 .2 0 .3 0 .5.2 1-.5 1.2-1.2 1.4-3.1.7-6.2 1.3-9.3 2-1.5.3-2.9.7-4.4.9-.9.1-1.2.6-1.1 1.4.2 4.8.4 9.7.6 14.5.4 9.4.7 18.8 1.1 28.2.3 8.2.7 16.5 1 24.7 0 .6.1 1.1.2 1.6.4.3.8.1 1.1 0 5.4-1.6 10.8-3.2 16.2-4.8 1.5-.4 1.5-.4 1.5 1 .3 8.8.7 17.7 1 26.5.1 2 .1 4 .2 6 .1.9-.1 1.3-1 1.6-3 1.1-6 2.3-9.1 3.4-6.5 2.4-13 4.7-19.5 6.9-.1.3-.5.6-1.1.4"/><path d="m112.8 281.6c-6-1.2-12.1-2.4-18.3-3.7-.1 2.9-.3 5.6-.4 8.4-.4 9.4-.8 18.9-1.2 28.3-.4 10.7-.8 21.3-1.2 32-.1 3.4-.2 6.7-.5 10.1-.1 1.1.2 1.4 1.2 1.7 6.2 1.6 12.4 3.3 18.6 5 2.1.6 2.1.6 2 2.6-.3 6-.5 11.9-.7 17.9-.3 7.5-.6 15-.9 22.4 0 .1-.1.2-.1.4-.4.4-.8.1-1.2-.1-10.9-3.6-21.7-7.4-32.5-11.5-1.6-.6-1.5-.4-1.5-2.3.5-12.7 1-25.4 1.5-38.1.4-11 .8-21.9 1.2-32.9.4-10.3.8-20.5 1.3-30.8.4-9.5.8-19 1.1-28.5.5-12.1.9-24.2 1.4-36.3.4-10.3.9-20.5 1.3-30.8.5-12 .9-24 1.4-36 .4-10.9.9-21.8 1.4-32.7.1-1.5.1-1.5 1.6-1.5 6.3.1 12.6.1 18.9.2 4 0 8 0 12 .1 1.3 0 1.3.1 1.3 1.3-.2 6.5-.5 13.1-.8 19.6-.2 5.2-.4 10.4-.6 15.6-.1 2-.2 3.9-.2 5.9 0 1-.4 1.2-1.4 1.1-5-.4-10-.8-15-1.1-1.1-.1-2.5-.6-3.3 0-.7.6-.4 2-.4 3.1-.3 8.5-.7 17-1 25.5-.4 10.6-.9 21.2-1.4 31.8-.1 3.1-.1 6.2-.4 9.3-.1.8.2 1.1 1 1.2 2.3.3 4.6.7 7 1 3.1.4 6.2.8 9.2 1.2 1.4.2 1.4.2 1.4 1.7-.3 8.2-.7 16.4-1 24.5-.2 4.4-.3 8.9-.5 13.3 0 .4 0 .7-.3 1.1"/><path d="m151.1 434.7c-3.1-.4-5.9-1.2-8.7-1.8-2.2-.5-4.4-1.1-6.6-1.5-1-.2-1.2-.6-1.2-1.5.3-4 .3-8 .4-11.9.2-7.1.5-14.1.8-21.2.4-9.3.7-18.7 1.1-28 .2-5.9.4-11.8.6-17.7.3-9.2.7-18.4 1.1-27.6.2-5.9.4-11.8.6-17.7.3-9.3.7-18.5 1.1-27.8.2-5.8.4-11.7.6-17.5.3-9.3.7-18.7 1.1-28 .2-5.9.3-11.8.6-17.7.3-9.2.7-18.4 1.1-27.6.2-6 .4-12 .6-17.9.3-9.2.7-18.4 1.1-27.6.2-5.9.4-11.8.6-17.7.1-4.1.3-8.1.4-12.2 0-1 .4-1.3 1.3-1.3 4.5.1 8.9-.1 13.4.1 3.6.1 7.2 0 10.7 0 3.6 0 7.2 0 10.7.1 1.5 0 1.5 0 1.5 1.4-.1 4.1-.2 8.1-.3 12.2-.1 4.3-.3 8.7-.4 13-.2 8-.5 15.9-.7 23.9-.1 1.5-.1 1.6-1.7 1.5-6.2-.3-12.5-.6-18.7-.9-2.8-.1-2.2-.1-2.3 2.3-.2 7.8-.5 15.7-.8 23.5-.3 10.6-.6 21.2-1 31.7-.2 7.6-.5 15.2-.7 22.9 0 1.6 0 1.6 1.5 1.7 5.5.5 11.1.9 16.6 1.3 2.2.2 2.2.1 2.1 2.4-.2 7.9-.4 15.8-.6 23.7-.2 7.1-.4 14.1-.6 21.2 0 1.4 0 1.4-1.6 1.3-6.1-.7-12.1-1.5-18.2-2.2-.2 0-.4 0-.8 0-1.6 47.6-3.1 95.3-4.7 143.1"/><path d="m494.5 336.9c0-1.9 0-3.8 0-5.7-.1-5.6-.2-11.2-.3-16.9-.1-6.1-.3-12.2-.4-18.3-.2-8.2-.3-16.4-.5-24.6-.1-3.6-.6-7.1-1.4-10.6-1.1-5.1-5.5-8.6-11.8-7.8-2.2.3-4.3 1.1-6.4 1.7-.6.2-.7.5-.7 1 0 1.4.1 2.9.1 4.3.1 6 .3 12.1.4 18.1.2 8.5.4 17 .6 25.5.2 8.3.4 16.6.6 24.9.2 5.9.4 11.8.5 17.6 0 2.4.4 1.7-1.7 2.9-2.4 1.3-4.9 2.6-7.5 4-.1-2.7-.2-5.1-.3-7.6-.3-8.3-.6-16.6-.9-24.9-.2-4.7-.3-9.4-.4-14.1-.3-7.6-.6-15.1-.8-22.7-.2-4.8-.3-9.6-.4-14.4-.3-7.5-.6-14.9-.8-22.4-.2-4.7-.3-9.5-.4-14.2-.3-7.6-.6-15.1-.8-22.7-.2-4.7-.3-9.5-.4-14.2-.3-7.5-.6-15-.8-22.6-.2-4.8-.3-9.7-.4-14.5 0-1.2-.1-2.5-.2-3.7-.1-.8.2-1 .9-1 3.2 0 6.4-.2 9.6-.1 3.5.1 7-.1 10.5.1 2.9.2 5.7.5 8.5 1.3 1.8.5 3.2 1.5 4.3 3.1 1.7 2.4 2.9 5.1 3.8 7.9 1.5 4.6 2.3 9.3 2.7 14.1.9 11.1.8 22.2.6 33.3-.1 4.2-.7 8.4-1.7 12.6-.4 1.4-1 2.7-1.9 3.8-2.1 2.7-4.6 5-7.4 7-1.1.8-1.6 1.7-1.2 3 .1.2.1.5.1.8 0 3.1 1.6 5.2 4.3 6.6 1.4.7 2.8 1.6 4.1 2.5.9.7 1.5 1.5 1.9 2.5 1.6 3.9 2 8 2.2 12.1.3 6.3.3 12.7.3 19 0 8.1 0 16.2.1 24.3 0 7.9.1 15.8.2 23.7 0 1-.2 1.7-1.2 2.2-1.5.8-3 1.8-4.5 2.7-.2.3-.5.5-1.1.4m-21.9-101.1c3.1-.6 6.1-1.1 9-1.9 5.3-1.6 8.7-5 9.6-10.6.7-4.1.7-8.3.7-12.5 0-2.2-.1-4.4-.2-6.6-.1-3.2-.1-6.4-.2-9.6-.1-3.4-.4-6.8-1.4-10.1-1.9-6.2-7-9-12.8-8.6-1.7.1-3.5.3-5.2.5-1.1.1-1.1.1-1.1 1.2 0 1.9.2 3.8.2 5.7.1 6.6.3 13.3.4 19.9.2 8.1.4 16.3.6 24.4.2 2.7.3 5.4.4 8.2"/></g><g fill="#010101"><path d="m138.1 76.3c-.6-8.6-1.2-17.1-1.1-25.7 0-6.5.4-13 2.3-19.3 2.1-6.9 6-12.5 12.3-16.2 5.1-2.9 10.6-3.9 16.4-3.4 5.5.5 10.3 2.6 14.2 6.5 3.7 3.7 6.3 8.2 7.9 13.2 1.9 6 2.9 12.2 3.5 18.4.9 9 1.2 17.9 1.4 26.9 0 1.3 0 1.3-1.1 1.3-11.7.5-23.4 1-35.1 1.5-.3 0-.6.1-.9.1-.9 0-1.1.3-1.1 1.3.5 9.6 1 19.2 1.5 28.8.3 5.3.4 10.5 1.1 15.8.2 1.8.5 3.6 1.1 5.3 1.4 4 4.6 6.5 8.5 6.6 4.5.1 7.9-2.1 9.5-6.3 1-2.6 1.2-5.3 1.2-8 .1-6.8-.3-13.6-.6-20.3 0-.9-.1-1.7-.1-2.6 0-.7.2-1.1 1-1.1 5-.1 10.1-.3 15.1-.5.6 0 .9.2.9.9.2 8.8.9 17.6-.3 26.4-.9 6.5-3.2 12.6-6.8 18.1-3.5 5.4-8.7 8-15.1 8.4-5.3.3-10.4-.3-15.2-2.7-4.5-2.3-8.1-5.6-10.7-9.9-3.2-5.2-5.1-10.9-6.2-16.9-1.2-6.9-1.7-13.9-2.1-20.9-.4-7.6-.9-15.3-1.3-22.9-.1-1-.1-1.9-.2-2.8m17.3-26c.3 5.1.6 10.3.8 15.5 0 .9.3 1.2 1.2 1.1 5.6-.4 11.2-.7 16.8-1 1.5-.1 1.6-.1 1.5-1.6-.4-7.5-.6-15.1-1.2-22.6-.3-3.1-.5-6.3-1.7-9.2-1.5-3.8-4.7-6-8.5-5.7-4.5.3-7.7 2.8-8.7 6.9-.6 2.4-.6 4.9-.6 7.4 0 3 .2 6.1.4 9.2"/><path d="m443.5 65.3c-2.2-.2-4.3-.5-6.5-.7-2.9-.3-5.9-.6-8.8-1-1.4-.2-1.4-.2-1.3-1.5.2-2.7.4-5.4.5-8.1.3-4.1.5-8.2.2-12.4-.1-1.7-.4-3.3-1.1-4.9-1.6-3.9-5.2-6.3-9.3-6.1-4 .1-7.2 2.7-8.6 6.8-.9 2.7-1.2 5.4-1.4 8.2-.6 7.7-1.1 15.4-1.6 23.1-.6 8.7-1.2 17.4-1.7 26-.6 9.2-1.3 18.3-1.7 27.5-.2 4.1-.1 8.2 1.2 12.1 1 2.8 2.6 5.1 5.3 6.3 4.1 1.9 8.9.5 11.7-3.2 1.3-1.8 2-3.8 2.5-5.9.8-3.6 1.2-7.2 1.5-10.8.3-4.5.6-9 .9-13.5.1-1.6.2-1.6 1.7-1.5 4.2.3 8.4.6 12.6.9 1.4.1 1.4.1 1.3 1.5-.5 6-.9 12.1-2.1 18-1.6 8.3-5 15.7-10.8 22-4.3 4.7-9.9 6.9-16.1 7.3-3.1.2-6.3.2-9.4-.4-7.3-1.4-12.3-5.7-15.2-12.4-1.9-4.5-2.8-9.2-3.3-14-1-9.5-.5-19 .1-28.5.5-7.2.9-14.4 1.3-21.6.6-9.4 1-18.9 1.9-28.2.6-5.8 1.3-11.7 3.3-17.2 3-8.3 8.6-14.1 17.3-16.3 7.5-1.9 14.5-.1 20.8 4 7.6 5 12 12.3 13.7 21.1 1.5 7.6 1.2 15.4 1.1 23.1.2-.1.1.1 0 .3"/><path d="m488.3 107.6c2.8.3 5.5.6 8.2.9 1.4.2 2.8.3 4.2.5.5.1.8.2.8.8-.1 5.1 0 10.2-1.2 15.2-1.1 4.6-3.5 8.5-6.9 11.7-2.7 2.5-6 3.9-9.6 4.5-5.1.8-10.2.7-15.1-1-4.9-1.7-8.5-4.8-10.7-9.6-1.8-3.9-2.5-8.1-2.7-12.3-.3-4.9 0-9.8.3-14.7.3-7 .7-14 1.2-21 .4-5.7.5-11.4 1.2-17.1.5-4.3 1.4-8.5 3-12.5.5-1.1 1-2.2 1.7-3.2 3.1-4.7 7.6-6.6 13.1-5.9 12.3 1.6 20 8.9 23.8 20.5 1.4 4.1 1.8 8.4 2.1 12.7.3 4.8.1 9.7.1 14.5 0 .5 0 1-.2 1.6-1.8-.2-3.6-.5-5.5-.7-6.2-.8-12.4-1.6-18.6-2.4-1.7-.2-3.4-.4-5.1-.6-1.1-.1-1.1-.1-1.2 1.1-.2 4-.3 8.1-.5 12.1-.2 5.5-.5 11-.7 16.5-.1 2.4 0 4.9.4 7.2.7 3.4 3 5.9 6.2 6.5 3.6.6 6.8-.4 9-3.6 1.1-1.6 1.5-3.5 1.8-5.4.6-3.6.6-7.1.8-10.7 0-1.8.1-3.6.1-5.6m-.6-23.2c.1-.4.2-.8.2-1.3.1-6.2.5-12.3.4-18.5 0-1.8-.1-3.5-.7-5.2-.7-2.3-2.1-4.2-4.4-5.1-3.7-1.5-7.9-.7-9.7 3.2-.4.8-.6 1.7-.8 2.6-.6 3.3-.7 6.7-.8 10.1-.2 3.5-.3 7-.4 10.5 0 1.3 0 1.3 1.2 1.5 4.6.8 9.3 1.5 13.9 2.3.4 0 .7.1 1.1-.1"/><path d="m286 22c1.6-4.2 3.4-8.1 6.3-11.5 5.2-6.2 14.5-5.4 18.8.4 2.5 3.4 3.9 7.1 4.5 11.2.9 6.6.8 13.3.7 20-.1 6.5-.3 13-.4 19.5-.2 6.7-.4 13.3-.6 20-.2 5.9-.3 11.8-.5 17.7-.3 8.9-.6 17.8-.8 26.8-.2 7.7-.4 15.4-.6 23-.1 2.9 0 2.9-2.8 2.9-4.6 0-9.1 0-13.7 0-.5 0-.9 0-1.4 0-.5 0-.7-.3-.7-.8.1-5.6.2-11.2.3-16.8.1-3.8.1-7.7.2-11.5.1-10.1.2-20.1.4-30.2.2-7.1.2-14.2.4-21.3.2-7.3.2-14.5.4-21.8.1-5.3.1-10.6-.1-16-.1-1.5-.2-3.1-.6-4.6-1.2-4.4-4.3-6.9-8.9-7-.2 0-.4 0-.9 0"/><path d="m335 83.3c.4-9.3.8-18.6 1.1-27.9.4-8.9.8-17.8 1.2-26.7.1-1.9.1-1.9 2-1.8 4.6.4 9.3.8 13.9 1.2.8.1.8.4.8 1-.2 3.6-.4 7.3-.6 10.9-.5 9.1-1 18.2-1.4 27.3-.5 9.2-1 18.4-1.4 27.6-.5 9.1-1 18.2-1.4 27.3-.3 5.5-.6 11-.9 16.5-.1 1.1-.1 1.1-1.1 1.1-4.5 0-9 0-13.5 0-1 0-1 0-1-1.1.3-6.2.5-12.4.8-18.7.2-4.2.4-8.3.5-12.5.2-8 .6-16.1 1-24.2"/><path d="m274.8 48c.7-.1.5-.9 1.2-1.1 0 1 0 2 0 3-.1 5.7-.2 11.4-.2 17-.1 10.8-.2 21.7-.4 32.5-.2 9.1-.2 18.2-.3 27.3-.1 8-.2 16-.3 24 0 1.3 0 1.3-1.2 1.3-5.4 0-10.8 0-16.2 0-.9 0-1.2-.3-1.1-1.1 0-.4 0-.8 0-1.2 0-24 0-48.1 0-72.1 0-22.5 0-45 .1-67.5 0-.3 0-.6 0-.9-.1-.9.3-1.1 1.1-1.1 1.5.1 3 .1 4.4.1 4.2 0 8.4.1 12.6.1.4 0 .7 0 1.1 0 1.3.1 1.4.2 1.3 1.5-.5 9.1-.9 18.3-1.4 27.4-.3 3.6-.5 7.1-.7 10.8"/><path d="m75 8.2c.2 2.3.3 4.4.5 6.6.8 11.9 1.5 23.7 2.3 35.5 0 .3-.5 1.3.6 1 .2-.1.1.3.1.5-.4 5.8 0 11.7.4 17.5.4 5.7.7 11.3 1.1 17 .5 7.8 1 15.5 1.5 23.3.5 7.1.9 14.1 1.4 21.2.3 5 .7 10 1 15 .1 1.3.1 1.3-1.3 1.3-5 0-10 0-15.2 0-.1-.9-.2-1.9-.3-2.8-.5-8.1-.9-16.2-1.4-24.3-.5-8.6-1-17.1-1.5-25.7-.6-9.2-1.1-18.3-1.6-27.5-.5-8.7-1.1-17.3-1.6-26-.4-6.2-.7-12.4-1.1-18.6-.2-3.1-.4-6.3-.6-9.4-.1-.8.2-1.1 1-1.3 4.6-1.1 9.2-2.2 13.9-3.3.2 0 .4 0 .8 0"/><path d="m83.1 43.4c2-3.4 3.9-6.9 6.6-9.8 2.4-2.5 5.2-4.3 8.8-4.8 2.3-.3 4.4.1 6.3 1.3 3.8 2.5 5.9 6.2 6.7 10.6 1.1 5.7 1.5 11.6 1.9 17.4.5 7.8 1 15.6 1.6 23.4.5 7.4.9 14.8 1.4 22.1.5 8 1.1 16.1 1.6 24.1.4 5.8.7 11.6 1.1 17.5.1 1.4.1 1.5-1.4 1.5-3.6 0-7.1 0-10.7.1-1.2 0-2.4.1-3.6.1-.7 0-.9-.3-1-.9-.3-5-.6-10-1-15-.5-7.6-1-15.2-1.5-22.8-.4-5.6-.7-11.2-1.1-16.8-.5-7.6-1-15.2-1.5-22.8-.3-4.6-.6-9.3-1.1-13.9-.2-1.7-.5-3.4-.9-5.1-1.5-5.7-6.1-8.1-11.6-6.1-.1.1-.3.1-.5.1.1 0 0-.1-.1-.2"/><path d="m14.7 54.7c-2 .4-3.7.8-5.6 1.2-.2-2.1-.2-4-.2-6 0-.7.4-.9 1-1.1 1.2-.3 2.5-.8 3.7-1 .8-.2 1.1-.5 1.1-1.3-.1-4.3-.2-8.7-.2-13 0-1.3 0-2.6 0-3.9 0-.5.1-.9.7-1.1 4.8-1.5 9.5-3.1 14.4-4.4.1 0 .2 0 .5.1.3 6.3.5 12.5.8 19 2.5-.6 4.8-1.1 7.3-1.7.4.5.4 1.1.4 1.7.1 1.8.1 3.6.2 5.3.1.8-.2 1.1-.9 1.2-1.7.3-3.4.7-5 1-1.5.3-1.6.3-1.5 1.8.2 4.8.4 9.7.5 14.5.2 4.9.4 9.8.6 14.7.3 8.3.7 16.6 1 24.9.3 6.6.5 13.2.8 19.8.2 3.2.4 6.5 1 9.7.8 3.8 3.1 5.8 6.8 6.5 2.1.4 2.1.4 2.3 2.5.1 1.9.1 3.8.3 5.7.1.9-.3 1.2-1.1 1.2-.2 0-.5 0-.7 0-4.9 0-9.8.1-14.7-.3-3.4-.3-6.4-1.3-8.7-4.1-1.3-1.7-2.2-3.5-2.4-5.7-.5-4.1-.8-8.3-.8-12.4-.1-9.1-.2-18.1-.4-27.2-.5-7.3-.5-14.8-.7-22.3-.2-7.5-.3-15-.3-22.5 0-.9-.1-1.7-.2-2.8"/><path d="m338.7 0c3 .3 6 .6 9 .9 2.2.2 4.5.5 6.7.7.7.1 1 .3 1 1-.2 2.8-.3 5.5-.4 8.3 0 .6-.1.9-.9.9-4.9-.5-9.8-.9-14.7-1.3-1.1-.1-1.2-.1-1.1-1.3.1-2.9.3-5.8.4-8.8-.2-.1-.1-.2 0-.4"/><path d="m77.8 51.4c0 .1-.1.2-.2.1-.1-.1 0-.2.1-.3 0 .1.1.2.1.2"/></g></svg>