<svg xmlns="http://www.w3.org/2000/svg" width="648" height="389" viewBox="0 0 647.5 388.7" style="enable-background:new 0 0 647.5 388.7"><g style="fill:#33073b"><path d="m11.4 43c5.1 2.7 1 .5 0 0"/><path d="m98 43c7.1 1.8 1.9 1.4 0 0"/><path d="m358 106c-2.3 3.9-4.8 7.9-7.4 11.6 3-2.6 5.4-6.7 7.4-11.6"/><path d="m376 69c-2.3-1.9-3.4-5-3.1-8-.7-7.3 3.6-15 11-15.9-23-25-39 51.6-49 58 1.4-.9-9.6-8.6-9.7-9-4.7 2.2-15 8.7-19.8 10.3-9.6 20.5-35.7-15.8-34-23-.2-4.2 4.9-.9 6 7.2 9.5-8.4 11.6-15.6 10.5-21.6-1.4 3.9-7-4.6-7.5-1.6-9-1.7 1.2-3.9 5.8-3.3-2.2-4.2-5.9-7.5-8.9-9.8.1.2 2.9 8.9-1.1 7.1-6.2-2.7-3.9-20-15-11 1.1-.9-8-4.8-9.8-5.1.4 3.8 7.2 11.5 10 13.3 2.2-1.8 2.8-4 1.6-6.5 3.9 1.7 15.4 24.3 14.7 26-.6 1.5-11-16-13.5-20-2.8 4.1-2.9 3.6-5.8 6.5 11 12.2-1.6 4.4 1.8 11.9 1.5-.3 5.3-3.7 7-1.3-.9-.3-6.6 4.9-6.7 7.9 1.8-2 3.9-2.4 6.4-1.2 7.9 10-31.8 13.9-24.5 29 8-3.5.9 1.2 3.2 5.9 3.8-4.5 7.3-9.1 10.7-13.9-3.6-.6-6.1.8-7.6 4.3 9.9-30 28 6.2 36 11.5-5.1.5 39.5 7.9 29.9 4.3 6.8 1.3 1 18 12.2 10.9-3.1-6.1-5.7-5.7-2.7-14 9.3-3 1.7 17 5.5 16 7.8.9 15.4-6.6 22-16-3.6 3.1-8 4.2-13.5 2.1-1.2-.5 5.8-9.4 7.1-10.2-6.8-1.3-3.9 0-4.6-6.7-2.2-.4 23-4.4 17.7-13.8-.2 7-11-4.8 1.8-6.3.1 0 2.9 5.8 3.2 6.1 0-5.7-8.5-21-9.6-20.3-2.7-2.3 12.7-8.1 13-8.8 0 .1-.4 28-7.7 46 5.2-8.8 9.5-17.3 12.5-21.6-11.5-5.8 13.5-11.7 13.3-11.4-4-.5-6.7-2.3-8.5-4.6m-66 46.7c-2.9-1-.9-3.9-.5-5.9 3.4-1.1.1 4 .5 5.9m16.4-13.9c1.8 1.2 3.5 4.5 3.1 7.2-1.4-.5-6.8 1.5-5.6 2.5-2.9-1.9 2-9 2.5-9.7m-2.9 11.9c2.3-.4 5.7 1 5.9 3.7-3.3-.4-9.2.5-5.9-3.7m9.9 2c1-3.9-5-2.2.2-4.8 4.5-2 .7 2.9-.2 4.8"/><path d="m287 63c0-.6-.9-.9-2-1.1.8 1.5 1.4 3.2 1.8 4.9.2-.7.3-1.9.2-3.8"/><path d="m285 59c-.6 6 6-.5 0 0"/><path d="m321 100c-1 4.7 4.6-1 0 0"/><path d="m311 102c-1.8 4.7 4.3.2 0 0"/><path d="m309 105c-2.1 5.3 4.2-.7 0 0"/><path d="m314 110c6 7.7 1-8.9 0 0"/><path d="m316 115c-2.4-.9.8 3.5 0 0"/><path d="m553 43c4.5-2.8-4 10.2-8.5 1 2.8-.3 5.7-.7 8.5-1"/><path d="m580 43c11.4 2.7-.1 2.1 0 0"/><path d="m622 43c7.9 1.3 4.9 2.7 6.2 2.9-12.7 2.2-39.9 7.7-41.8 5.2-3.7-4.8 13.8-1.6-3.7-5.4-1.9 1.7-1.1 5.6.3 7.4-2.6 1-5.3 2.1-5.6 2 6 11.6 12-1.5 19-2.3-3.6 3.8 10 20.9 10.3 20.8-19 7-36 9.4-50 9.7-3.2 1.9-38 6.6-47 12.7-15.9 4.4-36.4 21-50.6 21 0 .1 1.3 6.2 2.2 9.9-28.9 7.2-71 29-64 45 3.9-.6 7.1 7.4 9.3 3.8 1.4-7.6-3.4-21 12-19.5-.8-.1 21-10.9 21-10.9-.6-.9 5.1 7.5 7.6 7.5-8.3 8.4-16.6 23.8-27.4 14.8 2.6 2.1 4.5 21.5-6 19.3 2.9-7-7.3-7.9-7.2-8 3.4 12.2-26.3 13.5-25.5 29 .1 0 2 14 4.1 14.9-3.7 2.2-15.8 8.7-11.2 16.8 3.6-2.2 21.4-20.8 24.9-13 .2.4.3.8.4 1.1 1.6-3.2 3.2-7.1 5-12.2 6.9 2.4 5.2 7.6 6.1 13.2 2.6-6.7 4.3-8.3 5.8-10-8.3 1.2-16-9.6-8.1-16 5.6-4.6 12.2-8.4 19-10.6 5.1-13.7 12.3-31.9 13.7-17.4 3.4-1.5 10.7-6.9 14.9-10.4 4.1 2.5 7.7 1.3 10.8-3.7 1.2 0 2.2-.8 3.1-2.5-5.1-5.3-10.9-5.9-17.4-1.8-1.6-1.9-1.7-3.9-.5-6 6.2-2.4 12.8-3.5 19.6-3.3 3.3.5-7.1 4.8-4.2 7.7 5.6-4 8.2-4.9 14.9-5.8.2-1.2-.1-2.1-.7-2.7.6.2 1.2.3 1.8.5-1.2-1.3-2-2.8-2.5-4.5-1.4-.9-2.5-2.3-3.2-3.9-9.5.4-18.9 1.5-20.5.5 2.1 1.2 12.6-4.8 21-10 1-1.7 2.6-3 4.8-3.7-3.5-1.1-9.3-.8-16 .5 6.5-3.4 16.6-4.5 19.4-2 2.3-1.5 3.6-2.4 3.5-2.2-1.8 2.1 26-3.1 32.4-9.6.4-.4-7.6-2.6-6.6-5.3 5.1-13.2 33.6-9.8 50-8.4 1.7-.9 3.4-1.7 5.2-2.4 6.5-2.6 13-3.5 19.8-5.1 1-.2 1.9-.5 2.9-.8.2-.8.2-1.3-.2-1.3 1.9-.7 2.7-.4 2.9.5 2.6-.8 5.3-1.8 7.9-2.7-4.6-1.1-9.7-4.1-6-4.2 2.9-4.3 7-6 12-5.1-.7 3.4-2.8 5.2-6.2 5.2.1.7 1.3 2.1 2.6 3.1 4.3-2.9 8.2-7.5 10.2-15.5.3-2.4 46.7-34.5 5.6-26.7m-231 181c-.2.1-3.4-16.2.4-16.8-.7-7.2 20.7 7.5-.4 16.8m71-66c1.5 1.8 2.9 2.7 4.1 2.8-5.5 3.6-6.9 2.6-4.1-2.8m-17.6-15.4c-3.8 1.6 0-1.7 2.4-2.5 1.1-10.2 3.7 0-2.4 2.5m4.9 2.4c.8-1.5 2-4.3 2.3-5.2 4.1-6.1 5.8 6.5-2.3 5.2m44-28.6c-6-.1-6.5-1.2-1.6-3 9.8 2 10.3 3 1.6 3m7.1-8.2c1.4-1.3 3-4.3 2.9-3.9 4.9-.4 17.4 6.6-2.9 3.9m22.3-13.9c1.6-.7 3.7-.7 5.3 0-.7 1.3-4.7 1.3-5.3 0m10.5-1.3c.9-2.8 4.1-.1 3.3-4 7.3-.4.6 5.6-3.3 4m78-31.8c1.2-2.6-.9-5.6.9-8 4.2-1.8 2.8 8.3-.9 8"/><path d="m386 223c0 0 .1-.1.1-.1 0 0 0 0-.1.1"/><path d="m369 254c14.8-11.2 21-12.6 26.8-20.8-7.7 4.3-26.8 5.3-26.8 20.8"/><path d="m399 228c-1 2.1-2 3.8-3 5.3 2.3-1.3 3.6-2.9 3-5.3"/><path d="m636 47c-2.1 5.3 4.2-.7 0 0"/><path d="m611 51c-4.6 4.6 4.6.7 0 0"/><path d="m619 52c-1.9 5.6 5.9-1 0 0"/><path d="m630 53c-.9 8.2 6.4-1.5 0 0"/><path d="m615 72c-1.5 4.6 4.2 1.2 0 0"/><path d="m591 84c-1.4 6.1 5.9 1.1 0 0"/><path d="m531 92c-1 4.7 4.6-1 0 0"/><path d="m435 140c-4.1 3 3.1 2.7 0 0"/><path d="m449 154c-.9 5.6 4.5 1.5 0 0"/><path d="m449 163c-.9 5.9 5.6-1.9 0 0"/><path d="m426 184c.4 4.4 4.6-.9 0 0"/><path d="m7.7 47c-.4 1.4-.7 2.8-1.1 4.2 1.4-.2 2.4-1.2 2-3.3-.1-.1-.4-.5-.9-.9"/><path d="m48 52c-6.3-2.8-6.6-5.2-.9-7.2 5.1 4.5 32.8 13.7 32.8 15.7.2 11.2-29.5-5-31.9-8.5"/><path d="m205 53c2.2-2.1 4.5-4.2 6.7-6.3.3 2.3-10.9 18.7-12.3 21 .2.2-6.8.6-6.1-.5 3.6-5.8 9.4-13 11.7-14.2"/><path d="m4.9 57.8c1.1-.8 2.2-1.6 3.4-2.5-.9-.3-1.7-.8-2.4-1.1-.3 1.2-.6 2.4-1 3.6"/><path d="m8.3 55c1.6.5 3.5.3 5.9-3.1 3.9-3.5-1-.4-5.9 3.1"/><path d="m510 53c3.9 3.5-.2 2 0 0"/><path d="m514 54c10.6-6.4-5.7 17.2-11 7.7 3.3-4.1 7.5-4.8 11-7.7"/><path d="m525 53c3 .2 1.8 1.4 0 0"/><path d="m241 57.9c6.5 2.4 8.7-.8 14.9 4.1-5.2 5.1-12-3.3-14.9-4.1"/><path d="m32 64c-2.8-8 4.3 6 5.4 12.3-9.1 5.1-5.5-12.6-5.4-12.3"/><path d="m489 65c1.1-3.4-22 29.6-37.5 15.9 10.5-10.5 28.4-6.3 37.5-15.9"/><path d="m3.9 64c0 .7 0 1.5 0 2.2 1.1-.2 2.6.8 1.1 2.8 1.2 2.7-1 2.8-2 1.9-.2.6-.5 1.2-.8 1.8 1.3.7 2.9 1.1 5.1 1.3 2-5.9.9-9.3-3.4-10"/><path d="m254 67.9c-5.5-9.1 6.2-.1 5.2-.5-4 5.9-3 .3-3.7 8.8.8-9.1-19.5 2.7-20 1.7.9-5.8 13.3-11.3 18.7-10"/><path d="m88 70c1.4-3.7 3.8-4.4 7.2-2.3 2.8 2.4-9.5 8.1-9.4 8.3-1.9-2.8 10-9.4 2.2-6"/><path d="m520 67c1.8-1.9 3.4 2.1.9 2.1-.2-.5-.7-1.6-.9-2.1"/><path d="m536 67c8.6 3.1 4.5 5.3 2.6 10.6 47.9 12.9.8-3.6 12.6 6.1-11.5 1.7-11-8.2-14-10.6-3-2.3 1 3.3-1.1-6.1"/><path d="m75 73c2.8-3.2 5.7 3.3 0 0"/><path d="m109 72c2.9 2.7 24.9 5.9 21.9 11-8.5-11.3-23.3-1.1-32-1.5-.5-5.9 13.5-2.5 10.2-9.5"/><path d="m510 72.9c2.6-1.8-.6 6.6 0 0"/><path d="m.7 75c-.1.2-.2.3-.3.5.2 2.5 1.5 8.1 3.5 9.6.6-3 1.4-2.9 2.5.2 5-8 2.8-9.5-5.7-10.3"/><path d="m251 80c-.8-.3 6.6 4.3 0 0"/><path d="m83 79.9c8.6-6.5-2.9 1.8 0 0"/><path d="m238 83c14.2-10-3.2 9.9-6.1 7.5-4.3-3.5 5.8-6.8 6.1-7.5"/><path d="m397 82c-.3-2.1 14.9 0 5.8 5.6-1.6-2.5-3.7-4.5-5.8-5.6"/><path d="m502 82c3.4-1.3 6.8-1.4 10.3-.2-10.5-2.2-8.2 7.5-10 9.6-15.8-3.9-2.5 4.6-14.8 4.3-3.8-3.3 14.7-15 14.6-13.7"/><path d="m17.6 82c7.7-2.4 29.6 15.5 40.8 28.6-11.4 2.1-26-20.9-40-25 4.2 3.1 4.2 4.8 0 5-4.6-1.3-4.8-4.2-.7-8.6"/><path d="m115 81c8.7-1-4.6 13.7-8.2 1.8.9.1 10.5 1.3 8.2-1.8"/><path d="m249 81c.7 2.2 6.8 2.7 8.1 2.8-2 1.9-14.5 10-16.3 10.2 2.1-4.8 4.9-9.1 8.2-13"/><path d="m55 94c1.4-1.6 3.3-2.8 5.9-3.1-5.4-2.4-14.4-4.5-15.5-4.9-.2-.4-.4-.9-.1-.1.1.2.2.3.2.3 1.6 2.6 6.2 5.6 9.5 7.8"/><path d="m256 90c1.6-4.2 4.1.4.2.6l-.2-.6"/><path d="m176 97c.8-.4 1.7-.7 2.8-.8 2.9-1.2 5-3.4 3.4-7.2-3.6 2.3-7.3 4.6-10.9 7-4.7 1 0 1.9 4.7 1"/><path d="m373 96c4.9-2.6 6.9-1.6 6.1 3.2-1.8-.4-7.6-1.9-8.9-.2 1.6-2 16.6 21.5 16.3 27.5 2.2-.2-21.7-15.8-22.6-16 3.3-.2.5-14.4 9.1-14.4"/><path d="m126 95c2.8 1.5 5.8 1.6 8.7.2-.1.4-2.4 6.4-3.2 5.7 1.3 1.1 19.7 4.3 14.2 9.7-9.7 9.5-17.8-10.9-19.7-15.6"/><path d="m381 100c5.2-5.8 4-3.1 6.1.9-4.7 2.8-9.9 2.6-6.1-.9"/><path d="m403 97c-.3-.6 8-.5 10.3 3.8-1-.2-12.5-.3-10.3-3.8"/><path d="m418 99c1.2-1.1-9.7 5.7 0 0"/><path d="m212 168c-15.7-2.2-68.8-29.7-89-25.9 10.4-2.5 30.7-2.8 33-3.3-4.3-19.4-40-27.9-66-35-.3 0-.7.1-1 .1-2.6 0-4.6-.8-6-2.1-1.2-.4-2.3-.7-3.4-1.1-3.3 3.1 56 35.6 56.9 35-4.2 1.6-82 4-66-14.9 3.3 3 18.7 8.5 23.3 6.7-4.7-4.4-8.9-6.1-11.3-6.7.8 0 1.9-.1 3.2-.2.8-8.1-20.7-7.7-24.3-5.9 1.4 1.8 3.1 3.3 5 4.6-2 1.3-6.4 6.3-3.2 6.9-9.2-1.1-25-21-33.7-25.4 2.8 13.4 20.6 30.4 36 42.7 3.2-.2 6.5 1.1 8.5 4.9.5 1 0 .6 1.5 1.9-1.1-.9.9.3 1.3.6.1 0 2.4.9 2.8 1 1.1.3 2.2.6 3.3.9 1.9.4 3.9.7 6 1-2.5-2.8-4-5.4-3.3-6.2-1.1 1.3 7.3 4.8 15.6 8.2 4.2 1 8.1 2.4 12.2 4.5 1 .5 1.9 1 2.9 1.5-.4-3.1-2.6-8-7-6.6.8-5.1 28.5 1.6 40.9 3.2-3.3-.2-7-.3-7 .1 23.4 8.2 40.5 21.7 57 36 3-5.1-5.8-8.7-4.6-11.4 1.8 1.9 3.6 1.9 5.6 0-1.5-1.4-12-12.2-8.4-13.5-.6.2 7.1 1.7 12.8 1.6 1.6-1 3.4-1.5 5.4-1.5h.4c.1-.7 0-1.4-.5-2.2m-145-39c.1 0-.7-2.1 6 6-2.9-1.1-4.9-3.1-6-6m16.9 16.7c-2 2.6-2.8-1.6-3.9-2.9 1.9-.2 4.7.5 3.9 2.9m4.3-5.8c2 1.1 1.1 4.2 1.5 6.2-3.1-.3-2.2-4.2-1.5-6.2m2-2.6c1.6.2 4 1.6 3.9 3.5-2.4 1.5-8.5-3.2-3.9-3.5m7 10.7c1.9-.2 1.9 2.5 2 3.8-2.2-.2-4.6-2.1-2-3.8m-1.3-4.2c4.1.3 10 2.7 10 4.7-3.7.1-7.9.8-10-4.7m20.8 1.6c.3-.9 1.5-1.6 3.2-2.3-1.3.6-2.4 1.3-3.2 2.3m75 37.7c-.3-3.1-16-8.6-7.8-14 2 1.7 16.6 9 7.8 14"/><path d="m64 127c.1 0 .1 0 .2 0 0 0-.1 0-.2 0"/><path d="m125 119c-1 4.7 4.6-1 0 0"/><path d="m140 135c2.1 4.4 5.3-1.4 0 0"/><path d="m76 137c-.9 4.7 4.4.5 0 0"/><path d="m123 141c-3.6 3.7 4.9.2 0 0"/><path d="m92 143c.1 4 6.5-2.6 0 0"/><path d="m406 107c3.4-3.5 6.3-3.6 8.8-.3-4.6 3-10.7.8-8.8.3"/><path d="m538 107c3-.2 6-.3 9.1-.5-6.6 6-9.6 6.2-9.1.5"/><path d="m147 108c2-2.8 33.9 8.3 35 14.8-.6-3.4-35.9.1-35-14.8"/><path d="m430 107c6.1 13.9-22 47.7-42 21.9 0 0 11.6 6 9.5 7.6-.7-1.8-.9-3.6-.5-5.5 11.8 1 19.4-18.7 26-17.7 0 .1-6.1 13.3-7.7 11.9 4.2 3.5 13.9-17.3 14.6-18.2"/><path d="m253 109c5.3-2.5-.6 18-4.7 16.6-.2-9.5-.6-6.8 4.7-16.6"/><path d="m527 108c13.7 1.9-1.9-.3 3 4.4-3.8.9-8.8-4.8-3-4.4"/><path d="m75 114c-3.4 3.1-4.2-2.5.1-.7v.7"/><path d="m138 113c.5 0 1.4 0 1.9 0 1.1 2.6-3 2.6-1.9 0"/><path d="m369 121c5.3-4.2 9.4-3.2 12 3-15 7.5-17.8 11.2-.6 21 3.6-.4-2-7.1-2-9.1 4.3 4.8 8.7 5 6.9 12.2-4.9 1.3-21.6-5.9-22.9-4.5 2.1-2.5 4.4-18.4 6.6-22.7"/><path d="m204 125c.4-.1.9-.1 1.3-.1 1.6-.2 3.3-.4 4.7-.7.6-.9.7-1.8.2-2.8-3.3-.4-5.3.6-8-1.6-6.4 4.5-2.9 5.4 1.8 5.2"/><path d="m200 126c.1-.1.1-.1.2-.2-2.9 1-15-.4-17-1 1 2.7 1.6 3.2 1.8 2.8 3.4 3.7 9.4 2.7 13.3.1.5-.6 1.1-1.2 1.8-1.7"/><path d="m244 128c7.3-3.4-12.3 32.5-27.3 15.2 4-6.4 10.7-12.9 17.3-11.7-3.1 1.5-3.6 3.9-1.3 7.2 5.6 2.6 14.3-4.9 11.3-10.7"/><path d="m440 131c5-6.1 7 7.4 0 0"/><path d="m300 203c0 1.7 0 3.4-.2 5.1 1-1.6 1.9-3.1 2.9-4.6-.8-.2-1.7-.3-2.7-.5"/><path d="m351 233c1.5 2.9 2.8 4.7 3.6 4.5 3.2-.7 5.4-2.2 6.8-4.3-2.4.3-5.7.2-10.4-.2"/><path d="m361 194c.7-12 24.3-30.6 3.8-45-1.2 1-1.8 1.8-2 2.5-11.4-1.8-41 1.2-41 5.3.2-2.9 10.4-32-10-21.6-.1 1.6-2.1 21.9 2.9 21-14.8 11.2-26.7-19-42 5.5-2 0 8.8 1.1 7.5-1.4 4.9 7.1-2.9 34.8 14.2 36.8 6.9-8.7 1-18-6.6-16-3 9.4 6-20.7 4.9-20 2.1-1-1.6 13 4 14.4.9-1.5 1.7-3 2.2-4.7.7-.4 3.9 8.6 2.8 12.2 0 0 12.3 2.2 14 4.9-.8-.3-3.9 3.5-7.6 8.8.7 0 2 .2 4.1.5 3.5-4.5 6.6-4.6 9.3-.4-7.1-.7 3.5 6.1-1.5 5.9-.2-1.9-10-4.6-12.2-5.6-1.4 2-2.9 4.3-4.4 6.6 10.8 2 10.5 5.8 17.9 9.5-.8-4.1 11.8-9.1 9.8-5.4.8-1.5-13.8 10.9-5.8 10.7 29.6-25 7.7 45.7 6.7 44.9-23.8-19.7 5.7-13.2-25.5-16.6-18.9-5.5-7.6-20-6.1-38.5-4.1 6.6-7.8 13-9.5 16.9-.6-1.9-2.8-1.5-5.5 0-1 1.2-2.4 2.2-4.1 2.7-5.8 4.2-12.2 10.5-13 11.3 1.8 0 3.3-.2 4.7-.6.2-.5.4-1 .8-1.4 0 0 .1-.1.1-.1.1-.1.1-.2.2-.4.5-.6 1-1.2 1.6-1.9 1.8-1.7 4.3-2.6 6.8-2.5.8 0 1.5.2 2.2.4 1.5-.8 3-1.4 4.8-1.8-.4.5-.4 2.3-.1 4.9.9 1.1 1.6 2.4 1.9 3.9.1.8.2 1.7.3 2.5-.1 1-.3 2.1-.6 3 1.3 6.2 3 12.3 4 13.7 13.9 1.6 10.7-7 23.9-6.6 10 .3.8 17.6 19.8 16.8.7 4-10 6-11.3 5.7 2.2.5 1.4 15.7 5.2 16-.6-3.7 12-34.7 11.9-34.5 1.6-1.9 9.1.3 10 2.5.5-8.3 12.7-10.8 11.8-19-1.2 1.5-17.4 12.2-19.9 11.8-7.7-1.2 4.2-18.6.8-19 1.4.2 2.7.3 3.9.4-4.4-8.2-10.6-25-10.7-28.8-.2-3.4 5.7-1.6 6.2-2-.5-.3-11.4-5.9-10.8-3.4-2-8.5 4.7-2.5 5-10.6-6 1.1-7.6 5.6-15.4.6 6.7 4.3 15.8-6.5 17.7-10.9-2.3.7-3.4 2.2-3.5 4.5-.7-1.6-1.8-3-3.3-4 3.1-7.4 18.7-21.7 21-22.5 1.1 1.4 11 11.4 8.3 12.7-5 2.4-12.4-3.1-17.4-2 3.1-.3-3.2 18.5-2.8 20.6 8.8-9.6 8.6-7.7 13-15.2 3.7 2.7 5.7 6.4 5.9 11-10.7-1.6-2.1 3.2-8.7 8.1.8-.6-2.8 0-5.5 2.4 1.2.2 7.1-.2 6.2 1.8-.6 1.3 12.6 27 5.2 38 10-1.4 3-10.2 4.9-32.4-.9-9.1 7.9 1.2 8.9-1.1-3.3-5.8-7.9-7.8-13.9-6.1m-53.7-20c.8 3.4-3.9 1.1-2-1-1.6-3.5 4.9-.3 2 1m-7.3-10.7c0-2.9 11.6.9 10.8 1 5.7 5.9-13.2-1.3-10.8-1m2 91c-1.7-.1-5 1-4-2 1.8.1 5-1 4 2m23.3-87c-.7 4.1-3.5.2-3.3-2.1 2-.1 5.1-.8 3.3 2.1m-10.6-25.9c-.4-7.1 13.3 14.4 3.4 9.5-6.5-3.1-4.5-5.3-3.4-9.5m.3 35.8c2.1-.1 4.8.1 6.1 2-2-.5-7 1.6-6.1-2m5.1 6.1c1.6.3 5.9-1.2 5.8.7-2-.2-6.7 2.9-5.8-.7m13.5-14.6c-.8.3-1.6.3-2.3.3 1.4 1.1 1.8 3.2 1.6 5.4-1.5-3.2-4.9-4-6.9-5.3 1.1-.5 2-.8 2.8-.8-2.2-1.3-1.8-3.6 6.2-2.7 5.7-4.9.3 2.5-1.4 3.1"/><path d="m357 156c.1 0 .2 0 .2.1h-.2"/><path d="m298 160c-1.5 4.6 4.2 1.2 0 0"/><path d="m367 161c-2.2 5.4 4.3 2 0 0"/><path d="m340 161c-1 4.7 4.6-1 0 0"/><path d="m285 165c-2.7 3.7 6.5.5 0 0"/><path d="m315 168c-.1 3.9-.1-.3 0 0"/><path d="m363 171c-2.3 4.9 3.3 2.5 0 0"/><path d="m312 177c-4.1 5.3 5.6 1 0 0"/><path d="m321 188c-5.5 1.8 2.8 3.7 0 0"/><path d="m329 198c-5.7 2.3 5.2 2.2 0 0"/><path d="m169 136c5 7.1-9.5 2.3-10 2.2 3.8.8 7.1.1 10-2.2"/><path d="m154 140c4.8 2.7.1 2.6 0 0"/><path d="m74.9 149c.5 1 0 .6 1.5 1.9-.5-.5-.3-.4 0-.2 0-2.1-1.3-4-3-3.9.5.7 1 1.4 1.5 2.2"/><path d="m288 147c2.4-.1 6.2-1.4 2.8 4.6-3 1.3-5.8-3.1-2.8-4.6"/><path d="m438 157c-4.4-3 5.3-6.6 0 0"/><path d="m136 157c5.3-1.4 43 20.9 32 33.7-5.6 4.9-31-29.6-29-28-1.6-1.5-6.3.3-10-2.8 0-8.4 15 6.5 7-2.9m16.3 19c0 2.6 3.4 2.6 5.1 3.8 1.3-4.4-2-3.8-5.1-3.8"/><path d="m142 162c-4.3 4.3 5.2 1.8 0 0"/><path d="m145 165c-1.9 6 6.5-1.8 0 0"/><path d="m150 167c1.3 5 5.9-1.6 0 0"/><path d="m350 161c-.4 6.8-5.2-3.6 0-1.5 0 .4 0 1.1 0 1.5"/><path d="m414 166c.7-1.7 3.1-.7 2.3 1-.5-.2-1.7-.7-2.3-1"/><path d="m245 205c.1 0 .1 0 .2 0-3.2-8.9-13-28.8-22.4-22.9.3-.2.4-.3-.3.2-4.7 4.1 16 16 22.5 22.7"/><path d="m204 184c-.1-.1-.2-.1-.3-.2 0 .1 0 .2 0 .3-.9 7.4 13.8 11.2 10 14.7 2.8 1.5 5-.1 6.4-2.6-3-2.3-5.7-4.8-8.6-7.2-3.3-.1-6-2.2-7.5-5"/><path d="m355 210c4.5-2.8 3.4 10.6 5.6 16.7-.6 9.4-6.5-20.6-5.6-16.7"/><path d="m253 210c19-1.7 17.7 34 0 0"/><path d="m316 260c-4 4.1-7.2-6.9-1.6-1.4.4.4 1.2 1.1 1.6 1.4"/><path d="m299 261c3.6-5.6 41 18.6 3.7 21.8.7-7.5-4.3-14.4-3.7-21.8m8.7 3.7c-.2 1.1.5 11.9 3.4 6.5 2.9-3.2.4-6.1-3.4-6.5"/><path d="m132 73c2.6 5.4 6.7 12.7 8 18.9 3.1-6.3-.1-13.2-8-18.9"/><path d="m30.9 77c-1.7-.7-12.2-14.3 31 6.8-.3-.3 24.5-12.2 21.5 2.9.2-.2 1-.2 2.4-.1 1.3-.7 2.8-1.1 4.6-1.1 3.4 0 5.8 1.5 7.2 3.6 16.6 4.3 42.5 13.9 48 27 8.4-16.4-71-47.9-76-53.6 26.7-3.4 49 2.4 61 11-4.7-9.6-5-13 22.3 6.4-20.7-31-59-17.4-87-25 18.6-6.9 77-7.4-17.2-17.6 0 38.5-6.8 19-9.8 19-7-8.9-28-29.5 87-51.9-38 3.8-95 7.7-117 39-.5 1.4-1 2.7-1.5 4-1.3 4.7-2 9.5-4.2 13.9 1 5 .3 9.8-2.5 13.9.2 5.1 2.2 8.4 5.5 11.4 5.2 4.6 78.9 72 141 67-89-24.6-113-69-116-77"/><path d="m70 16.9c81-37.8 239 10.7 196 63-10-87-175-76-196-63"/><path d="m559 65c-1.3 1.7-2.5 3.5-3.5 5.3 1.3-1.8 2.5-3.6 3.5-5.3"/><path d="m540 75c13.3-10.2 6.7-23-6.3-34 6.6 11.9 13.8 26 6.3 34"/><path d="m604 12.9c-9-9-98-8.4-124-6.3-86 14.4-100 40.5-101 45 .7-.2 1.4-.4 2.2-.5 120-63 179 2.8 104 55 59.9-41.9 47-76 3.2-89 12 1.8 32.8 11.3 46 23-8.1-14.5-15.4-25.7 5.5-18.4 0 0 35.7 14.3 19.3 42.9 23-30.5 85-47 45.6 1.4 38.7-32.7 57-47 3.1 11.3 32-17.8 48.7-65.8 20 11.4 55.8-56-23-76-23-76"/></g></svg>