<svg width="1300" height="688" xmlns="http://www.w3.org/2000/svg"><g><path d="M-59,-22L-55,454L-33,218Z" fill="#a56761" stroke="#a56761"/><path d="M-59,-22L-33,218L-38,36Z" fill="#94172a" stroke="#94172a"/><path d="M-59,-22L-38,36L32,-24Z" fill="#690021" stroke="#690021"/><path d="M-59,-22L32,-24L119,-56Z" fill="#640320" stroke="#640320"/><path d="M32,-24L-38,36L62,37Z" fill="#810625" stroke="#810625"/><path d="M32,-24L62,37L102,30Z" fill="#8e0a27" stroke="#8e0a27"/><path d="M32,-24L102,30L119,-56Z" fill="#7f0825" stroke="#7f0825"/><path d="M119,-56L102,30L211,20Z" fill="#97102a" stroke="#97102a"/><path d="M119,-56L211,20L195,-56Z" fill="#89192b" stroke="#89192b"/><path d="M119,-56L195,-56L1083,-63Z" fill="#956262" stroke="#956262"/><path d="M195,-56L211,20L261,15Z" fill="#9f2634" stroke="#9f2634"/><path d="M195,-56L261,15L288,-23Z" fill="#992d36" stroke="#992d36"/><path d="M195,-56L288,-23L337,-23Z" fill="#943438" stroke="#943438"/><path d="M195,-56L337,-23L428,-45Z" fill="#954041" stroke="#954041"/><path d="M195,-56L428,-45L839,-56Z" fill="#996768" stroke="#996768"/><path d="M195,-56L839,-56L1083,-63Z" fill="#806875" stroke="#806875"/><path d="M288,-23L261,15L337,-23Z" fill="#a63a3f" stroke="#a63a3f"/><path d="M337,-23L261,15L366,38Z" fill="#b64347" stroke="#b64347"/><path d="M337,-23L366,38L428,-45Z" fill="#b04f50" stroke="#b04f50"/><path d="M428,-45L366,38L457,48Z" fill="#c25c5c" stroke="#c25c5c"/><path d="M428,-45L457,48L514,-15Z" fill="#b86368" stroke="#b86368"/><path d="M428,-45L514,-15L610,-42Z" fill="#a66d72" stroke="#a66d72"/><path d="M428,-45L610,-42L839,-56Z" fill="#91707b" stroke="#91707b"/><path d="M514,-15L457,48L534,40Z" fill="#cb7074" stroke="#cb7074"/><path d="M514,-15L534,40L583,49Z" fill="#ca757b" stroke="#ca757b"/><path d="M514,-15L583,49L610,-42Z" fill="#b56f7a" stroke="#b56f7a"/><path d="M610,-42L583,49L662,22Z" fill="#b87281" stroke="#b87281"/><path d="M610,-42L662,22L685,-17Z" fill="#a57081" stroke="#a57081"/><path d="M610,-42L685,-17L839,-56Z" fill="#8c6776" stroke="#8c6776"/><path d="M685,-17L662,22L746,22Z" fill="#ad6c7d" stroke="#ad6c7d"/><path d="M685,-17L746,22L765,-19Z" fill="#9f6476" stroke="#9f6476"/><path d="M685,-17L765,-19L839,-56Z" fill="#89606f" stroke="#89606f"/><path d="M765,-19L746,22L834,53Z" fill="#a66171" stroke="#a66171"/><path d="M765,-19L834,53L839,-56Z" fill="#905769" stroke="#905769"/><path d="M839,-56L834,53L923,54Z" fill="#955161" stroke="#955161"/><path d="M839,-56L923,54L943,-54Z" fill="#774556" stroke="#774556"/><path d="M839,-56L943,-54L1083,-63Z" fill="#523a46" stroke="#523a46"/><path d="M943,-54L923,54L1005,-19Z" fill="#73394b" stroke="#73394b"/><path d="M943,-54L1005,-19L1083,-63Z" fill="#4d2d3b" stroke="#4d2d3b"/><path d="M1005,-19L923,54L1011,36Z" fill="#813a49" stroke="#813a49"/><path d="M1005,-19L1011,36L1085,53Z" fill="#752e3d" stroke="#752e3d"/><path d="M1005,-19L1085,53L1083,-63Z" fill="#5a2335" stroke="#5a2335"/><path d="M1083,-63L1085,53L1159,-52Z" fill="#49192a" stroke="#49192a"/><path d="M1083,-63L1159,-52L1250,-54Z" fill="#270e1b" stroke="#270e1b"/><path d="M1159,-52L1085,53L1181,38Z" fill="#591627" stroke="#591627"/><path d="M1159,-52L1181,38L1250,-54Z" fill="#370818" stroke="#370818"/><path d="M1250,-54L1181,38L1221,64Z" fill="#4c0818" stroke="#4c0818"/><path d="M1250,-54L1221,64L1314,33Z" fill="#470414" stroke="#470414"/><path d="M1250,-54L1314,33L1305,-40Z" fill="#310011" stroke="#310011"/><path d="M1250,-54L1305,-40L1383,-36Z" fill="#22000e" stroke="#22000e"/><path d="M1305,-40L1314,33L1383,-36Z" fill="#340011" stroke="#340011"/><path d="M1383,-36L1314,33L1425,42Z" fill="#460414" stroke="#460414"/><path d="M-38,36L-33,218L-20,144Z" fill="#a9363b" stroke="#a9363b"/><path d="M-38,36L-20,144L25,102Z" fill="#a32030" stroke="#a32030"/><path d="M-38,36L25,102L62,37Z" fill="#9b1129" stroke="#9b1129"/><path d="M62,37L25,102L139,123Z" fill="#b92332" stroke="#b92332"/><path d="M62,37L139,123L102,30Z" fill="#b71a2d" stroke="#b71a2d"/><path d="M102,30L139,123L211,20Z" fill="#bf2031" stroke="#bf2031"/><path d="M211,20L139,123L221,98Z" fill="#cf353b" stroke="#cf353b"/><path d="M211,20L221,98L261,15Z" fill="#c1343a" stroke="#c1343a"/><path d="M261,15L221,98L261,105Z" fill="#d54040" stroke="#d54040"/><path d="M261,15L261,105L366,38Z" fill="#cf4746" stroke="#cf4746"/><path d="M366,38L261,105L340,140Z" fill="#e46154" stroke="#e46154"/><path d="M366,38L340,140L441,144Z" fill="#ef7865" stroke="#ef7865"/><path d="M366,38L441,144L457,48Z" fill="#e86f66" stroke="#e86f66"/><path d="M457,48L441,144L521,121Z" fill="#f28a7b" stroke="#f28a7b"/><path d="M457,48L521,121L534,40Z" fill="#e97c7a" stroke="#e97c7a"/><path d="M534,40L521,121L583,49Z" fill="#e68080" stroke="#e68080"/><path d="M583,49L521,121L590,127Z" fill="#ed928b" stroke="#ed928b"/><path d="M583,49L590,127L662,22Z" fill="#dd8186" stroke="#dd8186"/><path d="M662,22L590,127L697,142Z" fill="#e39292" stroke="#e39292"/><path d="M662,22L697,142L746,22Z" fill="#ce7982" stroke="#ce7982"/><path d="M746,22L697,142L771,130Z" fill="#d68685" stroke="#d68685"/><path d="M746,22L771,130L828,97Z" fill="#cb767a" stroke="#cb767a"/><path d="M746,22L828,97L834,53Z" fill="#bb6771" stroke="#bb6771"/><path d="M834,53L828,97L917,96Z" fill="#bc676b" stroke="#bc676b"/><path d="M834,53L917,96L923,54Z" fill="#b15861" stroke="#b15861"/><path d="M923,54L917,96L998,120Z" fill="#ac595c" stroke="#ac595c"/><path d="M923,54L998,120L1011,36Z" fill="#9f474f" stroke="#9f474f"/><path d="M1011,36L998,120L1085,53Z" fill="#933b43" stroke="#933b43"/><path d="M1085,53L998,120L1090,115Z" fill="#964445" stroke="#964445"/><path d="M1085,53L1090,115L1181,38Z" fill="#812931" stroke="#812931"/><path d="M1181,38L1090,115L1177,144Z" fill="#853434" stroke="#853434"/><path d="M1181,38L1177,144L1221,64Z" fill="#772226" stroke="#772226"/><path d="M1221,64L1177,144L1248,137Z" fill="#7d302c" stroke="#7d302c"/><path d="M1221,64L1248,137L1305,132Z" fill="#772a26" stroke="#772a26"/><path d="M1221,64L1305,132L1314,33Z" fill="#6d161c" stroke="#6d161c"/><path d="M1314,33L1305,132L1380,139Z" fill="#742423" stroke="#742423"/><path d="M1314,33L1380,139L1425,42Z" fill="#6b131b" stroke="#6b131b"/><path d="M1425,42L1380,139L1419,190Z" fill="#7b312a" stroke="#7b312a"/><path d="M1425,42L1419,190L1418,691Z" fill="#80807b" stroke="#80807b"/><path d="M-20,144L-33,218L51,189Z" fill="#b35553" stroke="#b35553"/><path d="M-20,144L51,189L25,102Z" fill="#b93f42" stroke="#b93f42"/><path d="M25,102L51,189L139,123Z" fill="#c84041" stroke="#c84041"/><path d="M139,123L51,189L134,207Z" fill="#d25953" stroke="#d25953"/><path d="M139,123L134,207L196,222Z" fill="#dc695c" stroke="#dc695c"/><path d="M139,123L196,222L221,98Z" fill="#e05b4f" stroke="#e05b4f"/><path d="M221,98L196,222L269,183Z" fill="#e6735f" stroke="#e6735f"/><path d="M221,98L269,183L261,105Z" fill="#e66251" stroke="#e66251"/><path d="M261,105L269,183L340,140Z" fill="#ee745d" stroke="#ee745d"/><path d="M340,140L269,183L361,212Z" fill="#f29374" stroke="#f29374"/><path d="M340,140L361,212L441,144Z" fill="#f99a7a" stroke="#f99a7a"/><path d="M441,144L361,212L428,219Z" fill="#fab08e" stroke="#fab08e"/><path d="M441,144L428,219L522,220Z" fill="#fcbd9d" stroke="#fcbd9d"/><path d="M441,144L522,220L521,121Z" fill="#fdb096" stroke="#fdb096"/><path d="M521,121L522,220L590,127Z" fill="#fcb29d" stroke="#fcb29d"/><path d="M590,127L522,220L604,197Z" fill="#f8c2ab" stroke="#f8c2ab"/><path d="M590,127L604,197L670,182Z" fill="#f3bba9" stroke="#f3bba9"/><path d="M590,127L670,182L697,142Z" fill="#efb0a4" stroke="#efb0a4"/><path d="M697,142L670,182L781,209Z" fill="#e6b8a7" stroke="#e6b8a7"/><path d="M697,142L781,209L771,130Z" fill="#e1a89a" stroke="#e1a89a"/><path d="M771,130L781,209L842,220Z" fill="#d9b09e" stroke="#d9b09e"/><path d="M771,130L842,220L828,97Z" fill="#d6978a" stroke="#d6978a"/><path d="M828,97L842,220L900,183Z" fill="#ce998a" stroke="#ce998a"/><path d="M828,97L900,183L917,96Z" fill="#c57b74" stroke="#c57b74"/><path d="M917,96L900,183L998,120Z" fill="#bb746a" stroke="#bb746a"/><path d="M998,120L900,183L1003,224Z" fill="#b78777" stroke="#b78777"/><path d="M998,120L1003,224L1056,189Z" fill="#ab7c6c" stroke="#ab7c6c"/><path d="M998,120L1056,189L1090,115Z" fill="#a56155" stroke="#a56155"/><path d="M1090,115L1056,189L1158,224Z" fill="#9a6b5a" stroke="#9a6b5a"/><path d="M1090,115L1158,224L1177,144Z" fill="#925a4b" stroke="#925a4b"/><path d="M1177,144L1158,224L1237,198Z" fill="#89614f" stroke="#89614f"/><path d="M1177,144L1237,198L1248,137Z" fill="#834a3b" stroke="#834a3b"/><path d="M1248,137L1237,198L1300,177Z" fill="#804d3d" stroke="#804d3d"/><path d="M1248,137L1300,177L1305,132Z" fill="#804033" stroke="#804033"/><path d="M1305,132L1300,177L1380,139Z" fill="#804034" stroke="#804034"/><path d="M1380,139L1300,177L1419,190Z" fill="#804c3c" stroke="#804c3c"/><path d="M-33,218L-55,454L-33,379Z" fill="#a67e8c" stroke="#a67e8c"/><path d="M-33,218L-33,379L-16,297Z" fill="#ab8088" stroke="#ab8088"/><path d="M-33,218L-16,297L42,291Z" fill="#b37d82" stroke="#b37d82"/><path d="M-33,218L42,291L51,189Z" fill="#b9706e" stroke="#b9706e"/><path d="M51,189L42,291L126,274Z" fill="#c87c7c" stroke="#c87c7c"/><path d="M51,189L126,274L134,207Z" fill="#d1736c" stroke="#d1736c"/><path d="M134,207L126,274L196,222Z" fill="#dc8177" stroke="#dc8177"/><path d="M196,222L126,274L215,267Z" fill="#e09086" stroke="#e09086"/><path d="M196,222L215,267L269,183Z" fill="#e6917a" stroke="#e6917a"/><path d="M269,183L215,267L288,301Z" fill="#eaa58e" stroke="#eaa58e"/><path d="M269,183L288,301L361,212Z" fill="#f0aa8d" stroke="#f0aa8d"/><path d="M361,212L288,301L353,283Z" fill="#f3bfa6" stroke="#f3bfa6"/><path d="M361,212L353,283L428,219Z" fill="#f9c0a0" stroke="#f9c0a0"/><path d="M428,219L353,283L454,294Z" fill="#fbd3b8" stroke="#fbd3b8"/><path d="M428,219L454,294L502,274Z" fill="#fcdcc3" stroke="#fcdcc3"/><path d="M428,219L502,274L522,220Z" fill="#fdd6ba" stroke="#fdd6ba"/><path d="M522,220L502,274L585,257Z" fill="#fce3cd" stroke="#fce3cd"/><path d="M522,220L585,257L604,197Z" fill="#f9d9c1" stroke="#f9d9c1"/><path d="M604,197L585,257L660,287Z" fill="#f4e3d3" stroke="#f4e3d3"/><path d="M604,197L660,287L670,182Z" fill="#f0d9c7" stroke="#f0d9c7"/><path d="M670,182L660,287L761,290Z" fill="#e9dfd3" stroke="#e9dfd3"/><path d="M670,182L761,290L781,209Z" fill="#e3cebd" stroke="#e3cebd"/><path d="M781,209L761,290L822,257Z" fill="#dbd1c4" stroke="#dbd1c4"/><path d="M781,209L822,257L842,220Z" fill="#d6c2b1" stroke="#d6c2b1"/><path d="M842,220L822,257L935,284Z" fill="#ccc3b6" stroke="#ccc3b6"/><path d="M842,220L935,284L900,183Z" fill="#c7b3a2" stroke="#c7b3a2"/><path d="M900,183L935,284L1003,224Z" fill="#bba898" stroke="#bba898"/><path d="M1003,224L935,284L984,276Z" fill="#b5afa3" stroke="#b5afa3"/><path d="M1003,224L984,276L1060,304Z" fill="#aca99e" stroke="#aca99e"/><path d="M1003,224L1060,304L1056,189Z" fill="#a69788" stroke="#a69788"/><path d="M1056,189L1060,304L1158,224Z" fill="#9c8d7e" stroke="#9c8d7e"/><path d="M1158,224L1060,304L1185,304Z" fill="#94948b" stroke="#94948b"/><path d="M1158,224L1185,304L1237,198Z" fill="#887a6b" stroke="#887a6b"/><path d="M1237,198L1185,304L1251,298Z" fill="#827f74" stroke="#827f74"/><path d="M1237,198L1251,298L1301,298Z" fill="#807b70" stroke="#807b70"/><path d="M1237,198L1301,298L1300,177Z" fill="#806a58" stroke="#806a58"/><path d="M1300,177L1301,298L1416,270Z" fill="#807467" stroke="#807467"/><path d="M1300,177L1416,270L1419,190Z" fill="#806551" stroke="#806551"/><path d="M1419,190L1416,270L1418,691Z" fill="#767676" stroke="#767676"/><path d="M-16,297L-33,379L59,362Z" fill="#b4808f" stroke="#b4808f"/><path d="M-16,297L59,362L42,291Z" fill="#bb828d" stroke="#bb828d"/><path d="M42,291L59,362L126,350Z" fill="#c98791" stroke="#c98791"/><path d="M42,291L126,350L126,274Z" fill="#d0898f" stroke="#d0898f"/><path d="M126,274L126,350L215,267Z" fill="#dc9393" stroke="#dc9393"/><path d="M215,267L126,350L190,382Z" fill="#df999a" stroke="#df999a"/><path d="M215,267L190,382L266,375Z" fill="#e6a6a1" stroke="#e6a6a1"/><path d="M215,267L266,375L288,301Z" fill="#eaafa2" stroke="#eaafa2"/><path d="M288,301L266,375L337,364Z" fill="#efb9ad" stroke="#efb9ad"/><path d="M288,301L337,364L353,283Z" fill="#f2c1b0" stroke="#f2c1b0"/><path d="M353,283L337,364L417,356Z" fill="#f7cdbb" stroke="#f7cdbb"/><path d="M353,283L417,356L454,294Z" fill="#fad6c1" stroke="#fad6c1"/><path d="M454,294L417,356L530,350Z" fill="#fce2d4" stroke="#fce2d4"/><path d="M454,294L530,350L502,274Z" fill="#fde8d8" stroke="#fde8d8"/><path d="M502,274L530,350L585,257Z" fill="#fceedf" stroke="#fceedf"/><path d="M585,257L530,350L587,376Z" fill="#f9eee6" stroke="#f9eee6"/><path d="M585,257L587,376L660,287Z" fill="#f4efe7" stroke="#f4efe7"/><path d="M660,287L587,376L687,349Z" fill="#f0f0ee" stroke="#f0f0ee"/><path d="M660,287L687,349L736,343Z" fill="#e9e9e7" stroke="#e9e9e7"/><path d="M660,287L736,343L761,290Z" fill="#e6e6e1" stroke="#e6e6e1"/><path d="M761,290L736,343L834,338Z" fill="#dddddb" stroke="#dddddb"/><path d="M761,290L834,338L822,257Z" fill="#d8d8d1" stroke="#d8d8d1"/><path d="M822,257L834,338L935,284Z" fill="#ccccc6" stroke="#ccccc6"/><path d="M935,284L834,338L904,380Z" fill="#c7c7c5" stroke="#c7c7c5"/><path d="M935,284L904,380L985,359Z" fill="#bcbcbc" stroke="#bcbcbc"/><path d="M935,284L985,359L984,276Z" fill="#b6b6b1" stroke="#b6b6b1"/><path d="M984,276L985,359L1060,304Z" fill="#adada9" stroke="#adada9"/><path d="M1060,304L985,359L1078,371Z" fill="#a6a6a6" stroke="#a6a6a6"/><path d="M1060,304L1078,371L1178,343Z" fill="#999999" stroke="#999999"/><path d="M1060,304L1178,343L1185,304Z" fill="#92928f" stroke="#92928f"/><path d="M1185,304L1178,343L1251,298Z" fill="#868682" stroke="#868682"/><path d="M1251,298L1178,343L1262,359Z" fill="#81817f" stroke="#81817f"/><path d="M1251,298L1262,359L1301,298Z" fill="#80807c" stroke="#80807c"/><path d="M1301,298L1262,359L1301,362Z" fill="#80807f" stroke="#80807f"/><path d="M1301,298L1301,362L1379,347Z" fill="#80807f" stroke="#80807f"/><path d="M1301,298L1379,347L1416,270Z" fill="#80807b" stroke="#80807b"/><path d="M1416,270L1379,347L1379,425Z" fill="#7f7f7f" stroke="#7f7f7f"/><path d="M1416,270L1379,425L1408,508Z" fill="#727272" stroke="#727272"/><path d="M1416,270L1408,508L1418,691Z" fill="#4d4d4d" stroke="#4d4d4d"/><path d="M-33,379L-55,454L26,458Z" fill="#956776" stroke="#956776"/><path d="M-33,379L26,458L59,362Z" fill="#ab7483" stroke="#ab7483"/><path d="M59,362L26,458L96,451Z" fill="#af707d" stroke="#af707d"/><path d="M59,362L96,451L126,350Z" fill="#c47e89" stroke="#c47e89"/><path d="M126,350L96,451L188,425Z" fill="#ca7e87" stroke="#ca7e87"/><path d="M126,350L188,425L190,382Z" fill="#d48c90" stroke="#d48c90"/><path d="M190,382L188,425L268,424Z" fill="#d59390" stroke="#d59390"/><path d="M190,382L268,424L266,375Z" fill="#dc9f98" stroke="#dc9f98"/><path d="M266,375L268,424L337,364Z" fill="#e4ada2" stroke="#e4ada2"/><path d="M337,364L268,424L369,423Z" fill="#e4b2a5" stroke="#e4b2a5"/><path d="M337,364L369,423L417,356Z" fill="#efc5b5" stroke="#efc5b5"/><path d="M417,356L369,423L439,448Z" fill="#ebc7b6" stroke="#ebc7b6"/><path d="M417,356L439,448L530,350Z" fill="#f2d7ca" stroke="#f2d7ca"/><path d="M530,350L439,448L537,450Z" fill="#ecd8cc" stroke="#ecd8cc"/><path d="M530,350L537,450L587,376Z" fill="#efe2db" stroke="#efe2db"/><path d="M587,376L537,450L615,449Z" fill="#e2d8d3" stroke="#e2d8d3"/><path d="M587,376L615,449L687,349Z" fill="#e7e4e2" stroke="#e7e4e2"/><path d="M687,349L615,449L678,462Z" fill="#dbdbdb" stroke="#dbdbdb"/><path d="M687,349L678,462L740,423Z" fill="#d8d8d8" stroke="#d8d8d8"/><path d="M687,349L740,423L736,343Z" fill="#dfdfdf" stroke="#dfdfdf"/><path d="M736,343L740,423L834,338Z" fill="#d8d8d8" stroke="#d8d8d8"/><path d="M834,338L740,423L856,418Z" fill="#cbcbcb" stroke="#cbcbcb"/><path d="M834,338L856,418L904,380Z" fill="#c4c4c4" stroke="#c4c4c4"/><path d="M904,380L856,418L937,460Z" fill="#b2b2b2" stroke="#b2b2b2"/><path d="M904,380L937,460L982,446Z" fill="#a5a5a5" stroke="#a5a5a5"/><path d="M904,380L982,446L985,359Z" fill="#adadad" stroke="#adadad"/><path d="M985,359L982,446L1069,436Z" fill="#9b9b9b" stroke="#9b9b9b"/><path d="M985,359L1069,436L1078,371Z" fill="#9b9b9b" stroke="#9b9b9b"/><path d="M1078,371L1069,436L1162,422Z" fill="#8a8a8a" stroke="#8a8a8a"/><path d="M1078,371L1162,422L1178,343Z" fill="#8a8a8a" stroke="#8a8a8a"/><path d="M1178,343L1162,422L1262,359Z" fill="#7f7f7f" stroke="#7f7f7f"/><path d="M1262,359L1162,422L1221,461Z" fill="#737373" stroke="#737373"/><path d="M1262,359L1221,461L1329,425Z" fill="#6e6e6e" stroke="#6e6e6e"/><path d="M1262,359L1329,425L1301,362Z" fill="#777777" stroke="#777777"/><path d="M1301,362L1329,425L1379,347Z" fill="#787878" stroke="#787878"/><path d="M1379,347L1329,425L1379,425Z" fill="#737373" stroke="#737373"/><path d="M-55,454L-43,751L-46,595Z" fill="#3f1a27" stroke="#3f1a27"/><path d="M-55,454L-46,595L-31,529Z" fill="#613a48" stroke="#613a48"/><path d="M-55,454L-31,529L26,458Z" fill="#7f5160" stroke="#7f5160"/><path d="M26,458L-31,529L41,513Z" fill="#7f4958" stroke="#7f4958"/><path d="M26,458L41,513L96,451Z" fill="#975966" stroke="#975966"/><path d="M96,451L41,513L105,513Z" fill="#96535e" stroke="#96535e"/><path d="M96,451L105,513L188,425Z" fill="#b2656e" stroke="#b2656e"/><path d="M188,425L105,513L207,529Z" fill="#ab6368" stroke="#ab6368"/><path d="M188,425L207,529L266,499Z" fill="#b57471" stroke="#b57471"/><path d="M188,425L266,499L268,424Z" fill="#c88a83" stroke="#c88a83"/><path d="M268,424L266,499L369,423Z" fill="#cf9a8e" stroke="#cf9a8e"/><path d="M369,423L266,499L373,514Z" fill="#c69688" stroke="#c69688"/><path d="M369,423L373,514L439,448Z" fill="#d4ad9c" stroke="#d4ad9c"/><path d="M439,448L373,514L463,497Z" fill="#c9a899" stroke="#c9a899"/><path d="M439,448L463,497L537,450Z" fill="#d5bdb1" stroke="#d5bdb1"/><path d="M537,450L463,497L505,507Z" fill="#cdb9ae" stroke="#cdb9ae"/><path d="M537,450L505,507L602,529Z" fill="#c5b8b0" stroke="#c5b8b0"/><path d="M537,450L602,529L615,449Z" fill="#cbc2bd" stroke="#cbc2bd"/><path d="M615,449L602,529L678,462Z" fill="#c3c1bf" stroke="#c3c1bf"/><path d="M678,462L602,529L688,510Z" fill="#b6b6b6" stroke="#b6b6b6"/><path d="M678,462L688,510L751,522Z" fill="#b1b1b1" stroke="#b1b1b1"/><path d="M678,462L751,522L740,423Z" fill="#bcbcbc" stroke="#bcbcbc"/><path d="M740,423L751,522L834,521Z" fill="#ababab" stroke="#ababab"/><path d="M740,423L834,521L856,418Z" fill="#b4b4b4" stroke="#b4b4b4"/><path d="M856,418L834,521L903,515Z" fill="#9c9c9c" stroke="#9c9c9c"/><path d="M856,418L903,515L937,460Z" fill="#9e9e9e" stroke="#9e9e9e"/><path d="M937,460L903,515L1014,513Z" fill="#848484" stroke="#848484"/><path d="M937,460L1014,513L982,446Z" fill="#898989" stroke="#898989"/><path d="M982,446L1014,513L1069,436Z" fill="#838383" stroke="#838383"/><path d="M1069,436L1014,513L1079,523Z" fill="#707070" stroke="#707070"/><path d="M1069,436L1079,523L1162,422Z" fill="#747474" stroke="#747474"/><path d="M1162,422L1079,523L1159,539Z" fill="#5e5e5e" stroke="#5e5e5e"/><path d="M1162,422L1159,539L1221,461Z" fill="#5f5f5f" stroke="#5f5f5f"/><path d="M1221,461L1159,539L1224,524Z" fill="#4b4b4b" stroke="#4b4b4b"/><path d="M1221,461L1224,524L1317,497Z" fill="#4b4b4b" stroke="#4b4b4b"/><path d="M1221,461L1317,497L1329,425Z" fill="#5a5a5a" stroke="#5a5a5a"/><path d="M1329,425L1317,497L1379,425Z" fill="#5f5f5f" stroke="#5f5f5f"/><path d="M1379,425L1317,497L1408,508Z" fill="#535353" stroke="#535353"/><path d="M-31,529L-46,595L47,595Z" fill="#552534" stroke="#552534"/><path d="M-31,529L47,595L41,513Z" fill="#6a3341" stroke="#6a3341"/><path d="M41,513L47,595L105,513Z" fill="#793946" stroke="#793946"/><path d="M105,513L47,595L107,602Z" fill="#732e3a" stroke="#732e3a"/><path d="M105,513L107,602L207,529Z" fill="#8a3e46" stroke="#8a3e46"/><path d="M207,529L107,602L221,591Z" fill="#843e40" stroke="#843e40"/><path d="M207,529L221,591L266,499Z" fill="#9b5c57" stroke="#9b5c57"/><path d="M266,499L221,591L268,618Z" fill="#90544c" stroke="#90544c"/><path d="M266,499L268,618L354,597Z" fill="#955f54" stroke="#955f54"/><path d="M266,499L354,597L373,514Z" fill="#a8786a" stroke="#a8786a"/><path d="M373,514L354,597L439,597Z" fill="#a07867" stroke="#a07867"/><path d="M373,514L439,597L463,497Z" fill="#b08f80" stroke="#b08f80"/><path d="M463,497L439,597L505,507Z" fill="#b39a8d" stroke="#b39a8d"/><path d="M505,507L439,597L537,597Z" fill="#a58f84" stroke="#a58f84"/><path d="M505,507L537,597L602,529Z" fill="#ad9f97" stroke="#ad9f97"/><path d="M602,529L537,597L593,622Z" fill="#998f8a" stroke="#998f8a"/><path d="M602,529L593,622L680,579Z" fill="#969391" stroke="#969391"/><path d="M602,529L680,579L688,510Z" fill="#a3a3a3" stroke="#a3a3a3"/><path d="M688,510L680,579L751,522Z" fill="#9d9d9d" stroke="#9d9d9d"/><path d="M751,522L680,579L768,596Z" fill="#8c8c8c" stroke="#8c8c8c"/><path d="M751,522L768,596L834,521Z" fill="#8c8c8c" stroke="#8c8c8c"/><path d="M834,521L768,596L836,607Z" fill="#7b7b7b" stroke="#7b7b7b"/><path d="M834,521L836,607L903,515Z" fill="#7e7e7e" stroke="#7e7e7e"/><path d="M903,515L836,607L936,619Z" fill="#696969" stroke="#696969"/><path d="M903,515L936,619L1001,578Z" fill="#616161" stroke="#616161"/><path d="M903,515L1001,578L1014,513Z" fill="#6b6b6b" stroke="#6b6b6b"/><path d="M1014,513L1001,578L1079,523Z" fill="#5d5d5d" stroke="#5d5d5d"/><path d="M1079,523L1001,578L1055,620Z" fill="#4a4a4a" stroke="#4a4a4a"/><path d="M1079,523L1055,620L1155,605Z" fill="#3c3c3c" stroke="#3c3c3c"/><path d="M1079,523L1155,605L1159,539Z" fill="#414141" stroke="#414141"/><path d="M1159,539L1155,605L1224,524Z" fill="#373737" stroke="#373737"/><path d="M1224,524L1155,605L1254,617Z" fill="#262626" stroke="#262626"/><path d="M1224,524L1254,617L1317,497Z" fill="#303030" stroke="#303030"/><path d="M1317,497L1254,617L1340,610Z" fill="#242424" stroke="#242424"/><path d="M1317,497L1340,610L1408,508Z" fill="#343434" stroke="#343434"/><path d="M1408,508L1340,610L1385,609Z" fill="#242424" stroke="#242424"/><path d="M1408,508L1385,609L1418,691Z" fill="#191919" stroke="#191919"/><path d="M-46,595L-43,751L-24,702Z" fill="#29000e" stroke="#29000e"/><path d="M-46,595L-24,702L35,694Z" fill="#30000f" stroke="#30000f"/><path d="M-46,595L35,694L47,595Z" fill="#450f1e" stroke="#450f1e"/><path d="M47,595L35,694L107,602Z" fill="#531320" stroke="#531320"/><path d="M107,602L35,694L145,670Z" fill="#520c17" stroke="#520c17"/><path d="M107,602L145,670L194,658Z" fill="#631920" stroke="#631920"/><path d="M107,602L194,658L221,591Z" fill="#722b2e" stroke="#722b2e"/><path d="M221,591L194,658L268,618Z" fill="#773733" stroke="#773733"/><path d="M268,618L194,658L304,670Z" fill="#70342c" stroke="#70342c"/><path d="M268,618L304,670L354,597Z" fill="#7e4b3e" stroke="#7e4b3e"/><path d="M354,597L304,670L375,672Z" fill="#7b4d3e" stroke="#7b4d3e"/><path d="M354,597L375,672L439,597Z" fill="#8b6352" stroke="#8b6352"/><path d="M439,597L375,672L457,687Z" fill="#7f5e4e" stroke="#7f5e4e"/><path d="M439,597L457,687L496,669Z" fill="#816759" stroke="#816759"/><path d="M439,597L496,669L537,597Z" fill="#8f796d" stroke="#8f796d"/><path d="M537,597L496,669L593,622Z" fill="#8a7c73" stroke="#8a7c73"/><path d="M593,622L496,669L622,687Z" fill="#7a706a" stroke="#7a706a"/><path d="M593,622L622,687L680,579Z" fill="#807d7c" stroke="#807d7c"/><path d="M680,579L622,687L702,678Z" fill="#737373" stroke="#737373"/><path d="M680,579L702,678L768,596Z" fill="#797979" stroke="#797979"/><path d="M768,596L702,678L764,684Z" fill="#666666" stroke="#666666"/><path d="M768,596L764,684L836,607Z" fill="#696969" stroke="#696969"/><path d="M836,607L764,684L850,671Z" fill="#595959" stroke="#595959"/><path d="M836,607L850,671L936,619Z" fill="#575757" stroke="#575757"/><path d="M936,619L850,671L937,681Z" fill="#464646" stroke="#464646"/><path d="M936,619L937,681L998,675Z" fill="#3b3b3b" stroke="#3b3b3b"/><path d="M936,619L998,675L1001,578Z" fill="#444444" stroke="#444444"/><path d="M1001,578L998,675L1055,620Z" fill="#3b3b3b" stroke="#3b3b3b"/><path d="M1055,620L998,675L1095,701Z" fill="#252525" stroke="#252525"/><path d="M1055,620L1095,701L1155,605Z" fill="#232323" stroke="#232323"/><path d="M1155,605L1095,701L1183,698Z" fill="#121212" stroke="#121212"/><path d="M1155,605L1183,698L1223,681Z" fill="#0a0a0a" stroke="#0a0a0a"/><path d="M1155,605L1223,681L1254,617Z" fill="#101010" stroke="#101010"/><path d="M1254,617L1223,681L1313,667Z" fill="#030303" stroke="#030303"/><path d="M1254,617L1313,667L1340,610Z" fill="#0d0d0d" stroke="#0d0d0d"/><path d="M1340,610L1313,667L1385,609Z" fill="#0e0e0e" stroke="#0e0e0e"/><path d="M1385,609L1313,667L1418,691Z" fill="#030303" stroke="#030303"/><path d="M-24,702L-43,751L24,741Z" fill="#30000f" stroke="#30000f"/><path d="M-24,702L24,741L35,694Z" fill="#370110" stroke="#370110"/><path d="M35,694L24,741L137,785Z" fill="#470613" stroke="#470613"/><path d="M35,694L137,785L145,670Z" fill="#520a15" stroke="#520a15"/><path d="M145,670L137,785L190,776Z" fill="#5d1419" stroke="#5d1419"/><path d="M145,670L190,776L194,658Z" fill="#60191c" stroke="#60191c"/><path d="M194,658L190,776L284,775Z" fill="#662622" stroke="#662622"/><path d="M194,658L284,775L304,670Z" fill="#6b3027" stroke="#6b3027"/><path d="M304,670L284,775L365,760Z" fill="#724033" stroke="#724033"/><path d="M304,670L365,760L375,672Z" fill="#754839" stroke="#754839"/><path d="M375,672L365,760L457,687Z" fill="#7b5544" stroke="#7b5544"/><path d="M457,687L365,760L445,785Z" fill="#7b594a" stroke="#7b594a"/><path d="M457,687L445,785L496,775Z" fill="#7d6355" stroke="#7d6355"/><path d="M457,687L496,775L496,669Z" fill="#7d665a" stroke="#7d665a"/><path d="M496,669L496,775L605,770Z" fill="#7d6e65" stroke="#7d6e65"/><path d="M496,669L605,770L622,687Z" fill="#796f69" stroke="#796f69"/><path d="M622,687L605,770L703,744Z" fill="#717070" stroke="#717070"/><path d="M622,687L703,744L702,678Z" fill="#6c6c6c" stroke="#6c6c6c"/><path d="M702,678L703,744L764,684Z" fill="#666666" stroke="#666666"/><path d="M764,684L703,744L781,760Z" fill="#626262" stroke="#626262"/><path d="M764,684L781,760L850,671Z" fill="#5a5a5a" stroke="#5a5a5a"/><path d="M850,671L781,760L830,779Z" fill="#555555" stroke="#555555"/><path d="M850,671L830,779L902,764Z" fill="#4d4d4d" stroke="#4d4d4d"/><path d="M850,671L902,764L937,681Z" fill="#464646" stroke="#464646"/><path d="M937,681L902,764L995,745Z" fill="#3c3c3c" stroke="#3c3c3c"/><path d="M937,681L995,745L998,675Z" fill="#353535" stroke="#353535"/><path d="M998,675L995,745L1095,701Z" fill="#292929" stroke="#292929"/><path d="M1095,701L995,745L1082,760Z" fill="#232323" stroke="#232323"/><path d="M1095,701L1082,760L1155,756Z" fill="#191919" stroke="#191919"/><path d="M1095,701L1155,756L1183,698Z" fill="#121212" stroke="#121212"/><path d="M1183,698L1155,756L1257,740Z" fill="#080808" stroke="#080808"/><path d="M1183,698L1257,740L1223,681Z" fill="#030303" stroke="#030303"/><path d="M1223,681L1257,740L1313,667Z" fill="#000000" stroke="#000000"/><path d="M1313,667L1257,740L1341,739Z" fill="#000000" stroke="#000000"/><path d="M1313,667L1341,739L1418,691Z" fill="#000000" stroke="#000000"/><path d="M1418,691L1341,739L1381,758Z" fill="#000000" stroke="#000000"/><path d="M-43,751L137,785L24,741Z" fill="#3f0412" stroke="#3f0412"/><path d="M137,785L445,785L284,775Z" fill="#6f382d" stroke="#6f382d"/><path d="M137,785L284,775L190,776Z" fill="#63211f" stroke="#63211f"/><path d="M284,775L445,785L365,760Z" fill="#774c3c" stroke="#774c3c"/><path d="M445,785L830,779L605,770Z" fill="#73706e" stroke="#73706e"/><path d="M445,785L605,770L496,775Z" fill="#7f6d63" stroke="#7f6d63"/><path d="M605,770L830,779L781,760Z" fill="#636363" stroke="#636363"/><path d="M605,770L781,760L703,744Z" fill="#696969" stroke="#696969"/><path d="M830,779L1381,758L1082,760Z" fill="#1b1b1b" stroke="#1b1b1b"/><path d="M830,779L1082,760L902,764Z" fill="#3e3e3e" stroke="#3e3e3e"/><path d="M902,764L1082,760L995,745Z" fill="#313131" stroke="#313131"/><path d="M1082,760L1381,758L1155,756Z" fill="#060606" stroke="#060606"/><path d="M1155,756L1381,758L1257,740Z" fill="#000000" stroke="#000000"/><path d="M1257,740L1381,758L1341,739Z" fill="#000000" stroke="#000000"/></g></svg>