<svg xmlns="http://www.w3.org/2000/svg" width="647" height="389" viewBox="0 0 646.5 388.7" style="enable-background:new 0 0 646.5 388.7"><g style="fill:#33073b"><path d="m46.8 43c0-1.9-.2 8.7-1.3 5.4 3 .6 5.9 1.4 8.7 2.4 3.9-19.3-1.8-1 6.3-7.8-2.1 3.3-1.1 4.2 3.1 2.9-3.7 5.5-25 15.3-27 1.3 3.4-1.4 6.8-2.8 10.2-4.2"/><path d="m64 43c3.5.4 13.4 6.4 16 1-1.9 1.1-3.4.8-4.4-1 2.8 0 5.5 0 8.3 0-1.4-1.8.5 5.6.2 6-6.6-3.1-9.6.3-17 1.3 4.2-7.7-3.4.3-3.1-7.3"/><path d="m87 43c14.3.7 34.5-3.9 37 6.1 11.2-10.4 8.4 5.2 2.6-6.1 3.1 0 6.2 0 9.4 0 0-1.3-1.7 16.8.7 10.8-.6-1.4-1.6-2.6-2.9-3.5-.2 0 9.9 3 7.2 3.8.7 6.4-.6 7.1-4.1 1.9 2.6 1.7 3.6 3.7 3.1 5.9-1.1-.1-14-2.7-11.4-8-13 3 14.9 7.4.2 10.6 6-2.2 7.7-1.3 5.1 2.7-2.1.7-19.6-3.6-20-9.7 4 0 7.8-3.2 7.2-6.5 8.1 6.6-1.4 0 8.9 2.1.3 3.8-28.5-6.8-33-7 .7 6 3.5 7.6 8.2 4.8-2.2 4-12.8 9.4-17.4 10.5-6.8-.5 4.1-7.2 3-8.2-6 .8-9.5 4.8-6.6-4 .2 6.4 3.7 6.5 10.7.3 5.2 2.3-12.2 8.8 4.2 3.6-3.4-8-6.5-2.8-12-10m3 2c.9 3.1 3.9 1.1 6.2 1.7.5-3.2-4.2-1.2-6.2-1.7m15.2 0c-1.2 5.9 17.4 2.1 18 2-4.9-4.2-10.9-4.8-18-2m5 3.9c3.7 4.9-3.3.9 0 0m-20.8 7.3c-1.4 1.6.7 3.9 2.4 2.6.3-1.1-.9-3.6-2.4-2.6m44 0c-1.1 1.4 1.1 3.6 2.5 2.5 1.1-1.3-1.1-3.5-2.5-2.5z"/><path d="m150 43c4.7 0 9.3 0 14 0 3.8 4.9-12.6 1.8-10.8 7.9 2.1 5.4 12 4.2 16.8 5.5-12 10.4-22.6-3.4-20-13.4"/><path d="m199 43c41 8.2 33.7 85 66 101 20.5 16.9 30 5.6 44 13.7-2-18.3 15.9-35.5 21-9.2 6.8 15.7 22-3.3 30.6-5.5 1.5 2.8 1.8 12.8 1.9 12.9 0 0 27-36.4 28-38 11.4-20 24.5-80 50-75-1.7 4.3-28.7 50-25 52.8-.2 0 20.5-18.4 23.6-18.7 2.8-4 2.4-5.8-1-5.4 2.8-.5 4.9.6 6.2 3.2-2.2 2.2-2.4 5.9-5 2.9-2.3 4.6-.4 8.1 2.1 8.2-26.7 20.5-36 62-58 69-.3-4.5.7-6.5 6.1-1.9.7 2.3-11.5 18.6-7.8 17.8 12 2.5 14.4-18 22-16.2-2.1 17-9.6 15.5-15.8 16-1.3 12-14.5 6.9-15.4 18.9 3.7-3.6 5.6-7.8 10.2-5.7-.8 4.2-8 11.7-5.9 18.9-10-5.8 3.8-6-1.1-13-3.6 5-7.6 9.5-11.8 5.8 2.7 2.5 2.7 4.5-.1 6.1-4.9.2-.1-7.4-2.5 1.1-10 3.4-1.6-14.9-9.7-.8-1.3-2.3-3-10-5.9-11-2.2 5.6.6-.5 1 2.8-.1-1-15.3 8.5-17 9.4 1.3-5-.5 20.9-.6 15.9-24.5-16.7 16-29 21.5-33 22.5-13.4 14.2-16 27-37-22.3-.8-40 25.6-54 35.8.8-.2-57-38-59.8-30.8 7.6 8.4 3.8 20.9 7.4 28.7 3 7.3 17.6.6 25.4 2.6 11.5 9.6 26.3 25.7 18.5 36.9 0-.1 17.7 1.2 17.6 1.2-.1 2.4-2.5 13.8-7 13.8 8.8 9.2 23.5 14 24 29 .1 3.1-3.6-1-2.9-1.3 1-.2 2.4 20.7 2.3 21.3-3.1-1.5-5.2-4-6.3-7.3-.2 26-10.7 49-22 10-3.9-1-4.2.4-.9 4.1-.7 0 23.3-40.8 20.3-34.4 12 1.3-13.8 154-31 109-2.1-8.1-31.5-92-15.9-103-10.7-.9 4.5-41.6 8.9-45-22.3.5 2.7 3.1-15.9 13-.3-5 .9-9.2 1-14.2-7 10-7.4 13.2-1.5 16.7 1.9 13.6-15.7 4.3-20.5 7.3.4-3.5 2.9-14.2 8.6-15-2.8 5.3 7.3-3.6 1.4 7.3 9.4 2.1-.5-10.4-.3-9 7.5 2.8 13.7-14 14.2-20 2.3.7-14.2-6.5-10.6-6.2 1.6 5.2-3.7 6.8-5 .6-21.5-6.1-3.4-10.8-4.5-16.5-13.3 5.6-20-32.7-11.8-29.8-.2-9.5-28.7-49-25-52-1.5.9-41-49-33.4-58m9.6 19c-1.1 3.3 1.5 3.4 4.1 3-.5-1.8-2.6-2.2-4.1-3m216 29.4c-6 6.8 1-.6 0 0m-21 6.7c2 6.6-7.7 22.7-4.1 27 4.1 5 18.4-21 19.7-25 1.7-5.5-11.7.9-10.9.7 2.6-4.7 1-5.6-4.7-2.7m-5 30.9c.2 1.4-8.1 13-8.3 11.9 1.3-1.1 24.3-10.5 8.3-11.9m-12.9 9.2c-1.1.7-3.1.2-3.4 1.8.4 2.5 5.7-.7 3.4-1.8m-58 12.8c-3.3 12.2-1.4 4.3-13 5.9 5.9 9.8-3.8-5.1-4.5 2.1.3-3.4 17 12.4 9.8 13 4-.4 10-12.5 12.3-14.3-1.5 1.3.5-8.3-4.6-6.8m52 4c.2 8.4-1.1.3 0 0m-64.9 14c-6.1 8.8 9.8 1.7 0 0m55 18.3c-7.9 2.8 8-2.7 0 0m-88 .6c-.3 7.3 4.8 1.8 0 0m5-.1c.3 1.9 1 4.5 3.1 5.2.5-2.4-1.1-4.3-3.1-5.2m72 .1c-.4 5 12.9 5.1 0 0m-86 1.2c-.2 2.7 4.7 5.8 5.6 2.2 2.1-3.1-3.6-1.6-5.6-2.2m2.5 5c-.5.7-2 2.7-.3 2.9 2.6 1.1 2.8-4.2.3-2.9m13.8 2.9c-.5 1.3-1.1 2.5-1.2 3.9 2.9 1.3 4.7-5.3 1.2-3.9m9.7 2.8c2.4 15.8 2.6 9.1 1.9 17.9 5.6-1.8 15.8 10.2 1.1 9.1-.9-2.8 7.6 13.4 2.3 12 4.2 1.1 25-3 19.9 8.1-1.8-.9-19-13.7-21.9-1.8.4-.7 1 3.6 4.7 3.8.5 1.5-12.9 26-11 36.8 11.8 1 23.4-7.2 32.8-7 2.2 1.9 1.6 3.3-1.7 4.1 17.3-.9 12.5-14.2 14-24 8.7 1-34.5-9.4-31.5-4.7.5 3.2 21.3-6.8 24.3-7.3 2.4-8.2-21.3-11.6-26-10.8 2.9-1.1 2.6-2.2-1-3.3 6.7-9.3 19.7-1.5 6.4-5.9-1.8-1.4-8.4-10.3-7.1-12.4 9 .3-6-12.9-7.3-14.4m-5.9 5.1c-.4 2 .5 4.3 2.9 4.1-.8-1.6-.2-4.9-2.9-4.1m27 22c-.9 3.5 4 1.5 6 1.9-.8-2-4.1-1.3-6-1.9m9.9 60.9c-1.5 0-.4 15.6 4.9 14-1.8-5.2 10-22.4-4.9-14m-8.1 1.2c-1.9-5-6.6 104-2.9 99 2-4.6 17.8-66.8-11.8-95 1.8 1.6 15.7-4.1 14.7-4.8z"/><path d="m489 43c2.9 0 5.8 0 8.6 0-3.7 3-9.5 5.8-12.4 9.1 4 21.8 4.8-15.9 3.8-9.1"/><path d="m502 43c18-4.7 17.6-.6 15 16-13 5.6-2.4-12.5-11-6.9-5.5 3.5 3 6.2-1.6 7.3.5-7-13-7.4-6.5-12.5.7 14.9 5.7-7.3 4.1-3.9m6.2 1.1c-3.2 2.9 2 1.8 3.9 1.9-.6-1.9-2.2-2.4-3.9-1.9m6.1 11c-1.9.7-.9 3.1.8 2.9 2-.2 1.2-4-.8-2.9z"/><path d="m478 53c-.4 1.1 20.5 3.5 21.5 7.8-2.1 4.9-14.6 1.5-5 11 0 4.9-16.2-2.3-18.4-2.2 0-6 13.8-3.9 15.9-6.5.4-.6-15.8-10.9-14-10.2"/><path d="m99 56.9c1.3 4.3-.3-.1 0 0"/><path d="m147 62.8c5.3-2.4 19.3-3.6 25.4-2.8-.3.3-14.5 7.9-15.3 6.3 3.6 6.9 7.6.1 12.9.9.2 2.5.7 3.7 2.2 5.7-9.8-1-7 4.5-19 5.3-3.6 11 17 5.7 21.3 5.5-6.1 6.6-6.7 7.9-17.2 13.6.3-2 14.4 8.3 13.9 8-22.5 6.6-15.5-17.4-8.8-13.6-.5-2.8-12.8-8.3-15-8.8-5.8-8 8.5-5.6 6.8-10.7-9.7 1.9-4.9-9-7.1-9.4"/><path d="m510 61c-.8-.7 28 2.3.1 8.8 0-3-.1-5.9-.1-8.8"/><path d="m91 62c5 .6 45.6 18.9 43 27-12.8-14.9-30.7-13.2-43-27"/><path d="m139 64.8c-7.2-12.2 15 10.7 0 0"/><path d="m81 66c4.2-7.6 23.9 12.5 23 15.9-8.2-7.4-15-7.4-23-15.9"/><path d="m501 71c2.9-1.8 5.7-3.6 8.6-5.5-3.5 3.3-3.4 5 .2 5.1-22 9-13.4 2-8.8.4"/><path d="m88 75c3.5 1.3 15.5 8.3 12 13.3-4.1-4.4-8.1-8.8-12-13.3"/><path d="m474 80c4.7-1.5 8.5-.8 11.3 2.2-.8.2-15.2 2.6-11.3-2.2"/><path d="m108 81c14.6 9.7-6.1 3.8 0 0"/><path d="m487 83c7.6 2.7-12.8 7.4 0 0"/><path d="m194 86c.1-.4 9.5.8 0 0"/><path d="m141 91c1.1-4.5 8.3 2.3 9.7 5.8-2.8-1.3-9.3-1.8-9.7-5.8"/><path d="m461 91c-.5-.1 5.5 2.8 0 0"/><path d="m482 89c18.6 11.2-.8-1.8 0 0"/><path d="m127 107c3.2-.5 9.7 1.4 12.2 3.6 5.1-.3 13 18.7 18 26-7.8.6-4.4 2.3-14-5 1.3-3.8 3-4.1 5.1-.9-1.4-11.2-17.7-12.9-21-23.9"/><path d="m164 108c12-2.3-.1 3.2 1.1 5.2 27 6.7 3.2-4 18.6-2.7-3.7 2.9-6.3 17-19 13.2-.6 8.3 9.7 7.2 12.4 8.6-22 .7-11-3.2-5.2-13.6-3.9-1.4-19.3-7.4-7.9-10.7"/><path d="m118 112c-.1-1.7 21.3 10.2 16 10.8-4.3.5-17.3-4.7-16-10.8"/><path d="m479 120c5.9-.9-13 12.7-14.3 12.7 11.3 6 13 4.2 20.6 6.7 3.8 5 1.9 9.8-5.7 14.3-4.7-6.7-13.4-16.4-20-23.5 5.3.6 12.8-5.6 19.5-10.2m5.1 20.8c-2.6 8.1-2.8 2.3 0 0z"/><path d="m498 125c3.2-5.5 4.7-3.2 4.4 6.7-1.1-5.5 11.4-4.5 15.3-2-11 10-29.8 6.4-34.5 8.6 8.2-4.4 3.7-9.7 14.8-13.3"/><path d="m189 126c-3.9-4-2.9-5 3.1-3.1-.3 1.4-7.3 21.6-12.2 14-3.8-5.8 8.2-6.1 7.2-5.9-4.9-3.8-4.2-5.5 1.9-5"/><path d="m515 126c7.3-14.3 2.5 13.4 0 0"/><path d="m192 139c11.4 3.8 5.2-.2-2.1 8 4.6-2.6 5.3-5.3 2.1-8"/><path d="m174 141c2.2-.1-.1 6.4 0 0"/><path d="m456 143c2.2 1.5 7.6.8 5.8 5.7-3.7.1-10.4-1.5-5.8-5.7"/><path d="m170 147c6.2-1.5 8.7.4 7.5 5.7-4.2 1.2-6.7-.7-7.5-5.7"/><path d="m280 149c3.7.1 12.6.6 13 6.2-5.1.1-9.5-1.9-13-6.2"/><path d="m187 151c-4.1.5-1 9.5 0 0"/><path d="m201 151c19.7 1.4-2.4 4.7 0 0"/><path d="m444 151c7.9 7.9 10.8 1.8 14.3 8.7-3.9-.6-4.3.9-1.3 4.3-4.4-2.8-16-4-13-13"/><path d="m196 154c7.2 8.3-2.3 15.3-3.3 13.8-.1.5 1.3-17.4 3.3-13.8"/><path d="m218 155c3.1-.3 6.2-.6 9.3-1 1 12.2-17.8 28.4-18.2 40.9 10.3-2 17.9-22.6 22-29.7-9.5 1.2-.6-6.8 2.7-10.4-1.3 4.7-.2 6.2 3.2 4.3-1.1 5.7-.6 15.7-2.7 21 1.9-3.3 4.7-5.4 8.6-6.3.3 5.3-12.7 34.5-7.2 37 2.4-13.6 3.8-22.8 17.5-19.8-2.5 6.5-6.5 44.6-7.3 45.5 3.5.3 11-4.7 13.2 0-4.5-2-5.2 0-2.2 5.9-10-3.9-9.6 4.1-17 2.3-.7-8.9-11.6-11.9-3.9-27-10.5.6-1.1 6.6-14 1.3 3.1-8.6 5.8.4 8.1-15.3-3.9.4-7.7 10.6-12.6 5.4.6.7 10.5-27.9 8.9-27-9.3 22.4-25 21.3-13.2-3.3-10.8-.9-12.4 14.9-16.3-4.7-.6.7-1.2 1.5-1.7 2.4-9-5.6 10-8.8 10.6-7.4-2.2 4.5-4.1 9.1-5.8 13.9 11.2-1.9 23.9-20.3 17.9-27.9m15.3 26c-1 .4-2.3 3.4-.2 2.8 2.8 1.7 3-4.4.2-2.8m-7.2 16c-5.7 1.3-2.7 7.5 3.3-2.1 2.9 2.1 3.4 4.8 1.7 8 3.2.5 2.2-15.6 2.1-16-3.9 2.3-6.2 5.6-7.1 10m6.3 14c-1.9.7-.9 3.1.8 2.9 2-.2 1.2-4-.8-2.9z"/><path d="m411 167c1.4 1.3 29 24.6 28.6 29.5 2.2-1.1 21-12.3 20.3-12.7-.7-.4 4.1 5.8 3.8 7.7-8.2-13.6-28 28-28.9 29 .8-6.3-.1-7-2.9-2.1 1-9 6-15.4 6.8-24.6-16.5-1.1-28-28-27.7-27m25.7 41.7c-7.7 3.1 10.5-.9 0 0z"/><path d="m446 167c2.9-6.9 8.3 1.3 0 0"/><path d="m443 169c2.3 1.9 4.6 3.7 6.8 5.6-4 2.1-7.2-3.6-6.8-5.6"/><path d="m472 173c4.6-.3 9.1.5 13.3 2.3-.2 12-15.3-1.2-13.3-2.3"/><path d="m399 176c2.5-4.7 14.6 26 18.3 32-8.6-.9-15.7-27.9-18.3-32"/><path d="m412 177c4.8-1.2 6.5 7.9 3.3 11-1.1-3.8-2.2-7.4-3.3-11"/><path d="m438 178c6.7-.1 11.6 6.2 17.6.6 1 11-16.4 7.4-17.6-.6"/><path d="m250 187c.1-10.6 8.8 11 0 0"/><path d="m479 185c12.5 1.2-4.9 5 0 0"/><path d="m422 191c1.7-1.5 2.9 4.9 0 4.4-.7-1.3.1-2.9 0-4.4"/><path d="m461 193c4.2 1.2 1.9 2.8-7 4.6 1.7-2.6 4-4.1 7-4.6"/><path d="m401 193c-6.5-.8 1.2 7 0 0"/><path d="m418 195c7.1 13.3 3.2-2.8 10.7 5-3.6 1.7-.7 13.3-4.7 13.3 1.2-3.9-.9-1.9-4.3-2.2 6.4-8.3-2-7-1.7-16"/><path d="m401 203c6.8-2-4.4 14 0 0"/><path d="m404 203c2.2-.9 4.4 10.9 0 0"/><path d="m386 207c12 26.5 13.7 3.9 18 4.8 4.1 5.2 7.5 10.8 10.2 16.9-3.3 2.8-7.9 5-10 .9-3 .8-.5 10.3-13.9 9.3 1-2.8-6.3-15.2 8.1-3.2 5.8-18.6-32.9-2.9-31.7-21 1.4 4.3 4.4 5.7 8.9 4.1-1.2-.5-2.3-1.2-3.1-2.2.7 2.4 15.4 3.4 17.9 4.1.5-3.4-3.2-10-4.3-13.5"/><path d="m274 213c5.4-1.2 7.3 1.4 5.5 7.6-9.8-.8-8.5-1.5-5.5-7.6"/><path d="m409 213c3.4-2.3 6.6-1.2 9.6 3.4-4.5 2.7-7.7 1.6-9.6-3.4"/><path d="m420 223c14-5.7.8 14.5-5.5 11.9-4.5-1.8 5.5-10.7 5.5-11.9"/><path d="m249 227c8.2-1.5-4.9 1.7 0 0"/><path d="m366 227c7.2 4.5.2 7.1 0 0"/><path d="m291 230c7.4-.5 4 8.7 4.7 10.2-6.9-1-5.1-4.3-4.7-10.2"/><path d="m323 262c3.3-1.1 6.5-2.1 9.8-3.2-.4 6.7-22 26.7-23 11.4-.2-2.5 17.9-.5 13.2-8.2"/></g></svg>