<svg xmlns="http://www.w3.org/2000/svg" width="647" height="389" viewBox="0 0 646.5 388.7" style="enable-background:new 0 0 646.5 388.7"><g style="fill:#33073b"><path d="m220 43c26.8-.7 70 61.8 79 59 9.7-2.4 9-16.4 23.6-14.7 8.4 5.6 8.4 10.4 17.4 9-3.3 6.9-2.8 4-2.9 11.6 3.2-1.2 19-21 3.5-13.6 1-8.2 4.1-10.5 9.3-7.1-5-14.6 35.7-44 56-44-.5 6.3-.7 10.7-2.9 15.2-1.4-4.6-1.8-9.4-1.3-14.3-6 3.5-34.7 28.6-35.4 35-1.1 11.5-36.5 45-36.7 43-1.6-4.6-.6-16.4-.5-16-4.4-11.7-24.4-11-19.4-2.4-14.9 18.4 13.4 23 11.9 12.3-8 2.3-15.6 2.5-16-6.3 1.8-2 4-2.9 6.6-2.6-.5 2.2 26.5 28.6-6.5 16-24.3-9.3-56-75-84-65-4.1 3 3.3 6 4 7.7-24.8-9.4-10.9 8.8-11.2 15.9-3 3.5-47 31.8-36.8 43-6.9.5-12.6 11-15.2 10.4-11-18.7 61.9-85 57-92m30.4 17.9c0 1.9-.1 5.4 1.9 6 1.8-2.4.8-5-1.9-6m84 51c-1.1.4-2.9 1-2.1 2.6 1.2 2.9 4-2.1 2.1-2.6z"/><path d="m425 50c1.5-4.5 60.9 42.5 56.8 64 2.5-13.2-40.9 15.3-46.8 19.8-1.5-12.9 34.5-29 24-41-10-11.3-12.4-26-29-19.9.7-4.8-2.6-5.8-7.1-6.2 2.3-1 8.8 3.8 8.7-1.4 7.1-12.6-19.8-2.4-21.5-1.3-9.5-1.8 17.6-16.6 15-13.8m38.9 54.7c0 3.3 3.5 3.7 4.9 1.2-1.7-.3-3.3-.8-4.9-1.2z"/><path d="m226 69c-.5-3.9 6.9-2.8 4.2.1-1.4.5-2.8.6-4.2-.1"/><path d="m396 78c.5-5.4 3.5-7.8 9-7.1-1 4.4-4 6.8-9 7.1"/><path d="m424 76c6.3-3.4-1.9 9.9-5.9 9.1 0-.2 4.7-8.1 5.9-9.1"/><path d="m207 86c7.6-5.7 2.4 1.6-.3 4.8-9.3 2.2-1.6-4 .3-4.8"/><path d="m431 100c7.9-6.8-2.8 20.9-4.1 22 .9-1.9-6.1-9-5.7-8.7-11.7-6.9-34.9 34-32.6 33.5 1.1.3 7.9-8 11-7.7 1.2 4.5-3 15.5-7.9 8.7-1.2 11.9 16 27.7 4.1 39-1.3-6.5-2.8-16-5.6-21.8-.1-.2-9.2 6.8-6.6-8.8-14.7-.3 9.3-49 28-45.6.6 2.5.2 4.9-1.2 7 2.5-1.9 21.3-15.8 20.6-17.8"/><path d="m423 130c2.5-1.3 5.1-2.6 7.6-3.9 2.7 6.4-11.6 3.9-9.9 12.5-2.4-4.2.8-14.7 2.3-8.6"/><path d="m212 133c35.6-11.9 31.5 25.4 24 47.9-13-3.2 26.4-82-24-47.9"/><path d="m241 136c14.3 5.8 21 22.8 24 30.8-1 .9-2 1.7-3 2.5-6.2-9.2-21.3-25-21-33"/><path d="m401 141c2.3-7.6 5.3 3.2 0 0"/><path d="m146 149c2.8-7.2 7.1-13.4 12.9-18.5-3.4 3.2-5.6 6.9-6.7 11.3.4 6.5 74-31 59.9-8.7 5.3-4.4 6.9-9.4 4.6-14.8-15-4.9-57 25.3-71 30.7"/><path d="m368 159c12.7 6-13.5 11.7 3.9 12.6-5 8.2-11.4 34.7-22 25.9 1 22.3-3 45 .9 57 .1-4 .4-8 1-12 2.2 4.7 2.5 9.8 1.1 15-5.6-1.8-18.8 13.3-18 18.6 7.1-.2 3.5-1.7 4.8 5.5-4.4-.4-14.5 3.7-16.7-3.3 9 3.7 2.9.1 10.7-3-.3-3.5-14.4-16.9-13.8-26 7.3 2.6 6.5-4.5 13.9-6.1-22-13.5-4.6 24.3-30.9 1.2 1.7 12.5.4 20.4 5.1 30 3.7-2.6-25.3-30.9-25-35.4 2.4-.5 10.6 5.4 16.2 4.8-11-6.7-3.9-8-15-16.7.3 1.9 0 3.6-1 5.1-3.4.5-.1-14.4.8-17-5.5-5.3-7.7-1.6-13-7.8 7.3-1.2-2.4-2.3 5.1-6.3 5.4 8.9 15.2 9.8 14.3 22 2.7-3.9 5.4-24.9 11.8-24-.6 13-5.7 25-6 38.9 2.8.4 63.8 4.5 43-18-2.3 7.1-7.8 6.5-11.5 11 2.3-.7 4-.3 5.3 1.4-1.5 10.9-8.6-4.6-8.3-4.5-.3.8 16.3-13.5 18-13-.1-3-12.9-29.4 2.4-29.5 3.7 0 15.6-29.4 22.9-26.6m-12.3 24.5c-1 .8-8.5 5.8-7.5 10 .2 1 8.1.5 10.5.9-4.6-10.8 3.4-6-3-10.9m-9.9 5.1c-1.1 2.9-2.2 5.8-3.2 8.8 5.7-7.9 6.8-10.8 3.2-8.8m-10 56c-8.8 4.1-13.2 19.6-.4 19.6.2 1.6.2-22.4.4-19.6z"/><path d="m248 163c.2-1.3-3.1-2.3-1.2-2.9 2.4-1.3 4.5 3.8 1.2 2.9"/><path d="m245 162c2.2.5 7.5 4.8 3.1 7.2-4.1-.1-5.1-2.5-3.1-7.2"/><path d="m240 169c9.5 2.2 1.7 15-3.9 11.7-1.7-4.6 6.9-3.4 6.9-3.4 3.9-2.9-3.7-5.9-3-8.3"/><path d="m268 171c8.6 1.3 17 18 16.6 26 2.4-.5-19.5 1-10 2.3 2.3-10.6-11-18.6-6.5-28.4"/><path d="m260 192c1.7-7.1 6.8-14 9.9-20.7 4.5 5.7 27.6 34.8 3.3 27.5-23.4-7.1-7.9-9-11.7-29.8 3.2-1.4 25.3 25.5 18.8 28.6-7.2.4-14-1.5-20.3-5.6"/><path d="m275 247c3.7-.5 7.8 7.4 8.1 8.2-5 7.5-15.7-6.2-8.1-8.2"/><path d="m312 259c3.3.3 2.8 2.6 2.8 5.1-2.5.1-2.5-3.3-2.8-5.1"/><path d="m316 279c4.9-1.1 5.2 2.3 1 10-1.6-2.7-.8-5.4-1-10"/><path d="m345 286c-1.3-2.7-3.5-7.5 1.1-6.2.2 2.1-.2 4.3-1.1 6.2"/><path d="m318 299c-1.8-9.8-.6-10.6 3.5-2.2-.9 8-2.1 8.8-3.5 2.2"/><path d="m327 302c-.2-3-.3-6.1-.5-9.1.9 1 5.8 10.8.5 9.1"/><path d="m314 300c5 0 .8 7.2 0 0"/><path d="m297 310c4.5.8 6.8 1.5 7.8 6.1-4.2 2.6-6-3.2-7.8-6.1"/><path d="m325 312c3.3 1.7.2 6.1.6 9-4.8 1.1-.9-6.5-.6-9"/><path d="m303 317c10.6-6.8-3.7 12.8 0 0"/><path d="m307 331c3.3 2.5 5.4 5.9 6.3 10-2.8.6-10.7-.3-12.5-.8 9.2-.7 8.6-.8 6.2-9.2"/></g></svg>