<?xml version="1.0" encoding="utf-8"?>
<!-- Generator: Adobe Illustrator 17.0.0, SVG Export Plug-In . SVG Version: 6.00 Build 0)  -->
<!DOCTYPE svg PUBLIC "-//W3C//DTD SVG 1.1//EN" "http://www.w3.org/Graphics/SVG/1.1/DTD/svg11.dtd">
<svg version="1.1" id="Layer_11" xmlns="http://www.w3.org/2000/svg" xmlns:xlink="http://www.w3.org/1999/xlink" x="0px" y="0px"
	 width="646.4617px" height="388.742px" viewBox="0 0 646.4617 388.742" enable-background="new 0 0 646.4617 388.742"
	 xml:space="preserve">
<g id="layer-11--33073bff">
	<path fill="#33073B" d="M184.4327,7.2522c8.3779-0.5328,92.1973-3.8256,94.9685,12.9198
		c-0.3747,3.1642-11.1404,29.2263-0.0959,43.0999c-1.8123-5.1989,0.161-7.2922,5.92-6.28c-0.2741,0.5338,1.7273,6.0954,2.2,6.23
		c-12.5284,1.8223,7.2057,32.7539-8.16,29.75c4.2349,21.498,18.8753,29.8211,26.42,9.45c17.4361-14.6518,34.5138,9.5625,41.51-14.19
		c-21.6012-13.117,14.572-46.8187,32.37-45.15c-4.7381,3.8091-12.3697,25.4661-10.25,32.04
		c-4.447,35.2467-9.4416,39.5111-39.77,57.21c1.6191-1.1183-11.2015,33.7941-14.48-6.41
		c-24.4243,21.4289-54.2954-57.3628-65.65-20.65c0.7339-0.2576,6.6437-4.7476,6.16-1.12c-2.622,2.5872-5.2345,22.3232-6.02,22.18
		c1.7993-3.4213,1.0627-4.1246-2.21-2.11c1.9727-8.1162,0.3775-1.1228,3.7438-9.01c-0.6577,1.5409-13.3702,7.7181-12.5838,7.85
		c6.0128-7.8029,1.3734-8.9915-0.16-12.96c-2.2711-9.2921,24.9053-22.3929,24.29-17.07c3.6689,0.3836,1.5529-6.2208,1.73-7.85
		c2.2522,1.1187,3.5022,2.982,3.75,5.59c1.7323-8.731-2.6115-7.6182-7.81-8.88c1.6092-13.6786,31.6544-46.1783,17.2374-64.6433
		 M268.5252,67.2019c-4.5824,2.2598,5.3194,17.4405,4.2825,17.6063c4.0886-0.6536,1.6306-6.706,10.4375-5.9663
		C283.7321,77.6135,266.9608,67.4494,268.5252,67.2019 M356.6552,73.4819c0.7794-0.9895-12.2038,0.9143-10.32,0.75
		c2.2418,2.1945,12.7276,13.215,12.16,16.87c-5.4501-0.2941-9.4734,1.9926-12.07,6.86c4.6569,2.1268,0.5774,7.5178,1.15,7.51
		c-8.7251,4.6022-15.2881,5.7314-25.02,7.69c-0.6447,2.3393,2.2552,15.9757,0.7862,19.3c2.1337-4.8284,37.242-16.9622,34.8838-27.55
		c8.0011-11.799,2.7161-24.4736,8.05-37.6C362.8064,68.9581,359.5997,71.0148,356.6552,73.4819 M272.2352,86.1119
		c0.28,3.17,8.91,8.99,5.07-0.01L272.2352,86.1119 M257.5152,92.5419c-4.57,3.14,5.04,3.98,3.85-0.37
		C260.0752,92.3019,258.7952,92.4519,257.5152,92.5419 M316.6152,100.4319c-2.34,1.6767-4.68,3.3533-7.02,5.03
		C307.6726,109.8011,326.8577,97.9931,316.6152,100.4319 M322.9852,108.2419c-3.93,2.53,5.54,4.05,2.22,1.01
		C330.7252,109.6719,323.7652,103.3919,322.9852,108.2419 M308.5152,109.2619c-1.78,1.14,0.27,3.32-1.02,4.94
		C310.7252,115.0319,311.8652,107.8319,308.5152,109.2619 M316.4752,114.1419c0.0281,0.3711-7.0494,10.9868,0.9,9.99
		C313.4732,120.6737,320.8079,114.9561,316.4752,114.1419 M307.4452,126.1519c0.7771-3.2868-2.9165-1.572-3.1,2.92
		c6.0775-1.7565,8.0175-5.7365,5.82-11.94C308.442,119.8712,307.5354,122.8779,307.4452,126.1519 M321.3552,137.0619
		c1.25,1.52,3.74,4.55,4.99,6.07C326.1552,139.9119,325.6452,135.6619,321.3552,137.0619z"/>
	<path fill="#33073B" d="M278.4552,43.0819C278.3435,46.4645,274.4051,56.4063,278.4552,43.0819
		C278.4552,43.0819,277.7652,45.3519,278.4552,43.0819z"/>
	<path fill="#33073B" d="M494.0952,43.0819C508.5587,48.1658,493.7814,45.9998,494.0952,43.0819
		C494.0952,43.0819,493.7253,46.5219,494.0952,43.0819z"/>
	<path fill="#33073B" d="M549.3252,43.0819c3.1722,0.4045,8.6534-2.1428,9.16,1.91
		C549.6098,48.05,546.5565,47.4133,549.3252,43.0819z"/>
	<path fill="#33073B" d="M565.3777,29.7167L561.5144,47.55c3.8261,11.1569,1.3476,15.9326-0.0699,15.94
		c-3.0225,12.5513-11.5651,32.2303-31.7401,28.94c1.3519-4.1489,2.5311-3.8735,4.84-5.81c-1.4915-0.136-14.4498,1.3407-14.89,0.7
		c-2.5042-7.9882-5.8538-4.3607-13.06,3.95c4.6396,0.3736,9.0063-0.5464,13.1-2.7599c-5.2469,4.2474-28.8336,17.6094-35.98,15
		c1.7651-2.0848,1.3885-3.6915-1.13-4.82c2.322-0.8304,4.6687-1.5837,7.04-2.26c-1.8188-2.8204-13.1827-0.8901-17.25-0.97
		c1.2896-7.5334,36.4409-9.7588,41.04-22.79c-8.2714,0.8165-60.2252,13.9651-53.67,28.97c3.8322-3.2271-2.9774-6.2418,7.53-4.94
		c5.604,2.8777-7.037,6.3265-6.04,6.6c-0.8083,1.1732,5.7219,3.0296,6.43,4.01c-7.6931,1.6852-21.1204,7.3268-20.1-1.91
		c-4.6154,1.4565-15.2137,6.75-27.7246,14.0472c9.8853-2.8245,20.5359-3.5959,30.6656-3.4441
		c5.9778,0.0896,11.874,0.9778,17.7629,1.8441c17.9124-8.9083,40.718-11.9892,53.2161-14.3671
		c-4.4189-11.4672,9.7845-6.0991,9.1-3.04c-1.0589-0.4099-7.45-1.7053-8.27-1.75c0.7729,4.8307,16.085,2.6612,20.69,2.02
		c-2.2863-0.5889,3.0779-3.5894,9.2435-6.6c2.5556-7.9973,7.1292-15.0046,13.209-20.9711c0.239-1.2092,1.4413-3.9709,0.9474-6.7488
		c0.9672-3.6298,3.3505-5.1898,7.15-4.6801c-0.3525,0.9528-1.0466,3.2314-1.8649,6.0198c2.982-2.382,6.1652-4.9784,9.5221-7.3906
		c0.6978-1.4611,1.4821-2.8656,2.3576-4.1868C577.8154,44.9995,568.6195,31.0677,565.3777,29.7167z M472.3745,99.61
		c2.74-0.11,5.49-0.13,8.25-0.04C479.0844,101.95,473.5544,103.0799,472.3745,99.61z"/>
	<path fill="#33073B" d="M438.4215,165.8265c-4.1625-9.8065-4.6329-20.4821,0.6798-30.0942
		c0.9066-1.6403,1.942-3.1953,3.0817-4.6667c-21.4702,14.7347-41.1215,31.6396-41.8377,43.0263
		c0.7315-0.7915,10.6176,7.7123-2.09-0.14c2.4529,27.2144,4.4369,0.8641,9.4213,9.4412
		c3.8111,6.5582-22.6064,17.0136-23.5212,21.7388c-0.4951-0.1582-3.6967-16.9538-7.69-11.0012
		c-2.3254,3.4663,1.83,7.7808,1.98,14.0812c1.9901-2.5223,2.4854,16.9189,11.67,22.1c0.6614-8.223,8.3039-19.3666,7.4-21.16
		c2.9503,0.2425,5.6141,1.1639,7.9974,2.7505c-1.0604,0.9407,2.8826,30.2425,3.2226,29.5695
		c13.5228-11.6533-7.3939-40.4033,7.89-33.16c5.0233-12.6278,24.4797-11.1459,18.1562-20.5438
		C431.9281,183.5274,436.3402,172.341,438.4215,165.8265z M408.9052,208.9519c-2.05,0.86-2.33-2.64-1.3-3.7
		C410.2752,204.3119,408.6852,207.6919,408.9052,208.9519z M428.1252,177.0619c-2.6064,0.3545-2.8505-4.55-6.36-2.98
		c-0.1309,3.3552,1.0558,6.1218,3.56,8.3c-1.9863,4.6591-37.4554-19.8528-4.98-23.51c2.66-1.2866,5.32-2.5733,7.98-3.86
		C422.5527,168.5641,429.8367,163.9864,428.1252,177.0619z M430.5152,157.4219c2.1504,1.9999,5.5627-0.9697,4.8438,3.7538
		C434.9331,163.9736,425.4243,160.5586,430.5152,157.4219z M430.3252,174.1819c-1.5133-4.6973-0.45-8.354,3.19-10.97
		C436.7542,166.8818,435.6908,170.5385,430.3252,174.1819z"/>
	<path fill="#33073B" d="M519.5052,100.5519C511.7425,103.0616,533.4423,106.6738,519.5052,100.5519"/>
	<path fill="#33073B" d="M388.6952,208.3419C382.8773,218.1599,393.2865,205.7095,388.6952,208.3419
		C388.0552,209.4219,390.9452,207.0519,388.6952,208.3419z"/>
	<path fill="#33073B" d="M513.2552,46.9919C525.1817,47.8732,515.7819,53.7866,513.2552,46.9919
		C515.2852,47.1419,513.9952,48.9819,513.2552,46.9919z"/>
	<path fill="#33073B" d="M94.1352,48.9519C96.3052,51.2119,91.6952,49.7319,94.1352,48.9519"/>
	<path fill="#33073B" d="M496.8652,52.0219c-0.7236-0.9053,17.3072,4.7026,16.52,5.23c-0.6226,2.0375-2.0193,2.6875-4.19,1.95
		c2.1016,3.6333,9.1022,4.9958,12.82,4.65c-0.688-1.5784-0.9792,5.3767-0.71,5.3C518.4911,66.9448,493.155,54.7782,496.8652,52.0219
		C498.9352,54.6119,496.5152,52.2819,496.8652,52.0219z"/>
	<path fill="#33073B" d="M528.2452,52.2819c5.463-3.3615,7.7763-2.7548,6.94,1.82c-1.0063,0.7189-13.6929,3.689-14.0837,3.1581
		C519.1448,54.6021,532.5598,53.6351,528.2452,52.2819C530.6952,53.4219,526.0452,51.5919,528.2452,52.2819z"/>
	<path fill="#33073B" d="M206.5252,55.1619c8.0581-0.1119-16.2179,18.2696-14.8,16.1
		C194.5636,67.3667,206.9514,59.9477,206.5252,55.1619C207.2452,55.1519,206.7852,58.0819,206.5252,55.1619z"/>
	<path fill="#33073B" d="M106.1352,59.9619c-1.5281-1.9414,11.9494-3.8626,12.02-1.04c-1.7182,6.5181-28.4793,10.7414-31.92,12.97
		c-0.0467-0.2403,1.9207-8.0441,1.3437-8.0438c3.0147-0.0019,11.8562,5.9927,13.7363,0.2238
		C101.1316,64.4916,81.4005,57.9075,106.1352,59.9619C104.9152,58.4119,103.1252,59.7119,106.1352,59.9619z"/>
	<path fill="#33073B" d="M146.2252,56.9819c2.9172,1.5769,5.9839,1.9836,9.2,1.22c-0.4492-2.7048-5.6084,9.8555-1.5,5.51
		c-1.2758,1.2758-5.1176,2.3538-7.41,3.38C145.0609,66.1627,146.2252,56.9914,146.2252,56.9819z"/>
	<path fill="#33073B" d="M134.4552,59.2319c0.7402,9.1501-32.3166,22.4013-32.27,14.99
		C105.3838,76.0045,134.9928,60.0121,134.4552,59.2319z"/>
	<path fill="#33073B" d="M243.5352,61.6119c3.3949-3.9225,15.6562,0.046,10.78,6.72
		C254.9236,61.89,250.6117,68.1847,243.5352,61.6119C245.0152,59.9019,246.3452,64.2219,243.5352,61.6119z"/>
	<path fill="#33073B" d="M229.4352,61.2719c7.2251,2.7374,6.1825,5.6197,12.92,1.73c-0.8197,0.1859,1.281,4.6863,1.78,5.2
		c0.3329,4.4466-16.8087,4.5998-16.79,4.6C227.2285,70.7348,231.2032,59.751,229.4352,61.2719 M231.3852,67.1319
		C230.3003,81.152,234.8662,66.0166,231.3852,67.1319C231.2552,68.8119,233.4452,66.4719,231.3852,67.1319z"/>
	<path fill="#33073B" d="M489.4952,67.4719c1.22,0.04,3.55-0.66,2.95,1.59C491.9652,71.5219,488.3553,69.1819,489.4952,67.4719z"/>
	<path fill="#33073B" d="M145.5152,69.2219C161.8642,64.0482,130.0009,88.2135,145.5152,69.2219
		C147.0952,68.7219,143.7752,71.3519,145.5152,69.2219z"/>
	<path fill="#33073B" d="M253.9652,69.3219c2.1299-2.5641,4.6132-2.3507,7.45,0.64c-1.6802,1.3069-8.9087,13.4385-2.09,15.5
		c1.1594-1.6827-15.54,7.4203-15.51,7.39c-4.7676-0.9438,13.5484-10.9324,12.49-8.45c-2.6195-2.2033-10.7619-4.2176-10.02-8.33
		c2.502,0.2809,4.092,1.6609,4.77,4.14C252.8066,70.6502,241.3978,71.1837,253.9652,69.3219
		C255.3352,70.4919,252.6152,69.5219,253.9652,69.3219z"/>
	<path fill="#33073B" d="M497.0152,69.7819C500.5284,65.272,505.5256,71.6893,497.0152,69.7819
		C498.4252,67.9719,497.5952,69.9119,497.0152,69.7819z"/>
	<path fill="#33073B" d="M186.3152,71.0419c13.6117-0.3679-3.7631,15.0387-4.93,6.16
		C185.88,77.329,187.5233,75.2756,186.3152,71.0419C188.5352,70.9819,188.5352,74.6319,186.3152,71.0419z"/>
	<path fill="#33073B" d="M454.5452,71.2819c-0.2513,0.1115,8.5458,5.0002,8.65,5.49
		C459.5142,78.18,449.816,74.2377,454.5452,71.2819C456.2352,70.5319,453.7452,71.7819,454.5452,71.2819z"/>
	<path fill="#33073B" d="M468.6152,71.0719c4.1174,3.5457,7.2915-0.3851,7.74,5.06c-1.9243-0.0128-12.8106-1.241-11.5188,0.9025
		C463.0244,73.4679,464.284,71.4804,468.6152,71.0719C468.9752,71.3819,468.1052,73.6519,468.6152,71.0719z"/>
	<path fill="#33073B" d="M392.2752,81.0819c2.7765-8.6673,11.5639,1.7911,18.17,11
		C403.5141,90.3301,397.5186,81.6645,392.2752,81.0819C393.0152,78.7719,392.8152,81.1419,392.2752,81.0819z"/>
	<path fill="#33073B" d="M484.5152,79.0919c10.3819-2.373,1.0255,4.7271-3.48,4.24
		C480.2696,80.7961,484.8093,77.3839,484.5152,79.0919C485.9153,78.7719,485.1952,75.1419,484.5152,79.0919z"/>
	<path fill="#33073B" d="M97.2052,78.2119C110.0233,77.4296,94.2363,77.5532,97.2052,78.2119
		C99.3352,78.0819,97.2052,78.2119,97.2052,78.2119z"/>
	<path fill="#33073B" d="M151.4552,77.1319C156.9058,78.5634,148.2301,85.234,151.4552,77.1319
		C152.4452,77.3919,151.0452,78.1619,151.4552,77.1319z"/>
	<path fill="#33073B" d="M133.2252,81.8319C131.5958,75.4061,142.8627,79.7974,133.2252,81.8319
		C132.5152,79.0319,134.1252,81.6419,133.2252,81.8319z"/>
	<path fill="#33073B" d="M236.6352,79.3419C243.5055,75.0597,234.0782,91.7739,236.6352,79.3419
		C238.0952,78.4319,236.3452,80.7519,236.6352,79.3419z"/>
	<path fill="#33073B" d="M446.8852,82.7919c12.4945-7.8879-1.9981-2.5646,9.17-0.41c3.2059,5.6291-19.7462,6.7936-24.79,9.6
		C430.8881,90.5834,443.6491,81.1165,446.8852,82.7919C448.8652,81.5419,442.6552,80.6019,446.8852,82.7919z"/>
	<path fill="#33073B" d="M242.4952,79.2919c12.3692,3.0187-14.3114,18.138-14.99,16.63
		C227.0446,93.306,242.0875,83.1375,242.4952,79.2919C244.1752,79.7019,242.1952,82.1219,242.4952,79.2919z"/>
	<path fill="#33073B" d="M102.4952,108.0719c-1.1594-1.941-1.8655-3.0332-2.2684-3.6163c0.5449,0.5173,1.3572,0.7737,1.0884-2.3438
		c1.452,0.8377,12.4606,4.2297,14.5299,3.8433c-2.1223,2.422-1.5934,4.4915,1.6001,6.2068
		c-4.6857-2.5186-9.6688-3.509-14.9464-2.9844c1.462,0.3602,10.6041,5.2958,12.4117,6.7198
		c-1.7307-3.4541-0.2125-4.3944,4.5747-2.8054c-0.4175,2.2823,0.9137,4.629,3.0402,6.5793c3.1216,1.1152,6.2146,2.2521,9.2722,3.355
		c0.969,0.3495,1.9272,0.7157,2.8778,1.0928c1.9444-0.3375,3.4461-1.4353,3.9697-3.5671c-7.8497-4.3308,2.9088,1.7855-6.53-7.28
		c3.7778,0.9011,18.7531,8.0202,18.3701,11.88c7.3245-8.2649-23.8044-20.287-32.34-20.19c6.7649-7.1042,16.1191-5.4413,21.58-15.07
		c-13.991,1.0493-28.9037,21.253-40.56,4.38c14.1828-7.5357,19.3452-4.4473,15.6942-8.6741
		c-0.5993,1.1816-3.7167,2.4802-4.2242,0.8341c1.08-0.57,2-1.35,2.97-2.09c0.0555,0.0086,0.1019,0.02,0.1536,0.0298
		c-0.6185-0.673-1.3591-1.4685-2.2336-2.4299c-5.8567,5.049-19.1619,5.1312-25.08,9.28c0.1084-0.3471,11.4879,7.1872,11.96,11.93
		c-4.7519-0.2534-11.1848-3.3585-14-6c13.3389-1.1463-9.6075-6.2166-5.9263,0.6825
		C80.251,101.1554,95.4047,106.8545,102.4952,108.0719z"/>
	<path fill="#33073B" d="M125.5052,112.2219C115.0415,121.4325,136.5985,111.4406,125.5052,112.2219
		C123.8352,113.6919,126.2152,112.1719,125.5052,112.2219z"/>
	<path fill="#33073B" d="M382.3852,81.3219c2.6736-0.0611,7.9285,2.1878,7.84,5.37
		C387.1628,86.9836,381.7652,83.8023,382.3852,81.3219C384.1352,81.2819,382.2752,81.7619,382.3852,81.3219z"/>
	<path fill="#33073B" d="M381.2652,89.0019c6.022,4.1733,8.6834,20.2817,13.93,15.38c0.7168,0.3511-2.1548,20.92-4.17,9.5
		c-7.9149,9.3567-2.4364,20.3133-15.6,11.05c1.8815,6.6931-0.1084,9.1496,5.69,14.11c17.9802,16.9724-2.3621,12.5121-5.79,18.81
		c-6.8612,10.7818,15.2648,30.1076-6.64,30.29c0.6772,5.5384,3.3338,10.0318,7.97,13.48c-0.7605,1.7898-17.1776-8.7874-9.53-18.62
		c0.5654,4.071,5.1833-6.3451,7.2012-3.9625c-2.0504-1.0183-3.9608-2.2475-5.7312-3.6875c-1.5817,11.3217-4.1946-2.9967-6.15,8.87
		c-1.1063,1.3309-6.4956-6.3686-6.19-6.25c-0.3553-0.2743-1.0885,13.4629-5.06,15.59c-8.6027-2.2007-2.8831-17.5767-3.07-18.1
		c-10.5872,0.2818-8.6465,11.2924-19.82,8.45c4.6271,9.5437,17.4156,11.1476,10,22.92c4.7551,0.4094,2.8011-1.1548,8.81-1.62
		c-1.719,6.8757,1.0573,7.3482-4.74,7.01c4.5955,9.3644,3.0651,7.9998,1.89,19.89c13.3365-1.2124-0.8205,23.8653-1.69,31.83
		c5.0089-1.0924,20.2696-7.4795,23.74-4.67c-4.5447,7.3553-30.9009,14.8258-36.12,12.81c5.2502,3.5007,3.9902,4.7507-3.78,3.75
		c-3.8002-3.4104-3.9031-14.1509-5.08-18.7c5.5645-1.5812-16.5215-0.0172-13.21,1.36c21.1985,50.9576-20.5723,9.0953-5.72-0.2
		c-15.779,0.2464-22.2968-13.0241-22.64-22.27c7.785-1.7646,4.4394,0.9665,11.52,1.27c1.063-3.6631,8.4274-27.2902,8.08-33.07
		c-7.9188,0.7-22.0938-16.308-21.3-13.9c-5.8767-3.1593,6.573-9.9927-0.86-14.35c2.6799,1.4069,4.7999,0.8869,6.36-1.56
		c-6.9579,1.2499-6.6765,1.4747-15,2.81c-2.5575-13.0249,13.2274-27.3412,6.67-16.1c3.1512,0.4306,19.4601-23.741,15.08-5.87
		c6.5635-4.9803,31.6703,7.6445,45.73,6.67c7.9896-6.6427,13.8209-29.3663,23.41-8.75c3.0022-1.1709,5.2855-3.2376,6.85-6.2
		c-0.1353,1.9987-3.8871-5.8515-3.62-10.2075c0.6504-10.6064,20.5745-20.9717,21.3588-16.0625
		c-0.0789-0.4936-26.8055-31.3539-7.5187-22.59C371.8452,115.1903,384.3912,100.551,381.2652,89.0019 M382.3352,106.1019
		c1.5949,6.2357-0.0951,6.8857-5.07,1.95c1.5242,3.1605,3.7942,5.1205,6.81,5.88
		C386.3505,110.5385,385.7705,107.9285,382.3352,106.1019 M369.2552,129.0119c-3.963-0.7133,1.8035,26.305,8.95,24.05
		C377.9276,146.8549,371.8247,122.0109,369.2552,129.0119 M369.5552,149.2119c-0.6836-5.1824-1.0258,11.8318,0.6062,7.4175
		c-0.493-3.1109,0.9049-3.6134,4.1938-1.5075C374.5781,158.9315,369.3231,147.8981,369.5552,149.2119 M349.6252,157.4419
		C346.4997,156.7888,348.5094,157.7014,349.6252,157.4419 M363.3052,157.0019c0.32,1.68,0.81,3.32,1.23,4.98
		C368.1452,163.0719,365.2152,157.4519,363.3052,157.0019 M358.4052,164.7419c3.2128,1.8442,5.8362,4.3342,7.87,7.47
		C360.8735,159.6742,356.8613,163.5704,358.4052,164.7419 M297.3452,162.0419c-1.11,3.33,1.49,3.4,4.08,3.04
		C299.9852,164.0819,299.3752,161.8319,297.3452,162.0419 M351.4452,165.1419
		C358.1516,159.1604,350.6829,168.9725,351.4452,165.1419 M277.3152,165.0819c-2.4993-2.5881,3.606,10.9046,3.97,2.94
		C282.2977,162.5843,280.9743,161.6043,277.3152,165.0819 M345.4452,164.9519c-0.3761,1.0359,7.6929,12.5172,6.96,12.18
		C351.9901,170.7133,344.7907,163.6384,345.4452,164.9519 M292.6152,164.3519c-4.5107,17.755,4.9178,31.7848,7.69,41.81
		c3.2481-5.1989,7.6181-6.1989,13.11-3c-4.3864-1.4685-7.7264-4.1285-10.02-7.98c3.9483,0.0609,7.2583-1.3191,9.93-4.14
		c-4.639,1.3955-18.5411-12.9276-13.98-17c-10.0449-3.7776-1.0917,1.9698-4.67,5.4
		C288.0692,175.2827,297.0037,166.7732,292.6152,164.3519 M325.2752,166.0319c-0.6545,3.9404,9.1058,4.3821,10.76,3.81
		C332.5844,168.2077,328.9977,166.9377,325.2752,166.0319 M368.5252,167.2719c-2.56,1.25,0.52,3.08,1.76,3.93
		C370.0752,169.6319,371.3652,165.9119,368.5252,167.2719 M302.2752,168.1119c-0.31,4,8.4,4.01,8.08,0.02
		C307.6552,168.0019,304.9652,168.0019,302.2752,168.1119 M313.2852,170.0519c0.1512-0.5042,5.697,5.0802,5.27,4.86
		C323.5826,173.9527,313.3895,165.9131,313.2852,170.0519 M332.4752,173.2319c-1.48,0.82-1.48,2.87,0,3.7
		C334.8352,177.2219,334.8352,172.9419,332.4752,173.2319 M304.2852,174.1019c0.12,1.9,0.29,5.53,3,5
		C307.4452,176.5019,308.1652,172.7619,304.2852,174.1019 M315.5052,180.1819c-3.35,3.1,3.03,1.62,4.93,1.84
		C319.7652,179.7519,317.4252,179.8519,315.5052,180.1819 M307.4952,181.5019
		C304.1617,186.6872,320.0337,181.3499,307.4952,181.5019 M320.6852,185.5519c-1.11-0.09-5.27,1.31-2.37,1.56
		C321.2852,187.1219,331.1752,184.1019,320.6852,185.5519 M318.4452,190.3719c-2.97,2.63,2.92,3,3.56,1.01
		C320.8352,191.0219,319.6352,190.4519,318.4452,190.3719 M323.2852,191.0819c0.88,1.85,4.11,1.59,6.02,2.05
		C330.2752,189.5319,325.3352,191.5519,323.2852,191.0819 M330.2652,199.0519C330.817,205.6342,333.523,203.886,330.2652,199.0519
		 M334.2852,199.0319c-0.91,3.39,2.18,4.74,5.03,4.08C339.0552,199.7419,336.1052,201.0919,334.2852,199.0319 M315.3152,201.0719
		c-0.58,2.91,3.51,1.95,4.88,3.93C323.6252,201.9519,317.7252,200.5719,315.3152,201.0719 M324.2752,212.9319
		c3.9283,0.3961,6.6483-1.1939,8.16-4.77C332.4109,208.263,323.232,199.48,324.2752,212.9319 M314.5752,208.2919
		c-23.5234,16.4526-18.8978,5.7893-20.11,39.73c-4.477-13.1869,55.5043,12.5787,40.7,16.98
		c4.5919-8.9775,10.1948-43.6799,3.02-49.71c-4.5935,0.6038-17.1978,14.4371-18.67,2.72c2.9705,1.7524,5.5504,1.3758,7.74-1.13
		C327.5429,216.0252,317.8035,208.1708,314.5752,208.2919 M284.3452,241.2719c1.66,1.5612,1.9869,8.8277,4.98,9.94
		C296.8998,248.0712,287.2876,241.4225,284.3452,241.2719 M306.3452,264.0019c-1.1534,2.2639,0.6609,12.2567,3.91,12.03
		C314.2699,270.0839,312.9666,266.0739,306.3452,264.0019C303.9252,268.7519,308.6952,264.7619,306.3452,264.0019z"/>
	<path fill="#33073B" d="M502.4753,94.1919c3.2,0.29,0.65,4.41-1.15,4.98C501.4052,97.4719,500.8152,95.3219,502.4753,94.1919z"/>
	<path fill="#33073B" d="M106.1552,99.9119c1.2992-4.1342,3.9559-5.3776,7.97-3.73
		C111.6645,97.844,109.0079,99.0873,106.1552,99.9119C106.4052,96.3719,107.5552,99.4519,106.1552,99.9119z"/>
	<path fill="#33073B" d="M206.2852,110.0419c2.7267-2.3167,5.4533-4.6333,8.18-6.95c-0.9172,12.9053-15.7532,15.4895-20.11,25.94
		c7.0858-1.1134,8.6292,4.5054,7.89,9.68c-7.5055-1.3403-16.7662-0.1284-26.93-4.01c-0.3231,0.763,19.2038-4.9982,18.12-4.81
		C189.4822,122.1698,196.6282,117.597,206.2852,110.0419C209.0952,107.8119,204.5852,111.3719,206.2852,110.0419z"/>
	<path fill="#33073B" d="M402.6852,104.0519c1.636,3.3964,1.0527,6.4531-1.75,9.17c-1.9473-0.6003-3.8873-1.2237-5.82-1.87
		C399.0362,110.4482,401.5595,108.0149,402.6852,104.0519C406.9952,106.6319,402.3452,106.1119,402.6852,104.0519z"/>
	<path fill="#33073B" d="M412.4952,104.2019c3.5529-1.427-1.8867,3.3995-1.13,6.94
		C402.5987,107.6353,408.3837,106.5866,412.4952,104.2019C413.7152,103.7119,411.9952,104.4919,412.4952,104.2019z"/>
	<path fill="#33073B" d="M177.1452,107.0419c5.1057-8.451-10.256,25.713-15.66,14.54c9.7774,1.934-5.1182,11.6524-6.31-0.34
		C157.9224,122.1482,176.7738,108.3555,177.1452,107.0419C177.4352,106.5619,176.7352,108.4919,177.1452,107.0419z"/>
	<path fill="#33073B" d="M423.5152,106.1719C422.2119,114.3471,421.8788,106.411,423.5152,106.1719
		C423.5152,106.1719,420.4352,106.6219,423.5152,106.1719z"/>
	<path fill="#33073B" d="M419.4652,108.2919C417.9745,116.3685,416.4656,110.1268,419.4652,108.2919
		C419.4652,108.2919,417.5852,109.4419,419.4652,108.2919z"/>
	<path fill="#33073B" d="M254.1352,110.9619c1.01-0.71,2.07-1.37,3.12-2.03C262.8352,107.8019,253.0552,116.9919,254.1352,110.9619z
		"/>
	<path fill="#33073B" d="M430.4952,109.1419c7.2862,0.7051-11.2899,54.8638-40.26,39.71c4.1618-4.6159,1.2882,3.6148-0.27-5.52
		c14.7464,3.6255,26.0799-13.5523,25.26-20.6c4.2426-3.2983,6.0126-1.8016,5.31,4.49
		C426.0454,124.2216,429.7706,114.8157,430.4952,109.1419C432.6652,109.3519,430.4352,109.6119,430.4952,109.1419z"/>
	<path fill="#33073B" d="M169.5452,118.9719c4.47-0.12,1.71,4.61-1.27,4.17C169.2252,121.8619,170.4552,120.6419,169.5452,118.9719z
		"/>
	<path fill="#33073B" d="M232.3552,127.1219C232.2977,124.2346,232.0559,128.0419,232.3552,127.1219
		C232.3052,124.6119,231.5352,129.6419,232.3552,127.1219z"/>
	<path fill="#33073B" d="M385.4752,128.7319c5.4922-2.5845,16.0595,12.2742,13.96,17.54
		C392.2632,144.2594,382.4843,135.7278,385.4752,128.7319C385.9852,128.4919,384.8852,130.1119,385.4752,128.7319z"/>
	<path fill="#33073B" d="M163.4652,130.0919c7.9022-2.904,11.5614-1.6736,10.9775,3.6912
		C174.3899,129.9937,160.3429,144.2133,163.4652,130.0919C166.3952,132.7119,163.0252,132.0819,163.4652,130.0919z"/>
	<path fill="#33073B" d="M246.6952,132.2419c9.9808-1.9503-21.2903,39.6966-19.44,14.76c-3.0847,4.662-7.688,6.7053-13.81,6.13
		c-0.3095,3.037,12.5454-21.2319,15.99-19.3c0.9558,1.2893,1.5458,2.6993,1.77,4.23c-1.5544,0.9793-9.0085-1.6745-4.8,4.82
		c4.2026,2.6216,11.7879,0.0004,12.79,0.22C240.662,141.2906,246.0946,134.7144,246.6952,132.2419
		C248.4352,131.9019,246.0952,134.7119,246.6952,132.2419z"/>
	<path fill="#33073B" d="M311.3352,139.0919c-4.4567,1.8323-5.8555,0.6266-4.1963-3.6171
		C311.2788,128.188,313.6141,139.2145,311.3352,139.0919C303.8652,143.7819,313.5652,139.2119,311.3352,139.0919z"/>
	<path fill="#33073B" d="M162.1552,138.8419C155.6357,145.877,163.101,128.4374,162.1552,138.8419
		C160.3852,140.7519,162.1852,138.5119,162.1552,138.8419z"/>
	<path fill="#33073B" d="M214.3752,140.8719C224.9056,145.7973,214.4361,141.8428,214.3752,140.8719
		C215.6152,141.4519,214.5752,144.0619,214.3752,140.8719z"/>
	<path fill="#33073B" d="M312.6752,141.5619c11.7902-2.8251,11.5558,9.7984,8.38,16.15
		C311.0741,157.9301,309.3071,149.2905,312.6752,141.5619 M313.1852,145.0919c-1.2056,1.7876,7.789,5.5884,6.91,5.91
		C321.6705,145.9385,313.2207,144.546,313.1852,145.0919C312.6052,145.9519,313.3152,143.0919,313.1852,145.0919z"/>
	<path fill="#33073B" d="M217.2752,187.2419c5.9189-5.5802,26.1132,12.5948,20.75,16.11
		C230.7237,201.1052,215.9188,192.4618,217.2752,187.2419C220.2452,184.4419,216.9452,188.5119,217.2752,187.2419z"/>
	<path fill="#33073B" d="M299.5652,187.3719c2.35-2.12,0.98,4.93,1.61,6.52C297.9852,197.5419,296.4352,188.6419,299.5652,187.3719z
		"/>
	<path fill="#33073B" d="M357.3152,192.0119c-1.0102-4.5992,17.1101,41.5405,16.8,41.21c9.0816,7.985-20.0611,29.6393-21.86,13.9
		c3.5957,6.1554,25.6609-20.6215,8.32-32.92c0.0314,0.6994-5.5397,12.6914-6.31,12.77
		C355.6459,214.819,364.7626,205.7063,357.3152,192.0119z"/>
	<path fill="#33073B" d="M355.5352,195.0919c3.6985,0,1.6082,12.2158,1.74,16.25
		C341.5768,205.3225,356.89,204.328,355.5352,195.0919C356.0952,195.0919,355.6452,195.8419,355.5352,195.0919z"/>
	<path fill="#33073B" d="M268.6152,203.4819c2.1083-1.7569,13.9665-2.6635,13.76,2.59c-17.3206,2.3619,3.6665,8.3785-14.29,7.86
		C268.2619,210.4486,268.4386,206.9652,268.6152,203.4819C270.1752,202.1819,268.4752,206.0919,268.6152,203.4819z"/>
	<path fill="#33073B" d="M345.8652,211.5419C346.8214,208.1552,348.1309,209.9234,345.8652,211.5419
		C346.1052,210.6919,345.8652,211.5419,345.8652,211.5419z"/>
	<path fill="#33073B" d="M279.2552,226.3319C287.4545,229.8102,262.7661,236.4523,279.2552,226.3319
		C279.5852,226.4719,277.3652,227.4919,279.2552,226.3319z"/>
	<path fill="#33073B" d="M393.7652,231.0719c1.4309-3.6283,4.0376-5.0783,7.82-4.35c-0.7738,1.222-18.4573,23.8759-18.4588,22.3875
		c0.0023,2.3087,8.5434,3.5984,3.2787,6.9325c-3.6961-4.5833-16.5139,6.3238-20.94,2.53
		C371.6422,250.4902,389.3029,242.1261,393.7652,231.0719C395.0952,228.2219,393.3252,232.1619,393.7652,231.0719z"/>
	<path fill="#33073B" d="M279.4552,239.5119c-0.9236,1.134,0.1792,7.1472-8.96,9.55
		C269.388,241.1896,275.2948,244.2227,279.4552,239.5119z"/>
	<path fill="#33073B" d="M99.561,27.2486c14.1416-5.3058,39.306-14.9011,68.7142-20.6089
		C146.7794,8.8096,119.3291,17.7471,99.561,27.2486z"/>
	<path fill="#33073B" d="M131.492,73.0444c2.6446,5.399,6.6968,12.7104,7.9999,18.8708
		C142.6434,85.5749,139.3567,78.6943,131.492,73.0444z"/>
	<path fill="#33073B" d="M76.6832,99.3688c4.3391,3.3951,8.819,5.2647,13.759,7.5142c3.1404,1.4299,5.7285,3.3169,7.6248,5.6662
		c11.548,2.2025,22.8557,6.5543,33.7307,10.477c7.9951,2.884,15.4269,6.6641,21.1512,12.1735
		c6.208-0.3085,13.3165-0.7709,21.4938-1.4166C132.1967,122.1879,99.8882,109.7794,76.6832,99.3688z"/>
	<path fill="#33073B" d="M108.0602,81.8202c-0.3057-0.2688,24.4858-12.2032,21.5367,2.9095
		c1.3458-1.684,53.9033,10.0806,62.4942,29.3673c8.4491-16.4003-71.1727-47.884-75.7109-53.5503
		c26.6743-3.3599,49.2491,2.3854,61.2167,10.9825c-4.6856-9.5659-4.9509-13.1264,22.3333,6.3682
		c-20.7207-31.2708-59-17.3508-87.27-25.2407c18.562-6.9241,77.4232-7.387-17.21-17.59c0,38.4847-6.8046,19.0034-9.8369,19.15
		c-2.8186-3.5863-7.925-9.036-5.6132-15.7192c-3.6844,3.6028-7.0687,7.5169-10.0699,11.7908
		c-2.3872,6.197,0.0129,13.1132,5.256,20.1935C77.0058,69.1114,84.6483,70.361,108.0602,81.8202z"/>
	<path fill="#33073B" d="M137.1687,14.2486c182.0932-21.6667,105.8529-2.0852,135.8474,40.9128l-7.1908,24.2513
		C255.8252-7.7514,157.6139,0.6699,137.1687,14.2486z"/>
	<g>
		<path fill="#33073B" d="M540.1599,74.5819c13.3402-10.1701,6.7349-23.2281-6.2775-34.3439
			C540.5171,52.2027,547.6812,66.4483,540.1599,74.5819z"/>
		<path fill="#33073B" d="M558.7001,64.6845c-1.3102,1.7311-2.5043,3.504-3.5416,5.3146
			C556.5446,68.175,557.712,66.4053,558.7001,64.6845z"/>
		<path fill="#33073B" d="M566.2801,69.9991c4.7784-25.4418,29.8785-29.7611,29.8785-29.7611
			c0-17.9895-89.9981-35.7312-116.2779-33.6561c-95.7897,16-101.6694,46.3802-101.7654,46.2166
			c122.035-65.2166,181.7099,1.0758,106.0624,53.9898c59.8582-41.8696,47.1872-75.8481,3.2169-89.5397
			c12.1393,1.8067,32.8385,11.3295,46.4879,22.9894c-8.0673-14.5482-15.3516-25.7238,5.4998-18.4345
			c0,0,35.709,14.3345,19.3178,42.881c12.7809-16.8868,17.3992-35.2479,30.189-34.9678
			C571.1586,29.7167,561.6685,60.5379,566.2801,69.9991z"/>
	</g>
</g>
<rect x="0" y="0" fill="none" width="646.4617" height="388.742"/>
</svg>
