<?xml version="1.0" encoding="utf-8"?>
<!-- Generator: Adobe Illustrator 17.0.0, SVG Export Plug-In . SVG Version: 6.00 Build 0)  -->
<!DOCTYPE svg PUBLIC "-//W3C//DTD SVG 1.1//EN" "http://www.w3.org/Graphics/SVG/1.1/DTD/svg11.dtd">
<svg version="1.1" id="Layer_18" xmlns="http://www.w3.org/2000/svg" xmlns:xlink="http://www.w3.org/1999/xlink" x="0px" y="0px"
	 width="646.4617px" height="388.742px" viewBox="0 0 646.4617 388.742" enable-background="new 0 0 646.4617 388.742"
	 xml:space="preserve">
<g id="layer-18--33073bff">
	<path fill="#33073B" d="M315.5352,91.2819c10.6581,0.9862,27.4253-1.4685,36.09,1.51c-12.6082,7.7796,16.7392,25.6697,27.46,30.36
		c-0.7523-3.9712-6.5284-11.4318-2.95-14.09c4.2098,18.508,26.6637,48.125,37.91,62.85c0.1013-0.2694-9.6489-4.7855-10.68-5.66
		c0.1921,2.406-17.51,42.6413-23.13,36.25c-1.7589,0.8948,22.189-63.975,2.31-75.54c1.4454,11.1188-7.7555,9.5509-7.2838,11.065
		c1.1002,3.5312,8.4185,5.4663,5.3725,11.3812c-2.6895,5.2225-6.5182-16.1325-12.2987-9.4662
		c-1.3202,4.3915-1.9621,12.2536-2.03,16.19c-8.7656-7.6312,11.6372-34.4247-6.88-33.4c-0.5629-0.0846-42.5354-13.5626-26.95-15.93
		c-28.0468-11.1411-16.4877,8.8487-38.37,6.39c6.0916,9.9234-7.4412,16.1993-16.0438,14.595
		c-16.9332-3.1579,1.4817,24.3154-8.4362,25.525c-0.2221-1.9993,0.1294-9.6553-4.21-8.23c-4.4872,8.3672,3.673,8.9222-0.13,12.33
		c-11.0015-14.103-54.299,50.5647-56.73,51.24c-2.4003-0.6158-1.2693,9.534-2.34,11.38
		c-8.6072-2.9559,49.3624-117.4157,59.13-117.04c0.668,5.4905-11.8628,19.6052-2.14,21.25
		c-2.1312-5.9412,31.5633-22.1087,33.31-21.38c-6.1971-0.5357-7.7667-2.1628-4.7088-4.8812
		C302.03,98.0835,302.7705,97.0564,315.5352,91.2819 M335.2052,99.1119C342.3613,105.7176,344.9941,98.667,335.2052,99.1119
		 M379.3052,129.0819C381.7377,130.1041,379.2251,122.5386,379.3052,129.0819 M253.5852,136.4419
		c-1.4494,1.8317-7.7767,11.5574-7.245,13.9113c-0.2154-0.9538,19.5098-7.166,15.955-14.4613c-6.8917,8.8796,2.509-3.4196-7.6,5.5
		c-1.2432-4.886-0.7666-9.6694,1.43-14.35C253.2256,129.5131,252.3789,132.6464,253.5852,136.4419
		C250.8552,139.8919,254.0552,133.5419,253.5852,136.4419z"/>
	<path fill="#33073B" d="M371.5652,153.3619C378.7948,154.4803,369.3638,163.1218,371.5652,153.3619
		C373.3752,153.6419,371.2652,154.6919,371.5652,153.3619z"/>
	<path fill="#33073B" d="M272.2052,156.7119C273.105,151.073,279.557,160.0202,272.2052,156.7119
		C272.3552,155.7719,273.2052,157.1619,272.2052,156.7119z"/>
	<path fill="#33073B" d="M363.2752,157.9919c8.8853,0.9958-2.6371,16.0641-2.06,22.7
		C350.3279,180.3085,361.5895,165.001,363.2752,157.9919C364.4352,158.1219,362.5152,161.1519,363.2752,157.9919z"/>
	<path fill="#33073B" d="M272.9252,160.4819C274.6192,162.4801,273.4742,162.5665,272.9252,160.4819
		C271.2552,158.5119,273.5652,162.9119,272.9252,160.4819z"/>
	<path fill="#33073B" d="M278.5652,162.0919c0.63,1.05,1.24,2.11,1.96,3.11C279.2552,169.7719,277.1552,164.2419,278.5652,162.0919z
		"/>
	<path fill="#33073B" d="M268.3652,163.0019c3.3984,1.5961,5.0051,4.3495,4.82,8.26
		C268.3465,168.8239,266.7398,166.0705,268.3652,163.0019z"/>
	<path fill="#33073B" d="M374.2952,169.0519C374.9402,167.9908,382.6859,171.5229,374.2952,169.0519
		C375.2252,167.5219,374.2952,169.0519,374.2952,169.0519z"/>
	<path fill="#33073B" d="M255.4052,168.9919C260.6383,169.7394,264.7885,179.6416,255.4052,168.9919
		C255.8252,169.0519,257.0352,170.8419,255.4052,168.9919z"/>
	<path fill="#33073B" d="M267.4852,170.9519C268.7202,170.9667,266.3693,186.0982,267.4852,170.9519
		C269.9852,170.9819,267.4852,170.9519,267.4852,170.9519z"/>
	<path fill="#33073B" d="M280.5352,180.6819C281.3557,167.9919,290.8428,179.7854,280.5352,180.6819
		C280.6852,178.3619,280.9952,180.6419,280.5352,180.6819z"/>
	<path fill="#33073B" d="M278.5352,183.9619c7.521,9.1674,0.633,11.9304,15.08,8.35c-1.2202,5.3346-16.6039,19.2924-8.11,32.6
		c-0.2789,0.3797-22.4634,15.8136-7.1,15.38c-0.3854,3.1476-7.5947,5.2434-10.04,8.7c6.4322,4.1064,8.0705,11.4667-4.01,14.01
		c2.9411-4.7863,32.2726,24.1025,13.7,24.91c-3.2361-5.3933-25.5592-34.7637-21.42-40.47c20.3902,0.6473,7.0209-19.6556,6.56-28.12
		c-0.7851-0.6318,4.9837,9.0683,6.47,8.17C277.382,225.9816,277.4713,191.7804,278.5352,183.9619
		C280.5452,186.4119,278.1052,187.1219,278.5352,183.9619z"/>
	<path fill="#33073B" d="M238.1252,187.2619c2.3933,1.7167,4.7867,3.4333,7.18,5.15c2.2895-3.6794-7.62,11.8075-6.75,10.99
		C230.2726,195.4742,242.1477,194.4907,238.1252,187.2619C241.8252,187.2919,238.8152,188.5019,238.1252,187.2619z"/>
	<path fill="#33073B" d="M269.3252,189.1919C280.9109,183.3657,271.3287,199.6273,269.3252,189.1919
		C271.0552,188.3219,269.5652,190.4419,269.3252,189.1919z"/>
	<path fill="#33073B" d="M364.3352,187.2619c6.7396,2.9051-4.3781,23.3322-2.21,29.78c-20.8016,3.3732-24.8166,35.1204-17.75,42.08
		c-14.6632,40.1654-30.7241-6.8762-24.42-11.4c-8.9018,3.0572-3.9228,0.8537-9.22-0.97c-3.9999-2.9777-8.7379,5.1725-11.48,5.42
		c-0.7614-0.4341-1.4981-0.9075-2.21-1.42c3.9975-0.4519-14.3654-14.5038-14.72-22.62c7.1964,5.0259,5.5041-1.4266,10.12-5.99
		c1.3015,22.1646,26.0014,17.7833,46.77,18.87C342.3549,215.3976,349.9214,207.9608,364.3352,187.2619 M318.2052,243.1319
		c0.69,2.67,4.55,2.67,5.24,0C321.6952,243.0319,319.9452,243.0319,318.2052,243.1319 M330.6152,244.4519
		c-1.7898,0.9713-7.8452,3.4144-5.6325,7.48C328.648,258.6667,334.1804,239.6296,330.6152,244.4519 M333.6452,251.4119
		c-4.7897,4.381-5.8397,9.5744-3.15,15.58c3.0078,1.3368,2.2976-9.3363,2.98-0.92
		C331.4644,271.132,343.0989,245.4323,333.6452,251.4119C327.7052,254.1419,336.4752,249.6219,333.6452,251.4119z"/>
	<path fill="#33073B" d="M258.2952,193.1019c1.3379,0.5339,20.434,20.8203,8.16,27.92
		C268.4159,212.1474,260.0505,201.8146,258.2952,193.1019z"/>
	<path fill="#33073B" d="M251.4652,194.2519C261.0482,202.6376,243.127,197.3891,251.4652,194.2519
		C251.7052,194.4619,250.4552,194.6319,251.4652,194.2519z"/>
	<path fill="#33073B" d="M224.2652,210.9519c1.0416-2.7947,2.745-5.1014,5.11-6.92c-0.1455,2.6857-2.9665,18.2457-8.09,17.7
		C219.1849,217.9313,219.469,211.6818,224.2652,210.9519C227.0052,209.7219,223.8052,211.0219,224.2652,210.9519z"/>
	<path fill="#33073B" d="M374.2352,210.0219c1.7006-3.2865,4.4206-4.6265,8.16-4.02
		C380.0729,208.0246,377.1248,209.0208,374.2352,210.0219C374.2652,206.2219,375.5052,209.5819,374.2352,210.0219z"/>
	<path fill="#33073B" d="M206.9352,221.1519C212.9231,214.2528,210.0456,236.8767,206.9352,221.1519
		C207.8552,220.0919,207.2952,222.9719,206.9352,221.1519z"/>
	<path fill="#33073B" d="M382.2452,257.4919c-7.2932-3.1768-8.2632-1.6134-2.91,4.69c-5.7646-0.8761-10.0924-6.7916-10.81-11.26
		c10.4876-0.3884-10.065-21.4069-8.22-32 M360.3052,218.9219c7.0257,1.5261-1.4328,3.6499,8.11,2.14"/>
	<path fill="#33073B" d="M274.3152,262.1819c3.68-3.36,2.92,4.78,0.64,5.24C274.3752,265.7319,274.3152,263.9419,274.3152,262.1819z
		"/>
	<path fill="#33073B" d="M367.0352,268.9319c0.6504-10.0405,11.8151,26.635,11.45,26c-1.8147,0.2002-14.3631-23.4117-14.39-23.6
		C370.0144,273.5359,370.9944,272.7358,367.0352,268.9319C367.1952,266.4619,367.8352,269.9919,367.0352,268.9319z"/>
	<path fill="#33073B" d="M324.3752,286.4419C320.7157,267.7054,330.9096,284.0219,324.3752,286.4419
		C323.8752,283.8819,325.4552,286.0419,324.3752,286.4419z"/>
	<path fill="#33073B" d="M324.7752,290.0419c1.0641,0.1028,0.9654,61.256,0.7555,61.04c-1.1269-3.3108,2.5476-51.7841,5.7345-51.86
		c0.0352,4.2261-10.834,41.7543-10.44,42.94C317.7945,335.2596,322.1712,297.0929,324.7752,290.0419
		C327.6752,290.3219,320.3152,296.5419,324.7752,290.0419z"/>
	<path fill="#33073B" d="M315.3852,305.0419c3.98-0.44,1.99,3.77,1.75,5.98C313.7952,311.8919,315.8052,306.9619,315.3852,305.0419z
		"/>
	<path fill="#33073B" d="M314.4852,324.2419c-5.3543,3.3485,1.2842,34.5794,3.84,35.84
		C319.483,356.7669,316.683,326.8336,314.4852,324.2419C311.3352,326.2119,318.2952,324.8319,314.4852,324.2419z"/>
</g>
<rect x="0" y="0" fill="none" width="646.4617" height="388.742"/>
</svg>
