<?xml version="1.0" encoding="utf-8"?>
<!-- Generator: Adobe Illustrator 17.0.0, SVG Export Plug-In . SVG Version: 6.00 Build 0)  -->
<!DOCTYPE svg PUBLIC "-//W3C//DTD SVG 1.1//EN" "http://www.w3.org/Graphics/SVG/1.1/DTD/svg11.dtd">
<svg version="1.1" id="Layer_14" xmlns="http://www.w3.org/2000/svg" xmlns:xlink="http://www.w3.org/1999/xlink" x="0px" y="0px"
	 width="646.4617px" height="388.742px" viewBox="0 0 646.4617 388.742" enable-background="new 0 0 646.4617 388.742"
	 xml:space="preserve">
<g id="layer-14--33073bff">
	<path fill="#33073B" d="M159.8509,10.5366c63.2243,2.2953,118.0133,51.2447,108.9743,61.9472
		c-16.5,8.2009,26.7946,45.55,29.665,36.5355c5.928-18.6166,22.7863-38.3152,36.055-7.5275
		c33.0075,0.2878,32.4428-65.6924,63.23-58.41c-2.8319,1.3559-20.0662,12.7107-14.23,15.85c1.7706,0.8196,8.1792-10.8464,13.89-7.79
		c-3.2232,14.3487-46.665,80.3091-68.87,71.81c1.5934,0.9324-3.9563-23.5485-4.55-21.72c-6.127-12.963-20.2699-0.5283-17.61,7.65
		c4.166,3.7692,5.7693,3.4726,4.81-0.89c13.9124,0.2734,36.8135,55.5612,15.02,55.37c0.411-2.3385-5.4705,23.3761-5.94,7.95
		c10.5541-1.5479-14.3398-2.3462,5.09-7.61c-5.9152,0.5781-8.5919-1.9086-8.03-7.46c1.9037,2.2743,3.5937,2.3343,5.07,0.18
		c15.795-6.5192-43.6122-60.0964-66.6-44.34c7.8118-14.7031-1.47-32.9-1.47-32.9c-4.8599-10.7997-6.9026,25.4355-13.211,20.0167
		c7.681-15.7678,5.3612-45.8077,5.071-51.2567c-13.64,0.13-18.64,3.2444-26.89,26.64c-5.5316-9.5845,21.819-31.5-30.94-53.687
		L159.8509,10.5366z M308.3052,112.1319c-3.3322,7.7845-0.2922,11.3678,9.12,10.75c-2.3069-2.9188-3.0003-6.1655-2.08-9.74
		C311.0552,114.5719,310.0077,111.5382,308.3052,112.1319 M320.6252,123.3019c-1.54,0.32-3.22,1.78-2.12,3.45
		C319.8552,127.1219,322.5152,123.9619,320.6252,123.3019 M319.5052,130.7919c-8.5665,2.2385-10.6871,19.0574-9.18,22.885
		C322.4584,148.0795,319.8009,131.8479,319.5052,130.7919"/>
	<path fill="#33073B" d="M328.5552,155.5219C320.7573,155.0838,345.674,157.4453,328.5552,155.5219
		C327.6652,155.4719,330.3352,155.7219,328.5552,155.5219z"/>
	<path fill="#33073B" d="M478.4852,51.2219c9.1301-0.6616-4.5388,13.3609-12.22,12.77
		C468.6725,56.6214,472.9259,59.4401,478.4852,51.2219C479.1752,51.1719,477.5652,52.5819,478.4852,51.2219z"/>
	<path fill="#33073B" d="M400.1852,54.9919c3.194-6.7424,3.5125,19.3038-0.0862,17.3913c-1.2527-0.6429-2.554-1.15-3.9037-1.5212
		C396.3686,64.0428,400.1852,63.6358,400.1852,54.9919C400.4552,54.4219,400.1852,55.7219,400.1852,54.9919z"/>
	<g>
		<path fill="#33073B" d="M145.8252,68.7379c15.5912-63.156-58.7081-44.0608-60.7631-43.9493
			c98.163,16.8004-20.7422,18.723-20.4629,18.1484c61.851-24.7301,57.1918-34.2186,48.4815-28.6465
			c3.6734,0.4756,49.7445,18.958,0,0C166.1586,18.5819,159.8119,72.0712,145.8252,68.7379z"/>
	</g>
	<path fill="#33073B" d="M425.3952,59.1219c2.3247,0.9617,3.6914,0.0294,6.77,3.06c-10.3577,7.5802-13.943,15.8214-32.03,18.83
		c1.4741-7.8716,20.1996-7.8367,19.29-13.95c-0.1839,0.0533-8.6466,3.1208-6.2-1.12
		C416.4096,63.5793,423.3469,63.6461,425.3952,59.1219z"/>
	<path fill="#33073B" d="M262.4252,64.0319C266.727,68.8028,261.5097,65.346,262.4252,64.0319
		C262.4252,64.0319,260.7252,66.4719,262.4252,64.0319z"/>
	<path fill="#33073B" d="M492.2352,73.1519c2.0053,15.66-10.5851,13.5535-24.92,14.63
		C471.9135,83.4903,492.4912,77.858,492.2352,73.1519C491.9753,71.1219,492.3652,75.5419,492.2352,73.1519z"/>
	<path fill="#33073B" d="M194.3952,80.8619c17.1919,5.8051-21.529,21.6543-20.14,2.3
		C180.733,82.8583,199.84,94.5712,194.3952,80.8619C195.9352,81.3819,194.9552,82.2719,194.3952,80.8619z"/>
	<path fill="#33073B" d="M454.3052,89.9619c3.34-0.9967,6.68-1.9933,10.02-2.99C460.8018,94.4367,459.282,90.0446,454.3052,89.9619z
		"/>
	<path fill="#33073B" d="M154.4352,99.2119c6.0127-0.1964,10.6927,1.7769,14.04,5.92
		C167.4016,109.9858,153.1871,105.0776,154.4352,99.2119C158.2752,100.8519,154.3352,99.6819,154.4352,99.2119z"/>
	<path fill="#33073B" d="M415.1961,164.5023c-0.3506,1.4677-0.6437,2.9464-0.8766,4.4111c-0.813,5.1128-4.1707,9.3602-9.8257,9.1627
		c-4.6946-0.1639-9.978-4.6989-9.1627-9.8257c1.8862-11.8612,5.2437-23.4377,13.5729-32.4705
		c4.003-4.3411,8.8391-7.5853,14.1127-9.9251c2.0632-6.1195,9.3583-19.3121,7.7587-22.9229
		c-4.3481,6.9689-11.0942,13.0621-16.19,20.31c5.9883-2.9847,6.845-1.0881,2.57,5.69c-9.143,4.1292-27.3936,15.9108-21.81,33.3
		c-4.4175-0.4171-19.4735-8.6369-25.11-11.27c4.7278,4.176,4.4146,5.226-0.94,3.15c2.45,3.4489,5.45,6.3255,9,8.63
		c-12.0281,1.0618-42.8359,42.5135-36.05,49.54c1.6943,3.5698,2.6817,6.5906,3.1115,9.1512
		c0.0919-1.5354,0.2422-3.0632,0.4568-4.5803c-1.5673-1.7195-2.5473-4.0096-2.4825-6.6025
		c0.2129-8.5175,3.7322-17.6464,11.6695-21.126c0.493-0.8652,1.0035-1.7194,1.5406-2.5566
		c4.1493-6.4681,10.0084-11.8247,17.1135-11.7842c4.074-5.3562,7.056-10.5379,7.0305-13.8916
		c-2.1505-2.6556,9.5157,10.3716,13.808,19.2013c1.8182,0.2594,3.6387,1.0947,5.2799,2.6764
		c0.8469,0.8162,1.6155,1.692,2.3101,2.6126c4.0372-2.842,6.8314-1.6893,8.3847,3.4504
		c0.586-3.5414,10.5563-28.4901,17.5765-30.0815c1.1453-0.9467,2.3816-1.7886,3.6621-2.5305
		c1.1851-0.6866,2.4202-1.3003,3.5752-2.0375c0.0099-0.0091,0.0149-0.0141,0.0253-0.0236c0.4368-0.3981,1.5465-1.8136,0.2969-0.176
		c0.0095-0.0057,0.0132-0.0073,0.0221-0.0126c3.0447-3.8206,7.991-5.5251,12.4564-3.0297
		c5.3821-4.1288,13.823-11.1409,18.4729-14.1594C456.9828,131.2057,431.2481,155.352,415.1961,164.5023z"/>
	<path fill="#33073B" d="M345.2291,227.3556c0.4479-1.6223,0.5208-3.5801,0.1276-5.9225
		C345.2388,223.4031,345.2048,225.3808,345.2291,227.3556z"/>
	<path fill="#33073B" d="M354.3578,231.5233c-1.9513-1.8494-3.1029-4.5088-3.0268-7.2729c0.0057-0.2056,0.0375-0.4033,0.05-0.6069
		c-2.9177,4.3457-5.0412,9.0351-5.9557,9.6285c-0.0997-1.9575-0.1718-3.9348-0.1962-5.9163
		c-3.3427,12.105-27.2132,5.8117-28.5001,5.8c-4.5378-0.0413-20.662,18.0026-23.6038,3.1963
		c4.4131,0.9456,4.6653-23.7338,4.1201-27.1201c-7.6699-0.7668-5.6764,26.4568-7.08,30.92
		c-3.2918-4.1781-9.5884-11.3281-14.75-10.795c-1.293,1.6535-1.4248,2.8543-0.4117,3.6086
		c-12.7832-3.5246-32.65-10.8068-40.5883-17.0836c-2.2044,3.6547,5.1367,10.5098,7.1,11.2
		c-3.0586-5.2579,21.9835,2.3794,36.4088,13.1354c2.5561,0.9302,5.0288,2.2054,7.3683,3.871
		c8.946,6.3688,14.171,16.1456,15.8521,26.9236c0.5927,3.7999,0.8076,7.7972,0.3761,11.6237
		c0.7289,1.6248,1.2632,3.2152,1.5148,4.7463c1.2906-7.3057,1.6294-14.6253,1.0162-21.9587
		c16.5492,10.3474-8.439-18.4237-8.7662-19.4413c6.8173,1.7449,12.6813,4.7233,13.09-2.95c2.8582,1.8433,4.2216,4.4866,4.09,7.93
		c3.3488,1.619,7.1422-7.106,10.75-7.51c-2.2676,13.1901-1.3746,25.5761,3.12,35.59c0.4503-3.5057,0.4603-7.0291,0.03-10.57
		c10.9537,7.8629,22.0686-10.8292,21.95-9.6C358.9272,256.3218,355.2301,238.3174,354.3578,231.5233z M310.5152,237.3819
		c1.21-0.62,2.44,0.41,3.68,0.12C315.3653,240.1019,309.0152,239.9719,310.5152,237.3819z M331.6053,261.8319
		c-1.9259-8.646-7.1226-18.0997,3.87-21.39C342.4471,242.9505,338.617,261.5037,331.6053,261.8319z M342.7453,251.9419
		c1.6528-4.9586-1.6425-6.4301-0.5-9.87C347.4056,241.0588,345.9276,252.7742,342.7453,251.9419z M349.3152,246.1219
		c-0.04-2.36,0.82-4.7,0.07-7.04C353.3252,237.7719,353.4052,247.2019,349.3152,246.1219z"/>
	<path fill="#33073B" d="M382.3052,155.0919C385.7,167.2081,387.8485,154.4064,382.3052,155.0919"/>
	<path fill="#33073B" d="M448.3352,108.9519c3.0367-0.6133,6.0733-1.2267,9.11-1.84
		C456.9707,110.404,443.1711,118.5676,448.3352,108.9519C451.3452,108.1519,448.0452,109.4919,448.3352,108.9519z"/>
	<path fill="#33073B" d="M241.4552,130.8519c5.9457,3.5329,6.6323,9.4263,2.06,17.68
		C241.3621,142.8541,240.6754,136.9608,241.4552,130.8519C242.3252,131.5719,241.3152,134.5219,241.4552,130.8519z"/>
	<path fill="#33073B" d="M242.6252,155.0719c2.6919,1.8519,2.9253,4.5019,0.7,7.95c1.1914,0.2522,6.4644-2.4747,6.98-2.94
		c2.5729,9.0272,18.9715,23.78,11.31,28.86c-2.1819-7.1051-15.3846-16.0991-16.23-15.85c-7.3041-0.8983,0.4418,27.2137-10.4,24.38
		C237.4096,184.8843,237.9313,164.9072,242.6252,155.0719C244.4052,154.9319,241.9952,156.3919,242.6252,155.0719z"/>
	<path fill="#33073B" d="M324.6852,175.0419c11.9625-0.9703,6.1,1.9415,2.68,7.91c3.2338-0.3006,5.5238,1.0894,6.87,4.17
		c-2.7585-0.3424,6.0978-7.8686,8.26-7.79c-0.3936,5.9733-3.0736,10.5233-8.04,13.65c-3.3325-1.3988-2.6592-2.0821,2.02-2.05
		C331.4639,181.8624,313.8138,190.62,324.6852,175.0419C325.0552,175.0119,323.0452,177.3919,324.6852,175.0419z"/>
	<path fill="#33073B" d="M266.5152,192.8319c0.3777,0.1742,16.7685,4.7887,5.66,6.59c1.0823,1.4549,12.18,7.9202,12.92,7.96
		c-0.2863,0.6362-9.5012,3.9756-11.66,4.22C270.8594,209.2363,266.9716,191.7739,266.5152,192.8319
		C268.5752,193.7819,266.2952,193.3419,266.5152,192.8319z"/>
	<path fill="#33073B" d="M286.1352,223.0019c3.793-3.793,3.1712,6.146,3.14,8.3
		C288.2285,228.5352,287.1819,225.7686,286.1352,223.0019C286.4452,222.6919,285.2252,226.1819,286.1352,223.0019z"/>
	<path fill="#33073B" d="M306.6552,246.9419C315.1904,252.8349,302.1269,255.4332,306.6552,246.9419
		C307.0752,247.2319,306.3352,247.5419,306.6552,246.9419z"/>
	<path fill="#33073B" d="M318.3252,265.9819c4.3727-1.1847,3.6227,7.5496,2.08,7.17
		C316.7541,271.1634,316.0608,268.7734,318.3252,265.9819C322.3852,264.8819,317.8552,266.9619,318.3252,265.9819z"/>
	<path fill="#33073B" d="M358.0152,274.3519c-1.2875-0.1845,12.7933-27.9435,0.7,9.96
		C357.9552,278.8979,355.5166,279.6075,358.0152,274.3519C354.8052,273.8919,357.4352,275.5719,358.0152,274.3519z"/>
	<path fill="#33073B" d="M344.5452,276.2319C346.3448,280.4643,345.9076,279.4361,344.5452,276.2319L344.5452,276.2319z"/>
	<path fill="#33073B" d="M323.5052,285.8519c5.1085,9.8094,6.7155,18.2396,3.09,27.45
		C325.3623,299.0545,323.1447,296.1603,323.5052,285.8519z"/>
	<path fill="#33073B" d="M329.6352,291.9519c4.0829-2.6483-0.7024,29.0602-1.22,31.47
		C324.0184,322.6609,329.0191,296.5986,329.6352,291.9519C330.0052,291.7119,329.3952,293.7619,329.6352,291.9519z"/>
	<path fill="#33073B" d="M308.2652,306.8819C314.7808,312.9064,306.2126,322.4812,308.2652,306.8819
		C310.2552,308.7219,307.9152,309.5419,308.2652,306.8819z"/>
	<path fill="#33073B" d="M334.3152,319.3219c-2.97-0.91-4.28-7.43-0.65-8.72C334.6152,313.4119,334.2352,316.3719,334.3152,319.3219
		z"/>
	<path fill="#33073B" d="M331.9752,327.3519C332.9398,321.8862,334.405,342.6232,331.9752,327.3519
		C332.8152,322.5919,332.0452,327.7919,331.9752,327.3519z"/>
	<g>
		<path fill="#33073B" d="M84.1552,59.4019c0.0016,0.0135-0.001,0.0289,0.0001,0.0426
			C84.1812,59.4302,84.1884,59.4159,84.1552,59.4019z"/>
		<g>
			<path fill="#33073B" d="M104.3017,99.1985c-3.051-12.2039-10.3142-17.9289-18.6812-20.8593
				C88.9315,81.251,105.6749,104.6915,104.3017,99.1985z"/>
			<path fill="#33073B" d="M33.3252,84.7419c5.1859,4.6051,52.0643,73.815,113.87,68.935
				c-100.3057-27.531-99.5002-85.4467-98.87-84.5063c4.9688,7.4141,22.7917,4.0891,37.2953,9.1687
				c-0.3057-0.2688-0.5067-0.3776-0.5583-0.2574c1.3458-1.684,52.333,18.2436,60.9239,37.5303
				c8.4491-16.4003-71.1727-47.884-75.7109-53.5503c2.1525-0.0365,4.3033-0.1252,6.4525-0.2662
				c-2.4262,7.6569,7.653,0.418,7.4276-2.3511c-0.6526,0.3619-19.3453,0.715-17.6002-5.2726c18.6268,4.2186,4.5404-2.2017,3.56-6.97
				c3.7124,1.2308-2.4837-4.4116-5.5159-4.2649c2.8347-3.5052,9.6382-10.9592,20.4629-18.1484
				c-8.718,4.0714-20.9553,14.5504-31.7369,20.9299C53.6134,46.086,25.8252,78.0819,33.3252,84.7419z"/>
			<path fill="#33073B" d="M85.0622,24.7886c81.0326-37.8428,78.6533,16.5162,99.503,23.5664l5.163-32.9402
				C140.2864-1.4041,105.5073,11.2099,85.0622,24.7886z"/>
		</g>
		<path fill="#33073B" d="M56.1352,55.1019c0.0047,0.007,0.0084,0.0131,0.0131,0.0201c0.004-0.0004,0.0082-0.0012,0.0122-0.0017
			C56.1518,55.1141,56.1439,55.1081,56.1352,55.1019z"/>
	</g>
	<g>
		<path fill="#33073B" d="M589.6414,59.0232c-0.0497,0.0316-0.0997,0.0675-0.1495,0.0986
			C589.4987,59.1615,589.5529,59.1219,589.6414,59.0232z"/>
		<g>
			<path fill="#33073B" d="M479.8807,6.5819c-95.7897,16-101.6694,46.3802-101.7654,46.2166
				c122.035-65.2166,181.7099,1.0758,106.0624,53.9898c59.8582-41.8696,47.1873-75.8482,3.2169-89.5397
				c23.7121,3.5291,80.0987,36.4954,52.7654,57.3333c16.6667-18.0235-38.7776-66.0625-0.7776-52.7784
				c0,0,40.155,16.1117,15.7762,48.1956c19.3333-33.7505-59.8133-56.4172-9.3334-54.4172
				c0.8793-0.3068,38.08,38.0343,26.8865,62.7574c32-17.7845-70.9355,56.8476-80.2655,70.1926
				c149.9925-102.7239,57.379-136.95,57.379-136.95C540.8252,2.5819,506.1604,4.5068,479.8807,6.5819z"/>
		</g>
	</g>
</g>
<rect x="0" y="0" fill="none" width="646.4617" height="388.742"/>
</svg>
