<?xml version="1.0" encoding="utf-8"?>
<!-- Generator: Adobe Illustrator 17.0.0, SVG Export Plug-In . SVG Version: 6.00 Build 0)  -->
<!DOCTYPE svg PUBLIC "-//W3C//DTD SVG 1.1//EN" "http://www.w3.org/Graphics/SVG/1.1/DTD/svg11.dtd">
<svg version="1.1" id="Layer_21" xmlns="http://www.w3.org/2000/svg" xmlns:xlink="http://www.w3.org/1999/xlink" x="0px" y="0px"
	 width="646.4617px" height="388.742px" viewBox="0 0 646.4617 388.742" enable-background="new 0 0 646.4617 388.742"
	 xml:space="preserve">
<g id="layer-21--33073bff">
	<path fill="#33073B" d="M311.9352,102.5619c34.7968-19.7589,78.078,93.2147,73.09,96.34c-0.5762-5.8138-10.7305-20.9226-6.88-23.69
		c7.4695,8.9951,11.8361,19.3017,13.1,30.92c-1.9981-3.1183-4.5881-3.7784-7.77-1.98c5.2543,6.7457,6.9901,13.7119,5.2075,20.8987
		c9.4504-8.676-48.7546-5.8243-18.1875-31.6888c-0.6577-0.1204-8.5058-36.052-8.01-41.28
		c-13.187,12.1029-33.3706-48.8746-45.28-43.22c1.6878-0.5073-43.1303,53.3956-43.72,58c2.5292,5.3013,18.307-1.6747,13.92-9.94
		c8.6432,1.7819,12.6132,5.8819,11.91,12.3c-5.7061-2.3647-2.6046-2.1574-6.68-6.41c-4.1934-4.3858-6.1238,28.3822-7.15,29.85
		c-2.1818-7.6814-0.6744-12.6056-7.27-15.45c1.2137,4.9901,1.8337,10.0701,1.86,15.24c-3.4193-0.628-1.1525-6.6881-5.81-9.15
		c0.6386,0.2025-0.1101,11.0725,0.33,9.94c-4.8107,4.3643,0.2259-9.7991-4.5487-10.7625c-4.559-0.9198-4.4361,14.463-1.4213,11.9425
		c-2.0497,3.1056-5.7366,34.7105,3.67,26.52c-0.09,0.5398-11.5909-21.4563-1.8-19.04c6.2599,0.1277-2.9731,8.4946,4.69,2.97
		c1.5107,3.6124,0.5673,5.0758-2.83,4.39c4.0766,8.7061,9.0317,1.0515,12.23-1.29c2.6357,0.8715,3.9123,2.4282,3.83,4.67
		c-4.7933-1.0332-6.51,2.4502-5.15,10.45c-6.0335-0.2513-2.8528-9.9618-6.77-10.71c-5.4771,12.7582,0.8372,8.4875-5.75,19.63
		c0.8911,7.5891-17.4474-19.2085-12.445-18.8587c-3.9065-0.2731-6.506,7.7859-7.355,10.8987
		c-5.4712-2.4728,5.1882-33.2785,2.58-33.98c-0.9862,2.8272-3.4093,8.6288-7.26,9.12c-1.7748-20.054,28.3376-43.6609,30.98-62.2
		C300.6839,129.636,293.4679,107.9832,311.9352,102.5619 M351.5352,140.2219C342.061,146.6509,371.3692,143.5127,351.5352,140.2219
		 M265.1352,163.2419c-3.7831,0.2987-9.2716,23.2168-7.65,25.71c4.3715-1.71,12.5309-27.8527,10.86-33.99
		C267.2752,157.7219,266.2052,160.4819,265.1352,163.2419 M266.4752,175.2319c-1.48,0.82-1.48,2.87,0,3.7
		C268.8352,179.2219,268.8352,174.9419,266.4752,175.2319 M255.3352,194.1119c0,1.78,0.01,5.36,0.02,7.15
		C257.3552,199.2019,260.1152,194.4219,255.3352,194.1119 M371.4552,194.2119c-9.331,6.4767,8.067,10.4343,6.93,9.68
		C378.4256,201.477,374.1053,194.6023,371.4552,194.2119 M370.6152,203.4219C361.7221,204.4365,372.8595,202.8608,370.6152,203.4219
		C367.6352,203.7619,371.0552,203.3119,370.6152,203.4219z"/>
	<path fill="#33073B" d="M311.8952,156.2719c3.1067-2.0967,6.2133-4.1933,9.32-6.29c-0.4886,2.1204-1.3878,4.0512-2.6975,5.7925
		c0.0884,0.1838,23.4873,0.3376,30.6275-1.4825c6.158,3.3966,6.868,7.6366,2.13,12.72c7.3604-0.8559-14.2747-8.908-6.11,5.92
		c-5.7186,2.6757-8.7386,9.6682-4.99,14.78c-10.8152,17.4243,15.5447,25.6076,15.15,36.27c-5.8714,2.1447-8.7848-0.262-8.74-7.22
		c0,11.7781-1.3199,25.7149-1.1,30.52c-0.2943-4.388,5.2103,6.7739,4.32-1.35c-2.5962-2.3285-20.1811,50.5813-9.77,49.07
		c-0.1689-3.8448,1.281-4.8414,4.35-2.99c1.2188-6.172-6.0141-7.5624,1.05-15.38c3.2142,4.9283,11.0687,45.5918,5.99,39.33
		c4.5831-14.5398-1.6353-9.6734-8.47-21.55c5.8764,4.1359,3.0233,24.6594-2.42,25.94c1.4179-4.9881-2.0099-22.1716-6.06-26.46
		c-0.2366,3.5498-0.1135,18.6086-5.465,19.5737c-8.3916-1.7303-10.2299-8.2482-5.515-19.5537
		c1.411,3.2813,2.6481,6.6246,3.7112,10.03c2.5136,0.7424,7.4358-23.6577,7.06-24.6613c-0.9875-2.637-10.1185,2.6819-6.9713,11.9013
		c-7.7698,1.9325-6.6634-42.4427-8.32-40.47c-7.7168,6.3409-0.1297,20.7696-16.66,6.43c-5.5748,6.4295,10.8405,17.3231-4.01,17.78
		c-1.0804-4.9343,0.2074-16.3658-0.05-22.03c-4.0902,4.1504-9.1983-7.4547-16.77-7.92c1.3382-1.8281,1.6482-3.8247,0.93-5.99
		c3.2572,1.9591,6.1105,4.4158,8.56,7.37c-2.4139-12.8315,3.2133-26.6775,3.54-41.46c-2.737,0.113,15.6641-11.3874,17.92-9.73
		c2.2464,5.6158-2.6343,28.4678,10.05,24.91c-4.6107-4.0922-5.0974-7.3122-1.46-9.66c2.0209,2.7056,3.8243,5.5522,5.41,8.54
		c1.8597-5.3804,5.5164-7.7138,10.97-7c-5.6937-9.0432-14.7816-6.679-21.19-8.51c2.8765-0.3122-2.1215-12.2635-1.58-13.12
		c4.525,1.6792,7.0283,5.0392,7.51,10.08c4.0956-16.4444-9.4797-15.7129-15.57-24.38
		C310.3779,174.4698,311.8952,161.034,311.8952,156.2719 M315.2852,164.0919c1.5356-6.0845,8.3953,1.2124,9.07,0.98
		C325.8767,166.5432,311.3166,147.3056,315.2852,164.0919 M323.5452,166.5619c-4.3553-1.1957-6.0954,0.3309-5.22,4.58
		C321.827,167.5605,333.9805,170.205,323.5452,166.5619 M328.3052,170.0519c0.5395,6.4453-4.8798,28.3103,5.97,31.04
		C333.8283,199.6468,339.3698,168.247,328.3052,170.0519 M303.4752,207.2219c-4.8825,12.1845-5.6973,21.8042-8.99,34.87
		c15.1626,2.001,30.1749,1.4069,45.76,4c3.3398-6.2868-0.2749-28.8941-1.92-32.01c-12.2929,3.9524-13.8031,40.2654-31.0475,13.2063
		C304.5669,223.0345,306.4327,208.7577,303.4752,207.2219 M311.4652,222.4119c3.6421-2.3892,2.8638,6.5358,2.92,8.47
		c3.1907-0.7363,9.1411,3.042,9.9512-3.0425c0.6455-4.848-5.9733,1.1553-1.9112-4.6475
		C318.7719,222.9319,315.1186,222.6719,311.4652,222.4119 M328.2552,248.9319C328.3554,248.9583,330.2267,245.665,328.2552,248.9319
		 M303.5252,249.2619c-5.1354,2.7224,8.6115,13.865,7.02,11.66C310.9369,261.0435,309.0069,249.1138,303.5252,249.2619
		 M334.3452,253.1519c-2.9778,1.7534-12.3408,20.9802-1.22,16.82C341.1006,257.6841,341.5072,252.0775,334.3452,253.1519
		 M330.6452,304.4219C326.2738,306.1019,327.028,313.6075,330.6452,304.4219C328.0952,305.4019,330.6452,304.4219,330.6452,304.4219
		z"/>
	<path fill="#33073B" d="M285.2952,152.2319C294.4326,157.0022,285.031,154.1627,285.2952,152.2319
		C286.6552,152.9419,285.0352,154.1319,285.2952,152.2319z"/>
	<path fill="#33073B" d="M304.8652,161.9519c1.7766-3.0167,3.5533-6.0333,5.33-9.05
		C310.4359,156.8496,310.0689,165.132,304.8652,161.9519C305.1752,158.2519,305.4052,162.2819,304.8652,161.9519z"/>
	<path fill="#33073B" d="M354.2952,166.1319c1.3017-3.0289,3.575-4.6822,6.82-4.96
		C365.0161,168.5746,358.5493,166.3059,354.2952,166.1319C356.1852,164.1119,356.4952,166.2219,354.2952,166.1319z"/>
	<path fill="#33073B" d="M349.5452,167.2119c5.7748-0.6714,9.2921,2.0218,14.62,3.34c0.0612-0.2261-4.0794,12.7896-2.37,12.76
		c-0.9775-7.6297-7.6536,2.8356-9.45,2.75C352.2696,179.1654,348.1647,171.0774,349.5452,167.2119
		C349.9752,167.1619,349.0952,168.4719,349.5452,167.2119z"/>
	<path fill="#33073B" d="M290.5252,169.2419c2.8336,0.3755,8.4154,5.2417,2.4962,7.6888
		C289.4619,178.4022,291.4746,170.5657,290.5252,169.2419z"/>
	<path fill="#33073B" d="M294.9752,183.0819c0.9666-3.3133,1.9333-6.6267,2.9-9.94c0.2787,0.7305,8.8627,19.5498,0.43,11.81
		c-2.372,12.3738,5.0731,4.3398,9.04,7.12c-1.8769,4.505-16.2238,7.0081-16.91,6.97
		C290.4887,195.2984,292.7131,185.519,294.9752,183.0819C295.6452,179.7919,293.1652,185.0319,294.9752,183.0819z"/>
	<path fill="#33073B" d="M291.6352,178.0819c3.9141,1.5199-0.9936,12.6501-2.51,14.32
		C287.7999,183.7172,288.2896,185.3515,291.6352,178.0819C293.5152,178.8119,290.8252,179.8419,291.6352,178.0819z"/>
	<path fill="#33073B" d="M303.0852,182.2519C313.875,167.737,300.8832,195.0233,303.0852,182.2519
		C303.9252,181.1219,302.4352,186.0219,303.0852,182.2519z"/>
	<path fill="#33073B" d="M344.5252,183.0219c11.4344-1.4754-1.7579,12.2523-3.25,12.05
		C341.946,190.8667,342.5263,186.8129,344.5252,183.0219C345.4552,182.9019,344.2352,183.5719,344.5252,183.0219z"/>
	<path fill="#33073B" d="M308.4352,183.4019C310.4917,183.1734,311.1486,188.159,308.4352,183.4019
		C308.8852,183.3519,308.4352,183.4019,308.4352,183.4019z"/>
	<path fill="#33073B" d="M367.1852,220.0119C367.2481,220.2752,365.6375,223.759,367.1852,220.0119
		C366.8652,218.6719,366.6152,221.3919,367.1852,220.0119z"/>
	<path fill="#33073B" d="M269.9752,235.9319c2.1367-2.3067,4.2733-4.6133,6.41-6.92c0.9782,8.185,3.2514,9.6828,3.83,16.27
		C278.1364,238.1363,272.5059,247.8409,269.9752,235.9319C272.6452,234.0719,270.4852,238.3319,269.9752,235.9319z"/>
	<path fill="#33073B" d="M361.0252,250.0819c8.1398-3.8952,8.5729,3.9256,8.99,12.88
		C364.7642,264.4819,363.6142,253.2184,361.0252,250.0819z"/>
	<path fill="#33073B" d="M280.3652,264.5119C275.6408,264.9288,287.8503,264.0063,280.3652,264.5119
		C277.9852,264.7219,281.1052,264.4619,280.3652,264.5119z"/>
	<path fill="#33073B" d="M347.3652,265.2119c3.0151-1.5578,6.842,2.901,5.25,7.07c1.4656-2.5313,2.2223-5.2613,2.27-8.19
		c4.4095,1.8111,3.6163,11.4316-1.58,11.02C349.0184,275.4398,347.1691,268.3505,347.3652,265.2119
		C347.9652,264.9019,347.3352,265.6919,347.3652,265.2119z"/>
	<path fill="#33073B" d="M308.3152,340.0219c-0.6471-17.2086-10.4969-31.3579,3.11-43.81c-0.0637-0.1461,0.2621,43.6163,5.68,42.84
		c2.7017-16.1404-8.3811-52.8634-2.83-53.09c-7.56,20.2483-9.4584-28.4201-7.08-18.7 M291.1952,310.5419 M307.1952,267.2619
		c22.0651,10.7173,1.8585,61.9861,18.6,71.9c1.0719-4.562,0.0019-14.9345,6.43-15.21c-2.8386,4.6122-3.9986,9.6189-3.48,15.02
		c8.2059,5.7949,5.4842-6.6806,7.39-10.15c3.6477,30.316,6.6076-3.4954,6.18-0.75"/>
	<path fill="#33073B" d="M363.0352,274.7519c0.9608-4.0504-3.2504-8.9303,3.31-6.11
		C365.9365,269.1793,365.844,280.6809,363.0352,274.7519C363.5452,272.6019,363.2152,275.1319,363.0352,274.7519z"/>
	<path fill="#33073B" d="M325.7352,319.9719c-2.7444-4.7328-2.0211-5.9928,2.17-3.78c-1.2547,2.5797-1.058,4.863,0.59,6.85
		C322.3594,334.1415,326.24,322.3091,325.7352,319.9719C320.5852,314.7519,326.1952,322.1019,325.7352,319.9719z"/>
	<path fill="#33073B" d="M293.5152,322.0119C294.0052,321.9419,293.6252,324.3319,293.5152,322.0119"/>
</g>
<rect x="0" y="0" fill="none" width="646.4617" height="388.742"/>
</svg>
