<?xml version="1.0" encoding="utf-8"?>
<!-- Generator: Adobe Illustrator 17.0.0, SVG Export Plug-In . SVG Version: 6.00 Build 0)  -->
<!DOCTYPE svg PUBLIC "-//W3C//DTD SVG 1.1//EN" "http://www.w3.org/Graphics/SVG/1.1/DTD/svg11.dtd">
<svg version="1.1" id="Layer_17" xmlns="http://www.w3.org/2000/svg" xmlns:xlink="http://www.w3.org/1999/xlink" x="0px" y="0px"
	 width="646.4617px" height="388.742px" viewBox="0 0 646.4617 388.742" enable-background="new 0 0 646.4617 388.742"
	 xml:space="preserve">
<g id="layer-17--33073bff">
	<path fill="#33073B" d="M351.2752,86.8419c2.365,0.4618,3.705,1.8918,4.02,4.29c-0.1606,4.2824,18.2618-6.0023,5,19.2354
		c9.5905-6.3116,25.4357,12.3467,25.3971,15.2146c-2.1158-1.7108-11.7778-39.5954-40.0471-22.15
		c-14.8078,9.2429-19.0925-9.6403-27.64-4.73c-26.3509,10.0754,4.3155,22.6439-31.42,9.36
		c-11.7139,28.8464-63.9088,38.6594-68.5,78.84c-1.5316,3.1739-21.7689,33.0523-9.86,36.19c-0.0684-0.28-5.6622-14.2719-8.36-1.8
		c-0.2266-1.0642-1.2544-10.4789-0.84-3.94c-4.561-16.7239,6.0695-25.2943,8.44-40.47c10.5105,10.1621,19.1775-53.1705,30.83-59.94
		c8.2057-1.8323,0.0241,24.3404,3.99,24.32c3.9971,6.7095,12.3269-20.5115,13.13-23.06c12.4078-25.3071,37.6118-21.3407,1.8-30.72
		c10.6516-20.0975,40.5304,15.3473,46.3,9.77 M347.5952,96.3719C336.1802,102.399,354.3447,92.9414,347.5952,96.3719
		 M286.3052,97.0119c1.6888,7.4476,6.8551,4.0787,10.02,9.12C294.2333,101.9436,290.8933,98.9036,286.3052,97.0119
		 M279.5252,112.2319C273.3684,116.5287,290.2254,113.856,279.5252,112.2319C278.5652,112.9019,280.6452,112.4019,279.5252,112.2319
		z"/>
	<path fill="#33073B" d="M374.2952,84.0919c47.0708,0,51.1503,116.3091,51.53,133.394c-6.1564-7.4526-28.6099-22.4946-34.46-30.484
		c0.8947,5.6546-1.4486,8.4112-7.03,8.27c3.6043-2.6024,2.3043-4.6857-3.9-6.25c0.0633,1.3599-1.5606,3.9289-2.13,4.07
		c-9.7397-5.0646,8.1087-6.3177,1.51-8.85c-2.3773,7.2224-9.1062-0.2555-10.68-0.67c3.6001-0.5518,25.4446-16.2093,18.02-18.39
		c7.616,22.7056,23.5219,20.182,37.4899,29.2573c-2.0811-8.1322-37.3907-71.356-31.5086-82.2936
		C395.5962,107.5718,373.3168,90.4516,374.2952,84.0919C375.7052,84.0919,374.0152,85.9119,374.2952,84.0919z"/>
	<path fill="#33073B" d="M251.3952,94.3119c2.0365-3.2603,4.7398-4.337,8.11-3.23c-5.5244,3.5746-4.743,11.7856-12.14,12
		C250.3595,100.8689,251.7028,97.9455,251.3952,94.3119C254.4252,93.8619,250.4352,95.6419,251.3952,94.3119z"/>
	<path fill="#33073B" d="M242.7252,109.8119c2.9489-5.0222,6.2056-5.8822,9.77-2.58c-4.1646,4.0499-4.4508,4.8878-5.27,6.82
		C242.4785,114.4475,238.183,118.8441,242.7252,109.8119C245.5152,109.4619,241.8552,111.5419,242.7252,109.8119z"/>
	<path fill="#33073B" d="M269.7452,157.6119c3.1992-3.8505,10.2373,2.2399,9.44,5.26
		C275.5475,162.0246,272.4008,160.2713,269.7452,157.6119C270.8752,156.2519,270.8952,159.4519,269.7452,157.6119z"/>
	<path fill="#33073B" d="M266.2252,165.8519c10.2586-9.1471,4.8561,9.7389-1.95,9.31
		C267.6983,172.4271,268.3483,169.3238,266.2252,165.8519C267.4252,164.7819,266.7952,167.1719,266.2252,165.8519z"/>
	<path fill="#33073B" d="M255.9952,162.9819C259.3654,158.7439,265.6315,176.6334,255.9952,162.9819
		C257.6652,160.8819,257.3152,164.8519,255.9952,162.9819z"/>
	<path fill="#33073B" d="M281.5252,171.0819c2.236-0.2408,5.4948,6.4717,4.3362,6.8963
		C280.8817,179.8027,281.9198,174.0192,281.5252,171.0819C282.1752,171.0119,281.6152,171.7519,281.5252,171.0819z"/>
	<path fill="#33073B" d="M385.6923,265.5997c-1.1847-4.3618-2.2902-8.4825-3.2983-11.5228
		c-6.1183-18.451-23.0254-42.0067-22.2388-57.215c-24.4223,6.1656-1.5482-13.8856-3.2596-17.7455
		c0.015-0.1073-0.0803-0.2443-0.3704-0.4144c-0.1682,0.0573-0.3082,0.1111-0.4244,0.1616
		c-31.7941,11.4863,17.6661,66.497,28.3723,88.2926C384.8725,266.6313,385.279,266.1128,385.6923,265.5997z"/>
	<path fill="#33073B" d="M282.0152,182.8719c1.4983-11.1977,2.1196,11.6182,0.15,6.25
		C277.5686,187.739,278.2596,183.9071,282.0152,182.8719C282.2052,181.4519,280.4552,183.3019,282.0152,182.8719z"/>
	<path fill="#33073B" d="M368.8552,189.2719c3.607,4.1534,5.6762-1.1134,3.37,5.6c-6.6286,0.3815-4.2633,2.6356-11.93,0.95
		C362.6213,192.9523,365.4746,190.769,368.8552,189.2719C369.5152,190.0319,366.5252,191.9319,368.8552,189.2719z"/>
	<path fill="#33073B" d="M275.5952,203.9019c-1.1783-3.8787-0.3083-7.1687,2.61-9.87
		C278.3947,198.8676,282.3661,202.5201,275.5952,203.9019C276.0552,200.5419,277.0652,203.6019,275.5952,203.9019z"/>
	<path fill="#33073B" d="M286.0952,202.0819c-0.4277-7.9119,1.5167,38.7799-6.7,33.01
		C266.1434,216.4047,281.9934,213.7039,286.0952,202.0819C285.9352,199.1219,285.9152,202.5919,286.0952,202.0819z"/>
	<path fill="#33073B" d="M293.3052,220.3019c2.862-1.2455,7.4171-7.7367,2.24,17.82c15.0337,0.4223,26.9514-2.1242,43.66,3.03
		c-1.639-7.5174-0.2123-14.2007,4.28-20.05c7.867,3.0506-2.2546,47.7902-2.22,47.97c-32.1409,19.7355-10.2096-17.6626-10.04-26.82
		c-6.194-4.293-6.1843,6.7747-7.8,9.82c-5.8358-3.4608-5.4707,0.7689-9.93-1.13c0.0114-3.5889-1.4303-6.2185-4.325-7.8887
		c-1.5797-0.3192-9.6378,5.6502-7.3913,8.6325C294.673,242.2523,283.6466,235.6924,293.3052,220.3019 M334.5152,250.1919
		c0.0946-0.1815-9.6648,25.399-0.47,16.62C334.7917,264.9384,341.6515,250.0179,334.5152,250.1919
		C333.6452,251.8619,334.9252,250.1819,334.5152,250.1919z"/>
	<path fill="#33073B" d="M273.2252,243.9919c-2.8091-3.6914-3.4291-7.7148-1.86-12.07c-0.4719,3.0095,10.5832,12.7681,10.89,11.93
		c-0.5011,0.0109-10.5195,10.5102-11.44,5.26c-1.9279,2.2331,3.6874,26.3358,3.28,30.73
		c-12.1289,9.3304-22.4336-24.2435-20.66-26.35C259.7939,253.9009,267.1545,248.5449,273.2252,243.9919 M263.5952,255.7019
		c-5.5216-4.07,3.1591,28.782,5.94,23.46C277.368,280.2019,260.3762,253.5151,263.5952,255.7019
		C261.6552,254.2719,265.4352,256.9519,263.5952,255.7019z"/>
	<path fill="#33073B" d="M299.4552,266.7219c4.319-1.7287,5.5657,0.8846,3.74,7.84
		C295.871,274.8727,299.3499,272.8223,299.4552,266.7219C300.2952,266.5219,299.4452,267.3019,299.4552,266.7219z"/>
	<path fill="#33073B" d="M283.5652,267.7819c7.695-1.9021-1.7584,11.2032-4.08,11.1
		C278.3986,274.3413,281.5925,272.2699,283.5652,267.7819C284.4552,267.5619,282.3652,270.5119,283.5652,267.7819z"/>
	<path fill="#33073B" d="M307.6352,267.7619c-0.7126-3.1556,6.9899,4.4375,4.75,4.57
		C308.6746,278.428,308.2857,269.7375,307.6352,267.7619C307.2852,266.2119,308.1752,269.4019,307.6352,267.7619z"/>
	<path fill="#33073B" d="M278.5952,278.8319c-0.0424-0.0824,6.5905,4.2988,6.87,4.38c-1.4301,2.1841-6.3061,10.1553-9.27,10
		C275.9851,290.415,278.256,282.5374,278.5952,278.8319z"/>
	<path fill="#33073B" d="M297.2852,281.0119c5.8461-0.532,8.2061,1.6613,7.08,6.58
		C300.5727,286.9046,298.2127,284.7112,297.2852,281.0119C299.7252,281.1619,296.9852,282.9519,297.2852,281.0119z"/>
	<path fill="#33073B" d="M354.3252,284.0719c5.4657,1.1013,7.934,4.7378,11.96,7.22c-2.1575-5.7919-0.1242-6.3853,6.1-1.78
		c-1.2903,16.2916-7.4837-30.6468-3.99,9.59c1.6199-0.243-14.6087,1.4178-15.28-3.16c1.0379-6.7192,2.7746-6.9425,5.21-0.67
		C356.431,291.7173,355.0977,287.984,354.3252,284.0719C355.6652,284.3419,354.5352,285.1119,354.3252,284.0719z"/>
	<path fill="#33073B" d="M325.4852,291.2319c0.4227,4.5938,0.3593,13.6998,0.89,19.82c-0.1039-3.3835,1.5428-5.0634,4.94-5.04
		c-4.2842,6.4393-12.9014,39.6855-12.99,48.57C310.2068,347.2857,321.7292,300.0501,325.4852,291.2319z"/>
</g>
<rect x="0" y="0" fill="none" width="646.4617" height="388.742"/>
</svg>
