<?xml version="1.0" encoding="utf-8"?>
<!-- Generator: Adobe Illustrator 17.0.0, SVG Export Plug-In . SVG Version: 6.00 Build 0)  -->
<!DOCTYPE svg PUBLIC "-//W3C//DTD SVG 1.1//EN" "http://www.w3.org/Graphics/SVG/1.1/DTD/svg11.dtd">
<svg version="1.1" id="Layer_6" xmlns="http://www.w3.org/2000/svg" xmlns:xlink="http://www.w3.org/1999/xlink" x="0px" y="0px"
	 width="646.4617px" height="388.742px" viewBox="0 0 646.4617 388.742" enable-background="new 0 0 646.4617 388.742"
	 xml:space="preserve">
<g id="layer-6--33073bff">
	<path fill="#33073B" d="M46.7752,43.0819c0.0296-1.881-0.1858,8.6793-1.32,5.44c2.9571,0.6336,5.8704,1.4202,8.74,2.36
		c3.8778-19.3146-1.755-0.9853,6.26-7.8c-2.1201,3.2747-1.0868,4.248,3.1,2.92c-3.7428,5.5102-25.0129,15.2972-26.95,1.35
		C39.9952,45.9286,43.3852,44.5052,46.7752,43.0819z"/>
	<path fill="#33073B" d="M64.3452,43.0819c3.5133,0.3938,13.351,6.3833,16.11,0.99c-1.9249,1.1439-3.4082,0.8139-4.45-0.99
		c2.76,0,5.52,0,8.28,0c-1.4165-1.7932,0.483,5.5906,0.23,6.04c-6.631-3.0787-9.5851,0.2556-17.1,1.31
		C71.6453,42.7346,63.961,50.6717,64.3452,43.0819z"/>
	<path fill="#33073B" d="M87.2352,43.0819c14.2561,0.7146,34.5453-3.8899,37.09,6.13c11.1923-10.4336,8.4163,5.2479,2.62-6.13
		c3.1233,0,6.2467,0,9.37,0c0-1.2644-1.7385,16.7885,0.71,10.77c-0.6367-1.435-1.5933-2.6183-2.87-3.55
		c-0.1526-0.0342,9.9436,3.0428,7.21,3.78c0.7224,6.4429-0.6476,7.0663-4.11,1.87c2.5982,1.6983,3.6248,3.6716,3.08,5.92
		c-1.1048-0.1235-14.045-2.7033-11.36-7.97c-13.0752,3.0076,14.8887,7.3812,0.22,10.57c5.9988-2.165,7.7088-1.2816,5.13,2.65
		c-2.0952,0.6878-19.6033-3.5891-20.1-9.73c3.9609,0,7.8193-3.1604,7.23-6.5c8.1031,6.5653-1.3722,0.0345,8.93,2.11
		c0.2629,3.8264-28.4933-6.7949-33.06-6.96c0.715,6.0147,3.455,7.6113,8.22,4.79c-2.2258,4.0295-12.8081,9.4493-17.43,10.53
		c-6.7983-0.4939,4.1256-7.2369,3-8.22c-5.9551,0.794-9.5252,4.8108-6.6-4.02c0.154,6.3821,3.724,6.4954,10.71,0.34
		c5.1707,2.2686-12.1967,8.8233,4.18,3.62C95.7634,45.2278,92.7187,50.4065,87.2352,43.0819 M90.2152,45.1319
		c0.85,3.13,3.93,1.08,6.16,1.69C96.8652,43.5819,92.1652,45.5819,90.2152,45.1319 M105.3752,45.0619
		c-1.2314,5.8804,17.3952,2.09,18.05,2.03C118.5789,42.9341,112.5622,42.2575,105.3752,45.0619 M110.4052,48.9819
		C114.1123,53.9068,107.0634,49.9026,110.4052,48.9819 M89.5652,56.3119c-1.43,1.6,0.72,3.93,2.42,2.63
		C92.3152,57.7719,91.0552,55.2819,89.5652,56.3119 M133.5552,56.3119c-1.06,1.4,1.14,3.6,2.54,2.54
		C137.1552,57.4519,134.9552,55.2519,133.5552,56.3119z"/>
	<path fill="#33073B" d="M150.4352,43.0819c4.6667,0,9.3333,0,14,0c3.8359,4.8687-12.5918,1.8115-10.79,7.93
		c2.074,5.3879,12.0172,4.1692,16.82,5.47C158.2732,66.9322,147.8129,53.1461,150.4352,43.0819z"/>
	<path fill="#33073B" d="M198.7052,43.0819c41.4151,8.1766,33.6969,84.7038,66.45,101.28
		c20.4895,16.9065,30.2516,5.6393,44.32,13.69c-2.0202-18.3173,15.8854-35.5453,21.06-9.24
		c6.8209,15.7478,22.1651-3.2556,30.63-5.46c1.4881,2.8433,1.7695,12.8482,1.9,12.86
		c-0.0086-0.0144,27.2328-36.4474,28.1913-38.1338c11.3963-20.0514,24.4979-79.5845,50.3087-74.9962
		c-1.698,4.2952-28.683,50.2113-25.09,52.84c-0.1791-0.0271,20.5114-18.374,23.57-18.69c2.7508-3.9717,2.4341-5.7717-0.95-5.4
		c2.8255-0.4802,4.8988,0.5998,6.22,3.24c-2.2016,2.2393-2.4192,5.8989-4.96,2.9c-2.2523,4.5864-0.4411,8.1085,2.11,8.24
		c-26.7462,20.495-36.0724,62.0477-58.43,69c-0.3405-4.4789,0.6807-6.4837,6.13-1.85c0.718,2.3079-11.5193,18.6261-7.84,17.82
		c12.1374,2.5252,14.4352-18.1177,22.04-16.18c-2.0621,16.959-9.5839,15.4784-15.79,16.04
		c-1.3239,12.0371-14.4849,6.9029-15.4,18.94c3.6614-3.6064,5.5651-7.8318,10.17-5.69c-0.8418,4.2094-8.0085,11.7276-5.92,18.91
		c-10.1193-5.8356,3.8383-6.0418-1.09-13.15c-3.5798,5.0304-7.5942,9.5068-11.78,5.82c2.7118,2.4932,2.6818,4.5266-0.09,6.1
		c-4.9354,0.1964-0.0797-7.3549-2.45,1.05c-10.0021,3.4491-1.5869-14.9029-9.74-0.8c-1.2942-2.3399-3.0341-10.133-5.86-11.08
		c-2.2139,5.6273,0.5688-0.4746,1.0488,2.8125c-0.1474-1.0096-15.317,8.5311-17.0388,9.3575
		c1.2802-4.9881-0.4778,20.8838-0.62,15.87c-24.4876-16.6962,16.0843-29.123,21.49-33.11
		c22.4642-13.4495,14.2487-15.9638,27.14-37.05c-22.2881-0.8456-40.1966,25.5924-54.39,35.76
		c0.7719-0.1746-57.4668-38.0552-59.77-30.75c7.5952,8.3549,3.8204,20.9027,7.4,28.7c2.9951,7.3128,17.5536,0.6057,25.36,2.61
		c11.4803,9.6342,26.324,25.7423,18.5,36.86c0.0046-0.0592,17.6796,1.1625,17.55,1.16c-0.0872,2.4048-2.5211,13.81-6.96,13.81
		c8.7734,9.2374,23.5056,14.0296,24.04,29.2075c0.1086,3.0857-3.5707-1.0397-2.93-1.3275c0.9664-0.2209,2.3672,20.7369,2.29,21.34
		c-3.0898-1.536-5.1965-3.9793-6.32-7.33c-0.2473,26.1907-10.6899,49.0024-22.09,10.12c-3.9204-0.9716-4.2171,0.395-0.89,4.1
		c-0.7017,0.0187,23.2578-40.7689,20.27-34.42c11.9572,1.2977-13.8425,154.4372-31.1899,108.72
		c-2.1303-8.1134-31.4534-92.3621-15.9001-103.33c-10.685-0.8663,4.4973-41.565,8.89-45.21c-22.2852,0.5027,2.661,3.074-15.88,13.13
		c-0.3062-5.023,0.851-9.2133,0.97-14.21c-6.9592,10.0006-7.3503,13.1638-1.47,16.72c1.9395,13.5715-15.6783,4.337-20.47,7.31
		c0.366-3.5303,2.9478-14.1863,8.58-15.1c-2.8179,5.3137,7.2914-3.5555,1.43,7.33c9.418,2.0994-0.4624-10.3599-0.34-9.02
		c7.5465,2.7899,13.6918-13.9699,14.16-20.1c2.3118,0.6812-14.1668-6.5193-10.64-6.19c1.6288,5.163-3.6637,6.7677-5.01,0.6
		c-21.4513-6.1368-3.3873-10.7891-4.55-16.5c-13.2565,5.5862-20.0902-32.7383-11.84-29.77c-0.217-9.4993-28.6595-48.971-25.05-52.38
		C230.5682,101.55,191.036,51.4864,198.7052,43.0819 M208.3252,62.0519c-1.05,3.33,1.51,3.39,4.09,3
		C211.8752,63.2919,209.7552,62.8619,208.3252,62.0519 M424.6252,91.4619C418.6356,98.3343,425.5962,90.9175,424.6252,91.4619
		 M403.5952,98.2219c2.0089,6.6048-7.732,22.6976-4.0625,27.0925c4.1453,4.9647,18.39-20.9927,19.6512-25.0575
		c1.7178-5.5362-11.6784,0.9474-10.9287,0.695C410.8654,96.2257,409.312,95.3157,403.5952,98.2219 M398.5652,129.0819
		c0.1619,1.4414-8.1425,13.0011-8.34,11.87C391.6426,139.851,414.6038,130.5225,398.5652,129.0819 M385.6752,138.3319
		c-1.06,0.71-3.14,0.2-3.39,1.8C382.6752,142.6419,388.0352,139.3819,385.6752,138.3319 M327.2952,151.1019
		c-3.3341,12.1918-1.3504,4.2849-13,5.92c5.8608,9.7988-3.8259-5.1151-4.4575,2.0638c0.295-3.3527,17.06,12.3632,9.8463,13.1275
		c3.9676-0.4204,10.0506-12.4576,12.2875-14.285C330.3687,159.2375,332.3705,149.5958,327.2952,151.1019 M379.4352,155.1219
		C379.5733,163.4944,378.2895,155.3569,379.4352,155.1219 M314.4552,169.1719C308.3601,177.9992,324.313,170.8585,314.4552,169.1719
		 M369.5652,187.4519C361.7184,190.3055,377.5849,184.7587,369.5652,187.4519 M281.3152,188.1119
		C281.0401,195.4311,286.0667,189.9431,281.3152,188.1119 M286.2652,188.0019c0.33,1.92,1.04,4.49,3.09,5.15
		C289.8952,190.7519,288.3352,188.9319,286.2652,188.0019 M358.3352,188.0719
		C357.8502,193.0932,371.2269,193.2029,358.3352,188.0719 M272.2052,189.2719c-0.18,2.73,4.7,5.85,5.56,2.17
		C279.8752,188.4419,274.1552,189.9419,272.2052,189.2719 M274.6552,194.2719c-0.51,0.74-2.04,2.66-0.3,2.95
		C276.9552,198.2719,277.2452,193.0119,274.6552,194.2719 M288.5152,197.2119c-0.52,1.26-1.09,2.52-1.25,3.89
		C290.2452,202.3919,292.0452,195.8419,288.5152,197.2119 M298.2452,200.0319c2.3696,15.773,2.5637,9.1082,1.92,17.89
		c5.6273-1.7704,15.7763,10.1725,1.1,9.14c-0.8983-2.7791,7.5835,13.3555,2.2937,11.98c4.1943,1.0906,25.2327-2.9626,19.9463,8.13
		c-1.7797-0.8538-19.0082-13.7392-21.86-1.79c0.4026-0.6671,1.0406,3.6095,4.66,3.8c0.501,1.5032-12.9498,26.1757-11.01,36.79
		c11.8051,0.9898,23.4261-7.2193,32.7675-7.0187c2.2164,1.9095,1.6473,3.2924-1.7075,4.1487
		c17.3286-0.8503,12.4572-14.196,14.14-24.24c8.7476,1.0194-34.5369-9.3785-31.51-4.67c0.5435,3.1703,21.3202-6.7761,24.3-7.28
		c2.4424-8.2429-21.3326-11.6407-26.04-10.84c2.929-1.0707,2.5923-2.1807-1.01-3.33c6.7115-9.2719,19.7063-1.5214,6.35-5.95
		c-1.7753-1.4468-8.4107-10.2853-7.14-12.42C314.5145,214.7376,299.532,201.5126,298.2452,200.0319 M292.3052,205.0819
		c-0.44,2.03,0.49,4.3,2.88,4.12C294.4152,207.5819,294.9652,204.3419,292.3052,205.0819 M319.3452,227.1419
		c-0.88,3.48,4.04,1.46,6.04,1.91C324.5252,227.0019,321.2452,227.7119,319.3452,227.1419 M329.2452,287.9819
		c-1.508,0-0.3774,15.6326,4.94,14.11C332.3383,296.8931,344.2246,279.7433,329.2452,287.9819 M321.1152,289.1819
		c-1.9387-4.9819-6.6124,104.3013-2.8762,99.4c1.9942-4.6359,17.8089-66.843-11.7738-94.65
		C308.1931,295.5561,322.0852,289.8819,321.1152,289.1819z"/>
	<path fill="#33073B" d="M489.1452,43.0819c2.8766,0,5.7533,0,8.63,0c-3.6599,3.0384-9.477,5.7571-12.4,9.07
		C489.2782,74.0321,490.0754,36.3388,489.1452,43.0819z"/>
	<path fill="#33073B" d="M502.2652,43.0819c17.9776-4.7255,17.6056-0.5555,14.9799,15.97
		c-13.0457,5.6429-2.4059-12.4877-10.9825-6.9437c-5.4916,3.5498,2.9867,6.2247-1.5975,7.3237c0.455-6.9502-12.97-7.4367-6.46-12.51
		C498.8746,61.8722,503.936,39.715,502.2652,43.0819 M508.5052,44.1719c-3.19,2.85,2.03,1.77,3.93,1.86
		C511.8452,44.2419,510.2352,43.6919,508.5052,44.1719 M514.5652,55.1819c-1.87,0.67-0.92,3.08,0.8,2.95
		C517.3552,57.9419,516.5552,54.0719,514.5652,55.1819z"/>
	<path fill="#33073B" d="M478.2652,53.0319c-0.3639,1.0644,20.5052,3.4995,21.45,7.85c-2.1039,4.8774-14.5572,1.5226-5.03,11.12
		c0.0185,4.9438-16.2307-2.2694-18.42-2.18c0.0113-6.0091,13.813-3.8719,15.8912-6.4713
		C492.7428,62.6173,476.4994,52.2701,478.2652,53.0319z"/>
	<path fill="#33073B" d="M98.8852,56.9119C100.2336,61.2328,98.5773,56.8498,98.8852,56.9119
		C98.0052,54.0919,95.2652,56.1819,98.8852,56.9119z"/>
	<path fill="#33073B" d="M147.2052,62.8119c5.3005-2.4464,19.3269-3.5509,25.36-2.77c-0.3432,0.2808-14.4635,7.8776-15.2787,6.3237
		c3.6281,6.9152,7.5632,0.1112,12.9187,0.8763c0.2336,2.512,0.6765,3.6759,2.23,5.72c-9.8285-1.0238-6.9576,4.4632-19.07,5.31
		c-3.6212,11.1091,17.0684,5.6569,21.31,5.45c-6.1285,6.5575-6.7192,7.8871-17.19,13.57c0.2855-1.9985,14.3915,8.3203,13.86,8.05
		c-22.5382,6.5993-15.4914-17.4284-8.84-13.6c-0.4688-2.8128-12.7982-8.2682-15.02-8.76c-5.7631-8.0443,8.4678-5.5674,6.79-10.66
		C144.5646,74.0929,149.4094,63.2127,147.2052,62.8119C148.3752,62.2719,148.1952,62.9919,147.2052,62.8119z"/>
	<path fill="#33073B" d="M510.3252,61.1719c-0.793-0.6743,28.0118,2.258,0.07,8.78
		C510.3719,67.0252,510.3485,64.0986,510.3252,61.1719C512.6652,63.1619,510.2452,64.0919,510.3252,61.1719z"/>
	<path fill="#33073B" d="M91.1952,62.1219c4.9518,0.5812,45.5815,18.8573,43.2,27C121.6196,74.1762,103.6961,75.925,91.1952,62.1219
		C93.3252,62.3719,93.1152,64.2419,91.1952,62.1219z"/>
	<path fill="#33073B" d="M138.5152,64.8219C131.3388,52.5569,153.4541,75.5099,138.5152,64.8219
		C137.4152,62.9419,139.7452,65.7019,138.5152,64.8219z"/>
	<path fill="#33073B" d="M81.0552,66.0419c4.17-7.5581,23.9494,12.508,23.2,15.88C96.067,74.5203,89.2816,74.5068,81.0552,66.0419
		C81.3752,65.4619,81.7452,66.7519,81.0552,66.0419z"/>
	<path fill="#33073B" d="M500.9252,70.6019c2.87-1.82,5.74-3.64,8.61-5.46c-3.5238,3.3458-3.4438,5.0292,0.24,5.05
		C487.7243,79.2426,496.2875,72.2421,500.9252,70.6019C503.2652,67.9519,499.2852,71.1819,500.9252,70.6019z"/>
	<path fill="#33073B" d="M88.3552,75.1019c3.4659,1.2508,15.5236,8.2542,12.1,13.35
		C96.4219,84.0019,92.3885,79.5519,88.3552,75.1019C89.6852,75.5819,92.6552,79.4019,88.3552,75.1019z"/>
	<path fill="#33073B" d="M474.2552,80.2019c4.7187-1.5074,8.4787-0.7641,11.28,2.23
		C484.7508,82.6335,470.3537,85.0372,474.2552,80.2019C476.8553,82.5819,471.9153,83.1019,474.2552,80.2019z"/>
	<path fill="#33073B" d="M107.4852,81.2719C122.1417,90.9525,101.4275,85.1268,107.4852,81.2719
		C109.1052,82.3419,105.7252,82.3919,107.4852,81.2719z"/>
	<path fill="#33073B" d="M486.7952,83.0919C494.3746,85.7761,473.9515,90.4667,486.7952,83.0919
		C487.2752,83.2619,485.2452,83.9819,486.7952,83.0919z"/>
	<path fill="#33073B" d="M194.1652,86.1919C194.2522,85.7769,203.7118,87.0471,194.1652,86.1919
		C194.5552,84.3319,194.1652,86.1919,194.1652,86.1919z"/>
	<path fill="#33073B" d="M140.4752,91.3119c1.0859-4.5322,8.3233,2.3388,9.67,5.84
		C147.4133,95.7978,140.9186,95.3454,140.4752,91.3119C140.7052,90.3519,140.8852,95.0419,140.4752,91.3119z"/>
	<path fill="#33073B" d="M461.2352,91.2919C460.7442,91.2234,466.7354,94.1307,461.2352,91.2919
		C456.6452,90.6519,461.5452,91.4519,461.2352,91.2919z"/>
	<path fill="#33073B" d="M482.1252,89.2619C500.6987,100.4747,481.2772,87.4598,482.1252,89.2619
		C484.8252,90.8919,482.3652,89.7719,482.1252,89.2619z"/>
	<path fill="#33073B" d="M127.2352,107.2419c3.2398-0.5014,9.703,1.3553,12.22,3.64c5.0723-0.2818,12.958,18.7263,17.96,26.21
		c-7.82,0.6225-4.3577,2.2848-14.13-5.01c1.2602-3.8269,2.9635-4.1369,5.11-0.93
		C146.9988,119.9107,130.7194,118.1964,127.2352,107.2419C128.0752,107.1119,128.4152,110.9519,127.2352,107.2419z"/>
	<path fill="#33073B" d="M164.4352,107.6319c12.004-2.2649-0.0891,3.1821,1.13,5.17c27.1294,6.7159,3.1539-4.0104,18.65-2.71
		c-3.6861,2.8624-6.315,17.1366-19.04,13.16c-0.563,8.2753,9.6915,7.2377,12.42,8.56c-22.2358,0.7242-10.9628-3.1547-5.2-13.58
		C168.3786,116.9331,152.9667,110.9086,164.4352,107.6319C166.0252,107.3319,162.0552,108.3119,164.4352,107.6319z"/>
	<path fill="#33073B" d="M118.2752,112.0119c-0.0899-1.6882,21.3332,10.2207,16.0812,10.8288
		C130.1311,123.3298,117.1149,118.1313,118.2752,112.0119C118.1352,109.3819,117.4352,116.4419,118.2752,112.0119z"/>
	<path fill="#33073B" d="M478.5052,119.5419c5.8737-0.8566-13.0316,12.6956-14.33,12.74
		c11.2605,6.0002,12.9781,4.2441,20.5812,6.685c3.8357,5.0145,1.9253,9.7661-5.7312,14.255
		c-4.7007-6.7023-13.4446-16.3762-20.05-23.54C464.2551,130.2527,471.8334,124.1486,478.5052,119.5419 M483.5952,140.2919
		C480.9742,148.3738,480.8173,142.5832,483.5952,140.2919C483.4753,140.6619,484.9652,139.1619,483.5952,140.2919z"/>
	<path fill="#33073B" d="M497.8152,124.5719c3.246-5.461,4.716-3.2343,4.41,6.68c-1.1087-5.4901,11.3796-4.5256,15.3299-2.02
		c-11.1299,10.0008-29.8202,6.4069-34.4799,8.63C491.2457,133.499,486.748,128.202,497.8152,124.5719
		C498.3553,123.4819,495.3152,125.3919,497.8152,124.5719z"/>
	<path fill="#33073B" d="M189.2652,126.1719c-3.8893-3.9664-2.8693-4.9897,3.06-3.07c-0.2965,1.4166-7.254,21.6299-12.24,14.0338
		c-3.778-5.7558,8.1676-6.0651,7.18-5.8638C182.4906,127.4285,183.1573,125.7285,189.2652,126.1719
		C187.5452,124.2719,187.5952,126.6319,189.2652,126.1719z"/>
	<path fill="#33073B" d="M514.4652,126.2919C521.8226,111.9538,516.9737,139.6711,514.4652,126.2919
		C515.2452,124.7719,514.7652,127.8919,514.4652,126.2919z"/>
	<path fill="#33073B" d="M192.2452,139.1319c11.4045,3.8194,5.1885-0.1633-2.05,7.98
		C194.6674,144.4609,195.3507,141.8009,192.2452,139.1319C194.3652,139.8419,192.8752,139.9719,192.2452,139.1319z"/>
	<path fill="#33073B" d="M173.6252,141.2219C175.7857,141.0948,173.4616,147.6038,173.6252,141.2219
		C174.3052,141.1819,173.5752,143.1719,173.6252,141.2219z"/>
	<path fill="#33073B" d="M456.3152,143.3019c2.18,1.4852,7.5812,0.8439,5.79,5.74
		C458.4472,149.0574,451.6778,147.4688,456.3152,143.3019C457.2252,143.9219,455.6252,143.9219,456.3152,143.3019z"/>
	<path fill="#33073B" d="M170.2152,147.1619c6.1745-1.5049,8.6857,0.4076,7.5338,5.7375
		C173.4678,154.1006,170.9566,152.1881,170.2152,147.1619C172.5852,147.7819,170.6552,149.4119,170.2152,147.1619z"/>
	<path fill="#33073B" d="M280.2552,148.9619c3.7319,0.0979,12.5773,0.603,13.02,6.16
		C288.1843,155.3447,283.8443,153.2913,280.2552,148.9619C284.0652,149.0619,282.6852,151.8419,280.2552,148.9619z"/>
	<path fill="#33073B" d="M186.6052,151.2419C182.5434,151.6794,185.556,160.6842,186.6052,151.2419
		C188.5552,151.0319,186.3652,153.4019,186.6052,151.2419z"/>
	<path fill="#33073B" d="M200.4952,151.4219C220.2153,152.7563,198.0836,156.1405,200.4952,151.4219
		C203.1552,151.6019,200.2652,151.8719,200.4952,151.4219z"/>
	<path fill="#33073B" d="M444.1352,151.1019c7.9235,7.9235,10.7503,1.8238,14.31,8.74c-3.8584-0.5593-4.2851,0.8907-1.28,4.35
		C452.7148,161.3382,440.9616,160.0637,444.1352,151.1019C445.0752,152.0419,443.9652,151.5819,444.1352,151.1019z"/>
	<path fill="#33073B" d="M196.3352,154.1719c7.2409,8.2706-2.3345,15.254-3.34,13.82
		C192.9418,168.5262,194.3271,150.6497,196.3352,154.1719C198.5152,156.6619,198.8152,158.5219,196.3352,154.1719z"/>
	<path fill="#33073B" d="M218.1752,155.2119c3.11-0.3233,6.22-0.6467,9.33-0.97c1.0034,12.226-17.8288,28.4342-18.16,40.91
		c10.2859-2.0085,17.8982-22.5589,22.23-29.73c-9.531,1.1751-0.5656-6.7662,2.7-10.44c-1.3006,4.7426-0.2473,6.1859,3.16,4.33
		c-1.108,5.6837-0.5901,15.7339-2.74,21c1.8632-3.2544,4.7132-5.361,8.55-6.32c0.3357,5.3055-12.7199,34.5316-7.21,37.16
		c2.4452-13.6226,3.7683-22.8479,17.51-19.75c-2.505,6.5133-6.4932,44.5831-7.29,45.55c3.5452,0.2954,10.9794-4.7466,13.22,0.04
		c-4.4826-1.9655-5.206,0.0045-2.17,5.91c-10.0068-3.9074-9.5731,4.1057-17.02,2.29c-0.6517-8.8924-11.6258-11.894-3.9-27.2
		c-10.4765,0.6371-1.1172,6.5876-14.11,1.26c3.0985-8.6436,5.7998,0.3988,8.09-15.28c-3.9118,0.3768-7.6834,10.6014-12.58,5.4413
		c0.6354,0.6696,10.5188-27.8513,8.86-27.0813c-9.3186,22.3774-25.1491,21.291-13.18-3.3c-10.8001-0.864-12.4144,14.9148-16.27-4.66
		c-0.6275,0.7388-1.1875,1.5255-1.68,2.36c-9.0283-5.6263,10.109-8.7982,10.63-7.4c-2.2143,4.5024-4.1477,9.1224-5.8,13.86
		C211.5239,181.2493,224.2018,162.8169,218.1752,155.2119 M233.5252,181.2419c-1,0.39-2.26,3.4-0.23,2.85
		C236.1352,185.6819,236.2852,179.5619,233.5252,181.2419 M226.3352,197.1519c-5.7388,1.348-2.6739,7.5454,3.26-2.1
		c2.8529,2.1223,3.4129,4.8023,1.68,8.04c3.1824,0.5055,2.1627-15.5871,2.07-16.04
		C229.5497,189.3816,227.213,192.7483,226.3352,197.1519 M232.5652,211.1819c-1.86,0.66-0.92,3.08,0.8,2.95
		C235.3552,213.9319,234.5552,210.0719,232.5652,211.1819z"/>
	<path fill="#33073B" d="M410.8252,166.5619c1.3675,1.3019,29.2213,24.5738,28.58,29.49
		c2.2281-1.0728,21.1407-12.2566,20.3275-12.725c-0.708-0.4078,4.138,5.7639,3.7525,7.725
		c-8.2179-13.5521-28.1225,28.0848-28.92,29.23c0.8344-6.3416-0.149-7.0349-2.95-2.08c1.0114-8.9588,5.9917-15.431,6.8-24.64
		C422.0047,192.525,410.1726,165.5033,410.8252,166.5619 M436.5252,208.2619C428.8089,211.4392,446.9732,207.379,436.5252,208.2619
		C434.6552,209.0319,437.2352,208.2019,436.5252,208.2619z"/>
	<path fill="#33073B" d="M445.8652,167.3219C448.7568,160.4345,454.1597,168.6316,445.8652,167.3219
		C446.4152,166.0119,447.3852,167.5619,445.8652,167.3219z"/>
	<path fill="#33073B" d="M442.4552,169.3719c2.28,1.8567,4.56,3.7133,6.84,5.57
		C445.3083,177.0983,442.1202,171.3821,442.4552,169.3719C446.1752,168.8519,442.3952,169.7319,442.4552,169.3719z"/>
	<path fill="#33073B" d="M472.0252,172.9019c4.6428-0.3116,9.0695,0.4517,13.28,2.29
		C485.1275,187.2609,469.9621,174.0038,472.0252,172.9019C474.9153,172.4519,471.1452,173.3719,472.0252,172.9019z"/>
	<path fill="#33073B" d="M399.0952,175.9719c2.4726-4.6788,14.5962,26.0581,18.27,32.24
		C408.848,207.3498,401.7036,180.2742,399.0952,175.9719C399.7452,174.7419,401.6052,180.1119,399.0952,175.9719z"/>
	<path fill="#33073B" d="M412.2752,177.0719c4.8115-1.2259,6.5262,7.9017,3.3,11.06
		C414.4752,184.4452,413.3752,180.7586,412.2752,177.0719C413.8452,176.6719,413.1452,180.8219,412.2752,177.0719z"/>
	<path fill="#33073B" d="M438.3452,178.0819c6.6714-0.1085,11.5757,6.2314,17.62,0.59
		C456.8801,189.7963,439.5175,186.1195,438.3452,178.0819C439.5752,178.0619,438.4152,178.5619,438.3452,178.0819z"/>
	<path fill="#33073B" d="M250.4152,186.9419C250.4603,176.3137,259.1566,198.0262,250.4152,186.9419
		C250.4252,184.5819,251.3852,188.1719,250.4152,186.9419z"/>
	<path fill="#33073B" d="M479.2052,185.2419C491.6935,186.3686,474.302,190.1833,479.2052,185.2419
		C480.5352,185.3619,477.9252,186.5319,479.2052,185.2419z"/>
	<path fill="#33073B" d="M422.1652,191.0319c1.66-1.51,2.86,4.92,0,4.41C421.5052,194.0719,422.2652,192.4819,422.1652,191.0319z"/>
	<path fill="#33073B" d="M461.3052,192.5419c4.2026,1.2234,1.8626,2.7668-7.02,4.63
		C456.0089,194.5222,458.3489,192.9789,461.3052,192.5419C461.6352,192.6619,460.3852,192.8219,461.3052,192.5419z"/>
	<path fill="#33073B" d="M401.4352,193.1519C394.8701,192.3951,402.6135,200.152,401.4352,193.1519
		C404.9052,193.5519,401.9452,196.1819,401.4352,193.1519z"/>
	<path fill="#33073B" d="M417.5352,194.9619c7.0778,13.3491,3.2415-2.8168,10.68,5.02c-3.6185,1.7042-0.7225,13.3488-4.69,13.29
		c1.2448-3.8952-0.8672-1.9448-4.27-2.2C425.5836,202.7833,417.1966,204.1428,417.5352,194.9619
		C418.3252,196.4519,417.4452,197.4019,417.5352,194.9619z"/>
	<path fill="#33073B" d="M400.5052,203.2019C407.2547,201.2242,396.1049,217.346,400.5052,203.2019
		C402.6552,202.5719,400.2252,204.1019,400.5052,203.2019z"/>
	<path fill="#33073B" d="M404.4252,203.2419C406.6494,202.3498,408.773,214.111,404.4252,203.2419
		C406.2452,202.5119,404.9652,204.5919,404.4252,203.2419z"/>
	<path fill="#33073B" d="M386.0752,207.4319c12.0981,26.5045,13.7344,3.8921,18.05,4.79c4.0914,5.2064,7.4781,10.8397,10.16,16.9
		c-3.3064,2.8376-7.9162,5.0155-10.1,0.91c-3.0221,0.7912-0.5351,10.2861-13.92,9.33c0.9658-2.7669-6.2594-15.2197,8.07-3.17
		c5.7783-18.5824-32.8848-2.8954-31.71-21.19c1.4048,4.3206,4.3748,5.7006,8.91,4.14c-1.2227-0.4997-2.2727-1.2397-3.15-2.22
		c0.6683,2.3551,15.4316,3.443,17.94,4.06C390.9078,217.5337,387.2295,210.8209,386.0752,207.4319z"/>
	<path fill="#33073B" d="M273.5752,212.6619c5.4312-1.1529,7.2646,1.3771,5.5,7.59
		C269.2557,219.5124,270.571,218.788,273.5752,212.6619C275.1652,212.2519,273.0652,213.7019,273.5752,212.6619z"/>
	<path fill="#33073B" d="M409.1252,212.9119c3.3592-2.3181,6.5525-1.1981,9.58,3.36
		C414.2183,219.0093,411.025,217.8893,409.1252,212.9119C409.6752,212.6519,410.4352,214.4419,409.1252,212.9119z"/>
	<path fill="#33073B" d="M420.4152,223.0419c13.9865-5.701,0.7876,14.462-5.4588,11.9162
		C410.4312,233.1139,420.3788,224.2415,420.4152,223.0419C422.2552,222.2919,420.3752,224.3619,420.4152,223.0419z"/>
	<path fill="#33073B" d="M249.3752,226.9819C257.5771,225.5274,244.5017,228.6798,249.3752,226.9819
		C251.4052,226.6219,249.3752,226.9819,249.3752,226.9819z"/>
	<path fill="#33073B" d="M366.3052,227.0519C373.4745,231.5536,366.5025,234.1938,366.3052,227.0519
		C367.5952,227.8619,366.3552,228.8619,366.3052,227.0519z"/>
	<path fill="#33073B" d="M291.3352,229.8419c7.3735-0.4992,3.9606,8.7346,4.66,10.2
		C289.0798,239.0472,290.8876,235.7355,291.3352,229.8419C295.1752,229.5819,291.2152,231.4219,291.3352,229.8419z"/>
	<path fill="#33073B" d="M322.5252,262.2819c3.2733-1.06,6.5466-2.12,9.82-3.18c-0.4035,6.6608-22.0341,26.6911-23.0388,11.415
		C309.1425,268.0235,327.2267,269.9861,322.5252,262.2819C325.3152,260.2119,324.9052,266.1819,322.5252,262.2819z"/>
</g>
<rect x="0" y="0" fill="none" width="646.4617" height="388.742"/>
</svg>
