<?xml version="1.0" encoding="utf-8"?>
<!-- Generator: Adobe Illustrator 17.0.0, SVG Export Plug-In . SVG Version: 6.00 Build 0)  -->
<!DOCTYPE svg PUBLIC "-//W3C//DTD SVG 1.1//EN" "http://www.w3.org/Graphics/SVG/1.1/DTD/svg11.dtd">
<svg version="1.1" id="Layer_20" xmlns="http://www.w3.org/2000/svg" xmlns:xlink="http://www.w3.org/1999/xlink" x="0px" y="0px"
	 width="646.4617px" height="388.742px" viewBox="0 0 646.4617 388.742" enable-background="new 0 0 646.4617 388.742"
	 xml:space="preserve">
<g id="layer-20--33073bff">
	<path fill="#33073B" d="M314.5652,99.1819c10.7279-1.7824,48.7091,30.9985,53.8125,40.445
		c6.3363,11.7286,12.4198,54.8212,10.0875,31.205c12.0636,3.4814,13.2375,22.7964,12.8,32.36
		c-2.2471-1.8524-6.874-18.8053-8.96-18.11c0.1352,5.9034,8.1436,37.9569,6.11,38.45c-6.2271-3.4536-5.6297-13.6657-6.06-16.47
		c-12.8716-1.8502-7.5027,6.5324-10.16,11.96c3.6445-0.1384,5.2344-52.1805-8.53-61.32c-1.3487-2.976-0.067,9.9316-0.25,9.22
		c-15.1412-6.9381,9.1746-26.3633-14.2-29.69c5.1121,2.5096,5.5421,4.4396,1.29,5.79c-6.3791-7.4354-18.0128-12.459-20.375-20.6762
		c-8.086-28.1282-30.1615-6.3073-20.915,3.8463c-1.1321-1.0154-24.7322,32.5216-32.06,20.23
		c-14.3509-2.67,24.1961,44.423,5.27,43.76c-2.2874-38.0835-27.574,3.7653-17.89,21.75c4.8622,1.2397,6.5388-0.7237,5.03-5.89
		c5.8444-0.111,5.1066,1.796,7.43,1.72c1.6552,2.4105-3.2841,6.2831,0.22,8.48c2.3048-2.2047,5.5772-7.8358,11.31-5.14
		c-2.1042,2.9703-0.5277,6.1592-0.36,5.84c-2.5296-0.1323-29.6366,6.1263-32.16-7.03c0.6584,6.0093-1.3749,7.8493-6.1,5.52
		c1.2291,1.6838-5.3046-16.3104-4.39-14.6c-0.5974-3.9216,6.0849-27.3022,12.72-25.87c-0.706,1.6808-11.0498,22.8912-5.24,23.0788
		c6.8196,0.2202,14.1216-38.0422,13.38-45.0388c-2.9907,6.0378-5.064,12.3478-6.22,18.93
		c-4.093,1.0652,13.2677-38.2761,26.0375-42.825C302.5304,123.2871,299.2719,109.5344,314.5652,99.1819 M286.4752,137.3419
		c-2.14,2.67,0.28,3.13,2.7,3.48C291.3052,138.1519,288.8852,137.6919,286.4752,137.3419 M371.5552,156.3619
		c-0.3225,0.7095-0.126,14.4391,3.125,12.07C378.2871,165.8035,373.9144,156.3165,371.5552,156.3619 M265.3552,172.0519
		c0.38,1.11-1.08,4.56,0.94,3.98C269.3852,176.1419,267.8052,171.2019,265.3552,172.0519z"/>
	<path fill="#33073B" d="M304.3452,312.0319c2.8701-7.6562-1.297-19.6803,9.81-11.84c4.3622-10.9665-6.2466-9.7163-1.64-14.96
		c-14.2456,8.0489-7.0457-19.4448-2.34-19.18c-0.3628,2.89,0.7206,5.23,3.25,7.02c0.2628-3.6589-2.9256-28.7857-12.29-24.0638
		c0.0689-0.0348,0.1756,16.8446,0.17,17.1837c0.4962-0.9025,1.0428-1.7725,1.64-2.61c0.8974,1.4903,1.4289,7.8825-1.275,9.2775
		c4.5807-2.3632-18.1547-32.0603-10.435-41.6775c-1.2785,0.6283-2.2552,1.5816-2.93,2.86c0.7201-0.3382-0.6021-6.3626-0.75-6.89
		c2.7538-2.0403,4.6071-1.4336,5.56,1.82c1.5215-7.5181,0.3855-14.8337,1.4-22.06c9.9345,1.6818-3.2486,0.1704,6.85-3.66
		c-1.6966,9.8292,2.2667,12.2292,11.89,7.2c0.0799,3.3041-0.5982,5.9583,2.04,8.6888c2.5215,2.6097,6.9305-7.6887,6.23-6.9587
		c0.831,2.246,1.511,4.536,2.04,6.87c3.1147,0.784,13.0253-10.0144-0.3-9.94c-0.0518-6.3178,2.6782-8.0278,8.19-5.13
		c-1.4591-1.4128-9.268-8.4388-10.97-6.1525c-0.1439,2.021-0.1472,4.0419-0.01,6.0625c-4.4734,4.2537-2.5134-11.1723-4.48-0.6
		c-4.4065-8.006,7.9144-12.2347,0.43-24.21c10.4536,1.4201,1.6208-7.4653,0.14-14.19c4.2043,1.1065,6.1933,7.4752,11.6,8.2
		c3.0497-5.621-0.8986-9.0305,0.15-15.06c-5.1571-0.3438-16.314,0.493-14.97-3.91 M284.3352,321.1119 M350.2852,338.0819
		c-1.5985-2.8394-1.9085-5.8194-0.93-8.94 M313.3452,154.1219c13.5816-9.4796,22.23,14.6854,38,1.03
		c-0.0035,0.5392-19.6804,55.8609-5.9,28.04c5.7114,4.2365-2.3996,16.8227-8.21,17.2c-3.1706-2.1414-4.8319-25.6843-4.83-25.33
		c-24.4016,3.5732,15.9756,38.4794,15.99,37.83c-0.611,17.5894-3.2835,25.4446-5.68,45.15c0.0352,0.0102,7.2302-10.9353,8.62-12.12
		c2.3417,7.0886-1.3534,14.8089-9.08,14.21c-3.6953,8.8688-12.0443,25.1151-12.67,24.81c-1.5819,1.6943-2.4052,3.811-2.47,6.35
		c-5.6342,0.6037-7.0982-36.7913-8.24-35.67c-5.0897,13.1698-5.0877,82.7514,9.27,83.59c-0.0226-0.0862-3.0468-11.5186,1.41-8.43
		c-0.5651,11.6658,5.7082,14.3991,18.82,8.2 M307.2452,216.1519c-12.2729,2.1074-16.4929,10.3774-12.66,24.81
		c2.3629,1.8858,40.9832,4.336,45.49,4.2c-1.7841-10.822,3.2235-24.1685-0.0287-29.395c-4.1392-6.6519-17.823,9.9953-26.8213,6.595
		c4.2901,2.7526,4.0401,4.9993-0.75,6.74C311.7907,226.142,304.3688,210.3992,307.2452,216.1519 M318.6652,246.7619
		c-5.8084,12.2003,15.5017,5.4388,17.75,0.38c-13.9592-1.3478-3.3001-0.9061-13.9,5.95
		C321.0796,246.2222,318.7829,247.0133,318.6652,246.7619 M336.5952,252.3819c-7.0892,2.9805-12.7902,21.4628-3.54,17.53
		C341.6686,255.4649,342.8486,249.6216,336.5952,252.3819 M310.4752,299.9819c-0.0999,1.0987-0.053,41.1873,6.89,39.09
		C313.9683,326.8534,322.4838,308.0095,310.4752,299.9819C310.4052,300.7519,312.3152,301.2119,310.4752,299.9819z"/>
	<path fill="#33073B" d="M286.3952,152.9519c23.3546,7.9799,5.8963,3.2765,23.96,2.6c6.7407,14.2298-20.8865,3.5916-22.79,2.51
		c0.7949,2.7326,0.0416,4.8292-2.26,6.29C279.2814,161.4065,286.8553,155.2306,286.3952,152.9519
		C290.7852,154.4519,286.6052,153.9919,286.3952,152.9519z"/>
	<path fill="#33073B" d="M297.1152,166.9719c1.307,5.5404,7.3513,28.9203,4.13,34.17c3.9974-0.3998-13.9847-4.4998-11.89-2.19
		C297.4432,187.702,291.8286,180.7903,297.1152,166.9719z"/>
	<path fill="#33073B" d="M351.3552,169.0619C355.0483,171.7514,350.8309,176.461,351.3552,169.0619
		C352.2752,169.7319,351.2652,170.3319,351.3552,169.0619z"/>
	<path fill="#33073B" d="M350.3452,175.2419c3.438-2.1947,6.1414-1.6281,8.11,1.7
		C353.8656,175.5077,349.9678,184.3994,350.3452,175.2419C353.0352,174.6219,350.3052,176.2119,350.3452,175.2419z"/>
	<path fill="#33073B" d="M305.2252,180.6419c1.8619-0.2979,10.0688,1.0265,9.94,4.14
		C317.356,186.9897,303.0955,179.2297,305.2252,180.6419C306.4752,180.4419,307.0952,181.8819,305.2252,180.6419z"/>
	<path fill="#33073B" d="M278.3252,182.3819C279.317,184.3862,280.423,186.6212,278.3252,182.3819L278.3252,182.3819z"/>
	<path fill="#33073B" d="M303.5952,182.1619c7.4045-1.1978-0.5307,8.3379-1.31,8.88
		C301.8662,187.9669,302.3029,185.0069,303.5952,182.1619C306.9952,181.6119,303.1252,183.7419,303.5952,182.1619z"/>
	<path fill="#33073B" d="M366.5152,185.1119c12.7434-0.389,4.7488,16.4133,0.84,21.1
		C373.6931,196.2213,367.4997,194.2041,366.5152,185.1119C367.8252,185.0719,366.8552,188.2519,366.5152,185.1119z"/>
	<path fill="#33073B" d="M287.4552,193.4719c-1.042-3.7682,0.2314-5.8949,3.82-6.38
		C285.098,223.9086,292.5209,186.41,287.4552,193.4719z"/>
	<path fill="#33073B" d="M308.2552,193.0619c2.549-2.716,4.6589,1.4139,5.6437,4.4938
		C309.0459,198.9134,307.1647,197.4155,308.2552,193.0619C308.8652,192.4119,308.2752,194.3919,308.2552,193.0619z"/>
	<path fill="#33073B" d="M364.3252,205.1119c1.6479,0.9467,4.2281,10.1802,1.05,10.11
		C365.2628,213.8031,364.7582,207.1044,364.3252,205.1119z"/>
	<path fill="#33073B" d="M394.3052,214.0019c3.3,1.3143,5.31,3.6876,6.03,7.12
		C398.0868,221.5083,394.284,215.5411,394.3052,214.0019C396.4152,216.3819,394.2852,215.4519,394.3052,214.0019z"/>
	<path fill="#33073B" d="M361.4352,221.2019c0.1873-0.2626,0.0081-12.5791,2.02-3.19
		C363.2678,217.6623,358.9934,228.5288,361.4352,221.2019C363.2252,218.6919,361.2752,221.6819,361.4352,221.2019z"/>
	<path fill="#33073B" d="M263.3652,218.3219c7.7896,1.5681,15.112,33.9114,14.04,33.92
		C272.7104,241.6406,261.7888,229.0931,263.3652,218.3219C264.9052,218.6319,263.1852,219.5519,263.3652,218.3219z"/>
	<path fill="#33073B" d="M257.2252,221.0419c-0.32-3.67,4.28-1.73,4.54,0.84C260.0652,223.2419,258.5352,222.4319,257.2252,221.0419
		z"/>
	<path fill="#33073B" d="M289.5952,220.4119C289.7275,220.0542,285.5085,227.7227,289.5952,220.4119
		C290.8452,217.0319,285.8052,227.1919,289.5952,220.4119z"/>
	<path fill="#33073B" d="M350.3152,228.9519C356.0981,217.7445,359.5609,232.001,350.3152,228.9519
		C351.4452,226.7619,351.2552,229.2619,350.3152,228.9519z"/>
	<path fill="#33073B" d="M358.2952,253.0219c7.0379-5.5491,14.9737,11.9657,15.07,18.13c-3.0459-4.4804-5.6859-9.2004-7.92-14.16
		c-1.9848,2.1577-0.6618,8.6306-2.02,11.49c-1.7829-0.2286-3.5362-0.6053-5.26-1.13
		C365.0889,261.9671,357.919,258.1642,358.2952,253.0219C360.3752,251.3819,358.2652,253.4319,358.2952,253.0219z"/>
	<path fill="#33073B" d="M281.1852,254.1119C287.8301,251.4024,282.0695,262.8911,281.1852,254.1119
		C282.2152,253.6919,281.3252,255.5019,281.1852,254.1119z"/>
	<path fill="#33073B" d="M306.4952,256.0919c1.64,0.8,1.81,3.34,1.85,5.03C304.8052,261.6719,305.7152,258.1519,306.4952,256.0919z"
		/>
	<path fill="#33073B" d="M280.0052,269.3619C286.0161,256.8463,283.1117,277.9044,280.0052,269.3619
		C280.7352,267.8419,280.3652,270.3519,280.0052,269.3619z"/>
	<path fill="#33073B" d="M353.5852,268.8319c1.6135,5.2255,9.6927-9.9906,2.45,8.19c-6.1724,2.689-7.004-1.8698-8.54-7.05
		C353.7433,274.1523,355.7733,273.7723,353.5852,268.8319C352.4952,265.3019,354.0152,269.9119,353.5852,268.8319z"/>
	<path fill="#33073B" d="M284.0952,277.8219"/>
	<path fill="#33073B" d="M289.6052,311.8819"/>
	<path fill="#33073B" d="M284.0952,277.8219"/>
	<path fill="#33073B" d="M297.5152,277.8219c0.2682,2.4638,6.8299,11.3062,0.56,13.54
		C297.7835,288.3871,297.7728,282.2012,297.5152,277.8219z"/>
	<path fill="#33073B" d="M339.2552,286.9119c2.9455-7.7319,13.8927,15.7691,12.88,18.94c-4.0512,2.5586-6.6145,1.9052-7.69-1.96
		c-0.0165,0.2151,0.0818,22.4677-5.02,20.08C339.3743,323.4891,345.5155,286.785,339.2552,286.9119
		C339.9752,285.0219,340.7352,286.8819,339.2552,286.9119z"/>
	<path fill="#33073B" d="M335.6952,285.9919c0.5309,0.2336,2.8185,13.9333,0.02,16.25c-1.5041-14.2871-0.3019,5.7679-5.33,4.87
		C329.3451,297.0359,329.4554,291.4264,335.6952,285.9919C336.1952,286.2119,335.3852,286.2619,335.6952,285.9919z"/>
	<path fill="#33073B" d="M349.3052,293.8919c2.88-0.71,2.97,5.03,0.08,4.28C349.2852,296.7419,349.2652,295.3219,349.3052,293.8919z
		"/>
	<path fill="#33073B" d="M324.4652,296.3119c-0.1302-0.9231,4.6399,18.8961,1.03,17.66
		C325.1519,308.0852,324.8086,302.1986,324.4652,296.3119z"/>
	<path fill="#33073B" d="M357.4152,301.3619c-2.78-0.42-3.15-2.32-1.1-5.73C357.6352,297.2519,357.2152,299.4219,357.4152,301.3619z
		"/>
	<path fill="#33073B" d="M357.5452,302.2919c4.6615,1.661,2.5522,4.7989,4.9,9.87
		C361.893,313.1963,348.556,305.3765,357.5452,302.2919C358.4152,302.6019,356.5252,302.6419,357.5452,302.2919z"/>
	<path fill="#33073B" d="M287.5352,312.6819C287.8915,319.973,284.5257,316.88,287.5352,312.6819
		C287.5352,312.6819,286.3452,314.3419,287.5352,312.6819z"/>
	<path fill="#33073B" d="M352.9152,315.8419c-0.61-5.16,5.83,0.15,1.23,1.06C353.8352,316.6419,353.2152,316.1019,352.9152,315.8419
		z"/>
	<path fill="#33073B" d="M357.4152,319.9519c2.375-2.817,5.3716-4.4637,8.99-4.94
		C362.5178,328.5634,357.4392,318.8612,357.4152,319.9519C360.6752,318.8119,357.4552,318.1319,357.4152,319.9519z"/>
	<path fill="#33073B" d="M326.5252,315.2819C340.9763,316.9623,312.6423,324.1543,326.5252,315.2819
		C328.6752,315.5319,323.8652,316.9819,326.5252,315.2819z"/>
	<path fill="#33073B" d="M329.4752,319.3819c1.59,0.04,1.79,3.43,2.8,4.81C329.5152,324.2219,326.4452,321.5219,329.4752,319.3819z"
		/>
	<path fill="#33073B" d="M346.4452,322.1519C365.4098,310.7901,346.8202,327.8339,346.4452,322.1519
		C348.6652,320.8219,346.5752,324.1219,346.4452,322.1519z"/>
	<path fill="#33073B" d="M332.3852,329.5519C344.7151,341.1732,328.0417,336.7916,332.3852,329.5519
		C334.1252,331.1919,332.1152,330.0019,332.3852,329.5519z"/>
</g>
<rect x="0" y="0" fill="none" width="646.4617" height="388.742"/>
</svg>
