<?xml version="1.0" encoding="utf-8"?>
<!-- Generator: Adobe Illustrator 17.0.0, SVG Export Plug-In . SVG Version: 6.00 Build 0)  -->
<!DOCTYPE svg PUBLIC "-//W3C//DTD SVG 1.1//EN" "http://www.w3.org/Graphics/SVG/1.1/DTD/svg11.dtd">
<svg version="1.1" id="Layer_4" xmlns="http://www.w3.org/2000/svg" xmlns:xlink="http://www.w3.org/1999/xlink" x="0px" y="0px"
	 width="646.4617px" height="388.742px" viewBox="0 0 646.4617 388.742" enable-background="new 0 0 646.4617 388.742"
	 xml:space="preserve">
<g id="layer-4--33073bff">
	<path fill="#33073B" d="M36.4352,43.0819c2.5667,3.9981,12.1355,18.6942,13.11,21.75
		C45.9393,64.6411,35.6047,45.7713,36.4352,43.0819z"/>
	<path fill="#33073B" d="M595.4452,52.2919c5.2462,2.1206,0.2719,3.9312-4.3,8.67c12.2925-2.0776-6.0601,1.6381,4.33,4.52
		c-21.8773,17.3508-21.1479,11.3145-26.95,43.83c28.6362-10.6983-13.0464,3.6558,11.66-1.32
		c-1.3122,0.2643,18.484-33.9715,18.4399-33.12c6.4701,8.7908-5.6077,7.8055-2.12,16.06c0.975-2.2578,2.6284-3.1111,4.96-2.56
		c-0.5297,0.7555-26.1752,48.6615-27.2512,41.5762c-1.0189-6.7086,12.6927-15.947,2.6375-18.4912
		c20.0883,5.0828-89.6724,81.6745-92.8862,62.815c-26.7104,10.3198-98.1064,32.1918-116.64,18.93
		c4.2183,7.2623,3.1751,6.5932,2.9,12.37c4.8528-2.1422,16.7347-4.3457,19.32-0.74c13.0764,0.1046,34.2439-19.952,52.79-13.77
		c-1.3406,3.8252-4.024,5.9819-8.05,6.47c-0.0281,2.332,12.465,0.2342,6.98,5.53c-16.7224-0.3889-5.6407,14.6508-17.03,0.11
		c-13.305,6.2565,0.7513,14.4084-9.71,3.63c-4.0212,15.3188-15.4367,30.013-32.25,20.77c1.2625-2.483,2.9613-7.1514,4.13-11.25
		c-10.6539,5.3783-21.7902-9.9393-24.4,15c-5.2379-0.7291,5.6019-31.393,6.21-29.25c-1.6383,1.2615-2.3417,2.9582-2.11,5.09
		c-2.6961-0.4357-9.3869-8.5579-14-11c2.8145,6.4215,3.0186,4.7294,7.43,7.02c-5.787,14.8391-26.2978-16.273-25.19,19.75
		c-3.8674,17.0625,18.8956,24.4939,6.94,41.08c9.3724,0.1876-0.7631,30.3278,1.05,28.08c-3.1868,4.454,6.4747,23.1358-15.87,26.84
		c0.3591-14.8891-9.6178-19.3757,5.16-30.7c-9.552-1.3965-19.8935,2.532-29.49,2.89c-12.333,0.1815-3.8984,10.2448-11.01,13.31
		c-4.2845-16.1645,1.6362-26.0663-0.68-42.28c-5.8814,4.9131,9.4529-30.6039,10.96-22.67c-4.0894,1.6425-0.4637-7.9325,0.94-8.41
		c0.5617-13.32,11.1703-10.7822,14.1-17.83c-21.3618-3.1855,8.6926-11.7332-0.92-16.29c-1.9635,8.9561-9.5864,1.7063-17.195,1.195
		c9.9249,0.667-10.9221,41.7826-12.045,47.015c-4.4339-1.8208,4.2361-25.7915,4.2225-25.7025
		c0.2086-1.3683-7.0266-7.1761-4.3825-14.3875c-2.4409,0.1826-3.7509,1.5293-3.93,4.04c-4.9655-1.8221,3.8529-11.3862,3.85-10.3337
		c0.0017-0.6165-13.8531,6.1027-18.01,3.4037c7.5824,0.4455,9.5758-2.5011,5.98-8.84c-7.2188-4.981-69.4144-6.9395-69.68-6.72
		c-3.0231-0.3757-28.1175-9.5928-45.07-11.54c3.0796,1.866,2.7496,2.5626-0.99,2.09c2.0715,0.4654,3.1381,1.7554,3.2,3.87
		c-2.0264-2.5191-2.8198-2.4558-2.38,0.19c-7.7688,1.8539-26.7415-14.7962-32.83-15.25c11.7515,18.8253-30.748-9.8107,0.24-0.93
		c-14.9484-12.8345-73.9944-26.2451-66.18-59.98c3.3968,3.3713,19.2936,27.1223,24.13,27.8
		c-3.3707-11.3906-14.1921-51.8034-26.31-51.58c5.3113,14.9288-2.8562,21.8124,0.13,37.96
		c-11.3072-9.1123-16.7014-24.6822-19.67-37.31c8.0667,0.0906,13.6179,24.373,18.83,24.15c-1.153-16.8828-10.12-28.0433-7.15-41.05
		c7.5382,2.4361,28.3464,18.4088,24.32,28.83c1.8111-0.0824,2.0611-1.0357,0.75-2.86c3.5924,2.1484,9.598,12.68,12.95,12.21
		c-5.1275-4.5769,27.7594,12.9937,34.18,16.44c-3.9024,0.5945-4.159,2.0312-0.77,4.31c-2.6903,0.1337-4.4937-1.5396-5.41-5.02
		c-0.0068,5.2582,2.6599,8.0048,8,8.24c-1.6718-1.7137-2.2752-3.7437-1.81-6.09c7.6762,3.6123,16.5461,12.8774,24.8,19.17
		c-0.9484-10.0257,7.154,2.3096,3.91,5.6c9.8651,0.8969,21.1736,14.2875,33.12,19.2c-2.8693,3.1263,35.9604,7.4361,45.86,10.16
		c3.0903,1.5776,66.8884-3.2029,67.28-11.82c-6.1616-0.9231-13.4983,0.0912-18.04-4.09c8.9471-4.0555,41.4748-2.1008,45.49,6.06
		c-7.0737-17.7704,41.3692-12.5928,45.76-9.33c-2.2546,1.3241-30.1044,5.4366-23.5612,8.4975
		c8.5289,3.9899,51.2052,0.4915,51.2513,12.5525c17.5563-4.958,35.6873-9.1688,51.8362-11.1325
		c14.2607-1.7341,44.3405-31.6258,52.1438-28.7275c-5.7774-5.297-3.4574-8.727,6.96-10.29c-2.2379,5.2375,0.8945,1.5813,4.76,5.32
		c2.9073-5.0841,1.9539-7.8508-2.86-8.3c3.9699-3.3959,22.2877-8.7968,22.2-8.62c-5.171-1.7393-0.3409-2.2067-5.36-2.58
		c2.1819-1.6253,31.8151-18.3952,31.6201-21.76c11.6767-3.39,13.5484-36.6212,30.33-29.06
		C591.8119,58.7319,593.6285,55.5119,595.4452,52.2919 M573.5452,71.2419C565.209,79.8868,587.1901,67.5291,573.5452,71.2419
		 M60.5852,78.2519c-4.31,1.33,0.42,2.91,2.46,1.58C63.4052,78.6319,61.5752,77.7019,60.5852,78.2519 M556.5652,93.1819
		c-1.87,0.67-0.92,3.08,0.8,2.95C559.3552,95.9419,558.5552,92.0719,556.5652,93.1819 M588.5352,101.3319
		c-1.19,1.9-2.17,5.03,0.73,5.86C588.9252,105.6019,590.3152,101.0019,588.5352,101.3319 M565.2052,107.2019
		c-6.5345,6.5652-13.5187,6.1383-8.93,13.77c-6.5803,6.8654-53.2664,20.8586-57,37.14
		C511.0293,151.8296,579.5001,126.575,565.2052,107.2019 M81.3152,115.9919c6.1518-0.6968,8.3751,1.0498,6.67,5.24
		c-1.2627-1.5133-2.7327-1.8433-4.41-0.99c0.8233,6.2779,22.9762,30.9708,34.82,27.91c-12.1984-7.5458-5.3994-22.5327-24.11-28.14
		c0.3712,0.7363,0.3512,1.4797-0.06,2.23C93.925,121.4301,79.0022,105.7936,81.3152,115.9919 M524.2152,116.2319
		c-0.12,2.86,5.37,4.16,6.22,0.99C528.3252,117.0919,526.1852,117.0419,524.2152,116.2319 M521.5152,119.4619
		C518.6284,128.882,534.0346,116.5218,521.5152,119.4619 M128.2952,129.0419C128.8284,138.1657,140.7324,129.4604,128.2952,129.0419
		 M120.2952,145.0919c0.9,1.86-0.98,6.74,1.96,5.95C121.9052,149.0019,123.8552,144.1319,120.2952,145.0919 M124.4852,145.2819
		c-4.9705,4.3969,7.4743,9.3011,9.81,8.86c-0.944,0.6224-1.904,1.2191-2.88,1.79c4.0724-1.0423,7.6691-0.3923,10.79,1.95
		C144.9382,152.1578,127.2788,146.1013,124.4852,145.2819 M146.7852,156.4119c2.3175,6.0798,6.5241,10.3231,12.62,12.73
		C152.4127,147.4787,146.0446,156.6396,146.7852,156.4119 M492.3452,154.8919c-3.1913-0.7108-16.7012,11.576-18.65,14.49
		c0.7982-1.2421,15.2439-0.2011,13.45,0.55c-0.8613-7.1001,5.6011-7.8698,10.28-7.95
		C497.3971,161.8479,493.9439,149.703,492.3452,154.8919 M302.6352,162.4619C290.4752,168.6525,313.5728,156.6125,302.6352,162.4619
		 M170.4052,166.0819c0.2215,0.3441-7.3097-0.5132-5.85,4.92c3.803,0.8731,28.9491,11.929,30.71,3.28
		C184.6383,172.0209,185.6975,169.1282,170.4052,166.0819 M341.6552,167.4419c-20.1163,23.3124-64.6396-10.9287-77.29,9.58
		c-14.1239-2.1585,26.3981,12.5864,16.71,14.99c5.8741,1.7542,11.2059-6.5482,20.81-3.47
		c2.7955,6.7582,24.2555,3.3875,23.6862,3.4175c5.6962-0.3002,28.3072,0.9882,32.6038,0.1025
		c5.6046-21.0733,8.5971-11.4168,31.87-11.28c-1.0382-5.3833-19.9381,0.7247-21.87-8.59c-3.5325,0.324-3.8025,1.6373-0.81,3.94
		C358.7119,174.1262,352.0489,166.0618,341.6552,167.4419 M468.6552,167.3219c-4.4051,5.6757-3.1851,7.5957,3.66,5.76
		C474.0876,168.7702,472.8676,166.8502,468.6552,167.3219 M455.5552,170.3319
		C453.5213,172.2467,457.4671,185.2027,455.5552,170.3319 M266.2952,171.0219c-0.61,1.88,1.91,4.28,3.33,2.4
		C271.5752,171.5819,267.4252,171.5119,266.2952,171.0219 M388.4552,171.0619c0.369,6.4575-7.9896-2.0645-10.2444,1.5033
		c-0.921,1.4574,14.6692,5.7426,14.9544,3.5242C394.1266,172.3303,392.5567,170.6545,388.4552,171.0619 M196.1752,176.8219
		c-3.6528,0.6088,3.0098,6.7128,5.95,2.13C201.6416,173.3105,199.6582,172.6005,196.1752,176.8219 M318.5952,174.4119
		C310.4471,175.7361,334.0249,173.0867,318.5952,174.4119 M446.4752,175.3919C445.9094,176.665,457.6747,181.2079,446.4752,175.3919
		 M366.2852,187.0819c-1.6559-0.0256,3.3232,2.2795,6.05,3.1C373.3403,179.8248,362.9137,180.9115,366.2852,187.0819
		 M263.4052,185.0219c0.1858,0.2687-6.0118,4.5049,3.98,5.05C265.1152,180.9921,277.1584,191.5859,263.4052,185.0219
		 M384.4552,185.4219c-6.1571,5.2578,16.9893,1.4675,22.01,1.57C402.9005,182.511,389.4361,186.7418,384.4552,185.4219
		 M373.5752,185.9619c0.36,2.78-0.66,6.48,3.55,6.05C379.7752,188.8219,376.8352,186.4419,373.5752,185.9619 M430.4252,197.1019
		C437.7658,205.6103,425.0172,197.2147,430.4252,197.1019 M291.2252,202.0519c1.7233,5.5836,3.587,11.3565,2.25,16.14
		C300.0422,217.6365,295.754,201.8632,291.2252,202.0519 M317.3052,203.1019C323.9082,210.8414,322.7336,202.8494,317.3052,203.1019
		 M320.1752,213.3719c-3.6729,1.6315,7.8678,2.6736,6.0937-0.8537C325.2608,210.5137,316.3571,206.2748,320.1752,213.3719
		 M392.6752,209.2619c0.0309,1.6566,1.5081,7.2016,3.56,7.93C396.1398,216.5468,396.8378,206.5708,392.6752,209.2619
		 M390.5652,210.4119c-6.8334,1.0738-0.9677,9.7196-0.53,5.4937C390.2621,213.7146,391.6242,209.788,390.5652,210.4119
		 M316.6552,217.4319c-11.408,1.5946,28.1808,7.4903,9.81,3.43C324.0996,217.2634,320.8297,216.12,316.6552,217.4319
		 M390.6052,218.4019C386.5489,218.9039,392.8351,217.1544,390.6052,218.4019 M312.4452,224.1319
		c12.9991,8.2652-0.8892-8.2279-1.29-5.06C306.9749,222.315,307.4049,224.0017,312.4452,224.1319 M307.5852,230.4119
		c-2.85,1.18-3.44,6.18,0.71,4.65C308.0152,233.8719,309.1552,229.5019,307.5852,230.4119 M331.0552,232.8319
		c-4.8673,0.4735-5.1473,2.6768-0.84,6.61C334.9185,239.9669,334.7509,226.5414,331.0552,232.8319 M315.2552,234.0319
		c0.3563,1.3318,8.4677,6.0136,9.89,9.31c-15.0237-9.3895-14.49-4.7935-20.58,3.79c2.4981,0.4917,16.3173-3.23,11.8,10.95
		c0.2067,0.0524,19.7295-17.1512,19.88-16.76C326.135,239.124,324.1505,233.7802,315.2552,234.0319 M308.5752,247.0419
		c0.0754,1.6507-18.7459,23.1484-11.14,38.78c5.9454-1.7255,27.9221-6.7942,32.99-5.77c-6.5116,18.2817,23.2984-34.3146,6.97-32.96
		c-6.9353,3.8769-1.4085,2.5644-11.9,7.22c0.1303,5.1969,11.4233-1.3408,2.5,10.65c-4.0765-0.9689-6.2753-4.789-15.49-2.95
		C309.996,258.4752,314.7816,249.349,308.5752,247.0419 M332.5252,292.1219c-3.2488,3.6169-3.5888,7.9102-1.02,12.88
		C338.2629,305.1625,336.2072,290.9603,332.5252,292.1219C332.3052,293.5819,334.2052,291.5919,332.5252,292.1219z"/>
	<path fill="#33073B" d="M615.5252,56.0419c0.2593,5.6448-0.078,16.6182,0.58,23.06c-1.2534-1.3947-2.7867-2.3347-4.6-2.82
		C607.7012,83.5477,614.7675,59.3612,615.5252,56.0419z"/>
	<path fill="#33073B" d="M26.1552,76.1119c-0.8376-3.0345-0.8743-6.0679-0.11-9.1c-0.0695,2.0141,4.1551,10.1488,4.67,13.43
		C26.3381,82.1426,24.8181,80.6993,26.1552,76.1119C28.9752,73.0519,23.1852,82.4419,26.1552,76.1119z"/>
	<path fill="#33073B" d="M72.3452,76.9619c13.186,1.568-4.9026,11.1145-2.1,3.15C74.6648,81.5398,73.8392,82.5341,72.3452,76.9619
		C74.1952,77.1819,72.7152,78.3419,72.3452,76.9619z"/>
	<path fill="#33073B" d="M574.2852,90.3519c4.033-2.8176,6.0197-6.7276,5.96-11.73
		C592.0358,97.2285,578.268,90.1403,574.2852,90.3519z"/>
	<path fill="#33073B" d="M76.0652,85.0419c3.683-6.4803,7.4709,0.5642,9.23,5.01C82.9236,91.264,76.5147,87.9633,76.0652,85.0419
		C76.8552,83.6519,76.3252,86.7319,76.0652,85.0419z"/>
	<path fill="#33073B" d="M322.5652,132.8719c18.1316-0.7595-0.4948,17.6239,5.55,21.32c0.2703-2.2829,4.4907-4.0377,5.52-3
		c-1.7166,9.6459-23.4466,4.2934-25.56,2.91C314.1763,144.5959,308.4315,133.5331,322.5652,132.8719
		C324.4752,132.7919,320.8552,132.9519,322.5652,132.8719z"/>
	<path fill="#33073B" d="M273.7652,160.9919C278.9279,153.6556,280.1105,167.8595,273.7652,160.9919
		C274.1452,160.4519,276.1952,163.6219,273.7652,160.9919z"/>
	<path fill="#33073B" d="M376.9352,166.7519c1.73,0.07,3.14,1.94,5.48,0.64C383.9452,171.9419,376.4952,170.0319,376.9352,166.7519z
		"/>
	<path fill="#33073B" d="M194.2252,189.1519c20.081,12.3196,55.6615,10.0922,73.19,6.08c-0.8875,17.2571-9.8542,14.5197-22.02,12.13
		c-4.2937,10.1593,8.2078,25.8123,11.62,13.49c0.0212,2.1668,0.2578,4.3101,0.71,6.43c4.7108-1.3057,8.7501-19.0302,10.7-22.28
		c16.22,4.9545-13.0383,25.2258-8.48,22.59c-6.6207,0.0524-1.5205,7.8449,2.31,8.65c-0.2527-0.8326-7.0931,4.4479-7.35,5.27
		c-1.0426-0.7701-14.5333-24.2542-15.45-24.5c-3.7484,7.0802-22.8026-10.7002-27.49-12.64c1.957-1.1216,2.6303-2.9016,2.02-5.34
		C205.5326,198.0196,193.1112,199.2267,194.2252,189.1519 M238.5352,203.3619c-0.61,1.09-0.82,3.49,0.8,3.79
		C241.4052,206.8419,240.4252,202.8519,238.5352,203.3619 M233.4352,208.1219C230.9103,227.3437,237.187,206.948,233.4352,208.1219
		C233.1252,210.4819,236.6952,207.1019,233.4352,208.1219z"/>
	<path fill="#33073B" d="M373.4552,219.0619C379.8357,218.612,371.9417,231.0027,373.4552,219.0619
		C375.0152,218.9519,373.2752,220.4819,373.4552,219.0619z"/>
	<path fill="#33073B" d="M389.7252,229.9019c2.9727,5.476-3.2911,12.8804-9.57,11.28
		C384.3334,237.3872,386.5964,234.6128,389.7252,229.9019C390.2952,230.9519,388.8352,231.2419,389.7252,229.9019z"/>
	<path fill="#33073B" d="M282.1052,245.8819c1.5-2.2,3.93,0.81,2.57,2.57C283.0952,249.4819,282.8052,246.7219,282.1052,245.8819z"
		/>
	<path fill="#33073B" d="M303.4152,293.5119c14.9745-2.8522,16.8826,15.4163,8.66,26.46
		C299.6059,320.3088,292.1227,297.1507,303.4152,293.5119 M306.7252,295.8319c-1.2814,7.3767-2.0559,5.7653,0.83,12.29
		C313.2452,305.7405,306.8223,296.7714,306.7252,295.8319C306.3552,297.9619,306.4452,293.1219,306.7252,295.8319z"/>
</g>
<rect x="0" y="0" fill="none" width="646.4617" height="388.742"/>
<rect x="0" y="0" fill="none" width="646.4617" height="388.742"/>
</svg>
