<?xml version="1.0" encoding="utf-8"?>
<!-- Generator: Adobe Illustrator 17.0.0, SVG Export Plug-In . SVG Version: 6.00 Build 0)  -->
<!DOCTYPE svg PUBLIC "-//W3C//DTD SVG 1.1//EN" "http://www.w3.org/Graphics/SVG/1.1/DTD/svg11.dtd">
<svg version="1.1" id="Layer_5" xmlns="http://www.w3.org/2000/svg" xmlns:xlink="http://www.w3.org/1999/xlink" x="0px" y="0px"
	 width="646.4617px" height="388.742px" viewBox="0 0 646.4617 388.742" enable-background="new 0 0 646.4617 388.742"
	 xml:space="preserve">
<g id="layer-5--33073bff">
	<path fill="#33073B" d="M116.1252,43.0819c11.0199-3.7581,2.9011,2.181,3.27,4.01c13.9358,0.3709,28.6385,4.7979,30.14,28.11
		c-4.0319-2.6442-6.2498-9.7523-8.38-14.05c2.2612,0.3257-5.8194,8.4671-5.74,8.85c1.6888-2.4949-7.1343-24.4263-11.09-23.87
		c2.4259,4.6582,0.8559,6.6182-4.71,5.88c1.6053-5.0358,0.3787-5.5724-3.68-1.61
		C115.3213,47.5879,120.9274,44.6481,116.1252,43.0819z"/>
	<path fill="#33073B" d="M134.0652,43.0819c3.2256,0.2298,6.9904-0.1361,9.61,0.79
		C138.982,47.0378,135.7787,46.7744,134.0652,43.0819z"/>
	<path fill="#33073B" d="M143.1952,43.0819c16.8688,6.7397,57.8028,57.297,68.25,83.06c-12.394-0.4426-37.6431-36.8671-45.29-48.96
		c3.9755,0.3202,4.9879-1.9408-1.93-0.38c0.7008-2.8531,3.3572-13.1256-4.7-10C157.399,62.8318,150.3582,50.3742,143.1952,43.0819z"
		/>
	<path fill="#33073B" d="M480.2952,43.0819c4.7233,0,9.4467,0,14.17,0c0.0674,2.4988-5.5903,11.4356-7.8688,7.295
		c9.1635,16.653-39.469,48.1-39.2712,64.645c-7.3708,1.8174,2.1672-16.823-8.01,8.13c11.5113,2.4932,14.7375-20.2086,23.52-16.04
		c-5.85,16.4987-66.483,47.8258-62.32,63.73c30.3985,2.7267,47.2074-61.4347,72.71-64.4c15.8616,9.2788-67.8497,69.9083-31.08,72.6
		c-3.1354,4.515-3.5417,1.94-8.0388,1.94c-1.6464,0,0.8484,10.3743-17.7613,0c-0.753,10.5609,7.8176,29.776-5.91,17.82
		c2.2006,20.7211,2.9952,13.5617-11.03,12.1c-0.9706,3.0694,3.2608,6.4395-1.65,8.63c0.2542,0.2173-5.3898-14.7666-5.38-15.28
		c20.8637-19.4786-7.2606,3.7561,14.74,5.92c-1.0923-9.8577-7.6224-14.4525-0.9-24.11c-3.66,2.2709-5.0167,1.2576-4.07-3.04
		c-1.9286,1.3703-3.4653,3.0936-4.61,5.17c-2.3569-3.1707-1.732-18.9986-3.51-23.95c-5.9291-0.5165-7.5015,25.4003-19.92,11.87
		c3.0685-3.1675,9.0585,1.3916,11.31-3.9c-4.1008-2.1147-10.6017-1.8315-14.2137-0.4837
		c15.1159-5.6403-12.0194,42.8191-16.74,22.9325c1.3534,5.7012,3.4828,4.7777,8.0138,4.5213c-1.8332,2.3998-6.4224,5.9651-8.91,8.06
		c-0.1607-4.0363,0.4345-11.1028,0.75-10.19c-3.8651-0.2546-36.0503,3.0148-26.42,11.04c2.3653-6.5356,1.9012-0.5295,7.24,1.29
		c-4.0202,3.1065-3.4466,3.0253-8.99,5.35c5.6128-0.7527,8.4757,1.4965,8.5887,6.7475c-0.6012,2.9825-14.1108,1.0458-17.3888,2.6725
		c-0.365,1.2981,16.9078,4.5832,15.91,4.47c-1.0376,5.0018-2.2453,3.9405-6.06,7.39c6.5606-1.4149,13.8383,15.0523,19.24,12.16
		c-0.1017,0.5244-0.3519,21.8907-5.34,12.96c1.5618,10.678,5.7387,16.2276,4.05,29.23
		c-0.5575-4.1387-25.1245,58.5103-26.4695,62.0839c5.8235,18.5474,16.7238-41.0693,4.8095-37.3139
		c-0.6863,2.863,1.9827-29.6125,2.87-27.04c-8.1396-3.8618-13.2871-3.2622-15.4425,1.7988
		c31.785,17.2054,3.4416,84.1181-0.2807,66.6913c12.8198-4.7701-42.2495-136.1941,3.7932-130.79
		c-1.8781-2.4614-4.3348-3.2214-7.37-2.28c5.2517-12.3693,16.602-4.545,18.2625-9.4587c1.032-3.0541-15.8038-2.8901-17.0725-1.9512
		c1.2395-6.8663,0.956,0.8695,6.32-8.95c-4.828-1.8508-12.4883-5.9793-19.19-7.24c4.4227,6.3632,5.426,13.2199,3.01,20.57
		c-5.2896-2.5056-1.7236-11.0632-6.85-16.42c-0.8483,14.7508,4.288,13.1535-7.42,24.39c4.5749,1.5659-0.1857-21.9645,0.1-24.44
		c-1.1407,5.8446-3.1136,7.5575-5.9188,5.1388c1.0957-4.4255,3.0753-8.4918,5.9388-12.1988c-4.4643-1.4097-14.9604,6.4848-17.9-5.97
		c4.1899,0.1619,10.1014-2.3568,1.17-7.96c-1.8985,3.9498-1.1836,5.9475-4.34,10.99c-16.4307-5.691,0.2481-17.3471,0.33-19.89
		c-8.9325,4.4662-14.065-6.3853-15.41-6.75c-5.8342-2.7141-27.4093-12.0092-35.76-24.18c4.0248-0.419,7.3282,0.961,9.91,4.14
		c2.7428-5.1574-10.3139-13.6885-12.05-15.2c8.4492-3.6809,37.236,23.1928,41.12,22.98c0.967-0.0384,29.9032,7.6702,33.4,10.77
		c0.3507,8.3812-16.3543,1.2577-18.57,1.35c7.4767-3.152,8.3623,12.7484,8.36,12.7c6.9546,15.1907,9.1929,3.0966,23.8562,10.2263
		c13.9535,6.7845,55.6846-5.9333,59.8538,1.9337c-3.2826-22.9019,24.904-15.7266,24.17-27.05
		c-12.982,1.1874-34.2115,1.3209-45.19,8.03c-3.8702,1.6713-14.066,15.1563-15.4713,15.255
		c-1.9466,0.1368-33.8894-29.9496-35.5387-21.635c5.7539,0.606,10.8218,0.427,16.3,1.34c-4.4955-7.0569-16.1428-7.5053-22.25-8.89
		c1.5487-0.9427,6.8593,0.7135,6.15-2c-0.9077-0.9995-1.9776-1.0695-3.21-0.21c8.5446-10.6059,34.9724,7.2614,38.46,15.75
		c8.2055-2.532,9.0395-13.1279,23.69-11.5c1.0582-3.588-3.7656-5.5508,5.99-8.08c0.13-0.3532-9.0653,12.1407-4.3775,13.585
		c12.2423,3.7718,47.5946-17.2227,52.5375-15.575c-8.2247-0.2339-15.4469,0.9552-20.03-5.13
		c23.0378,3.9015,125.0672-65.3454,101.69-91.7c-1.1033,0.8679-2.0933,1.8512-2.97,2.95
		C478.1622,49.6934,478.8755,46.3101,480.2952,43.0819 M482.3052,44.1019c-1.25,3.87,2.55,3.05,5.13,2.96
		C486.3052,45.4219,483.9852,45.0719,482.3052,44.1019 M432.5152,127.5519c1.4467-0.6381-11.1828,8.0749-10.22,10.54
		C427.781,138.5802,443.0072,126.7202,432.5152,127.5519 M224.4252,142.3919c-2.96,2.3,4.26,2.54,4.62,0.99
		C227.5252,142.9619,225.9052,142.7219,224.4252,142.3919 M226.3352,145.1019c-1.02,2.93,2.26,1.85,3.98,1.96
		C231.3252,144.1319,228.0552,145.2119,226.3352,145.1019 M303.5252,162.3719c-0.95,2.01,2.42,2.27,3.67,2.34
		C307.8152,163.0019,304.8252,161.6319,303.5252,162.3719 M421.3652,173.1519c2.7991,6.8539-2.0325,5.8839,7.97,9.94
		c-1.7479-4.4717-5.2758-8.4524,0-7.98C428.6492,173.9716,421.655,166.8341,421.3652,173.1519 M318.5052,175.1819
		c-2.94,2.1,1.91,3.12,3.64,2.8C325.0752,175.8819,320.2352,174.8619,318.5052,175.1819 M274.3852,178.9619
		c-0.13,2.7-0.14,5.42-0.04,8.13C278.6752,187.8519,277.8952,179.7819,274.3852,178.9619 M411.1752,188.9319
		c1.1041,3.0427,2.7675,5.806,4.99,8.29C408.2038,184.7447,416.9609,186.8427,411.1752,188.9319 M286.6052,191.2519
		c-1.02,1.06-0.75,4.55,1.3,3.7C287.6852,193.6919,289.2752,190.3119,286.6052,191.2519 M286.3752,199.0419
		c0.55,2.45-2.56,9.35,1.73,7.92C288.9052,204.3719,291.0252,198.8019,286.3752,199.0419 M315.5352,199.3619
		c-0.62,1.09-0.82,3.49,0.8,3.79C318.4052,202.8419,317.4252,198.8519,315.5352,199.3619 M319.5252,203.2419
		C309.1418,208.3841,333.4794,201.0269,319.5252,203.2419 M308.4252,232.0719
		C309.3088,237.0337,312.8124,234.8992,308.4252,232.0719 M318.4452,234.1519c-2.82,2.41,2.16,2.9,3.95,2.97
		C321.9852,235.3319,319.8852,234.8619,318.4452,234.1519 M307.2452,240.8819c-2.3258,2.594-16.6559,41.4453-10.71,43.99
		c6.6897-1.5234,35.9762-1.3574,30.66-4.64c6.6678,27.8204,10.074-25.3334,8.27-18.93c16.6122-19.544-9.7535-5.0533-17.35-8.2
		c-1.8542,2.8301,26.5626-17.3429,7.18-15c1.9206,0.7672-2.15,5.5866-3.95,6.96c-2.0314-2.13-1.3448-2.7933,2.06-1.99
		C322.4363,240.5022,306.8285,236.9361,307.2452,240.8819 M332.6052,288.2119c0.0415,3.3495-0.624,11.082,0.54,15.1
		C333.3636,301.3904,339.5287,286.705,332.6052,288.2119 M305.4652,293.0519c-2.0771,5.2322-1.3971,9.9022,2.04,14.01
		C311.1498,305.4958,309.6971,292.6913,305.4652,293.0519C305.2352,295.9719,307.6952,292.8619,305.4652,293.0519z"/>
	<path fill="#33073B" d="M506.1752,43.0819c3.7833,0,7.5667,0,11.35,0c-8.2688,6.145-5.3353,9.7091-14.31,14.31
		C500.4797,52.0118,509.4027,54.301,506.1752,43.0819z"/>
	<path fill="#33073B" d="M522.5452,43.0819c0.2745,2.8737,4.2889,6.1028-1.31,14.19
		C520.9966,56.8102,517.7618,45.817,522.5452,43.0819z"/>
	<path fill="#33073B" d="M116.9752,56.2119c12.9696-0.2551,1.9987-0.0588,11.44,7.93
		C119.8648,63.5369,119.1085,65.0818,116.9752,56.2119 M121.4952,55.2119c-2.75,1.99,1.16,2.53,2.8,2.94
		C124.8852,55.7319,124.0852,54.2819,121.4952,55.2119z"/>
	<path fill="#33073B" d="M497.8452,62.9819c-1.5762-9.2714-7.7381,31.4814-27.69,33.12
		C471.4132,87.4844,493.8772,62.3511,497.8452,62.9819C497.3352,59.9819,495.8952,62.6719,497.8452,62.9819z"/>
	<path fill="#33073B" d="M157.3752,79.1219c4.6759,2.9042,6.9726,7.0708,6.89,12.5c-1.5428-3.6666-3.1557-4.4029-4.8387-2.2088
		C157.9881,86.1789,157.3044,82.7485,157.3752,79.1219C160.6752,82.3119,155.9752,81.8019,157.3752,79.1219z"/>
	<path fill="#33073B" d="M166.3252,96.0519c3.2776-1.7496,38.9188,28.7676,39.4,29.13c-13.1426,2.0079,2.2252,0.8824-2.49,4.29
		C191.4897,122.6232,173.8678,107.2362,166.3252,96.0519z"/>
	<path fill="#33073B" d="M463.6052,103.3119c3.406-8.4335,6.2827-9.7968,8.63-4.09
		C470.8605,100.8536,461.9365,111.6552,463.6052,103.3119C463.7152,99.3919,463.5052,103.8119,463.6052,103.3119z"/>
	<path fill="#33073B" d="M164.8152,110.0319C169.023,115.1329,152.6294,117.6045,164.8152,110.0319
		C166.9352,112.6019,163.4152,110.9019,164.8152,110.0319z"/>
	<path fill="#33073B" d="M181.3952,123.0719c2.4312-0.0894,82.0177,66.2435,80.53,74.74c-3.4612-0.5342-5.9478,0.8691-7.46,4.21
		c-7.1751-14.4273-8.257-10.4711-15.66-22.93c-1.757,5.2405-3.2645,32.4237-1.63,31.89c4.2718-6.0809,0.0474-16.3833,9.08-15.94
		c-3.5902,10.4346,1.2608,17.812-3.7,28.99c11.1983,6.0569-2.6903-15.853,4.73,7.15c-0.1634-0.2013-5.702-5.9252-5.46-0.95
		c-1.7294-4.9808-2.2894-10.0808-1.68-15.3c-10.0606,4.6841-8.8427,6.2867-6.19-18.99c-0.7955,0.0869-9.5073,13.5132-13.38,5.19
		c3.4048-9.0047,0.9085-2.5092,3.67-16.24c-0.6243,0.6243-17.3412,12.8141-17.38,11.4c-2.9688-9.2776-7.8617-16.97-8.55-25
		c5.4501-6.3899,2.9747,7.0351,4.78,6.92c-2.1266-8.2513,10.0306-1.6808,11.32-9.99c-0.0182,0.0655-12.2591-10.5152-12.07-17.18
		c-5.1444-1.3538-1.7748,17.5346-6.83,17.01c-1.5191-6.7977,1.5591-7.2316,0.87-13.06c-12.9521-1.2305-8.3368,0.4904-18.2-7.77
		C191.6983,146.3342,181.0583,133.0101,181.3952,123.0719 M188.4852,144.4519c-5.3537,0.9718,1.4746,6.226-6.18,6.76
		c-1.7859,10.276,13.398-3.104,12.72-2.43C194.6012,149.4509,188.5553,144.4833,188.4852,144.4519 M215.4252,169.2219
		c-0.7988,4.0471-7.0051,7.3414-6.13,10.94c1.4967-2.3877,3.6201-3.7711,6.37-4.15c-1.5645,4.9578-3.5087,9.5389-4.07,14.12
		c-3.8532-1.4231,11.108-2.401,4.67-0.07c5.9489-10.5169,0.8609-8.3583,7.05-11.14
		C222.9676,177.4183,217.8346,167.834,215.4252,169.2219 M230.5552,179.3719c-2.7518,5.4105-3.5862,13.9685-5.22,19.75
		C232.2711,200.6739,232.2934,178.9508,230.5552,179.3719 M233.5752,211.0419c-0.17,1.96-1.11,3.59-2.28,5.11
		C233.9652,216.4719,237.2052,212.2719,233.5752,211.0419z"/>
	<path fill="#33073B" d="M171.2952,135.2619c-4.7246-5.3808,7.7218-5.1221,7.24-4.95c-10.2775,25.5194-4.2313-0.4773-3.5,2.96
		C173.5352,132.2419,170.7052,133.0519,171.2952,135.2619C168.4152,131.9819,170.7052,133.0519,171.2952,135.2619z"/>
	<path fill="#33073B" d="M315.1152,133.9219c11.0218-2.1925,16.1602-3.6546,18.31,8.12c-8.2802-1.9738-3.6776,3.6295-2.26,9.3
		c3.3035,1.7761-22.2449,7.7036-20.84,4.14c-1.9204-1.3985-2.6671-3.2285-2.24-5.49
		C313.3592,152.3359,308.5876,140.1257,315.1152,133.9219C318.8352,133.1819,313.9052,135.0719,315.1152,133.9219z"/>
	<path fill="#33073B" d="M208.9152,134.6619C206.2339,136.0801,211.3619,134.519,208.9152,134.6619
		C211.3352,133.3819,206.1752,134.8219,208.9152,134.6619z"/>
	<path fill="#33073B" d="M377.7652,138.9119c1.6-0.89,3.37-1.05,4.99-0.06C382.9352,142.6619,379.5352,139.5719,377.7652,138.9119z"
		/>
	<path fill="#33073B" d="M457.4952,143.2319C459.6565,150.935,456.8727,143.5856,457.4952,143.2319
		C457.4952,143.2319,455.8052,144.1919,457.4952,143.2319z"/>
	<path fill="#33073B" d="M355.9652,146.2519c4.5591-3.7388,9.0691-3.4821,13.53,0.77
		C364.9852,146.7652,360.4752,146.5086,355.9652,146.2519C357.7952,144.9419,360.4152,147.0819,355.9652,146.2519z"/>
	<path fill="#33073B" d="M329.4752,154.8019C328.2117,150.5623,343.8224,159.2854,329.4752,154.8019
		C328.7152,152.2519,331.0752,155.3019,329.4752,154.8019z"/>
	<path fill="#33073B" d="M438.5352,163.3619c1.89-0.51,2.87,3.48,0.8,3.79C437.7052,166.8519,437.9152,164.4519,438.5352,163.3619z"
		/>
	<path fill="#33073B" d="M441.3952,167.2019C440.2616,172.9787,439.3442,168.7077,441.3952,167.2019
		C441.3952,167.2019,440.6052,167.7819,441.3952,167.2019z"/>
	<path fill="#33073B" d="M387.3952,183.7319c8.3536-2.7845,3.9651,14.8162,1.1,16.51c-2.9301-15.5696-3.6163-3.508-4.21,2.9
		c0.5445-0.0345-8.2847-9.3973-6.66-9.08C377.5388,194.1793,392.8915,190.0365,387.3952,183.7319
		C389.0452,183.1819,387.7352,184.1219,387.3952,183.7319z"/>
	<path fill="#33073B" d="M442.3752,183.2219C445.142,182.2664,449.0386,189.2223,442.3752,183.2219
		C444.3152,182.5519,442.3752,183.2219,442.3752,183.2219z"/>
	<path fill="#33073B" d="M376.5952,188.0219C382.7241,186.5361,377.8364,196.9751,376.5952,188.0219
		C378.9052,187.4619,376.7352,189.0319,376.5952,188.0219z"/>
	<path fill="#33073B" d="M363.3452,194.9819c-0.05,1.9878,10.7665,14.4424-4.21,18.61
		C356.2652,208.4345,365.2266,201.9791,363.3452,194.9819z"/>
	<path fill="#33073B" d="M275.5852,197.4319C279.8406,195.8218,272.2775,207.3552,275.5852,197.4319
		C276.3252,197.1519,275.2152,198.5419,275.5852,197.4319z"/>
	<path fill="#33073B" d="M371.7852,208.4619c-3.2353-14.8507,11.7162,13.4772-0.7,14
		C369.1208,217.7927,369.3541,213.126,371.7852,208.4619C371.1752,205.6619,373.0052,211.8419,371.7852,208.4619z"/>
	<path fill="#33073B" d="M283.5052,211.1619c6.5708-2.7961-1.0078,7.3282-0.5688,6.6275
		C278.4024,218.8453,278.592,216.6362,283.5052,211.1619C285.8552,210.1619,281.8152,213.1219,283.5052,211.1619z"/>
	<path fill="#33073B" d="M292.4752,218.0719C299.0538,221.6647,291.0532,226.9269,292.4752,218.0719
		C293.7752,218.7819,292.2552,219.4419,292.4752,218.0719z"/>
	<path fill="#33073B" d="M300.5252,219.2419c2.82-1.3,1.58,2.31,1.77,3.89C299.9152,223.7619,298.0752,220.4519,300.5252,219.2419z"
		/>
	<path fill="#33073B" d="M285.4452,224.9319c7.4024,5.0625-3.674,21.5165-5.26,19.96
		C282.7828,239.9365,286.5322,230.6661,285.4452,224.9319C287.1852,226.1219,285.8452,227.0419,285.4452,224.9319z"/>
	<path fill="#33073B" d="M375.9452,232.0519c2.3-1.94,5.44-1.05,5.58,2.14C379.4552,234.0719,377.6452,233.1419,375.9452,232.0519z"
		/>
	<path fill="#33073B" d="M251.5952,233.8519c0.7646,0.1708,7.2337,8.6878,7.6675,6.655
		C257.4931,248.8,247.0888,240.0921,251.5952,233.8519C255.2652,234.6719,251.3352,234.2119,251.5952,233.8519z"/>
	<path fill="#33073B" d="M273.5752,237.4719c18.0219,1.4227-13.3824,17.176-5.39,2.47c-4.5213,2.6486-2.3557,5.0877-7.82,5.685
		C252.8115,246.4525,274.8352,235.7946,273.5752,237.4719C274.3352,237.5319,272.0352,239.5219,273.5752,237.4719z"/>
	<path fill="#33073B" d="M307.3952,249.1919C309.2901,249.5159,313.6183,246.3885,307.3952,249.1919
		C310.4952,249.7219,304.2652,250.6019,307.3952,249.1919z"/>
	<path fill="#33073B" d="M314.2552,252.9019C311.2159,254.1864,311.442,250.0666,314.2552,252.9019
		C310.8952,254.3219,314.2552,252.9019,314.2552,252.9019z"/>
	<path fill="#33073B" d="M327.4452,256.3619c13.3084,5.3745-4.316,8.4437-3.125,13.19
		C323.7903,267.4399,326.3462,258.7695,327.4452,256.3619C330.0452,257.4119,327.0252,257.2819,327.4452,256.3619z"/>
</g>
<rect x="0" y="0" fill="none" width="646.4617" height="388.742"/>
</svg>
