<?xml version="1.0" encoding="utf-8"?>
<!-- Generator: Adobe Illustrator 17.0.0, SVG Export Plug-In . SVG Version: 6.00 Build 0)  -->
<!DOCTYPE svg PUBLIC "-//W3C//DTD SVG 1.1//EN" "http://www.w3.org/Graphics/SVG/1.1/DTD/svg11.dtd">
<svg version="1.1" id="Layer_9" xmlns="http://www.w3.org/2000/svg" xmlns:xlink="http://www.w3.org/1999/xlink" x="0px" y="0px"
	 width="646.4617px" height="388.742px" viewBox="0 0 646.4617 388.742" enable-background="new 0 0 646.4617 388.742"
	 xml:space="preserve">
<g id="layer-9--33073bff">
	<path fill="#33073B" d="M37.0052,43.0819c7.2045,3.5894,8.3916-3.4213,8.27,6.12c4.4981-1.5721,5.1281-3.6121,1.89-6.12
		c5.6423,1.8283,9.9226-1.1255,15.53,2.04c-3.7264,1.7917-7.5398,3.3717-11.44,4.74c8.9827,2.1612,17.2153,4.6156,25.31,8.98
		c-8.6531,0.647-31.689-12.222-32.18-2.77C34.7358,53.6825,40.8877,46.5248,37.0052,43.0819z"/>
	<path fill="#33073B" d="M66.1252,43.0819c22.5567,9.815,50.4303-1.1855,76.2,0c-6.3673,3.3291-9.5954,3.4246-13.76,8.24
		c-0.5175-5.9941-18.1655-1.808-23.54,0.49c-3.5426,1.8853,55.2654-5.9285,56.19-1.94c-3.577,1.6925-47.669,14.7626-47.98,17.68
		c4.8906,0.0858,14.9289,3.404,19.44,1.88c-0.0911,1.235-0.2244,2.465-0.4,3.69c-13.6151,0.0773,5.1883,3.605-8.05,1.02
		c6.0105,12.383-0.7905-0.6389-4.04,7.77c9.3046,0.7078,21.2963-2.6926,30.15-6.74c0.1679,5.581-24.7094,10.2733-22.2048,16.8822
		c-0.0706-0.1862,18.5853,0.8432,21.0148,1.8878c-0.5077,4.5292-4.351,6.3659-11.53,5.51c-0.29,0.6124,12.1805,0.0108,12.81,5.15
		c-1.1666-0.155-11.2999,4.3641-10.93,5.3c8.3237,4.8715,14.2104-0.6393,22.53,2.27c-0.9293,13.0119-53.0738-8.5798-29.73-16.5
		c-8.8353-15.2452-7.7263,3.7478-4.95-10.46c-6.677-4.1813-15.5683-3.7047-22.18-5.46c6.5707-6.8082,6.136-1.7802,11.91-5.92
		c2.3073-8.6525-18.9512,1.4769-7.24-11.8313C114.1998,57.0409,64.2703,47.2422,66.1252,43.0819 M114.5452,59.2019
		C110.2435,64.6372,130.3813,58.768,114.5452,59.2019C113.0652,61.0719,116.0052,59.1619,114.5452,59.2019z"/>
	<path fill="#33073B" d="M250.2452,43.0819c19.3985-1.1724,27.5234,30.2153,29.2,48.1c0.3784-1.1805,1.0284-2.1772,1.95-2.99
		c-2.8851-0.3136,21.7751,26.5428,5.21,29.83c3.2472,9.4884-11.5048-25.506-11.35-10.1c7.7363,0.9919-6.552,1.7094,3.38,12.94
		c-0.4822-0.2304,9.0715-1.2236,11.86-0.73c-4.4,6.5712,4.1823,15.8578,11.54,15.93c1.3752-7.503,42.4178-46.2897,49.22-45
		c-14.4935,13.5784-1.3645,19.6389,0.27,29.73c-3.9988-1.9718-27.5416,4.5883-29.28,10.26
		c14.6252-1.2418,5.5421,18.7989,16.29,10.16c-0.5341,2.7149-8.7578,11.6747-10.08,11.66c0.509-5.5722-0.9919-5.7037-0.13-17.85
		c-7.3243-0.3318-12.969,9.1467-17.15,12.02c-3.4001-1.1705-3.8401-3.8072-1.32-7.91c-4.1053,13.1078,9.7999,4.3359,6.7678,13.4748
		c-4.6681,14.0695-55.3848-46.0096-51.2378-73.4648c-1.2541,1.5951-11.358,8.4126-14.24,7.89
		c3.4649-10.2914,22.0235-31.89-0.55-33.65C250.3491,47.8748,250.8476,48.4369,250.2452,43.0819 M278.6752,122.2519
		c-0.1,1.31,0.78,2.86,1.92,3.63C282.7252,125.2519,280.6652,121.1019,278.6752,122.2519 M310.5252,123.3119
		c-1.4067,2.6067-2.8134,5.2133-4.22,7.82C312.0569,132.1183,310.8159,122.4571,310.5252,123.3119z"/>
	<path fill="#33073B" d="M357.8052,43.0819c3.7938-5.6015-2.9574,9.3629-5.42,9.16
		C355.0731,47.2796,352.392,46.6663,357.8052,43.0819z"/>
	<path fill="#33073B" d="M374.5052,43.0819c4.8934,2.3227-4.0823,77.1646-18.3,84.04c-1.5247-2.0412,9.9658-20.5485,5.92-27.12
		c-5.3151,3.0705-0.9994,8.21-7.46,8.21C350.1817,79.2008,372.1969,61.2627,374.5052,43.0819z"/>
	<path fill="#33073B" d="M441.0552,43.0819c24.1295,6.5025,52.9752,16.4424,78.3,13.76c-8.1435-9.0202-28.2855-8.1369-37.17-13.76
		c19.5761,0.0775,36.5966,1.106,56.31,1.22c-9.8836,4.9855-8.1637,3.2378-18.88,6.98c1.551,7.9756,9.6424-8.5908,11.08,8.1
		c-10.8217,5.6723-18.8864,6.2828-29.58,2.84c1.1362,10.4789,22.6583-4.6206,20.49,9.05c1.743,0.2198,8.7867-7.8509,11.81-4.27
		c-28.6653,28.6645-70.2726-22.7306-78.98-2.91c-0.3636-5.9094-6.8258-8.2586-7.21-0.96c-0.7267-3.9636-3.09-6.6103-7.09-7.94
		c12.3184,1.2634,14.0409-2.9855,22.9-1.37c1.3063-5.8057-14.5451-5.0863-15.57-4.69
		C446.0971,43.2348,444.8726,46.5723,441.0552,43.0819 M470.2052,52.2219c-9.5981-0.0408,6.9117,11.3672,9.8512,3.6038
		C481.1879,52.8376,465.2173,56.6753,470.2052,52.2219 M476.2253,59.0919c1.61,3.11,4.81,4.53,8.12,5.05
		C483.1352,60.4119,479.7552,59.5319,476.2253,59.0919 M492.4952,61.2719c-1.972,3.3807-11.3688-0.1038-6,4.7
		C502.5674,69.3116,489.8643,62.5948,492.4952,61.2719 M496.4052,69.3719c-1.9067-1.3051,16.7309,7.8927,14.75,2.9
		C500.5771,67.8255,502.7071,68.5926,496.4052,69.3719C498.4652,70.7819,498.2652,69.1419,496.4052,69.3719z"/>
	<path fill="#33073B" d="M465.3352,43.0819C475.2314,44.1953,471.6363,43.7908,465.3352,43.0819L465.3352,43.0819z"/>
	<path fill="#33073B" d="M34.1152,49.0919c-0.31-1.58-1.75-3.98,0.11-5.08C36.1052,45.6919,36.5452,47.6919,34.1152,49.0919z"/>
	<path fill="#33073B" d="M434.4252,46.3419c1.0736-4.1753,9.3666,0.3118,5.0225,1.2225
		C435.9344,48.3009,430.0432,53.5491,434.4252,46.3419C435.3252,42.8419,433.6652,47.5919,434.4252,46.3419z"/>
	<path fill="#33073B" d="M538.1652,46.9019C541.8298,43.0944,545.2962,47.5007,538.1652,46.9019
		C538.9352,46.1019,539.4752,47.0119,538.1652,46.9019z"/>
	<path fill="#33073B" d="M33.3652,51.0419C44.1465,48.074,31.8267,58.3495,33.3652,51.0419
		C35.1452,50.5519,33.2452,51.6119,33.3652,51.0419z"/>
	<path fill="#33073B" d="M182.4452,54.2419C187.0995,48.0085,191.0964,52.0143,182.4452,54.2419
		C184.1252,51.9919,182.4452,54.2419,182.4452,54.2419z"/>
	<path fill="#33073B" d="M350.4252,51.8419c1.8366,4.5056,1.5333,8.9989-0.91,13.48
		C349.8185,60.8286,350.1219,56.3352,350.4252,51.8419C352.3852,52.9319,349.3752,56.2519,350.4252,51.8419z"/>
	<path fill="#33073B" d="M428.5152,52.2519c1.4-0.8,3.39,1.03,2.65,2.46C429.8352,54.7819,425.8552,53.8719,428.5152,52.2519z"/>
	<path fill="#33073B" d="M223.5152,53.1819C225.0454,52.5968,234.5634,57.8421,223.5152,53.1819
		C224.8752,52.6619,223.5152,53.1819,223.5152,53.1819z"/>
	<path fill="#33073B" d="M418.2352,54.0319c2.6362-0.6643,7.0569,3.9428,9.06,5.18
		C427.4034,62.8406,418.5542,54.9825,418.2352,54.0319C422.0052,53.0819,418.7352,55.5219,418.2352,54.0319z"/>
	<path fill="#33073B" d="M154.5852,60.2119c7.223,1.3133-14.7118,13.4966-16.27,6.99
		C139.9657,66.7643,154.5439,60.7026,154.5852,60.2119C156.0152,60.4719,154.4052,62.3519,154.5852,60.2119z"/>
	<path fill="#33073B" d="M430.1952,65.9519C430.4139,69.4518,439.2443,60.2135,430.1952,65.9519
		C430.0552,63.7119,431.8352,64.9119,430.1952,65.9519z"/>
	<path fill="#33073B" d="M87.4952,70.3319c-2.4212-10.5653,22.3768,3.8854,17.1,1.56
		C92.3985,77.1297,86.6985,76.6097,87.4952,70.3319z"/>
	<path fill="#33073B" d="M446.4852,68.7319c-0.9351-3.139,46.881,24.221,48.89,24.4c1.7063-3.5522-5.6796-4.4151-7.28-5.17
		c-0.0938,1.1608,19.69-2.9113,21.27-2.93c-0.7477,8.6037,9.4887,2.7283,10.19,9.02c-7.0971,1.2434-14.1604,2.6568-21.19,4.24
		c6.5699,5.4264,10.5305,5.9072,18.72,3.71c4.1422,5.3957-3.0175,3.0746,5.34,10.02c-10.5814-0.6211-21.1605-1.2774-31.7375-1.9688
		c9.5233,7.2338-4.7616-1.5709,2.8575,3.9788c-9.7494,2.9053-12.347,2.6614-20.52-5.07c5.289-1.4973,15.9358-1.6833,18.23-7.74
		c-0.0485,0.0265-5.5756-2.1407-15.03-4.95c0.0154-3.3571-1.177-13.1558-3.81-14.33c-4.0521,1.0331-4.6921,3.2964-1.92,6.79
		c-3.8621-0.7266-18.9586-0.9371-4.09-1.69c0.8617,1.6876-17.9108-9.9954-16.95-13.92c1.2281,0.5778,2.5314,0.9178,3.91,1.02
		C452.2944,70.8261,450.0011,69.0227,446.4852,68.7319 M462.2452,80.0319c1.42,1.69,3.04,3.27,5.14,4.1
		C467.0552,81.8119,464.7652,79.6019,462.2452,80.0319 M478.2852,92.0419c3.7925,0.2917,6.3032,3.3991,10.12,3.11
		C488.8503,96.0623,476.8701,84.0375,478.2852,92.0419C479.5852,92.1419,477.6452,88.4219,478.2852,92.0419z"/>
	<path fill="#33073B" d="M395.3652,67.9519c4.4304,3.0742,7.5197,3.2728,7.97,9.23
		C399.832,74.1671,395.5443,72.4279,395.3652,67.9519C395.8552,68.2919,395.3952,68.7019,395.3652,67.9519z"/>
	<path fill="#33073B" d="M76.0052,70.8619c3.2226-2.9839,9.4519-1.3469,11.42,0.34C83.6186,71.0886,79.8119,70.9752,76.0052,70.8619
		C79.2452,67.8619,78.8652,70.9419,76.0052,70.8619z"/>
	<path fill="#33073B" d="M161.3752,69.2719c-3.3582,0.6666,0.3507,7.8996-9.14,5.87
		C155.2819,73.1852,158.3286,71.2286,161.3752,69.2719C164.0452,68.7419,157.9552,70.4719,161.3752,69.2719z"/>
	<path fill="#33073B" d="M202.4552,68.8819C209.2719,75.1761,202.6894,71.8547,202.4552,68.8819
		C202.4552,68.8819,202.5852,70.5319,202.4552,68.8819z"/>
	<path fill="#33073B" d="M182.5652,70.3919c2.29-0.27,3.77,5.42,0.18,3.52C182.9852,72.7319,182.2152,71.5819,182.5652,70.3919z"/>
	<path fill="#33073B" d="M196.4952,71.3519C203.3698,61.7151,194.3588,82.6456,196.4952,71.3519
		C197.6152,69.7819,196.4252,71.7219,196.4952,71.3519z"/>
	<path fill="#33073B" d="M242.5252,72.1919c1.29-0.3,2.67-0.19,3.86,0.44C245.9552,74.8819,241.1052,74.8819,242.5252,72.1919z"/>
	<path fill="#33073B" d="M536.3352,76.1619c6.4737,0.2609,12.8403-0.4457,19.1-2.12c3.7142,4.905-17.7798,17.7809-20.82,18.36
		c-0.5579-5.897,4.4358-8.7813,9.01-11.59C545.887,78.7161,535.9343,77.8629,536.3352,76.1619
		C543.0652,78.7319,535.5952,79.3019,536.3352,76.1619z"/>
	<path fill="#33073B" d="M234.7852,77.5619c9.4419-2.6775,2.2599-1.167,3.84,8.57
		C232.4008,81.7382,233.4766,82.7093,234.7852,77.5619C236.7952,76.9919,234.3352,79.3319,234.7852,77.5619z"/>
	<path fill="#33073B" d="M434.2552,76.0419c0.1643,0.0353,19.0798,11.9264,16.8825,9.4025
		c4.2122,4.8384-14.6808,3.668-18.0925-2.0425C433.9762,84.3974,434.3163,74.2077,434.2552,76.0419
		C436.5852,76.5419,434.1952,77.8419,434.2552,76.0419z"/>
	<path fill="#33073B" d="M505.0752,81.7819c4.8706-4.8098,8.0207-3.9965,9.45,2.44
		C505.8284,85.9002,511.6396,85.5398,505.0752,81.7819C506.7452,76.5019,506.4552,82.5719,505.0752,81.7819z"/>
	<path fill="#33073B" d="M426.5852,81.2319c0.4441-0.1903,9.6643,13.5784,15.86,15.06c-0.5849,2.2336-4.5317,1.331-4.11,3.25
		c8.8049,0.9991,13.323,13.0842,24.01,13.48c-0.5157,5.0135-34.0701-19.8642-39.98-16.75
		C421.7056,95.4615,426.157,81.6627,426.5852,81.2319C429.2452,80.0919,424.9252,82.9019,426.5852,81.2319z"/>
	<path fill="#33073B" d="M98.1052,86.8519c7.5104-8.22,7.1398-0.2002,11.48,4.14C105.0562,91.3946,101.2295,90.0146,98.1052,86.8519
		C99.3752,85.4619,99.7052,87.7719,98.1052,86.8519z"/>
	<path fill="#33073B" d="M241.4352,84.1219c5.6062-2.2191-1.6183,11.3839-7.19,8.92
		C234.2521,91.1733,239.6586,86.0689,241.4352,84.1219C242.3952,83.7419,240.7052,84.9219,241.4352,84.1219z"/>
	<path fill="#33073B" d="M196.0652,89.8319c6.4929-5.4029,7.967-5.4742,4.4225-0.2138c-2.075,4.8683-9.4121,6.1233-13.2025,5.2337
		C187.1995,95.1336,195.4337,90.1827,196.0652,89.8319C197.3552,87.5419,193.9052,91.0319,196.0652,89.8319z"/>
	<path fill="#33073B" d="M385.2452,88.8119c5.7049-7.9869,16.7445,13.1584,27.22,10.53c-2.3046,6.1158-8.4331,14.2537-17.51,14.08
		c-2.5018-12.2883,9.8293,0.7266,12.34-11.21C400.9571,98.2566,391.8341,91.8875,385.2452,88.8119z"/>
	<path fill="#33073B" d="M204.6052,93.4019c4.6269-1.7143,5.7141-5.8193,10.81-2.45c-5.4092,4.654-2.9653,2.9536-6.16,10.2
		C206.9731,99.5106,205.2751,96.3524,204.6052,93.4019C207.3852,92.3719,205.0752,95.4719,204.6052,93.4019z"/>
	<path fill="#33073B" d="M399.4252,88.0919C403.3847,89.0893,404.6808,100.9768,399.4252,88.0919
		C400.7352,88.4219,400.3552,90.3719,399.4252,88.0919z"/>
	<path fill="#33073B" d="M242.3252,95.9119c3.6067-2.2467,7.2133-4.4933,10.82-6.74
		C259.0267,101.1619,228.9788,100.5423,242.3252,95.9119C246.8052,95.0419,241.8352,96.0819,242.3252,95.9119z"/>
	<path fill="#33073B" d="M447.4952,89.1319c0.5092,0.2722,10.791,3.324,4.1312,4.405
		C447.2868,95.2132,445.9097,93.7448,447.4952,89.1319C448.5052,89.6719,447.0452,90.6219,447.4952,89.1319z"/>
	<path fill="#33073B" d="M409.4752,91.5019C419.0757,94.7524,408.7933,93.5583,409.4752,91.5019
		C410.7452,91.9319,408.8352,93.4319,409.4752,91.5019z"/>
	<path fill="#33073B" d="M525.1152,91.3419C532.7164,95.0593,524.462,92.632,525.1152,91.3419
		C526.4852,92.0119,524.7152,92.1319,525.1152,91.3419z"/>
	<path fill="#33073B" d="M586.8352,95.1119c17.0989-6.9542-10.6206,14.7705-11.32,13.25c-12.2947,6.5089-30.1028,5.8351-46.42,3.45
		c3.057-1.394,29.5019-14.5539,28.19-8.69c-3.5388-1.1167-7.7578,3.6678-10.97,4.13
		C545.0973,111.6399,582.5826,97.0841,586.8352,95.1119C588.9252,94.2619,585.4552,95.7519,586.8352,95.1119z"/>
	<path fill="#33073B" d="M386.2452,95.1119c2.9505,1.6638,7.3976,3.682,5.25,7.29
		C387.8946,101.2758,386.1446,98.8458,386.2452,95.1119C387.5752,95.8619,385.2552,98.9519,386.2452,95.1119z"/>
	<path fill="#33073B" d="M557.3152,95.6719C570.8675,94.491,559.392,96.3535,557.3152,95.6719
		C559.7252,95.4619,557.3152,95.6719,557.3152,95.6719z"/>
	<path fill="#33073B" d="M185.5852,95.9819c4.5213-8.2288-6.8056,17.565-7.7587,14.3862c-1.8421-0.532-3.6959-1.0208-5.5612-1.4662
		C176.7052,104.5952,181.1452,100.2886,185.5852,95.9819z"/>
	<path fill="#33073B" d="M454.2352,96.0719C460.9646,96.5132,457.8614,102.1154,454.2352,96.0719
		C456.0652,96.1919,454.8652,97.1219,454.2352,96.0719z"/>
	<path fill="#33073B" d="M416.2452,98.0219c2.9502-0.2682,26.8481,18.1969,26.16,21.11
		C434.0061,113.1136,420.4091,108.1008,416.2452,98.0219C418.2252,97.8419,417.1252,100.1519,416.2452,98.0219z"/>
	<path fill="#33073B" d="M460.5152,99.2619c2.0819-3.6434,14.7062,5.7784,15.03,7.69
		C472.5629,105.5459,456.3899,101.7984,460.5152,99.2619C461.7552,97.0919,459.0352,100.1719,460.5152,99.2619z"/>
	<path fill="#33073B" d="M527.0752,103.5219C514.6979,104.3081,534.0737,105.1369,527.0752,103.5219
		C513.5352,104.3819,527.4652,103.6119,527.0752,103.5219z"/>
	<path fill="#33073B" d="M388.6352,103.4619c6.2385,0.2034,8.6242,34.2066,26.84,32.15c-3.1,4.1969-9.7527,2.2462-10.05,1.29
		c-3.4011-0.4193,25.9704,23.7109,23.29,14.33c-0.9524,2.5085-9.5043,14.9351-9.48,15.07c-2.8143-1.8383-7.4537-16.3224-10.55-18.55
		c-1.9611,2.0465-4.4077,3.0365-7.34,2.97c5.7053,3.382,15.8609,23.0366,8.97,12.19c3.3149,1.0069,14.7493,14.6378,19.92,19.26
		c-0.7085-2.8125-0.5618-5.6192,0.44-8.42c24.4159,11.2393-25.4225,15.937-15.41,3.35c-17.0363-5.3064-14.4145-24.731-26.88-31.89
		c12.2184,10.4729-16.1371-1.9867-6.13-2.06c-4.5616-1.6353,0.2176,9.5772,0.26,7.66c-3.0348-0.3449-7.8551,1.364-7.23,4.17
		c-2.5997-2.1331-0.7892-4.549-4.98-1.82c-0.4597-9.2907,11.6091-11.9635,15.95-13.64c-2.3834-11.1723,7.971-16.5352,8.29-22.33
		c-6.9304,6.5311-11.3605-3.4076-5.27-0.19c7.7693-6.8777-7.9714-3.9241-6.88-3.73
		C380.7139,107.3276,382.7939,104.0576,388.6352,103.4619 M390.2352,135.0219c5.1217-2.8691,8.6147,12.6387,11.82,12.12
		c0.0521-5.0286-1.2701-9.6331,2.35-10.19C398.8808,126.5835,390.1602,135.0241,390.2352,135.0219 M410.6952,152.2319
		c0.06,1.19,0.3,4.37,2.21,3.69C413.1552,154.3919,413.2152,151.4219,410.6952,152.2319 M399.7452,154.2419
		c-0.26,1.53-0.31,4.5,2.21,3.69C401.8852,156.7319,401.6452,153.5619,399.7452,154.2419z"/>
	<path fill="#33073B" d="M398.5152,103.3819c1.2-0.61,2.44,0.41,3.68,0.12C403.3552,106.1019,397.0152,105.9719,398.5152,103.3819z"
		/>
	<path fill="#33073B" d="M226.6152,109.4019c-0.1879,0.1644,12.5772-2.1382,11.69,1.47
		C238.2067,110.8625,222.1405,117.9934,226.6152,109.4019C228.4552,107.7919,226.3652,109.8819,226.6152,109.4019z"/>
	<path fill="#33073B" d="M524.0852,104.5019c2.0598-0.0538,8.3141-0.0495,10.29-0.17
		C534.2704,109.2475,525.7249,106.8445,524.0852,104.5019C525.6152,104.4619,524.4352,105.0019,524.0852,104.5019z"/>
	<path fill="#33073B" d="M162.4352,108.4919c8.5528-3.5357,10.2262-2.5724,5.02,2.89
		C163.2034,113.5764,161.8042,113.3425,162.4352,108.4919C165.2452,109.0919,162.2752,109.7219,162.4352,108.4919z"/>
	<path fill="#33073B" d="M418.1752,109.2019c0.5865,2.7213,20.3755,11.066,24.22,17.78c-3.0476,0.2068-5.791-0.7366-8.23-2.83
		c2.7267,1.0183,4.0767,2.665,4.05,4.94c-5.545-0.788-16.0208-6.6315-17.96-13.03c1.1783,1.1855,2.5149,1.4821,4.01,0.89
		C422.829,113.8118,420.799,111.2284,418.1752,109.2019 M426.2952,118.0419c-0.29,2.88,2.96,4.05,5.11,5.06
		C431.1752,120.6519,428.7952,118.1219,426.2952,118.0419z"/>
	<path fill="#33073B" d="M350.3352,109.1019c1.34-0.07,2.69-0.06,4.03,0.02C355.1152,112.8719,348.3952,113.3719,350.3352,109.1019z
		"/>
	<path fill="#33073B" d="M249.7852,112.0019C259.8119,112.6703,237.6101,119.6113,249.7852,112.0019
		C250.3852,112.0419,249.2252,112.3519,249.7852,112.0019z"/>
	<path fill="#33073B" d="M418.1352,114.0919c-0.4076,0.7232,6.6704,10.3168,4.15,14.62c11.4577,3.8767,18.0597,27.3548,6.96,21.42
		c4.3816-18.6602-16.6943-17.7515-22.02-34.99C410.0589,114.8752,417.0467,117.874,418.1352,114.0919 M417.2652,122.0019
		c-0.76,2.97,2.14,3.83,4.13,5.09C421.6052,124.5019,418.5352,123.8419,417.2652,122.0019z"/>
	<path fill="#33073B" d="M370.2852,115.2019c2.9933-0.3533,5.9867-0.7067,8.98-1.06
		C374.8325,120.8709,374.3356,115.6113,370.2852,115.2019z"/>
	<path fill="#33073B" d="M446.4052,114.1019c3.1739-2.2712,8.8528,4.2763,10.78,6.02
		C454.353,123.9581,447.88,115.0673,446.4052,114.1019z"/>
	<path fill="#33073B" d="M236.7652,116.7619c-1.5304-3.8562,6.5153-1.893,7.8-1.6c-8.5551,6.4618-6.1673,13.2869-12.95,17.2
		c2.3256-12.2923-4.4449,4.4398-2.36-5.29c-5.897,3.9245-33.4626,36.1932-34.58,35.86c-0.1941-12.1273,35.0221-45.7936,35.53-35.84
		C245.4267,120.206,224.062,126.8667,236.7652,116.7619C235.2452,112.9319,235.0052,118.1619,236.7652,116.7619z"/>
	<path fill="#33073B" d="M397.3452,115.1219c0.77-1.9,4.47-0.22,6.3,0.03C401.5852,115.7219,398.5252,118.0519,397.3452,115.1219z"
		/>
	<path fill="#33073B" d="M501.4952,113.6319c8.9634,1.83,5.9948,6.0727,0.94,10.37
		C502.0835,122.0324,500.531,115.5666,501.4952,113.6319C503.8952,114.1219,499.9652,116.7019,501.4952,113.6319z"/>
	<path fill="#33073B" d="M496.5952,115.2719c0.9569,0,4.177,6.0076,4.48,5.42c-2.4117,0.5151-13.2196,6.129-13.3563,5.7587
		c2.2021,5.9669,13.1411,3.8061,16.7162,4.6612c0.7986,11.1137-15.2033,1.4964-16.3,1.08c4.736,18.4636-5.3299-2.4861-5.7-3.95
		C457.1896,130.8588,486.8167,114.4137,496.5952,115.2719C497.0152,115.2719,492.8352,114.9419,496.5952,115.2719z"/>
	<path fill="#33073B" d="M462.5252,116.2019C474.4408,116.7338,454.0514,118.3089,462.5252,116.2019
		C463.6452,116.2519,460.6752,116.6619,462.5252,116.2019z"/>
	<path fill="#33073B" d="M178.4452,119.8619c13.5339-8.336-13.2869,11.8295-13.29,11.97c1.8566-0.4284,11.9326,7.6297,10.17,13.27
		c-9.7321,1.9907-6.4787-9.9576-15.82-12.02c-2.3824,3.8057,3.5507,7.9561,2.71,12.94c-11.1954,1.9242-7.8815-7.6431-5.01-15.15
		c-1.0511,0.6138-14.5578-0.1654-13.89-8.59c11.8581,2.7649,5.1216-7.0599,7.94,4.39
		C162.8125,124.1565,167.425,126.3924,178.4452,119.8619C179.8252,119.0119,177.9052,120.1819,178.4452,119.8619z"/>
	<path fill="#33073B" d="M381.2452,118.3019c5.2701,0.6875,6.4155,2.5654,3.4362,5.6337
		c-0.1719,0.2592-11.0085-0.8347-11.6062-1.8737C376.8137,119.7613,378.5619,122.2805,381.2452,118.3019
		C383.0352,117.9919,380.6652,119.1619,381.2452,118.3019z"/>
	<path fill="#33073B" d="M401.5152,118.2519c4.3103,0.1958,5.9337,2.3791,4.87,6.55
		C401.5453,123.4894,400.705,121.3972,401.5152,118.2519C404.3852,119.1619,401.1752,119.5719,401.5152,118.2519z"/>
	<path fill="#33073B" d="M467.4352,118.2519C482.4493,121.3464,461.7713,123.8003,467.4352,118.2519
		C470.0552,118.7919,464.0052,121.6119,467.4352,118.2519z"/>
	<path fill="#33073B" d="M242.5752,119.0319c5.589,3.9289,12.2991,17.9994,10.8813,22.3325
		c0.5517-1.6861-9.9103-2.1122-10.0612-2.1525c3.5547-2.4316,4.3942-5.092,2.5188-7.9812
		c4.3984,1.6768-14.6764,13.9484-14.6788,13.8512c15.5469,5.2538-12.6751,35.2772-23.97,44.1
		c-0.8113-4.2367-0.1179-8.3233,2.08-12.26c-5.4352,3.066-7.445,9.5914-16.37,3c3.8667-7.5951,21.5525-14.4521,21.4-23.9
		c-11.008,6.6978-14.6352,15.4964-29.95,11.77C185.2231,180.5214,236.9621,123.8968,242.5752,119.0319 M225.5352,149.3519
		c-1.73,1.53-3.8,3.13-3.26,5.75C224.7452,154.9419,229.2952,150.1019,225.5352,149.3519 M219.6852,151.4819
		c-1.44,1.27-3.23,2.18-4.45,3.66C217.7252,156.5819,221.7652,151.5019,219.6852,151.4819 M218.5952,163.3619
		C204.9941,181.8139,222.4419,158.1203,218.5952,163.3619 M209.4952,167.4319c-3.54,1.75,1.88,5.86,2.81,1.97
		C210.5452,169.7719,210.5852,166.7019,209.4952,167.4319 M217.6352,169.4319c-1.7867,2.2333-3.5733,4.4667-5.36,6.7
		C219.2514,169.603,221.0381,167.3696,217.6352,169.4319z"/>
	<path fill="#33073B" d="M216.6652,121.1119C221.6131,124.6531,209.964,132.913,216.6652,121.1119
		C217.6852,121.8419,215.5352,123.1019,216.6652,121.1119z"/>
	<path fill="#33073B" d="M255.5152,122.2419c2.89-1.05,1.5,3.32,2.64,4.92C255.3552,128.2219,253.0252,123.8119,255.5152,122.2419z"
		/>
	<path fill="#33073B" d="M444.3852,128.0419c6.2002,3.7655,16.2762,4.6038,19.92,6.92c-2.9433-0.9811-7.1192,4.4377-9.01,4.16
		c0.6536-2.2465,2.0603-3.8764,4.22-4.89C451.1051,136.0654,445.9847,129.8197,444.3852,128.0419z"/>
	<path fill="#33073B" d="M198.4052,134.3519c4.3656-2.4831,9.0222-4.1531,13.97-5.01c0.5572,3.5472-23.9375,11.025-12.8,14.15
		c-6.8726,4.2397-11.9826,4.1097-15.33-0.39C183.8825,142.9067,200.7115,136.0386,198.4052,134.3519
		C203.2552,133.2619,199.7452,135.3319,198.4052,134.3519z"/>
	<path fill="#33073B" d="M185.5852,130.6619c7.0356-1.0694-2.0082,4.364-2.8975,7.825c0.7857-3.0578-2.3516-3.134-6.4625-3.365
		C179.3452,133.6352,182.4652,132.1486,185.5852,130.6619C186.8352,130.4719,182.2452,131.4519,185.5852,130.6619z"/>
	<path fill="#33073B" d="M505.4052,133.1319c9.5272,3.9944,5.6919-2.058,13.3499,5.06
		C515.5264,140.5087,501.8849,139.9382,505.4052,133.1319z"/>
	<path fill="#33073B" d="M473.4452,135.1719c4.4027,0.5105,6.2594,2.8371,5.57,6.98c0.4233-21.9173,10.3905,20.2979,7.6587,10.7112
		c-1.326-4.6532-31.0948,11.6374-31.4287,27.3887c-3.2492-5.3166-4.8702,2.3926-5.14,5.9
		c-14.9014-20.8185,12.3876-42.0031,32.19-35.07c0.0066-0.1353-15.9702-14.5976-15.86-14.68
		C469.637,138.9216,471.9737,138.5116,473.4452,135.1719C474.7352,136.5919,474.2253,140.0019,473.4452,135.1719z"/>
	<path fill="#33073B" d="M412.2252,141.9719c-0.3361-10.1564,15.5762,1.4954,11.99,4.94c-1.4874,2.0896-3.3774,3.1262-5.67,3.11
		C418.3779,142.3985,416.2712,139.7151,412.2252,141.9719C412.1352,139.2519,412.7052,141.7919,412.2252,141.9719z"/>
	<path fill="#33073B" d="M456.4352,140.1719c7.465-2.7502,6.51,1.8568,6.51,6.19
		C460.3232,144.7368,458.1532,142.6735,456.4352,140.1719C457.9552,139.6119,456.9852,140.9019,456.4352,140.1719z"/>
	<path fill="#33073B" d="M259.5552,144.4119C267.3477,142.7395,248.6078,149.7562,259.5552,144.4119
		C261.7452,143.9419,258.2852,145.0319,259.5552,144.4119z"/>
	<path fill="#33073B" d="M237.3552,147.0919c5.7625-0.7352,8.2222-1.4771,9.3438-0.7913
		c0.0693,0.0424-19.4956,56.9952-30.2037,38.7012C229.0495,178.5083,241.1278,154.0249,237.3552,147.0919z"/>
	<path fill="#33073B" d="M375.2852,154.9819c-0.3406-1.5289,3.099,5.0198,5.21,3.08c0.1632,8.5405-26.5816,22.0702,0.98,31.07
		c-2.7894-7.4288-3.403-13.6799-3.89-19.17c1.9734,7.2243,4.7465,1.0117,6.57-0.34c5.058,4.1928,9.214,8.2721,3.08,11.56
		c3.1906,1.6936,6.5873,2.287,10.19,1.78c-1.063-0.6521-16.1898-24.0808-15.05-27.88c13.8635,4.5388,20.7708,33.1729,33.77,42.28
		c-2.4869-9.0784-6.7702-17.1917-12.85-24.34c3.1336,0.9252,16.0131,19.1466,18.18,14.21c-3.3441,0.3716-4.339-6.6575-4.14-6.18
		c7.9178,2.9053,12.8345,8.872,14.75,17.9c-11.487,5.5138-24.3094,8.3578-37.66,18.04c5.235,1.8604,5.6778-8.6841,6.01,4.99
		c-14.9114-8.2489-13.4507-3.7947-25.07-13.07c3.7283,4.203,4.0716,8.8863,1.03,14.05c-2.8107-1.8737-17.1197-25.3205-10.27-22.69
		c-1.5049,4.9385,0.2285,7.2151,5.2,6.83c2.442-6.2334-2.7516-7.3296,8.87,2.05c9.4847-16.9777-25.501-23.7592-25.96-32.02
		c-5.521-0.8914-16.5038,22.5385-17.18,31.96c-0.615-0.8602-1.1716-1.7568-1.67-2.69c3.4215-2.6235,5.3382-6.1335,5.75-10.53
		c-5.3606,1.7852-6.304,3.9252-2.83,6.42c-7.4288,0.6089-29.839,17.8561-25.8-2.87c-9.7094,0.4425-27.9608-9.7757-18.51-23.62
		c-3.5054,5.9766-7.5282,21.3145-7.74,29.31c-2.4558-0.7084,12.2111-4.7651,8.48,2.05c-2.0748-2.3618-21.0512,25.3343-20.44,7.71
		c-10.5531,11.2303,4.4434,12.14,5.35,12.44c0.6642,1.109,0.9043,2.2623,0.72,3.46c-4.6399,0.3629-36.0675-8.0481-20.97-14.21
		c-3.6026-2.1798-15.6902-3.171-17.23-2.45c3.196-4.6497,7.2593-8.3563,12.19-11.12c0.8579-0.1865-4.2771,17.4284-3.16,10.13
		c9.0014-4.6006,15.1187-21.9581,24.05-29.22c-2.0829,5.8444-17.2351,31.9254-15.27,31c3.2583-8.1458,10.8659-23.6961,21.56-24.72
		c-0.3272,2.5822-1.4238,4.9055-3.29,6.97c4.1517,0.3924,10.017-9.2038,10.08-12.1c-1.0047-6.1473-4.86,1.9706-5.1,2.38
		c0.0912-3.3118-1.2254-5.7818-3.95-7.41c2.192,4.7869,0.9353,5.8035-3.77,3.05c6.3388-19.5,47.2997,0.4346,68.51-16.3
		C339.8936,175.4673,390.8803,159.6085,375.2852,154.9819 M318.2152,182.3519
		C318.1295,187.4879,327.1539,184.4198,318.2152,182.3519 M384.3052,182.0419c-0.53,2.8,2.98,3.69,5.1,4.1
		C388.1652,184.3819,386.7552,181.9019,384.3052,182.0419 M317.5752,185.3919c-2.2,0.94-1.51,4.29,0.7,4.8
		C317.9652,188.9619,319.2052,184.5619,317.5752,185.3919 M330.2852,187.0519c-5.8902-3.0628,7.0854,7.3485,8.07-1.97
		C335.1768,183.9672,332.4868,184.6238,330.2852,187.0519 M396.3052,185.0919c-1.5868,12.3406,13.1631,5.0469,4.96,17.05
		C412.9171,201.8949,399.3048,184.2025,396.3052,185.0919 M392.5852,187.3719c-5.2018,2.5306,4.0755,11.5051,8.81,12.77
		C402.3969,206.3745,394.423,186.3217,392.5852,187.3719 M322.6452,188.2819C312.1341,197.4792,330.9021,185.8864,322.6452,188.2819
		 M384.4852,191.9619c-7.3361,3.0984,7.0224,11.1665,11.84,11.21C395.0599,201.8505,383.8997,190.7195,384.4852,191.9619
		 M333.6252,192.2719c-0.68,1.16-0.71,2.34-0.09,3.53C335.8552,196.4819,336.2752,190.9319,333.6252,192.2719 M276.6452,197.5119
		c0.6851-0.579-12.5284,11.0952-2.48,9.51C273.3759,207.7992,281.0528,196.7891,276.6452,197.5119 M279.2252,200.9919
		c-0.8562,0.4281-5.5164,14.528,0.85,13.03C287.1378,189.0383,288.5091,195.8526,279.2252,200.9919 M314.4152,198.3419
		c-4.9053,2.1802,7.4998,3.6678,8.88,0.94C320.3801,198.5459,317.4201,198.2326,314.4152,198.3419 M316.6452,202.4519
		C308.3394,204.6767,319.4301,201.0125,316.6452,202.4519C315.5252,202.7519,319.3152,201.0719,316.6452,202.4519z"/>
	<path fill="#33073B" d="M264.2252,163.1519c3.72-1.15,1.73,4.15,1.74,6.2C264.0852,167.8119,264.3152,165.3319,264.2252,163.1519z"
		/>
	<path fill="#33073B" d="M249.1552,168.2219C251.2455,159.6815,254.9975,174.2888,249.1552,168.2219
		C249.5052,166.7919,249.4152,168.4919,249.1552,168.2219z"/>
	<path fill="#33073B" d="M430.4852,168.0819c3.8837,2.0703,7.8137,2.577,11.79,1.52
		C445.367,172.6318,430.0778,178.8839,430.4852,168.0819C433.5952,168.1519,430.4652,168.6119,430.4852,168.0819z"/>
	<path fill="#33073B" d="M233.8252,181.6619c1.0267-5.7843,4.4201-8.3443,10.18-7.68c-0.0542,0.0858-14.6568,29.6028-17.86,16.35
		C231.3998,181.5414,227.545,188.1121,233.8252,181.6619C234.6152,176.8719,233.4552,182.0419,233.8252,181.6619z"/>
	<path fill="#33073B" d="M250.6952,173.3519C254.4995,173.9682,241.0541,184.4697,250.6952,173.3519
		C252.4852,173.6419,249.5852,174.6319,250.6952,173.3519z"/>
	<path fill="#33073B" d="M244.2152,178.0019c6.5487,1.0273-11.3132,25.1861-12.82,28.48
		C226.6681,199.1076,240.1426,182.7467,244.2152,178.0019z"/>
	<path fill="#33073B" d="M358.2652,183.1719c5.3179,7.3456,9.2346,1.5443,10.88,16c-1.5193-2.7774-3.8393-3.864-6.96-3.26
		C368.0684,192.1901,357.913,188.9251,358.2652,183.1719z"/>
	<path fill="#33073B" d="M351.3652,185.1719c6.3988-0.6666,12.0919,13.4053,10.79,18.35
		C357.0383,198.5292,353.4417,192.4125,351.3652,185.1719C351.8452,185.1219,354.9752,190.4419,351.3652,185.1719z"/>
	<path fill="#33073B" d="M349.7052,191.1619c5.2265-0.3241,7.6659,17.8637,10.2425,19.3913
		C341.4015,199.5579,344.2139,224.8627,349.7052,191.1619 M347.4652,198.1319c-4.0006,4.4086-2.6473,5.7653,4.06,4.07
		c-1.0175,0.8966-5.8626,6.8584-2.5613,6.9975C359.1634,209.629,348.0828,199.1295,347.4652,198.1319
		C347.7552,200.2319,347.7252,198.5519,347.4652,198.1319z"/>
	<path fill="#33073B" d="M256.2652,193.0519c2.44-0.32,2.82,2.59,4.08,4.07C257.4352,197.9719,256.5552,195.4219,256.2652,193.0519z
		"/>
	<path fill="#33073B" d="M235.4252,204.2119c6.6597-4.4771-2.874,4.573,5.74,3.75c1.1816,7.6344-6.7552,10.0448-11.76,3.61
		C228.9291,211.6777,234.4966,204.6874,235.4252,204.2119C236.6152,203.4119,233.7652,205.0619,235.4252,204.2119z"/>
	<path fill="#33073B" d="M297.3452,204.3719C292.8886,206.2608,305.3377,202.5151,297.3452,204.3719
		C295.8352,205.0119,298.3352,204.1419,297.3452,204.3719z"/>
	<path fill="#33073B" d="M222.4352,206.8819c6.1198,1.0672,6.2865,4.5472,0.5,10.44
		C222.7685,213.8419,222.6019,210.3619,222.4352,206.8819C223.9252,207.1319,222.5652,210.3219,222.4352,206.8819z"/>
	<path fill="#33073B" d="M335.2252,208.8419C335.8219,208.3141,343.0543,216.6064,335.2252,208.8419
		C335.4852,208.6119,336.4352,210.0419,335.2252,208.8419z"/>
	<path fill="#33073B" d="M226.5352,214.8119C219.2181,204.0896,235.7781,217.1762,226.5352,214.8119
		C225.5252,213.3319,226.9652,214.9219,226.5352,214.8119z"/>
	<path fill="#33073B" d="M300.6452,210.1019c1.6429,2.7919,2.2395,5.7986,1.79,9.02c4.3924,0.6851,23.4659-20.5645,30.84-2.37
		c-2.57,1.171-4.58,2.9743-6.03,5.41c4.1235-0.113,21.0909,10.1319,18.1287,12.4937c3.5569-2.836-5.2089-8.9668-5.8887-11.8138
		c2.4921,4.433,4.3721,4.5597,5.64,0.38c4.0126,14.336,7.2669,33.4575,0.14,29.67c-4.5266,7.9995-10.04,68.0479-27.0262,88.19
		c16.9861-110.1731-7.6732-32.4555-6.8639-39.5c5.2313-11.1918,10.5125,39.3724,7.3005,35.0998
		c-3.0737,62.2428-17.3807-63.3781-20.1505-62.7398c1.2522,5.1056-7.4966-15.936-7.1-28.7
		C289.4588,245.6888,297.5507,216.07,300.6452,210.1019 M307.5352,217.2219C295.5711,223.5754,332.1546,220.6665,307.5352,217.2219
		 M320.6152,218.5119C310.4219,225.0162,325.5781,217.0721,320.6152,218.5119 M314.1552,227.1419
		c-6.6329-0.825-8.8851-3.7923-10.74,3.96c-0.2261-0.0633,10.6826-1.0138,9.94-0.96c-5.3829,9.6065,15.9026,5.8359,19.7-5.09
		C328.7356,226.7133,313.4537,225.4219,314.1552,227.1419 M332.0252,236.7719c-8.624,4.4028-26.0024,4.7682-33.59,1.56
		c-0.797,2.184-5.2598,30.2078-3.975,31.6125c4.2568,4.6541,25.9515-7.4885,33.175-6.6425c-0.7098,2.9337,0.257,19.0775,7.45,17.72
		C338.0209,266.9298,346.4877,233.8324,332.0252,236.7719 M305.1552,281.8819
		C310.8706,291.8611,304.5795,281.7493,305.1552,281.8819C306.4152,284.0819,303.2452,281.4419,305.1552,281.8819z"/>
	<path fill="#33073B" d="M359.5552,216.6719c1.5014-7.1451,9.0141-0.3061,8.74,6.39
		C359.3268,224.339,362.1089,217.1155,359.5552,216.6719C359.8452,215.2919,361.9152,217.0819,359.5552,216.6719z"/>
	<path fill="#33073B" d="M353.0852,221.1119c0.4861,1.0994,4.7486,9.8175,4.02,18.28
		C350.6095,235.397,354.294,226.7946,353.0852,221.1119C351.3652,217.2219,353.1852,221.5819,353.0852,221.1119z"/>
	<path fill="#33073B" d="M358.1052,227.2919c7.0223-3.8106,1.0355,3.1363,2.41,3.61
		C359.628,223.9027,355.3453,236.7218,358.1052,227.2919C359.3952,226.5919,357.7452,228.5219,358.1052,227.2919z"/>
	<path fill="#33073B" d="M283.0152,228.7519C284.7416,221.6129,290.4834,235.265,283.0152,228.7519
		C283.3852,227.2219,283.8752,229.5019,283.0152,228.7519z"/>
	<path fill="#33073B" d="M346.0752,238.9419c3.1037-4.0232,5.1804-3.5932,6.23,1.29
		C347.9852,247.062,350.0572,241.3943,346.0752,238.9419C347.9252,238.9819,347.5852,239.8719,346.0752,238.9419z"/>
	<path fill="#33073B" d="M311.3752,247.2819c6.9363-2.238,13.9196-4.318,20.95-6.24
		C330.7927,245.5154,311.5878,261.5116,311.3752,247.2819C319.0752,247.3019,311.3852,247.9519,311.3752,247.2819z"/>
</g>
<rect x="0" y="0" fill="none" width="646.4617" height="388.742"/>
</svg>
