<?xml version="1.0" encoding="utf-8"?>
<!-- Generator: Adobe Illustrator 17.0.0, SVG Export Plug-In . SVG Version: 6.00 Build 0)  -->
<!DOCTYPE svg PUBLIC "-//W3C//DTD SVG 1.1//EN" "http://www.w3.org/Graphics/SVG/1.1/DTD/svg11.dtd">
<svg version="1.1" id="Layer_7" xmlns="http://www.w3.org/2000/svg" xmlns:xlink="http://www.w3.org/1999/xlink" x="0px" y="0px"
	 width="646.4617px" height="388.742px" viewBox="0 0 646.4617 388.742" enable-background="new 0 0 646.4617 388.742"
	 xml:space="preserve">
<g id="layer-7--33073bff">
	<path fill="#33073B" d="M121.8852,43.0819c18.7078,3.4004,27.6599,6.0511,48.22,0c1.7164,3.8228,0.2473,3.3289-2.94,4.2
		c3.0343,2.6886,10.4048,16.1603,3.23,13.79c-4.2453-2.0069-5.4611-6.6817-1.36-9.16c0.2213-1.6193-29.6078,4.2232-33.74,4.17
		c2.9178,1.5327,2.9711,3.3694,0.16,5.51c4.7964,3.4278,9.7563,3.2811,14.88-0.44c0.8974,5.2802-13.9874,11.1137-17.32,13.69
		c11.9575,10.7385,35.5027-11.6738,46.49-12.76c-6.4281,9.202-38.4657,19.7018-37.69,24.83c6.7371,2.789,14.6382-1.9108,15.69,10.11
		c-3.822-2.2248-6.9186-1.2281-9.29,2.99c0.8735-0.4015,25.9875-2.7583,26.23-5.03c-0.2384,4.1326-22.4196,15.7342-24.32,15.42
		c0.906,9.5127,22.1671-0.9046,24.38-2.29c-0.1876,4.1658-2.9657,7.575-2.9426,11.603c0.0166,2.8857-18.3719,2.6593-20.7262,2.7945
		c3.7134-0.2133,8.4035,9.7368,18.2887,5.8925c6.8228,3.2731,10.1139-12.2087,18.31-5.71
		c-17.234,3.1117-13.5173,12.9878-32.12,12.76c0.468-2.1913,4.2295,8.7625,4.01,7.63c-6.5672,0-19.504-24.1384-11.9-27.71
		c-6.8161-0.9438-11.2199-0.5635-11.08-8.21c4.8275-2.134,9.8208-2.8507,14.98-2.15c2.4166-8.706-31.8567-13.7418-11.76-25.52
		c-4.3749,1.0864-13.3792-6.4147-15.2-9.25c10.9493,1.0243-21.0553-8.3903,11.98-18.24
		C136.081,49.4349,122.7761,46.0025,121.8852,43.0819 M155.3452,117.0819c-1.46,4.37,3.45,2.83,6.1,2.93
		C160.2752,117.6019,157.9752,116.4919,155.3452,117.0819z"/>
	<path fill="#33073B" d="M210.2952,43.0819c3.1108,0.8185,12.6651-0.0437,12.23,6.7c-6.3131-0.6499-7.4334,6.2657-0.1,1.24
		c1.9002,14.2765-2.853,0.0799,1.94,11.76C217.3494,64.4134,212.6866,47.1412,210.2952,43.0819z"/>
	<path fill="#33073B" d="M236.2752,43.0819c25.9923-6.7592,30.9723,46.9245,47.04,65.22c-3.8812,0.6907-6.9094,2.3765-8.92,2.76
		c0.0082,0.0394-3.3083-20.0282-8.1888-19.8538c-4.8358,0.1728,6.6348,28.8645,5.1787,31.8738
		c27.0619-5.0258,18.5885,21.3672,34.7,26.64c1.7038-10.0812-5.4322-25.9231,14.34-23.66c0,0,8.0667,1.1182,9.06,16.91
		c3.0299-3.2288,13.4365-5.0432,11.0067-9.1877c14.0606,16.4526,24.8408-100.8811,60.8533-90.7023
		c-1.9919,4.7429-11.3389,13.4108,2.98,5.82c-4.4808,10.7541-14.4537,12.3236-16.86,26.13
		c-19.804,11.1879-4.7335,22.8576-1.91,34.94c-5.1348-2.9252-11.2953,9.377-8.72-4.76c14.1738,29.7878-49.4647,47.4921-49.73,49.98
		c-2.8553-1.2092,5.8944-11.7321-2.52-12.23c0.9255,9.9854-3.0077,5.5806-5.3275,6.1675
		c-17.236,4.3609,9.3049,22.7029-20.5525,7.5625c-10.9969-6.8651-34.7678-48.1015-36.83-48.65
		c-0.6998,8.2676-3.1255,5.8109-9.62,6.85c-0.8878-7.7885,4.135-15.5778,9.99-18.18c-4.0207-3.0591-12.9605-4.2881-15.95-3.66
		c-1.572-6.5695,6.4144-8.3855-1.83-12.25c2.4111-2.3756,7.3269,1.0993,7.36,0.56
		C243.3388,67.4243,241.2531,55.3953,236.2752,43.0819 M242.2652,51.0719c0.38,2.02,1.23,5.17,3.77,5.09
		C246.3352,53.4219,246.1152,50.0019,242.2652,51.0719 M388.4452,52.0119c2.76,2.93-4.06,2.52-1.01,4.99
		C389.8552,56.7719,392.1952,51.3519,388.4452,52.0119 M385.6152,59.3819c-0.82,1.85-4.5,7.26-0.5,6.59
		C385.3952,64.1919,387.5252,59.2419,385.6152,59.3819 M376.6252,63.2719c-0.62,1.21,0.4,2.44,0.12,3.68
		C379.3452,68.1119,379.2052,61.7819,376.6252,63.2719 M253.2352,73.3619C254.7079,79.2525,263.6013,74.7789,253.2352,73.3619
		 M256.4252,85.9619c0.83,1.98,0.85,5.74,3.89,5.15C261.2052,87.9819,259.4352,86.2319,256.4252,85.9619 M260.4552,100.0119
		C263.3059,104.7746,256.4458,101.427,260.4552,100.0119 M367.2852,105.0519c0.1152,6.184-0.0533,14.1872-1.81,19.16
		C372.5145,124.0388,372.0427,104.0031,367.2852,105.0519 M276.2352,132.0819c-1.2388-2.622,9.9833,13.2176,10.31,10.96
		c1.0201-2.1667,2.0876-4.3096,3.2025-6.4288C286.7612,132.026,282.2571,130.5156,276.2352,132.0819 M311.6152,132.3619
		c0.1511-0.2417-8.1421,12.748-1.4,10.68C315.1712,133.9335,315.6378,130.3735,311.6152,132.3619z"/>
	<path fill="#33073B" d="M422.6652,43.0819C421.1707,44.6432,416.1022,52.2953,422.6652,43.0819
		C422.6652,43.0819,421.6252,44.5419,422.6652,43.0819z"/>
	<path fill="#33073B" d="M435.3652,43.0819c13.2526,0.9728,10.1085,3.8972,24.05,6.25
		C454.0403,58.8263,437.8452,44.5857,435.3652,43.0819z"/>
	<path fill="#33073B" d="M496.5252,43.0819c5.94,0,11.88,0,17.82,0c1.6696,6.0793-1.0403,9.5626-8.13,10.45
		c1.9854,5.6918,7.2519-0.6052,7.07,7.59c-16.3044,4.1692-29.0774,11.4436-44.64-3.28c-0.2749-2.2761,15.8057,6.1388,18.84,3.36
		c-2.5515,8.08,17.5871,6.1008,17.8701-2.81c-4.0369,1.4115-4.3969,0.6315-1.08-2.34c-2.6994,0.874-6.9923,2.6848-9.64,2.35
		c-0.3159-4.4627-4.8325-0.948-7.46-7.32c5.6566,3.0322,11.0632,2.6422,16.22-1.17C493.984,48.142,491.694,45.8653,496.5252,43.0819
		z"/>
	<path fill="#33073B" d="M526.7752,48.8019C527.698,40.3552,533.9929,55.5685,526.7752,48.8019
		C526.9052,47.6119,527.5752,49.5519,526.7752,48.8019z"/>
	<path fill="#33073B" d="M422.2752,47.0319c0.8757-0.2598,9.0253,6.4581,9.0075,7.53
		C425.9652,56.3539,422.9627,53.8439,422.2752,47.0319C426.1852,45.8719,423.5952,49.7419,422.2752,47.0319z"/>
	<path fill="#33073B" d="M461.4252,51.2619C460.5733,51.2341,461.4391,41.4926,461.4252,51.2619
		C459.5852,51.2019,461.4252,51.2619,461.4252,51.2619z"/>
	<path fill="#33073B" d="M438.2152,48.4019C449.3666,50.9783,438.2424,49.4035,438.2152,48.4019
		C438.2152,48.4019,438.2952,51.3519,438.2152,48.4019z"/>
	<path fill="#33073B" d="M199.6852,51.4619C201.4942,50.3876,192.9312,61.5613,199.6852,51.4619
		C202.2952,49.9119,198.6152,53.0619,199.6852,51.4619z"/>
	<path fill="#33073B" d="M409.3652,51.2719c5.9297,1.1037,9.0445,5.1613,9.61,8.9
		C415.3488,58.9631,408.833,55.7948,409.3652,51.2719C412.1052,51.7819,409.3252,51.6119,409.3652,51.2719z"/>
	<path fill="#33073B" d="M466.6652,60.0119C461.2882,42.9974,472.0675,68.4158,466.6652,60.0119
		C465.9352,57.7019,466.8452,60.2919,466.6652,60.0119z"/>
	<path fill="#33073B" d="M422.3852,54.1619c6.2025,2.905,5.5208,4.085-0.19,6.07c3.7425,4.0043,9.2264,3.1715,7.81,9.97
		c-1.5941-3.2626-14.115-0.5007-13.67-9.03C423.2365,62.412,419.4793,60.9601,422.3852,54.1619z"/>
	<path fill="#33073B" d="M430.2752,60.1919c-0.8151,0.2048-0.0858-2.5428,7.17-0.79
		C433.3098,67.1099,433.3329,60.2521,430.2752,60.1919C426.3752,61.1719,432.3052,60.2319,430.2752,60.1919z"/>
	<path fill="#33073B" d="M398.3152,59.0119c2.85,1.59,8.18,3.56,7.01,8.15C403.1952,64.4219,399.4852,62.5619,398.3152,59.0119z"/>
	<path fill="#33073B" d="M412.2652,67.6119c6.3634-14.191-1.8539-2.7808,8.14,1.01
		C414.0998,69.7203,418.4211,67.0084,412.2652,67.6119C413.3952,65.0919,412.7752,67.5619,412.2652,67.6119z"/>
	<path fill="#33073B" d="M164.2852,61.0319C173.8732,59.1951,162.645,72.8919,164.2852,61.0319
		C166.8952,60.5319,164.0252,62.9119,164.2852,61.0319z"/>
	<path fill="#33073B" d="M202.3752,66.1319c4.3433-1.6433,8.6867-3.2867,13.03-4.93
		C215.4476,62.9002,202.9586,69.0673,202.3752,66.1319C206.3052,63.5419,202.6952,67.7419,202.3752,66.1319z"/>
	<path fill="#33073B" d="M224.3652,62.7819C229.3587,59.2248,217.0082,64.4927,224.3652,62.7819
		C225.0952,62.2619,223.9352,62.8819,224.3652,62.7819z"/>
	<path fill="#33073B" d="M403.2052,68.6419c3.8409-1.2969,6.1085,0.7149,6.94,3.41
		C406.7159,75.5361,404.4026,74.3994,403.2052,68.6419C404.7452,68.1219,405.0152,69.9719,403.2052,68.6419z"/>
	<path fill="#33073B" d="M141.9052,71.5819C146.223,68.2325,149.4675,70.2621,141.9052,71.5819
		C142.9752,70.7519,141.9052,71.5819,141.9052,71.5819z"/>
	<path fill="#33073B" d="M446.5352,68.9219c6.7368-1.5545,8.0569,0.5822,3.96,6.41c2.9183-1.2451,17.376-3.2611,18,6.41
		c-2.7021-0.6949-5.3155-0.3449-7.84,1.05c7.2983,1.8833,12.7305,8.1049,17.625,11.1387
		c-8.8694-5.4977-19.5019-10.2844-31.925-13.9487C446.7644,81.4141,446.5851,68.2962,446.5352,68.9219 M453.3852,73.9619
		C452.8175,83.8388,457.6921,76.7183,453.3852,73.9619C453.2852,75.7019,454.3852,74.6019,453.3852,73.9619z"/>
	<path fill="#33073B" d="M503.5052,69.1919c4.2208-0.8291-1.0198,7.4663,0.69,9.98c-0.0427,0.0102-9.917-6.7451-9.87-7.13
		C498.0295,70.5974,499.9137,71.3045,503.5052,69.1919C505.1852,68.8619,501.8052,70.1919,503.5052,69.1919z"/>
	<path fill="#33073B" d="M394.4052,71.1619C397.9706,67.781,399.1818,82.6077,394.4052,71.1619
		C394.9852,70.6119,394.9352,72.4319,394.4052,71.1619z"/>
	<path fill="#33073B" d="M421.5452,70.0519c2.4037,3.3028,5.2352,5.2039,0.19,7.7
		C414.5535,62.8306,424.0144,77.7182,421.5452,70.0519C422.8552,71.8519,422.5952,73.3119,421.5452,70.0519z"/>
	<path fill="#33073B" d="M170.3852,72.1419C171.6005,70.29,181.0138,70.7026,170.3852,72.1419
		C170.5952,71.8219,172.3052,71.8819,170.3852,72.1419z"/>
	<path fill="#33073B" d="M215.0252,71.8319C225.0123,68.3179,210.3442,81.0136,215.0252,71.8319
		C216.1052,71.4519,214.7652,72.3419,215.0252,71.8319z"/>
	<path fill="#33073B" d="M465.6652,73.4419c5.2346-1.3629,29.4949,10.467,28.7,15.66c11.2303-6.7589,8.9396-1.1014,18.87-5.03
		c0.714,3.1402-0.1693,5.8302-2.6499,8.07c7.8182-2.5495,2.5556,8.7251-0.33,7.95c-0.9045-5.5782-3.5211-7.5386-4.03-12.72
		c-5.6366,0.9247-10.5262,7.0217-15.91,7.21c-0.1122,0.5059,6.7555,3.749,8.91,2.32c-5.0742,13.7142-4.4721,29.6877-11.92,33.65
		c2.8563,3.1942,5.5396,3.0209,8.05-0.52c1.4568,8.2842-3.5632,9.9642-15.0601,5.04c-1.1824-5.0443,0.8843-5.7409,6.2-2.09
		c-5.1141-4.6977-8.7613-3.7401-9.11,2.07c-5.1338,1.6039-6.4705,0.2605-4.01-4.03c-14.0735,2.729-5.8742,36.2251-13.08,14
		c-20.5948-2.6539-26.4472-20.0078-46.07-33.94c0.4427-0.1834,28.38,14.8004,30.86,16.19c6.3015,12.6029,20.3156,1.0029,32.18,2.79
		c-4.7589-9.0167,3.5797,0.3985,1.97-4.45c-6.892-1.2414-21.2759-2.0881-22.89-11.5c9.2372,7.4347,18.3298,4.813,27.11,15.9
		c7.1807-1.8209-11.5842-21.5793-16.65-25.98c10.4048,4.1396,12.3085,2.8151,23.39-3.37c0.2401,0.6028-12.3849-3.4141-9.3813-7.4775
		c2.5722-3.4797,9.5752-1.0852,10.5013-6.0025C483.4979,87.5338,458.5209,75.7191,465.6652,73.4419 M483.6053,113.2519
		c-0.8585,5.7389,6.5007-2.4963,5.0262-4.4875C485.2357,104.1787,480.18,110.5589,483.6053,113.2519 M421.6052,117.2519
		c-1.93,0.79-0.52,3.87,0.44,4.53C421.9352,120.4219,424.3652,116.5019,421.6052,117.2519 M434.5152,130.4119
		c-0.64,1.7,1.77,4.11,3.48,3.48C437.8652,132.4319,435.9652,130.5319,434.5152,130.4119 M441.5052,131.1219
		c-2.6414,6.8837,9.9882,12.5709,14.59,11.67C458.7425,139.5614,444.7993,132.2259,441.5052,131.1219
		C440.8452,132.8419,443.3552,131.7419,441.5052,131.1219z"/>
	<path fill="#33073B" d="M166.3852,73.1519C172.4278,73.4109,169.4031,79.5583,166.3852,73.1519
		C167.0852,73.1819,166.9552,74.3619,166.3852,73.1519z"/>
	<path fill="#33073B" d="M410.3652,72.7719c9.0645,1.1978,25.4639,19.1599,27,24.07c-2.271-0.5735-5.5299,0.6888-8.15,1.19
		c1.4554,8.8786-2.9267,2.1283-8.05-3.2c2.7544-3.3764,9.5387,6.8349,9.87-0.07c2.1659-6.5465-18.8788-14.7524-21.56-15.95
		c2.974,3.7381,2.5507,4.4781-1.27,2.22C413.1213,79.4567,413.8413,76.7034,410.3652,72.7719
		C413.1652,73.1419,409.0252,74.9119,410.3652,72.7719z"/>
	<path fill="#33073B" d="M118.3352,74.9619C126.363,80.7886,118.2326,83.5865,118.3352,74.9619
		C120.1952,76.3119,118.3152,76.6419,118.3352,74.9619z"/>
	<path fill="#33073B" d="M169.1052,80.7419c7.1656,0.2757,13.9556-1.201,20.37-4.43
		C182.2222,82.4264,171.1678,88.8126,169.1052,80.7419C176.4152,84.2519,169.5652,82.5419,169.1052,80.7419z"/>
	<path fill="#33073B" d="M235.6652,81.8919c16.412,5.5909-5.5149,3.9495-3.39,14.27c1.487-1.4846,3.157-2.2013,5.01-2.15
		c4.6687,1.6324-9.2016,7.2572-6.28,3.8c-2.3819,2.2932,5.0678,7.8194-0.6775,9.2913c-3.5241,0.9028,0.0696-19.6113,1.2175-19.0612
		c-0.0423-0.6786-11.204,1.8442-11.11,1.95c3.42-3.9916,3.0134-5.6816-1.22-5.07c6.8682-5.6482,7.8557-1.3524,14.15-0.76
		C228.5072,78.1156,229.2739,77.3589,235.6652,81.8919C239.3052,83.1319,235.0452,79.1419,235.6652,81.8919z"/>
	<path fill="#33073B" d="M398.5252,75.9619c0.3713-0.0673,18.2984,7.0914,16.82,12.23c-3.8244-0.6039-11.6602,0.3118-4.85,8.39
		c-1.7342,0.4164-3.4775,0.5631-5.23,0.44C400.5797,90.4554,401.328,83.388,398.5252,75.9619z"/>
	<path fill="#33073B" d="M489.3152,77.0919c1.5443,1.335,14.5786,3.7643,3.2,6.39
		C485.4558,83.0014,491.2082,80.5514,489.3152,77.0919z"/>
	<path fill="#33073B" d="M152.8052,81.3919c4.5911-3.5805,8.4111-3.0172,11.46,1.69c-5.6826-1.2138-6.6126,0.1196-2.79,4
		C151.5323,87.6083,149.1287,88.8762,152.8052,81.3919C155.0352,80.5519,152.2452,82.5319,152.8052,81.3919z"/>
	<path fill="#33073B" d="M440.6352,81.1319c0.5986,0.1897,4.9346,9.3838,5.44,9.94c-2.0151-0.104-12.2467-5.3542-12.91-6.8
		C436.3228,84.7772,438.8129,83.7305,440.6352,81.1319C442.6552,81.7719,440.2352,84.4319,440.6352,81.1319z"/>
	<path fill="#33073B" d="M182.6452,85.4219c6.7177,0.8957-5.8439,7.6188-4.69,6.89
		C178.5175,89.347,180.0809,87.0504,182.6452,85.4219C185.9452,85.8619,181.0552,87.5919,182.6452,85.4219z"/>
	<path fill="#33073B" d="M194.1752,86.0719C196.5561,79.71,192.2845,90.2312,194.1752,86.0719
		C194.7852,84.4419,194.0252,86.4019,194.1752,86.0719z"/>
	<path fill="#33073B" d="M156.4952,89.1019c2.38,0.31,2.91,5.26-0.21,3.98C153.9852,93.4019,156.4652,90.2319,156.4952,89.1019z"/>
	<path fill="#33073B" d="M226.6452,89.4019c3.19,0.09-0.03,4.54-1.98,3.49C224.5752,91.5419,226.2552,90.6919,226.6452,89.4019z"/>
	<path fill="#33073B" d="M392.9852,88.8019C399.7425,90.4252,395.7354,94.254,392.9852,88.8019
		C394.7752,89.2319,393.5552,89.9319,392.9852,88.8019z"/>
	<path fill="#33073B" d="M213.5652,90.1819c5.6037-0.5337-5.7698,9.612-7.3,9.92C206.1434,96.7136,212.242,92.6329,213.5652,90.1819
		z"/>
	<path fill="#33073B" d="M449.3352,90.1919c-0.1244,0.0138,7.2175,6.1887,7.01,7.95
		C447.219,99.054,444.8824,96.404,449.3352,90.1919C449.7852,90.1419,447.8652,91.7519,449.3352,90.1919z"/>
	<path fill="#33073B" d="M196.6552,93.2219c10.5047-3.2531-16.011,21.7326-15.43,10.03
		C183.2263,104.6737,196.3081,96.309,196.6552,93.2219C198.2052,92.7419,196.4652,94.9119,196.6552,93.2219z"/>
	<path fill="#33073B" d="M393.4952,93.9619c2.2733,2.4628,8.6307,10.3682,12.78,10.94c-2.9329,4.0466-7.1997,12.2457-10.74,13.17
		c0.8563,0.6541-6.4791-14.8662-7.16-12.99c1.7659-1.193,12.2844,2.6404,12.98,0.08
		C393.7691,98.9713,394.5863,101.4635,393.4952,93.9619C395.4152,96.0419,393.7352,95.6119,393.4952,93.9619z"/>
	<path fill="#33073B" d="M245.1252,100.8619C243.4573,89.4702,245.6997,110.0502,245.1252,100.8619
		C244.6552,97.6519,245.1752,101.6619,245.1252,100.8619z"/>
	<path fill="#33073B" d="M403.2652,97.2319c4.4883-0.4489,4.6508,1.6057,3.95,5.85
		C403.4964,103.9856,402.1797,102.0356,403.2652,97.2319C403.7652,97.1819,404.6652,98.9419,403.2652,97.2319z"/>
	<path fill="#33073B" d="M204.0152,99.8019c1.7205-1.8638,0.43,7.4429-0.54,9.7
		C201.2699,110.8307,203.9062,99.8675,204.0152,99.8019C206.0552,97.5919,201.6552,101.2219,204.0152,99.8019z"/>
	<path fill="#33073B" d="M248.4652,100.1819c3.0103,0.2788,1.022,2.6425,2.96,6.03c-5.2894-1.1019-7.8375,14.2265-10.05,15.71
		c-1.7244-4.1112-1.0511-7.2845,2.02-9.52c-6.5127,0.9899-16.6076,4.4651-23.08,9.55c-1.2938-3.2038,1.2053-4.9646,2.66-8.07
		c2.4662,8.3069,17.0908-11.9151,22.15-13.02c1.0562,3.6251-0.5804,6.0485-4.91,7.27
		C244.0343,106.4864,246.7843,103.8364,248.4652,100.1819C249.0052,100.2319,247.5952,101.3319,248.4652,100.1819z"/>
	<path fill="#33073B" d="M213.4552,104.5619C221.9576,104.1471,209.6573,110.7266,213.4552,104.5619
		C214.2752,104.5219,212.7652,105.6819,213.4552,104.5619z"/>
	<path fill="#33073B" d="M217.5252,105.0419C221.5152,112.859,215.4444,108.7521,217.5252,105.0419
		C217.5252,105.0419,216.4652,106.9319,217.5252,105.0419z"/>
	<path fill="#33073B" d="M406.2752,104.9019c2.3466,2.0267,4.6933,4.0533,7.04,6.08
		C408.6443,111.5424,407.6762,110.9441,406.2752,104.9019C409.1952,106.2219,406.5952,106.2819,406.2752,104.9019z"/>
	<path fill="#33073B" d="M445.4052,106.0019c4.3823,0.2922,4.3699,5.4666,10.28,4.81
		C451.8906,117.859,452.2361,116.1168,445.4052,106.0019C445.8552,106.0319,447.4852,109.0819,445.4052,106.0019z"/>
	<path fill="#33073B" d="M386.2252,113.5719c-5.074-10.3071,11.0571,12.0275,15.01,14.46c0.3155-0.2954,3.8548-7.433-1.12-5.16
		c13.4279-7.5095,27.8793,15.9638,40.42,20.98c-8.4044,1.2686,21.1103,16.6345,0.59,15.26c5.5184,0.4536,7.7151,3.1611,6.59,8.1225
		c0.181,2.6541-15.842-1.2878-14.29,2.7075c3.8802,0.3622,7.1834,0.9436,10.96,0.29c-0.5139,23.5854,0.0219,11.8083-12.06,10.78
		c-0.2196,2.1688-2.8981,13.2225,3.79,13.14c2.6291-6.3851-1.1959-3.151,6.1,0.79c-10.1199,1.3799-0.9809,7.6519-1.73,14.31
		c-5.4285,4.192-7.4163-12.4494-5.92-12.37c0.5436,1.2277-3.2734,0.7524-5.04,3.43c3.1931-7.9258-8.608-5.8414-8.725-8.6837
		c0.4209,10.224,4.2653,2.3846,5.725,10.3638c-4.2516-0.4557-7.9983-2.139-11.24-5.05c8.0745,7.8888,10.3067,8.6328,17.03,14.04
		c-14.8899-0.3307-6.1583-8.2447-7.97,5.18c-10.7741-1.2615-10.2458-12.0057-17.96-13.24c3.1192,8.9382,8.1465,9.1028,11.21,16.96
		c-8.112,5.408-3.6299-3.2484-9.95-1.92c2.261,14.3588-24.0317,5.5445-29.37,6.07c-1.3325,9.189-4.5136,6.8309-9.99-2.8
		c8.5665-1.9869,9.5464,1.0631,16.39-2.23c-0.2638,0.8104-3.6855-12.536-3.61-12.28c4.3156-0.9211,6.7505,9.8338,7.4,10.23
		c3.278-0.6556,6.1216-9.9641,5.72-9.96c0.8764,2.5652,7.8852,12.6345,8.7487,10.7812c7.0715-15.1759-5.7524-16.9044-7.8387-15.8613
		c4.5705-2.2853-22.522-16.5937,3.49-16.86c-0.0841,4.0367,17.9295,16.5188,17.8412,18.4238
		c0.6971-15.0394-36.5579-22.6812-31.0912-38.7238c6.4245-0.1606,6.5205,5.5571,10.93,10.53c-2.1514-5.0366-0.0748-6.4832,6.23-4.34
		c-4.7384-4.0337-37.4455-13.2012-25.34-0.69c1.656-7.4326,0.4503-5.3563,7.44-5.48c-3.1976,3.6254-12.5159,22.3071-4.06,25.33
		c-3.0449,1.0853-12.7675-10.8039-14.14-4.91c-6.2863-13.4455,25.7115-50.8911,24.05-51.27c-1.9275-2.0906-4.0741-2.2739-6.44-0.55
		c-1.1112-6.3106,0.0454-8.0773,3.47-5.3c-2.3995-7.1986-4.5068-5.7052-1.44-10.05c0.6946,3.907,7.7157,8.7773,7.65,11.01
		C400.4449,126.152,373.6369,113.3797,386.2252,113.5719 M408.3252,127.0319c-1.6505,0.2751-1.4689,10.8555-3.06,12.82
		c4.8386,1.4035,22.0713,2.3975,22.1512,12.035c0.0029,0.3558-32.8643-3.8543-36.2313-4.585
		c-0.0441,1.0203,17.4953,21.5092,20.565,24.3862c-1.5308-1.4347-0.2653-19.5227-11.305-19.9262
		c0.3937,5.7275,33.1165,6.1781,39.65,9.18C443.7529,146.1429,406.9593,132.611,408.3252,127.0319 M393.2852,160.0519
		C392.1982,177.5012,406.2949,158.0665,393.2852,160.0519 M414.2852,163.9919c-0.16,2.48,2.31,3.91,4.08,5.18
		C418.5152,166.6919,416.0552,165.2619,414.2852,163.9919 M414.2552,170.7819c-0.22,2.58,2.26,4.1,4.11,5.39
		C418.5352,173.5919,415.8752,172.3119,414.2552,170.7819 M413.4952,185.3319
		C412.8902,187.4768,416.7328,186.1118,413.4952,185.3319 M418.3552,181.9719c1.312,3.982,3.9887,6.3586,8.03,7.13
		c-3.2998-4.6491-2.9665-5.3091,1-1.98C427.4966,182.1641,422.4547,181.8651,418.3552,181.9719 M412.2952,192.0519
		c-0.34,2.04,1.55,3.2,3.04,4.13C415.7652,194.1119,414.8452,191.5419,412.2952,192.0519 M412.3652,203.9719
		C416.2832,213.8261,417.3575,205.1209,412.3652,203.9719C413.0252,205.6319,413.6252,204.2619,412.3652,203.9719z"/>
	<path fill="#33073B" d="M191.2652,114.9819c9.763-5.8026-2.6549,9.3241-5.6312,5.0375
		C186.2856,120.9579,190.5835,115.4139,191.2652,114.9819C192.3252,114.3519,190.2552,115.6219,191.2652,114.9819z"/>
	<path fill="#33073B" d="M246.2752,121.7719c-0.7209,0.1429,13.2601-5.4371,13.29,0.44c-5.4129,3.0639-9.2957-1.8831-12.35,6.93
		c3.8053-2.9683,6.272-2.3183,7.4,1.95c-13.6534,7.2204,2.8316,18.8449-7.4,34.07c3.4359-0.1407,34.3047-20.1247,25.99,10.96
		c-0.7095-2.4983-2.2728-3.4949-4.69-2.99c0.9339,5.4006,4.1573,8.6806,9.67,9.84c0.416-4.5758-1.1404-5.1839,3.14,0.29
		c-0.9317-16.125,38.3958,3.244,45.02,8.97c-13.7349,4.5156-6.3344,24.0227-9.11,24.85c1.8729-3.0258,4.5729-4.0592,8.1-3.1
		c1.7901-6.2345-9.4626-12.7278,1.21-15.28c0.2569,3.1747-1.1997,5.2913-4.37,6.35c10.596,1.67,22.6362-47.4812,35.5-14.9187
		c3.6844,9.3264,14.8144,12.7316,13.54,23.0687c-0.2875-0.2082-10.8058-4.6861-8.8013-7.2962
		c-1.6594,2.1608,5.4431,11.0112,0.9612,12.3162c-2.7533-6.5585-6.39-12.5818-10.91-18.07c1.3315-2.1286,3.2778,23.3575,2.71,18.91
		c-3.9805,1.2449-4.6313-26.5518-11.93-30.91c-0.831-0.3055-10.5076,14.7998-10.62,17.89c4.576-1.2848,5.9225-1.7269,7.88-6.19
		c9.4845,0.0317-14.8383,25.7025-14.11,21.09c14.071,14.2215,26.6724,32.4921,24.49,55.26c-2.0848-8.7738-5.083,14.5437-11.48,14.99
		c-0.6864,37.2139-17.9231-8.6791-19.29-10.04c-2.5581,1.0704,18.7698,1.5946,16.0279,2.0108
		c9.7165,12.8579-8.3487,100.3777-17.9041,96.4192c-14.704-6.0914-10.4919-92.9544-28.8839-93.54
		c0.1764-23.7436,9.3443-35.8225,10.25-53.03c0.345,9.2591,4.9217,11.4124,13.73,6.46c-0.7652,1.7674-2.1318,2.3674-4.1,1.8
		c7.9691,4.1431,21.379,5.8525,24.9912-5.1775c0.8567-2.6159-5.3232,2.3099-4.1913-3.2625c-7.0945,0.8465-9.2545,2.9999-6.48,6.46
		c-8.0344,1.5408-5.5172-12.8173-14.33-4.26c3.8525-10.9064-4.6305-8.5062,5.23-15.93c-8.9551,1.0692-10.8377-22.601-21.94-15.95
		c3.0377,10.3142-2.0424,4.7078-5.2,12.92c-6.2085-0.046-2.6975-6.1774-4.865-5.3825c-7.7601,2.8461-5.6459,15.1882-2.055-4.6175
		c-6.8819-1.249-1.4614,30.7136-22.3913,27.7925c-5.4616-0.7623-30.1393-7.8154-27.5988-14.8725
		c-31.1108,4.2357-3.2777-19.9574-9.66-21.76c-4.0669,6.1511-8.009,6.8577-14.45,8.79c0.2353-10.0033,9.2654-13.1864,4.33-19.15
		c-2.2218,5.457-5.4036,9.1961-11.42,9.24c-2.4829-11.2209,16.5717-20.8824,15.02-26.66c-8.7901-0.5494-14.3947,7.4909-20.96,6.46
		c-0.1241-1.3465,34.397-27.0124,40.57-27.75c2.3004-5.4119,1.0837-7.1986-3.65-5.36c0.7426-9.4676,9.5334,2.4362,9.15,4.27
		C238.6024,147.4555,243.4459,125.2201,246.2752,121.7719 M242.0552,148.9919c-4.3315-2.3553-21.4288,12.0412-19.73,18.09
		c1.2648,0.4184,26.2285-14.1595,26.0475-13.01C248.448,153.5933,241.9153,146.1104,242.0552,148.9919 M226.3852,154.0919
		c-4.3151,2.1245-7.0551,5.5112-8.22,10.16C221.3487,161.2235,224.0887,157.8368,226.3852,154.0919 M236.4552,162.0519
		C233.9088,178.1802,241.1828,160.4675,236.4552,162.0519 M216.3152,167.0919c2.38,0.79,2.25-1.13,1.85-2.84
		C216.4052,160.7319,213.5252,167.3519,216.3152,167.0919 M250.2052,168.0619c-3.5869,2.4932-4.8352,5.7436-3.745,9.7512
		c1.6264,0.6836,9.2176-1.1741,7.665,1.6788c-6.5562,5.461-14.0031,17.7854-21.89,23.67c15.5237-0.621,12.5835-15.09,21.2-17.91
		c-0.2542,3.5082-13.3408,33.829-11.14,34.08c2.1029,5.8566,5.4709-1.703,8.09-1.21c-3.8489-1.9693-5.2489-4.2993-4.2-6.99
		c0.0258-0.0026,14.7749-4.9919,15.15-3.02c0.3557-1.0549-5.2574-4.1389-2.75-11.87c3.5775,2.4116,24.7473,4.0838,23.79-0.95
		c-3.8039-3.633-7.7439-3.9663-11.82-1c-1.7129-5.6498-0.1507-15.2647-11.33-23.25c4.5843,3.8109,7.608,3.865,9.0712,0.1625
		C270.0577,166.2304,252.7771,162.3112,250.2052,168.0619 M220.5752,167.4119c-2.3566,2.6807-4.4599,5.5507-6.31,8.61
		C221.8007,173.8181,219.5897,168.7444,220.5752,167.4119 M232.5452,171.0219c-1.2239,7.2417-17.7994,18.2507-15.27,25.08
		C217.451,196.0319,240.297,173.148,232.5452,171.0219 M221.5252,177.3119c-2.0388,3.1549-4.4055,6.0315-7.1,8.63
		C218.5339,190.9147,223.0242,176.6781,221.5252,177.3119 M237.3452,180.0919c0.04,2.19-0.82,5.25,1.92,6.11
		C238.8352,184.1619,240.8952,179.1919,237.3452,180.0919 M346.2752,185.1219c-1.07,3.02,5.28,4.64,4.06,0.97
		C350.6952,184.0019,347.4552,185.4919,346.2752,185.1219 M228.5152,187.1419c-0.26,2.04-0.73,4.03-1.18,6.04
		C229.5252,192.5119,232.2952,186.3219,228.5152,187.1419 M291.4252,194.0419c-3.4772,3.0234-7.575-2.1139-4.87,3.94
		c0.2334,0.0507,6.2651-2.0889,6.06-0.08C292.293,197.9678,297.142,178.0223,291.4252,194.0419 M278.2952,191.1319
		c-0.39,3.03,3.88,2.99,6.01,2.96C285.7552,189.7619,280.9452,191.2119,278.2952,191.1319 M298.2252,192.0519
		c3.0729,3.9818,17.8239,9.911,18.14,3.28C310.1274,195.2614,304.0807,194.168,298.2252,192.0519 M278.6352,200.4119
		C275.8711,200.5763,272.0763,202.644,278.6352,200.4119 M300.3252,200.0619c-0.7237,3.9989,1.6296,5.6789,7.06,5.04
		C305.9693,202.1124,303.616,200.4324,300.3252,200.0619 M266.3352,206.0519c0.4784-0.6688-6.8825,9.9264-6.63,15.86
		c1.0536,0.3888,8.566-8.2899,11.49-4.73C275.6447,207.8939,274.0247,204.1839,266.3352,206.0519 M308.5152,206.4319
		C307.8732,206.5228,305.8047,209.0173,308.5152,206.4319 M255.2952,212.0719c1.8896,5.8724,0.3495-4.4538,2.04,6.01
		C266.7395,219.5287,252.1948,205.2778,255.2952,212.0719 M320.6152,229.4319
		C312.9948,231.5237,321.0349,229.2891,320.6152,229.4319 M336.0352,244.6419c-12.8689-1.9373-59.7222,15.0474-29.61,18.38
		c-0.017,1.1081-16.196,11.0954-8.9,14.87c3.3919-0.8131,26.5766-7.0381,29.56-5.73c-2.9361,9.9561-0.7394,16.8795,6.59,20.77
		C338.232,283.9091,339.4958,240.5735,336.0352,244.6419 M345.6152,256.8119c1.7429-7.4274,0.1487,16.5656,2.37,10.6
		C346.6153,266.0661,346.6523,254.8478,345.6152,256.8119 M305.3052,286.0419c-0.0477-1.1049,11.0663,72.5945,14.995,71.54
		C334.5391,325.0819,309.4622,286.2864,305.3052,286.0419C305.4352,289.0519,309.2152,286.2719,305.3052,286.0419z"/>
	<path fill="#33073B" d="M227.8952,120.9419C228.4547,114.8801,225.8508,127.9913,227.8952,120.9419
		C227.9552,120.2919,227.6052,121.9419,227.8952,120.9419z"/>
	<path fill="#33073B" d="M215.1952,123.2019C222.3673,122.5691,221.1437,131.4064,215.1952,123.2019
		C216.8952,123.0519,215.4852,123.6019,215.1952,123.2019z"/>
	<path fill="#33073B" d="M379.5852,123.3719c4.5713-0.4259,1.0227,11.0991-0.91,11.65
		C378.1915,128.1384,375.7147,128.5471,379.5852,123.3719C381.1952,123.2219,378.6952,124.5619,379.5852,123.3719z"/>
	<path fill="#33073B" d="M212.1852,127.2919c7.0868-0.824,6.218,3.09,5.03,5.8
		C210.9972,134.1973,214.5388,128.9677,212.1852,127.2919z"/>
	<path fill="#33073B" d="M228.6052,128.9019c-4.9259,30.0764-29.5645,30.1604-52.48,31.79c2.1881,1.6408,4.4348,2.0442,6.74,1.21
		c-2.5366-2.5494-1.9799-4.6894,1.67-6.42c-11.6619,4.168-8.6764-8.2377-6.21-12.27c-4.0202,0.2825-7.3969-1.0609-10.13-4.03
		c10.1046,0,15.4385-0.5558,23.15-0.13c-0.5999,5.1996-9.1377,5.5937-9.03,10.87c10.3852,3.8784,13.6842-6.5536,20.86-6.89
		c-0.6126,5.452-17.2536,10.0332-15.8,16.78C204.344,158.3009,219.6821,142.8607,228.6052,128.9019z"/>
	<path fill="#33073B" d="M253.1952,133.3219C260.4635,129.624,241.7577,138.8773,253.1952,133.3219
		C253.7652,133.0319,252.8452,133.4919,253.1952,133.3219z"/>
	<path fill="#33073B" d="M253.1752,135.9419C264.9754,134.972,251.1729,139.8685,253.1752,135.9419
		C254.6352,135.8219,252.4052,137.4519,253.1752,135.9419z"/>
	<path fill="#33073B" d="M254.2552,169.5719C261.7931,169.5069,254.0235,173.9767,254.2552,169.5719
		C255.4152,169.5619,254.2352,169.9519,254.2552,169.5719z"/>
	<path fill="#33073B" d="M188.3152,173.2319C196.3826,179.2671,186.3088,177.4272,188.3152,173.2319
		C189.6252,174.2119,187.8752,174.1519,188.3152,173.2319z"/>
	<path fill="#33073B" d="M251.5252,174.3719c1.26-1.72,5.74,0.39,2.92,1.68C253.4352,175.3019,250.4852,176.5219,251.5252,174.3719z
		"/>
	<path fill="#33073B" d="M383.1152,178.8719c3.2211-10.006-0.8701,1.2182,4.33,0.45c-4.5308-0.6173-6.2241,1.0094-5.08,4.88
		c0.8059-0.0471,6.0856-1.4779,6-1.17C388.8213,187.4256,370.7312,182.8901,383.1152,178.8719
		C383.5852,177.4119,381.2352,179.4819,383.1152,178.8719z"/>
	<path fill="#33073B" d="M358.3552,184.0019C355.6674,171.4973,369.8281,196.4772,358.3552,184.0019
		C357.8952,181.8619,359.3852,185.1219,358.3552,184.0019z"/>
	<path fill="#33073B" d="M386.5452,189.5619C399.0024,188.7061,374.2091,195.851,386.5452,189.5619
		C387.8552,189.4719,385.5252,190.0819,386.5452,189.5619z"/>
	<path fill="#33073B" d="M367.1552,191.9019c5.1611,1.5769,3.6579,2.9806,6.98,7.41c1.2916,2.0827,4.9565-6.9546,6.09-7.28
		c-0.8802,4.9278,0.7932,8.6711,5.02,11.23C377.6513,204.045,363.155,204.474,367.1552,191.9019
		C367.8752,192.1219,366.6652,193.4419,367.1552,191.9019z"/>
	<path fill="#33073B" d="M441.5252,201.2919c-2.5088,1.2718-2.8101-3.5456,2.7-4.35
		C444.3242,205.8945,441.0628,206.165,441.5252,201.2919C437.9152,203.1219,441.3952,202.6619,441.5252,201.2919z"/>
	<path fill="#33073B" d="M299.9352,219.9019C299.7106,214.3817,303.4474,213.8986,299.9352,219.9019
		C299.8652,218.1819,299.9352,219.9019,299.9352,219.9019z"/>
	<path fill="#33073B" d="M354.6552,224.3419c2.2,0.88-1.53,4.29-2.72,2.07C350.5252,224.7419,353.8252,225.0019,354.6552,224.3419z"
		/>
	<path fill="#33073B" d="M342.1152,230.6719c4.5933-1.0484,12.1614,0.0696,10.68,6.4
		C349.3168,234.6134,345.4288,233.5072,342.1152,230.6719C343.0352,230.4619,343.0852,231.5019,342.1152,230.6719z"/>
	<path fill="#33073B" d="M309.2252,235.0319C308.7263,236.162,299.886,227.9381,309.2252,235.0319
		C307.4152,239.1319,309.2252,235.0319,309.2252,235.0319z"/>
	<path fill="#33073B" d="M357.2852,238.9219c-2.42,0.2-4.62-3.32-0.94-2.94C358.8952,235.1319,358.7052,237.7319,357.2852,238.9219z
		"/>
	<path fill="#33073B" d="M316.4652,253.6419c5.3085-0.8802,10.6218-1.7302,15.94-2.55c4.6064,25.1326-23.5258,3.7373-24.18,3.06
		C311.061,255.04,313.8077,254.87,316.4652,253.6419C322.1652,256.6019,315.3452,256.5419,316.4652,253.6419z"/>
</g>
<rect x="0" y="0" fill="none" width="646.4617" height="388.742"/>
</svg>
