<?xml version="1.0" encoding="utf-8"?>
<!-- Generator: Adobe Illustrator 17.0.0, SVG Export Plug-In . SVG Version: 6.00 Build 0)  -->
<!DOCTYPE svg PUBLIC "-//W3C//DTD SVG 1.1//EN" "http://www.w3.org/Graphics/SVG/1.1/DTD/svg11.dtd">
<svg version="1.1" id="Layer_8" xmlns="http://www.w3.org/2000/svg" xmlns:xlink="http://www.w3.org/1999/xlink" x="0px" y="0px"
	 width="646.4617px" height="388.742px" viewBox="0 0 646.4617 388.742" enable-background="new 0 0 646.4617 388.742"
	 xml:space="preserve">
<g id="layer-8--33073bff">
	<path fill="#33073B" d="M97.2752,43.0819c14.4667,0,28.9333,0,43.4,0c-3.3088,5.1698-20.6301,3.0006-26.27,2.92
		c11.2508,17.1281,47.6139-11.7143,50.74,2.14c-3.8468,2.8479-18.6184,4.9279-9.68,5c-1.0679,3.2149-30.6583,5.2007-26.04,9.08
		c-2.791-0.3749-9.9919-4.9475-11.17,1.66c15.1678,0.6166,35.958-6.929,42.95,0.3c-9.757,2.5959-19.8933,6-32.92,6
		c-0.1885,3.9833,1.4448,4.9999,4.9,3.05c-2.3401,2.9557-5.3434,4.9024-9.01,5.84c14.2823-3.2857,21.8953-3.2772,38.36-9.84
		c-1.196,4.747-24.7695,15.5117-28.23,16.92c3.2013,8.8395,19.9327,3.5249,22.98,2.73c-2.5996,5.6472-7.1412,6.4014-12.77,7.23
		c2.2373,2.9726,5.1139,5.1759,8.63,6.61c-3.6842,1.3784-7.3142,2.8917-10.89,4.54c13.0451,18.5949,58.2765-24.7807,61.75-19.57
		c-13.6357,14.8652-78.8468,45.6642-82.02,7.58c18.9202-5.972-14.0821-17.8807-11.87-34.89c3.2544-0.0559,6.0378-1.2126,8.35-3.47
		C117.3204,55.2115,99.9153,44.2358,97.2752,43.0819 M128.6552,54.5119c-3.1633,0.2167-6.3267,0.4333-9.49,0.65
		C122.5571,59.6289,127.9701,54.8658,128.6552,54.5119 M126.5252,81.3719c-0.94,2.01,2.42,2.27,3.67,2.34
		C130.8152,82.0019,127.8252,80.6319,126.5252,81.3719 M131.5552,91.1919C127.4997,100.5583,141.2084,88.5861,131.5552,91.1919
		 M136.3452,100.9819c-3.9047-0.2214,4.8276,2.3536,6.7912,2.1837C145.9606,102.9213,136.8363,99.0763,136.3452,100.9819
		C131.0552,100.6819,137.0152,98.3819,136.3452,100.9819z"/>
	<path fill="#33073B" d="M218.2952,43.0819C226.8437,45.6071,218.3182,44.2303,218.2952,43.0819
		C218.2952,43.0819,218.3052,43.5819,218.2952,43.0819z"/>
	<path fill="#33073B" d="M247.1352,43.0819c10.4211,1.3438,43.8372,43.5705,30.16,53.34c-3.4913,0-2.2599-3.5289-3.7875-3.7487
		c-0.2094,1.455-0.9269,2.2846-2.1525,2.4888c-2.307,1.0592,4.4396,7.8362,3.07,7.97c1.0727,0.2587,9.7945-4.117,10.14-8
		c7.4997-2.2802-4.7957,12.423-4.42,10.92c29.7088-3.5124-3.3402,32.01,22.01,33.96c16.8759-16.2338,10.4829-25.8872,41.12-27.01
		c-0.3261,15.9621-1.8032-2.3363,11.21,15.93c-0.2549-0.1161-13.438,7.8058-12.62,7.34c-4.4123-2.8831-16.7003-10.3316-22.73-10.23
		c8.9962,5.0019,4.8391,7.5263,4.1,18.86c-4.088,0.6408-7.4146-0.6492-9.98-3.87c0.5074,3.8207,3.3077,18.5139-2.15,17.71
		c-15.6138,3.5507-50.3032-51.0385-51.9625-60.9262c-0.5576-3.3227,9.8857-0.4868,4.0525-14.5438
		c-3.437,1.3583-11.1215,6.5072-11.61,9.17c3.076-4.9888,0.3462-8.6266,12.56-11.68c-0.3233,0.7561-1.8907-6.9311-1.81-6.57
		c-1.3827,3.9073-3.9594,3.4573-7.73-1.35c0.2277-3.0082,1.3743-5.5949,3.44-7.76c0.3796,3.9997,2.423,6.7397,6.13,8.22
		C261.8367,68.771,248.6561,49.3029,247.1352,43.0819 M275.2752,115.2019c-0.0026,0.012,3.3118,9.9877,3.22,11.85
		c0.8813,0.2253,10.3701,1.4992,11.5912-1.5163C293.3306,117.5247,276.0628,116.2448,275.2752,115.2019 M308.4252,133.3319
		c2.0843,3.3024,2.9123-7.1467,2.93-7.3C308.392,127.5655,307.4153,129.9988,308.4252,133.3319 M305.3652,146.0919
		C305.1425,153.991,319.1698,145.0915,305.3652,146.0919C305.3452,146.8019,307.4352,145.9419,305.3652,146.0919z"/>
	<path fill="#33073B" d="M353.0652,43.0819C362.663,46.4081,353.6762,46.8157,353.0652,43.0819
		C353.0652,43.0819,353.3352,44.7319,353.0652,43.0819z"/>
	<path fill="#33073B" d="M376.6952,43.0819c7.6655,5.3541-14.0179,96.1591-24.74,92.38c4.7474-8.576,9.4543-10.9079,11.09-21.54
		c-11.8784,7.3475,12.3721-13.2766-9.68,4.16c-3.1859-2.9697-0.7377-10.3576,2.85-8.82c-2.6052-2.6463-1.8619-4.733,2.23-6.26
		c-17.2758,5.1941,10.0659-48.4115,12.82-47.95c-1.6232,2.9625-1.3032,3.8958,0.96,2.8c0.6951-11.2219-1.2608-5.3104,4.25-6.79
		C373.5294,48.0652,373.6027,45.4052,376.6952,43.0819 M364.5752,91.0419c-1.7461,3.4761-2.5161,7.1561-2.31,11.04
		C362.9448,102.1665,368.6145,92.6152,364.5752,91.0419 M361.4152,105.9819c0.53,2.32-0.18,4.8,1.03,6.97
		C365.3152,111.8819,364.0452,107.0919,361.4152,105.9819z"/>
	<path fill="#33073B" d="M432.5652,43.0819c1.8815,1.9831,6.6554,0.3559,7.88,4.75
		C436.9423,47.2612,429.0868,50.4114,432.5652,43.0819z"/>
	<path fill="#33073B" d="M438.9952,43.0819c3.4933,0,6.9866,0,10.48,0c-0.0612,2.4541-0.7245,4.8008-1.99,7.04
		C445.4176,44.8422,443.0053,46.1258,438.9952,43.0819z"/>
	<path fill="#33073B" d="M486.3152,43.0819c13.3567,0,26.7133,0,40.07,0c-0.129,3.1559-1.7272,3.7492-1.22,13.52
		c-11.0239,1.2575-7.8186,3.5781-12.56,7.68c-0.6948-6.0783-8.9422-3.4997-15.31-5.16c1.2318,6.5251,18.6917,3.4341,17.06,10
		c-17.7422,3.4668-47.4943-11.2409-58.8275-5.8625c-1.3451-1.0764-2.6959-2.1456-4.0525-3.2075
		c8.4778-9.8562,3.9026-7.5681,5.71-12.77c20.5578,2.5697,40.8818,5.2179,61.34,6.76
		C513.2295,51.1377,486.3152,47.8521,486.3152,43.0819 M461.2452,53.1219c4.1967-1.0912,5.3785-2.9704,9.09,0.17
		c-1.9432,0.991-2.9466,2.571-3.01,4.74c-0.4419-0.144,9.6423-2.2183,8.94-5.73C472.9325,51.5465,462.8835,47.7121,461.2452,53.1219
		 M490.5052,53.4119c-1.56,2.58,4.5,4.24,3.67,1.11C492.6552,55.1619,491.8352,53.4419,490.5052,53.4119 M474.2652,56.3619
		c-1.201,4.5839,9.3167,8.6935,12.05,6.72c-3.0559-1.3761-3.8951-3.3623-2.5175-5.9587
		C480.6617,58.9344,477.4842,58.6807,474.2652,56.3619 M487.4252,61.2919c-2.2007,5.9113,15.4984,7.5828,17.97,7.83
		C503.1377,62.3824,484.2518,62.9833,487.4252,61.2919C486.2152,64.5419,489.3952,60.2419,487.4252,61.2919z"/>
	<path fill="#33073B" d="M405.2252,47.1119c4.4007,0.7753,26.1743,12.6996,25.09,18.1
		C424.3501,63.1683,406.5262,56.0179,405.2252,47.1119C407.1552,47.4519,405.7452,50.6719,405.2252,47.1119z"/>
	<path fill="#33073B" d="M357.6452,49.4819C357.9006,49.2853,347.3777,55.724,357.6452,49.4819
		C359.1652,48.3119,355.8852,50.5519,357.6452,49.4819z"/>
	<path fill="#33073B" d="M388.2652,51.3119C404.5672,48.1954,384.719,60.7395,388.2652,51.3119
		C390.9852,50.7919,387.4452,53.4919,388.2652,51.3119z"/>
	<path fill="#33073B" d="M186.0952,53.2019C192.1472,44.5733,188.0242,64.052,186.0952,53.2019
		C187.1052,51.7619,186.1752,53.6519,186.0952,53.2019z"/>
	<path fill="#33073B" d="M425.2652,52.1219c3.4951,0.2942,6.545,1.5909,9.15,3.89c-5.0591-1.9317-0.7937,2.5931-2.07,2.05
		C426.0793,59.6389,423.7194,57.6589,425.2652,52.1219C427.7952,54.8719,425.8752,53.8319,425.2652,52.1219z"/>
	<path fill="#33073B" d="M247.3752,54.1719c7.5473-2.376,7.1531,4.2859,7.93,8.85
		C248.9075,59.4084,253.4373,61.905,247.3752,54.1719C249.5352,53.4919,248.9352,56.1619,247.3752,54.1719z"/>
	<path fill="#33073B" d="M441.2652,53.9619c2.6096,2.5163,5.6362,4.2497,9.08,5.2
		C444.8544,58.8211,441.8139,59.7931,441.2652,53.9619C442.6452,55.7119,441.3452,54.8119,441.2652,53.9619z"/>
	<path fill="#33073B" d="M272.3952,55.0119c3.818,1.4557,5.1047,4.179,3.86,8.17C275.1544,61.7326,273.5346,55.843,272.3952,55.0119
		C276.4552,55.1619,274.9452,56.8719,272.3952,55.0119z"/>
	<path fill="#33073B" d="M347.9052,62.7619c3.4754-7.6128-5.9711,17.7202,2.76,19.72
		C350.2402,84.2256,334.8323,87.615,347.9052,62.7619C348.5352,61.3819,345.1752,67.9519,347.9052,62.7619z"/>
	<path fill="#33073B" d="M164.5752,63.6419C175.7618,63.2326,156.5456,63.6419,164.5752,63.6419
		C166.2152,63.5819,163.3552,63.6419,164.5752,63.6419z"/>
	<path fill="#33073B" d="M213.5852,63.2619C207.2766,64.6389,213.907,72.8748,213.5852,63.2619
		C215.5552,62.8319,213.6652,65.6519,213.5852,63.2619z"/>
	<path fill="#33073B" d="M415.5052,68.2019C422.8294,58.7265,410.4101,73.1085,415.5052,68.2019
		C416.9352,66.3519,415.2352,68.4619,415.5052,68.2019z"/>
	<path fill="#33073B" d="M444.0752,69.7519c0.343-0.8248,65.2552,16.1759,65.6,16.17c-2.0525-1.6863,7.2932,10.891,7.67,10.52
		c-16.6645-2.6592-22.4807,10.9936-34.01,12.19c-0.3623,1.2652,38.8396-3.9277,47.93-2.52c0.0991,4.8527-8.7875-0.0381-12.03,3.94
		c4.03-2.4275-0.7048,6.5162-0.86,8.11c-7.286-11.3745,0.1232-2.2344-2.07-9.06c-3.9597-1.0209-7.603-0.3909-10.93,1.89
		c-0.8211-0.6446,13.6442,20.73,13.88,22.16c-3.5791,0-39.0662-13.3726-36.96-11.06c3.1308-0.988,5.8708-2.598,8.22-4.83
		c-8.4049-0.0994-11.6504-7.4465-18.25-11.12c-0.4035-0.0842,18.677-1.6004,19.8037-5.53c0.9204-3.2097-10.2358-5.6627-10.6938-5.63
		c-1.2415-3.212,1.2094-10.9012-14.19-11.85c2.2234-2.0265,1.5801-3.0698-1.93-3.13c0.2246,4.4067,9.2243,7.6083,11.29,12.03
		c-5.2071-4.6619-7.0204-4.9052-5.4399-0.73c-9.2711-1.3381-13.1739-14.9737-24.78-14.2c-0.6242-7.8652,8.3652-1.9658,10.12-2.07
		C453.1148,70.6926,448.9915,68.9325,444.0752,69.7519 M457.5052,75.4219c-0.79,1.98,2.09,3.41,3.66,3.29
		C461.5852,76.9919,458.7552,75.8019,457.5052,75.4219 M487.2152,88.0619c1.58,1.67,3.72,3.39,6.2,3.05
		C492.3952,88.5019,489.8553,87.5419,487.2152,88.0619 M502.6053,112.3019c-1.26,0.98-2.48,2.87-2.0601,4.47
		C502.1252,116.9119,504.2253,113.0219,502.6053,112.3019 M494.6053,113.2019
		C494.6605,120.2909,493.0606,113.7277,494.6053,113.2019C494.6252,115.7619,496.9552,112.4019,494.6053,113.2019z"/>
	<path fill="#33073B" d="M523.7152,70.2919c2.8967-1.0867,5.7933-2.1733,8.69-3.26
		C531.9974,91.0728,510.3045,66.9828,523.7152,70.2919C526.5552,69.0219,519.8652,69.3419,523.7152,70.2919z"/>
	<path fill="#33073B" d="M406.4152,67.9619c6.325-0.144,8.955,2.2693,7.89,7.24C407.8161,71.0827,409.7062,70.407,406.4152,67.9619z
		"/>
	<path fill="#33073B" d="M538.2552,69.9019c-1.8,1.39-5.74-0.42-2.81-2.29C536.8052,67.7019,537.6052,68.8519,538.2552,69.9019z"/>
	<path fill="#33073B" d="M97.2852,69.1919c3.4681,1.1443,11.4605,2.3296,12.22,6.67
		C99.1816,80.0765,95.1083,77.8532,97.2852,69.1919C99.2552,69.8419,97.3052,70.9119,97.2852,69.1919z"/>
	<path fill="#33073B" d="M183.3052,72.0719C199.0059,70.8086,175.8072,73.0091,183.3052,72.0719
		C185.0452,71.9319,182.8252,72.1319,183.3052,72.0719z"/>
	<path fill="#33073B" d="M174.0552,72.7219c2.14-0.22,4.3,0.1,6.42-0.29C180.2552,76.4919,176.0352,74.0119,174.0552,72.7219z"/>
	<path fill="#33073B" d="M405.2952,72.1419C416.9983,79.1909,405.4172,74.8262,405.2952,72.1419
		C405.2952,72.1419,405.3152,72.5819,405.2952,72.1419z"/>
	<path fill="#33073B" d="M198.4952,73.2319C200.2313,77.0167,197.9612,77.6914,198.4952,73.2319
		C198.4952,73.2319,198.2952,74.9019,198.4952,73.2319z"/>
	<path fill="#33073B" d="M399.2252,74.0519c-0.9225,0.033,14.3421,3.1699,7.89,5.87
		C403.4102,79.4523,400.7802,77.4956,399.2252,74.0519C400.9052,73.9919,401.3452,76.3519,399.2252,74.0519z"/>
	<path fill="#33073B" d="M522.3652,78.2819c12.1617-2.3023,39.0309-4.8974,35.83,3.61c-14.7289,7.5542-24.4785,12.7903-39.92,19.29
		c-1.0811-7.7294,26.3963-19.276,28-20.74C543.8588,80.1767,522.3981,78.3752,522.3652,78.2819
		C529.2852,76.9719,522.5452,78.7919,522.3652,78.2819z"/>
	<path fill="#33073B" d="M110.2752,76.2319c4.8698,2.31,15.1321,11.3661,14.11,12.18c-8.2105-1.3776-8.7696-4.1844-14.02-3.16
		C110.3352,82.2452,110.3052,79.2386,110.2752,76.2319C111.8352,76.9719,110.3052,79.2319,110.2752,76.2319z"/>
	<path fill="#33073B" d="M233.2852,80.9719c2.7362-2.2609,5.8029-3.9009,9.2-4.92c-7.3938,10.1247-5.7692,4.3871-4.34,13.2
		c0.4299-0.3809-6.626,5.6107-10.91,5.81C227.2393,93.6404,235.6004,80.5509,233.2852,80.9719
		C236.7852,80.0319,231.0852,81.3719,233.2852,80.9719z"/>
	<path fill="#33073B" d="M503.4952,78.9919c-2.2074-1.4186,6.8032-0.914,7.95-0.79
		C511.7903,83.4144,504.8277,78.94,503.4952,78.9919C499.6053,76.4919,505.0352,78.9319,503.4952,78.9919z"/>
	<path fill="#33073B" d="M432.5252,83.9319c0.9744-2.9019,2.9211-4.8485,5.84-5.84c5.157,0.9575-8.9039,12.4276,3.98,1.99
		c-0.9246,3.2211,2.5863,9.8176,3.68,6.73c4.0737-6.518-8.4776,4.055,6.33-3.75C455.8764,96.4306,436.0403,86.7237,432.5252,83.9319
		C432.4952,80.2919,435.2952,86.1319,432.5252,83.9319z"/>
	<path fill="#33073B" d="M491.4252,81.3619c6.5282-4.6001,7.2266-3.5292,6.84,1.73
		C494.6611,84.7738,491.9275,81.3658,491.4252,81.3619z"/>
	<path fill="#33073B" d="M401.4552,80.2119c1.44,0.52,3.45,0.79,2.9,2.84C401.7852,83.7619,398.5652,82.7519,401.4552,80.2119z"/>
	<path fill="#33073B" d="M238.9852,89.6519c2.4534-3.9129,5.9001-5.3662,10.34-4.36c-0.0678,2.0223-12.8497,10.651-14.88,10.96
		C234.2923,93.3467,234.5782,87.5533,238.9852,89.6519C241.8452,87.0119,238.7752,89.5519,238.9852,89.6519z"/>
	<path fill="#33073B" d="M425.2952,85.0319c6.7083,1.5696,10.485,5.7996,11.33,12.69c-2.6917-2.4948,28.8149,13.7626,20,17.24
		c-2.2685-2.61-17.4592-16.6169-27.04-21.14c0.4411,2.2792-6.6776,4.5472-11.33,1.4
		C425.8674,94.5299,428.0688,90.3739,425.2952,85.0319C432.1952,84.9619,425.5652,85.5519,425.2952,85.0319z"/>
	<path fill="#33073B" d="M157.6752,87.0319C164.6804,86.8041,158.9031,92.0854,157.6752,87.0319
		C158.9052,86.9919,157.9352,88.1019,157.6752,87.0319z"/>
	<path fill="#33073B" d="M213.4252,87.1419c-2.6961,4.868,1.6414,9.2327-5.96,12.78c0.6469,0.3708-1.4353-8.5139-2.9-4.48
		C206.5996,94.7693,212.8562,89.2109,213.4252,87.1419z"/>
	<path fill="#33073B" d="M385.2752,88.0219c33.1064,1.3026,25.9478,32.2168,15.7237,39.985
		c-3.624,2.7535,12.5161,8.5665,13.5563,8.865c-1.6237-0.9348-1.9571-2.0781-1-3.43c5.1231,1.0021,14.758,8.9132,21.9,10.62
		c-22.7914-18.9043-18.6559-17.8212-18.05-36c7.0154,2.6191,46.7339,29.7755,44.69,19.69c5.2009-2.2291,1.0038,19.3865-0.13,20.92
		c-7.6328-3.2618-3.7785-9.7411-3.66-12.69c-0.2358,0.8534-19.0343-8.7888-19.96-9.08c1.1643,4.2972,11.7809,10.9299,15.14,13.11
		c-2.4846-0.1702-33.3557-20.44-33.7988-16.5763c0.0656-2.2927,1.3119-3.174,3.7388-2.6437c0.3483,0.4469-8.4557-4.5508-8.66-4.53
		c-4.1288,8.7312,24.8482,25.8612,27.62,25.32c0.8349,16.2906-11.1661,16.5711-11.8,29.2c-3.722-0.6892-7.4621-0.16-11.2088,0.2088
		c-5.709,0.5619,10.2717,13.7076,13.1188,14.0813c-3.2704-1.4982-3.927-3.7749-1.97-6.83c1.3427-0.1392,2.6861-0.2726,4.03-0.4
		c-2.2083,5.9251-0.275,8.1951,5.8,6.81c-1.5948,0.0633-0.7537,4.5381-2.19,6.3c-5.1927-1.152-26.9407-13.09-29.02-11.82
		c1.8263,5.0034,9.6485,15.5404,15.1,16.11c-2.2055-2.3816-3.5289-5.0916-3.97-8.13c7.6507-2.4998,20.8304,32.3021-6.11,15.96
		c4.0145,17.3324-33.876,23.949-42.94-2.08c1.9262,6.3516,5.6295,8.3583,11.11,6.02c-1.3842-2.8123-15.91-21.3-20.605-22.7075
		c2.0794,0.6234,5.6718,21.0946,6.745,23.7875c3.7514,0.9596-22.3819-28.5813-22.17-21.94
		c-2.2261,9.1913,16.3342,16.8349,9.93,24.84c-6.3912,0.9941-6.8496-18.1366-11.74-21.8c-7.5579,15.8484-10.207,23.0817-28.31,23.96
		c0.9678,2.1981,15.274,3.6557,16.96,3.12c-4.7743,2.3568-7.0309,5.6135-6.77,9.77c18.3697-3.1007,4.2686,5.4189,14.07,5.09
		c-4.8846-14.1573,8.5191,8.0181,10.96,9.08c2.6422-0.353,6.8146-11.6225,8.84-10.27
		c-4.2107,17.2052-31.0772,123.4271-50.1358,127.64c0.2025-3.9522,11.6785-80.156,7.2558-82.51
		c-0.5939,4.0957,10.7304,85.9124,7.1909,82.51c-0.1744,5.0816-6.3715-66.0995-6.9322-57.5188
		c-1.4813,22.669-31.0361-15.0815-20.3487-13.9912c-4.0727-4.2103-3.8761-14.0506-6.86-20.06
		c-4.4547-0.5061-8.4781,0.5806-12.07,3.26c-0.1159-9.9131,6.9756-11.1375,14.84-10.22c-1.1954-14.1012,1.0203-36.2014,11.26-35.88
		c-2.6901-11.0597,8.05-1.5852,9.86-9.57c-8.183-1.5799-6.8837-9.547-1.84-7.94c-0.3524-3.5241-16.2707-13.888-18.39-24.72
		c-6.16,4.07-11.4279,52.9812-15.4,52.23c-2.9787-3.3629-5.3087-7.1496-6.99-11.36c4.3871,10.3954-7.7373,4.6261-7.0587,4.6825
		c-6.1837-0.5145-1.5409,5.534-4.3412,8.5675c0.1962-4.784-10.0731-6.0848,3.28-9.1c-2.7054-5.393-22.1667-7.6674-28-6.9125
		c-10.3076,1.3339-9.4122-8.5362-12.31-6.8875c2.2948-8.8515,12.3126-14.4333,15.97-23c7.7331,4.496-19.7218,15.263-21.43,16.93
		c-3.7866-3.8889,16.866-13.7784,11.7925-18.46c-1.5034-1.3873-8.0317,8.2782-11.2025,8.13c1.9282-1.9527,1.6415-3.8327-0.86-5.64
		c-5.5322,8.4765-5.1938,1.7483-7.32-0.14c-3.6736,4.4824-14.5008,10.026-13.9225,8.97c-2.5839,4.7181,5.07,7.3375-3.7675,9.48
		c1.8613-3.7971,9.8218-20.1147,10.5-25.54c-2.0829,2.5091-4.3629,2.8058-6.84,0.89c0.9576-12.8833,21.9108-18.1099,23.27-29.76
		c-8.1694,6.5004-24.4022,25.9612-36.18,15.18c8.1589-7.9718,8.3691-8.3023,7.95-0.28c8.4894-2.2261,25.5435-20.7797,29.02-19.07
		c19.0974-18.0298,8.2595-19.9763,15.11-32.49c31.0024,5.2609,5.8863,34.9448,3.07,48.85c1.9509-0.0439,3.5242-0.8172,4.72-2.32
		c0,9.1452-11.6126,14.9764-12.88,23.26c6.158-0.8133,17.1884-15.5121,22.15-19.26c8.0441,1.2808,0.4336,12.5082-3.1625,13.81
		c-5.1094,1.8496,3.7994-6.75,2.1325-6.7c-4.4965-2.5383-13.7981,8.53-10.405,12.39c2.2573,2.5679,1.7863-10.397,7.0075-3.6188
		c-1.9386-2.5167-9.7114,29.3371-9.7125,29.4287c3.2796-3.1856,4.9929-2.5423,5.14,1.93c2.7484-4.1449,6.415-7.1349,11-8.97
		c0.4912,3.1163,0.1212,6.1396-1.11,9.07c10.4918-12.1624,21.0899-39.94,36.91-46.79c3.0996,0.5123,25.8081,18.4863,29.94,21.7
		c-0.6011,1.0645,71.1767-36.1446,50.95-34.36c2.4051-8.9375,10.7565-9.778,15.08-13.72c-1.1374,2.6111-0.4107,4.2977,2.18,5.06
		c-0.55-14.9523,2.6052-15.187,4-23.01c-4.2829,0.9606-1.396-6.4519-10.17-16.8c5.2557,0,17.8567,17.0937,18.83,16.62
		c3.2964-7.8368-9.9185-6.5258-6.17-13.9c3.4953,1.0947,7.0753,1.4114,10.74,0.95c-5.8894-4.1102-11.7957-0.1141-18.33-2.9
		c-1.0359-6.1347,22.3171-0.7459,24.29-0.98C402.4272,101.3858,385.5888,94.8162,385.2752,88.0219 M425.2452,119.3019
		c0.19,2.72,3.99,2.95,6.07,3.88C430.9252,120.0219,427.9752,119.2719,425.2452,119.3019 M394.1952,135.2619
		c2.1223,9.0744-4.4365,3.972-3.8,5.69c7.5708,3.5135,22.2345,18.7189,22.96,28.15c1.0679-3.7177,3.0712-5.141,6.01-4.27
		c0.2862-1.0922-17.4729-17.9763-16.9788-24.41c-0.7776,10.125,37.8044,19.5945,30.9987,12.4312
		C428.7359,147.9596,403.1878,137.9322,394.1952,135.2619 M241.2852,143.0419c-4.7552,0.0694-9.1457,2.255-8.92,6.12
		c6.3064-1.6247,13.5104-5.8421,11.94,2.01c-3.6385,2.2917,10.3949-9.8173,5.26-8.94
		C245.6756,143.5057,240.6039,138.9538,241.2852,143.0419 M381.6052,151.6619c0.8302,0.2887,5.261,2.1291-4.21,2.38
		c-0.7193-1.9272,13.732,13.9469,14.0475,14.1525c-1.0046,0.6451-1.3634,1.5701-1.0763,2.775
		c-3.9925-0.8732-5.0991-8.793-7.8012-9.9275c-0.0089-0.0861-14.0421,16.8082-12.55,16.85c5.7156-0.5058,4.5971-3.8803,9.19-3.96
		c0.0831,10.3923,31.9114,21.5222,25.24,30.25c-1.6019-0.8576,4.7531-1.5705,4.245-0.8188
		c4.0083-5.9308-10.5864-15.7442-8.495-11.0513c-4.5469-1.9251-2.0838-8.3749-1.53-10.08c6.114-1.8115,10.737,19.5202,18.7,18.92
		c-2.4668-6.2394-22.6935-29.8782-12.97-27.22C405.0594,160.3652,380.2897,151.5178,381.6052,151.6619 M434.4752,147.4019
		c-3.8835,2.0262,4.9834,5.6518,5.5875,5.07C443.0342,147.5759,441.1717,145.8859,434.4752,147.4019 M389.5452,148.3919
		C384.1436,158.9378,400.9357,146.2519,389.5452,148.3919 M393.3452,153.0019c1.716,2.4554,5.7146,8.5707,9.95,8.13
		C402.7384,158.6958,396.081,153.3542,393.3452,153.0019 M213.3152,168.1719c4.2593-0.1469,7.7129-6.9469,8.07-10.16
		C217.3574,160.3072,214.6674,163.6938,213.3152,168.1719 M224.3752,173.2419
		C225.9475,164.8291,224.5299,174.3998,224.3752,173.2419 M287.6152,171.4019
		C280.8195,176.2559,286.9035,171.9973,287.6152,171.4019 M227.5152,174.2119c-3.0254,4.5381-13.5161,7.7215-14.22,14.93
		c9.3507-0.3585,6.0962,1.2057,11.84-2.35C220.3372,179.2386,231.9977,173.9006,227.5152,174.2119 M207.4852,180.2219
		C202.3449,185.7049,216.1775,187.4223,207.4852,180.2219 M351.3052,180.0119c0.83,2.03,1.91,4.29,4.09,5.14
		C354.8252,183.1119,353.8052,180.0519,351.3052,180.0119 M371.2652,180.2519C373.141,187.708,379.5946,183.0987,371.2652,180.2519
		 M298.3452,183.0919c0.1,1.72-0.97,4.99,1.96,3.98C300.1952,185.3519,301.2752,182.0719,298.3452,183.0919 M340.7452,184.9419
		c-3.2826,1.3908-5.4393,3.7842-6.47,7.18C348.5273,195.0268,338.3492,181.3679,340.7452,184.9419 M377.5152,183.0319
		c0.6846,2.8454-2.9378,9.8509,3.84,9.11C377.2169,183.2085,385.1266,186.8631,377.5152,183.0319 M277.6852,185.3819
		c-1.6789,12.6503-19.7016,13.9029-13.9188,22.635C267.4808,213.6256,287.3703,179.3705,277.6852,185.3819 M369.5152,184.4119
		c-0.64,1.7,1.77,4.11,3.48,3.48C372.8652,186.4319,370.9652,184.5319,369.5152,184.4119 M284.4552,187.1019
		c1.8067,8.2467-10.7324,15.3391-12.5613,16.0825c-0.2471,3.1696,0.81,5.7888,3.1713,7.8575
		C277.4474,202.2282,290.7138,192.8792,284.4552,187.1019 M314.6052,189.9019c-4.8397-0.2381-5.6626,1.9424-7.15,5.25
		C316.3456,197.5281,317.3459,194.0949,314.6052,189.9019 M304.5252,190.4119c-0.83,1.22-0.02,3.65,1.63,3.44
		C308.3252,192.9319,305.9952,190.1719,304.5252,190.4119 M389.3652,193.2219c0.4198,1.3627,3.118,19.0072,12.7012,17.98
		c-1.4858,0.1592-10.4347-10.4908-7.5712-12.69c1.9353,1.1613,4.1224,8.5023,7.72,3.42
		C400.9334,195.4753,392.444,191.6192,389.3652,193.2219 M319.2952,192.1119c-0.92,2.53,2.66,3.68,1.22,6.03
		C324.3252,198.9219,323.7552,189.8319,319.2952,192.1119 M386.4852,194.2819c-3.41,2.33,2.22,7.62,3.75,3.13
		C388.2252,197.2919,388.2052,194.1919,386.4852,194.2819 M305.5552,196.3719C299.771,205.8447,312.3453,195.3878,305.5552,196.3719
		 M380.3052,196.0819C386.9944,203.6736,385.8667,195.8728,380.3052,196.0819 M282.7352,201.3919
		c-3.766,2.7409-3.0928,10.1684-8.43,15.71c3.4852-1.901,4.4619-0.551,2.93,4.05
		C283.4394,217.8447,285.188,199.9791,282.7352,201.3919 M320.5752,202.5819c-5.6672-0.1924-5.7839,1.0143-0.35,3.62
		C318.4063,203.7296,328.1653,202.4285,320.5752,202.5819 M386.2552,203.0619c0.08,2.17-0.03,6.56,3.14,6.03
		C388.5652,207.0819,387.6952,204.2019,386.2552,203.0619 M233.5152,206.0219c1.32,2.04-1.31,3.03-1.3,5.02
		C235.4152,211.4819,237.0952,205.6219,233.5152,206.0219 M257.4752,214.0619c-3.96,3.8,7.5,5.2,4.76-0.07
		C262.3952,211.9719,257.1652,211.9919,257.4752,214.0619 M267.6552,212.8219C256.378,230.3936,270.8717,208.6864,267.6552,212.8219
		 M320.3052,221.0419C320.261,227.2771,332.8875,224.0671,320.3052,221.0419 M310.6652,228.9819
		c-9.2552,19.9192,19.8238,6.8988,22.54,2.95c-1.8365-1.1673-2.8499-2.8139-3.04-4.94c-9.2249,2.5829-3.9815,8.2787-9.86,10.18
		c4.5193-12.0122-3.0652-2.9124-5.97-4.18C315.0127,226.351,310.5733,227.2359,310.6652,228.9819 M304.4752,230.2019
		C293.0314,242.7807,314.5399,226.3309,304.4752,230.2019 M336.0952,236.8419c-15.6339,29.9002-35.6259-20.1857-38.07,23.88
		c-20.9088,16.1792,19.5525,9.1571,28.09,4.45c-2.0161,9.7317,0.6706,16.3483,8.06,19.85
		C342.2242,270.5236,333.3482,241.0195,336.0952,236.8419 M350.5952,241.4019c-7.0501,1.2891-2.343,7.4698-5.6325,9.7213
		C348.5728,248.6524,350.5989,241.3996,350.5952,241.4019 M304.2952,286.0719c3.0538-0.2348,4.3171,2.1185,3.79,7.06
		c1.3468-6.0211,1.2398-7.1805,0.29-13.03C303.748,279.4597,302.388,281.4498,304.2952,286.0719z"/>
	<path fill="#33073B" d="M445.6752,91.4119C455.0873,72.991,446.1591,111.7321,445.6752,91.4119
		C447.0752,88.6719,445.7752,95.6119,445.6752,91.4119z"/>
	<path fill="#33073B" d="M250.7652,92.0219c1.768,2.6805,8.0782-0.59,0.75,6.14c-0.397-2.8871-19.655,17.1952-29.54,12.76
		C229.6932,107.1548,246.6317,100.7023,250.7652,92.0219z"/>
	<path fill="#33073B" d="M372.1652,94.7519C378.2498,92.2232,379.5861,97.6088,372.1652,94.7519
		C374.4752,93.7919,374.2952,95.5719,372.1652,94.7519z"/>
	<path fill="#33073B" d="M238.5452,95.3319c4.7953-0.6504,3.1553,1.3462-4.92,5.99
		C232.7251,96.934,234.3651,94.9374,238.5452,95.3319C239.0252,95.3019,237.2252,95.8119,238.5452,95.3319z"/>
	<path fill="#33073B" d="M529.6652,97.4719C531.596,96.775,512.6539,103.4551,529.6652,97.4719
		C531.3552,96.8619,526.7652,98.4919,529.6652,97.4719z"/>
	<path fill="#33073B" d="M385.1152,98.2019c4.3506,0.0171,6.4106,2.0604,6.18,6.13
		C388.3493,103.3478,386.2893,101.3045,385.1152,98.2019C387.9052,99.6619,385.6752,100.2319,385.1152,98.2019z"/>
	<path fill="#33073B" d="M418.2552,100.0719c2.5634,0.0852,8.4103,3.7215,7.97,6.85
		C421.5753,111.2141,418.8282,103.2233,418.2552,100.0719C421.5652,100.1819,418.7552,102.8219,418.2552,100.0719z"/>
	<path fill="#33073B" d="M343.3552,106.2119C352.9438,98.8208,343.0936,120.6033,343.3552,106.2119
		C343.8352,105.8419,343.3252,107.8619,343.3552,106.2119z"/>
	<path fill="#33073B" d="M426.3652,109.8319c-0.6645-2.6008,8.8239-4.6719,8.1-0.67c-3.5728,2.6605,1.7638,1.3622-0.89,5.21
		C431.1719,112.8586,428.7686,111.3452,426.3652,109.8319C426.0152,108.4619,429.5152,109.9419,426.3652,109.8319z"/>
	<path fill="#33073B" d="M137.3252,111.3219C143.0702,118.2063,136.7788,113.3011,137.3252,111.3219
		C137.3252,111.3219,136.8752,112.9519,137.3252,111.3219z"/>
	<path fill="#33073B" d="M524.1452,113.9419C525.104,104.9011,542.4692,120.1547,524.1452,113.9419
		C524.4952,110.6419,526.4752,114.7319,524.1452,113.9419z"/>
	<path fill="#33073B" d="M229.1852,117.2719C227.6102,114.8094,240.2759,110.4819,229.1852,117.2719
		C226.6652,113.3319,229.6752,116.9719,229.1852,117.2719z"/>
	<path fill="#33073B" d="M460.5552,113.3319c3.9738-2.5713,10.9933,4.0382,15.94,3.82c-0.2742-1.6513-4.5404,11.0423-3.18,7.76
		c-7.9-2.5762,0.099-1.3757-1.03-5.8c-5.9325-3.4324-9.3104-2.6986-10.1338,2.2012
		C462.9403,119.8921,454.0081,116.34,460.5552,113.3319C461.7452,112.5619,458.3352,114.3519,460.5552,113.3319z"/>
	<path fill="#33073B" d="M248.5652,115.6519C256.0641,114.1361,242.9101,126.6761,248.5652,115.6519
		C249.5052,115.4619,247.7752,117.1919,248.5652,115.6519z"/>
	<path fill="#33073B" d="M138.3052,118.1219C137.6857,111.8853,142.5105,128.4245,138.3052,118.1219
		C137.8552,113.5919,138.7052,119.1019,138.3052,118.1219z"/>
	<path fill="#33073B" d="M149.4652,116.0319c3.7375,2.0793,6.2775,5.0626,7.62,8.95c-2.857-1.3294-5.3558-0.9219-7.4962,1.2225
		c0.3122-0.5005,32.1627-2.4819,32.6263-4.4025c-2.4565,0-13.0202,9.1068-17.12,7.65c2.0108,8.2442,9.7586,46.6579,5.75,45.64
		C170.8452,148.3672,144.4361,133.4301,149.4652,116.0319 M159.3152,130.0619c-0.74,3.19,2.29,6.26,6.06,4
		C165.6952,131.0719,161.7052,129.9619,159.3152,130.0619z"/>
	<path fill="#33073B" d="M371.4752,119.9219C377.9683,111.4419,383.9844,124.5111,371.4752,119.9219
		C373.3052,117.5319,373.1652,120.5419,371.4752,119.9219z"/>
	<path fill="#33073B" d="M521.2252,117.0319c8.6954-2.4518,12.0587-0.1118,10.09,7.02
		C525.7894,124.4999,519.6813,124.4144,521.2252,117.0319C524.2952,118.7919,520.9952,118.1319,521.2252,117.0319z"/>
	<path fill="#33073B" d="M455.9352,118.6519c2.7012-1.6497,4.7997,5.9704,9.32,5.08c1.0979,1.1277-13.9687,3.1484-14.04,0.69
		C460.7107,125.8439,451.9124,119.4624,455.9352,118.6519C458.7352,116.9419,453.2052,119.2019,455.9352,118.6519z"/>
	<path fill="#33073B" d="M347.3352,119.1019C360.7394,119.0132,347.475,126.2459,347.3352,119.1019
		C348.8452,119.0919,347.3452,119.6119,347.3352,119.1019z"/>
	<path fill="#33073B" d="M383.9352,121.7719c3.4261-7.7799,1.6443,11.4096-9.75,5.51
		C374.351,121.4393,379.1926,122.5351,383.9352,121.7719C384.4152,120.6819,382.1952,122.0519,383.9352,121.7719z"/>
	<path fill="#33073B" d="M227.5252,123.9319c12.2998-3.6527,3.1284,7.3541,8.98,8.51c-8.4843,6.6864-3.7419-3.6349-9.9-2.4
		c-10.7926,2.1644-22.2922,25.9122-33.13,33.24c-3.0398-2.6302-2.7132-5.3169,0.98-8.06c3.5414-0.6991-18.9403,7.9034-16.13-0.66
		c16.1605,4.2238,28.781-17.6045,43.89-26.67c-2.1519,2.3804-1.8186,4.0804,1,5.1
		C223.311,129.4668,223.3676,125.3022,227.5252,123.9319 M231.5652,125.2619C217.9372,134.9963,240.1197,121.1227,231.5652,125.2619
		C229.9552,126.4119,233.1152,124.5119,231.5652,125.2619z"/>
	<path fill="#33073B" d="M210.2452,129.1019c3.0187-2.6069,6.3854-4.6336,10.1-6.08c-3.1004,15.8119-31.9663,17.4387-38.79,29.19
		c-0.5482-2.6953-2.0449-4.6886-4.49-5.98C190.2268,143.7044,199.1406,140.294,210.2452,129.1019z"/>
	<path fill="#33073B" d="M486.4252,126.3719c6.2971-2.6238,15.6351-3.3714,15.86,4.83c-8.1352,1.1621-16.3662,3.9177-30.08,3.74
		C475.5822,130.3729,481.3668,129.3737,486.4252,126.3719C490.1452,124.8219,485.5152,126.9119,486.4252,126.3719z"/>
	<path fill="#33073B" d="M177.2352,131.4519c1.7321,0.3799,11.2561,0.0029,11.1,0.62c0.4124,4.0083-5.947,7.5772-8.82,7.95
		C177.8955,137.1562,178.0146,134.472,177.2352,131.4519C178.3752,131.7019,177.3152,131.7619,177.2352,131.4519z"/>
	<path fill="#33073B" d="M147.6052,132.8519c15.7909,4.3288,2.5852,15.0907-6.2,15.15c-0.064-4.7371,4.619-8.2751,4.99-7.85
		c-4.6704,0.773-6.3705-0.9003-5.1-5.02C147.5054,138.2391,149.6087,137.4791,147.6052,132.8519
		C150.1952,133.5619,147.8452,133.9319,147.6052,132.8519z"/>
	<path fill="#33073B" d="M321.3852,146.9119c3.4938,1.9437,4.1005,4.6904,1.82,8.24
		C318.4638,149.2816,322.0048,152.5857,321.3852,146.9119C325.9252,147.2519,321.5752,148.6519,321.3852,146.9119z"/>
	<path fill="#33073B" d="M258.4752,148.2519C268.194,149.6664,251.8142,155.3144,258.4752,148.2519
		C260.6052,148.5619,257.6452,149.1319,258.4752,148.2519z"/>
	<path fill="#33073B" d="M263.1752,154.1319C267.6963,155.7005,264.3829,163.8513,263.1752,154.1319
		C264.1552,154.4719,263.3852,155.8219,263.1752,154.1319z"/>
	<path fill="#33073B" d="M325.5452,157.4319c6.117-0.5638-1.8142,8.7056-5.29,7.66
		C322.0186,162.5386,323.7819,159.9852,325.5452,157.4319C327.7152,157.2319,322.1252,158.3419,325.5452,157.4319z"/>
	<path fill="#33073B" d="M389.2952,159.8819C391.5054,159.2072,395.0922,167.5869,389.2952,159.8819
		C390.2452,159.5919,389.2952,159.8819,389.2952,159.8819z"/>
	<path fill="#33073B" d="M264.0552,166.9319C266.1603,165.3649,264.6865,178.0851,264.0552,166.9319
		C268.0452,163.9619,264.0852,167.4619,264.0552,166.9319z"/>
	<path fill="#33073B" d="M437.5052,172.9919c5.8284,2.8254,7.149-10.4773,6.73,4.19c3.0429,0.6632-14.0224-2.8101-12.93-3.34
		C431.6315,169.861,433.6982,169.5777,437.5052,172.9919C440.7852,174.5819,436.0452,171.6119,437.5052,172.9919z"/>
	<path fill="#33073B" d="M258.3052,195.1019c-0.62-2.73,1.52-4.41,3.81-5.25C262.6452,192.4419,260.6752,194.5019,258.3052,195.1019
		z"/>
	<path fill="#33073B" d="M251.3052,198.1419C250.3716,189.2556,262.7563,195.5052,251.3052,198.1419
		C251.0352,195.5719,252.8252,197.7919,251.3052,198.1419z"/>
	<path fill="#33073B" d="M355.6152,198.3419c1.2591-2.8714,3.5767-10.0404,4.9675,0.71
		C361.795,208.4226,357.3029,197.663,355.6152,198.3419C356.4352,196.4719,359.1452,196.9219,355.6152,198.3419z"/>
	<path fill="#33073B" d="M181.8852,203.6719c5.5969-11.1012,7.052,7.229,7.28,7.65
		C159.1902,208.3784,177.5617,212.2013,181.8852,203.6719C183.0952,201.2719,180.4152,206.5719,181.8852,203.6719z"/>
	<path fill="#33073B" d="M370.0352,209.7519c4.8036-11.5282,7.9308,12.1711,8.33,15.19
		C372.2951,227.939,364.9888,211.8504,370.0352,209.7519C370.5852,208.4319,369.0252,210.1719,370.0352,209.7519z"/>
	<path fill="#33073B" d="M342.6652,212.3419c-0.168,0.0131,15.6218,3.9047,16,7.74
		C350.7663,220.9291,341.851,222.5205,342.6652,212.3419C344.8452,212.1719,342.5852,213.3419,342.6652,212.3419z"/>
	<path fill="#33073B" d="M219.2752,217.7319c3.3101-2.3643,6.5572,1.8348,3.91,5.76
		C218.2916,225.1332,218.8852,217.4816,219.2752,217.7319C219.5552,217.5319,220.7552,218.6819,219.2752,217.7319z"/>
	<path fill="#33073B" d="M284.4852,218.0219c4.6708-3.3797,2.6031,10.8111-1.46,12.03
		C279.3283,230.4462,284.5306,217.7368,284.4852,218.0219C285.7152,217.1319,284.2052,219.7819,284.4852,218.0219z"/>
	<path fill="#33073B" d="M362.6052,218.2819C369.1223,213.7309,357.9047,220.9902,362.6052,218.2819
		C367.9752,214.5319,359.5852,220.0219,362.6052,218.2819z"/>
	<path fill="#33073B" d="M261.2452,234.0119c2.267-3.8693,15.8566-8.6904,13.18,1.17c-2.0125,0.2903-8.7089-2.0222-8.02-2.2
		C269.9571,240.0038,260.8548,234.4349,261.2452,234.0119C262.5752,231.7419,261.0052,234.2719,261.2452,234.0119z"/>
	<path fill="#33073B" d="M282.2352,239.0519c2.65-0.51,5.19,0.46,6.17,3.1C286.2552,241.5519,283.5452,240.8919,282.2352,239.0519z"
		/>
	<path fill="#33073B" d="M318.9752,249.7019c3.816-3.6987,8.3694-5.5087,13.66-5.43c-2.9703,5.054-13.9078,16.7519-21.8025,11.79
		C308.6624,250.2601,311.3766,248.1401,318.9752,249.7019C323.4752,247.0119,316.1052,250.3519,318.9752,249.7019z"/>
	<path fill="#33073B" d="M279.5852,279.9519C284.5498,279.0012,281.6841,291.121,279.5852,279.9519
		C281.9352,279.5019,279.8652,281.4419,279.5852,279.9519z"/>
</g>
<rect x="0" y="0" fill="none" width="646.4617" height="388.742"/>
</svg>
