<?xml version="1.0" encoding="utf-8"?>
<!-- Generator: Adobe Illustrator 17.0.0, SVG Export Plug-In . SVG Version: 6.00 Build 0)  -->
<!DOCTYPE svg PUBLIC "-//W3C//DTD SVG 1.1//EN" "http://www.w3.org/Graphics/SVG/1.1/DTD/svg11.dtd">
<svg version="1.1" id="Layer_19" xmlns="http://www.w3.org/2000/svg" xmlns:xlink="http://www.w3.org/1999/xlink" x="0px" y="0px"
	 width="646.4617px" height="388.742px" viewBox="0 0 646.4617 388.742" enable-background="new 0 0 646.4617 388.742"
	 xml:space="preserve">
<g id="layer-19--33073bff">
	<path fill="#33073B" d="M311.6652,94.3719c21.7458-4.1891,30.1169,21.6772,52.67,24.68c10.6113,0.2258,44.6707,67.6225,46.08,78.1
		c-4.1999,0.3129-11.7988-10.5284-14.98-12.3c0.839,1.7106-9.737,21.1935-10.18,21.58c-3.5215-4.9742-4.6941-6.7726-8.22-11.09
		c0.754-2.0713,17.7034-49.2464-11.61-45c-0.2686,5.2705-11.6235,32.0219-15.34,16.5c-3.2466,2.259,3.399,49.3903,5.51,55.34
		c-5.6685,0.5955-25.9369,69.6968-27.15,69.13c-7.1472,2.7279-8.4544-17.8417-13.06-16.21c-0.1775,4.0222,4.1539,3.4463-0.99,5.6025
		c-2.1911,0.9185-0.448-8.2216-3.28,0.3875c-3.721,1.0968-0.7706-11.6209,1.1-13.04c2.748,3.6106,6.036,6.474,9.8637,8.59
		c-0.4261-5.6145-2.0155-26.5602-1.5938-27.01c8.9296,0.8892,7.0525-0.7512,17.85-0.57c1.8201-6.2362-23.5978-2.1906-19.89-3.84
		c-0.2383,0.4515-0.2942,14.8164-3.12,13.81c-2.5916-10.798,1.8029-7.8399-12.11-11.71c3.6772,7.6551,7.2948-7.6423,7.13,3.72
		c-21.114,2.6391-2.9006,11.0758-2.86,21.22c-2.4502-0.0464-3.7569-1.8098-3.92-5.29c1.6318,3.6422,1.1451,6.1089-1.46,7.4
		c-3.4552-2.4634-9.0614-17.3046-11.2162-20.8487c0.1179-4.2117,2.2666-4.7287,6.4463-1.5513c0.5609-2.1725-9.0941-4.2993-5.13-9.92
		c11.4275,6.0254,31.3166-2.7712,46.98,2.12c0.3399-4.8804,5.9157-48.7264-7.61-37.89c0.6117-2.8362,2.8276-10.3425-1.25-12.09
		c6.1917-0.8317,8.8517,2.1583,7.98,8.97c14.9893-0.3876,3.8835-56.0523,25.99-58.28c-5.3605-23.3125-26.8675-9.3693-36.37-38.29
		c-21.6518-11.0119-27.7651,48.5223-50.6213,27.9025c3.5381,3.1919-2.2387,30.4169-2.2387,35.6475
		c-3.1341-3.8514-4.5974-8.2814-4.39-13.29c0.3464,0.4186-9.4937,13.7854-15.3,10.05c0.5596,5.9397-38.0858,55.0705-35.83,59.6075
		c-13.4604-27.0721,53.9021-88.8845,57.87-105.7875c-3.1535,1.6601-5.4935,4.1734-7.02,7.54
		C292.4128,128.187,299.4264,108.1407,311.6652,94.3719 M336.4752,115.2319c-1.48,0.83-1.48,2.87,0,3.7
		C338.8352,119.2219,338.8352,114.9419,336.4752,115.2319 M360.2452,123.0219c1.06,2.37,3.63,3.84,6.16,4.12
		C365.3352,124.7719,362.7652,123.3019,360.2452,123.0219 M284.5952,130.6619
		C271.3411,135.8446,296.7133,129.2077,284.5952,130.6619 M258.3552,152.0719c1.1063,0.7902,2.8254,9.43,5.6037,3.745
		c-0.9433,1.9303-1.6027-13.7912-1.6437-11.805C258.9281,145.6435,257.6081,148.3302,258.3552,152.0719 M370.2252,147.0419
		c0.5696,0.6956,7.3768,11.267,8.39,10.35C381.2428,155.2356,371.8795,146.6405,370.2252,147.0419 M257.5152,157.9519
		c-0.9352-0.0126-5.3892,9.6859-1.16,8.13C261.6623,166.7014,256.7134,156.0061,257.5152,157.9519 M335.6152,251.4319
		c-0.4339,0.505-14.9665,21.2876-2.45,17.58C332.7797,270.8662,336.3743,246.9528,335.6152,251.4319z"/>
	<path fill="#33073B" d="M277.3852,162.0819C289.048,173.2036,276.9478,167.8999,277.3852,162.0819
		C279.3252,163.9319,277.2852,163.4119,277.3852,162.0819z"/>
	<path fill="#33073B" d="M284.3852,171.0319c4.4176-2.9865,2.0676,7.2952,1.76,8.2
		C283.3432,177.2812,282.7566,174.5479,284.3852,171.0319C287.9352,168.6319,284.3152,172.9919,284.3852,171.0319z"/>
	<path fill="#33073B" d="M324.3952,174.0019c2.1585,1.1427,23.2579,1.6267,0.82,2.08
		C325.7296,180.5889,324.3172,179.0747,324.3952,174.0019C327.4552,175.6219,324.3652,175.9519,324.3952,174.0019z"/>
	<path fill="#33073B" d="M365.1652,174.2619c1.8017,1.639,10.6059,5.8071,5.85,10
		C366.5152,182.0894,365.7889,179.1428,365.1652,174.2619C366.7152,175.6719,365.3952,176.0619,365.1652,174.2619z"/>
	<path fill="#33073B" d="M294.5652,181.2319c0.18-1.3,1.37-5.09,2.95-3.4C296.6752,179.0319,296.7352,182.8319,294.5652,181.2319z"
		/>
	<path fill="#33073B" d="M319.5252,177.0119c-1.9852,0.2175,12.0641,20.1871,11.02,21.98
		C322.2143,196.3555,315.9486,185.6596,319.5252,177.0119C323.0852,176.6219,318.8552,178.6319,319.5252,177.0119z"/>
	<path fill="#33073B" d="M335.3652,180.1919c3.0883-2.8257,5.4588,9.0526,1.15,8.73
		C336.1319,186.0119,335.7486,183.1019,335.3652,180.1919C338.3052,177.5019,334.1452,183.2619,335.3652,180.1919z"/>
	<path fill="#33073B" d="M279.2252,190.9019c-1.8261-4.2449-1.0862-7.8449,2.22-10.8c-0.3362,0.5635,10.1468,26.6588,1.96,25.94
		C279.4607,202.184,282.2007,193.4405,279.2252,190.9019C280.0752,187.1919,280.6552,192.1219,279.2252,190.9019z"/>
	<path fill="#33073B" d="M241.7252,200.2119c4.6617-7.7504,14.684-5.0236,18.61,1.87c-1.1873,8.6402-10.1339-5.0132-10.15-5.05
		c-6.4545,3.505-14.6896,34.7869-22.73,35.18C227.1113,217.8237,235.3897,212.0828,241.7252,200.2119
		C243.3552,197.5019,240.7752,201.9919,241.7252,200.2119z"/>
	<path fill="#33073B" d="M294.5152,195.0719c7.4131-2.2684,2.813,43.7145-16.04,36.35c0,16.0721-20.2484,29.8245-20.41,45.82
		c-2.7854-3.1568,4.3729-46.2599,7.78-54.28c14.1494,9.9419,10.5195-20.0356,12.58-18.9775
		c8.7032,4.4692-0.6517,7.6185-2.16,10.7575c6.2795,0.4699,6.2729,4.9133-0.02,13.33c8.5079,2.7378,6.9601-15.0868,11.36-19.69
		c2.5342-0.346,4.0342,0.9273,4.5,3.82C294.6476,206.7241,294.755,200.5907,294.5152,195.0719
		C297.6852,194.1019,294.5352,195.5319,294.5152,195.0719z"/>
	<path fill="#33073B" d="M273.2052,207.9819C266.5807,200.0003,284.5471,202.632,273.2052,207.9819
		C271.1552,205.5119,273.7352,207.7319,273.2052,207.9819z"/>
	<path fill="#33073B" d="M318.5552,207.3119c-0.74-1.77-3.31-3.96-1.19-5.66C319.8952,202.2219,320.2852,204.1019,318.5552,207.3119
		z"/>
	<path fill="#33073B" d="M263.9952,207.9919c0.7249-6.8875,4.7095,5.7614,5.03,7.31
		C266.2853,215.5386,262.9085,210.2426,263.9952,207.9919C264.1752,206.2819,263.8552,208.2819,263.9952,207.9919z"/>
	<path fill="#33073B" d="M375.3052,209.0919c-0.4208-2.6184,6.018,1.1447-1.93,7.87
		C371.8313,213.787,372.4746,211.1637,375.3052,209.0919C374.9452,206.8519,375.4352,210.8419,375.3052,209.0919z"/>
	<path fill="#33073B" d="M388.2452,208.2619c5.3705-3.3698,3.8234,11.1031-0.91,10.62
		C389.0649,215.6526,388.5511,211.7765,388.2452,208.2619z"/>
	<path fill="#33073B" d="M251.4252,216.9919c-6.156-6.1976,7.5444-4.298,8.49-1.4
		C260.8146,218.3482,251.9602,217.2162,251.4252,216.9919C249.9452,215.5019,252.6652,217.5119,251.4252,216.9919z"/>
	<path fill="#33073B" d="M279.4152,241.1419c-3.7428-2.6871,18.8157,1.982,9.98,2.24
		C286.7992,253.4606,273.588,236.7103,279.4152,241.1419z"/>
	<path fill="#33073B" d="M270.3452,258.0619c1.058,0.6314,6.8348,1.8926,8.01,1.07c-0.5334,4.4475-2.2134,8.4875-5.04,12.12
		c18.7628-6.5334-0.8075-0.5435,8.28-1.76c-0.4977,3.8834-2.9677,6.7068-7.41,8.47
		C267.4502,275.3573,269.4714,264.2992,270.3452,258.0619z"/>
	<path fill="#33073B" d="M284.9752,292.6719C288.0552,291.0919,280.9652,293.8519,284.9752,292.6719
		c8.6216-4.4228,23.4956,17.0067,14.5,22.48"/>
	<path fill="#33073B" d="M308.1052,340.0219c-3.3798-5.2398-3.0598-9.1898,0.96-11.85c0.7609,3.3764,2.8109,4.9164,6.15,4.62
		c1.7427-4.2373,0.9722-8.2911,0.69-12.73c-5.5171,1.3091-0.5715,6.8291-4.37,11.18c-8.542-16.3704-9.8456-23.092-0.87-35.99
		 M266.1652,303.1219 M310.6652,295.2519c5.8807,9.9438,14.9111,44.8203,16.56,44.83c-1.658-3.2255-1.6114-6.1821,0.14-8.87
		 M309.5652,306.2519c-0.6841,2.7934-0.536,13.8087,1.75,13.85C326.3766,319.5682,308.0236,300.3572,309.5652,306.2519
		 M314.3452,335.0919c0.1,1.72-0.97,4.99,1.96,3.98C316.1952,337.3419,317.2752,334.0719,314.3452,335.0919z"/>
	<path fill="#33073B" d="M324.5052,325.9719C322.5045,317.2488,329.5581,326.2183,324.5052,325.9719
		C324.2552,324.8819,324.9152,325.9919,324.5052,325.9719z"/>
	<path fill="#33073B" d="M331.4952,328.0919c2.81,0.79,2.48,8.23-1.17,7C330.1552,332.6319,330.5552,330.3019,331.4952,328.0919z"/>
</g>
<rect x="0" y="0" fill="none" width="646.4617" height="388.742"/>
</svg>
