<?xml version="1.0" encoding="utf-8"?>
<!-- Generator: Adobe Illustrator 17.0.0, SVG Export Plug-In . SVG Version: 6.00 Build 0)  -->
<!DOCTYPE svg PUBLIC "-//W3C//DTD SVG 1.1//EN" "http://www.w3.org/Graphics/SVG/1.1/DTD/svg11.dtd">
<svg version="1.1" id="Layer_15" xmlns="http://www.w3.org/2000/svg" xmlns:xlink="http://www.w3.org/1999/xlink" x="0px" y="0px"
	 width="646.4617px" height="388.742px" viewBox="0 0 646.4617 388.742" enable-background="new 0 0 646.4617 388.742"
	 xml:space="preserve">
<g id="layer-15--33073bff">
	<path fill="#33073B" d="M89.2452,86.7819C89.1538,84.8463,91.5762,86.8025,89.2452,86.7819"/>
	<path fill="#33073B" d="M83.9852,43.0819c2.7797-0.3131,32.5273-1.9742,29.24,4.79c-5.5938,0.3825-9.3004,2.8325-11.12,7.35
		c-0.0996,10.9584,14.7418-2.7217,13.41-2.05c3.8043,2.2445,4.9961-18.7528,6.31-18.09c115.662-70.1537,138.62,39.5,138.62,39.5
		c-94.9656-118.5-155.0434-6.4598-76.1875,12.2002c-70.02-62.8644-81.9325-44.8284-47.2505,10.5454
		c22.3523,35.688,11.818,22.8594-21.952-7.0556c-0.0932-0.534-5.5038-18.1558-2.513-17.8659
		c-6.0619-0.5876-3.477,5.6517-3.477,9.6959c-6.9625,10.7909-21.1639-25.1587-22.1971-26.3578
		C90.6542,60.1383,85.6999,44.8717,83.9852,43.0819 M100.5352,68.2319c-2.22,1.66-1.86,6.4,1.75,4.83
		C101.9852,71.3819,103.6052,66.9919,100.5352,68.2319 M104.3752,67.9519c-0.1,1.72-0.12,3.45,0,5.18
		C108.7552,72.9419,106.1052,69.7419,104.3752,67.9519 M113.5552,68.5619c-2.84-0.33-7.95,2.81-2.35,2.85
		C114.1352,73.6719,118.7052,68.0219,113.5552,68.5619z"/>
	<path fill="#33073B" d="M238.3552,43.0819c22.6702,4.355,16.8274,43.6034,40.56,48.48c18.1633,21.5759,10.0581,17.6354,23.88,0.02
		c35.7409-26.6903,23.2886,39.8226,56.18-1.84c8.8856-18.2802,22.1714-58.7549,49.65-50.7722
		c-24.492,20.0354-39.6537,83.0402-80.7712,83.7147c2.996-0.0491-5.3139-25.2325-9.4388-28.0625
		c0.4208-0.0065-18.1324,15.6302-9.4538,16.4225c2.5094,0.2291-0.3495-6.5158,3.3238-7.9725
		c1.747,8.3754,33.5125,34.9633,11.26,46.09c0.0569-0.6824,2.4623-15.2202,3.96-12.07c-2.5583-16.4804-8.5193,0.5611-11.22-5.07
		c8.1665,1.5177,1.106,21.3696,14.1822,22.6652c0.9293,5.1468-1.5202,8.168-7.3485,9.0636
		c-7.3318,0.0095-3.8498-35.4831-19.5771-37.1028c-1.8347-2.9785-0.4616-3.685,4.1196-2.1197
		c0.0552,1.9337-46.9943-26.7979-53.1763-41.065C247.8637,68.1817,238.0554,57.7699,238.3552,43.0819 M313.4952,111.4619
		C313.2952,116.4919,318.7152,112.1019,313.4952,111.4619 M306.4452,114.9819c-6.7401-1.2066,9.4857,13.4538,12.82,3.24
		C318.1199,117.2367,300.6846,110.7634,306.4452,114.9819 M318.3652,122.1219c-0.09,1.33-0.1,2.65-0.02,3.98
		C321.2252,126.7019,322.4452,119.9519,318.3652,122.1219 M323.5452,158.1319"/>
	<path fill="#33073B" d="M498.1653,43.0819C506.8602,46.9333,498.6312,45.1324,498.1653,43.0819
		C498.1653,43.0819,498.2652,43.5219,498.1653,43.0819z"/>
	<path fill="#33073B" d="M433.3269,11.5819c-54.9602,6.9433-55.1156,41.3802-55.2116,41.2166
		c122.035-65.2166,152.4525,22.7898,106.0624,53.9898C569.8252,50.0519,548.0263,2.5252,433.3269,11.5819z"/>
	<path fill="#33073B" d="M200.5452,57.1719C205.7988,57.708,199.7259,56.8868,200.5452,57.1719
		C201.0352,57.2219,200.5452,57.1719,200.5452,57.1719z"/>
	<path fill="#33073B" d="M416.6052,61.2819c5.0947,1.718-4.2125,8.2975-5.2,9c-0.6336-1.3839-1.5603-2.5306-2.78-3.44
		C410.0726,66.4886,416.392,63.0353,416.6052,61.2819C420.0452,62.4419,416.3352,63.5019,416.6052,61.2819z"/>
	<path fill="#33073B" d="M453.2952,66.9819c5.691,0.1138-0.5323,5.6851-1.14,7.66
		C448.7176,71.859,454.7562,68.2413,453.2952,66.9819C453.7952,66.9919,454.4552,67.9819,453.2952,66.9819z"/>
	<path fill="#33073B" d="M480.2652,71.1819c12.8145,1.4966-9.8747,12.4021-10.7812,15.4325
		c-0.2866,0.958-15.3441,7.3773-19.6088,15.9275C451.2694,98.4369,480.4239,74.8274,480.2652,71.1819
		C481.6352,71.3419,480.2852,71.6419,480.2652,71.1819z"/>
	<path fill="#33073B" d="M375.0452,81.9319C375.2552,84.8053,374.0489,89.3422,375.0452,81.9319
		C375.0452,81.9319,374.8852,83.1219,375.0452,81.9319z"/>
	<path fill="#33073B" d="M194.5052,96.1619C194.5404,97.3648,192.573,98.0318,194.5052,96.1619
		C194.5052,96.1619,194.1952,96.4619,194.5052,96.1619z"/>
	<path fill="#33073B" d="M436.4052,99.7819c16.2665-1.1671-5.5622,7.1586-10.25,3.8
		C429.4704,101.5618,434.1327,102.9636,436.4052,99.7819C438.6352,99.6219,436.2052,100.0619,436.4052,99.7819z"/>
	<path fill="#33073B" d="M414.5752,109.0719c5.6965-2.2505,7.9851-4.2275,8.88,1.22c-1.5369,0.4588-33.1758,28.4884-24.03,28.8412
		c11.0645,0.4269,26.9997-16.5418,35.52-19.1412c0.4807,3.4887-56.9901,49.3377-28.75,46.2c-0.385,8.7705,2.2861,19.3444-6.75,30.09
		c-2.0888-5.2349-1.8716-23.7946-8.3963-25.3275c-24.8045-5.8274-19.7865,1.5092-28.7937,22.4375
		c-1.2562,0.1889-2.5162,0.3489-3.78,0.48c-0.1211,0.3083,0.5219-6.2433,0.46-6.18c-5.6211,9.5024-13.56,29.1078-13.56,44.61
		c1.6187-2.9013,3.0068-5.9085,4.1645-9.0215c0.3986-0.4184,4.1573,27.1181,3.3456,34.0915
		c-8.9794-3.1675-3.0276-8.9069-4.1038-10.5137c-6.6412-9.9158-5.1016,21.9411-3.4162,19.3838
		c-3.1177-3.0657-8.6982-1.6179-10.7513,1.6275c-3.9869,6.3023,13.3925,0.4208,10.4912-0.6075
		c1.1337,1.8651-5.1277,23.1502-6.69,22.85c-1.488-25.1145-31.4475-12.6717-28.42-31.2c-5.5793,8.561-5.1173,14.2032-5.96,26.42
		c-4.5252-3.2005-4.2218-16.7206-4.16-21.5c-6.2493-2.8674-7.0836,15.7085-14.8,0.75c5.6303-13.3722,6.1575-9.2946,8.5-26.62
		c2.5455,4.4676,43.2063,0.7245,42.6125,0.8c5.8555-0.7448-0.3757-45.1658,5.5475-44.02c0.9976,3.1744-0.962,8.866,3.3337,10.6175
		c-0.2096-0.0854,3.8915-10.5892,3.8425-10.6363c4.1636,3.9949-11.6704-1.1354-6.6263-0.1512
		c10.3689-13.0908,27.2645-22.6444,37.02-35.22c-4.1502-0.8892-7.5102-3.0159-10.08-6.38c4.5092,2.8963,5.5158,2.223,3.02-2.02
		c17.3929,3.1624,3.3713,7.6356,23.28,18.12c-2.2003-15.4248-15.0604-9.1161-6.45-27.27
		C392.6305,124.3055,400.0309,116.2749,414.5752,109.0719 M375.2152,154.0519c-0.25,2.8,3.05,3.69,5.22,4.11
		C379.3852,156.1319,377.0252,155.2819,375.2152,154.0519 M399.4752,175.4819
		C400.0052,180.3619,404.8652,175.3819,399.4752,175.4819 M344.6352,233.3019c-0.93,1.11-0.44,3.07,0.91,3.6
		C347.4252,236.6419,346.6952,232.0519,344.6352,233.3019 M334.5852,239.9219c1.1421,6.1672-12.3903,12.1802-6.2385,22.4378
		C332.5595,269.3841,343.1776,245.5667,334.5852,239.9219 M307.7052,242.5119c-1.7971,6.0523-1.1356,13.1171,8.8462,22.235
		c1.5154,1.3842,8.6285-18.3213,10.125-22.3825c-1.8376,4.9871-8.2258-5.0217-8.7212,6.8675
		C314.9709,249.5354,312.022,242.5838,307.7052,242.5119 M342.7052,243.2519C343.3452,248.4719,347.7352,243.0519,342.7052,243.2519
		 M298.2152,257.7119c1.66,1.74,4.81-1.94,2.23-2.69C295.8052,253.0919,294.1452,260.7719,298.2152,257.7119 M302.5452,257.1319
		C298.8252,261.0819,308.0252,257.7319,302.5452,257.1319 M330.6552,270.3319"/>
	<path fill="#33073B" d="M442.5752,109.9719c4.6949-0.6567,4.0983,1.87-1.79,7.58c0.2605-2.786-0.9828-3.3794-3.73-1.78
		C437.2938,112.1498,439.1338,110.2165,442.5752,109.9719C443.3152,109.9619,441.3652,110.4119,442.5752,109.9719z"/>
	<path fill="#33073B" d="M186.4852,114.9819c-4.3468,0.944,11.48-4.2899,12.09,10.35
		C195.4024,127.3871,186.8021,115.0248,186.4852,114.9819C182.5252,115.8419,187.8152,115.1619,186.4852,114.9819z"/>
	<path fill="#33073B" d="M189.1652,125.1819"/>
	<path fill="#33073B" d="M250.4852,136.2419"/>
	<path fill="#33073B" d="M260.4452,173.0819c6.6369,7.2091,12.2182,4.6566,18.16,9.76
		C266.7117,184.381,262.1101,191.1331,260.4452,173.0819C262.1852,174.9719,260.6352,175.1419,260.4452,173.0819z"/>
	<path fill="#33073B" d="M376.3752,203.3619c3.9509-8.1631,9.8309-14.5698,17.64-19.22c0.4276,1.5509,0.7664,3.1225,1.0162,4.715
		C395.1725,187.6318,377.1524,203.412,376.3752,203.3619C377.3052,193.6019,378.8552,203.5219,376.3752,203.3619z"/>
	<path fill="#33073B" d="M277.2852,187.3719c4.057,1.7388,8.4108,8.5072,6.04,13.23
		C278.3653,197.2644,277.6019,192.9818,277.2852,187.3719C277.8452,187.6119,277.3552,188.6119,277.2852,187.3719z"/>
	<path fill="#33073B" d="M361.6752,201.3919c4.0439-1.9325,1.9579,10.2069-1.27,11.72
		C360.2597,209.6917,358.39,204.1489,361.6752,201.3919C363.9352,200.3119,358.5652,204.0019,361.6752,201.3919z"/>
	<path fill="#33073B" d="M292.4252,209.5519c6.2159-4.0201,15.0956-18.4935,3.19,15.79
		C294.5519,220.0786,293.4886,214.8152,292.4252,209.5519C294.2652,208.3619,295.6652,214.1619,292.4252,209.5519z"/>
	<path fill="#33073B" d="M359.6752,219.9919c3.6049-12.4175-1.1869,33.7905,1.78,12.51
		C348.035,227.7411,360.9288,226.1902,359.6752,219.9919C359.7652,219.6819,360.2152,222.6619,359.6752,219.9919z"/>
	<path fill="#33073B" d="M293.6552,237.2719c0.32-3.16,0.97-6.29,1.55-9.4C294.8552,231.0119,296.1952,234.8519,293.6552,237.2719z"
		/>
	<path fill="#33073B" d="M356.9052,262.5519c-4.2541-3.7223,4.7248-3.869,5.33-3.99c3.0459,6.839-5.1321,6.4125-3.64,12.24
		C346.2096,265.6826,362.0877,266.9238,356.9052,262.5519C355.3852,261.2219,359.0152,264.3319,356.9052,262.5519z"/>
	<path fill="#33073B" d="M327.2652,283.3619c7.8261-0.3195-0.6659,37.1655-0.7225,36.995c0.0907-2.1537-0.1801-4.267-0.8125-6.34
		c0.8247,2.5175,0.3264,4.6692-1.495,6.455c2.0565-6.352-0.0268-8.4153-6.25-6.19
		C326.6774,302.8336,327.2652,298.1852,327.2652,283.3619C327.7552,283.3419,327.2652,283.8119,327.2652,283.3619z"/>
	<path fill="#33073B" d="M320.3952,286.8219c2.0587-4.7444,3.3703,7.2896,2.2,10.42
		C321.8619,293.7686,321.1285,290.2952,320.3952,286.8219C320.6252,286.2919,320.6852,290.3919,320.3952,286.8219z"/>
	<path fill="#33073B" d="M339.4252,300.2619c4.8708-7.0904,3.7739,0.5707,3.23,3.86
		C339.3065,307.4849,338.2298,306.1983,339.4252,300.2619C340.2152,299.1119,336.4952,303.5019,339.4252,300.2619z"/>
	<path fill="#33073B" d="M324.5452,300.1319l0.7-0.38C329.0252,302.0719,323.3652,304.5819,324.5452,300.1319z"/>
	<path fill="#33073B" d="M308.109,294.5742c2.3937-14.4756,5.4119,11.1738-0.0725,14.7463
		C303.7505,305.8569,303.7747,300.9414,308.109,294.5742C308.529,292.0342,307.659,298.9542,308.109,294.5742z"/>
</g>
<rect x="0" y="0" fill="none" width="646.4617" height="388.742"/>
</svg>
