<?xml version="1.0" encoding="utf-8"?>
<!-- Generator: Adobe Illustrator 17.0.0, SVG Export Plug-In . SVG Version: 6.00 Build 0)  -->
<!DOCTYPE svg PUBLIC "-//W3C//DTD SVG 1.1//EN" "http://www.w3.org/Graphics/SVG/1.1/DTD/svg11.dtd">
<svg version="1.1" id="Layer_3" xmlns="http://www.w3.org/2000/svg" xmlns:xlink="http://www.w3.org/1999/xlink" x="0px" y="0px"
	 width="646.4617px" height="388.742px" viewBox="0 0 646.4617 388.742" enable-background="new 0 0 646.4617 388.742"
	 xml:space="preserve">
<g id="layer-3--33073bff">
	<path fill="#33073B" d="M311.9252,102.2919c-11.6439-13.5807,18.9701-29.645,15.45-4.24
		C331.5519,105.5582,309.7425,110.4776,311.9252,102.2919C306.6952,96.1919,311.8052,102.7419,311.9252,102.2919z"/>
	<path fill="#33073B" d="M306.9252,104.1919C314.2592,93.0646,305.3529,120.3861,306.9252,104.1919
		C308.0852,102.4319,306.8252,105.2219,306.9252,104.1919z"/>
	<path fill="#33073B" d="M329.5052,103.2119c4.25-2.03,2.78,5.63-0.92,3.92C328.8052,105.8019,328.3352,104.2119,329.5052,103.2119z
		"/>
	<path fill="#33073B" d="M310.0452,112.7819c9.0428-8.627,32.7259,4.889,43.27,5.23c11.4931,0.0782,11.075,32.0635,10.74,31.98
		c9.1421-17.4661,8.1673,17.2805,8.14,18.29c-9.5076-21.2639-5.7714,4.795-6.6,11.89c6.5906-1.7872,0.5154-2.4708,3.98-6.31
		c3.4088,8.8485-2.1653,37.4271-1.01,48.98c4.9891,34.6024,9.9487,28.172,22.82,44.21c0.0269-2.0689-18.789,31.7016,2.86,33.13
		c-1.8315-3.133-1.2449-5.5796,1.76-7.34c-2.6938,6.3411,7.641,11.6939,10.27,14.37c-3.9659,14.6602,7.1061,10.7156,7.01,23.88
		c-2.7427,0.8165-5.4327,1.7798-8.07,2.89c-7.1829,5.7121,10.9152,7.4618,10.47,7.1c-31.23,0-62.46,0-93.69,0
		c0.8894-2.8463,36.5447-0.9887,40.3-1c-4.8497-7.5413-13.5423-42.5739-11.77-46.91c4.157-0.3022,6.4737,1.6344,6.95,5.81
		c-0.4254-1.0943,3.7111-25.4144-3.09-23.9c0.02,0.96-1.179,24.1001-5.54,15.84c-0.0973-1.3734-8.8144-47.7588,0.72-47.16
		c2.9706,7.4355-3.8128,19.4809,1.4537,26.5762c1.2398,1.6703-2.2175-34.896,2.1413-39.4887
		c-1.8112,1.9084,11.6818,78.1145,12.245,91.3925c2.9677-7.7676,17.2345-11.6763,6.94-18.1c-2.324-5.1114-11.5843-40.964,0.2-41.13
		c-0.652,0.7101-3.2817,11.3218,1.04,8.18c3.8217-0.6233-1.4426-12.5929-1.62-14.45c-1.9233,6.8387-4.1079,7.4741-6.5538,1.9062
		c-2.0721-5.106-0.3976-7.1281,5.0237-6.0662c-4.7094-12.6793-1.0188-112.0307-22.03-116.61
		c16.5978-12.965-47.098-13.2376-53.79-12.78c0.9661,11.4389-15.2824,48.1311-16.6075,67.1862
		c-1.8845,27.0993,13.3173,74.5149-4.8025,99.1438c-6.1485-32.2508-28.1722,48.7509-19.3,43.21
		c7.6417-12.6836,12.3327-15.0573,17.45-32.36c-5.2351,28.4747-3.9073,13.0356,7.0388,18.015
		c-7.5031-3.4132,14.691-99.6047,12.5112-104.325c-1.8432-10.2806-12.5693-57.4271-4.5738-65.8625
		c17.185-18.1305,33.0972-9.7723,57.9438-16.9875c-1.6238,7.0748,4.4223,8.0544,7.56,12.4525
		c10.5402,14.7742-2.7027,37.0879-0.71,54.3075c-3.4017,14.4571-4.4389,30.5069-1.82,45.19
		c-11.308,0.1713-5.537-16.9126-5.9838-22.9825c0.2611,3.5474-7.4681,19.9417-7.9862,25.6425
		c-7.2981,1.9062-3.9634,4.1222-4.97,10.44c-0.235-4.6711,1.605-7.7811,5.52-9.33c0.5924,7.9957-1.9831,12.8737-0.48,18.15
		c-13.5287-3.055-16.8492-33.2617-10.35-35.66c-48.2926-8.3745-15.0514,43.3659-23.85,61.57c-2.5731,0.0571-11.5519-9.2545-14.86-10
		c-0.3005,9.9845,3.2169,17.3177,0.24,26.25c-5.6962,26.5824-1.9234,25.7529,16.12,33.84c-11.3467,0-90.274-1.9069-60.23-2.14
		c-3.166-6.2116-13.2769-0.907-14.68-10.71c13.3085-7.4585,18.838-34.897,19.4275-35.13
		c12.5701-4.9691,27.2767-34.8244,25.1125-47.55c5.9411-7.2688,6.4669-93.9582,3.21-98.75
		C274.8836,143.049,277.1107,109.2508,310.0452,112.7819 M358.5352,127.3619c-0.62,1.09-0.83,3.5,0.8,3.79
		C361.4052,130.8419,360.4252,126.8519,358.5352,127.3619 M295.2652,146.2319c1.0502,0.3306,19.5138,1.6484,18.03-3.02
		C316.242,143.464,292.5984,145.5007,295.2652,146.2319 M317.5052,143.2819C308.2769,147.9288,326.7457,139.9662,317.5052,143.2819
		 M329.6352,143.7819c0.3649,2.1761,13.1042,3.8477,13.2475,3.3025C344.9566,139.1915,330.6487,145.8203,329.6352,143.7819
		 M291.5352,149.0019c0.16,1.68,0.33,3.37,0.93,4.97C295.4152,155.3219,294.4352,148.1919,291.5352,149.0019 M296.0052,158.8019
		c-2.7149,9.0341-2.8328,30.0952-2.7,44.3c10.144,1.1871,1.4514-21.9514,0.98-19.07c1.6318,5.604,6.1706-38.6026,3.97-33.93
		C297.2419,152.9325,296.4919,155.8325,296.0052,158.8019 M338.6752,154.2719c-0.9058,6.5566-8.1213,16.81,4.59,16.81
		C343.7743,161.3787,337.3185,150.5307,338.6752,154.2719 M347.3652,150.1019c-0.15,2.54-0.89,6.27,2.92,4.96
		C350.4252,152.5219,351.1752,148.7919,347.3652,150.1019 M369.5652,150.3719c-1.88,0.82-2.24,5.93,0.73,4.7
		C369.9852,153.8519,371.2052,149.5719,369.5652,150.3719 M289.5352,153.2419C274.6573,166.865,297.0448,150.0343,289.5352,153.2419
		 M318.5352,153.1919C309.3147,160.1074,331.5167,150.546,318.5352,153.1919 M331.5152,157.2319c-2.8,1.62,1.32,2.91,2.62,1.55
		C335.2152,157.1419,332.5652,156.4519,331.5152,157.2319 M317.3152,159.1419c0.02,3.6,5.49,2.76,8.09,3.96
		C323.8152,160.3619,320.3852,159.1819,317.3152,159.1419 M328.5452,164.0819
		C330.3183,161.1416,331.7389,170.6372,328.5452,164.0819 M307.1952,164.2919
		C307.1776,168.0914,325.9167,167.3316,307.1952,164.2919 M304.3752,178.0419c2.678,0.7604,11.4692-3.3347,11.84-3.86
		C308.5889,168.4007,307.1405,172.3949,304.3752,178.0419 M331.6152,171.5219c-3.7209,0.6183-4.7776,2.7283-3.17,6.33
		C334.7848,180.7081,337.8618,171.1101,331.6152,171.5219 M321.4952,174.4619c-5.9673,0.5201-6.6902,1.8434-2.1688,3.97
		C324.1208,177.2119,328.7986,174.0165,321.4952,174.4619 M313.2452,181.9219c-11.6138-4.0495-0.5443,8.7941,0.17,10.02
		c-12.6089,2.1015-25.9709,35.4343-15.6175,38.2888c34.2809,9.4513,54.1407-45.9885,33.1237-49.6738
		C331.6284,180.6809,314.5111,185.8952,313.2452,181.9219 M344.0752,181.1319c-2.2414,1.1456-7.3654-0.9654-5.8,3.96
		c6.2785-3.6089,3.7197,7.8431,7.34,14.83C351.359,198.8921,344.9184,178.3734,344.0752,181.1319 M293.4352,207.1219
		c-0.36,3.32-0.72,6.64-1.08,9.96C298.1758,216.9632,293.4353,207.0865,293.4352,207.1219 M292.6552,218.2619
		c0.02,1.33,1.75,2.16,1.11,3.67C296.8952,222.7619,295.2252,216.7019,292.6552,218.2619 M333.5852,219.2519
		c-4.4638,5.1975,3.2703,7.4337,4.76,4.1067C339.7287,218.7178,338.1421,217.3489,333.5852,219.2519 M288.2552,226.0819
		c1.03,2.8,2.55,5.4,0.08,8.02C293.6552,236.2219,292.2352,225.4919,288.2552,226.0819 M291.5552,235.3719
		c-0.7259,0.3848-3.6348,16.9948-3.31,15.7C296.2997,250.7216,289.8748,236.7314,291.5552,235.3719 M287.5052,267.0219
		c-1.5233,7.5649-0.8092,9.1395,2.1425,4.7237C289.5216,268.1047,286.8352,258.106,287.5052,267.0219 M267.3752,267.1219
		c-0.5,2.62-0.23,4.97,3.03,3.96C267.8252,269.9819,270.2852,266.1619,267.3752,267.1219 M373.4552,283.1519
		c-1.1651,17.2962,11.7134,11.2982,11.4887,26.7525c-0.0731,5.0255-8.0668-5.6941-7.5887-5.8125
		c2.027,4.054,7.3182,27.2017,16.8,31.09C399.2842,320.8018,381.6623,281.7245,373.4552,283.1519 M358.3452,304.1019
		c0.02,2.99-1.46,8.35,2.93,8.02C360.9952,308.9619,363.4952,302.4819,358.3452,304.1019 M379.4352,325.3419
		c-2.45,1.27,1.36,3.34,2.67,2.46C383.0152,326.2619,380.6052,325.2519,379.4352,325.3419 M269.5452,327.3719
		c-0.4827,5.71-2.9848,8.3538-7.5063,7.9312c-9.6562,4.2446,28.9366,1.6503,16.3163,4.7588c2.3562-7.705-5.9783-0.8989-6.7362-0.925
		C269.9774,339.0804,271.0547,329.1877,269.5452,327.3719 M375.9452,333.8919
		C384.0218,332.0164,377.0416,340.1741,375.9452,333.8919 M239.3452,329.0519c-1.35,3.19,2.07,4.14,3.83,1.87
		C243.3052,328.9519,240.7352,328.9719,239.3452,329.0519 M388.2852,329.3419c0.418,2.48,0.6515,10.5724,6.05,9.77
		C393.938,333.7117,393.5791,330.2761,388.2852,329.3419 M256.5452,331.1919c-0.61,2.28-1.43,4.56-1.24,6.97
		C257.8252,337.5219,260.3252,330.4219,256.5452,331.1919z"/>
	<path fill="#33073B" d="M320.7052,194.9719c2.672,2.5322,6.4025,0.0116,9.87,3.26c-1.1227,0.5717-10.8334,8.7503-10.36,8.87
		c-0.9587-12.3246,2.3429-3.2838-4.06-2.62C312.311,195.0058,321.4062,200.8402,320.7052,194.9719z"/>
	<path fill="#33073B" d="M305.8852,235.3919c3.9408-1.11,5.0107,1.4967,3.21,7.82
		C305.9487,242.8658,306.5524,237.0749,305.8852,235.3919z"/>
	<path fill="#33073B" d="M310.3052,239.0919c4.47-1.23,1.44,5.36,2.02,7.98C310.5052,245.8319,310.6452,241.5719,310.3052,239.0919z
		"/>
	<path fill="#33073B" d="M310.5852,251.3919c4.5218-2.6821,2.6985,13.5596,2.57,12.76c-3.2412-4.5411-3.8912-4.2011-1.95,1.02
		C301.6895,270.0714,303.2263,252.6693,310.5852,251.3919C313.2152,249.8319,307.9352,251.8519,310.5852,251.3919z"/>
	<path fill="#33073B" d="M297.4452,253.2319c4.12-0.31,2.54,6.14-0.96,4.92C297.7252,256.5419,295.8452,254.4719,297.4452,253.2319z
		"/>
	<path fill="#33073B" d="M385.3752,272.1619c-1.53-4.96,8.75-0.15,3,0.03C387.6252,272.1819,386.1252,272.1719,385.3752,272.1619z"
		/>
	<path fill="#33073B" d="M132.3252,291.3619c19.4443,5.2552,52.3791,0.3495,67.34,19.99
		c-12.3348,5.8487-38.4206-15.2614-38.39-14.26C155.031,296.3383,138.2598,301.266,132.3252,291.3619
		C137.8752,292.8619,133.8352,293.8819,132.3252,291.3619z"/>
	<path fill="#33073B" d="M302.2952,292.0319c-1.2696,11.7024,2.7347,5.9106-9.83,15.29
		C292.317,309.997,302.4508,291.8955,302.2952,292.0319z"/>
	<path fill="#33073B" d="M508.2731,300.3799c-20.0496-3.9534-39.2572,9.4647-56.4909,13.16
		c-0.1128,0.1354,11.2476-9.4708,8.3283-9.25c-6.5514,3.1212-15.4898,9.3173-22.0149,8.63c2.6225,1.9619,5.5544,2.562,8.7956,1.8
		c-7.4863,0.4088-13.0246,3.2988-16.615,8.67c21.665-0.3832,57.8362-23.4366,71.3185-18.1938
		c-1.6375-0.6368-8.0512,10.2-9.2512,14.3737C499.1036,317.199,506.2047,306.1106,508.2731,300.3799
		C506.0923,299.9499,507.0062,303.8899,508.2731,300.3799z"/>
	<path fill="#33073B" d="M316.5352,303.2619c-13.8785,5.0208,26.6158,39.1572-13.2,37.82c8.2007-13.9895,3.9462-20.7585,5.01-33.79
		c8.9921,2.1474-2.0862,10.3273,6,16.88C314.3452,316.0769,314.2104,310.6241,316.5352,303.2619 M312.3052,331.0919
		c0.2,2.84-1.47,6.92,1.97,8.09C313.3852,336.7019,314.3952,332.2219,312.3052,331.0919z"/>
	<path fill="#33073B" d="M204.3252,320.1319c0.8261-3.7302,13.8616,5.994,13.91,5.81
		C214.5487,327.2738,203.5879,327.0006,204.3252,320.1319C205.2952,315.7519,203.7552,325.4419,204.3252,320.1319z"/>
</g>
<rect x="0" y="0" fill="none" width="646.4617" height="388.742"/>
</svg>
