<?xml version="1.0" encoding="utf-8"?>
<!-- Generator: Adobe Illustrator 17.0.0, SVG Export Plug-In . SVG Version: 6.00 Build 0)  -->
<!DOCTYPE svg PUBLIC "-//W3C//DTD SVG 1.1//EN" "http://www.w3.org/Graphics/SVG/1.1/DTD/svg11.dtd">
<svg version="1.1" id="Layer_12" xmlns="http://www.w3.org/2000/svg" xmlns:xlink="http://www.w3.org/1999/xlink" x="0px" y="0px"
	 width="647.4549px" height="388.742px" viewBox="0 0 647.4549 388.742" enable-background="new 0 0 647.4549 388.742"
	 xml:space="preserve">
<g id="layer-12--33073bff">
	<path fill="#33073B" d="M11.4052,43.0819C16.548,45.8355,12.3729,43.6,11.4052,43.0819L11.4052,43.0819z"/>
	<path fill="#33073B" d="M98.4252,43.0819C105.4774,44.9238,100.2988,44.5467,98.4252,43.0819
		C98.4252,43.0819,98.9752,43.5119,98.4252,43.0819z"/>
	<path fill="#33073B" d="M357.8725,106.4483c-2.3079,3.9376-4.7855,7.9242-7.3932,11.6035
		C353.5128,115.4017,355.9363,111.2899,357.8725,106.4483z"/>
	<path fill="#33073B" d="M375.4825,68.538c-2.323-1.8922-3.3546-4.9592-3.1469-7.9832c-0.6658-7.3239,3.5808-15.059,11.1096-15.873
		c-23.1643-25.0428-39.0715,51.5857-49.4596,58.2393c1.3959-0.8941-9.6349-8.6299-9.6504-8.9792
		c-4.6588,2.1744-15.0795,8.699-19.82,10.29c-9.6205,20.4606-35.6612-15.7997-34.06-23.07c-0.2086-4.213,4.8894-0.8735,5.95,7.25
		c9.4507-8.404,11.6449-15.6297,10.5195-21.5555c-1.3954,3.9073-7.0479-4.5681-7.5295-1.5845
		c-8.9894-1.678,1.158-3.9088,5.7592-3.3275c-2.2343-4.1801-5.8915-7.4794-8.8792-9.8225c0.0533,0.2001,2.9371,8.8691-1.1338,7.0825
		c-6.1532-2.7006-3.8849-19.9554-15.0699-11.06c1.1163-0.8878-7.9625-4.7883-9.8262-5.0625
		c0.3983,3.8348,7.1997,11.5031,10.07,13.34c2.2345-1.7778,2.7841-3.9528,1.6487-6.525
		c3.8906,1.7276,15.3829,24.2667,14.6613,26.1188c-0.5738,1.4727-11.1049-16.1284-13.55-19.9538
		c-2.7999,4.122-2.8629,3.5599-5.85,6.45c11.0426,12.2101-1.551,4.3529,1.8,11.86c1.4962-0.2945,5.335-3.6725,6.9957-1.2983
		c-0.8974-0.3196-6.6365,4.9371-6.7057,7.9383c1.8099-2.0483,3.9366-2.4483,6.38-1.2c7.8699,9.9994-31.7797,13.9154-24.54,29.3
		c8.0212-3.4573,0.8642,1.2035,3.18,5.8701c3.7678-4.4691,7.3244-9.1024,10.67-13.9c-3.5889-0.5995-6.1155,0.8205-7.58,4.26
		c9.8525-30.297,28.0882,6.2488,36.01,11.53c-5.0966,0.5473,39.451,7.8887,29.88,4.29c6.7949,1.3251,0.9737,18.1122,12.2,10.93
		c-3.0555-6.0579-5.6978-5.6683-2.68-13.99c9.297-2.9545,1.6722,17.0177,5.47,16.04c7.8032,0.8851,15.4238-6.5662,22.1741-16.0901
		c-3.5776,3.1255-8.0004,4.2214-13.4741,2.0664c-1.2368-0.4869,5.8444-9.3715,7.09-10.1763c-6.8276-1.2711-3.9005,0.0206-4.61-6.7
		c-2.1594-0.4236,22.9803-4.4465,17.7-13.75c-0.1765,7.0214-11.0012-4.8201,1.7975-6.3199c0.0598-0.007,2.9048,5.8389,3.1525,6.14
		c-0.0355-5.7468-8.5153-21.0349-9.61-20.35c-2.6541-2.2648,12.7383-8.1007,13-8.85c0.0115,0.0626-0.426,28.2656-7.6527,46.3364
		c5.1555-8.7958,9.4648-17.3358,12.4827-21.5964c-11.475-5.7858,13.4585-11.676,13.32-11.38
		C380.0382,72.6138,377.3396,70.8248,375.4825,68.538z M309.0852,115.1519c-2.86-0.99-0.94-3.89-0.52-5.92
		C312.0052,108.2219,308.7453,113.3019,309.0852,115.1519z M325.4853,101.2819c1.7625,1.1795,3.4716,4.5461,3.1118,7.2473
		c-1.4485-0.5248-6.7567,1.4881-5.6484,2.5425C320.0581,109.0932,325.0166,101.9509,325.4853,101.2819z M322.5752,113.1919
		c2.34-0.38,5.73,1.02,5.91,3.67C325.1753,116.4919,319.2953,117.3919,322.5752,113.1919z M332.4652,115.1919
		c0.95-3.86-5.04-2.25,0.17-4.79C337.1852,108.3919,333.4253,113.2819,332.4652,115.1919z"/>
	<path fill="#33073B" d="M287.1886,62.9963c-0.037-0.5735-0.8571-0.9033-2.0341-1.0519c0.8133,1.5217,1.4374,3.1592,1.7703,4.9121
		C287.1964,66.0955,287.3096,64.8733,287.1886,62.9963z"/>
	<path fill="#33073B" d="M284.5752,59.3319C284.0052,65.3219,290.5652,58.7619,284.5752,59.3319"/>
	<path fill="#33073B" d="M320.4852,100.2419C319.4752,104.8819,325.1252,99.2419,320.4852,100.2419"/>
	<path fill="#33073B" d="M310.5052,101.4519C308.6852,106.1819,314.8452,101.6619,310.5052,101.4519"/>
	<path fill="#33073B" d="M308.5952,105.3419C306.4652,110.5919,312.7952,104.6319,308.5952,105.3419"/>
	<path fill="#33073B" d="M314.4452,109.9719C320.3714,117.7215,315.4108,101.1076,314.4452,109.9719"/>
	<path fill="#33073B" d="M316.0252,115.1619C313.6364,114.2725,316.7923,118.6697,316.0252,115.1619"/>
	<path fill="#33073B" d="M295.4852,117.2419"/>
	<path fill="#33073B" d="M552.7952,43.0819c4.4779-2.8257-3.9712,10.2296-8.47,1.04
		C547.1486,43.7752,549.9719,43.4286,552.7952,43.0819z"/>
	<path fill="#33073B" d="M580.3652,43.0819C591.7578,45.7849,580.2792,45.1505,580.3652,43.0819
		C580.3652,43.0819,580.3452,43.5619,580.3652,43.0819z"/>
	<path fill="#33073B" d="M621.9052,43.0819c7.8602,1.2854,4.9053,2.7371,6.1681,2.9045
		c-12.6647,2.2198-39.9222,7.683-41.8031,5.2017c-3.6544-4.8209,13.755-1.585-3.665-5.4463
		c-1.8588,1.7278-1.1257,5.6144,0.3165,7.4351c-2.5765,0.9797-5.2858,2.0905-5.5901,2.0232
		c5.9849,11.6477,12.0031-1.5267,19.0336-2.3182c-3.5955,3.8129,10.085,20.8636,10.3475,20.7662
		c-19.0133,7.0489-36.2354,9.3508-50.4075,9.7238c-3.3055,1.9194-38.1559,6.6685-47.3437,12.6934
		c-15.946,4.3739-36.4488,20.9966-50.6262,20.9966c-0.0011,0.0531,1.3256,6.1592,2.191,9.8563
		c-28.9385,7.2015-71.2632,29.1252-64.0211,45.1937c3.9386-0.5626,7.1448,7.3876,9.26,3.79
		c1.424-7.5793-3.415-21.1264,12.0225-19.4575c-0.7719-0.0834,21.1719-10.9483,21.18-10.9362
		c-0.6215-0.9294,5.1124,7.5423,7.6241,7.4846c-8.2891,8.4442-16.6259,23.754-27.4329,14.8029
		c2.558,2.1188,4.4973,21.4848-5.9937,19.3463c2.922-7.0043-7.2936-7.9357-7.23-7.99
		c3.4452,12.2173-26.3033,13.4875-25.5068,29.1373c0.1292-0.0494,2.0292,14.1349,4.1352,14.9456
		c-3.6944,2.2143-15.807,8.6718-11.2384,16.8471c3.6389-2.2064,21.4467-20.7515,24.8675-13.0687
		c0.1793,0.4026,0.3079,0.7835,0.3969,1.1478c1.5592-3.1547,3.1613-7.0789,4.9756-12.1591c6.9008,2.4444,5.1727,7.566,6.11,13.19
		c2.6198-6.7042,4.34-8.2908,5.8029-10.1418c-8.2689,1.1644-16.05-9.5648-8.1319-16.0826
		c5.6428-4.6449,12.1689-8.3706,19.1113-10.5598c5.1445-13.7424,12.2629-31.8667,13.6677-17.3857
		c3.3817-1.4855,10.6852-6.9109,14.8735-10.369c4.1127,2.5304,7.7196,1.2828,10.8222-3.7344
		c1.1693-0.0001,2.1882-0.824,3.0543-2.4866c-5.1109-5.2712-10.9009-5.8746-17.37-1.81c-1.5747-1.9495-1.738-3.9495-0.49-6
		c6.2318-2.4415,12.7518-3.5482,19.56-3.32c3.2579,0.462-7.0793,4.8037-4.16,7.66c5.5518-4.0263,8.2097-4.9307,14.92-5.83
		c0.1527-1.1667-0.1068-2.0603-0.73-2.713c0.598,0.1692,1.2009,0.3331,1.8067,0.4918c-1.173-1.2626-2.0399-2.8342-2.4597-4.4872
		c-1.4335-0.9373-2.4939-2.3073-3.1725-3.8729c-9.485,0.4294-18.9456,1.5261-20.5146,0.4913
		c2.1184,1.2447,12.5598-4.8187,21.0749-10.1488c1.0303-1.6798,2.6188-3.0255,4.8-3.6802
		c-3.5388-1.1088-9.2506-0.8356-16.1067,0.4839c6.5447-3.3947,16.5562-4.4959,19.4221-1.9945
		c2.2668-1.4698,3.6393-2.36,3.456-2.1541c-1.8416,2.0683,26.0539-3.1453,32.39-9.6038c0.3945-0.4021-7.6417-2.5522-6.57-5.3475
		c5.0588-13.1949,33.6091-9.7833,50.0878-8.3841c1.6586-0.8718,3.3748-1.6736,5.1606-2.3854
		c6.5211-2.5989,13.0733-3.4853,19.8251-5.1421c0.9689-0.2377,1.9291-0.4993,2.8855-0.7715
		c0.2125-0.8059,0.2322-1.3461-0.1752-1.3019c1.9264-0.7111,2.7262-0.3629,2.8827,0.4866c2.6453-0.8362,5.2569-1.7684,7.8587-2.7375
		c-4.6285-1.1396-9.7204-4.0747-5.9714-4.1591c2.9216-4.259,6.9583-5.9691,12.11-5.13c-0.6865,3.4246-2.7565,5.1613-6.21,5.21
		c0.0931,0.7275,1.2961,2.0851,2.5589,3.0551c4.3149-2.8583,8.1531-7.4847,10.2049-15.4739
		C616.5833,67.3934,662.9914,35.3216,621.9052,43.0819z M390.9715,223.6631c-0.1931,0.0847-3.3765-16.2175,0.4238-16.8212
		C390.6628,199.6556,412.0703,214.4159,390.9715,223.6631z M461.5865,158.1169c1.5236,1.8027,2.8883,2.7351,4.0953,2.8025
		C460.1565,164.4723,458.7856,163.5445,461.5865,158.1169z M444.0015,142.6719c-3.8087,1.5625-0.0139-1.7285,2.4337-2.53
		C447.493,130.0101,450.0932,140.1727,444.0015,142.6719z M448.8784,145.1016c0.7867-1.5343,2.0092-4.3265,2.2768-5.1797
		C455.2543,133.8471,457.0031,146.3624,448.8784,145.1016z M493.3477,116.4656c-5.9648-0.1461-6.4923-1.1506-1.5825-3.0137
		C501.4938,115.5104,502.0213,116.5149,493.3477,116.4656z M500.4004,108.2762c1.4326-1.3176,2.9943-4.321,2.8649-3.8743
		C508.1856,103.9683,520.7268,110.9604,500.4004,108.2762z M522.6552,94.3819c1.61-0.72,3.72-0.72,5.34,0
		C527.3352,95.7419,523.3052,95.7419,522.6552,94.3819z M533.2052,93.0819c0.88-2.8,4.12-0.13,3.34-3.97
		C543.7952,88.6919,537.1152,94.7419,533.2052,93.0819z M611.5752,61.2819c1.25-2.64-0.89-5.57,0.94-8.04
		C616.6552,51.4919,615.3452,61.6419,611.5752,61.2819z"/>
	<path fill="#33073B" d="M385.5169,222.5919c0.0261-0.0466,0.0522-0.0781,0.0783-0.13
		C385.6053,222.4917,385.5706,222.5381,385.5169,222.5919z"/>
	<path fill="#33073B" d="M368.7453,254.2519c14.7882-11.2289,21.2126-12.6499,26.798-20.8013
		C387.804,237.7582,368.6548,238.7589,368.7453,254.2519z"/>
	<path fill="#33073B" d="M398.5896,228.1609c-1.0179,2.0594-2.0185,3.7896-3.0463,5.2897
		C397.8775,232.1514,399.1732,230.5505,398.5896,228.1609z"/>
	<path fill="#33073B" d="M635.5952,47.3419C633.4652,52.5919,639.7952,46.6319,635.5952,47.3419"/>
	<path fill="#33073B" d="M610.6152,51.1919C605.9852,55.7819,615.2252,51.8919,610.6152,51.1919"/>
	<path fill="#33073B" d="M618.5952,52.4019C616.7452,57.9519,624.5152,51.4219,618.5952,52.4019"/>
	<path fill="#33073B" d="M630.3152,53.1419C629.4252,61.2719,636.6952,51.6319,630.3152,53.1419"/>
	<path fill="#33073B" d="M614.4652,71.4619C612.9852,76.0819,618.6652,72.6719,614.4652,71.4619"/>
	<path fill="#33073B" d="M590.5352,83.4919C589.1352,89.6219,596.3652,84.5619,590.5352,83.4919"/>
	<path fill="#33073B" d="M530.4852,92.2419C529.4752,96.8819,535.1252,91.2419,530.4852,92.2419"/>
	<path fill="#33073B" d="M434.5452,140.2619C430.4052,143.3319,437.6352,142.9519,434.5452,140.2619"/>
	<path fill="#33073B" d="M448.5752,154.4019C447.7052,159.9819,453.1152,155.8519,448.5752,154.4019"/>
	<path fill="#33073B" d="M448.6452,163.3519C447.6652,169.2719,454.1952,161.5019,448.6452,163.3519"/>
	<path fill="#33073B" d="M425.6552,184.2719C426.1152,188.6719,430.3252,183.4019,425.6552,184.2719"/>
	<path fill="#33073B" d="M7.7283,46.9842c-0.4006,1.3926-0.7411,2.8012-1.076,4.2108c1.3195-0.1705,2.3553-1.1767,1.9729-3.283
		C8.5409,47.8189,8.202,47.4289,7.7283,46.9842z"/>
	<path fill="#33073B" d="M48.2152,52.1319c-6.2651-2.7767-6.5784-5.1767-0.94-7.2c5.0893,4.4755,32.7509,13.7255,32.7863,15.7175
		C80.2587,71.7533,50.5901,55.5979,48.2152,52.1319C44.1052,50.0719,48.5852,52.6719,48.2152,52.1319z"/>
	<path fill="#33073B" d="M204.6852,53.2919c2.24-2.0867,4.48-4.1733,6.72-6.26c0.3123,2.3378-10.9078,18.745-12.27,21
		c0.1789,0.1657-6.7833,0.5965-6.0925-0.5437C196.5595,61.6837,202.3748,54.5175,204.6852,53.2919
		C207.2252,51.6019,203.5352,53.9019,204.6852,53.2919z"/>
	<path fill="#33073B" d="M537.5352,47.3519"/>
	<path fill="#33073B" d="M4.868,57.7548c1.0667-0.7916,2.2491-1.6473,3.4334-2.4844c-0.8762-0.272-1.654-0.767-2.3792-1.0811
		C5.6131,55.3896,5.273,56.5813,4.868,57.7548z"/>
	<path fill="#33073B" d="M8.3014,55.2704c1.5745,0.4888,3.4653,0.2501,5.9338-3.0885
		C18.0925,48.6861,13.2148,51.7977,8.3014,55.2704z"/>
	<path fill="#33073B" d="M509.6152,53.4219C513.5139,56.8643,509.4244,55.3789,509.6152,53.4219
		C509.6152,53.4219,509.5752,53.8319,509.6152,53.4219z"/>
	<path fill="#33073B" d="M513.5852,54.3319c10.6028-6.4348-5.6755,17.1783-10.99,7.73
		C505.9458,57.8859,510.0668,57.1656,513.5852,54.3319z"/>
	<path fill="#33073B" d="M524.5452,53.1619C527.5023,53.4307,526.326,54.6095,524.5452,53.1619
		C524.9852,53.2019,524.5452,53.1619,524.5452,53.1619z"/>
	<path fill="#33073B" d="M240.7052,57.8819c6.4592,2.4451,8.7301-0.805,14.94,4.12
		C250.3716,67.0935,243.5763,58.741,240.7052,57.8819z"/>
	<path fill="#33073B" d="M32.3052,64.2719c-2.8224-8.0248,4.255,6.019,5.44,12.26C28.574,81.7312,32.2088,63.9967,32.3052,64.2719z"
		/>
	<path fill="#33073B" d="M488.6752,65.4219c1.0706-3.3781-22.0011,29.5735-37.55,15.91
		C461.6935,70.8244,479.6234,75.0062,488.6752,65.4219C490.4753,59.7419,486.8052,67.4019,488.6752,65.4219z"/>
	<path fill="#33073B" d="M3.9251,64.1412c0.0381,0.7496,0.0366,1.4927-0.0089,2.2271c1.1069-0.2205,2.6282,0.7809,1.059,2.7336
		c1.2304,2.7159-1.0161,2.7801-1.9761,1.8906c-0.2142,0.6164-0.4664,1.2213-0.7568,1.8135
		c1.2525,0.7142,2.9426,1.1467,5.0729,1.2959C9.309,68.1645,8.1754,64.8472,3.9251,64.1412z"/>
	<path fill="#33073B" d="M254.1152,67.9419c-5.5402-9.1476,6.2024-0.103,5.15-0.54c-3.9555,5.9063-2.9984,0.2731-3.7213,8.85
		c0.7688-9.1223-19.4921,2.6719-20.2488,1.71C236.2824,72.1193,248.7251,66.6228,254.1152,67.9419
		C253.2552,66.5219,251.7452,67.3619,254.1152,67.9419z"/>
	<path fill="#33073B" d="M88.2552,70.0219c1.3983-3.6837,3.8043-4.4373,7.2178-2.2607c2.8391,2.4144-9.5081,8.1205-9.3553,8.3432
		C84.1581,73.2473,96.0769,66.6332,88.2552,70.0219C87.5152,63.9419,92.2252,68.3019,88.2552,70.0219z"/>
	<path fill="#33073B" d="M520.1952,67.3719c1.76-1.88,3.43,2.08,0.91,2.1C520.8752,68.9519,520.4252,67.9019,520.1952,67.3719z"/>
	<path fill="#33073B" d="M535.5852,67.2619c8.603,3.0808,4.4628,5.3284,2.59,10.61c47.9236,12.9205,0.8098-3.6395,12.55,6.09
		c-11.5195,1.7136-10.9529-8.1751-14.0675-10.5938C533.678,71.0543,537.7495,76.7322,535.5852,67.2619
		C537.0652,67.7919,535.7452,67.9619,535.5852,67.2619z"/>
	<path fill="#33073B" d="M75.3052,73.0319C78.0733,69.7604,80.9833,76.2765,75.3052,73.0319
		C75.5252,72.7719,75.8652,73.3519,75.3052,73.0319z"/>
	<path fill="#33073B" d="M109.2352,72.0319c2.939,2.7364,24.877,5.8892,21.88,11.03c-8.5078-11.2612-23.2859-1.0573-32.14-1.5
		C98.5047,75.57,112.5293,79.0229,109.2352,72.0319C109.5252,72.3019,112.0152,77.9319,109.2352,72.0319z"/>
	<path fill="#33073B" d="M510.0452,72.8619C512.6,71.1246,509.3827,79.4869,510.0452,72.8619
		C510.2952,72.6919,509.9852,73.4619,510.0452,72.8619z"/>
	<path fill="#33073B" d="M0.7248,75.3077c-0.1132,0.1536-0.2297,0.3057-0.3492,0.4569c0.2113,2.5183,1.4528,8.1495,3.5197,9.6273
		c0.5916-3.0114,1.4183-2.9314,2.48,0.24C11.3836,77.5751,9.1731,76.056,0.7248,75.3077z"/>
	<path fill="#33073B" d="M243.5352,79.0019"/>
	<path fill="#33073B" d="M251.2752,80.4019C250.4966,80.0716,257.8984,84.7487,251.2752,80.4019
		C244.0152,77.3219,251.5952,80.6119,251.2752,80.4019z"/>
	<path fill="#33073B" d="M83.2252,79.9419C91.7719,73.3821,80.2728,81.7063,83.2252,79.9419
		C85.9352,77.8619,79.8952,81.9319,83.2252,79.9419z"/>
	<path fill="#33073B" d="M238.3552,83.0319c14.206-9.9997-3.2117,9.9377-6.125,7.53
		C227.9621,87.0346,238.1263,83.6716,238.3552,83.0319z"/>
	<path fill="#33073B" d="M396.5952,81.5219c-0.3018-2.0551,14.9041,0.0078,5.82,5.64
		C400.7568,84.6252,398.6512,82.5992,396.5952,81.5219z"/>
	<path fill="#33073B" d="M133.6252,80.3819"/>
	<path fill="#33073B" d="M502.0252,82.1719c3.3883-1.3421,6.835-1.4021,10.3399-0.18c-10.5055-2.2207-8.209,7.5346-10.06,9.64
		c-15.7809-3.9062-2.5396,4.619-14.84,4.27C483.6272,92.6105,502.0731,80.9495,502.0252,82.1719
		C502.7052,77.2119,501.9153,84.9819,502.0252,82.1719z"/>
	<path fill="#33073B" d="M17.5952,82.4219c7.7423-2.3956,29.6361,15.4832,40.82,28.54c-11.4424,2.136-26.2218-20.8953-40.13-24.94
		c4.1779,3.1469,4.1912,4.8203,0.04,5.02C13.7249,89.6961,13.4815,86.8228,17.5952,82.4219
		C15.3652,83.1119,16.2952,84.5119,17.5952,82.4219z"/>
	<path fill="#33073B" d="M114.5252,81.3619c8.7219-1.0383-4.6034,13.7268-8.19,1.84
		C107.2009,83.2756,116.7767,84.5363,114.5252,81.3619C114.9452,81.3119,116.1352,83.6319,114.5252,81.3619z"/>
	<path fill="#33073B" d="M249.4152,81.2419c0.7029,2.2417,6.7699,2.6897,8.06,2.75c-1.9526,1.9367-14.5304,9.9946-16.26,10.2
		C243.3341,89.4318,246.0674,85.1151,249.4152,81.2419z"/>
	<path fill="#33073B" d="M55.3017,93.9714c1.3701-1.6447,3.3363-2.8315,5.8882-3.1341c-5.426-2.4373-14.3806-4.4797-15.4736-4.8865
		c-0.1598-0.3859-0.4388-0.9431-0.121-0.0589c0.1117,0.204,0.1691,0.2941,0.1954,0.3214
		C47.4138,88.7548,51.9556,91.784,55.3017,93.9714z"/>
	<path fill="#33073B" d="M255.9252,90.2719c1.58-4.21,4.11,0.44,0.19,0.64L255.9252,90.2719z"/>
	<path fill="#33073B" d="M176.2495,97.0057c0.8229-0.3925,1.7421-0.6677,2.7535-0.8066c2.9328-1.1888,5.015-3.3947,3.3523-7.1873
		c-3.63,2.3234-7.26,4.6467-10.89,6.97C166.8052,96.9959,171.5278,97.9415,176.2495,97.0057z"/>
	<path fill="#33073B" d="M373.4252,95.7519c4.8526-2.6425,6.886-1.5892,6.1,3.16c-1.7697-0.4281-7.5648-1.8925-8.925-0.1813
		c1.5836-1.9922,16.623,21.4756,16.295,27.4613c2.2253-0.1582-21.6915-15.7686-22.57-16.12
		C367.5884,109.9742,364.8057,95.766,373.4252,95.7519C377.4552,95.4519,367.3252,95.7619,373.4252,95.7519z"/>
	<path fill="#33073B" d="M125.6152,94.8219c2.8463,1.5388,5.7629,1.6121,8.75,0.22c-0.0517,0.4474-2.4388,6.3626-3.185,5.7
		c1.2951,1.1499,19.7493,4.3254,14.2175,9.6888C135.65,119.8816,127.5051,99.474,125.6152,94.8219
		C128.5652,99.1519,126.0052,95.7819,125.6152,94.8219z"/>
	<path fill="#33073B" d="M380.4852,100.1519c5.2299-5.7953,3.9655-3.1115,6.09,0.91
		C381.8831,103.9472,376.6761,103.737,380.4852,100.1519C381.9652,98.5119,379.8052,100.7919,380.4852,100.1519z"/>
	<path fill="#33073B" d="M403.3352,97.1219c-0.3429-0.5873,8.0134-0.4727,10.26,3.79
		C412.6187,100.7048,401.0912,100.6447,403.3352,97.1219C405.0052,99.9819,401.5452,99.9319,403.3352,97.1219z"/>
	<path fill="#33073B" d="M418.3952,99.1619C419.6205,98.0767,408.6807,104.8987,418.3952,99.1619
		C418.3952,99.1619,417.1252,99.9119,418.3952,99.1619z"/>
	<path fill="#33073B" d="M212.2552,168.3719c-15.7172-2.2455-68.7798-29.7455-89.1413-25.9163
		c10.4337-2.5368,30.6678-2.827,33.3013-3.2936c-4.3328-19.4074-40.3726-27.8822-65.5611-35.1361
		c-0.3336,0.0307-0.6744,0.0503-1.0272,0.0503c-2.5626,0-4.5511-0.8359-5.9946-2.1472c-1.1669-0.3659-2.2956-0.7312-3.3771-1.097
		c-3.3451,3.136,55.9645,35.6025,56.8688,35.265c-4.1682,1.5555-82.3151,4.0493-66.1088-14.905
		c3.3493,2.9509,18.6875,8.4841,23.32,6.69c-4.7456-4.3709-8.8688-6.0952-11.3025-6.7046c0.8239-0.019,1.873-0.0876,3.1925-0.2454
		c0.7957-8.1066-20.6926-7.7267-24.32-5.9c1.4277,1.8075,3.0997,3.3323,4.9898,4.6046c-1.9757,1.3483-6.4366,6.3279-3.2348,6.934
		c-9.2375-1.1-25.2458-20.9786-33.7451-25.4185c2.8087,13.3648,20.5935,30.3713,36.2709,42.7142
		c3.222-0.2466,6.5057,1.131,8.4711,4.8768c0.5481,1.0446,0.0047,0.6394,1.4771,1.8685c-1.1024-0.9202,0.8518,0.3291,1.3087,0.6279
		c0.1456,0.0078,2.4207,0.8937,2.8489,1.0159c1.106,0.3157,2.2133,0.624,3.3389,0.8639c1.8942,0.4037,3.9113,0.7267,5.975,1.0292
		c-2.4763-2.8085-4.0014-5.3921-3.2818-6.2252c-1.124,1.3014,7.2686,4.8326,15.583,8.2396
		c4.2366,0.9755,8.0797,2.3541,12.1991,4.4952c0.9658,0.502,1.9418,1.0016,2.9174,1.5064c-0.3561-3.0625-2.6224-8.02-7.0182-6.6425
		c0.8152-5.11,28.5378,1.5613,40.9103,3.2491c-3.3082-0.175-6.9581-0.3032-6.9703,0.0609c23.438,8.1532,40.4922,21.6825,57.34,36.35
		c3.0128-5.0988-5.8496-8.6851-4.6038-11.4012c1.7602,1.8965,3.6182,1.9003,5.5737,0.0113
		c-1.4911-1.3777-12.1451-12.1528-8.4496-13.53c-0.5896,0.2197,7.0612,1.673,12.7664,1.6169
		c1.6013-0.9968,3.4408-1.4578,5.3848-1.4578h0.3622C212.8585,169.908,212.8255,169.2411,212.2552,168.3719z M67.2952,129.2119
		c0.0816,0.0311-0.7043-2.0921,5.96,6.03C70.4277,134.0768,68.441,132.0668,67.2952,129.2119z M84.2353,145.9019
		c-1.98,2.63-2.82-1.59-3.9-2.92C82.1552,142.7919,84.9853,143.4719,84.2353,145.9019z M88.4752,140.0619
		c2,1.06,1.06,4.21,1.54,6.17C86.8552,146.0019,87.8452,142.0819,88.4752,140.0619z M90.5152,137.5319
		c1.63,0.23,3.95,1.57,3.87,3.55C92.0152,142.5219,85.8852,137.8119,90.5152,137.5319z M97.4752,148.2319
		c1.94-0.2401,1.88,2.49,1.95,3.83C97.3052,151.8219,94.9452,149.9419,97.4752,148.2319z M96.1852,144.0419
		c4.0946,0.2895,9.9653,2.6939,10.09,4.68C102.5548,148.8215,98.3704,149.5275,96.1852,144.0419z M117.0152,145.6119
		c0.3132-0.8865,1.4559-1.6374,3.1567-2.2781C118.9013,143.8887,117.834,144.6352,117.0152,145.6119z M191.4652,183.2619
		c-0.3406-3.1185-16.1134-8.6334-7.77-13.99C185.7143,170.9864,200.288,178.3018,191.4652,183.2619z"/>
	<path fill="#33073B" d="M64.0341,126.5949c0.058,0.0076,0.1209,0.0124,0.1833,0.0175
		C64.1569,126.6083,64.0952,126.6006,64.0341,126.5949z"/>
	<path fill="#33073B" d="M124.4852,119.2419C123.4852,123.8819,129.1252,118.2419,124.4852,119.2419"/>
	<path fill="#33073B" d="M139.7052,135.2719C141.8352,139.7319,145.0352,133.8919,139.7052,135.2719"/>
	<path fill="#33073B" d="M75.5152,137.4119C74.6452,142.0819,79.9152,137.8719,75.5152,137.4119"/>
	<path fill="#33073B" d="M122.5452,141.1519C118.9052,144.9219,127.3652,141.3919,122.5452,141.1519"/>
	<path fill="#33073B" d="M91.5852,143.4319C91.7452,147.4319,98.1152,140.8019,91.5852,143.4319"/>
	<path fill="#33073B" d="M406.4052,107.2119c3.3921-3.4707,6.3254-3.5607,8.8-0.27
		C410.5977,109.9493,404.4919,107.7288,406.4052,107.2119C409.4752,107.1019,401.8152,108.4519,406.4052,107.2119z"/>
	<path fill="#33073B" d="M537.4952,107.2419c3.0234-0.1733,6.0467-0.3467,9.07-0.52
		C540.0309,112.6862,537.0076,112.8596,537.4952,107.2419C540.6752,108.6019,537.6152,108.2719,537.4952,107.2419z"/>
	<path fill="#33073B" d="M147.4252,108.2919c2.0043-2.7906,33.8876,8.2717,35.0875,14.82
		C181.891,119.7187,146.559,123.1901,147.4252,108.2919C149.5152,105.3819,147.2252,111.7319,147.4252,108.2919z"/>
	<path fill="#33073B" d="M429.4552,107.1519c6.0586,13.923-21.9516,47.7048-42.14,21.88c0.0435,0.0055,11.5709,6.0091,9.4962,7.5725
		c-0.7036-1.8021-0.8582-3.6271-0.4637-5.475c11.7643,1.0424,19.4258-18.7205,26.2275-17.7075
		c-0.0138,0.0962-6.1147,13.2649-7.7475,11.8787C419.1169,128.9418,428.8157,108.099,429.4552,107.1519z"/>
	<path fill="#33073B" d="M253.0352,109.2119c5.3325-2.4576-0.5911,18.0374-4.71,16.55
		C248.1055,116.3217,247.7101,118.991,253.0352,109.2119C254.1852,108.6819,252.4852,110.2219,253.0352,109.2119z"/>
	<path fill="#33073B" d="M526.6252,108.0619c13.6794,1.8899-1.8546-0.3114,2.98,4.43
		C525.77,113.3942,520.8221,107.7018,526.6252,108.0619C528.1452,108.2719,523.8852,107.8919,526.6252,108.0619z"/>
	<path fill="#33073B" d="M74.5152,114.1919c-3.41,3.13-4.25-2.52,0.06-0.71L74.5152,114.1919z"/>
	<path fill="#33073B" d="M138.3752,113.2019c0.48,0,1.42,0,1.9,0C141.3652,115.7519,137.2752,115.7519,138.3752,113.2019z"/>
	<path fill="#33073B" d="M368.7552,121.3919c5.3384-4.2179,9.3517-3.2279,12.04,2.97c-15.0914,7.4568-17.819,11.2229-0.56,21.14
		c3.5638-0.4088-2.0408-7.1332-1.98-9.08c4.3446,4.7788,8.6759,4.984,6.94,12.17c-4.9025,1.2798-21.5967-5.9076-22.88-4.49
		C364.3096,141.6338,366.5684,125.6838,368.7552,121.3919C372.1252,116.7919,367.6852,123.4919,368.7552,121.3919z"/>
	<path fill="#33073B" d="M204.1132,124.8591c0.439-0.0675,0.8863-0.0983,1.3381-0.1011c1.6294-0.1548,3.3-0.419,4.6838-0.7061
		c0.5956-0.8509,0.6522-1.7975,0.17-2.84c-3.2831-0.355-5.2726,0.5776-8.04-1.58
		C195.8615,124.1678,199.3954,125.1169,204.1132,124.8591z"/>
	<path fill="#33073B" d="M200.3295,126.326c0.0618-0.0681,0.1266-0.135,0.1857-0.2042c-2.8765,1.0099-15.0885-0.4224-17.14-1.02
		c1.0474,2.6505,1.6181,3.1542,1.7503,2.8134c3.4423,3.6579,9.3997,2.735,13.2656,0.084
		C198.9611,127.3605,199.6127,126.7968,200.3295,126.326z"/>
	<path fill="#33073B" d="M244.4052,127.5519c7.3173-3.4345-12.2541,32.5414-27.29,15.23c4.044-6.3574,10.735-12.9156,17.33-11.68
		c-3.1499,1.4937-3.59,3.8904-1.32,7.19C238.7417,140.9015,247.3981,133.3944,244.4052,127.5519
		C244.8952,127.3219,244.6152,127.9619,244.4052,127.5519z"/>
	<path fill="#33073B" d="M439.9552,130.9219C445.0085,124.7728,447.0315,138.3477,439.9552,130.9219
		C441.6152,128.9019,440.7652,131.7719,439.9552,130.9219z"/>
	<path fill="#33073B" d="M300.3852,203.3419c0.0461,1.7271-0.0225,3.4215-0.1612,5.0864c0.9652-1.559,1.9492-3.1176,2.9302-4.6422
		C302.301,203.627,301.3868,203.4778,300.3852,203.3419z"/>
	<path fill="#33073B" d="M350.9403,233.2676c1.5272,2.8589,2.8374,4.6751,3.5961,4.5093c3.1826-0.6955,5.3558-2.2256,6.7821-4.2983
		C358.9392,233.805,355.5975,233.7087,350.9403,233.2676z"/>
	<path fill="#33073B" d="M361.2552,194.0319c0.6646-12.0376,24.2596-30.6299,3.83-44.95c-1.1506,0.9733-1.8091,1.812-1.9996,2.5225
		c-11.4477-1.8019-41.1087,1.1793-41.3804,5.2938c0.1926-2.9163,10.423-32.3023-10.06-21.6062
		c-0.0652,1.5576-2.1086,21.8917,2.87,21.17c-14.7664,11.2275-26.7236-19.054-42.24,5.47c-2.024,0.0097,8.7839,1.098,7.4569-1.401
		c4.8657,7.0726-2.879,34.7546,14.2031,36.771c6.863-8.7346,1.0187-17.956-6.56-16.05c-2.9899,9.3515,6.0187-20.6591,4.9088-20.1387
		c2.1411-1.0037-1.6416,12.9655,4.0113,14.4088c0.9332-1.465,1.6682-3.028,2.205-4.6888c0.6987-0.3909,3.915,8.6035,2.815,12.2088
		c-0.0484-0.012,12.3278,2.1595,14.0878,4.8879c-0.8167-0.299-3.8554,3.4729-7.5733,8.836c0.6984,0.0234,1.9879,0.164,4.0855,0.4561
		c3.4658-4.474,6.5791-4.5974,9.34-0.37c-7.0861-0.6884,3.4612,6.0537-1.5,5.89c-0.2264-1.8666-10.0809-4.6113-12.183-5.6042
		c-1.4098,2.0443-2.9095,4.3041-4.418,6.6484c10.7864,2.0104,10.4754,5.796,17.941,9.4658
		c-0.8458-4.1351,11.7675-9.0988,9.815-5.3925c0.775-1.4711-13.8204,10.8661-5.805,10.7325
		c29.6249-25.0532,7.6676,45.7094,6.7137,44.9212c-23.8169-19.6787,5.6541-13.2179-25.5137-16.5612
		c-18.8538-5.4945-7.6266-19.9667-6.0812-38.5236c-4.0583,6.555-7.7741,13.0887-9.4653,16.8981
		c-0.6171-1.8669-2.7565-1.5-5.5029-0.0194c-1.0483,1.2178-2.4335,2.1702-4.1487,2.682
		c-5.7998,4.232-12.178,10.4623-13.0818,11.2829c1.7571,0,3.3085-0.2173,4.7278-0.5682c0.1924-0.4879,0.4331-0.959,0.7603-1.3979
		c0.0283-0.038,0.0592-0.074,0.0876-0.1118c0.0676-0.118,0.1206-0.2406,0.1936-0.3569c0.5172-0.6232,1.0344-1.2465,1.5516-1.8696
		c1.8344-1.7106,4.3026-2.634,6.8105-2.5464c0.7621,0.0266,1.5107,0.1567,2.2363,0.3616c1.4846-0.7875,3.0471-1.4391,4.8322-1.7808
		c-0.417,0.4677-0.3986,2.3163-0.1063,4.8575c0.937,1.1293,1.5982,2.4071,1.9495,3.8516c0.0837,0.8453,0.1673,1.6906,0.251,2.5358
		c-0.1317,1.0178-0.2642,2.0557-0.5723,3.0357c1.3139,6.1611,3.0222,12.2755,4.0482,13.7094
		c13.899,1.6154,10.6797-6.9763,23.8562-6.6337c10.0005,0.26,0.8307,17.6488,19.7638,16.7938
		c0.6902,3.9559-10.0453,5.9773-11.2504,5.7278c2.2305,0.4619,1.3768,15.7477,5.2103,16.1322
		c-0.5886-3.6757,12.0924-34.6876,11.8701-34.48c1.6392-1.9033,9.0621,0.3464,10.08,2.48c0.4736-8.3485,12.6638-10.8056,11.8-19.01
		c-1.1566,1.4601-17.3668,12.2145-19.9275,11.8263c-7.7377-1.173,4.203-18.5865,0.7938-18.9775
		c1.412,0.162,2.7248,0.3011,3.9489,0.417c-4.3793-8.198-10.5565-25.0358-10.7376-28.817c-0.165-3.4457,5.686-1.5717,6.2225-2.0188
		c-0.4566-0.3007-11.4062-5.9014-10.8113-3.3912c-2.0033-8.4524,4.7139-2.5449,4.9612-10.5988
		c-6.0231,1.0629-7.567,5.5666-15.3567,0.6126c6.7073,4.2656,15.7961-6.4875,17.6767-10.9026
		c-2.2714,0.7338-3.4276,2.2251-3.4688,4.4738c-0.7137-1.632-1.8262-2.9545-3.3375-3.9675
		c3.1206-7.4341,18.7401-21.6656,21.0554-22.5168c1.1018,1.3876,10.9703,11.3619,8.2896,12.6606
		c-5.0377,2.4406-12.3959-3.0673-17.4487-2.03c3.1293-0.329-3.1599,18.5051-2.83,20.58c8.7697-9.6461,8.6204-7.7418,13.08-15.25
		c3.7082,2.7275,5.6615,6.4308,5.86,11.11c-10.7045-1.5636-2.124,3.2068-8.6638,8.0912c0.7618-0.569-2.812,0.0496-5.5363,2.4287
		c1.1685,0.1851,7.0645-0.166,6.2425,1.7688c-0.5672,1.3351,12.6298,27.1533,5.1809,37.978
		c9.9868-1.3699,2.9988-10.2022,4.9467-32.4067c-0.892-9.1428,7.8704,1.1629,8.94-1.11
		C371.9494,194.2802,367.2993,192.3035,361.2552,194.0319z M307.5752,174.0119c0.83,3.41-3.92,1.13-1.97-0.99
		C304.0052,169.5419,310.5252,172.6919,307.5752,174.0119z M300.2953,163.2519c-0.0405-2.8719,11.6163,0.9313,10.82,1.04
		C316.841,170.219,297.8982,162.9647,300.2953,163.2519z M302.3152,254.0619c-1.73-0.1-5,0.96-3.98-1.96
		C300.0553,252.1919,303.3252,251.1319,302.3152,254.0619z M325.5952,167.2419c-0.65,4.06-3.52,0.17-3.35-2.1
		C324.2752,164.9819,327.3553,164.3319,325.5952,167.2419z M314.9853,141.3319c-0.3874-7.062,13.3308,14.3745,3.3729,9.5129
		C311.8731,147.6788,313.862,145.5036,314.9853,141.3319z M315.3452,177.0619c2.13-0.14,4.8,0.06,6.13,1.96
		C319.4253,178.6219,314.4052,180.6519,315.3452,177.0619z M320.3553,183.1619c1.62,0.3,5.86-1.16,5.8,0.7
		C324.2353,183.6619,319.4652,186.7619,320.3553,183.1619z M333.8652,168.5769c-0.7768,0.2654-1.5674,0.3454-2.3087,0.2985
		c1.3597,1.0883,1.8442,3.2407,1.6088,5.3765c-1.47-3.21-4.88-4-6.87-5.27c1.0572-0.5157,1.9766-0.766,2.7761-0.8185
		c-2.1686-1.2524-1.8451-3.6025,6.1739-2.7115C340.9861,160.6059,335.65,167.9671,333.8652,168.5769z"/>
	<path fill="#33073B" d="M357.2519,156.1075c0.1399-0.0298,0.2098,0.0104,0.1833,0.1443
		C357.3608,156.1914,357.3046,156.1478,357.2519,156.1075z"/>
	<path fill="#33073B" d="M297.4652,159.4619C295.9852,164.0819,301.6752,160.6719,297.4652,159.4619"/>
	<path fill="#33073B" d="M366.5452,160.4819C364.3352,165.8519,370.7852,162.4719,366.5452,160.4819"/>
	<path fill="#33073B" d="M339.4852,161.2419C338.4752,165.8819,344.1252,160.2419,339.4852,161.2419"/>
	<path fill="#33073B" d="M285.4052,165.3719C282.7052,169.1019,291.8552,165.8719,285.4052,165.3719"/>
	<path fill="#33073B" d="M314.5652,168.0919C314.4627,172.0412,314.5209,167.8047,314.5652,168.0919"/>
	<path fill="#33073B" d="M362.5652,171.4119C360.2952,176.3219,365.8652,173.8919,362.5652,171.4119"/>
	<path fill="#33073B" d="M311.6752,177.2819C307.5552,182.6219,317.3452,178.2819,311.6752,177.2819"/>
	<path fill="#33073B" d="M320.5952,188.3219C315.1352,190.1219,323.4452,192.0119,320.5952,188.3219"/>
	<path fill="#33073B" d="M328.5452,198.3119C322.7652,200.6219,333.6552,200.4819,328.5452,198.3119"/>
	<path fill="#33073B" d="M168.4552,135.9219c5.0016,7.086-9.5378,2.3237-10.09,2.17
		C162.1772,138.9357,165.5405,138.2124,168.4552,135.9219C168.6952,136.2619,168.6752,138.0819,168.4552,135.9219z"/>
	<path fill="#33073B" d="M154.2952,140.3019C159.0682,142.9622,154.3564,142.8723,154.2952,140.3019
		C154.9052,140.6419,154.3052,140.7219,154.2952,140.3019z"/>
	<path fill="#33073B" d="M74.8572,148.7429c0.5481,1.0446,0.0047,0.6394,1.4771,1.8685c-0.5406-0.4513-0.3447-0.3798,0.0479-0.1555
		c0.0016-2.1278-1.2831-3.999-3.0359-3.8701C73.9037,147.196,74.4166,147.9032,74.8572,148.7429z"/>
	<path fill="#33073B" d="M287.5152,146.5419c2.38-0.11,6.24-1.43,2.77,4.57C287.3252,152.3919,284.4752,148.0319,287.5152,146.5419z
		"/>
	<path fill="#33073B" d="M438.1152,156.8119C433.6839,153.8275,443.3844,150.1855,438.1152,156.8119
		C436.6452,155.8219,438.7752,155.9819,438.1152,156.8119z"/>
	<path fill="#33073B" d="M135.9552,157.2619c5.2588-1.3645,43.2128,20.8563,32.32,33.73
		c-5.5859,4.875-30.9714-29.6125-29.2587-28.01c-1.6242-1.5197-6.3217,0.2851-9.9812-2.82
		C129.0479,151.7778,144.0201,166.7215,135.9552,157.2619 M152.2752,176.2719c-0.02,2.57,3.35,2.65,5.08,3.78
		C158.6552,175.6919,155.3952,176.2819,152.2752,176.2719"/>
	<path fill="#33073B" d="M141.4952,162.2919C137.1952,166.5519,146.6752,164.0919,141.4952,162.2919"/>
	<path fill="#33073B" d="M144.6152,165.3619C142.6952,171.4119,151.0552,163.5819,144.6152,165.3619"/>
	<path fill="#33073B" d="M149.6752,167.2919C151.0452,172.2719,155.5652,165.7019,149.6752,167.2919"/>
	<path fill="#33073B" d="M160.4852,179.2419"/>
	<path fill="#33073B" d="M349.5152,160.8819c-0.36,6.8-5.17-3.61-0.03-1.47C349.4952,159.7819,349.5052,160.5119,349.5152,160.8819z
		"/>
	<path fill="#33073B" d="M414.0352,165.9019c0.69-1.74,3.09-0.67,2.32,1.02C415.7752,166.6719,414.6152,166.1619,414.0352,165.9019z
		"/>
	<path fill="#33073B" d="M245.1338,204.9651c0.0506,0.0107,0.1028,0.0176,0.153,0.0292
		c-3.1643-8.9134-13.0703-28.7552-22.3591-22.9214c0.2508-0.1805,0.4084-0.3049-0.3425,0.2191
		c-0.0306,0.026-0.039,0.0353-0.0385,0.038C217.9163,186.435,238.6331,198.3724,245.1338,204.9651z"/>
	<path fill="#33073B" d="M203.476,184.3491c-0.1125-0.0558-0.2172-0.1229-0.3307-0.1772c-0.0248,0.1378-0.0353,0.2485-0.0402,0.3478
		c-0.8541,7.3849,13.816,11.2294,10.0402,14.6622c2.8362,1.5396,4.9961-0.0673,6.4-2.62c-2.9537-2.272-5.689-4.8304-8.5645-7.1818
		C207.7391,189.1802,204.9588,187.1229,203.476,184.3491z"/>
	<path fill="#33073B" d="M355.1452,209.4519c4.4826-2.7586,3.3957,10.6087,5.65,16.73
		C360.0886,235.5891,354.1956,205.639,355.1452,209.4519C356.1852,208.8119,355.7952,212.0619,355.1452,209.4519z"/>
	<path fill="#33073B" d="M253.3952,210.3919C272.4533,208.7349,271.1213,244.4256,253.3952,210.3919
		C253.8552,210.3519,253.6452,210.8719,253.3952,210.3919z"/>
	<path fill="#33073B" d="M315.9652,259.5319c-4.03,4.14-7.21-6.89-1.57-1.37C314.7852,258.5019,315.5752,259.1919,315.9652,259.5319
		z"/>
	<path fill="#33073B" d="M298.6652,261.2319c3.5948-5.5729,41.2363,18.6008,3.68,21.77
		C303.118,275.4686,298.0787,268.5629,298.6652,261.2319 M307.3652,264.9419c-0.23,1.12,0.54,11.94,3.4,6.52
		C313.7052,268.1619,311.1652,265.2919,307.3652,264.9419 M314.5852,277.3119"/>
	<path fill="#33073B" d="M131.492,73.0444c2.6446,5.399,6.6968,12.7104,7.9999,18.8708
		C142.6434,85.5749,139.3567,78.6943,131.492,73.0444z"/>
	<path fill="#33073B" d="M30.9459,76.5042c-1.6728-0.663-12.2488-14.342,31.0093,6.8312
		c-0.3057-0.2688,24.4858-12.2032,21.5367,2.9095c0.1559-0.1951,1.0065-0.2074,2.3895-0.0506
		c1.2898-0.6924,2.8225-1.1066,4.6087-1.1066c3.3955,0,5.7925,1.4582,7.2309,3.5628c16.5898,4.3356,42.4609,13.931,48.2651,26.9617
		c8.4491-16.4003-71.1727-47.884-75.7109-53.5503c26.6743-3.3599,49.2491,2.3854,61.2167,10.9825
		c-4.6856-9.5659-4.9509-13.1264,22.3333,6.3682c-20.7207-31.2708-59-17.3508-87.27-25.2407
		c18.562-6.9241,77.4232-7.387-17.21-17.59c0,38.4847-6.8046,19.0034-9.8369,19.15c-7.0317-8.947-28.3498-29.4833,86.9868-51.8688
		c-38.2222,3.8585-95.17,7.7188-117.29,39.2188c-0.5271,1.3682-1.0191,2.6771-1.4924,3.9548
		c-1.3362,4.6645-1.9785,9.5125-4.174,13.9313c0.9764,4.9931,0.287,9.849-2.5187,13.9164
		c0.2445,5.1344,2.1862,8.4427,5.4719,11.3604c5.1859,4.6051,78.8976,72.312,140.7033,67.432
		C57.6633,129.103,34.4516,85.0221,30.9459,76.5042z"/>
	<path fill="#33073B" d="M70.1252,16.9152c81.0326-37.8428,239.425,10.6667,195.7,62.4974l0,0
		C255.8252-7.7514,90.5704,3.3366,70.1252,16.9152z"/>
	<g>
		<path fill="#33073B" d="M558.7001,64.6845c-1.3102,1.7311-2.5043,3.504-3.5416,5.3146
			C556.5446,68.175,557.712,66.4053,558.7001,64.6845z"/>
		<path fill="#33073B" d="M540.1599,74.5819c13.3402-10.1701,6.7349-23.2281-6.2775-34.3439
			C540.5171,52.2027,547.6812,66.4483,540.1599,74.5819z"/>
		<path fill="#33073B" d="M604.3252,12.9152c-9-9-98.1648-8.4084-124.4445-6.3333c-86.3981,14.4313-99.65,40.5575-101.489,45.4224
			c0.6889-0.2485,1.4303-0.4286,2.2338-0.5158c120.332-62.9672,178.6768,2.7515,103.5522,55.2997
			c59.8582-41.8696,47.1872-75.8481,3.2169-89.5397c12.1393,1.8067,32.8385,11.3295,46.4879,22.9894
			c-8.0673-14.5482-15.3516-25.7238,5.4998-18.4345c0,0,35.709,14.3345,19.3178,42.881
			c23.1118-30.5367,84.7409-47.2413,45.6251,1.3674c38.6667-32.6976,57.1667-47.47,3.11,11.3
			c32-17.7845,48.7233-65.77,20.0567,11.3553C683.3219,32.8773,604.3252,12.9152,604.3252,12.9152z"/>
	</g>
</g>
<rect x="0" y="0" fill="none" width="646.4617" height="388.742"/>
</svg>
