<?xml version="1.0" encoding="utf-8"?>
<!-- Generator: Adobe Illustrator 17.0.0, SVG Export Plug-In . SVG Version: 6.00 Build 0)  -->
<!DOCTYPE svg PUBLIC "-//W3C//DTD SVG 1.1//EN" "http://www.w3.org/Graphics/SVG/1.1/DTD/svg11.dtd">
<svg version="1.1" id="Layer_16" xmlns="http://www.w3.org/2000/svg" xmlns:xlink="http://www.w3.org/1999/xlink" x="0px" y="0px"
	 width="646.4617px" height="388.742px" viewBox="0 0 646.4617 388.742" enable-background="new 0 0 646.4617 388.742"
	 xml:space="preserve">
<g id="layer-16--33073bff">
	<path fill="#33073B" d="M219.9352,43.0819c26.7745-0.6853,70.0044,61.7858,79.48,58.95c9.6872-2.3509,9.0218-16.4183,23.65-14.67
		c8.3752,5.6442,8.3984,10.4087,17.35,9.01c-3.2994,6.8924-2.7656,3.9738-2.94,11.64c3.1875-1.2439,19.0501-21.2198,3.49-13.6
		c0.9943-8.1528,4.111-10.5328,9.35-7.14c-5.012-14.6001,35.6916-44.3354,56.05-44.19c-0.462,6.3137-0.6953,10.7382-2.93,15.17
		c-1.4008-4.6466-1.8208-9.4066-1.26-14.28c-6.0073,3.4963-34.7365,28.5793-35.3613,34.9975
		c-1.1157,11.4603-36.5392,45.1052-36.7087,43.2725c-1.5844-4.6172-0.6068-16.358-0.5038-16.0838
		c-4.4101-11.7312-24.3842-11.1316-19.4362-2.3863c-14.9029,18.4324,13.4242,23.1155,11.94,12.33
		c-8.0284,2.3052-15.5753,2.5007-16-6.26c1.7687-2.0024,3.972-2.8558,6.61-2.56c-0.5444,2.1508,26.5043,28.6292-6.5138,16.0088
		c-24.3494-9.3071-55.5658-74.6998-83.6562-65.0688c-4.1206,2.9674,3.2963,5.9531,3.96,7.74
		c-24.7822-9.4035-10.9102,8.8142-11.25,15.93c-3.0358,3.5029-47.3618,31.8328-36.83,43.06
		c-6.9014,0.4969-12.5685,10.999-15.25,10.42C152.343,116.522,225.1574,50.5828,219.9352,43.0819 M250.3252,60.9719
		c-0.01,1.88-0.13,5.4,1.85,5.96C253.9852,64.5719,252.9752,62.0319,250.3252,60.9719 M334.6152,112.3019
		c-1.05,0.44-2.92,1.04-2.14,2.57C333.6952,117.8319,336.5252,112.8219,334.6152,112.3019z"/>
	<path fill="#33073B" d="M424.4852,50.2819c1.5174-4.4525,60.8502,42.5028,56.775,64.015c2.5051-13.224-40.9422,15.35-46.815,19.765
		c-1.5082-12.904,34.4799-29.2589,24.0062-41.1813c-9.9536-11.3304-12.3952-26.1279-29.2062-19.8887
		c0.7431-4.8307-2.6139-5.8004-7.1-6.18c2.3199-1.0463,8.7512,3.781,8.68-1.38c7.0807-12.6203-19.7633-2.4463-21.52-1.27
		C399.8583,62.3007,427.0051,47.4655,424.4852,50.2819 M463.3652,105.0419c0.02,3.27,3.46,3.68,4.95,1.23
		C466.6452,105.9019,465.0152,105.4219,463.3652,105.0419z"/>
	<path fill="#33073B" d="M226.1252,68.9919c-0.54-3.89,6.87-2.84,4.2,0.14C228.9252,69.5919,227.4752,69.6819,226.1252,68.9919z"/>
	<path fill="#33073B" d="M396.2252,78.0519c0.5251-5.4165,3.5317-7.7798,9.02-7.09
		C404.1883,75.3879,401.1816,77.7512,396.2252,78.0519C395.1952,73.0419,398.6152,77.2219,396.2252,78.0519z"/>
	<path fill="#33073B" d="M424.2052,76.0119c6.3214-3.3543-1.9115,9.8976-5.87,9.11
		C418.2517,84.8583,422.9786,77.034,424.2052,76.0119C424.6952,75.7519,423.8452,76.3119,424.2052,76.0119z"/>
	<path fill="#33073B" d="M207.4052,86.3019c7.5629-5.6722,2.4212,1.5678-0.29,4.76
		C197.8122,93.3042,205.5268,87.1012,207.4052,86.3019C208.5652,85.4319,206.9352,86.5019,207.4052,86.3019z"/>
	<path fill="#33073B" d="M430.7552,100.2019c7.9141-6.8349-2.7637,20.9421-4.11,22.13c0.9339-1.9486-6.1387-8.9608-5.745-8.73
		c-11.6936-6.8567-34.8793,34.0168-32.575,33.48c1.0685,0.2879,7.8546-7.9818,10.98-7.71c1.1926,4.4844-2.9726,15.4585-7.88,8.69
		c-1.1927,11.9263,16.1208,27.6797,4.12,39.13c-1.2742-6.5303-2.7786-15.9948-5.565-21.7862
		c-0.0861-0.179-9.2249,6.7985-6.555-8.7938c-14.7458-0.2836,9.3375-49.2816,27.98-45.59c0.606,2.5451,0.1993,4.8951-1.22,7.05
		C412.7265,116.0628,431.4853,102.1588,430.7552,100.2019C432.7352,98.4919,431.9752,103.4719,430.7552,100.2019z"/>
	<path fill="#33073B" d="M422.6052,130.1419c2.55-1.3067,5.1-2.6133,7.65-3.92c2.7174,6.3577-11.6491,3.8694-9.88,12.54
		C417.8733,134.4631,421.1115,123.9964,422.6052,130.1419C425.0552,128.6519,422.2552,128.7019,422.6052,130.1419z"/>
	<path fill="#33073B" d="M212.3152,133.1319c35.6056-11.8579,31.5344,25.3607,24,47.94
		C223.3493,177.8455,262.681,99.2201,212.3152,133.1319C241.9919,123.2486,260.6585,100.5819,212.3152,133.1319z"/>
	<path fill="#33073B" d="M240.4952,135.8419c14.3316,5.8101,21.1549,22.8425,24.09,30.75c-0.9709,0.8778-1.9808,1.7078-3.03,2.49
		C255.3562,159.9202,240.3316,143.852,240.4952,135.8419C242.7152,136.7419,240.4852,136.3319,240.4952,135.8419z"/>
	<path fill="#33073B" d="M400.4852,141.0719C402.7966,133.5257,405.8304,144.3445,400.4852,141.0719
		C400.8252,139.9619,400.9752,141.3719,400.4852,141.0719z"/>
	<path fill="#33073B" d="M146.2852,149.0319c2.7834-7.2416,7.0745-13.4018,12.8733-18.4806
		c-3.3645,3.1623-5.5986,6.9237-6.7022,11.2841c0.4398,6.5226,73.5386-30.9983,59.8588-8.7034
		c5.3366-4.442,6.8724-9.3588,4.6075-14.7505C201.8572,113.3793,159.8841,143.6108,146.2852,149.0319
		C147.1586,143.0819,193.6586,130.1467,146.2852,149.0319z"/>
	<path fill="#33073B" d="M367.6552,158.6619c12.6517,6.0222-13.5432,11.6767,3.87,12.56c-5.0136,8.1837-11.3618,34.6904-22.23,25.86
		c0.969,22.2885-2.9793,44.9643,0.89,57.02c0.0663-4.0269,0.4063-8.0302,1.02-12.01c2.1738,4.7402,2.5405,9.7535,1.1,15.04
		c-5.556-1.7764-18.8014,13.2819-17.97,18.65c7.1028-0.212,3.4945-1.7231,4.83,5.45c-4.3543-0.4147-14.479,3.6816-16.69-3.32
		c8.9982,3.694,2.8766,0.1198,10.7-2.98c-0.3379-3.4536-14.4316-16.9056-13.79-25.96c7.2644,2.6107,6.4809-4.5008,13.91-6.06
		c-22.2244-13.4696-4.582,24.3204-30.93,1.17c1.6986,12.4573,0.3892,20.3882,5.06,30.34c3.667-2.6299-25.3487-30.8562-25.11-35.39
		c2.3571-0.5152,10.6322,5.4333,16.16,4.77c-11.1258-6.7123-3.872-7.9851-15.06-16.7c0.3436,1.9094-0.0063,3.6228-1.05,5.14
		c-3.4375,0.4707-0.0711-14.4135,0.84-17.05c-5.5457-5.2793-7.7248-1.5979-13.06-7.8c7.3197-1.2497-2.3642-2.334,5.15-6.27
		c5.383,8.8559,15.181,9.7735,14.26,21.96c2.7307-3.927,5.4418-24.8801,11.79-23.98c-0.5888,13.1223-5.6786,25.2483-5.97,38.86
		c2.7866,0.4383,63.7982,4.4914,43.37-17.97c-2.2637,7.0997-7.8112,6.5-11.54,10.96c2.2761-0.7376,4.0494-0.2742,5.32,1.39
		c-1.4582,10.8538-8.5977-4.5647-8.28-4.52c-0.2693,0.8333,16.2937-13.5411,18.07-12.98
		c-0.1461-3.0488-12.8578-29.376,2.4388-29.4825C348.4785,185.3335,360.3567,155.8959,367.6552,158.6619 M355.3952,183.2419
		c-1.0002,0.847-8.4842,5.7882-7.5113,10.0412c0.2234,0.9769,8.0877,0.4729,10.4513,0.8788
		C353.7502,183.2902,361.8246,188.0922,355.3952,183.2419 M345.5452,188.3219c-1.0833,2.9233-2.1667,5.8467-3.25,8.77
		C348.0482,189.2027,349.1315,186.2793,345.5452,188.3219 M335.5352,244.4219c-8.7862,4.1478-13.1985,19.64-0.36,19.64
		C335.2909,265.5753,335.2896,241.6202,335.5352,244.4219z"/>
	<path fill="#33073B" d="M247.4952,162.9619c0.2-1.27-3.07-2.28-1.2-2.93C248.7152,158.8419,250.8352,163.8619,247.4952,162.9619z"
		/>
	<path fill="#33073B" d="M244.4652,161.9419c2.2259,0.5137,7.5262,4.8239,3.1,7.18
		C243.4991,168.9764,242.4658,166.5831,244.4652,161.9419C245.5052,162.1819,245.4752,163.9419,244.4652,161.9419z"/>
	<path fill="#33073B" d="M240.2352,169.3419c9.4841,2.1992,1.6534,15.1437-3.92,11.73c-1.6538-4.565,6.876-3.371,6.8604-3.3589
		C247.1015,174.6532,239.5127,171.731,240.2352,169.3419C241.6152,169.6619,239.6152,171.3919,240.2352,169.3419z"/>
	<path fill="#33073B" d="M267.5752,171.0319c8.6305,1.3392,16.9986,18.1365,16.56,26.07c2.4159-0.5007-19.5122,1.0341-10.12,2.31
		C276.3893,188.835,263.1492,180.7692,267.5752,171.0319C268.1552,171.1219,267.3252,171.5819,267.5752,171.0319z"/>
	<path fill="#33073B" d="M259.9919,192.0819c1.6647-7.0661,6.7586-14.1059,9.9133-20.69c4.5099,5.6739,27.5793,34.8302,3.3417,27.52
		c-23.4174-7.0629-7.8521-9.0468-11.6917-29.83c3.1935-1.4015,25.268,25.5141,18.7748,28.6017
		C273.076,198.0714,266.2967,196.2042,259.9919,192.0819z"/>
	<path fill="#33073B" d="M275.0552,246.7719c3.6693-0.5242,7.7671,7.3972,8.11,8.17
		C278.2245,262.5011,267.5314,248.8474,275.0552,246.7719C276.1052,246.6219,273.6052,247.1719,275.0552,246.7719z"/>
	<path fill="#33073B" d="M312.2452,259.1019c3.26,0.27,2.77,2.57,2.82,5.06C312.5452,264.3319,312.4552,260.9319,312.2452,259.1019z
		"/>
	<path fill="#33073B" d="M316.2952,279.2119c4.889-1.0639,5.2357,2.2994,1.04,10.09
		C315.7375,286.5734,316.5008,283.871,316.2952,279.2119C316.8152,279.1719,316.3252,279.8919,316.2952,279.2119z"/>
	<path fill="#33073B" d="M345.2552,286.2919c-1.31-2.68-3.46-7.53,1.06-6.17C346.5952,282.2419,346.2352,284.3819,345.2552,286.2919
		z"/>
	<path fill="#33073B" d="M317.5152,298.6819c-1.8065-9.8465-0.6231-10.5932,3.55-2.24
		C320.1146,304.5204,318.9312,305.2671,317.5152,298.6819C316.7352,296.0719,318.1952,300.0419,317.5152,298.6819z"/>
	<path fill="#33073B" d="M327.4252,302.0119c-0.1733-3.03-0.3467-6.06-0.52-9.09
		C327.7989,293.8688,332.689,303.688,327.4252,302.0119C327.0752,298.9919,331.2252,303.2219,327.4252,302.0119z"/>
	<path fill="#33073B" d="M314.1952,300.0619C319.2016,300.0619,314.9837,307.2706,314.1952,300.0619
		C314.6952,300.0619,314.3352,301.3419,314.1952,300.0619z"/>
	<path fill="#33073B" d="M297.3152,310.0419c4.4531,0.7874,6.8066,1.4739,7.78,6.05
		C300.8815,318.7376,299.1404,312.8586,297.3152,310.0419C298.9552,310.3319,298.1252,311.2919,297.3152,310.0419z"/>
	<path fill="#33073B" d="M324.5552,312.0419c3.3,1.69,0.22,6.09,0.62,8.99C320.4352,322.0719,324.3352,314.5419,324.5552,312.0419z"
		/>
	<path fill="#33073B" d="M303.3952,317.1719C314.0057,310.3508,299.6738,329.9615,303.3952,317.1719
		C303.8152,316.9019,302.5252,320.1619,303.3952,317.1719z"/>
	<path fill="#33073B" d="M307.2452,331.0519c3.3398,2.5487,5.4265,5.8921,6.26,10.03c-2.7534,0.5888-10.6644-0.3268-12.5-0.77
		C310.1544,339.5677,309.6083,339.5275,307.2452,331.0519C309.9152,330.4019,307.9952,333.7419,307.2452,331.0519z"/>
</g>
<rect x="0" y="0" fill="none" width="646.4617" height="388.742"/>
</svg>
