<?xml version="1.0" encoding="utf-8"?>
<!-- Generator: Adobe Illustrator 17.0.0, SVG Export Plug-In . SVG Version: 6.00 Build 0)  -->
<!DOCTYPE svg PUBLIC "-//W3C//DTD SVG 1.1//EN" "http://www.w3.org/Graphics/SVG/1.1/DTD/svg11.dtd">
<svg version="1.1" id="Layer_10" xmlns="http://www.w3.org/2000/svg" xmlns:xlink="http://www.w3.org/1999/xlink" x="0px" y="0px"
	 width="646.4617px" height="388.742px" viewBox="0 0 646.4617 388.742" enable-background="new 0 0 646.4617 388.742"
	 xml:space="preserve">
<g id="layer-10--33073bff">
	<path fill="#33073B" d="M92.6852,43.0819c5.6733,0,11.3467,0,17.02,0c-1.6958,4.1333-61.5452,16.7411-59.58,5.86
		C66.2907,51.3047,77.7891,43.9646,92.6852,43.0819z"/>
	<path fill="#33073B" d="M134.7452,43.0819c0.804,0.3102,11.262,5.6058,11.26,5.61c-16.1207,11.2584-48.1867,16.7998-62.73,15.58
		C95.1933,52.8688,118.8369,49.5807,134.7452,43.0819z"/>
	<path fill="#33073B" d="M142.286,38.9848c3.1267,0,91.0018-34.4029,97.4337-15.4029
		C238.9416,24.4737,142.2185,43.6406,142.286,38.9848z"/>
	<path fill="#33073B" d="M219.2152,24.5819c39.791-10.4664,58.809,90.0978,85.0987,101.61
		c-7.5909-3.324,6.5151-29.8793,18.2013-27.37c4.5515,3.7239,12.5393,20.314,19.73,12.06c2.6278-7.3622-16.843-10.7163-15.82-17.65
		c11.3696-19.9586,35.1005-41.638,43.6286-60.1756c11.9861-26.0544-14.9489,21.9487,1.9814,14.8656
		c2.2504-4.6982,11.1914-24.8702,16.645-24.34c-0.3671,3.9487-21.9474,31.6237-14.395,32.53c-1.2113,2.1717-2.588,1.8384-4.13-1
		c1.4317,17.415-4.9887,88.9916-40.63,80.94c-0.3802-4.371,55.9482-40.8397,29.1-50.75
		c-1.3844,3.6813-9.3802,13.7825-11.4738,11.3787c2.2934-0.6873,3.4514-0.0135,3.4738,2.0212
		c-5.1549-1.1988,0.0503,4.0979-6.26-3.79c-2.3594,3.3452,1.6217,13.6597,1.94,20.02c-2.9268,15.6873-27.7407,9.2281-28.18,14.26
		c-2.067-1.9877-2.3703-4.2543-0.91-6.8c-5.7468,0.4577-4.6284,14.5146-4.96,19.62c-12.6598,15.2855-50.3386-55.6471-49.82-56.8
		c11.6457-13.6776-14.0926-48.2159-22.7156-61.63 M360.4752,76.1319c-3.3225,5.1459-3.0621,7.9017,0.7812,8.2675
		C362.5572,83.0155,365.1468,75.4949,360.4752,76.1319 M273.4752,87.1119c-0.4599,5.2876,0.7937,8.5611,2.07,13.95
		c-0.4304,0.0702,10.9701-11.3821,10.9375-11.74C286.0987,85.1072,267.2684,82.6684,273.4752,87.1119 M336.5252,91.2119
		c-3.04,2.09,0.54,3.89,2.81,3.93C339.7052,93.3119,338.9752,90.4119,336.5252,91.2119 M316.2152,107.0719
		c1.16,3.04,4.5,3.13,7.18,3.84C324.2952,106.8919,318.8752,107.3619,316.2152,107.0719 M281.5152,115.4119
		c-0.64,1.7,1.78,4.11,3.48,3.48C284.8752,117.4319,282.9652,115.5319,281.5152,115.4119 M308.2752,127.0019
		c-0.6429,4.0282-5.5756,4.903-1.8038,7.4175C310.2498,136.9383,312.0916,128.0319,308.2752,127.0019
		C307.9752,128.8819,311.7952,127.9519,308.2752,127.0019z"/>
	<path fill="#33073B" d="M405.2952,23.5716c0.5988,0.2273,53.2798,18.2863,49.17,23.9103
		C452.3326,46.3951,406.3253,23.9625,405.2952,23.5716z"/>
	<path fill="#33073B" d="M487.2652,43.0819c13.819,4.9667,33.7188,18.8584,43.25,17.83c-13.7881,0.4821,17.1499,11.4241,15.81,5.21
		c19.4456,7.4472-28.274,16.0045-29.44,16.04c4.4445-1.1401,4.6958-1.9996,7.49-5.78c-14.4655-2.7213-32.9512-4.9248-35.7-17.38
		c9.4036,0.3812,19.4205,9.8774,18.54,11.18c9.0973-0.5616,16.4377,2.6321,27.0999,1.84
		C536.4249,63.7624,479.8073,56.2572,487.2652,43.0819z"/>
	<path fill="#33073B" d="M507.0652,43.0819c21.4307,0.4638,26.7636,11.3878,45.43,12.01
		C551.938,59.3637,509.7424,47.914,507.0652,43.0819z"/>
	<path fill="#33073B" d="M475.6252,46.4319C479.7174,45.8097,466.7388,51.2111,475.6252,46.4319
		C477.3352,46.1719,474.4352,47.0719,475.6252,46.4319z"/>
	<path fill="#33073B" d="M477.2752,46.0719c2.71,0.45,3.44,2.75,3.95,5.13C479.0352,50.6219,476.8452,48.5619,477.2752,46.0719z"/>
	<path fill="#33073B" d="M418.2911,28.2721c111.4891-0.5807,37.2357,28.0714,40.1241,19.9998
		C459.6852,47.7719,417.5611,30.3121,418.2911,28.2721z"/>
	<path fill="#33073B" d="M469.2052,51.1719C479.3777,54.6022,470.5492,57.0408,469.2052,51.1719
		C470.9252,51.7519,469.5052,52.4819,469.2052,51.1719z"/>
	<path fill="#33073B" d="M132.4552,57.4819c4.3174-2.2033,8.8773-3.63,13.68-4.28c5.0545,7.3584-6.763,5.0474-5.76,11.91
		c-5.1437-1.466-16.4911,2.5594-23.78,8.09c-12.7225,4.8827-13.2363-3.8301-24.45-4.26
		C96.5572,62.0294,123.348,67.5266,132.4552,57.4819C137.2852,57.1519,131.0952,58.9819,132.4552,57.4819z"/>
	<path fill="#33073B" d="M156.4152,55.2019C167.123,53.9422,155.4942,64.2003,156.4152,55.2019
		C157.9452,55.0219,156.2852,56.4719,156.4152,55.2019z"/>
	<path fill="#33073B" d="M463.3352,57.0319c2.09,0.72,5.16,0.61,6.08,3.04C467.4252,58.9119,462.6352,60.3419,463.3352,57.0319z"/>
	<path fill="#33073B" d="M150.4252,58.2519C163.8119,57.2957,154.3524,64.9784,150.4252,58.2519
		C151.1252,58.2019,151.3652,59.8619,150.4252,58.2519z"/>
	<path fill="#33073B" d="M203.3852,62.3119c12.6531-4.8625-12.3319,19.99-19.73,19.99
		C188.6064,74.3836,201.0849,67.4237,203.3852,62.3119C205.8052,61.3819,202.8452,63.5119,203.3852,62.3119z"/>
	<path fill="#33073B" d="M395.2352,62.0819c25.532-4.591,0.7364,7.4059,5.45,6.23
		C399.7218,65.5205,397.9052,63.4438,395.2352,62.0819C398.4052,61.5119,395.9352,65.0719,395.2352,62.0819z"/>
	<path fill="#33073B" d="M152.4652,76.1819c4.3181-6.3084,10.2648-9.9051,17.84-10.79c1.0125,16.9207-48.1956,21.6849-47.04,35.68
		c-0.6029,0.1478,16.8461,2.4574,18.14,3.14c-0.4054,1.4662-8.3971,1.9183-10.2,3.85c4.4375,0.0833,19.7386,2.7643,24.06,3.04
		c-1.6606,0.0319-14.3484,2.3771-14.02,5.99c9.1026,0.2671,14.1437-3.0573,18.96,4.13c-5.3391-1.4012-6.6355,3.8321-10.91,7.88
		c26.7432-4.3134,37.8021-34.4197,61.88-39.99c1.4995,3.856-0.9116,3.7461-1.04,7.35c-31.211,7.9158-48.4598,59.9327-81.07,32.31
		c18.9306-7.0559-32.7446-12.7235-28.59-25c10.025,0.3989,14.7935,6.1065,24.94,0.51c-11.3995-3.4199-15.5426-1.3515-4.78-6.78
		c-4.5368-0.4776-40.8083-23.1106-37.36-26.59c10.6217-3.9633,24.8542,12.1796,37.23,8.21c-1.5634,5.3994-5.6467,7.7527-12.25,7.06
		c9.3959,12.5936,15.1784-16.1459,0.99,5.91C124.7413,95.1709,140.1178,83.7102,152.4652,76.1819 M122.4752,109.2419
		c-9.9411,6.5499,37.8965,25.0886,27.85,10.87c-24.917-2.7332-7.7787,0.0904-11.01-9.04
		C133.475,113.6963,126.8678,112.1317,122.4752,109.2419 M136.2152,130.0719c3.0409,2.4356,6.4709,4.0989,10.29,4.99
		C142.42,134.4761,142.5503,129.9319,136.2152,130.0719C137.3152,131.2319,138.0252,130.0319,136.2152,130.0719z"/>
	<path fill="#33073B" d="M187.1052,65.8319c14.0899-3.955-4.2428,9.4754-7.85,3.33
		C181.7132,67.7073,184.3298,66.5973,187.1052,65.8319C188.8152,65.3519,185.5952,67.4919,187.1052,65.8319z"/>
	<path fill="#33073B" d="M572.5752,65.1619c12.3571-2.2697-5.8973,16.9839-17.35,8.54
		C560.2639,69.371,568.5063,70.063,572.5752,65.1619C573.0652,65.0719,571.2552,66.7519,572.5752,65.1619z"/>
	<path fill="#33073B" d="M552.2852,66.8519c3.36,1.1668,6.8067,1.2668,10.34,0.3
		C556.6401,69.6886,544.6208,67.3805,552.2852,66.8519C553.4852,66.8319,550.5452,66.9719,552.2852,66.8519z"/>
	<path fill="#33073B" d="M74.4752,69.1519C76.7772,76.7498,72.8092,71.4033,74.4752,69.1519
		C74.4752,69.1519,74.1052,69.6519,74.4752,69.1519z"/>
	<path fill="#33073B" d="M63.0952,70.2419c3.0602,1.2,6.2135,2.07,9.46,2.61C69.6349,74.5284,64.6446,76.6232,63.0952,70.2419
		C64.4752,70.6919,63.6852,72.6719,63.0952,70.2419z"/>
	<path fill="#33073B" d="M143.6452,70.4319c2.29,0.26-1.36,4.02-3.32,2.67C139.5952,70.7319,142.1352,71.0019,143.6452,70.4319z"/>
	<path fill="#33073B" d="M452.2352,70.0419c1.87,0.57,8.09,1.22,4.9,3.91C454.7752,74.3919,453.4852,71.5919,452.2352,70.0419z"/>
	<path fill="#33073B" d="M175.4152,73.1419c5.3042-0.8555,6.0743-1.4963,6.75,3.74
		C181.9583,76.9317,162.0903,78.3324,175.4152,73.1419C176.6552,72.9419,173.6952,73.8119,175.4152,73.1419z"/>
	<path fill="#33073B" d="M235.5652,73.2219c2.0753-0.247,9.1439,2.8727,5.54,5.665c-1.979,1.5334-20.0447,13.7496-21.89,13.905
		C220.6845,85.0485,232.5759,79.6471,235.5652,73.2219C235.9852,73.1719,234.0252,76.5319,235.5652,73.2219z"/>
	<path fill="#33073B" d="M439.4352,74.3319c11.0908,3.5053,3.1162,4.3784-0.26,2.89c1.1635,5.0905,18.0742,17.3198,18.17,16.92
		c-1.6299-1.6253-3.2632-1.762-4.9-0.41c13.9431,7.9203-0.2267-2.7235,7.9-0.72c-2.4877,17.4155-29.2979,20.9634-36.05,6.02
		c2.7207-0.3234,8.6133,4.4597,12.3937,3.5075c1.666-0.4196-20.4571-16.8372-26.5537-15.7975
		C411.5747,78.3446,434.2752,89.2165,439.4352,74.3319 M431.2452,82.3519c-2.9426,16.2894,11.5915,14.8645,20.17,13.51
		C447.9005,90.1027,435.6099,83.042,431.2452,82.3519C430.9652,83.9019,433.5852,82.7219,431.2452,82.3519z"/>
	<path fill="#33073B" d="M154.4652,81.2519c5.5951,2.2789,9.237-7.0957,10.93,1.89c-7.382,0.756-13.9904,2.8785-20.32,7.23
		C141.7724,85.9005,152.3161,83.4959,154.4652,81.2519C158.0252,82.7019,153.7852,81.9619,154.4652,81.2519z"/>
	<path fill="#33073B" d="M246.6252,79.3419c-4.9662,2.6076,20.9703,1.2842,13.76,1.72c0.7043,7.6147-27.6634,7.9327-26.86,22.93
		C213.5235,103.7721,244.2163,79.0573,246.6252,79.3419C250.0152,77.5619,241.7152,78.7619,246.6252,79.3419z"/>
	<path fill="#33073B" d="M389.1052,80.1019c4.0193-3.3711,24.8437,17.214,18.33,19.46c1.2836,0.5119-16.541,7.1739-15.04,1.52
		c3.3517-2.3497,7.901-4.5905,11.96-3.96C404.3301,86.5821,387.4922,89.2835,389.1052,80.1019
		C389.4152,79.8419,388.8452,81.5819,389.1052,80.1019z"/>
	<path fill="#33073B" d="M490.5752,79.0719c3.3989,3.5299,7.3222,4.1899,11.77,1.98c-2.4305,1.2499-3.7171,3.1565-3.86,5.72
		c-5.2506,1.5244-17.95,3.5068-23.31,5.26c2.4857-4.6359,0.5191-4.9459-5.9-0.93
		C470.9429,81.7296,490.9361,82.6089,490.5752,79.0719C492.8252,83.3719,490.9252,82.5019,490.5752,79.0719z"/>
	<path fill="#33073B" d="M509.2452,80.2219C520.9954,79.4589,509.0432,88.2657,509.2452,80.2219
		C510.0152,80.1719,509.1952,82.2119,509.2452,80.2219z"/>
	<path fill="#33073B" d="M197.2652,82.6619c3.3269-1.8083,5.0436-0.325,5.15,4.45c-4.9926-3.0347-15.6022,19.466-26.39,20.16
		c2.4352-8.0014,11.6305-14.3842,17.45-20.13c-2.8759-0.9547-11.6403,7.0173-14.27,9.03
		C176.8231,88.6413,198.3426,83.5328,197.2652,82.6619C198.2052,82.4119,199.1952,84.2219,197.2652,82.6619z"/>
	<path fill="#33073B" d="M203.0752,92.3219C197.9064,83.8462,217.6265,96.3408,203.0752,92.3219
		C201.2152,89.2719,204.1252,92.6119,203.0752,92.3219z"/>
	<path fill="#33073B" d="M257.5552,90.4219C269.9122,89.3104,257.2177,92.8225,257.5552,90.4219
		C259.4452,90.2519,257.4652,91.0619,257.5552,90.4219z"/>
	<path fill="#33073B" d="M385.8052,90.2019c2.31-2.56,4.54,0.07,5.75,2.15C389.4552,93.7419,387.6752,90.9119,385.8052,90.2019z"/>
	<path fill="#33073B" d="M248.5052,92.1319c6.7442-3.1277,8.5975-2.111,5.56,3.05c-3.5214-0.1463-6.448,1.1803-8.78,3.98
		C238.6815,86.7474,250.6668,98.7043,248.5052,92.1319z"/>
	<path fill="#33073B" d="M382.4652,95.0819c32.1703,10.36,0.3597,25.3545,2.1262,39.5738
		c-0.4094-3.2957,4.0309,6.5045,2.9038,3.6062c1.5985-1.4178,1.2274-8.4713,2.39-7.8c2.1207,3.3127,26.1391,27.5316,16.33,29.62
		c11.067-5.5098,1.1856-19.8009-5.25-26.79c7.0333,0.7859,9.5619,10.4469,16.3,12.98c-5.7298,8.1849-4.8731,11.4716,2.57,9.86
		c-6.4765,12.6191-36.9709,11.5222-37.52,11.01c0.7173,10.167,8.3811,24.684,15.06,30.75c-8.706,1.8394-12.5155-11.2255-17.28-15.75
		c3.2782,10.2906,14.9286,15.8819,16.08,23.04c-2.7971-1.2185-5.2454-2.5075-8.31-3c-2.1764,3.7549-1.6864,7.0282,1.47,9.82
		c-2.4004-1.9699-4.7671-3.9799-7.1-6.03c0.4044,5.7697,8.2764,7.0457-0.01,10.17c-2.4643-5.9781-21.9752-32.5302-29.82-38.1
		c-4.7859,4.4226,11.7568,24.1295,9.07,32.33c-1.7681-0.2009-7.0414-8.5475-10.15-5.22c1.9716,5.7878,7.3364,4.4298,7.15,11.92
		c-4.2563-1.3883-13.6089-4.7775-15.25-7.72c2.2771-0.3769,20.161-13.1891,5.05-15.06c0.062,2.7099,4.0545,16.1657-6.42,0.93
		c2.5442-5.7626,4.0509-5.7526,4.52,0.03c-0.8889-5.8518-3.5285-10.8495-1.22-16.39c-6.6536,0.9726-22.8764,26.8166-10.82,31.33
		c0.5514-6.4947-3.8644-17.8141,6.16-21.18c-2.7305-2.4824,2.7809,31.7753,2.79,31.17c2.4507-2.8356,4.9274-2.3189,7.43,1.55
		c-8.1696-2.3134-7.4654,21.6722-3.46,23.5c-0.2566-3.8491,0.9328-6.2811,2.31-10.06c5.6205,3.147,4.9176-0.6735,5.75,11.05
		c1.6407,0.8026-49.8041,49.9173-51.3675,128.36c11.2512-59.864,18.9788-104.0139,18.2275-114.43
		c-2.5217-0.3839-5.0484-0.2805-7.58,0.31c2.1263-4.3181-10.6475,50.12-6.8675,80.62c-4.7725-9.0958-19.9645-138.0204-25.2625-87.99
		c10.3245-2.1347,9.3036-6.2163,11.2-19.21c1.9674,7.97,2.2241,15.9967,0.77,24.08c11.5205,2.9187,21.1722-5.7776,31.49-6.73
		c0.5887,6.5422,2.6321,12.5856,6.13,18.13c2.8088,1.9231,14.0508-43.0175,7.06-47.18c-11.3994-2.1208-40.0908,8.7667-46.04,7.22
		c-5.0803-5.7932-3.337-9.3065,5.23-10.54c0-0.1744-15.136-15.2721-17.08-14.83c2.2438,4.9028-10.2065,13.0617-11.7,22.1
		c-16.0224,3.5006,3.5368-60.7058,4.5937-58.6537c-1.5874-3.0819-0.5536,7.3584,0.4263,2.9137
		c9.3484-20.9558,35.4035-4.2282,51.97-4.72c5.5781,2.1352,19.7668-7.0224,20.845-10.9087
		c3.1838-11.4756,12.4154,5.3059,14.59,5.3625c11.7568,0.306-0.4666-33.2332,21.375-30.9838
		c-1.4599-13.8696,4.6942-18.3939,8.13-19.02C388.4629,102.0084,380.6122,104.009,382.4652,95.0819 M378.1052,139.0619
		c-2.1653-0.4437-10.351,0.4976-10.83,4.09c7.2787-0.4044,1.7956,9.954,9.84,8.02c-0.6955-5.6007,5.2834-6.4807-0.39-9.52
		c1.2808,0.9137,8.1047,3.6244,8.74-1.5C385.352,139.9707,372.8878,128.5849,378.1052,139.0619 M390.2352,140.0719
		c0.39,2.34,1.17,4.92,4.11,4.04C393.7852,142.0019,392.3452,140.6119,390.2352,140.0719 M383.2152,144.0519
		c0.6704,3.6878,10.3174,14.9557,13.14,15.11c-3.1382-3.2878-2.8348-4.0403,0.91-2.2575
		C395.9217,156.6306,391.5724,144.0519,383.2152,144.0519 M394.2352,145.0819c0.94,2.26,3.89,3.13,6.19,3.03
		C399.3952,145.5219,396.8752,144.5219,394.2352,145.0819 M378.3352,148.0519c-0.2651,6.0966-4.7364,8.2013,1.74,13.02
		c1.5939-2.765,2.5698-4.4459,5.17-5.85C382.9652,152.8094,380.6619,150.4194,378.3352,148.0519 M353.5452,156.4119
		C356.992,155.3063,351.0384,158.8484,353.5452,156.4119 M368.6252,159.2419C368.9571,169.9899,379.4711,155.9469,368.6252,159.2419
		 M390.3052,160.0219c-0.61,3.15,2.88,3.4,5.11,3.06C394.6852,161.0919,392.2152,160.3319,390.3052,160.0219 M345.5752,167.2619
		c1.3384,5.7689,1.2976,6.9914,5.82,10.89C351.3443,173.2129,350.9117,165.8417,345.5752,167.2619 M360.4652,168.4219
		c-3.5113,2.6727,3.7314,7.1858,4.9637,8.0363C365.1667,173.1594,363.5121,170.4807,360.4652,168.4219 M336.5352,172.3319
		c-0.4981-0.2276-9.2081,2.073-10.655,1.885C336.2816,175.5682,337.0165,171.7804,336.5352,172.3319 M354.5252,170.2319
		c-1.87,2.29-0.78,5.75,1.77,6.94C355.9152,174.7619,358.5152,168.6619,354.5252,170.2319 M275.9252,175.7419
		c-4.026,4.2488-3.7668,5.4647,0.7775,3.6475c1.1958-1.7675,2.4133-3.52,3.6525-5.2575
		C279.914,175.6353,279.0081,164.3732,275.9252,175.7419 M291.1952,178.9919c-5.8615,3.5442-1.5938,11.5626-1.86,15.09
		c-1.61-2.7966-2.8604-2.7074-3.7513,0.2675c-0.8065,4.2831,12.2272,13.4553,11.9813,18.7925
		c-3.2965,3.3327,9.8839-11.4681,7.43-4.72c-5.5292-1.133-6.5155-7.8802-5.5-12.28c3.0346,1.6802,4.7146,4.2769,5.04,7.79
		c3.4921-0.6984,15.823-7.518,18.85-5.89c2.9078,6.959-26.8993-11.8039-23.91-12.02c0.7117,3.008,0.985,6.0314,0.82,9.07
		c14.3603,0.6107-13.8686-16.6249-10.08-11.88C290.1195,181.8765,297.0243,157.5899,291.1952,178.9919 M301.2052,172.2219
		c-0.4536,10.0024,13.1595,2.7394,13.91,2.57C314.6244,176.3308,302.9214,172.9853,301.2052,172.2219 M321.5652,175.5119
		c-4.1268,1.978-6.7335,8.724-0.29,7.86C314.2436,184.3148,330.5535,175.042,321.5652,175.5119 M280.5552,183.3719
		c-5.1847,1.2146-10.3261,5.0353-10.25,10.81C282.7936,188.0255,278.3606,177.4598,280.5552,183.3719 M331.2852,180.1119
		c-0.99,1.9,3.12,4.57,3.05,2C335.1752,179.6119,332.9952,179.9519,331.2852,180.1119 M270.4852,182.1319
		c-4.1259,1.575-5.4459,4.515-3.96,8.82C272.3007,193.2143,273.8647,181.0054,270.4852,182.1319 M368.4552,183.3019
		c-2.2596,7.9606-6.0225,1.9668-6.11,2.8c-0.269-0.3049,21.8891,17.0369,22.02,17.04
		C381.9413,196.8101,377.2655,179.3862,368.4552,183.3019 M320.4452,184.1919c-8.6118,4.435,18.7509,5.5585,9.97,4.95
		C328.4286,185.1048,325.1053,183.4547,320.4452,184.1919 M347.4752,185.9619c1.9666,2.7267,3.9333,5.4533,5.9,8.18
		C351.5852,191.2913,349.6186,188.5646,347.4752,185.9619 M281.1752,193.1119c-6.6281-3.0752-2.0344,9.8018-1.72,8.83
		c-5.2995-2.1424-8.2381-0.5215-7.14,7.09C281.4225,211.9736,282.7504,180.0297,281.1752,193.1119 M373.4952,194.3719
		C358.6787,200.5281,397.3082,200.4239,373.4952,194.3719 M307.4752,204.1619c-5.9603,3.9456,3.6197,6.5927,1.675,6.7563
		C314.2679,210.2872,313.7095,208.0351,307.4752,204.1619 M319.5852,208.4619
		C310.2734,213.7958,324.3788,207.2823,319.5852,208.4619 M324.4752,211.9819c4.4068,5.9807-19.5091-2.0621-22.19,7.12
		c4.3674,0.8767,34.5539,10.8178,31.07-6.04C330.3952,212.7019,327.4352,212.3419,324.4752,211.9819 M295.3152,262.0819
		c-0.73,3.23,4.55,1,3.2,5.09C302.9452,265.6119,301.2652,259.0019,295.3152,262.0819 M305.3552,269.1419
		c-4.5602,0.8227,4.3466,10.2265,3.85,9.87C311.5011,273.3471,306.1846,259.3807,305.3552,269.1419
		C303.4152,269.4919,305.4852,267.6119,305.3552,269.1419z"/>
	<path fill="#33073B" d="M250.4152,96.8819c14.3026,1.5275-1.8273,7.3718-3.16,16.32c21.0387-8.2652-4.9068-2.833,4.16,6.01
		c-4.8251,1.3384-13.0327,5.1532-14.3,10.79c14.2357-7.8805-6.7451,8.0155-7.6313,5.4825c1.065,3.0443,6.7548,3.223,9.9612,4.0475
		c-8.4532,10.6136-20.7624,34.5-41.31,26.21c0.2588-1.1619,15.2724-22.9633,16.14-24.78c-3.0779-1.0199,32.2889-19.9852,30.97-24.69
		C238.624,112.2431,246.0992,102.1788,250.4152,96.8819 M227.5452,138.1919c0.01,1.66-2.84,5.85,0.56,4.78
		C228.0952,141.3119,230.9452,137.1119,227.5452,138.1919 M223.6252,148.4019C213.7522,153.06,220.5013,151.9146,223.6252,148.4019
		 M216.5152,155.2319C204.461,162.3607,229.2042,150.4234,216.5152,155.2319C214.6552,156.3319,218.4152,154.5119,216.5152,155.2319
		z"/>
	<path fill="#33073B" d="M216.2752,99.8519c5.4546-3.7368,6.0979-1.9668,1.93,5.31c11.199-11.5285-3.0193,11.4932-3.91,6.85
		c0.8139,2.4885,2.4273,2.8585,4.84,1.11c-1.1149,4.2079-2.2627,4.5292-5.69,7c1.9378-3.1217,1.2611-4.7917-2.03-5.01
		c-0.2033,6.0572-0.2155,6.5278-3.08,11.33c-2.5412-4.9918,0.6917-5.5812,0.97-12.47c-9.8505,2.0563-0.9897,5.5471-8.15,11.1
		c-0.6472-1.8606-0.2939-3.584,1.06-5.17c-2.5769,0.2306-18.7006,19.4661-18.05,17.98c-4.0986,1.2336-6.5894-1.7758-8.79-4.71
		C189.4402,123.7033,200.5224,108.6623,216.2752,99.8519C217.6152,99.1719,215.6852,100.1819,216.2752,99.8519z"/>
	<path fill="#33073B" d="M257.5252,100.6619c3.0533-0.1333,6.1066-0.2667,9.16-0.4
		C259.0757,105.7613,256.0224,105.8946,257.5252,100.6619C260.5852,100.1019,257.4352,101.3019,257.5252,100.6619z"/>
	<path fill="#33073B" d="M411.4452,98.9419c3.0643,3.9984,7.641,5.4784,13.73,4.44c-1.1365,6.1372-19.5509,4.9509-21.98,0.89
		C408.4665,105.0309,411.2165,103.2542,411.4452,98.9419C411.7652,99.2919,411.1252,100.0319,411.4452,98.9419z"/>
	<path fill="#33073B" d="M401.2552,106.0419c19.4089,5.9071,8.741,16.8031,18.15,33.02c-1.9759,0.7296-7.4537-3.8647-7.945,0.38
		c0.4411-3.8108-7.8835-18.0276-1.115-14.33C408.7426,121.2961,401.786,110.3635,401.2552,106.0419
		C403.3252,106.6719,401.4652,107.7519,401.2552,106.0419z"/>
	<path fill="#33073B" d="M176.2952,110.2219c-2.62,1.04-2.88-4.23-0.27-2.95C176.5052,108.0219,178.0152,109.9419,176.2952,110.2219
		z"/>
	<path fill="#33073B" d="M378.6252,108.3119c1.36-0.81,4.64-0.49,4.4,1.55C381.6152,110.6619,379.0252,109.6619,378.6252,108.3119z"
		/>
	<path fill="#33073B" d="M252.9852,112.8519c15.8726-4.4614-5.1458,4.1449,7.36,1.23
		C257.0505,121.1523,254.5972,120.7422,252.9852,112.8519C254.8352,112.3319,251.8852,115.6519,252.9852,112.8519z"/>
	<path fill="#33073B" d="M231.4652,120.9719c4.4293-6.928,6.356-6.2947,5.78,1.9
		C236.3839,115.7514,235.4152,121.0843,231.4652,120.9719C231.7452,118.1719,233.9252,121.0419,231.4652,120.9719z"/>
	<path fill="#33073B" d="M219.4452,124.5219c3.1169-1.4878,6.0503-3.2778,8.8-5.37c1.1806,12.3166-26.4378,25.1902-31.98,23.61
		c4.085-4.5785-0.8846-2.9882,7.2-2.57c-2.13-3.2191,0.3092-6.1959,5.17-13.14
		C208.8414,127.1664,221.4273,136.4136,219.4452,124.5219C222.9952,124.6019,219.6452,125.7219,219.4452,124.5219z"/>
	<path fill="#33073B" d="M249.4352,121.3619c4.797-0.3489,1.8251,4.0306,2.92,7.54
		C248.0044,127.431,248.7984,125.2093,249.4352,121.3619C250.5352,121.2819,249.1952,122.8119,249.4352,121.3619z"/>
	<path fill="#33073B" d="M398.4152,123.2719c6.6834-5.1072,0.7924,3.8493,6.88-0.04
		C403.7883,130.9474,398.1295,124.2257,398.4152,123.2719C399.4752,122.4619,397.7952,125.3419,398.4152,123.2719z"/>
	<path fill="#33073B" d="M161.4852,123.3219C166.1477,124.0831,157.1248,131.8608,161.4852,123.3219
		C162.9552,123.5619,161.2452,123.7919,161.4852,123.3219z"/>
	<path fill="#33073B" d="M420.3052,126.7819c3.3289-3.2109,8.8881,9.1607,8.99,7.44
		C425.1137,133.0062,422.2651,130.3099,420.3052,126.7819C421.7152,125.4219,420.6052,127.3219,420.3052,126.7819z"/>
	<path fill="#33073B" d="M429.5752,135.9219c4.4123,0.1632,6.5956,2.9032,6.55,8.22c-2.9995,2.0855-5.8929,1.7088-8.68-1.13
		c1.067,6.2687-3.5748,3.591-1.42,11.94c-0.2356-0.0684-8.7149-3.7757-7.64-5.76c8.5272,1.691,2.2639-1.7613,3.02-8.05
		C424.3803,146.4836,430.1221,139.6473,429.5752,135.9219C430.7252,136.1919,429.7352,137.0119,429.5752,135.9219z"/>
	<path fill="#33073B" d="M330.4952,137.2719C331.7238,136.6542,324.0531,146.7201,330.4952,137.2719
		C332.2852,136.3719,329.5952,138.5919,330.4952,137.2719z"/>
	<path fill="#33073B" d="M171.2352,140.0219c3.19-0.16,6.06,2.02,8.18,4.13C176.1852,144.1319,173.0752,142.7219,171.2352,140.0219z
		"/>
	<path fill="#33073B" d="M240.1552,143.0519C239.7535,141.5845,248.0566,140.7979,240.1552,143.0519
		C239.1752,139.4719,240.1552,143.0519,240.1552,143.0519z"/>
	<path fill="#33073B" d="M145.3152,142.9219c4.0261,1.2373,12.7531,0.3155,15.13,5.11
		C156.6785,155.6292,147.0896,145.8052,145.3152,142.9219C147.3652,143.5519,145.9552,143.9619,145.3152,142.9219z"/>
	<path fill="#33073B" d="M238.3152,143.4419c6.0628-1.3179-0.4088,8.7797-2.19,10.38c10.1809,0.9186-2.1522,13.145-5.78,14.24
		C230.1557,160.1931,239.4568,154.0669,238.3152,143.4419C238.7752,143.3419,238.4452,144.6519,238.3152,143.4419z"/>
	<path fill="#33073B" d="M162.4652,145.1419C170.2248,153.0643,158.7539,147.3517,162.4652,145.1419
		C163.8952,146.6019,161.1552,145.9219,162.4652,145.1419z"/>
	<path fill="#33073B" d="M360.9852,202.1619c1.0482,0.2406,11.9639,3.2297,6.13,6.55
		C363.4801,208.0757,361.4367,205.8923,360.9852,202.1619C362.2052,202.4419,362.0752,204.9319,360.9852,202.1619z"/>
	<path fill="#33073B" d="M390.7852,218.0119c-1.2963-3.8233-0.0963-6.1333,3.6-6.93
		C394.822,214.9307,394.4164,217.8506,390.7852,218.0119C390.8952,215.2219,391.2352,217.9919,390.7852,218.0119z"/>
	<path fill="#33073B" d="M285.4352,223.2419c4.7112-2.9436-8.4222,12.7131-10.33,2.22
		C278.5978,224.9517,282.0411,224.2117,285.4352,223.2419z"/>
	<path fill="#33073B" d="M275.3252,230.0419c5.9352,0,7.3558-0.5322,5.6812,5.7513
		C279.0162,243.2612,274.6184,229.4774,275.3252,230.0419C276.6552,230.0419,276.7652,231.1919,275.3252,230.0419z"/>
	<path fill="#33073B" d="M283.6552,245.2419C284.6335,243.8473,298.6617,256.0637,283.6552,245.2419
		C285.5352,242.5619,283.6552,245.2419,283.6552,245.2419z"/>
</g>
<rect x="0" y="0" fill="none" width="646.4617" height="388.742"/>
</svg>
