<svg xmlns="http://www.w3.org/2000/svg" width="647" height="389" viewBox="0 0 646.5 388.7" style="enable-background:new 0 0 646.5 388.7"><g style="fill:#33073b"><path d="m122 43c18.7 3.4 27.7 6.1 48 0 1.7 3.8.2 3.3-2.9 4.2 3 2.7 10.4 16.2 3.2 13.8-4.2-2-5.5-6.7-1.4-9.2.2-1.6-29.6 4.2-33.7 4.2 2.9 1.5 3 3.4.2 5.5 4.8 3.4 9.8 3.3 14.9-.4.9 5.3-14 11-17.3 13.7 12 10.7 35.5-11.7 47-12.8-6.4 9.2-38.5 19.7-37.7 24.8 6.7 2.8 14.6-1.9 15.7 10-3.8-2.2-6.9-1.2-9.3 3 .9-.4 26-2.8 26-5-.2 4.1-22.4 15.7-24.3 15.4.9 9.5 22-.9 24.4-2.3-.2 4.2-3 7.6-2.9 11.6 0 2.9-18.4 2.7-20.7 2.8 3.7-.2 8.4 9.7 18.3 5.9 6.8 3.3 10-12.2 18.3-5.7-17.2 3.1-13.5 13-32 12.8.5-2.2 4.2 8.8 4 7.6-6.6 0-19.5-24-11.9-27.7-6.8-.9-11.2-.6-11-8.2 4.8-2.1 9.8-2.9 15-2.2 2.4-8.7-31.9-13.7-11.8-25.5-4.4 1.1-13.4-6.4-15.2-9.2 10.9 1-21-8.4 12-18.2-.4-2.7-13.7-6.1-14.6-9m33.4 74c-1.5 4.4 3.4 2.8 6.1 2.9-1.1-2.4-3.4-3.5-6.1-2.9z"/><path d="m210 43c3.1.8 12.7 0 12.2 6.7-6.3-.6-7.4 6.3-.1 1.2 1.9 14.3-2.9.1 1.9 11.8-7 1.6-11.6-15.7-14-19.7"/><path d="m236 43c26-6.8 31 46.9 47 65-3.9.7-6.9 2.4-8.9 2.8 0 0-3.3-20-8.2-19.9-4.8.2 6.6 28.9 5.2 31.9 27-5 18.6 21.4 34.7 26.6 1.7-10-5.4-25.9 14.3-23.7 0 0 8.1 1.1 9.1 16.9 3-3.2 13.4-5 11-9.2 14 16.5 24.8-101 60.9-91-2 4.7-11.3 13.4 3 5.8-4.5 10.8-14.5 12.3-16.9 26-19.8 11.2-4.7 22.9-1.9 34.9-5.1-2.9-11.3 9.4-8.7-4.8 14.2 29.8-49 47-49.7 50-2.9-1.2 5.9-11.7-2.5-12.2.9 10-3 5.6-5.3 6.2-17.2 4.4 9.3 22.7-20.6 7.6-11-6.9-34.8-48-36.8-48.6-.7 8.3-3.1 5.8-9.6 6.8-.9-7.8 4.1-15.6 10-18.2-4-3.1-13-4.3-16-3.7-1.6-6.6 6.4-8.4-1.8-12.2 2.4-2.4 7.3 1.1 7.4.6-8.7-13.9-10.7-25.9-15.7-38m6 8c.4 2 1.2 5.2 3.8 5.1.2-2.8 0-6.2-3.8-5.1m146 .9c2.8 2.9-4.1 2.5-1 5 2.5-.2 4.8-5.6 1-5m-2.8 7.4c-.8 1.9-4.5 7.3-.5 6.6.3-1.8 2.4-6.8.5-6.6m-9 3.9c-.6 1.2.4 2.4.1 3.7 2.6 1.1 2.5-5.2-.1-3.7m-123 10c1.5 5.9 10.4 1.4 0 0m3.2 12.6c.8 2 .9 5.7 3.9 5.2.9-3.2-.9-5-3.9-5.2m4.1 14c2.8 4.8-4.1 1.4 0 0m107 5.1c.1 6.2-.1 14.2-1.8 19 7-.3 6.5-20.3 1.8-19m-91 27c-1.2-2.6 10 13.2 10.3 11 1-2.2 2.1-4.3 3.2-6.4-2.9-4.7-7.4-6.2-13.5-4.6m35.4.3c.2-.2-8.1 12.7-1.4 10.7 5-9.2 5.4-12.7 1.4-10.7z"/><path d="m423 43c-1.5 1.5-6.6 9.2 0 0"/><path d="m435 43c13.3 1 10 3.9 24 6.2-5.4 9.5-21.6-4.7-24-6.2"/><path d="m497 43c5.9 0 11.9 0 17.8 0 1.7 6.1-1 9.6-8.1 10.5 2 5.7 7.3-.6 7.1 7.6-16.3 4.2-29 11.4-44.6-3.3-.3-2.3 15.8 6.1 18.8 3.4-2.6 8.1 17.6 6.1 17.9-2.8-4 1.4-4.4.6-1.1-2.3-2.7.9-7 2.7-9.6 2.3-.3-4.5-4.8-.9-7.5-7.3 5.7 3 11 2.6 16.2-1.2-9.4-1.9-11.7-4.1-6.9-6.9"/><path d="m527 48.8c.9-8.4 7.2 6.8 0 0"/><path d="m422 47c.9-.3 9 6.5 9 7.5-5.3 1.9-8.3-.7-9-7.5"/><path d="m461 51c-.8-.1 0-9.8 0 0"/><path d="m438 48c11.2 2.6 0 1 0 0"/><path d="m200 52c1.8-1.1-6.8 10 0 0"/><path d="m409 51c5.9 1.1 9 5.2 9.6 8.9-3.7-1.2-10.2-4.4-9.6-8.9"/><path d="m467 60c-5.4-17 5.4 8.4 0 0"/><path d="m422 54c6.2 2.9 5.5 4.1-.2 6.1 3.7 4 9.2 3.2 7.8 10-1.6-3.3-14-.5-13.7-9 6.9 1.1 3.2-.3 6.1-7.1"/><path d="m430 60c-.8.2-.1-2.5 7.2-.8-4.2 7.7-4.2.9-7.2.8"/><path d="m398 59c2.9 1.6 8.2 3.6 7 8.1-2.1-2.7-5.8-4.5-7-8.1"/><path d="m412 68c6.4-14.2-1.9-2.8 8.1 1-6.3 1.1-2-1.6-8.1-1"/><path d="m164 61c9.6-1.8-1.7 11.9 0 0"/><path d="m202 66c4.3-1.6 8.7-3.3 13-4.9 0 1.7-12.4 7.9-13 4.9"/><path d="m224 62.8c5-3.6-7.4 1.7 0 0"/><path d="m403 69c3.8-1.3 6.1.7 6.9 3.4-3.4 3.5-5.7 2.4-6.9-3.4"/><path d="m142 72c4.3-3.4 7.6-1.3 0 0"/><path d="m447 68.9c6.7-1.6 8.1.6 4 6.4 2.9-1.2 17.4-3.3 18 6.4-2.7-.7-5.3-.3-7.8 1.1 7.3 1.9 12.7 8.1 17.6 11-8.9-5.5-19.5-10.3-31.9-13.9.4 1.4.2-11.7.1-11m6.9 5.1c-.6 9.8 4.3 2.7 0 0z"/><path d="m504 69c4.2-.8-1 7.5.7 10 0 0-9.9-6.7-9.9-7.1 3.7-1.5 5.6-.8 9.2-2.9"/><path d="m394 71c3.6-3.4 4.8 11.4 0 0"/><path d="m422 70c2.4 3.3 5.2 5.2.2 7.7-7.1-15 2.3-.1-.2-7.7"/><path d="m170 72c1.2-1.8 10.6-1.4 0 0"/><path d="m215 71.8c10-3.5-4.7 9.2 0 0"/><path d="m466 73c5.2-1.4 29.5 10.5 28.7 15.7 11.2-6.8 8.9-1.1 18.9-5 .7 3.1-.2 5.8-2.6 8.1 7.8-2.5 2.6 8.7-.3 7.9-.9-5.6-3.5-7.5-4-12.7-5.6.9-10.5 7-15.9 7.2-.1.5 6.8 3.7 8.9 2.3-5.1 13.7-4.5 29.7-11.9 33.6 2.9 3.2 5.5 3 8.1-.5 1.5 8.3-3.6 10-15 5-1.2-5 .9-5.7 6.2-2.1-5.1-4.7-8.8-3.7-9.1 2.1-5.1 1.6-6.5.3-4-4-14 2.7-5.9 36-13 14-20.6-2.7-26.4-20-46-33.9.4-.2 28.4 14.8 30.9 16.2 6.3 12.6 20.3 1 32 2.8-4.8-9 3.6.4 2-4.5-6.9-1.2-21.3-2.1-22.9-11.5 9.2 7.4 18.3 4.8 27 15.9 7.2-1.8-11.6-21.6-16.6-26 10.4 4.1 12.3 2.8 23.4-3.4.2.6-12.4-3.4-9.4-7.5 2.6-3.5 9.6-1.1 10.5-6-8.1.4-33-11.4-25.9-13.7m17.9 39.9c-.9 5.7 6.5-2.5 5-4.5-3.4-4.6-8.4 1.8-5 4.5m-62 4c-1.9.8-.5 3.9.4 4.5-.1-1.4 2.4-5.3-.4-4.5m12.9 13c-.6 1.7 1.8 4.1 3.5 3.5-.1-1.5-2-3.4-3.5-3.5m7 .7c-2.6 6.9 10 12.6 14.6 11.7 2.6-3.2-11.3-10.6-14.6-11.7z"/><path d="m166 73c6 .2 3 6.4 0 0"/><path d="m410 72.8c9.1 1.2 25.5 19 27 24-2.3-.6-5.5.7-8.1 1.2 1.5 8.9-2.9 2.1-8.1-3.2 2.8-3.4 9.5 6.8 9.9-.1 2.2-6.5-18.9-14.8-21.6-16 3 3.7 2.6 4.5-1.3 2.2 4.9-1.5 5.6-4.3 2.2-8.2"/><path d="m118 75c8.1 5.8-.1 8.6 0 0"/><path d="m169 81c7.2.3 14-1.2 20.4-4.4-7.3 6.1-18.3 12.5-20.4 4.4"/><path d="m236 81.9c16.4 5.6-5.5 3.9-3.4 14.3 1.5-1.5 3.2-2.2 5-2.2 4.7 1.6-9.2 7.3-6.3 3.8-2.4 2.3 5.1 7.8-.7 9.3-3.5.9.1-19.6 1.2-19 0-.7-11.2 1.8-11 1.9 3.4-4 3-5.7-1.2-5.1 6.9-5.6 7.9-1.4 14-.8-4.8-5.9-4-6.6 2.4-2.1"/><path d="m399 76c.4-.1 18.3 7.1 16.8 12.2-3.8-.6-11.7.3-4.8 8.4-1.7.4-3.5.6-5.2.4-4.7-6.5-4-13.6-6.8-21"/><path d="m489 77c1.5 1.3 14.6 3.8 3.2 6.4-7-.5-1.3-2.9-3.2-6.4"/><path d="m153 81c4.6-3.6 8.4-3 11.5 1.7-5.7-1.2-6.6.1-2.8 4-10 .5-12.4 1.8-8.7-5.7"/><path d="m441 81c.6.2 4.9 9.4 5.4 9.9-2-.1-12.2-5.4-12.9-6.8 3.2.6 5.7-.5 7.5-3.1"/><path d="m183 85c6.7.9-5.8 7.6-4.7 6.9.6-3 2.2-5.2 4.7-6.9"/><path d="m194 86c2.4-6.4-1.9 4.1 0 0"/><path d="m157 89c2.4.3 2.9 5.3-.2 4-2.3.3.2-2.9.2-4"/><path d="m227 89c3.2.1 0 4.5-2 3.5 0-1.4 1.7-2.2 2-3.5"/><path d="m393 89c6.7 1.6 2.7 5.5 0 0"/><path d="m214 90c5.6-.5-5.8 9.6-7.3 9.9-.2-3.4 5.9-7.5 7.3-9.9"/><path d="m449 90c-.1 0 7.2 6.2 7 7.9-9.1 1-11.4-1.7-7-7.9"/><path d="m197 93c10.5-3.3-16 21.7-15.4 10 1.9 1.5 15-6.9 15.4-10"/><path d="m394 94c2.3 2.5 8.6 10.4 12.8 10.9-2.9 4-7.2 12.2-10.7 13.2.9.7-6.5-14.9-7.2-13 1.8-1.2 12.3 2.6 13 .1-7.6-6.2-6.8-3.7-7.9-11.2"/><path d="m245 101c-1.6-11.4.6 9.2 0 0"/><path d="m403 97c4.5-.4 4.7 1.6 4 5.8-3.8 1-5.1-1-4-5.8"/><path d="m204 100c1.7-1.9.4 7.4-.5 9.7-2.2 1.3.4-9.6.5-9.7"/><path d="m249 100c3 .3 1 2.6 3 6-5.3-1.1-7.8 14.2-10 15.7-1.7-4.1-1.1-7.3 2-9.5-6.5 1-16.6 4.5-23 9.6-1.3-3.2 1.2-5 2.7-8.1 2.5 8.3 17-11.9 22-13 1.1 3.6-.6 6-4.9 7.3 3.8-1.7 6.6-4.4 8.3-8"/><path d="m214 105c8.5-.5-3.8 6.1 0 0"/><path d="m218 105c4 7.9-2.1 3.8 0 0"/><path d="m406 105c2.3 2 4.7 4.1 7 6.1-4.7.5-5.6-.1-7-6.1"/><path d="m445 106c4.4.3 4.4 5.5 10.3 4.8-3.8 7.1-3.5 5.3-10.3-4.8"/><path d="m386 114c-5.1-10.3 11 12 15 14.5.3-.3 3.9-7.4-1.1-5.2 13.4-7.5 27.9 16 40 21-8.4 1.3 21 16.6.6 15.3 5.5.5 7.7 3.2 6.6 8.1.2 2.7-15.8-1.3-14.3 2.7 3.9.4 7.2.9 11 .3-.5 23.6 0 11.8-12 10.8-.2 2.2-2.9 13.2 3.8 13 2.6-6.4-1.2-3.2 6.1.8-10 1.4-1 7.7-1.7 14.3-5.4 4.2-7.4-12.4-5.9-12.4.5 1.2-3.3.8-5 3.4 3.2-7.9-8.6-5.8-8.7-8.7.4 10.2 4.3 2.4 5.7 10.4-4.3-.5-8-2.1-11.2-5.1 8.1 7.9 10.3 8.6 17 14-14.9-.3-6.2-8.2-8 5.2-10.8-1.3-10.2-12-18-13.2 3.1 8.9 8.1 9.1 11.2 17-8.1 5.4-3.6-3.2-9.9-1.9 2.3 14.4-24 5.5-29.4 6.1-1.3 9.2-4.5 6.8-10-2.8 8.6-2 9.5 1.1 16.4-2.2-.3.8-3.7-12.5-3.6-12.3 4.3-.9 6.8 9.8 7.4 10.2 3.3-.7 6.1-10 5.7-10 .9 2.6 7.9 12.6 8.7 10.8 7.1-15.2-5.8-16.9-7.8-15.9 4.6-2.3-22.5-16.6 3.5-16.9-.1 4 17.9 16.5 17.8 18.4.7-15-36.6-22.7-31-38.7 6.4-.2 6.5 5.6 10.9 10.5-2.2-5-.1-6.5 6.2-4.3-4.7-4-37-13.2-25.3-.7 1.7-7.4.5-5.4 7.4-5.5-3.2 3.6-12.5 22.3-4.1 25.3-3 1.1-12.8-10.8-14-4.9-6.3-13.4 25.7-50.9 24-51-1.9-2.1-4.1-2.3-6.4-.5-1.1-6.3 0-8.1 3.5-5.3-2.4-7.2-4.5-5.7-1.4-10 .7 3.9 7.7 8.8 7.6 11 6.8-2.8-20-15.6-7.4-15.4m22 13.4c-1.7.3-1.5 10.9-3.1 12.8 4.8 1.4 22 2.4 22 12 0 .4-32.9-3.9-36-4.6 0 1 17.5 21.5 20.6 24.4-1.5-1.4-.3-19.5-11.3-19.9.4 5.7 33 6.2 39.6 9.2 3.7-14.8-33-28-31.8-33.9m-15 33c-1.1 17.4 13-2 0 0m21 3.9c-.2 2.5 2.3 3.9 4.1 5.2.1-2.5-2.3-3.9-4.1-5.2m0 6.8c-.2 2.6 2.3 4.1 4.1 5.4.1-2.6-2.5-3.9-4.1-5.4m-.8 14.5c-.6 2.2 3.2.8 0 0m4.9-3.3c1.3 4 4 6.4 8 7.1-3.3-4.6-3-5.3 1-2 .1-4.9-4.9-5.2-9-5.1m-6.1 10c-.3 2 1.5 3.2 3 4.1.5-2.1-.5-4.7-3-4.1m.1 11.9c3.9 9.8 5 1.1 0 0z"/><path d="m191 115c9.8-5.8-2.7 9.3-5.6 5 .6 1 4.9-4.6 5.6-5"/><path d="m246 122c-.7.1 13.3-5.4 13.3.4-5.4 3.1-9.3-1.9-12.3 6.9 3.8-3 6.3-2.3 7.4 2-13.7 7.2 2.8 18.8-7.4 34 3.4-.1 34-20 26 11-.7-2.5-2.3-3.5-4.7-3 .9 5.4 4.2 8.7 9.7 9.8.4-4.6-1.1-5.2 3.1.3-.9-16 38 3.2 45 9-13.7 4.5-6.3 24-9.1 24.9 1.9-3 4.6-4.1 8.1-3.1 1.8-6.2-9.5-12.7 1.2-15.3.3 3.2-1.2 5.3-4.4 6.4 10.6 1.7 22.6-47 35.5-14.9 3.7 9.3 14.8 12.7 13.5 23-.3-.2-10.8-4.7-8.8-7.3-1.7 2.2 5.4 11 1 12.3-2.8-6.6-6.4-12.6-10.9-18 1.3-2.1 3.3 23.4 2.7 18.9-4 1.2-4.6-26.6-11.9-30.9-.8-.3-10.5 14.8-10.6 17.9 4.6-1.3 5.9-1.7 7.9-6.2 9.5 0-14.8 25.7-14 21 14 14.2 26.7 32.5 24.5 55-2.1-8.8-5.1 14.5-11.5 15-.7 37-17.9-8.7-19.3-10-2.6 1.1 18.8 1.6 16 2 9.7 12.9-8.3 100-17.9 96-14.7-6.1-10.5-93-28.9-93 .2-23.7 9.3-35.8 10.2-53 .3 9.3 4.9 11.4 13.7 6.5-.8 1.8-2.1 2.4-4.1 1.8 8 4.1 21.4 5.9 25-5.2.9-2.6-5.3 2.3-4.2-3.3-7.1.8-9.3 3-6.5 6.5-8 1.5-5.5-12.8-14.3-4.3 3.9-10.9-4.6-8.5 5.2-15.9-9 1.1-10.8-22.6-21.9-15.9 3 10.3-2 4.7-5.2 12.9-6.2 0-2.7-6.2-4.9-5.4-7.8 2.8-5.6 15.2-2.1-4.6-6.9-1.2-1.5 30.7-22.4 27.8-5.5-.8-30-7.8-27.6-14.9-31 4.2-3.3-20-9.7-21.8-4.1 6.2-8 6.9-14.5 8.8.2-10 9.3-13.2 4.3-19-2.2 5.5-5.4 9.2-11.4 9.2-2.5-11.2 16.6-20.9 15-26.7-8.8-.5-14.4 7.5-21 6.5-.1-1.3 34.4-27 40.6-27.8 2.3-5.4 1.1-7.2-3.7-5.4.7-9.5 9.5 2.4 9.2 4.3-.5.3 4.3-22 7.2-25.4m-4.2 27c-4.3-2.4-21.4 12-19.7 18 1.3.4 26-14.2 26-13 0-.5-6.5-8-6.3-5.1m-15.7 5.1c-4.3 2.1-7.1 5.5-8.2 10.2 3.1-3.1 5.9-6.5 8.2-10.2m10 8c-2.6 16 4.7-1.6 0 0m-20 5c2.4.8 2.2-1.1 1.9-2.8-1.8-3.6-4.7 3.1-1.9 2.8m33.9 1c-3.6 2.5-4.8 5.7-3.7 9.8 1.6.7 9.2-1.2 7.7 1.7-6.6 5.5-14 17.8-21.9 23.7 15.5-.6 12.6-15 21-17.9-.3 3.5-13.3 33.8-11 34 2.1 5.9 5.5-1.7 8.1-1.2-3.8-2-5.2-4.3-4.2-7 0 0 14.8-5 15.2-3 .4-1.1-5.3-4.1-2.8-11.9 3.6 2.4 24.7 4.1 23.8-.9-3.8-3.6-7.7-4-11.8-1-1.7-5.6-.2-15.3-11.3-23 4.6 3.8 7.6 3.9 9.1.2 1.6-5.3-15.7-9.2-18.3-3.4m-29.6-.7c-2.4 2.7-4.5 5.6-6.3 8.6 7.5-2.2 5.3-7.3 6.3-8.6m11.9 3.6c-1.2 7.2-17.8 18.3-15.3 25 .3-.1 23-23 15.3-25m-11 6.3c-2 3.2-4.4 6-7.1 8.6 4.1 5 8.6-9.2 7.1-8.6m15.8 2.8c0 2.2-.8 5.2 1.9 6.1-.4-2 1.7-7-1.9-6.1m109 5c-1.1 3 5.3 4.6 4.1 1 .3-2.1-2.9-.6-4.1-1m-118 2c-.3 2-.7 4-1.2 6 2.2-.6 5-6.8 1.2-6m62.9 6.9c-3.5 3-7.6-2.1-4.9 3.9.2.1 6.3-2.1 6.1-.1-.3.2 4.5-19.8-1.2-3.8m-13-2.9c-.4 3 3.9 3 6 3 1.5-4.3-3.4-2.9-6-3m19.9 1c3.1 4 17.8 9.9 18 3.3-6.2-.1-12.2-1.2-18-3.3m-19.6 8.3c-2.7.2-6.5 2.2 0 0m21.7-.3c-.7 4 1.6 5.7 7.1 5-1.4-3-3.8-4.7-7.1-5m-34 6c.5-.7-6.9 9.9-6.6 15.9 1.1.4 8.6-8.3 11.5-4.7 4.4-9.4 2.8-13-4.9-11.2m42 .3c-.6.1-2.7 2.6 0 0m-53 5.7c1.9 5.9.3-4.5 2 6 9.4 1.4-5.1-12.8-2-6m65 17.3c-7.6 2.1.4-.1 0 0m15.4 15.2c-12.9-1.9-59.7 15-29.6 18.4 0 1.1-16.2 11-8.9 14.9 3.4-.8 26.6-7 29.6-5.7-2.9 10-.7 16.9 6.6 20.8 4.5-9.1 5.8-52 2.3-48m9.6 12.2c1.7-7.4.1 16.6 2.4 10.6-1.4-1.3-1.3-12.6-2.4-10.6m-40 29c0-1.1 11 73 15 72 14.2-32.4-10.8-71-15-71z"/><path d="m228 121c.6-6-2 7.1 0 0"/><path d="m215 123c7.2-.6 5.9 8.2 0 0"/><path d="m380 123c4.6-.4 1 11-.9 11.6-.5-6.9-3-6.5.9-11.6"/><path d="m212 127c7.1-.8 6.2 3.1 5 5.8-6.2 1.1-2.7-4.1-5-5.8"/><path d="m229 129c-4.9 30-29.6 30-52 31.8 2.2 1.6 4.4 2 6.7 1.2-2.5-2.5-2-4.7 1.7-6.4-11.7 4.2-8.7-8.2-6.2-12.3-4 .3-7.4-1.1-10-4 10 0 15.4-.6 23-.1-.6 5.2-9.1 5.6-9 10.9 10.4 3.9 13.7-6.6 20.9-6.9-.6 5.5-17.3 10-15.8 16.8 16.8-1.6 32-17 41-31"/><path d="m253 133c7.3-3.7-11.4 5.6 0 0"/><path d="m253 136c11.8-.9-2 4 0 0"/><path d="m254 170c7.5-.1-.3 4.4 0 0"/><path d="m188 173c8.1 6.1-2 4.2 0 0"/><path d="m252 174c1.3-1.7 5.7.4 2.9 1.7-1-.8-3.9.4-2.9-1.7"/><path d="m383 179c3.2-10-.9 1.2 4.3.5-4.5-.6-6.2 1-5.1 4.9.8 0 6.1-1.5 6-1.2.5 4.3-17.6-.2-5.2-4.2"/><path d="m358 184c-2.7-12.5 11.4 12.5 0 0"/><path d="m387 190c12.5-.9-12.3 6.3 0 0"/><path d="m367 192c5.2 1.6 3.7 3 7 7.4 1.3 2.1 5-7 6.1-7.3-.9 4.9.8 8.7 5 11.2-7.6.8-22 1.3-18-11.3"/><path d="m442 201c-2.5 1.3-2.8-3.5 2.7-4.4.1 9-3.1 9.3-2.7 4.4"/><path d="m300 220c-.2-5.5 3.5-6 0 0"/><path d="m355 224c2.2.9-1.5 4.3-2.7 2.1-1.5-1.7 1.8-1.4 2.7-2.1"/><path d="m342 231c4.6-1 12.2.1 10.7 6.4-3.5-2.5-7.4-3.6-10.7-6.4"/><path d="m309 235c-.5 1.2-9.3-7.1 0 0"/><path d="m357 239c-2.4.2-4.6-3.3-.9-2.9 2.5-.9 2.3 1.7.9 2.9"/><path d="m317 254c5.3-.9 10.6-1.7 15.9-2.6 4.6 25-23.5 3.7-24 3.1 2.9.9 5.6.8 8.3-.5"/></g></svg>