<svg xmlns="http://www.w3.org/2000/svg" width="647" height="389" viewBox="0 0 646.5 388.7" style="enable-background:new 0 0 646.5 388.7"><g style="fill:#33073b"><path d="m93 43c5.7 0 11.3 0 17 0-1.7 4.1-61 16.7-60 5.9 16.2 2.3 27.7-5 42.6-5.9"/><path d="m135 43c.8.3 11.3 5.6 11.3 5.6-16 11.3-48 16.8-62.7 15.6 11.9-11.4 35.5-14.7 51-21"/><path d="m142 39c3.1 0 91-34.4 97-15.4-.8.9-98 20-97 15.4"/><path d="m219 24.6c39.8-10.5 58.8 90 85 102-7.6-3.3 6.5-29.9 18.2-27.4 4.6 3.7 12.5 20.3 19.7 12 2.6-7.4-16.8-10.7-15.8-17.7 11.4-20 35-41.6 43.6-60 12-26-14.9 22 2 14.9 2.3-4.7 11.2-24.9 16.6-24.3-.4 3.9-21.9 31.6-14.4 32.5-1.2 2.2-2.6 1.8-4.1-1 1.4 17.4-5 89-40.6 80.9-.4-4.4 55.9-40.8 29-50.7-1.4 3.7-9.4 13.8-11.5 11.4 2.3-.7 3.5 0 3.5 2-5.2-1.2.1 4.1-6.3-3.8-2.4 3.3 1.6 13.7 1.9 20-2.9 15.7-27.7 9.2-28 14.3-2.1-2-2.4-4.3-.9-6.8-5.7.5-4.6 14.5-5 19.6-12.7 15.3-50-56-49.8-56.8 11.6-13.7-14-48-22.7-62m121 52c-3.3 5.1-3.1 7.9.8 8.3 1.3-1.4 3.8-8.9-.8-8.3m-87 11c-.5 5.3.8 8.6 2.1 13.9-.4.1 11-11.4 10.9-11.7-.4-4.2-19-6.6-13-2.2m63 4.1c-3 2.1.5 3.9 2.8 3.9.4-1.8-.3-4.7-2.8-3.9m-20.3 15.9c1.2 3 4.5 3.1 7.2 3.8.9-4-4.5-3.5-7.2-3.8m-34.7 8.3c-.6 1.7 1.8 4.1 3.5 3.5-.1-1.5-2-3.4-3.5-3.5m26.8 11.6c-.6 4-5.6 4.9-1.8 7.4 3.7 2.5 5.6-6.4 1.8-7.4z"/><path d="m405 23.6c.6.2 53 18.3 49 23.9-2.2-1.1-48-23.5-49-23.9"/><path d="m487 43c13.8 5 33.7 18.9 43 17.8-13.8.5 17 11.4 15.8 5.2 19.4 7.4-28 16-29.4 16 4.4-1.1 4.7-2 7.5-5.8-14.5-2.7-33-4.9-35.7-17.4 9.4.4 19.4 9.9 18.5 11.2 9.1-.6 16.4 2.6 27 1.8 2.1-8.1-54-15.6-47-28.8"/><path d="m507 43c21.4.5 26.8 11.4 45 12-.6 4.3-42.8-7.2-45-12"/><path d="m476 46c4.1-.6-8.9 4.8 0 0"/><path d="m477 46c2.7.5 3.4 2.8 4 5.1-2.3-.6-4.5-2.6-4-5.1"/><path d="m418 28c111-.6 37 28 40 20 1.3-.5-40.8-18-40-20"/><path d="m469 51c10.2 3.4 1.3 5.8 0 0"/><path d="m133 58c4.3-2.2 8.9-3.6 13.7-4.3 5.1 7.4-6.8 5-5.8 11.9-5.1-1.5-16.5 2.6-23.8 8.1-12.7 4.9-13.2-3.8-24.4-4.3 4.4-6.9 31-1.4 40-11.4"/><path d="m156 55c10.7-1.3-.9 9 0 0"/><path d="m463 57c2.1.7 5.2.6 6.1 3-2-1.1-6.8.3-6.1-3"/><path d="m150 58c13.4-1 4 6.7 0 0"/><path d="m203 62c12.7-4.9-12.3 20-19.7 20 4.9-7.9 17.4-14.9 19.7-20"/><path d="m395 62c25.5-4.6.7 7.4 5.4 6.2-.9-2.8-2.7-4.9-5.4-6.2"/><path d="m153 76c4.3-6.3 10.3-9.9 17.8-10.8 1 16.9-48 21.7-47 35.7-.6.1 16.8 2.5 18 3.1-.4 1.5-8.4 1.9-10.2 3.9 4.4.1 19.7 2.8 24 3-1.7 0-14.3 2.4-14 6 9.1.3 14-3.1 19 4.1-5.3-1.4-6.6 3.8-10.9 7.9 26.7-4.3 37.8-34.4 61.9-40 1.5 3.9-.9 3.7-1 7.3-31 7.9-48 59.9-81 32 18.9-7.1-32.7-12.7-28.6-25 10 .4 14.8 6.1 24.9.5-11.4-3.4-15.5-1.4-4.8-6.8-4.5-.5-40.8-23-37-26.6 10.6-4 24.9 12.2 37 8.2-1.6 5.4-5.6 7.8-12.2 7.1 9.4 12.6 15.2-16 1 5.9 15.4 3.2 30.8-8.3 43-15.8m-30 33c-9.9 6.5 37.9 25 27.8 10.9-24.9-2.7-7.8.1-11-9-5.8 2.6-12.4 1-16.8-1.9m13.7 20.9c3 2.4 6.5 4.1 10.3 5-4.1-.6-3.9-5.2-10.3-5z"/><path d="m187 65.8c14-4-4.2 9.5-7.9 3.3 2.5-1.4 5.1-2.5 7.9-3.3"/><path d="m573 65c12.4-2.3-5.9 17-17.3 8.5 5-4.3 13.2-3.6 17.3-8.5"/><path d="m552 66.9c3.4 1.2 6.8 1.3 10.3.3-6 2.5-18 .2-10.3-.3"/><path d="m75 69c2.3 7.5-1.7 2.2 0 0"/><path d="m63 70c3.1 1.2 6.2 2.1 9.5 2.6-3 1.7-8 3.8-9.5-2.6"/><path d="m144 70c2.3.3-1.4 4-3.3 2.7-.7-2.4 1.8-2.1 3.3-2.7"/><path d="m452 70c1.9.6 8.1 1.2 4.9 3.9-2.3.5-3.6-2.3-4.9-3.9"/><path d="m175 73c5.3-.9 6.1-1.5 6.8 3.7-.2.1-20 1.5-6.8-3.7"/><path d="m236 73c2.1-.2 9.1 2.9 5.5 5.7-2 1.5-20 13.7-21.9 13.9 1.5-7.8 13.4-13.2 16.4-19.6"/><path d="m439 74c11 3.5 3.1 4.4-.3 2.9 1.2 5.1 18 17.3 18.2 16.9-1.6-1.6-3.3-1.8-4.9-.4 13.9 7.9-.2-2.7 7.9-.7-2.5 17.4-29 21-36 6 2.7-.3 8.6 4.5 12.4 3.5 1.7-.4-20.5-16.8-26.6-15.8 1.5-8.4 24 2.5 29-12.4m-8.2 8.1c-2.9 16.3 11.6 14.9 20 13.5-3.5-5.8-15.8-12.9-20-13.5z"/><path d="m155 81c5.6 2.3 9.2-7.1 10.9 1.9-7.4.8-14 2.9-20.3 7.2-3.3-4.5 7.2-6.9 9.4-9.1"/><path d="m247 79c-5 2.6 21 1.3 13.8 1.7.7 7.6-27.7 7.9-26.9 22.9-20-.1 10.7-24.8 13-24.6"/><path d="m389 80c4-3.4 24.8 17.2 18.3 19.5 1.3.5-16.5 7.2-15 1.5 3.4-2.3 7.9-4.6 12-4-.1-10.5-16.9-7.8-15.3-17"/><path d="m491 79c3.4 3.5 7.3 4.2 11.8 2-2.4 1.2-3.7 3.2-3.9 5.7-5.3 1.5-17.9 3.5-23.3 5.3 2.5-4.6.5-4.9-5.9-.9 1.6-9.5 21.6-8.6 21.3-12"/><path d="m509 80c11.8-.7-.2 8.1 0 0"/><path d="m197 83c3.3-1.8 5-.3 5.1 4.4-5-3-15.6 19.5-26.4 20 2.4-8 11.6-14.4 17.4-20-2.9-1-11.6 7-14.3 9-2.3-7.6 19-12.7 18.2-13.5"/><path d="m203 92c-5.2-8.5 14.5 4 0 0"/><path d="m258 90c12.3-1.1-.4 2.4 0 0"/><path d="m386 90c2.3-2.6 4.5.1 5.8 2.2-2.1 1.3-3.9-1.5-5.8-2.2"/><path d="m249 92c6.7-3.1 8.6-2.1 5.6 3.1-3.5-.1-6.4 1.2-8.8 4-6.6-12.5 5.4-.5 3.2-7.1"/><path d="m383 95c32 10.4.4 25.4 2.1 39.6-.4-3.3 4 6.5 2.9 3.6 1.6-1.4 1.2-8.5 2.4-7.8 2.1 3.3 26 27.5 16.3 29.6 11-5.5 1.2-19.8-5.2-26.8 7 .8 9.6 10.4 16.3 13-5.7 8.2-4.9 11.5 2.6 9.9-6.5 12.6-37 11.5-37.5 11 .7 10.2 8.4 24.7 15 30.8-8.7 1.8-12.5-11.2-17.3-15.8 3.3 10.3 14.9 15.9 16 23-2.8-1.2-5.2-2.5-8.3-3-2.2 3.8-1.7 7 1.5 9.8-2.4-2-4.8-4-7.1-6 .4 5.8 8.3 7 0 10.2-2.5-6-22-32.5-29.8-38-4.8 4.4 11.8 24 9.1 32-1.8-.2-7-8.5-10-5.2 2 5.8 7.3 4.4 7.1 11.9-4.3-1.4-13.6-4.8-15.2-7.7 2.3-.4 20-13.2 5.1-15 .1 2.7 4.1 16.2-6.4.9 2.5-5.8 4.1-5.8 4.5 0-.9-5.9-3.5-10.8-1.2-16.4-6.7 1-22.9 26.8-10.8 31 .6-6.5-3.9-17.8 6.2-21-2.7-2.5 2.8 31.8 2.8 31 2.5-2.8 4.9-2.3 7.4 1.5-8.2-2.3-7.5 21.7-3.5 23.5-.3-3.8.9-6.3 2.3-10 5.6 3.1 4.9-.7 5.8 11 1.6.8-49.8 49.9-51 128 11.3-59.9 19-104 18.2-114-2.5-.4-5-.3-7.6.3 2.1-4.3-10.6 50-6.9 81-4.8-9.1-20-138-25.3-88 10.3-2.1 9.3-6.2 11.2-19 2 8 2.2 16 .8 24 11.5 2.9 21-5.8 31.5-6.7.6 6.5 2.6 12.6 6.1 18 2.8 1.9 14-43 7.1-47-11.4-2.1-40 8.8-46 7.2-5.1-5.8-3.3-9.3 5.2-10.5 0-.2-15-15.3-17-14.8 2.2 4.9-10.2 13-11.7 22-16 3.5 3.5-60.7 4.6-58.7-1.6-3.1-.6 7.4.4 2.9 9.3-21 35.4-4.2 52-4.7 5.6 2.1 19.8-7 20.8-10.9 3.2-11.5 12.4 5.3 14.6 5.4 11.8.3-.5-33 21.4-31-1.5-13.9 4.7-18.4 8.1-19-3.2-8.1-11-6.1-9.2-15m-4.4 44c-2.2-.4-10.4.5-10.8 4.1 7.3-.4 1.8 10 9.8 8-.7-5.6 5.3-6.5-.4-9.5 1.3.9 8.1 3.6 8.7-1.5 0-.2-12.5-11.6-7.3-1.1m12 1c.4 2.3 1.2 4.9 4.1 4-.5-2.1-2-3.5-4.1-4m-7 4c.7 3.7 10.3 15 13 15-3.1-3.3-2.8-4 .9-2.3-1.3-.3-5.6-12.8-14-12.8m11 1c.9 2.3 3.9 3.1 6.2 3-1-2.6-3.5-3.6-6.2-3m-15.9 3c-.3 6.1-4.7 8.2 1.7 13 1.6-2.8 2.6-4.4 5.2-5.9-2.2-2.4-4.5-4.8-6.9-7.1m-24.8 8.3c3.5-1.1-2.5 2.4 0 0m15 2.8c.4 10.8 10.9-3.3 0 0m21.7.8c-.6 3.1 2.9 3.4 5.1 3.1-.7-2-3.2-2.8-5.1-3.1m-44.7 7.3c1.3 5.8 1.3 7 5.8 10.9-.1-5-.5-12.4-5.8-10.9m14.9 1.1c-3.5 2.7 3.7 7.2 5 8-.3-3.2-2-5.9-5-8m-24 3.9c-.5-.2-9.2 2.1-10.7 1.9 10.5 1.4 11.2-2.4 10.7-1.9m18-2.1c-1.9 2.3-.8 5.7 1.8 6.9-.4-2.3 2.2-8.4-1.8-6.9m-79 5.5c-4 4.2-3.8 5.5.8 3.6 1.2-1.8 2.4-3.5 3.7-5.3-.5 1.6-1.4-9.6-4.5 1.7m15.3 3.3c-5.9 3.5-1.6 11.6-1.9 15-1.6-2.8-2.9-2.7-3.8.3-.8 4.3 12.2 13.5 12 18.8-3.3 3.3 9.9-11.5 7.4-4.7-5.5-1.1-6.5-7.9-5.5-12.3 3 1.7 4.7 4.3 5 7.8 3.5-.7 15.8-7.5 18.9-5.9 2.9 7-26.9-11.8-23.9-12 .7 3 1 6 .8 9.1 14.4.6-13.9-16.6-10-11.9 0-1.4 6.9-25.7 1.1-4.3m10-6.8c-.5 10 13.2 2.7 13.9 2.6-.5 1.5-12.2-1.8-13.9-2.6m20.4 3.3c-4.1 2-6.7 8.7-.3 7.9-7.1.9 9.3-8.4.3-7.9m-41 7.9c-5.2 1.2-10.3 5-10.2 10.8 12.4-6.2 8-16.7 10.2-10.8m50.7-3.3c-1 1.9 3.1 4.6 3.1 2 .8-2.5-1.4-2.1-3.1-2m-60.8 2c-4.1 1.6-5.4 4.5-4 8.8 5.8 2.3 7.4-9.9 4-8.8m98 1.2c-2.3 8-6 2-6.1 2.8-.3-.3 21.9 17 22 17-2.5-6.3-7.1-23.7-15.9-19.8m-48 .9c-8.6 4.4 18.8 5.6 10 4.9-2-4-5.3-5.6-10-4.9m27 1.8c2 2.7 3.9 5.5 5.9 8.2-1.8-2.9-3.8-5.6-5.9-8.2m-66 7.1c-6.6-3.1-2 9.8-1.7 8.8-5.3-2.1-8.2-.5-7.1 7.1 9 3 10.4-29 8.8-15.9m92 1.3c-14.8 6.1 23.8 6 0 0m-66 9.8c-6 3.9 3.6 6.6 1.7 6.8 5.1-.7 4.5-3-1.7-6.8m12 4.3c-9.3 5.3 4.8-1.2 0 0m4.9 3.5c4.4 6-19.5-2.1-22 7.1 4.4.9 34.6 10.8 31-6-3-.4-6-.8-8.9-1.1m-29 50c-.7 3.2 4.6 1 3.2 5.1 4.4-1.6 2.8-8.2-3.2-5.1m10 7c-4.6.8 4.3 10.2 3.9 9.9 2.2-5.7-3.1-19.6-3.9-9.9z"/><path d="m250 97c14.3 1.5-1.8 7.4-3.2 16.3 21-8.3-4.9-2.8 4.2 6-4.8 1.3-13 5.2-14.3 10.8 14.2-7.9-6.7 8-7.6 5.5 1.1 3 6.8 3.2 10 4-8.5 10.6-20.8 34.5-41 26 .3-1.2 15.3-23 16-24.8-3.1-1 32-20 31-24.7-6.7-4 .8-14 5.1-19.3m-22.9 41c0 1.7-2.8 5.9.6 4.8 0-1.7 2.8-5.9-.6-4.8m-3.9 10.2c-9.8 4.7-3.1 3.5 0 0m-7.1 6.8c-12 7.2 12.7-4.8 0 0z"/><path d="m216 100c5.5-3.7 6.1-2 1.9 5.3 11.2-11.5-3 11.5-3.9 6.8.8 2.5 2.4 2.9 4.8 1.1-1.1 4.2-2.3 4.5-5.7 7 1.9-3.1 1.3-4.8-2-5-.2 6.1-.2 6.5-3.1 11.3-2.5-5 .7-5.6 1-12.5-9.9 2.1-1 5.5-8.1 11-.6-1.9-.3-3.6 1.1-5.2-2.6.2-18.7 19.5-18 18-4.1 1.2-6.6-1.8-8.8-4.7 14-9.4 25-24.4 40.9-33"/><path d="m258 101c3.1-.1 6.1-.3 9.2-.4-7.6 5.5-10.7 5.6-9.2.4"/><path d="m411 99c3.1 4 7.6 5.5 13.7 4.4-1.1 6.1-19.6 5-22 .9 5.4.8 8.1-.9 8.3-5.3"/><path d="m401 106c19.4 5.9 8.7 16.8 18 33-2 .7-7.5-3.9-7.9.4.4-3.8-7.9-18-1.1-14.3-1.7-3.8-8.6-14.7-9.1-19"/><path d="m176 110c-2.6 1-2.9-4.2-.3-2.9.5.7 2 2.6.3 2.9"/><path d="m379 108c1.4-.8 4.6-.5 4.4 1.5-1.4.9-4-.1-4.4-1.5"/><path d="m253 113c15.9-4.5-5.1 4.1 7.4 1.2-3.3 7.1-5.8 6.6-7.4-1.2"/><path d="m232 121c4.4-6.9 6.4-6.3 5.8 1.9-.9-7.1-1.9-1.8-5.8-1.9"/><path d="m219 125c3.1-1.5 6.1-3.3 8.8-5.4 1.2 12.3-26.4 25-32 23.6 4.1-4.6-.9-3 7.2-2.6-2.1-3.2.3-6.2 5.2-13 .2.2 12.8 9.4 10.8-2.5"/><path d="m249 121c4.8-.3 1.8 4 2.9 7.5-4.3-1.5-3.5-3.7-2.9-7.5"/><path d="m398 123c6.7-5.1.8 3.8 6.9 0-1.5 7.6-7.2.9-6.9 0"/><path d="m162 123c4.6.8-4.4 8.6 0 0"/><path d="m420 127c3.3-3.2 8.9 9.2 9 7.4-4.2-1.2-7-3.9-9-7.4"/><path d="m430 136c4.4.2 6.6 2.9 6.5 8.2-3 2.1-5.9 1.7-8.7-1.1 1.1 6.3-3.6 3.6-1.4 11.9-.2-.1-8.7-3.8-7.6-5.8 8.5 1.7 2.3-1.8 3-8.1 3 5.5 8.7-1.4 8.2-5.1"/><path d="m331 137c1.2-.6-6.4 9.4 0 0"/><path d="m171 140c3.2-.2 6.1 2 8.2 4.1-3.2 0-6.3-1.4-8.2-4.1"/><path d="m240 143c-.4-1.5 7.9-2.3 0 0"/><path d="m145 143c4 1.2 12.8.3 15 5.1-3.7 7.6-13.3-2.2-15-5.1"/><path d="m238 143c6.1-1.3-.4 8.8-2.2 10.4 10.2.9-2.2 13-5.8 14.2-.1-7.8 9.2-13.9 8-24.6"/><path d="m163 145c7.7 8-3.7 2.3 0 0"/><path d="m361 202c1 .2 12 3.2 6.1 6.6-3.6-.7-5.7-2.9-6.1-6.6"/><path d="m391 218c-1.3-3.8-.1-6.1 3.6-6.9.4 3.8 0 6.8-3.6 6.9"/><path d="m285 223c4.7-2.9-8.4 12.7-10.3 2.2 3.5-.4 6.9-1.2 10.3-2.2"/><path d="m275 230c5.9 0 7.4-.5 5.7 5.8-2 7.5-6.4-6.3-5.7-5.8"/><path d="m284 245c.9-1.4 15 10.9 0 0"/></g></svg>