<svg xmlns="http://www.w3.org/2000/svg" width="648" height="389" viewBox="0 0 647.5 388.7" style="enable-background:new 0 0 647.5 388.7"><g><g style="fill:#33073b"><path d="m9.2 43c4.5 0 9 0 13.5 0-5.1 1.6-12.3 7.4-13.5 0"/><path d="m349 115c7.1-5.3 24.8-46 22-45-7.5 13-7.7 25.9-18 38 4.9-8.1 6.9-57.7 19-62-20-.3-15.6 51-38 62.8-13.6-40.9-34.6 7.8-46-7-1.4-1.8-20.7-24.5-20.5-24.7-.8-.5-16 18.2-40.9 12-2-.5 56-16.9 37.7-18.5-22.3-2.2-20 18.2-18.5 19 13.9 2.5 57.8 36.4 68 49 .5-1.9 1.2-3.8 1.7-4.9 2.7 1.7 2.3.2 9.6 2 0 1.2-4.6 8-6.9 10.7.6 3-.7 5.3-4.8 6.5-9.4 3-17.7-5.5-25.8-5 .3 1.4-1.4 20 1.6 19.5.9-1.1 5.3-11.3 5.4-11.2.6.1 11 23 11.6 9.4.6-.1 5.6 6.9 6.8 7.9-3.1.2-13.5 2.6-13-1.7-1.4 12.5 12.6 5.8 17.3 13.8.8-.8 9.5-7.1 9.1-6-1.1 3.3-3.3 5-6.7 5.1 1.8 2.1 3.6 4 5.6 5.9-10.5-.3-2.4 7.1-2.8 13.2 3-.2 7.7-7-.3-8.4 2-2.8 9.8-4.5 12.7-2.5 2.6 1.7-5.9 5.5-5.9 5.5 4.5 3.5-18.7 32.7-10 31.4-1.3-7.6 14.9-18.5 12.3-24.3-.8 2.7 4.3-5.8 5.9-8.8.6.1 1.7-.1 2.6-.1-2.6-5.5-5.1-9.7-6.1-12 .9-4.5 9.4-28 13.2-25.9-3.7 8.2-.4 14.2 3.5 20-.1 0-.1-.1-.2-.1s.2.1.2.2c1.8 2.7 3.8 5.3 5.2 8.1 7.8-1.6 1-4.7-3.8-7.4 1.3.4 2-.4 1.8-2.6 2.4 1.1-8.9-31-9.1-30-4.9 5.4-11 7.5-18.4 6.3 21 .5-20.7-41-13.7-27-10-3.4-.7-20.5 3.2-16.4 2 0 3.7 1.3 5.4 3.2 0-.4.2-.6.5-.8 2.6-6 7 1.6 6.1 8 4.3 3.9 10.6 5.4 21.5-5.1m-53 35.8c4.3 2.7 10.6 9.5 11.9 13-2.8-2.4-13.2-7-11.9-13m35 38.9c-1.2-1.5-4.3-4.1-2-5.7 2.7-.1 5.1 5.2 2 5.7m-3.2-29.8c1.7.1 5-1 4 2-1.7-.1-5 .9-4-2m-11.9 2.3c5.1-.7 6.8 1.6 4.9 6.8-1.3-1.9-6.6-5.4-4.9-6.8m9.9 11.7c-2.5-1.7-11.4 3.1-11-1.8 3.1 1.7 9.8-1 11 1.8m-25.6-57c-2.4 1.5-3.4-3.4-1.2-4.1.9.1 4.2 4.2 1.2 4.1m17.6-10.4c-1.3-2.1-2.9-2.4-4.9-1 .2-3.7 5.4-5 1.9-5 5-5.7 8.7-5.2 11 1.6-8.5 8.2-7.3-5-8 4.4"/><path d="m327 122c.2-.6.3-1.2.4-1.8-2.5-2.1-4.5-5-6.5-7.2-.3 2.5 5.2 8.8 6.1 9"/><path d="m317 148c.1 0 .6-.4 1.1-1.1-.5-2.3-2.1-5-4.4-7.8-.9 3.5-.8 7.6 3.3 8.9"/><path d="m315 128c-13.9 4.6 11.2 2.3 0 0"/><path d="m327 167c3.4 7.7 9.8.7 0 0"/><path d="m330 172c-9.4 5.8 15.4-2.3 0 0"/><path d="m62 55.7c6.9.2 7.4 1.8 8.4 6.3-.2-.1-8.4-5.7-8.4-6.3"/><path d="m481 55c.1-.6-90 73-88 73.9.8-5.5-21.7-26.7-18-29 .1.1 15.2 13.4 15.6 11.7 1.1-3.9-2.8-9.9 2.4-12.5 1.2 1.4 2.6 1.5 4.3.3-1.1 7.9-4 16.2-5 23.8 14.8-15.4 32-19.3 40.9-41-13.5 4.4 48.7-29.5 48-26.7"/><path d="m26.3 57c12.6 5.2-7.2 14.8-11 14 0-9.7 10.4-.4 11-14"/><path d="m18 58c13.8-2 2.2 10.5-.8 4 5.6 2.3 5.9.9.8-4"/><path d="m3.4 59c2.9-.9 10 12 9.8 14.2-8.1-3.2-11.3-7.9-9.8-14.2"/><path d="m105 107c9-6.1 9 2.1 12.2 5.2-4.3-.2-10.8-1.1-12.2-5.2"/><path d="m261 87c2.1 2.8.2 12 0 0"/><path d="m148 90c3.3-.1 6.6-.2 10-.4-.4 2.1-1.7 2.8-4 2 1.2 2.4 30.9-1.7 27.9 9.3-11.2.4-20.3-3.4-31.8-1.6-.4-6.3-1.7-5.4-2.1-9.3"/><path d="m199 94c5.2 1.2 26.7 8.4 27 15.3-7.2.4-24-15.6-31.4-10.6-.3 5.7-3.5 7.9-9.9 2.3-3.2-2.9 20-7.8 14-7"/><path d="m319 101c7.2-1.8 3.1 5.4 0 0"/><path d="m485 108c10.3 0 10.6-2.1 2.1 12.2-4.6-2.3-15.9.9-24.6 5.1 3.9 5.6 9.7 1.6 16.3 2.5-13.3 5.4-32 31.5-40 31.6-1.2 4.9 6.3 2.5.4 8.9-2.3 4.8-7.1 6.3-8.2 11.9 14.8-4.7-5.5 10.9-6.1 12.6 5.5 1.1 3.9 8.7-1.9 4.5 2.7 3.9 1.8 6.4-2.5 7.6-10.8-2.1 3.6-14.3 1.4-19 1.2 2.7-9.8-4.8-8.9-4.8-.1 1.9-7.2 22.3-8.1 13.8.4 3.7 6.2 7 1 9.1-22.4-28.6-14.4 33.7-42 43.6 0-.3 23.4-47 21.4-47.8-4-2.7-7.5 7.6-9.1 9.1-16.8-18.7 41.5-24.8 7.9-42.7 4-9.5 9.1 1.8 10.9-8.2 1 3.4 3.1 5 6.4 4.9.8-4.2-1.1-6.4-5.7-6.6 17.4-15 18.2-14.8 41.8-22.3-.7 2.6 19.8-18.5 25.8-17.8 1.2 5.4-.7 6.8-5.6 4.3 1.1 5.5 26-11.2 27.6-12.4m-49.9 38.8c-7.4 2.1-30.4 11-28.6 12.3.2.6 5.1 12.6 6.3 12.7.7.5 5.2-3.7 5.9-3.7 1.4 4-4.3 7.3 5.8 9-.2-8.6 10.5-30 10.6-30m-42.6 18.3c-.7 2.2 11.6 7 13.2 7.2-1.9 1.1-4.5 10.2-7.2 14.6 3.5-.4 14.2-7.4 14.2-11.6-1.7 1.3-9.5-4.1-9.4-5.9 2.2 1.5 3.7 1.2 4.2-1.1-.2 0-12.7-4.4-15-3.2z"/><path d="m164 159c15 5.6 21.4 5.2 28 23.6.5-.7-29.6-16.5-28-23.6"/><path d="m211 164c14.2-17.2 32.8 32.6 31 31.6-2.3 1.4-3.8 2.2-6.7 2.3-1.9-3.4-2.7-13.4 3.1-12.3-4.9-10.6-20.7-13.5-27.6-21.6"/><path d="m189 164c1.9-1.4 19.9 5.2 19.7 0 6.3 3.8-8.3 6.4 3.9 5.4-6.1 4.2-19.5 3.6-23.6-5.4"/><path d="m202 180c3.2-3.2 5.5-2.2 7.1 3.2-1.7-9.2 14.7 4.5 17.3 9.9-10.8-.8-16.4-6.3-24.4-13"/><path d="m298 179c1.2-5.1 6.9 18.6 4 8.3-3.6.4-3.5-7.3-4-8.3"/><path d="m360 193c13.2-22-3.1 24.8-3.5 24.7 3.8-3 15-11.5 16.5-10.4 2.6.3-10.2 21-10.7 23.6-1.5-2.6-1.1-12.3-5.4-11-9.9 2.8 1.1 9.4 1.9 10.6-6.8.9-10.4 10.5-11.4 16.3 2-1.1 2.5 16.9-3.9 21 .2 2.6 1.1-9.7-1.2-5.3 2.3.4-11.8 6.4-11.9 7.8 9.3-.8.9 4.4-1.8 5.3.1 1.3-12.6-29-13.8-28.8-.8.6 1.7 4 .6 7.7-9.4.7-22.8-.7-32.5.1-.8-3.8-.7-14.5-4.3-12.9 1.2 6.2 26.7-30.9 5.3-29.5 1.4-.1-9.1 9.5-6.4.4 1.8 2.3 2.8 1.8 3.2-1.5-2.6.5-10 4.5-12 3.3 2.2 1.3-14.9-9.3-5.9-9.8-2.6-5.6-9.2-2.8-8.1-10 13.2 6.9 35.4 5.5 38 25 1.5-5.6 2.4-11.2 2.8-17 8.1-2.7 1.1 26.8 0 29-.1 21 12 6.4 24.7 5.8.7-3.3 9.4 23 10.4 23.4 9.4 2 10-35 10.6-40 22.6-9.3-3.9 13.2 13-.8-11.8 2.8 5.7-27 5.6-27m-12.2 38.9c-15.4 15.5 9-1.2 0 0m-59 7.8c7.1 3.5-7.4 7 2.2 6.6 4.4-.2-2.1-6.5-2.2-6.6m26 2.4c-14.7 9.7 10.7-1.5 0 0z"/><path d="m416 186c5.1 1.9-.4 15.9-5.4 15.8 2.3-5.1 4.1-10.3 5.4-15.8"/><path d="m352 239c13.6 1.3-13.5 9 0 0"/><path d="m267 241c13.7 15.6 24.4 21.8 27 49-3.5-.6-31.4-47-27-49"/><path d="m294 264c2-2.3 4.1-4.6 6.1-6.9 2.1 3 3.1 6.3 3 9.9 7.4.7 5.1-6.7 10.9-7-.5 1.7 1.7 16.3 10.2 16.3-17.8 15-24.6-5.9-30-12.3m15.2 4.2c-1.4.7-2.1 5.1.2 3.3 2.4.1 1.8-3.5-.2-3.3z"/><path d="m323 286c-1.6-9.6 6.5 8.4 0 0"/><path d="m303 286c1.9.5 6.2-2.5 5.8.8-2 2.1-7.4 4-5.8-.8"/><path d="m343 310c-.9-9.1-7.2-36.4-4.2 4.6-2.6-1.4 3.2-57 3.7-27-.1 0 1.8 24.3.5 22.4"/><path d="m326 297c5.2-1.7-2.7 40-4.2 43.9.6-7.9 2.4-37 4.2-43.9"/><path d="m317 303c4.3-7.1 5.2 6.4 1.1 8.9-.3-3-.7-5.9-1.1-8.9"/><path d="m314 311c6.7-.2 2 7.1 0 0"/><path d="m333 316c1.3.1 3.8 9-1.1 8.9-1.3-3.5-.9-6.5 1.1-8.9"/><path d="m6.5 86c5.2 4.6 78.9 72 141 67-100-27.5-117-80-117-79 5 7.4-20-17 31.5 8.3-.3-.3 24.5-12.2 21.5 2.9 1.3-1.7 53.9 10 63 29.4 8.4-16.4-71-47.9-76-53.6 44-5.6 77 13.9 69 29.9-3.6-17-28-43 14.3-12.5-20.7-31-59-17.4-87-25 18.6-6.9 77-7.4-17.2-17.6 0 38.5-6.8 19-9.8 19-7-8.9-28-29.5 87-51.9-38 3.7-95 7.6-117 39-10.7 27.8-10.2 36.5-2.7 43"/><path d="m70 16.9c81-37.8 239 10.7 196 63-10-87-175-76-196-63"/></g><g><path d="m480 6.6c-96 16-102 46-102 46 122-65 182 1.1 106 54 59.9-41.9 47-76 3.2-89 23.7 3.5 80 36.5 52.8 57 16.7-18-38.8-66-.8-52.8 0 0 40 16 15.8 48 19.3-33.8 91-55 49-3.9 38.7-32.7 57-47 3.1 11.3 32-17.8 48.7-65.8 20 11.4 55.8-55.8-23-76-23-76-9.1-9.1-98-8.5-124-6.4" style="fill:#33073b"/></g></g></svg>