<svg xmlns="http://www.w3.org/2000/svg" width="647" height="389" viewBox="0 0 646.5 388.7" style="enable-background:new 0 0 646.5 388.7"><g style="fill:#33073b"><path d="m36.4 43c2.6 4 12 18.7 13 21.8-3.6-.3-13.9-19-13-21.8"/><path d="m595 52c5.2 2.1.3 3.9-4.3 8.7 12.3-2.1-6.1 1.6 4.3 4.5-21.9 17.4-21 11.3-27 43.8 28.6-10.7-13 3.7 11.7-1.3-1.3.3 18.5-34 18.4-33 6.5 8.8-5.6 7.8-2.1 16 1-2.3 2.6-3.1 5-2.6-.5.8-26 48.7-27.3 41.6-1-6.7 12.7-15.9 2.6-18.5 20 5.1-90 82-93 62.8-26.7 10.3-98 32-117 18.9 4.2 7.3 3.2 6.6 2.9 12.4 4.9-2.1 16.7-4.3 19.3-.7 13 .1 34-20 52.8-13.8-1.3 3.8-4 6-8.1 6.5 0 2.3 12.5.2 7 5.5-16.7-.4-5.6 14.7-17 .1-13.3 6.3.8 14.4-9.7 3.6-4 15.3-15.4 30-32 20.8 1.3-2.5 3-7.2 4.1-11.2-10.7 5.4-21.8-9.9-24.4 15-5.2-.7 5.6-31.4 6.2-29-1.6 1.3-2.3 3-2.1 5.1-2.7-.4-9.4-8.6-14-11 2.8 6.4 3 4.7 7.4 7-5.8 14.8-26.3-16.3-25 19.8-3.9 17 18.9 24.5 6.9 41 9.4.2-.8 30 1.1 28-3.2 4.5 6.5 23-15.9 26.8.4-14.9-9.6-19.4 5.2-30.7-9.6-1.4-19.9 2.5-29.5 2.9-12.3.2-3.9 10.2-11 13.3-4.3-16.2 1.6-26-.7-42-5.9 4.9 9.5-30.6 11-22.7-4.1 1.6-.5-7.9.9-8.4.6-13.3 11.2-10.8 14-17.8-21.4-3.2 8.7-11.7-.9-16.3-2 9-9.6 1.7-17.2 1.2 9.9.7-10.9 41.8-12 47-4.4-1.8 4.2-25.8 4.2-25.7.2-1.4-7-7.2-4.4-14.4-2.4.2-3.8 1.5-3.9 4-5-1.8 3.9-11.4 3.9-10.3 0-.6-13.9 6.1-18 3.4 7.6.4 9.6-2.5 6-8.8-7.2-5-69-6.9-70-6.7-3-.4-28-9.6-45-11.5 3.1 1.9 2.7 2.6-1 2.1 2.1.5 3.1 1.8 3.2 3.9-2-2.5-2.8-2.5-2.4.2-7.8 1.9-26.7-14.8-32.8-15.2 11.8 18.8-30.7-9.8.2-.9-14.9-12.8-74-26-66-60 3.4 3.4 19.3 27 24 27.8-3.4-11.4-14.2-51.8-26.3-51.6 5.3 14.9-2.9 21.8.1 38-11-9.5-16.5-25-19.5-37.7 8.1.1 13.6 24.4 18.8 24-1.2-16.9-10-28-7.2-41 7.5 2.4 28 18.4 24.3 28.8 1.8-.1 2.1-1 .8-2.9 3.6 2.1 9.6 12.7 12.9 12.2-5.1-4.6 27.8 13 34 16.4-3.9.6-4.2 2-.8 4.3-2.7.1-4.5-1.5-5.4-5 0 5.3 2.7 8 8 8.2-1.7-1.7-2.3-3.7-1.8-6.1 7.7 3.6 16.5 12.9 24.8 19-.9-10 7.2 2.3 3.9 5.6 9.9.9 21 14.3 33 19-2.9 3.1 36 7.4 45.9 10.2 3.1 1.6 66.9-3.2 67-11.8-6.2-.9-13.5.1-18-4.1 8.9-4.1 41.5-2.1 45.5 6.1-7.1-17.8 41-12.6 45.8-9.3-2.3 1.3-30 5.4-23.6 8.5 8.5 4 51 .5 51 12.6 17.6-5 35.7-9.2 51.8-11 14.3-1.7 44-31.6 52-28.7-5.8-5.3-3.5-8.7 7-10.3-2.2 5.2.9 1.6 4.8 5.3 2.9-5.1 2-7.9-2.9-8.3 4-3.4 22.3-8.8 22-8.6-5.2-1.7-.3-2.2-5.4-2.6 2.2-1.6 31.8-18.4 31.6-21.8 11.7-3.4 13.5-36.6 30-29 1.9-3.2 3.7-6.4 5.5-9.6m-21.9 18.9c-8.3 8.7 13.7-3.7 0 0m-513 7.1c-4.3 1.3.4 2.9 2.5 1.6.3-1.3-1.5-2.2-2.5-1.6m496 14.9c-1.9.7-.9 3.1.8 2.9 2-.2 1.2-4-.8-2.9m31.9 8.1c-1.2 1.9-2.2 5 .7 5.9-.3-1.6 1.1-6.2-.7-5.9m-23.3 5.9c-6.5 6.6-13.5 6.1-8.9 13.8-6.6 6.9-53 20.9-57 37 11.7-6.3 80-31.5 65.9-50.9m-484 8.8c6.2-.7 8.4 1 6.7 5.2-1.3-1.5-2.7-1.8-4.4-1 .8 6.3 23 31 34.8 27.9-12.2-7.5-5.4-22.5-24-28 .4.7.4 1.5-.1 2.2-.3-.8-15.2-16.4-12.9-6.2m443 .2c-.1 2.9 5.4 4.2 6.2 1-2.1-.1-4.2-.2-6.2-1m-2.7 3.3c-2.9 9.4 12.5-3 0 0m-393 9.5c.5 9.2 12.4.5 0 0m-8 16c.9 1.9-1 6.7 2 5.9-.4-2 1.6-6.9-2-5.9m4.2.2c-5 4.4 7.5 9.3 9.8 8.9-.9.6-1.9 1.2-2.9 1.8 4.1-1 7.7-.4 10.8 1.9 2.7-5.7-14.9-11.8-17.7-12.6m22.3 11c2.3 6.1 6.5 10.3 12.6 12.7-7-21.6-13.4-12.5-12.6-12.7m346-1.5c-3.2-.7-16.7 11.6-18.7 14.5.8-1.2 15.2-.2 13.5.6-.9-7.1 5.6-7.9 10.3-7.9 0-.3-3.5-12.4-5.1-7.2m-190 7.6c-12 6.2 11-5.9 0 0m-132 3.6c.2.3-7.3-.5-5.9 4.9 3.8.9 28.9 11.9 30.7 3.3-10.6-2.3-9.5-5.2-24.8-8.2m171 1.3c-20 23.3-65-10.9-77 9.6-14-2.2 26.4 12.6 16.7 15 5.9 1.8 11.2-6.5 20.8-3.5 2.8 6.8 24.3 3.4 23.7 3.4 5.7-.3 28 1 32.6.1 5.6-21 8.6-11.4 31.9-11.3-1-5.4-19.9.7-21.9-8.6-3.5.3-3.8 1.6-.8 3.9-8.7-1.9-15.4-9.9-25.7-8.6m127-.1c-4.4 5.7-3.2 7.6 3.7 5.8 1.7-4.3.5-6.2-3.7-5.8m-13 3c-2.1 1.9 1.9 14.9 0 0m-189 .7c-.6 1.9 1.9 4.3 3.3 2.4 2-1.8-2.2-1.9-3.3-2.4m122 .1c.4 6.5-8-2.1-10.2 1.5-.9 1.5 14.7 5.7 15 3.5.8-3.8-.7-5.4-4.8-5m-192 5.7c-3.7.6 3 6.7 5.9 2.1-.5-5.6-2.4-6.3-5.9-2.1m122-2.4c-8.2 1.3 15.4-1.3 0 0m128 1c-.6 1.3 11.2 5.8 0 0m-80 11.7c-1.7 0 3.3 2.3 6.1 3.1.9-10.4-9.5-9.3-6.1-3.1m-103-2.1c.2.3-6 4.5 4 5.1-2.3-9.1 9.8 1.5-4-5.1m121 .4c-6.2 5.3 17 1.5 22 1.6-3.6-4.5-17-.3-22-1.6m-10.9.6c.4 2.8-.7 6.5 3.5 6 2.7-3.2-.3-5.6-3.5-6m56.8 11c7.4 8.5-5.4.1 0 0m-139 5c1.7 5.6 3.6 11.4 2.2 16 6.6-.6 2.4-16.3-2.2-16m26 1c6.6 7.7 5.4-.3 0 0m2.9 10.3c-3.7 1.6 7.9 2.7 6.1-.9-1-2-9.9-6.2-6.1.9m73-4.1c0 1.7 1.5 7.2 3.6 7.9-.2-.7.5-10.6-3.6-7.9m-2.1 1.1c-6.8 1.1-1 9.7-.5 5.5.2-2.2 1.5-6.1.5-5.5m-73.9 7c-11.4 1.6 28 7.5 9.8 3.4-2.4-3.5-5.7-4.7-9.8-3.4m73.9 1c-4.1.5 2.2-1.2 0 0m-78 5.7c13 8.3-.9-8.2-1.3-5.1-4.1 3.3-3.7 5 1.3 5.1m-4.8 6.3c-2.9 1.2-3.4 6.2.7 4.6-.3-1.1.9-5.5-.7-4.6m23.5 2.4c-4.9.5-5.1 2.7-.8 6.6 4.6.6 4.5-12.9.8-6.6m-15.8 1.2c.4 1.3 8.5 6 9.9 9.3-15-9.4-14.5-4.8-20.6 3.8 2.5.5 16.3-3.2 11.8 11 .2.1 19.7-17.2 19.9-16.8-10.2-2.2-12-7.5-21-7.3m-6.7 13c.1 1.7-18.7 23-11 38.8 5.9-1.7 27.9-6.8 33-5.8-6.5 18.3 23.3-34 7-33-6.9 3.9-1.4 2.6-11.9 7.2.1 5.2 11.4-1.3 2.5 10.7-4.1-1-6.3-4.8-15.5-3-2.6-3.4 2.2-12.6-4-14.9m23.9 45c-3.2 3.6-3.6 7.9-1 12.9 6.8.2 4.7-14 1-12.9z"/><path d="m616 56c.3 5.6-.1 16.6.6 23-1.3-1.4-2.8-2.3-4.6-2.8-3.8 7.2 3.3-16.9 4-20.3"/><path d="m26 76c-.8-3-.9-6.1-.1-9.1-.1 2 4.2 10 4.7 13.4-4.5 1.7-6 .3-4.6-4.3"/><path d="m72 77c13.2 1.6-4.9 11-2.1 3.2 4.5 1.3 3.6 2.3 2.1-3.2"/><path d="m574 90c4-2.8 6-6.7 6-11.7 11.7 18.5-2 11.4-6 11.7"/><path d="m76 85c3.7-6.5 7.5.6 9.2 5-2.4 1.3-8.8-2-9.2-5"/><path d="m323 133c18-.8-.5 17.6 5.6 21.3.3-2.3 4.5-4 5.5-3-1.7 9.6-23.4 4.3-25.6 2.9 6.1-9.5.3-20.6 14.5-21"/><path d="m274 161c5.1-7.3 6.3 6.9 0 0"/><path d="m377 167c1.7.1 3.1 1.9 5.5.6 1.5 4.5-5.9 2.6-5.5-.6"/><path d="m194 189c20 12.3 55.7 10 73 6.1-.9 17.3-9.9 14.5-22 12-4.3 10.2 8.2 25.8 11.6 13.5 0 2.2.3 4.3.7 6.4 4.7-1.3 8.8-19 10.7-22.3 16.2 5-13 25-8.5 22.6-6.6.1-1.5 7.8 2.3 8.7-.3-.8-7.1 4.4-7.4 5.3-1-.8-14.5-24.3-15.4-24.5-3.7 7.1-22.8-10.7-27.5-12.6 2-1.1 2.6-2.9 2-5.3-8.4-1.2-20.8 0-19.7-10m44 14.2c-.6 1.1-.8 3.5.8 3.8 2.1-.4 1.1-4.3-.8-3.8m-5.1 4.7c-2.5 19 3.8-1.2 0 0z"/><path d="m374 219c6.3-.5-1.6 11.9 0 0"/><path d="m390 230c3 5.5-3.3 12.9-9.6 11.3 4.2-3.8 6.5-6.6 9.6-11.3"/><path d="m282 246c1.5-2.2 3.9.8 2.6 2.6-1.6 1-1.9-1.8-2.6-2.6"/><path d="m303 294c15-2.9 16.9 15.4 8.7 26.5-12.5.3-20-22.8-8.7-26.5m3.3 2.3c-1.3 7.4-2.1 5.8.8 12.3 5.7-2.4-.7-11.3-.8-12.3z"/></g></svg>