<svg xmlns="http://www.w3.org/2000/svg" width="647" height="389" viewBox="0 0 646.5 388.7" style="enable-background:new 0 0 646.5 388.7"><g style="fill:#33073b"><path d="m312 94c21.7-4.2 30 21.7 52.7 24.7 10.6.2 44.7 68 46 78-4.2.3-11.8-10.5-15-12.3.8 1.7-9.7 21-10.2 21.6-3.5-5-4.7-6.8-8.2-11 .8-2.1 17.7-49-11.6-45-.3 5.3-11.6 32-15.3 16.5-3.2 2.3 3.4 49 5.5 55-5.7.6-25.9 70-27 69-7.1 2.7-8.5-17.8-13-16.2-.2 4 4.2 3.4-1 5.6-2.2.9-.4-8.2-3.3.4-3.7 1.1-.8-11.6 1.1-13 2.7 3.6 6 6.5 9.9 8.6-.4-5.6-2-26.6-1.6-27 8.9.9 7.1-.8 17.9-.6 1.8-6.2-23.6-2.2-19.9-3.8-.2.5-.3 14.8-3.1 13.8-2.6-10.8 1.8-7.8-12-11.7 3.7 7.7 7.3-7.6 7.1 3.7-21 2.6-2.9 11-2.9 21-2.5 0-3.8-1.8-3.9-5.3 1.6 3.6 1.1 6.1-1.5 7.4-3.5-2.5-9.1-17.3-11.2-20.8.1-4.2 2.3-4.7 6.4-1.6.6-2.2-9.1-4.3-5.1-9.9 11.4 6 31-2.8 47 2.1.3-4.9 5.9-48.7-7.6-37.9.6-2.8 2.8-10.3-1.2-12 6.2-.8 8.9 2.2 8 9 15-.4 3.9-56 26-58-5.4-23.3-26.9-9.4-36.4-38-21.7-11-27.8 48-50.6 27.9 3.5 3.2-2.2 30.4-2.2 35.6-3.1-3.9-4.6-8.3-4.4-13.3.3.4-9.5 13.8-15.3 10 .6 5.9-38 55-35.8 60-13.5-27 53.9-89 57.9-106-3.2 1.7-5.5 4.2-7 7.5 21.7 0 28.7-20 41-33.8m24.8 20.8c-1.5.8-1.5 2.9 0 3.7 2.3.3 2.3-4 0-3.7m23.7 7.8c1.1 2.4 3.6 3.8 6.2 4.1-1.1-2.3-3.6-3.8-6.2-4.1m-76 7.7c-13.3 5.1 12-1.5 0 0m-26 21.4c1.1.8 2.8 9.4 5.6 3.7-.9 1.9-1.6-13.8-1.6-11.8-3.5 1.6-4.8 4.3-4 8.1m112-5.1c.6.7 7.4 11.3 8.4 10.3 2.6-2.1-6.7-10.7-8.4-10.3m-113 11c-.9 0-5.4 9.7-1.2 8.1 5.4.6.4-10 1.2-8.1m78 93c-.4.5-15 21.3-2.5 17.6-.3 1.9 3.3-22 2.5-17.6z"/><path d="m277 162c11.6 11-.5 5.8 0 0"/><path d="m284 171c4.4-3 2.1 7.3 1.8 8.2-2.9-1.9-3.4-4.7-1.8-8.2"/><path d="m324 174c2.2 1.1 23.3 1.6.8 2.1.5 4.5-.9 3-.8-2.1"/><path d="m365 174c1.8 1.6 10.6 5.8 5.9 10-4.6-2.2-5.3-5.2-5.9-10"/><path d="m295 181c.2-1.3 1.4-5.1 3-3.4-.9 1.2-.9 5-3 3.4"/><path d="m320 177c-2 .2 12 20 11 22-8.3-2.6-14.6-13.3-11-22"/><path d="m335 180c3.1-2.8 5.5 9.1 1.1 8.7-.4-2.9-.8-5.8-1.1-8.7"/><path d="m279 191c-1.8-4.2-1.1-7.8 2.2-10.8-.3.6 10 26.7 2 25.9-3.9-3.8-1.2-12.6-4.2-15"/><path d="m242 200c4.7-7.8 14.7-5 18.6 1.9-1.2 8.6-10-5-10.2-5.1-6.5 3.5-14.7 34.8-22.7 35-.3-14.4 8-20 14.3-32"/><path d="m295 195c7.4-2.3 2.8 43.7-16 36 0 16-20 29.8-20.4 45.8-2.8-3.2 4.4-46 7.8-54 14 9.9 10.5-20 12.6-19 8.7 4.5-.7 7.6-2.2 10.8 6.3.5 6.3 4.9 0 13.3 8.5 2.7 7-15 11.4-19.7 2.5-.3 4 .9 4.5 3.8 2.4-5.4 2.6-11.5 2.3-17"/><path d="m273 208c-6.6-8 11.3-5.4 0 0"/><path d="m319 207c-.7-1.8-3.3-4-1.2-5.7 2.5.6 2.9 2.5 1.2 5.7"/><path d="m264 208c.7-6.9 4.7 5.8 5 7.3-2.7.2-6.1-5.1-5-7.3"/><path d="m375 209c-.4-2.6 6 1.1-1.9 7.9-1.6-3.2-.9-5.8 1.9-7.9"/><path d="m388 208c5.4-3.4 3.8 11-.9 10.6 1.8-3.2 1.3-7.1.9-10.6"/><path d="m251 217c-6.2-6.2 7.5-4.3 8.5-1.4.9 2.7-7.9 1.6-8.5 1.4"/><path d="m279 241c-3.7-2.7 18.8 2 10 2.2-2.6 10.2-15.8-6.6-10-2.2"/><path d="m270 258c1.1.6 6.8 1.9 8 1.1-.5 4.4-2.2 8.5-5 12 18.8-6.5-.8-.5 8.3-1.8-.5 3.9-3 6.7-7.4 8.5-6.7-2.6-4.7-13.7-3.9-19.9"/><path d="m285 293c3.1-1.6-4 1.2 0 0 8.6-4.4 23.5 17 14.5 22.5"/><path d="m308 340c-3.4-5.2-3.1-9.2 1-11.9.8 3.4 2.8 4.9 6.2 4.6 1.7-4.2 1-8.3.7-12.7-5.5 1.3-.6 6.8-4.4 11.2-8.5-16.4-9.8-23-.9-36m0 .1c5.9 9.9 14.9 44.8 16.6 44.8-1.7-3.2-1.6-6.2.1-8.9m-17.8-24.9c-.7 2.8-.5 13.8 1.8 13.8 15-.5-3.4-19.7-1.8-13.8m4.7 28.8c.1 1.7-1 5 2 4-.1-1.8 1-5-2-4z"/><path d="m325 326c-2-8.8 5.1.2 0 0"/><path d="m332 328c2.8.8 2.5 8.2-1.2 7-.1-2.5.3-4.8 1.2-7"/></g></svg>