<svg xmlns="http://www.w3.org/2000/svg" width="647" height="389" viewBox="0 0 646.5 388.7" style="enable-background:new 0 0 646.5 388.7"><g style="fill:#33073b"><path d="m37 43c7.2 3.6 8.4-3.4 8.3 6.1 4.5-1.6 5.1-3.6 1.9-6.1 5.6 1.8 9.9-1.1 15.5 2-3.7 1.8-7.5 3.4-11.4 4.7 9 2.2 17.2 4.6 25.3 9-8.7.6-31.7-12.2-32-2.8-9.7-2.3-3.5-9.5-7.4-12.9"/><path d="m66 43c22.6 9.8 50-1.2 76 0-6.4 3.3-9.6 3.4-13.8 8.2-.5-6-18.2-1.8-23.5.5-3.5 1.9 55-5.9 56-1.9-3.6 1.7-47.7 14.8-48 17.7 4.9.1 14.9 3.4 19.4 1.9-.1 1.2-.2 2.5-.4 3.7-13.6.1 5.2 3.6-8 1 6 12.4-.8-.6-4 7.8 9.3.7 21.3-2.7 30-6.7.2 5.6-24.7 10.3-22 16.9-.1-.2 18.6.8 21 1.9-.5 4.5-4.4 6.4-11.5 5.5-.3.6 12.2 0 12.8 5.2-1.2-.2-11.3 4.4-10.9 5.3 8.3 4.9 14.2-.6 22.5 2.3-.9 13-53-8.6-29.7-16.5-8.8-15.2-7.7 3.7-4.9-10.5-6.7-4.2-15.6-3.7-22-5.5 6.6-6.8 6.1-1.8 11.9-5.9 2.3-8.7-19 1.5-7.2-11.8 4.3-5.2-45.6-15-43.8-19m48 16c-4.3 5.4 15.9-.4 0 0z"/><path d="m250 43c19.4-1.2 27.5 30 29 48 .4-1.2 1-2.2 2-3-2.9-.3 21.8 26.5 5.2 29.8 3.2 9.5-11.5-25.5-11.4-10 7.7 1-6.6 1.7 3.4 12.9-.5-.2 9.1-1.2 11.9-.7-4.4 6.6 4.2 15.9 11.5 15.9 1.4-7.5 42-46 49-45-14.5 13.6-1.4 19.6.3 29.7-4-2-27.5 4.6-29 10.3 14.6-1.2 5.5 18.8 16.3 10.2-.5 2.7-8.8 11.7-10 11.7.5-5.6-1-5.7-.1-17.9-7.3-.3-13 9.1-17 12-3.4-1.2-3.8-3.8-1.3-7.9-4.1 13 9.8 4.3 6.8 13.5-4.7 14-55-46-51-73-1.3 1.6-11.4 8.4-14.2 7.9 3.5-10.3 22-31.9-.6-33.7-.4-5.4.1-4.9-.5-10.2m28.5 79c-.1 1.3.8 2.9 1.9 3.6 2.1-.6.1-4.8-1.9-3.6m31.8 1c-1.4 2.6-2.8 5.2-4.2 7.8 5.8 1 4.5-8.6 4.2-7.8z"/><path d="m358 43c3.8-5.6-3 9.4-5.4 9.2 2.7-5 0-5.6 5.4-9.2"/><path d="m375 43c4.9 2.3-4.1 77-18.3 84-1.5-2 10-20.5 5.9-27-5.3 3.1-1 8.2-7.5 8.2-4.4-29 17.6-46.9 19.9-65"/><path d="m441 43c24 6.5 53 16.4 78 13.8-8.1-9-28-8.1-37-13.8 19.6.1 36.6 1.1 56 1.2-9.9 5-8.2 3.2-18.9 7 1.6 8 9.6-8.6 11 8.1-10.8 5.7-18.9 6.3-29.6 2.8 1.1 10.5 22.7-4.6 20.5 9 1.7.2 8.8-7.9 11.8-4.3-28.7 28.7-70-22.7-79-2.9-.4-5.9-6.8-8.3-7.2-1-.7-4-3.1-6.6-7.1-7.9 12.3 1.3 14-3 22.9-1.4 1.3-5.8-14.5-5.1-15.6-4.7-1.3-5.8-2.5-2.4-6.3-5.9m29 9.1c-9.6 0 6.9 11.4 9.9 3.6 1.1-3-14.9.9-9.9-3.6m6 6.9c1.6 3.1 4.8 4.5 8.1 5-1.2-3.7-4.5-4.6-8.1-5m16.3 2.2c-2 3.4-11.4-.1-6 4.7 16 3.3 3.4-3.4 6-4.7m3.9 8.1c-1.9-1.3 16.7 7.9 14.8 2.9-10.6-4.5-8.5-3.7-14.8-2.9z"/><path d="m465 43c9.9 1.1 6.3.7 0 0"/><path d="m34 49c-.3-1.6-1.8-4 .1-5.1 1.9 1.7 2.3 3.7-.1 5.1"/><path d="m434 46c1.1-4.2 9.4.3 5 1.2-3.5.8-9.4 6-5-1.2"/><path d="m538 46.9c3.6-3.8 7.1.6 0 0"/><path d="m33.4 51c10.7-2.9-1.6 7.3 0 0"/><path d="m182 54c4.7-6.2 8.7-2.2 0 0"/><path d="m350 51.8c1.8 4.5 1.5 9-.9 13.5.3-4.5.6-9 .9-13.5"/><path d="m429 52c1.4-.8 3.4 1 2.6 2.5-1.3 0-5.2-.9-2.6-2.5"/><path d="m224 53c1.5-.6 11 4.6 0 0"/><path d="m418 54c2.6-.7 7.1 3.9 9.1 5.2.1 3.6-8.7-4.2-9.1-5.2"/><path d="m155 60c7.2 1.3-14.7 13.5-16.3 7 1.7-.4 16.2-6.5 16.3-7"/><path d="m430 66c.2 3.5 9-5.8 0 0"/><path d="m88 70c-2.4-10.6 22.4 3.9 17 1.6-12.2 5.2-17.9 4.7-17-1.6"/><path d="m447 69c-.9-3.1 46.9 24 48.9 24.4 1.7-3.6-5.7-4.4-7.3-5.2-.1 1.2 19.7-2.9 21.3-2.9-.7 8.6 9.5 2.7 10.2 9-7.1 1.2-14.2 2.7-21 4.2 6.6 5.4 10.5 5.9 18.7 3.7 4.1 5.4-3 3.1 5.3 10-10.6-.6-21-1.3-31.7-2 9.5 7.2-4.8-1.6 2.9 4-9.7 2.9-12.3 2.7-20.5-5.1 5.3-1.5 15.9-1.7 18.2-7.7 0 0-5.6-2.1-15-5 0-3.4-1.2-13.2-3.8-14.3-4.1 1-4.7 3.3-1.9 6.8-3.9-.7-19-.9-4.1-1.7.9 1.7-17.9-10-16.9-13.9 1.2.6 2.5.9 3.9 1-1.2-3.2-3.5-5-7-5.3m15.7 11.3c1.4 1.7 3 3.3 5.1 4.1-.2-2.3-2.5-4.5-5.1-4.1m16 12c3.8.3 6.3 3.4 10 3.1.5 1-11.5-11-10-3.1z"/><path d="m395 68c4.4 3.1 7.5 3.3 8 9.2-3.6-3-7.9-4.8-8-9.2"/><path d="m76 70.9c3.2-3 9.5-1.3 11.4.3-3.8-.1-7.6-.2-11.4-.3"/><path d="m161 69c-3.4.7.4 7.9-9.1 5.9 3-2 6-4 9.1-5.9"/><path d="m203 68.9c6.8 6.3.2 3 0 0"/><path d="m183 70c2.3-.3 3.8 5.4.2 3.5.2-1.2-.6-2.3-.2-3.5"/><path d="m197 71c6.9-9.7-2.1 11.2 0 0"/><path d="m243 72c1.3-.3 2.7-.2 3.9.4-.4 2.3-5.3 2.3-3.9-.4"/><path d="m536 76c6.5.3 12.8-.4 19-2.1 3.7 4.9-17.8 17.8-20.8 18.4-.6-5.9 4.4-8.8 9-11.6 2.3-2.2-7.7-3-7.3-4.7"/><path d="m235 78c9.4-2.7 2.3-1.2 3.8 8.6-6.2-4.5-5.1-3.5-3.8-8.6"/><path d="m434 76c.2 0 19 11.9 16.9 9.4 4.2 4.8-14.7 3.7-18-2 .9 1 1.2-9.2 1.2-7.4"/><path d="m505 82c4.9-4.8 8-4 9.4 2.4-8.7 1.7-2.9 1.3-9.4-2.4"/><path d="m427 81c.4-.2 9.7 13.6 15.9 15-.6 2.2-4.5 1.3-4.1 3.2 8.8 1 13.3 13 24 13.5-.5 5-34-19.9-40-16.8-.7-.7 3.8-14.5 4.2-15"/><path d="m98 87c7.5-8.2 7.1-.2 11.5 4.1-4.5.4-8.4-1-11.5-4.1"/><path d="m241 84c5.6-2.2-1.6 11.4-7.2 8.9.1-1.8 5.5-6.9 7.2-8.9"/><path d="m196 90c6.5-5.4 8-5.5 4.4-.2-2.1 4.9-9.4 6.1-13.2 5.2-.1.3 8.1-4.6 8.8-5"/><path d="m385 89c5.7-8 16.7 13.2 27 10.5-2.3 6.1-8.4 14.3-17.5 14-2.5-12.3 9.8.7 12.3-11.2-6.2-3.9-15.4-10.3-22-13.4"/><path d="m205 93c4.6-1.7 5.7-5.8 10.8-2.5-5.4 4.7-3 3-6.2 10.2-2.2-1.6-3.9-4.7-4.6-7.7"/><path d="m399 88c4 1 5.3 12.9 0 0"/><path d="m242 96c3.6-2.2 7.2-4.5 10.8-6.7 5.9 12-24 11.3-10.8 6.7"/><path d="m448 89c.5.3 10.8 3.3 4.1 4.4-4.3 1.7-5.7.2-4.1-4.4"/><path d="m410 92c9.6 3.3-.7 2.1 0 0"/><path d="m525 91c7.6 3.8-.6 1.3 0 0"/><path d="m587 95c17-7-10.6 14.8-11.3 13.2-12.3 6.5-30 5.8-46 3.5 3.1-1.4 29.5-14.6 28-8.7-3.5-1.1-7.8 3.7-11 4.1-1.2 4.4 36-10 40.5-12"/><path d="m386 95c3 1.7 7.4 3.7 5.2 7.3-3.5-1.1-5.3-3.6-5.2-7.3"/><path d="m557 96c13.6-1.2 2.1.7 0 0"/><path d="m186 96c4.5-8.2-6.8 17.6-7.8 14.4-1.8-.5-3.7-1-5.6-1.5 4.5-4.3 8.9-8.6 13.4-12.9"/><path d="m454 96c6.8.4 3.7 6 0 0"/><path d="m416 98c3-.3 26.8 18.2 26 21-8.4-6-22-11-26-21"/><path d="m461 99c2.1-3.6 14.7 5.8 15 7.7-2.9-1.5-19-5.2-15-7.7"/><path d="m527 104c-12.4.8 7 1.6 0 0"/><path d="m389 104c6.2.2 8.6 34 26.8 32-3.1 4.2-9.8 2.2-10 1.3-3.4-.4 26 23.7 23.3 14.3-1 2.5-9.5 14.9-9.5 15-2.8-1.8-7.5-16.3-10.6-18.6-2 2-4.4 3-7.3 3 5.7 3.4 15.9 23 9 12.2 3.3 1 14.7 14.6 19.9 19.3-.7-2.8-.6-5.6.4-8.4 24.4 11.2-25.4 15.9-15.4 3.4-17-5.3-14.4-24.7-26.9-31.9 12.2 10.5-16-2-6.1-2.1-4.6-1.6.2 9.6.3 7.7-3-.3-7.9 1.4-7.2 4.2-2.6-2.1-.8-4.5-5-1.8-.5-9.3 11.6-12 15.9-13.6-2.4-11.2 8-16.5 8.3-22.3-6.9 6.5-11.4-3.4-5.3-.2 7.8-6.9-8-3.9-6.9-3.7-1.6-6.2.5-9.4 6.3-10m1.6 31.5c5.1-2.9 8.6 12.6 11.8 12 .1-5-1.3-9.6 2.3-10.2-5.4-10.3-14-1.9-14-1.9m20.5 17.2c.1 1.2.3 4.4 2.2 3.7.3-1.5.3-4.5-2.2-3.7m-11 2c-.3 1.5-.3 4.5 2.2 3.7 0-1.2-.3-4.3-2.2-3.7z"/><path d="m399 103c1.2-.6 2.4.4 3.7.1 1.2 2.6-5.2 2.5-3.7-.1"/><path d="m227 109c-.2.2 12.6-2.1 11.7 1.5-.1 0-16.2 7.1-11.7-1.5"/><path d="m524 105c2.1-.1 8.3 0 10.3-.2-.1 4.9-8.7 2.5-10.3.2"/><path d="m162 109c8.6-3.5 10.2-2.6 5 2.9-4.2 2.2-5.6 1.9-5-2.9"/><path d="m418 109c.6 2.7 20.4 11 24 17.8-3 .2-5.8-.7-8.2-2.8 2.7 1 4.1 2.7 4.1 4.9-5.5-.8-16-6.6-18-13 1.2 1.2 2.5 1.5 4 .9-1.5-3.2-3.5-5.8-6.1-7.8m8.1 8.8c-.3 2.9 3 4.1 5.1 5.1-.2-2.4-2.6-5-5.1-5.1z"/><path d="m350 109c1.3-.1 2.7-.1 4 0 .8 3.8-5.9 4.3-4 0"/><path d="m250 112c10 .7-12.2 7.6 0 0"/><path d="m418 114c-.4.7 6.7 10.3 4.1 14.6 11.5 3.9 18 27.4 7 21.4 4.4-18.7-16.7-17.8-22-35 2.9-.2 9.8 2.8 10.9-1m-.8 7.9c-.8 3 2.1 3.8 4.1 5.1.2-2.6-2.9-3.3-4.1-5.1z"/><path d="m370 115c3-.4 6-.7 9-1.1-4.5 6.8-5 1.5-9 1.1"/><path d="m446 114c3.2-2.3 8.9 4.3 10.8 6-2.8 3.9-9.3-5-10.8-6"/><path d="m237 117c-1.5-3.9 6.5-1.9 7.8-1.6-8.6 6.5-6.2 13.3-12.9 17.2 2.3-12.3-4.4 4.4-2.4-5.3-5.9 3.9-33.5 36-34.6 35.9-.2-12 35-45.8 35.5-35.8 15.2-7-6.1-.3 6.6-10.4"/><path d="m397 115c.8-1.9 4.5-.2 6.3 0-2 .6-5.1 3-6.3 0"/><path d="m502 114c9 1.8 6 6.1.9 10.4-.3-2-1.9-8.4-.9-10.4"/><path d="m497 115c1 0 4.2 6 4.5 5.4-2.4.5-13.2 6.1-13.4 5.8 2.2 6 13 3.8 16.7 4.7.8 11-15.2 1.5-16.3 1.1 4.7 18.5-5.3-2.5-5.7-3.9-25 2.5 4.4-14 14.2-13"/><path d="m463 116c11.9.5-8.4 2.1 0 0"/><path d="m178 120c13.5-8.3-13.3 11.8-13.3 12 1.9-.4 11.9 7.6 10.2 13.3-9.7 2-6.5-10-15.8-12-2.4 3.8 3.6 8 2.7 12.9-11.2 1.9-7.9-7.6-5-15-1.1.6-14.6-.2-13.9-8.6 11.9 2.8 5.1-7.1 7.9 4.4 11.6-2.6 16.2-.4 27-6.9"/><path d="m381 118c5.3.7 6.4 2.6 3.4 5.6-.2.3-11-.8-11.6-1.9 3.8-2.2 5.6.3 8.2-3.7"/><path d="m402 118c4.3.2 5.9 2.4 4.9 6.6-4.9-1.4-5.7-3.5-4.9-6.6"/><path d="m467 118c15 3-5.6 5.5 0 0"/><path d="m243 119c5.6 3.9 12.3 18 10.9 22.3.6-1.7-9.9-2.1-10-2.2 3.6-2.4 4.4-5.1 2.5-8 4.4 1.7-14.7 13.9-14.7 13.9 15.5 5.3-12.7 35-24 44-.8-4.2-.1-8.3 2.1-12.3-5.4 3.1-7.4 9.6-16.4 3 3.9-7.6 21.6-14.5 21.4-23.9-11 6.7-14.6 15.5-29.9 11.8.8 12.8 52.6-43.8 58-48.7m-17 30.4c-1.7 1.5-3.8 3.1-3.3 5.8 2.5-.3 7.1-5.1 3.3-5.8m-5.8 2.1c-1.4 1.3-3.2 2.2-4.4 3.7 2.4 1.4 6.5-3.7 4.4-3.7m-1.1 11.9c-13.6 18.4 3.8-5.3 0 0m-9.1 4c-3.5 1.8 1.9 5.9 2.8 2-1.8.4-1.7-2.7-2.8-2m8.1 2c-1.8 2.2-3.6 4.5-5.4 6.7 7.1-6.5 8.8-8.7 5.4-6.7z"/><path d="m217 121c4.9 3.6-6.7 11.8 0 0"/><path d="m256 122c2.9-1.1 1.5 3.3 2.6 4.9-2.7 1.1-5.1-3.3-2.6-4.9"/><path d="m444 128c6.2 3.8 16.3 4.6 19.9 6.9-2.9-1-7.1 4.4-9 4.2.7-2.2 2.1-3.9 4.2-4.9-8.4 1.9-13.5-4.4-15-6.2"/><path d="m198 134c4.4-2.5 9-4.2 14-5 .6 3.5-23.9 11-12.8 14-6.9 4.2-12 4.1-15.3-.4-.4-.2 16.4-7.1 14-8.7"/><path d="m186 131c7-1.1-2 4.4-2.9 7.8.8-3.1-2.4-3.1-6.5-3.4 3.1-1.5 6.3-3 9.4-4.4"/><path d="m505 133c9.5 4 5.7-2.1 13.3 5.1-3.2 2.3-16.8 1.7-13.3-5.1"/><path d="m473 135c4.4.5 6.3 2.8 5.6 7 .4-21.9 10.4 20.3 7.7 10.7-1.3-4.7-31 11.6-31.4 27.4-3.2-5.3-4.9 2.4-5.1 5.9-14.9-20.8 12.4-42 32-35 0-.1-16-14.6-15.9-14.7 3.1 2.5 5.5 2.1 6.9-1.2"/><path d="m412 142c-.3-10.2 15.6 1.5 12 4.9-1.5 2.1-3.4 3.1-5.7 3.1-.1-7.6-2.2-10.3-6.3-8"/><path d="m456 140c7.5-2.8 6.5 1.9 6.5 6.2-2.6-1.7-4.7-3.7-6.5-6.2"/><path d="m260 144c7.7-1.7-11 5.4 0 0"/><path d="m237 147c5.8-.7 8.2-1.5 9.3-.8.1 0-19.5 57-30 38.7 12.5-6.5 24.6-31 20.9-37.9"/><path d="m375 155c-.3-1.5 3.1 5 5.2 3.1.2 8.5-26.6 22 1 31-2.8-7.4-3.4-13.7-3.9-19 2 7.2 4.7 1 6.6-.3 5.1 4.2 9.2 8.3 3.1 11.6 3.2 1.7 6.6 2.3 10.2 1.8-1.1-.7-16.2-24-15-27.9 13.9 4.5 20.8 33 33.8 42-2.5-9.1-6.8-17.2-12.9-24.3 3.1.9 16 19 18.2 14.2-3.3.4-4.3-6.7-4.1-6.2 7.9 2.9 12.8 8.9 14.8 17.9-11.5 5.5-24.3 8.4-37.7 18 5.2 1.9 5.7-8.7 6 5-14.9-8.2-13.5-3.8-25-13 3.7 4.2 4.1 8.9 1 14-2.8-1.9-17-25.3-10.3-22.7-1.5 4.9.2 7.2 5.2 6.8 2.4-6.2-2.8-7.3 8.9 2.1 9.5-17-25.5-23.8-26-32-5.5-.9-16.5 22.5-17.2 32-.6-.9-1.2-1.8-1.7-2.7 3.4-2.6 5.3-6.1 5.8-10.5-5.4 1.8-6.3 3.9-2.8 6.4-7.4.6-29.8 17.9-25.8-2.9-9.7.4-28-9.8-18.5-23.6-3.5 6-7.5 21.3-7.7 29-2.5-.7 12.2-4.8 8.5 2.1-2.1-2.4-21 25.3-20.4 7.7-10.6 11.2 4.4 12 5.4 12.4.7 1.1.9 2.3.7 3.5-4.6.4-36-8-21-14.2-3.6-2.2-15.7-3.2-17.2-2.4 3.2-4.6 7.3-8.4 12.2-11 .9-.2-4.3 17.4-3.2 10 9-4.6 15-22 24-29-2.1 5.8-17.2 31.9-15.3 31 3.3-8.1 10.9-23.7 21.6-24.7-.3 2.6-1.4 4.9-3.3 7 4.2.4 10-9.2 10-12-1-6.1-4.9 2-5.1 2.4.1-3.3-1.2-5.8-3.9-7.4 2.2 4.8.9 5.8-3.8 3.1 6.3-19.5 47 .4 69-16.3-4.3 8.3 46.7-7.6 31-12.2m-57 27.4c-.1 5.1 9 2 0 0m66-.4c-.5 2.8 3 3.7 5.1 4.1-1.2-1.7-2.6-4.2-5.1-4.1m-67 3.4c-2.2.9-1.5 4.3.7 4.8-.3-1.2.9-5.6-.7-4.8m12.7 1.7c-5.9-3.1 7.1 7.3 8.1-2-3.2-1.1-5.9-.5-8.1 2m66-2c-1.6 12.3 13.2 5 5 17 11.6-.3-2-18-5-17m-3.7 2.3c-5.2 2.5 4.1 11.5 8.8 12.8 1 6.2-7-13.9-8.8-12.8m-70 .9c-10.5 9.2 8.3-2.4 0 0m61.9 3.7c-7.3 3.1 7 11.2 11.8 11.2-1.2-1.3-12.4-12.5-11.8-11.2m-50.9.3c-.7 1.2-.7 2.3-.1 3.5 2.4.7 2.8-4.9.1-3.5m-57 5.2c.7-.6-12.5 11-2.5 9.5-.7.8 7-10.2 2.5-9.5m2.6 3.5c-.9.4-5.5 14.5.9 13 7-25 8.4-18-.9-13m35-2.7c-4.9 2.2 7.5 3.7 8.9.9-2.9-.7-5.9-1-8.9-.9m2.2 4.2c-8.3 2.2 2.8-1.5 0 0z"/><path d="m264 163c3.7-1.2 1.7 4.1 1.7 6.2-1.8-1.6-1.6-4.1-1.7-6.2"/><path d="m249 168c2-8.5 5.8 6.1 0 0"/><path d="m431 168c3.9 2.1 7.8 2.6 11.8 1.5 3.1 3-12.2 9.3-11.8-1.5"/><path d="m234 182c1-5.8 4.4-8.3 10.2-7.7-.1.1-14.7 29.6-17.9 16.4 5.3-8.9 1.4-2.3 7.7-8.7"/><path d="m251 173c3.8.6-9.6 11 0 0"/><path d="m244 178c6.5 1-11.3 25-12.8 28.5-4.7-7.4 8.7-23.8 12.8-28.5"/><path d="m358 183c5.3 7.3 9.2 1.5 10.9 16-1.5-2.8-3.8-3.9-7-3.3 5.9-3.7-4.3-7-3.9-12.7"/><path d="m351 185c6.4-.7 12 13.4 10.8 18.4-5.2-5.1-8.8-11.2-10.8-18.4"/><path d="m350 191c5.2-.3 7.7 17.9 10.2 19.4-18.5-11-15.7 14.3-10.2-19.4m-2.2 6.9c-4 4.4-2.6 5.8 4.1 4.1-1 .9-5.9 6.9-2.6 7 10.2.4-.9-10-1.5-11z"/><path d="m256 193c2.4-.3 2.8 2.6 4.1 4.1-3 .8-3.8-1.8-4.1-4.1"/><path d="m235 204c6.7-4.5-2.9 4.6 5.7 3.8 1.2 7.6-6.8 10-11.8 3.6-.4.1 5.2-6.9 6.1-7.4"/><path d="m297 204c-4.4 1.9 8-1.9 0 0"/><path d="m222 207c6.1 1.1 6.3 4.5.5 10.4-.1-3.5-.3-6.9-.5-10.4"/><path d="m335 209c.6-.5 7.9 7.8 0 0"/><path d="m227 215c-7.3-10.7 9.3 2.4 0 0"/><path d="m301 210c1.6 2.8 2.2 5.8 1.8 9 4.4.7 23.5-20.6 30.8-2.4-2.6 1.2-4.6 3-6 5.4 4.1-.1 21 10 18 12.5 3.6-2.8-5.2-9-5.9-11.8 2.5 4.4 4.4 4.6 5.6.4 4 14.3 7.3 33.5.1 29.7-4.5 8-10 68-27 88 17-110-7.7-32.5-6.9-39.5 5.2-11.2 10.5 39 7.3 35-3.1 62-17.4-63-20-62.7 1.3 5.1-7.5-15.9-7.1-28.7-1.7.4 6.4-29 9.4-35m6.9 7.1c-11.9 6.4 24.7 3.5 0 0m13 1.3c-10.2 6.5 5-1.4 0 0m-6.4 8.6c-6.6-.8-8.9-3.8-10.7 4-.2-.1 10.7-1 9.9-1-5.4 9.6 15.9 5.8 19.7-5.1-4.4 1.7-19.6.4-18.9 2.1m17.8 9.7c-8.6 4.4-26 4.8-33.6 1.6-.8 2.2-5.3 30-4 31.6 4.3 4.7 26-7.5 33-6.6-.7 2.9.3 19 7.5 17.7 2.9-14.2 11.4-47-3.1-44m-26.8 45c5.7 10-.6-.2 0 0z"/><path d="m360 217c1.5-7.1 9-.3 8.7 6.4-9 1.2-6.2-6-8.7-6.4"/><path d="m353 221c.5 1.1 4.7 9.8 4 18.3-6.5-4-2.8-12.6-4-18.3"/><path d="m358 227c7-3.8 1 3.1 2.4 3.6-.9-7-5.2 5.8-2.4-3.6"/><path d="m283 229c1.7-7.2 7.5 6.5 0 0"/><path d="m346 239c3.1-4 5.2-3.6 6.2 1.3-4.3 6.9-2.2 1.2-6.2-1.3"/><path d="m311 247c6.9-2.2 13.9-4.3 21-6.2-1.6 4.4-20.8 20.4-21 6.2"/></g></svg>