<svg xmlns="http://www.w3.org/2000/svg" width="647" height="389" viewBox="0 0 646.5 388.7" style="enable-background:new 0 0 646.5 388.7"><g style="fill:#33073b"><path d="m116 43c11-3.8 2.9 2.2 3.3 4 13.9.4 28.6 4.8 30 28-4-2.6-6.2-9.8-8.4-14 2.3.3-5.8 8.5-5.7 8.9 1.7-2.5-7.1-24.4-11-23.9 2.4 4.7.9 6.6-4.7 5.9 1.6-5 .4-5.6-3.7-1.6-.6-2.9 5-5.9.2-7.4"/><path d="m134 43c3.2.2 7-.1 9.6.8-4.7 3.1-7.9 2.9-9.6-.8"/><path d="m143 43c16.9 6.7 57.8 57 68 83-12.4-.4-37.6-36.9-45-49 4 .3 5-1.9-1.9-.4.7-2.9 3.4-13-4.7-10-2.1-4-9.1-16.4-16.3-23.7"/><path d="m480 43c4.7 0 9.4 0 14.2 0 .1 2.5-5.6 11.4-7.9 7.3 9.2 16.7-39.5 48-39 65-7.4 1.8 2.2-16.8-8 8.1 11.5 2.5 14.7-20 23.5-16-5.8 16.5-66 47.8-62 63.7 30.4 2.7 47-61 73-64 15.9 9.3-67.8 69.9-31 73-3.1 4.5-3.5 1.9-8 1.9-1.6 0 .8 10.4-17.8 0-.8 10.6 7.8 29.8-5.9 17.8 2.2 20.7 3 13.6-11 12-1 3.1 3.3 6.4-1.6 8.6.3.2-5.4-14.8-5.4-15.3 20.9-19.5-7.3 3.8 14.7 5.9-1.1-9.9-7.6-14.5-.9-24-3.7 2.3-5 1.3-4.1-3-1.9 1.4-3.5 3.1-4.6 5.2-2.4-3.2-1.7-19-3.5-23.9-5.9-.5-7.5 25.4-19.9 11.9 3.1-3.2 9.1 1.4 11.3-3.9-4.1-2.1-10.6-1.8-14.2-.5 15-5.6-12 42.8-16.7 22.9 1.4 5.7 3.5 4.8 8 4.5-1.8 2.4-6.4 6-8.9 8.1-.2-4 .4-11 .8-10.2-3.9-.3-36 3-26.4 11 2.4-6.5 1.9-.5 7.2 1.3-4 3.1-3.4 3-9 5.3 5.6-.8 8.5 1.5 8.6 6.7-.6 3-14 1-17.4 2.7-.4 1.3 16.9 4.6 15.9 4.5-1 5-2.2 3.9-6.1 7.4 6.6-1.4 13.8 15 19 12.2-.1.5-.4 21.9-5.3 13 1.6 10.7 5.7 16.2 4.1 29-.6-4.1-25 59-26.5 62 5.8 18.5 16.7-41 4.8-37-.7 2.9 2-29.6 2.9-27-8.1-3.9-13.3-3.3-15.4 1.8 31.8 17.2 3.4 84-.3 67 12.8-4.8-42-136 3.8-131-1.9-2.5-4.3-3.2-7.4-2.3 5.3-12.4 16.6-4.5 18.3-9.5 1-3.1-15.8-2.9-17-2 1.2-6.9 1 .9 6.3-8.9-4.8-1.9-12.5-6-19-7.2 4.4 6.4 5.4 13.2 3 20.6-5.3-2.5-1.7-11-6.9-16.4-.8 14.8 4.3 13.2-7.4 24.4 4.6 1.6-.2-22 .1-24.4-1.1 5.8-3.1 7.6-5.9 5.1 1.1-4.4 3.1-8.5 5.9-12.2-4.5-1.4-15 6.5-17.9-6 4.2.2 10-2.4 1.2-8-1.9 3.9-1.2 5.9-4.3 11-16.4-5.7.2-17.3.3-19.9-8.9 4.5-14-6.4-15.4-6.8-5.8-2.7-27.4-12-35.8-24 4-.4 7.3 1 9.9 4.1 2.7-5.2-10.3-13.7-12-15.2 8.4-3.7 37 23 41 23 1 0 29.9 7.7 33.4 10.8.4 8.4-16.4 1.3-18.6 1.4 7.5-3.2 8.4 12.7 8.4 12.7 7 15.2 9.2 3.1 23.9 10.2 14 6.8 55.7-5.9 59.9 1.9-3.3-22.9 24.9-15.7 24-27-13 1.2-34 1.3-45 8-3.9 1.7-14 15.2-15.5 15.3-1.9.1-33.9-29.9-35.5-21.6 5.8.6 10.8.4 16.3 1.3-4.5-7.1-16-7.5-22-8.9 1.5-.9 6.9.7 6.1-2-.9-1-2-1.1-3.2-.2 8.5-10.6 35 7.3 38.5 15.8 8.2-2.5 9-13 23.7-11.5 1.1-3.6-3.8-5.6 6-8.1.1-.4-9.1 12-4.4 13.6 12.2 3.8 47.6-17.2 53-15.6-8.2-.2-15.4 1-20-5.1 23 3.9 125-65 102-92-1.1.9-2.1 1.9-3 3 0-3.6.7-7 2.1-10.2m2 1c-1.2 3.9 2.6 3 5.1 3-1.1-1.7-3.4-2-5.1-3m-49.8 84c1.4-.6-11.2 8.1-10.2 10.5 5.5.5 20.7-11.4 10.2-10.5m-208 14.8c-3 2.3 4.3 2.5 4.6 1-1.5-.4-3.1-.7-4.6-1m1.9 2.7c-1 2.9 2.3 1.9 4 2 1-3-2.2-1.9-4-2m77 17.3c-1 2 2.4 2.3 3.7 2.3.6-1.7-2.4-3.1-3.7-2.3m118 10.8c2.8 6.9-2 5.9 8 9.9-1.7-4.5-5.3-8.5 0-8-.8-1.1-7.7-8.3-8-1.9m-103 2c-2.9 2.1 1.9 3.1 3.6 2.8 3-2.1-1.9-3.1-3.6-2.8m-44 3.8c-.1 2.7-.1 5.4 0 8.1 4.3.8 3.5-7.3 0-8.1m137 9.9c1.1 3 2.8 5.8 5 8.3-8-12.5.8-10.4-5-8.3m-125 2.4c-1 1.1-.8 4.6 1.3 3.7-.2-1.3 1.4-4.7-1.3-3.7m-.2 7.7c.6 2.4-2.6 9.3 1.7 7.9.8-2.5 2.9-8.1-1.7-7.9m29 .4c-.6 1.1-.8 3.5.8 3.8 2.1-.4 1.1-4.3-.8-3.8m4 3.8c-10.4 5.2 14-2.2 0 0m-11 28.9c.9 4.9 4.4 2.8 0 0m10 2.1c-2.8 2.4 2.2 2.9 4 3-.4-1.9-2.5-2.3-4-3m-11.2 6.7c-2.3 2.6-16.7 41-10.7 44 6.7-1.5 36-1.4 30.7-4.6 6.7 27.8 10-25.3 8.3-18.9 16.6-19.5-9.8-5.1-17.4-8.2-1.9 2.8 26.6-17.3 7.2-15 1.9.8-2.1 5.6-4 7-2-2.1-1.3-2.8 2.1-2-1-2.7-16.6-6.3-16.2-2.3m25.4 47c0 3.3-.6 11 .5 15 .3-1.9 6.4-16.6-.5-15m-27 4.9c-2.1 5.2-1.4 9.9 2 14 3.6-1.6 2.2-14.4-2-14z"/><path d="m506 43c3.8 0 7.6 0 11.4 0-8.3 6.1-5.3 9.7-14.3 14.3-2.8-5.4 6.1-3.1 2.9-14.3"/><path d="m523 43c.3 2.9 4.3 6.1-1.3 14.2-.2-.5-3.4-11.5 1.3-14.2"/><path d="m117 56c13-.3 2-.1 11.4 7.9-8.5-.6-9.3 1-11.4-7.9m4.5-1c-2.8 2 1.2 2.5 2.8 2.9.6-2.4-.2-3.8-2.8-2.9z"/><path d="m498 63c-1.6-9.3-7.7 31.5-27.7 33 1.3-8.6 23.8-33.7 27.7-33"/><path d="m157 79c4.7 2.9 7 7.1 6.9 12.5-1.5-3.7-3.2-4.4-4.8-2.2-1.5-3.2-2.2-6.7-2.1-10.3"/><path d="m166 96c3.3-1.7 38.9 28.8 39 29-13 2 2.2.9-2.5 4.3-11.7-6.9-29-22.3-36.9-33.4"/><path d="m464 103c3.4-8.4 6.3-9.8 8.6-4.1-1.3 1.7-10.3 12.5-8.6 4.1"/><path d="m165 110c4.2 5.1-12.2 7.6 0 0"/><path d="m181 123c2.4-.1 82 66 80 75-3.5-.5-5.9.9-7.5 4.2-7.2-14.4-8.3-10.5-15.7-22.9-1.8 5.2-3.3 32.4-1.6 31.9 4.3-6.1 0-16.4 9.1-15.9-3.6 10.4 1.3 17.8-3.7 29 11.2 6.1-2.7-15.9 4.7 7.2-.2-.2-5.7-5.9-5.5-1-1.7-5-2.3-10-1.7-15.3-10 4.7-8.8 6.3-6.2-19-.8.1-9.5 13.5-13.4 5.2 3.4-9 .9-2.5 3.7-16.2-.6.6-17.3 12.8-17.4 11.4-3-9.3-7.9-17-8.5-25 5.5-6.4 3 7 4.8 6.9-2.1-8.3 10-1.7 11.3-10 0 .1-12.3-10.5-12-17.2-5.1-1.4-1.8 17.5-6.8 17-1.5-6.8 1.6-7.2.9-13-13-1.2-8.3.5-18.2-7.8 13.6-.9 3-14.2 3.3-24m7.1 21.4c-5.4 1 1.5 6.2-6.2 6.8-1.8 10.3 13.4-3.1 12.7-2.4-.4.6-6.4-4.4-6.5-4.4m26.9 24.7c-.8 4-7 7.3-6.1 10.9 1.5-2.4 3.6-3.8 6.4-4.2-1.6 5-3.5 9.5-4.1 14-3.9-1.4 11-2.4 4.7-.1 5.9-10.5.9-8.4 7-11-.3-1.4-5.5-11-7.9-9.6m15.2 10.2c-2.8 5.4-3.6 14-5.2 19.8 6.9 1.5 6.9-20 5.2-19.8m3 31.6c-.2 2-1.1 3.6-2.3 5.1 2.7.4 5.9-3.8 2.3-5.1z"/><path d="m171 135c-4.7-5.4 7.7-5.1 7.2-4.9-10.3 25.5-4.2-.5-3.5 3-1.5-1.2-4.3-.3-3.7 1.9"/><path d="m315 134c11-2.2 16.2-3.7 18.3 8.1-8.3-2-3.7 3.6-2.3 9.3 3.3 1.8-22 7.7-20.8 4.1-1.9-1.4-2.7-3.2-2.2-5.5 5.3 2.4.5-9.8 7-16"/><path d="m209 135c-2.7 1.4 2.5-.2 0 0"/><path d="m378 139c1.6-.9 3.4-1.1 5-.1.1 3.9-3.3.8-5 .1"/><path d="m458 143c2.2 7.7-.6.4 0 0"/><path d="m356 146c4.6-3.7 9.1-3.5 13.5.8-4.5-.3-9-.6-13.5-.8"/><path d="m330 155c-1.3-4.2 14.3 4.5 0 0"/><path d="m439 163c1.9-.5 2.9 3.5.8 3.8-1.6-.3-1.4-2.7-.8-3.8"/><path d="m441 167c-1.1 5.8-2.1 1.5 0 0"/><path d="m387 184c8.4-2.8 4 14.8 1.1 16.5-2.9-15.6-3.6-3.5-4.2 2.9.5 0-8.3-9.4-6.7-9.1-.1.2 15.3-4 9.8-10.3"/><path d="m442 183c2.7-.9 6.6 6 0 0"/><path d="m377 188c6.1-1.5 1.2 9 0 0"/><path d="m363 195c-.1 2 10.8 14.4-4.2 18.6-2.8-5.2 6.1-11.6 4.2-18.6"/><path d="m276 197c4.2-1.6-3.3 10 0 0"/><path d="m372 209c-3.2-14.9 11.7 13.5-.7 14-2-4.7-1.7-9.4.7-14"/><path d="m284 211c6.6-2.8-1 7.3-.6 6.6-4.5 1-4.3-1.2.6-6.6"/><path d="m293 218c6.6 3.6-1.4 8.8 0 0"/><path d="m301 219c2.8-1.3 1.6 2.3 1.8 3.9-2.4.7-4.2-2.6-1.8-3.9"/><path d="m285 225c7.4 5.1-3.7 21.5-5.3 20 2.7-5 6.4-14.2 5.3-20"/><path d="m376 232c2.3-1.9 5.4-1.1 5.6 2.1-2-.1-3.9-1.1-5.6-2.1"/><path d="m252 234c.8.2 7.2 8.7 7.7 6.7-1.8 8.2-12.2-.5-7.7-6.7"/><path d="m274 238c18 1.4-13.4 17.2-5.4 2.5-4.5 2.6-2.4 5.1-7.8 5.7-7.6.8 14.4-9.9 13.2-8.2"/><path d="m307 249c1.9.3 6.2-2.8 0 0"/><path d="m314 253c-3.1 1.3-2.9-2.8 0 0"/><path d="m327 256c13.3 5.4-4.3 8.4-3.1 13.2-.5-2.2 2-10.8 3.1-13.2"/></g></svg>