<svg xmlns="http://www.w3.org/2000/svg" width="647" height="389" viewBox="0 0 646.5 388.7" style="enable-background:new 0 0 646.5 388.7"><g style="fill:#33073b"><path d="m89 87c0-2 2.4 0 0 0"/><path d="m84 43c2.8-.3 32.5-2 29 4.8-5.6.4-9.3 2.8-11 7.3-.1 11 14.7-2.7 13.4-2 3.8 2.2 5-18.8 6.3-18 116-70 139 39.5 139 39.5-95-118-155-6.5-76 12.2-70-62.9-81.9-44.8-47 10.5 22.4 35.7 11.8 22.9-22-7.1-.1-.5-5.5-18.2-2.5-17.9-6.1-.6-3.5 5.7-3.5 9.7-7 10.8-21-25-22-26.4 4 4.5-1-10.7-2.7-12.5m16.5 25c-2.2 1.7-1.9 6.4 1.8 4.8-.3-1.6 1.3-6-1.8-4.8m3.9-.2c-.1 1.7-.1 3.5 0 5.2 4.4-.3 1.7-3.5 0-5.2m9.2.6c-2.8-.3-7.9 2.8-2.3 2.8 2.8 2.3 7.4-3.4 2.3-2.8z"/><path d="m238 43c22.7 4.4 16.8 43.6 40.6 48 18.2 21.6 10 17.6 23.9 0 35.7-26.7 23.3 39.8 56-1.8 8.9-18.3 22-58.8 49.6-50.8-24.5 20-39.7 83-81 84 3 0-5.3-25-9.4-28 .4 0-18 15.6-9.5 16.4 2.5.2-.3-6.5 3.3-8 1.7 8.4 33.5 35 11.3 46 .1-.7 2.5-15.2 4-12-2.6-16.5-8.5.6-11.2-5.1 8.2 1.5 1.1 21.4 14.2 22.7.9 5.1-1.5 8.2-7.3 9.1-7.3 0-3.8-35.5-19.6-37-1.8-3-.5-3.7 4.1-2.1.1 1.9-47-26.8-53-41-6.7-15.2-16.5-25.6-16.2-40m75 68c-.2 5 5.2.6 0 0m-7.1 3.5c-6.7-1.2 9.5 13.5 12.8 3.2-1.1-1-18.5-7.4-12.8-3.2m12 7.1c-.1 1.3-.1 2.7 0 4 2.8.6 4-6.1 0-4"/><path d="m498 43c8.7 3.8.4 2 0 0"/><path d="m433 11.6c-55 6.9-55 41-55 41 122-65 153 22.8 106 54 86-56.7 63.8-104-50.9-95"/><path d="m201 57c5.3.5-.8-.3 0 0"/><path d="m417 61c5.1 1.7-4.2 8.3-5.2 9-.6-1.4-1.6-2.5-2.8-3.4 1.5-.4 7.8-3.9 8-5.6"/><path d="m453 67c5.7.1-.5 5.7-1.1 7.7-3.5-2.8 2.6-6.5 1.1-7.7"/><path d="m480 71c12.8 1.5-9.9 12.4-10.8 15.4-.3 1-15.3 7.4-19.6 15.9 1.4-4.1 30.5-27.7 30.4-31"/><path d="m375 81.9c.3 2.9-1 7.4 0 0"/><path d="m195 96c0 1.2-1.9 1.8 0 0"/><path d="m436 100c16.3-1.2-5.6 7.2-10.2 3.8 3.3-2 7.9-.6 10.2-3.8"/><path d="m415 109c5.7-2.3 8-4.2 8.9 1.2-1.5.5-33 28.5-24 28.8 11 .4 27-16.5 35.5-19 .5 3.5-57 49-28.8 46-.4 8.8 2.3 19.3-6.8 30-2.1-5.2-1.9-23.8-8.4-25.3-24.8-5.8-19.8 1.5-28.8 22.4-1.3.2-2.5.3-3.8.5-.1.3.5-6.2.5-6.2-5.6 9.5-13.6 29-13.6 44.6 1.6-2.9 3-5.9 4.2-9 .4-.4 4.2 27 3.3 34-9-3.2-3-8.9-4.1-10.5-6.6-9.9-5.1 21.9-3.4 19.4-3.1-3.1-8.7-1.6-10.8 1.6-4 6.3 13.4.4 10.5-.6 1.1 1.9-5.1 23-6.7 22.9-1.5-25-31.4-12.7-28.4-31-5.6 8.6-5.1 14.2-6 26.4-4.5-3.2-4.2-16.7-4.2-21.5-6.2-2.9-7.1 15.7-14.8.8 5.6-13.4 6.2-9.3 8.5-26.6 2.5 4.5 43 .7 42.6.8 5.9-.7-.4-45 5.5-44 1 3.2-1 8.9 3.3 10.6-.2-.1 3.9-10.6 3.8-10.6 4.2 4-11.7-1.1-6.6-.2 10.4-13 27.3-22.6 37-35-4.2-.9-7.5-3-10-6.4 4.5 2.9 5.5 2.2 3-2 17.4 3.2 3.4 7.6 23.3 18-2.2-15.4-15-9.1-6.5-27.3 3.9-17.6 11.3-25.6 25.9-32.8m-39 45c-.2 2.8 3 3.7 5.2 4.1-1-2.1-3.4-2.9-5.2-4.1m24.3 21.4c.5 4.9 5.4-.1 0 0m-54.9 57.8c-.9 1.1-.4 3.1.9 3.6 1.9-.3 1.2-4.8-.9-3.6m-10 6.6c1.1 6.2-12.4 12.2-6.2 22.4 4.2 7.1 14.8-16.7 6.2-22.4m-26.9 2.6c-1.8 6.1-1.1 13 8.8 22 1.5 1.4 8.6-18.3 10-22.4-1.8 5-8.2-5-8.7 6.9-2.9.3-5.9-6.6-10.2-6.7m35 .8c.6 5.2 5-.2 0 0m-44.5 14.4c1.7 1.7 4.8-1.9 2.2-2.7-4.6-1.9-6.3 5.8-2.2 2.7m4.3-.6c-3.7 4 5.5.6 0 0"/><path d="m443 110c4.7-.7 4.1 1.9-1.8 7.6.3-2.8-1-3.4-3.7-1.8.2-3.7 2-5.6 5.5-5.8"/><path d="m187 115c-4.3.9 11.5-4.3 12 10.3-3.2 2.1-11.8-10.3-12-10.3"/><path d="m260 173c6.6 7.2 12.2 4.7 18.2 9.8-11.9 1.5-16.5 8.2-18.2-9.8"/><path d="m376 203c4-8.2 9.8-14.6 17.6-19 .4 1.6.8 3.1 1 4.7.2-1.3-17.8 14.5-18.6 14.5"/><path d="m277 187c4.1 1.7 8.4 8.5 6 13.2-4.9-3.3-5.7-7.6-6-13.2"/><path d="m362 201c4-1.9 2 10.2-1.3 11.7-.1-3.4-2-9 1.3-11.7"/><path d="m292 210c6.2-4 15-18.5 3.2 15.8-1-5.3-2.1-10.6-3.2-15.8"/><path d="m360 220c3.6-12.4-1.2 33.8 1.8 12.5-13.5-4.8-.6-6.3-1.8-12.5"/><path d="m294 237c.3-3.2 1-6.3 1.6-9.4-.4 3.1.9 7-1.6 9.4"/><path d="m357 263c-4.3-3.7 4.7-3.9 5.3-4 3 6.8-5.1 6.4-3.6 12.2-12.4-5.1 3.5-3.9-1.7-8.2"/><path d="m327 283c7.8-.3-.7 37-.7 37 .1-2.2-.2-4.3-.8-6.3.8 2.5.3 4.7-1.5 6.5 2.1-6.4 0-8.4-6.2-6.2 8.6-11.6 9.2-16.2 9.2-31"/><path d="m320 287c2.1-4.7 3.4 7.3 2.2 10.4-.7-3.4-1.5-6.9-2.2-10.4"/><path d="m339 300c4.9-7.1 3.8.6 3.2 3.9-3.3 3.3-4.4 2-3.2-3.9"/><path d="m325 300l.7-.4c3.8 2.4-1.8 4.9-.7.4"/><path d="m308 295c2.4-14.5 5.4 11.2-.1 14.7-4.2-3.4-4.2-8.4.1-14.7"/></g></svg>