<svg xmlns="http://www.w3.org/2000/svg" width="647" height="389" viewBox="0 0 646.5 388.7" style="enable-background:new 0 0 646.5 388.7"><g style="fill:#33073b"><path d="m97 43c14.5 0 28.9 0 43 0-3.3 5.2-20.6 3-26.3 2.9 11.3 17 47.6-11.7 50.7 2.1-3.8 2.8-18.6 4.9-9.7 5-1.1 3.2-30.7 5.2-26 9.1-2.8-.4-10-4.9-11.2 1.7 15.2.6 36-6.9 43 .3-9.8 2.6-19.9 6-32.9 6-.2 4 1.4 5 4.9 3-2.3 3-5.3 4.9-9 5.8 14.3-3.3 21.9-3.3 38-9.8-1.2 4.7-24.8 15.5-28 16.9 3.2 8.8 19.9 3.5 23 2.7-2.6 5.6-7.1 6.4-12.8 7.2 2.2 3 5.1 5.2 8.6 6.6-3.7 1.4-7.3 2.9-10.9 4.5 13 18.6 58-24.8 61.8-19.6-13.6 14.9-79 45.7-82 7.6 18.9-6-14-17.9-11.9-34.9 3.3-.1 6-1.2 8.4-3.5-1.3-1.5-18.7-12.5-21.3-13.6m31.4 11.4c-3.2.2-6.3.4-9.5.7 3.4 4.4 8.8-.3 9.5-.7m-2.2 26.9c-.9 2 2.4 2.3 3.7 2.3.6-1.7-2.4-3.1-3.7-2.3m5.1 9.8c-4.1 9.4 9.6-2.6 0 0m4.7 9.8c-3.9-.2 4.8 2.4 6.8 2.2 2.9-.3-6.3-4.1-6.8-2.2z"/><path d="m218 43c8.5 2.5 0 1.1 0 0"/><path d="m247 43c10.4 1.3 43.8 43.6 30 53-3.5 0-2.3-3.5-3.8-3.7-.2 1.5-.9 2.3-2.2 2.5-2.3 1.1 4.4 7.8 3.1 8 1.1.3 9.8-4.1 10-8 7.5-2.3-4.8 12.4-4.4 10.9 29.7-3.5-3.3 32 22 34 16.9-16.2 10.5-25.9 41-27-.3 16-1.8-2.3 11.2 15.9-.3-.1-13.4 7.8-12.6 7.3-4.4-2.9-16.7-10.3-22.7-10.2 9 5 4.8 7.5 4.1 18.9-4.1.6-7.4-.6-10-3.9.5 3.8 3.3 18.5-2.1 17.7-15.6 3.6-50-51-52-60.9-.6-3.3 9.9-.5 4.1-14.5-3.4 1.4-11 6.5-11.6 9.2 3.1-5 .3-8.6 12.6-11.7-.3.8-1.9-6.9-1.8-6.6-1.4 3.9-4 3.5-7.7-1.4.2-3 1.4-5.6 3.4-7.8.4 4 2.4 6.7 6.1 8.2-2.4-4.5-15.5-24-17-30m28 72c0 0 3.3 10 3.2 11.8.9.2 10.4 1.5 11.6-1.5 3.2-8-14-9.3-14.8-10.3m33 18c2.1 3.3 2.9-7.1 2.9-7.3-2.9 1.6-3.9 4-2.9 7.3m-3 12.8c-.3 7.9 13.8-1 0 0z"/><path d="m353 43c9.6 3.3.6 3.7 0 0"/><path d="m377 43c7.7 5.4-14 96-24.7 92 4.7-8.6 9.5-10.9 11-21.5-11.9 7.3 12.4-13.3-9.7 4.2-3.2-3-.7-10.4 2.9-8.8-2.6-2.6-1.9-4.7 2.2-6.3-17.3 5.2 10-48 12.8-48-1.6 3-1.3 3.9 1 2.8.7-11.2-1.3-5.3 4.2-6.8-3-3-2.9-5.7.2-8m-12 47.9c-1.7 3.5-2.5 7.2-2.3 11 .6.2 6.3-9.4 2.3-11m-3.2 15c.5 2.3-.2 4.8 1 7 2.9-1.1 1.6-5.9-1-7z"/><path d="m433 43c1.9 2 6.7.4 7.9 4.8-3.6-.6-11.4 2.5-7.9-4.8"/><path d="m439 43c3.5 0 7 0 10.5 0-.1 2.5-.7 4.8-2 7-2.1-5.3-4.5-4-8.5-7"/><path d="m486 43c13.4 0 26.7 0 40 0-.1 3.2-1.7 3.7-1.2 13.5-11 1.3-7.8 3.6-12.6 7.7-.7-6.1-8.9-3.5-15.3-5.2 1.2 6.5 18.7 3.4 17 10-17.7 3.5-47-11.2-58.8-5.9-1.3-1.1-2.7-2.1-4.1-3.2 8.5-9.9 3.9-7.6 5.7-12.8 20.6 2.6 40.9 5.2 61 6.8-5.3-2.9-32-6.1-32-10.9m-25 10c4.2-1.1 5.4-3 9.1.2-1.9 1-2.9 2.6-3 4.7-.4-.1 9.6-2.2 8.9-5.7-3.3-.8-13.3-4.6-15 .8m29 .3c-1.6 2.6 4.5 4.2 3.7 1.1-1.5.7-2.4-1.1-3.7-1.1m-16.2 3c-1.2 4.6 9.3 8.7 12 6.7-3.1-1.4-3.9-3.4-2.5-6-3.1 1.8-6.3 1.6-9.5-.7m13 4.9c-2.2 5.9 15.5 7.6 18 7.8-2.3-6.7-21-6.1-18-7.8z"/><path d="m405 47c4.4.8 26 12.7 25 18-5.9-2-23.8-9.2-25-18"/><path d="m358 50c.3-.2-10.2 6.2 0 0"/><path d="m388 51c16.3-3.1-3.6 9.4 0 0"/><path d="m186 53c6-8.6 1.9 10.9 0 0"/><path d="m425 52c3.5.3 6.5 1.6 9.1 3.9-5.1-1.9-.8 2.6-2.1 2-6.2 1.6-8.6-.3-7-5.9"/><path d="m247 54c7.5-2.4 7.2 4.3 7.9 8.9-6.4-3.7-1.9-1.2-7.9-8.9"/><path d="m441 54c2.6 2.5 5.6 4.2 9.1 5.2-5.5-.4-8.6.6-9.1-5.2"/><path d="m272 55c3.8 1.5 5.1 4.2 3.9 8.2-1.1-1.5-2.8-7.4-3.9-8.2"/><path d="m348 62.8c3.5-7.6-6 17.7 2.8 19.7-.5 1.7-15.9 5.1-2.8-19.7"/><path d="m165 64c11.2-.4-8.1 0 0 0"/><path d="m214 63c-6.3 1.3.3 9.6 0 0"/><path d="m416 68c7.3-9.5-5.1 4.9 0 0"/><path d="m444 69.8c.3-.8 65 16.2 66 16.2-2.1-1.7 7.3 10.9 7.7 10.5-16.7-2.7-22.5 11-34 12.2-.4 1.3 38.8-3.9 47.9-2.5.1 4.9-8.8 0-12 3.9 4-2.4-.7 6.5-.9 8.1-7.3-11.4.1-2.2-2.1-9.1-4-1-7.6-.4-10.9 1.9-.8-.6 13.6 20.7 13.9 22-3.6 0-39-13.4-37-11 3.1-1 5.9-2.6 8.2-4.8-8.4-.1-11.7-7.4-18.2-11-.4-.1 18.7-1.6 19.8-5.5.9-3.2-10.2-5.7-10.7-5.6-1.2-3.2 1.2-10.9-14.2-11.9 2.2-2 1.6-3.1-1.9-3.1.2 4.4 9.2 7.6 11.3 12-5.2-4.7-7-4.9-5.4-.7-9.3-1.3-13.2-15-24.8-14.2-.6-7.9 8.4-2 10-2.1-3.4-4.4-7.5-6.2-12.4-5.3m13.4 5.6c-.8 2 2.1 3.4 3.7 3.3.4-1.7-2.4-2.9-3.7-3.3m29.7 12.7c1.6 1.7 3.7 3.4 6.2 3.1-1-2.7-3.5-3.7-6.2-3.1m15.4 24c-1.3 1-2.5 2.9-2.1 4.5 1.6.1 3.7-3.8 2.1-4.5m-8 .9c.1 7.1-1.5.5 0 0z"/><path d="m524 70c2.9-1.1 5.8-2.2 8.7-3.3-.4 24-22 0-8.7 3.3"/><path d="m406 68c6.3-.1 9 2.3 7.9 7.2-6.5-4.1-4.6-4.8-7.9-7.2"/><path d="m538 69.9c-1.8 1.4-5.7-.4-2.8-2.3 1.3.1 2.1 1.3 2.8 2.3"/><path d="m97 69c3.5 1.1 11.5 2.3 12.2 6.7-10.3 4.2-14.4 2-12.2-6.7"/><path d="m183 72c15.7-1.3-7.5.9 0 0"/><path d="m174 73c2.1-.2 4.3.1 6.4-.3-.2 4.1-4.5 1.6-6.4.3"/><path d="m405 72c11.7 7.1.1 2.7 0 0"/><path d="m199 73c1.7 3.8-.5 4.5 0 0"/><path d="m399 74c-.9 0 14.3 3.2 7.9 5.9-3.7-.5-6.3-2.5-7.9-5.9"/><path d="m522 78c12.2-2.3 39-4.9 35.8 3.6-14.7 7.6-24.5 12.8-39.9 19.3-1.1-7.7 26.4-19.3 28-20.7-2.4-.3-23.9-2.1-23.9-2.2"/><path d="m110 76c4.9 2.3 15 11.4 14 12.2-8.2-1.4-8.8-4.2-14-3.2-.1-3-.1-6-.1-9"/><path d="m233 81c2.7-2.3 5.8-3.9 9.2-4.9-7.4 10-5.8 4.4-4.3 13.2.4-.4-6.6 5.6-10.9 5.8-.1-1.5 8.3-14.5 6-14"/><path d="m504 79c-2.2-1.4 6.8-.9 8-.8.3 5.2-6.7.7-8 .8"/><path d="m433 84c1-2.9 2.9-4.8 5.8-5.8 5.2 1-8.9 12.4 4 2-.9 3.2 2.6 9.8 3.7 6.7 4.1-6.5-8.5 4.1 6.3-3.8 3.6 13.4-16.3 3.7-19.8.9"/><path d="m491 81c6.5-4.6 7.2-3.5 6.8 1.7-3.5 1.7-6.3-1.7-6.8-1.7"/><path d="m402 80c1.4.5 3.4.8 2.9 2.8-2.6.8-5.8-.2-2.9-2.8"/><path d="m239 90c2.5-3.9 5.9-5.4 10.3-4.4-.1 2-12.8 10.7-14.9 11-.1-3 .2-8.7 4.6-6.6"/><path d="m425 85c6.7 1.6 10.5 5.8 11.3 12.7-2.7-2.5 28.8 13.8 20 17.2-2.3-2.6-17.5-16.6-27-21 .4 2.3-6.7 4.5-11.3 1.4 7.6-.7 9.8-4.8 7-10.2"/><path d="m158 87c7-.2 1.2 5.1 0 0"/><path d="m213 87c-2.7 4.9 1.6 9.2-6 12.8.6.4-1.4-8.5-2.9-4.5 2.1-.6 8.4-6.2 8.9-8.3"/><path d="m385 88c33 1.3 25.9 32 15.7 40-3.6 2.8 12.5 8.6 13.6 8.9-1.6-.9-2-2.1-1-3.4 5.1 1 14.8 8.9 21.9 10.6-22.8-18.9-18.7-17.8-18-36 7 2.6 46.7 29.8 44.7 19.7 5.2-2.2 1 19.4-.1 20.9-7.6-3.3-3.8-9.7-3.7-12.7-.2.9-19-8.8-20-9.1 1.2 4.3 11.8 10.9 15 13-2.5-.2-33.4-20.4-33.8-16.6.1-2.3 1.3-3.2 3.7-2.6.3.4-8.5-4.6-8.7-4.5-4.1 8.7 24.8 25.9 27.6 25.3.8 16.3-11.2 16.6-11.8 29-3.7-.7-7.5-.2-11.2.2-5.7.6 10.3 13.7 13 14-3.3-1.5-3.9-3.8-2-6.8 1.3-.1 2.7-.3 4-.4-2.2 5.9-.3 8.2 5.8 6.8-1.6.1-.8 4.5-2.2 6.3-5.2-1.2-26.9-13-29-11.8 1.8 5 9.6 15.5 15 16-2.2-2.4-3.5-5.1-4-8.1 7.7-2.5 20.8 32-6.1 16 4 17.3-33.9 23.9-42.9-2.1 1.9 6.4 5.6 8.4 11 6-1.4-2.8-15.9-21.3-20.6-22.7 2.1.6 5.7 21 6.7 23.8 3.8 1-22.4-28.6-22-21.9-2.2 9.2 16.3 16.8 9.9 24.8-6.4 1-6.8-18-11.7-21.8-7.6 15.8-10.2 23-28 24 1 2.2 15.3 3.7 17 3.1-4.8 2.4-7 5.6-6.8 9.8 18.4-3.1 4.3 5.4 14 5.1-4.9-14.2 8.5 8 11 9.1 2.6-.4 6.8-11.6 8.8-10.3-4.2 17.2-31 123-50 128 .2-4 11.7-80 7.3-82-.6 4.1 10.7 86 7.2 83-.2 5.1-6.4-66-6.9-57-1.5 22.7-31-15-20.3-14-4.1-4.2-3.9-14-6.9-20-4.5-.5-8.5.6-12 3.3-.1-9.9 7-11 14.8-10.2-1.2-14 1-36 11.3-35.9-2.7-11 8.1-1.6 9.9-9.6-8.2-1.6-6.9-9.5-1.8-7.9-.4-3.5-16.3-13.9-18.4-24.7-6.2 4.1-11.4 53-15.4 52-3-3.4-5.3-7.1-7-11.4 4.4 10.4-7.7 4.6-7.1 4.7-6.2-.5-1.5 5.5-4.3 8.6.2-4.8-10-6.1 3.3-9.1-2.7-5.4-22-7.7-28-6.9-10.3 1.3-9.4-8.5-12.3-6.9 2.3-8.9 12.3-14.4 16-23 7.7 4.5-19.7 15.3-21.4 16.9-3.8-3.9 16.9-13.8 11.8-18.5-1.5-1.4-8 8.3-11.2 8.1 1.9-2 1.6-3.8-.9-5.6-5.5 8.5-5.2 1.7-7.3-.1-3.7 4.5-14.5 10-13.9 9-2.6 4.7 5.1 7.3-3.8 9.5 1.9-3.8 9.8-20 10.5-25.5-2.1 2.5-4.4 2.8-6.8.9 1-12.9 21.9-18 23.3-29.8-8.2 6.5-24.4 26-36 15.2 8.2-8 8.4-8.3 7.9-.3 8.5-2.2 25.5-20.8 29-19 19-18 8.3-20 15-32.5 31 5.3 5.9 34.9 3.1 48.8 2 0 3.5-.8 4.7-2.3 0 9.1-11.6 15-12.9 23.3 6.2-.8 17.2-15.5 22-19.3 8 1.3.4 12.5-3.2 13.8-5.1 1.8 3.8-6.8 2.1-6.7-4.5-2.5-13.8 8.5-10.4 12.4 2.3 2.6 1.8-10.4 7-3.6-1.9-2.5-9.7 29-9.7 29.4 3.3-3.2 5-2.5 5.1 1.9 2.7-4.1 6.4-7.1 11-9 .5 3.1.1 6.1-1.1 9.1 10.5-12.2 21-39.9 36.9-46.8 3.1.5 25.8 18.5 29.9 21.7-.6 1.1 71-36 50.9-34.4 2.4-8.9 10.8-9.8 15-13.7-1.1 2.6-.4 4.3 2.2 5.1-.5-15 2.6-15.2 4-23-4.3 1-1.4-6.5-10.2-16.8 5.3 0 17.9 17 18.8 16.6 3.3-7.8-9.9-6.5-6.2-13.9 3.5 1.1 7.1 1.4 10.7 1-5.9-4.1-11.8-.1-18.3-2.9-1-6.1 22.3-.7 24.3-1-8.8-5.8-25.6-12.4-25.9-19m39.9 31c.2 2.7 4 2.9 6.1 3.9-.4-3.2-3.3-3.9-6.1-3.9m-31 16c2.1 9.1-4.4 4-3.8 5.7 7.6 3.5 22 18.7 23 28 1.1-3.7 3.1-5.1 6-4.3.3-1.1-17.5-18-17-24.4-.8 10 37.8 19.6 31 12.4-4.7-4.8-30-14.9-39-17.5m-153 7.7c-4.8.1-9.1 2.3-8.9 6.1 6.3-1.6 13.5-5.8 11.9 2-3.6 2.3 10.4-9.8 5.3-8.9-3.9 1.3-9-3.2-8.3.8m140 8.7c.8.3 5.3 2.1-4.2 2.4-.7-1.9 13.7 13.9 14 14.2-1 .6-1.4 1.6-1.1 2.8-4-.9-5.1-8.8-7.8-9.9 0-.1-14 16.8-12.5 16.8 5.7-.5 4.6-3.9 9.2-4 .1 10.4 31.9 21.5 25 30-1.6-.9 4.8-1.6 4.2-.8 4-5.9-10.6-15.7-8.5-11-4.5-1.9-2.1-8.4-1.5-10 6.1-1.8 10.7 19.5 18.7 18.9-2.5-6.2-22.7-29.9-13-27 .8-13.5-24-22.4-22.7-22m52.9-4.3c-3.9 2 5 5.7 5.6 5.1 2.9-4.9 1.1-6.6-5.6-5.1m-45 1c-5.4 10.5 11.4-2.1 0 0m3.8 4.6c1.7 2.5 5.7 8.6 10 8.1-.6-2.4-7.2-7.7-10-8.1m-180 15.2c4.3-.1 7.7-6.9 8.1-10.2-4 2.3-6.7 5.7-8.1 10.2m11 5c1.5-8.4.1 1.2 0 0m63-1.8c-6.8 4.9-.7.6 0 0m-60 2.8c-3 4.5-13.5 7.7-14.2 14.9 9.4-.4 6.1 1.2 11.8-2.3-4.8-7.6 6.9-12.9 2.4-12.6m-20 6c-5.2 5.5 8.7 7.2 0 0m144-.2c.8 2 1.9 4.3 4.1 5.1-.6-2-1.6-5-4.1-5.1m20 .3c1.8 7.4 8.3 2.8 0 0m-73 2.8c.1 1.7-1 5 2 4-.1-1.7 1-5-2-4m42 1.8c-3.3 1.4-5.4 3.8-6.5 7.2 14.3 2.9 4.1-10.7 6.5-7.2m36.8-1.9c.7 2.8-2.9 9.9 3.8 9.1-4.1-8.9 3.8-5.2-3.8-9.1m-100 2.4c-1.7 12.6-19.7 13.9-13.9 22.6 3.7 5.6 23.6-28.6 13.9-22.6m92-1c-.6 1.7 1.8 4.1 3.5 3.5-.1-1.5-2-3.4-3.5-3.5m-85 2.7c1.8 8.2-10.7 15.3-12.6 16-.2 3.2.8 5.8 3.2 7.9 2.3-8.9 15.6-18.2 9.4-24m30 2.8c-4.8-.2-5.7 1.9-7.1 5.2 8.8 2.4 9.8-1 7.1-5.2m-10 .5c-.8 1.2 0 3.6 1.6 3.4 2.2-.9-.1-3.6-1.6-3.4m85 2.8c.4 1.4 3.1 19 12.7 18-1.5.2-10.4-10.5-7.6-12.7 1.9 1.2 4.1 8.5 7.7 3.4-1.3-6.4-9.8-10.3-12.8-8.7m-70-1.1c-.9 2.5 2.7 3.7 1.2 6 3.8.8 3.3-8.3-1.2-6m67 2.2c-3.4 2.3 2.2 7.6 3.8 3.1-2.1-.1-2.1-3.2-3.8-3.1m-80.9 2.1c-5.8 9.4 6.7-1 0 0m75-.3c6.7 7.6 5.6-.2 0 0m-98 5.3c-3.8 2.7-3.1 10.2-8.4 15.7 3.5-1.9 4.5-.6 2.9 4.1 6.2-3.4 8-21 5.5-19.8m37.9 1.2c-5.7-.2-5.8 1-.4 3.6-1.8-2.5 8-3.8.4-3.6m66 .5c.1 2.2 0 6.6 3.1 6-.8-2-1.7-4.9-3.1-6m-153 2.9c1.3 2-1.3 3-1.3 5 3.2.5 4.9-5.4 1.3-5m24 8.1c-4 3.8 7.5 5.2 4.8-.1.1-2-5.1-2-4.8.1m10.2-1.3c-11.3 17.6 3.2-4.1 0 0m52.6 8.2c0 6.3 12.6 3.1 0 0m-9.6 8c-9.3 19.9 19.8 6.9 22.5 3-1.8-1.2-2.8-2.8-3-4.9-9.2 2.6-4 8.3-9.9 10.2 4.5-12-3.1-2.9-6-4.2.7-6.7-3.7-5.9-3.6-4.1m-6.2 1.2c-11.5 12.6 10-3.9 0 0m31.6 6.6c-15.6 29.9-35.6-20-38 23.9-20.9 16.2 19.6 9.2 28 4.5-2 9.7.7 16.3 8.1 19.9 8-14.6-.9-44 1.9-48m14.5 4.6c-7.1 1.3-2.3 7.5-5.6 9.7 3.6-2.4 5.6-9.7 5.6-9.7m-46 44.7c3.1-.2 4.3 2.1 3.8 7.1 1.3-6 1.2-7.2.3-13-4.7-.7-6 1.2-4.1 5.9z"/><path d="m446 91c9.4-18.4.5 20.3 0 0"/><path d="m251 92c1.8 2.7 8.1-.6.8 6.1-.4-2.9-19.7 17.2-29.5 12.8 7.6-3.7 24.5-10.2 28.7-18.9"/><path d="m372 95c6-2.6 7.4 2.8 0 0"/><path d="m239 95c4.8-.7 3.2 1.3-4.9 6-.9-4.4.8-6.4 4.9-6"/><path d="m530 98c1.9-.7-17 6 0 0"/><path d="m385 98c4.4 0 6.4 2.1 6.2 6.1-3-1-5-3-6.2-6.1"/><path d="m418 100c2.6.1 8.4 3.7 8 6.8-4.7 4.3-7.5-3.7-8-6.8"/><path d="m343 106c9.5-7.4-.3 14.4 0 0"/><path d="m426 110c-.7-2.6 8.8-4.7 8.1-.7-3.6 2.7 1.8 1.4-.9 5.2-2.4-1.4-4.8-3-7.2-4.5"/><path d="m137 111c5.8 6.9-.5 2 0 0"/><path d="m524 114c1-9 18.4 6.3 0 0"/><path d="m229 117c-1.6-2.5 11-6.8 0 0"/><path d="m461 113c4-2.6 11 4 15.9 3.8-.3-1.7-4.5 11-3.2 7.8-7.9-2.6.1-1.4-1-5.8-5.9-3.4-9.3-2.7-10 2.2.7-1.4-8.2-5-1.6-8"/><path d="m249 116c7.5-1.6-5.7 11 0 0"/><path d="m138 118c-.6-6.2 4.2 10.3 0 0"/><path d="m150 116c3.7 2.1 6.3 5.1 7.6 9-2.9-1.3-5.4-.9-7.5 1.2.3-.5 32-2.5 32.6-4.4-2.5 0-13 9.1-17 7.7 2 8.2 9.8 46.7 5.8 45.6-.1-26.7-26.5-41.7-21.4-59m9.8 14c-.7 3.2 2.3 6.3 6.1 4 .3-3-3.7-4.1-6.1-4z"/><path d="m372 120c6.5-8.5 12.5 4.6 0 0"/><path d="m521 117c8.7-2.5 12-.1 10 7-5.5.5-11.6.4-10-7"/><path d="m456 119c2.7-1.6 4.8 6 9.3 5.1 1.1 1.1-14 3.1-14 .7 9.5 1.3.7-5 4.7-5.8"/><path d="m347 119c13.4-.1.2 7.1 0 0"/><path d="m384 122c3.4-7.8 1.6 11.4-9.8 5.5.3-5.9 5.1-4.8 9.8-5.5"/><path d="m228 124c12.3-3.7 3.1 7.4 9 8.5-8.5 6.7-3.7-3.6-9.9-2.4-10.8 2.2-22.3 25.9-33 33-3-2.6-2.7-5.3 1-8.1 3.5-.7-18.9 7.9-16-.7 16.2 4.2 28.8-17.6 43.9-26.7-2.2 2.4-1.8 4.1 1 5.1 0-3.3.1-7.5 4.2-8.9m4.1 1.4c-13.7 9.7 8.5-4.2 0 0z"/><path d="m210 129c3-2.6 6.4-4.6 10-6.1-3.1 15.8-32 17.4-38.8 29-.5-2.7-2-4.7-4.5-6 13.2-2.5 22-5.9 33-17"/><path d="m486 126c6.3-2.6 15.6-3.4 15.9 4.8-8.1 1.2-16.4 3.9-30 3.7 3.4-4.5 9.2-5.5 14.2-8.5"/><path d="m177 132c1.7.4 11.3 0 11 .6.4 4-5.9 7.6-8.8 7.9-1.6-2.8-1.5-5.5-2.3-8.5"/><path d="m148 133c15.8 4.3 2.6 15-6.2 15-.1-4.7 4.6-8.3 5-7.8-4.7.8-6.4-.9-5.1-5 6.2 3 8.3 2.3 6.3-2.3"/><path d="m321 147c3.5 1.9 4.1 4.7 1.8 8.2-4.7-5.8-1.2-2.5-1.8-8.2"/><path d="m259 148c9.7 1.4-6.7 7 0 0"/><path d="m263 154c4.5 1.6 1.2 9.8 0 0"/><path d="m326 157c6.1-.6-1.8 8.7-5.3 7.7 1.8-2.6 3.6-5.1 5.3-7.7"/><path d="m389 160c2.2-.7 5.8 7.7 0 0"/><path d="m264 167c2.1-1.5.6 11.2 0 0"/><path d="m438 173c5.8 2.8 7.1-10.5 6.7 4.2 3 .7-14-2.8-12.9-3.3.3-4 2.4-4.3 6.2-.9"/><path d="m258 195c-.6-2.7 1.5-4.4 3.8-5.2.5 2.5-1.4 4.6-3.8 5.2"/><path d="m251 198c-.9-8.8 11.5-2.6 0 0"/><path d="m356 198c1.3-2.9 3.6-10 5 .7 1.2 9.4-3.3-1.3-5-.7"/><path d="m182 204c5.6-11 7.1 7.2 7.3 7.7-30-3-11.6.8-7.3-7.7"/><path d="m370 210c4.8-11.5 7.9 12.2 8.3 15.2-6 2.9-13.3-13-8.3-15.2"/><path d="m343 212c-.2 0 15.6 3.9 16 7.7-7.9.9-16.8 2.5-16-7.7"/><path d="m219 218c3.3-2.4 6.6 1.8 3.9 5.8-4.9 1.6-4.3-6-3.9-5.8"/><path d="m285 218c4.7-3.4 2.6 10.8-1.5 12-3.7.4 1.5-12.3 1.5-12"/><path d="m363 218c6.5-4.6-4.7 2.7 0 0"/><path d="m261 234c2.3-3.9 15.9-8.7 13.2 1.2-2 .3-8.7-2-8-2.2 3.6 7-5.5 1.4-5.2 1"/><path d="m282 239c2.6-.5 5.2.5 6.2 3.1-2.1-.6-4.9-1.3-6.2-3.1"/><path d="m319 250c3.8-3.7 8.4-5.5 13.7-5.4-3 5.1-13.9 16.8-21.8 11.8-2.2-5.8.5-8 8.1-6.4"/><path d="m280 280c4.9-1 2.1 11 0 0"/></g></svg>