<svg xmlns="http://www.w3.org/2000/svg" width="647" height="389" viewBox="0 0 646.5 388.7" style="enable-background:new 0 0 646.5 388.7"><g style="fill:#33073b"><path d="m296 226c.6 13.6 3 32.8 4.6 45.5 1.6-13.9-.9-29.6-4.6-45.5"/><path d="m290 281c1.2 8.1-.9 16.5-4.5 23.8-4.7 9.5-11.7 16.5-19.9 22.4.7 5.8 6.2 14.9 8.4 21.7-.2-3.2-.2-6.4 2.4-7.5-4.4-4.4-9.4-9.9-9.3-10.4 3-4.9 6.5-5.8 9.7-1.3 5.7-16.8 25.3-46 25.4-46.7-.1-1.7-.7-6.3-1.5-12.3-1 8.2-3.4 15.8-8 22.3-.3-2.4-1.3-6.6-2.7-12"/><path d="m272 357c2.6-1.3 2.5-4.4 1.3-8.3.2 3.4.6 6.9-1.3 8.3"/><path d="m279 341c-1.1 0-2 .2-2.8.5 3.1 3.1 6 5.7 6.5 5.5-1.7-8.5-3.8-14-6-17.2-2.3 6.9-2.4 11.7 2.3 11.2"/><path d="m272 357c-.8.4-1.9.6-3.3.6 1.5.2 2.5 0 3.3-.6"/><path d="m369 141c0-.2.1-.3.1-.5-.5-1.1-1-2.1-1.5-3.2-2.4-5.9-3.6-12-4.4-18.3-.4-.5-.8-1-1.1-1.5-.3-9.9-12.2-9.7-21.8-10.2 28.6 13.2 28.5 84 22.5 134 .9-1.9 1.8-3.5 2.8-4.8.1 1.2.1 2.8.1 4.6 1.5-2.6 3.2-5 5.1-7.4-.6-33.5 1.7-61-1.8-93"/><path d="m318 171c.1-3.6-2-3.2-5.1-.6 2.8.6 5.6.9 5.1.6"/><path d="m277 227c.3-8.1.2-15-.3-19.6-.7-6.8-2.1-13.3-3.5-19.8-.6 10.6 1.2 24.8 3.8 39"/><path d="m355 283c-.3 1.3-.7 2.5-1 3.5-10.9-10.4-4.5-26.4-8.6-40-1.2.7-2.4 1.4-3.7 1.9 4 21.5 5.7 62 14.9 81-1.7-12.8-2.4-30-1.6-46.7"/><path d="m370 341c-5.7-.2-9.9-4.6-13.2-11.6 1.3 9.2 3.1 16 5.4 18.6 2.4-1.1 7.8-3.1 10.7-4.7-1-.8-2-1.5-2.9-2.3"/><path d="m328 104c.8-2.9 2.9-4 6.5-3.3-4.6-2.1-8.2-11.8-8.1-16.5.4-16.3-24-6.8-14.4 7.1 7.8 6.9 14.9-8.1 13.9 8-9.5 6.9-43-5.3-48 18-3 10.2-5.9 15.9-7.8 28-3.1 15.3.1 28.8 3.1 42.7.3-4.6 1-8.5 2.3-11.4-2.3-40 7.6-52 35-65.8 7.1-3.5 13.3-5.2 18.8-5.2-.4-.5-.8-1-1.1-1.6"/><path d="m346 226c11.9-21.9-.1-65 10.4-89-10.7-39-39.7-1.1-51.7-17-37.7 15.6-19.4 62-9.4 105-.4-8.4-.1-14.7 1.4-15.9 3-2.4 44.6-2.7 44.7-3-.9 3.4-2.3 18 4.6 19.9m-3.1-13.4c.3-.5.8-1.4 1-1.9 5.6-.8-.7 9.4-1 1.9m2.1-9.3c0-.3.1-28-.4-28.4 3.2 5 2.1 18.7.4 28.4m2-70c2.9-1 1.9 2.3 2 4-2.9 1-1.9-2.3-2-4m-3.9 23.5c1.1-.2 2.4-.7 3.6-.2.7 2.2-4.4 2.7-3.6.2m-1.3-30.5c.4 6.1-11.9 1.8-12-1 4 .7 8 1 12 1m.1 30.9c-.3.4-6-14.8-1.5-21 .6 1.5 1.9 11.5 1.5 21m-11.7-24.5c1.1-.6 2.5 0 3.7.2.9 2.4-5 2.2-3.7-.2m-5 11.5c-2.2-.1-10.3-2-5-3.5 2 .2 3.6 2.1 5 3.5m-4.1-6.8c-2.3.8-4 .8-3-2.1 2-1.2 7.4 1.9 3 2.1m-3.1 20.8c-.9 1.1-9.2.1-10.9-3.7-2.3-1.7 10.6 2.9 10.9 3.7m-11-16.8c1.1-1.6 2.4-3.2 3.4-4.9 3.2.9-.9 5.8-3.4 4.9m9.2-15c.7-2.1 7.9 2.2.2 6.1-6.1 2.9 0-4.9-.2-6.1m.8 20c.1.4-11.9 4.7-8.7.1 2.9 0 5.8 0 8.7-.1m-4.8-20.9c-4.1 6.5-13.4 1.1-14.2 1-.7-1.6 10-.3 14.2-1m-12.9 12.2c4.2-1.2-.7 5.4-3.4 3.8 2.3-1 .7-3.7 3.4-3.8m3 1.4c2.3 2.7 3.5 5.7 3.5 9.3.3-1.1-16.2.1-8.8 14-10.3 3.1 4.8-28 5.3-23.3m-7.2 27c9.2-1.5-4.5 23.4-1.5 23.3-3.7.1 2.6-20 1.5-23.3m-6-28c-1.5.6-2.8-2.1-.8-2.3 1.1-3.3 7.1 4.1.8 2.3m4.7 66c-1-2.6-1.1-5.4-.5-8.2-7.6 8.9 10.4-18 19.6-25.7-2.7-.6-5.4-1.6-4.9-2.5.1 2.7 18.4-8.3 22.4-12.2.7 5.4 9.3 22.5 5.6 24 10.8 2.3-30.6 31.4-42 24.6m45.8-37.5c-10.9-6.5 21-2.1 6.3 4.4-5.1 2.2-3.5-13.5-6.3-4.4"/><path d="m355 283c2.5-9.4 5.1-24 7.1-41-4.1 9-6.3 24.6-7.1 41"/><path d="m340 107c-3.1-1.4-6.5-2.2-10.3-2.2 2 1.6 5.9 2 10.3 2.2"/><path d="m280 265c.7-2.7.7-5.5 0-8.3.8-.8 2.5 6.7 1.2 9.4 3.1 2.9 5.7 6.3 7.1 10.3-3.3-13.2-7.9-31.7-11.2-49-.4 10.3-1.3 22.4-2.5 34 1.9 1.2 3.7 2.5 5.4 4"/><path d="m322 131c.3 4.2 5-.7 0 0"/><path d="m308 133c-7.2 3.6 5.4 2 0 0"/><path d="m325 138c.2 4.3 4.7-1.9 0 0"/><path d="m329 145c.1 10.2 6.9-1.8 0 0"/><path d="m321 146c-3.3 3.3 4.8 1.1 0 0"/><path d="m318 152c-.1 4.8 5.3-1.3 0 0"/><path d="m322 156c-4.5 4.9 4.9 1 0 0"/><path d="m309 97c-.7-3.2-.2-6.1 3.5-6.4-1.5 1.8-1.2 5.2-3.5 6.4"/><path d="m323 174c8.8.6 9.2 2.4 1.1 5.6 5.7-.7-7.3-5.1-1.1-5.6"/><path d="m318 175c5.8 3-1.3 8.8-5 9.8.9-3.7 2.5-6.9 5-9.8"/><path d="m325 187c0-.1 5.8-.7-6.9 6.3-.4-3 2.3-7.7 6.9-6.3"/><path d="m311 189c-2.8-2.5 1.4-2.2 3.3-2.3 2.6 3.2-.6 3.1-3.3 2.3"/><path d="m313 211c1.5-.1-13.2 11-12.9 10.6-1.6-2.4-2.2-5.1-2.1-8 5.8-1.4 6.4-1.7 15-2.6"/><path d="m330 212c2.8 2.4 5.7 13.7 3.6 17.2-5.3-15.2.9 9.2 1.6 11.8.8 3.2-11.6-1.1-9.8.2-5.1-3.8 2.9-26.9 4.6-29"/><path d="m338 222c-2.3-4.3 3.6-6.1 3.1-.5-1 .2-2.1.4-3.1.5"/><path d="m313 241c-1.1.3-.5-13.4 0 0"/><path d="m333 244c3.3-.8 2.7 6.3 0 7.1-.1-2.3-.2-4.7 0-7.1"/><path d="m326 247c2.8-.8 2 4.8 0 1.6 0-.4 0-1.2 0-1.6"/><path d="m310 257c2.3.5 5.1.8 4.2 3.9-1.4-1.1-3.9-1.7-4.2-3.9"/><path d="m321 278c-1.3 3.7-4-2.2-.3-.8l.3.8"/><path d="m311 279c3.3 11-5.9-54 3.9 15.5 4.5-3.2.3-8 2.9-11.5 5.5 7 6.5 58-11.7 44.6-6.1-4.5 7.3-41.7 4.9-48.6m4 22.7c-.7 1.3-.7 3.1 0 4.4 1.4-.3 1.4-4.1 0-4.4z"/><path d="m289 308c8.2-4.3-6.4 15 0 0"/><path d="m290 315c5.9 4.8-2.1 23.6 6.4 26-5.8 0-11.5 0-17.3 0 1.3-4.9 2.8-9.7 4.5-14.4 1.6 4.4 2.8 8.9 3.5 13.5 3.4-8.1 4.4-16.5 2.9-25.3"/><path d="m297 341c.5-1.9 3.4-1.9 3.9 0h-3.9"/></g></svg>