<svg xmlns="http://www.w3.org/2000/svg" width="647" height="389" viewBox="0 0 646.5 388.7" style="enable-background:new 0 0 646.5 388.7"><g style="fill:#33073b"><path d="m312 103c34.8-19.8 78 93 73 96-.6-5.8-10.7-20.9-6.9-23.7 7.5 9 11.8 19.3 13 30.9-2-3.1-4.6-3.8-7.8-2 5.3 6.7 7 13.7 5.2 20.9 9.5-8.7-48.8-5.8-18.2-31.7-.7-.1-8.5-36-8-41-13.2 12-33.4-48.9-45-43 1.7-.5-43 53-43.7 58 2.5 5.3 18.3-1.7 13.9-9.9 8.6 1.8 12.6 5.9 11.9 12.3-5.7-2.4-2.6-2.2-6.7-6.4-4.2-4.4-6.1 28.4-7.1 29.8-2.2-7.7-.7-12.6-7.3-15.4 1.2 5 1.8 10 1.9 15.2-3.4-.6-1.2-6.7-5.8-9.1.6.2-.1 11 .3 9.9-4.8 4.4.2-9.8-4.5-10.8-4.6-.9-4.4 14.5-1.4 11.9-2 3.1-5.7 34.7 3.7 26.5-.1.5-11.6-21.5-1.8-19 6.3.1-3 8.5 4.7 3 1.5 3.6.6 5.1-2.8 4.4 4.1 8.7 9 1.1 12.2-1.3 2.6.9 3.9 2.4 3.8 4.7-4.8-1-6.5 2.5-5.1 10.4-6-.3-2.9-10-6.8-10.7-5.5 12.8.8 8.5-5.8 19.6.9 7.6-17.4-19-12.4-18.9-3.9-.3-6.5 7.8-7.4 10.9-5.5-2.5 5.2-33 2.6-34-1 2.8-3.4 8.6-7.3 9.1-1.8-20 28-43.7 31-62 23.5-7.2 16.3-28.8 34.7-34m39.6 37.6c-9.4 6.5 19.9 3.3 0 0m-86 23c-3.8.3-9.3 23-7.6 25.7 4.4-1.7 12.5-27.9 10.9-34-1.1 2.8-2.2 5.6-3.3 8.3m1.4 12c-1.5.8-1.5 2.9 0 3.7 2.3.3 2.3-4 0-3.7m-11.2 18.9c0 1.8 0 5.4 0 7.1 2.1-2 4.8-6.8 0-7.1m116 .1c-9.3 6.5 8.1 10.4 6.9 9.7 0-2.4-4.3-9.3-6.9-9.7m-.9 9.2c-8.9 1 2.3-.5 0 0z"/><path d="m312 156c3.1-2.1 6.2-4.2 9.3-6.3-.5 2.1-1.4 4.1-2.7 5.8.1.2 23.5.3 30.6-1.5 6.2 3.4 6.9 7.6 2.1 12.7 7.4-.9-14.3-8.9-6.1 5.9-5.7 2.7-8.7 9.7-5 14.8-10.8 17.4 15.5 25.6 15 36-5.9 2.1-8.8-.3-8.7-7.2 0 11.8-1.3 25.7-1.1 30.5-.3-4.4 5.2 6.8 4.3-1.3-2.6-2.3-20 50.6-9.8 49-.2-3.8 1.3-4.8 4.4-3 1.2-6.2-6-7.6 1-15.4 3.2 4.9 11 45.6 6 39 4.6-14.5-1.6-9.7-8.5-21.6 5.9 4.1 3 24.7-2.4 25.9 1.4-5-2-22-6.1-26.5-.2 3.5-.1 18.6-5.5 19.6-8.4-1.7-10.2-8.2-5.5-19.6 1.4 3.3 2.6 6.6 3.7 10 2.5.7 7.4-23.7 7.1-24.7-1-2.6-10 2.7-7 11.9-7.8 1.9-6.7-42-8.3-40.5-7.7 6.3-.1 20.8-16.7 6.4-5.6 6.4 10.8 17.3-4 17.8-1.1-4.9.2-16.4-.1-22-4.1 4.2-9.2-7.5-16.8-7.9 1.3-1.8 1.6-3.8.9-6 3.3 2 6.1 4.4 8.6 7.4-2.4-12.8 3.2-26.7 3.5-41.5-2.7.1 15.7-11.4 17.9-9.7 2.2 5.6-2.6 28.5 10 24.9-4.6-4.1-5.1-7.3-1.5-9.7 2 2.7 3.8 5.6 5.4 8.5 1.9-5.4 5.5-7.7 11-7-5.7-9-14.8-6.7-21-8.5 2.9-.3-2.1-12.3-1.6-13 4.5 1.7 7 5 7.5 10 4.1-16.4-9.5-15.7-15.6-24.4 4.2-1.3 5.7-14.8 5.7-19.5m3.4 7.8c1.5-6.1 8.4 1.2 9.1 1 1.5 1.4-13-17.8-9.1-1m8.2 2.5c-4.4-1.2-6.1.3-5.2 4.6 3.5-3.6 15.7-1 5.2-4.6m4.8 3.5c.5 6.4-4.9 28 6 31-.5-1.5 5.1-32.9-6-31m-24.8 37c-4.9 12.2-5.7 21.8-9 34.9 15.2 2 30 1.4 45.8 4 3.3-6.3-.3-28.9-1.9-32-12.3 4-13.8 40-31 13.2-2.8-4.3-1-18.5-3.9-20m8 15.2c3.6-2.4 2.9 6.5 2.9 8.5 3.2-.7 9.1 3 10-3 .6-4.8-6 1.2-1.9-4.6-3.7-.4-7.4-.6-11-.9m16.8 26.5c.1.1 1.9-3.2 0 0m-24.8.4c-5.1 2.7 8.6 13.9 7 11.7.4 0-1.5-11.9-7-11.7m30.8 3.9c-3 1.8-12.3 21-1.2 16.8 8-12.3 8.4-17.9 1.2-16.8m-3.7 51c-4.3 1.7-3.6 9.2 0 0z"/><path d="m285 152c9.1 4.8-.3 2 0 0"/><path d="m305 162c1.8-3 3.6-6 5.3-9.1.2 3.9-.1 12.2-5.3 9.1"/><path d="m354 166c1.3-3 3.6-4.7 6.8-5 3.9 7.5-2.6 5.2-6.8 5"/><path d="m350 167c5.8-.7 9.3 2 14.6 3.3.1-.2-4.1 12.8-2.4 12.8-1-7.6-7.7 2.8-9.5 2.8.1-6.9-4-15-2.7-18.9"/><path d="m291 169c2.8.4 8.4 5.2 2.5 7.7-3.5 1.5-1.5-6.3-2.5-7.7"/><path d="m295 183c1-3.3 1.9-6.6 2.9-9.9.3.7 8.9 19.5.4 11.8-2.4 12.4 5.1 4.3 9 7.1-1.9 4.5-16.2 7-16.9 7 .1-3.8 2.3-13.6 4.6-16"/><path d="m292 178c3.9 1.5-1 12.7-2.5 14.3-1.3-8.7-.8-7 2.5-14.3"/><path d="m303 182c10.8-14.6-2.2 12.7 0 0"/><path d="m345 183c11.4-1.5-1.8 12.3-3.2 12 .6-4.2 1.2-8.3 3.2-12"/><path d="m308 183c2.1-.2 2.7 4.8 0 0"/><path d="m367 220c0 .3-1.6 3.8 0 0"/><path d="m270 236c2.1-2.3 4.3-4.6 6.4-6.9 1 8.2 3.3 9.7 3.8 16.3-2.1-7.2-7.7 2.5-10.2-9.4"/><path d="m361 250c8.1-3.9 8.6 3.9 9 12.9-5.2 1.5-6.4-9.8-9-12.9"/><path d="m280 265c-4.8.4 7.5-.5 0 0"/><path d="m347 265c3-1.6 6.8 2.9 5.2 7.1 1.5-2.5 2.2-5.3 2.3-8.2 4.4 1.8 3.6 11.4-1.6 11-4.3.3-6.1-6.7-5.9-9.9"/><path d="m308 340c-.6-17.2-10.5-31.4 3.1-43.8-.1-.1.3 43.6 5.7 42.8 2.7-16-8.4-52.9-2.8-53-7.6 20-9.5-28.4-7.1-18.7m0 .1c22 10.7 1.9 62 18.6 71.9 1.1-4.6 0-14.9 6.4-15.2-2.8 4.6-4 9.6-3.5 15 8.2 5.8 5.5-6.7 7.4-10.2 3.6 30 6.6-3.5 6.2-.8"/><path d="m363 275c1-4.1-3.3-8.9 3.3-6.1-.4.5-.5 12-3.3 6.1"/><path d="m326 320c-2.7-4.7-2-6 2.2-3.8-1.3 2.6-1.1 4.9.6 6.9-6.1 11-2.3-.8-2.8-3.1"/><path d="m294 322c.5-.1.1 2.3 0 0"/></g></svg>