<svg xmlns="http://www.w3.org/2000/svg" width="647" height="389" viewBox="0 0 646.5 388.7" style="enable-background:new 0 0 646.5 388.7"><g style="fill:#33073b"><path d="m312 102c-11.6-13.6 19-29.6 15.4-4.2 4.3 7.5-17.6 12.4-15.4 4.2"/><path d="m307 104c7.4-11-1.5 16.2 0 0"/><path d="m330 103c4.2-2 2.8 5.6-.9 3.9.2-1.3-.3-2.9.9-3.9"/><path d="m310 113c9-8.6 32.7 4.9 43 5.2 11.5.1 11 32 10.7 32 9.1-17.5 8.2 17.3 8.1 18.3-9.5-21.3-5.8 4.8-6.6 11.9 6.6-1.8.5-2.5 4-6.3 3.4 8.8-2.2 37-1 49 5 34.6 9.9 28 22.8 44 0-2.1-18.8 31.7 2.9 33-1.8-3.1-1.2-5.6 1.8-7.3-2.7 6.3 7.6 11.7 10.3 14.4-4 14.7 7.1 10.7 7 23.9-2.7.8-5.4 1.8-8.1 2.9-7.2 5.7 10.9 7.5 10.5 7.1-31 0-62 0-94 0 .9-2.8 36.5-1 40-1-4.8-7.5-13.5-42.6-11.8-46.9 4.2-.3 6.5 1.6 6.9 5.8-.4-1.1 3.7-25.4-3.1-23.9 0 1-1.2 24-5.5 15.8-.1-1.4-8.8-47.8.7-47 3 7.4-3.8 19.5 1.5 26.6 1.2 1.7-2.2-34.9 2.1-39.5-1.8 1.9 11.7 78 12.2 91 3-7.8 17.2-11.7 6.9-18-2.3-5.1-11.6-41 .2-41-.7.7-3.3 11.3 1 8.2 3.8-.6-1.4-12.6-1.6-14.4-1.9 6.8-4.1 7.5-6.6 1.9-2.1-5.1-.4-7.1 5-6.1-4.7-12.7-1-112-22-117 16.6-13-47-13.2-53.8-12.8 1 11.4-15.3 48-16.6 67-1.9 27 13.3 74-4.8 99-6.1-32-28 48.8-19.3 43 7.6-12.7 12.3-15 17.5-32.4-5.2 28.5-3.9 13 7 18-7.5-3.4 14.7-100 12.5-104-1.8-10.3-12.6-57-4.6-65.9 17.2-18 33-9.8 57.9-17-1.6 7.1 4.4 8.1 7.6 12.5 10.5 14.8-2.7 37-.7 54-3.4 14.5-4.4 30.5-1.8 45-11.3.2-5.5-16.9-6-23 .3 3.5-7.5 19.9-8 25.6-7.3 1.9-4 4.1-5 10.4-.2-4.7 1.6-7.8 5.5-9.3.6 8-2 12.9-.5 18.2-13.5-3.1-16.8-33-10.3-35.7-48-8.4-15 43-23.9 62-2.6.1-11.6-9.3-14.9-10-.3 10 3.2 17.3.2 26-5.7 26.6-1.9 25.8 16 33.8-11.3 0-90-1.9-60-2.1-3.2-6.2-13.3-.9-14.7-10.7 13.3-7.5 18.8-34.9 19.4-35 12.6-5 27.3-34.8 25-47.6 5.9-7.3 6.5-94 3.2-99-.2-3.7 2-37 34.9-33.9m49 14.6c-.6 1.1-.8 3.5.8 3.8 2.1-.4 1.1-4.3-.8-3.8m-63 18.8c1.1.3 19.5 1.6 18-3 2.9.3-20.7 2.3-18 3m22-2.9c-9.2 4.6 9.2-3.3 0 0m12 .5c.4 2.2 13 3.8 13.2 3.3 2.2-7.9-12.2-1.3-13.2-3.3m-38 5.2c.2 1.7.3 3.4.9 5 3 1.3 2-5.8-.9-5m4.5 9.8c-2.7 9-2.8 30-2.7 44 10 1.2 1.5-22 1-19 1.6 5.6 6.2-38.6 4-33.9-1.1 2.8-1.8 5.7-2.3 8.7m42.7-4.5c-.9 6.6-8.1 16.8 4.6 16.8.5-9.7-6-20.6-4.6-16.8m8.7-4.2c-.1 2.5-.9 6.3 2.9 5 .1-2.6.9-6.3-2.9-5m22 .3c-1.9.8-2.2 5.9.7 4.7-.3-1.2.9-5.5-.7-4.7m-80 2.8c-14.8 13.7 7.5-3.2 0 0m29 0c-9.2 6.9 13-2.7 0 0m13 4c-2.8 1.6 1.3 2.9 2.6 1.5 1.1-1.6-1.5-2.2-2.6-1.5m-14.2 1.9c0 3.6 5.5 2.8 8.1 4-1.6-2.7-5-3.9-8.1-4m11.2 5c1.8-3 3.2 6.5 0 0m-21.3.2c0 3.8 18.7 3 0 0m-2.8 13.7c2.7.8 11.5-3.3 11.8-3.9-7.6-5.7-9.1-1.7-11.8 3.9m27-6.5c-3.7.6-4.8 2.7-3.2 6.3 6.4 2.9 9.5-6.7 3.2-6.3m-10 3c-6 .5-6.7 1.8-2.2 4 4.8-1.3 9.5-4.5 2.2-4m-8.3 7.4c-11.6-4-.5 8.8.2 10-12.6 2.1-26 35.4-15.6 38 34 9.5 54-46 33-49.7.7.2-16.4 5.4-17.7 1.4m30.9-.8c-2.2 1.1-7.4-1-5.8 4 6.3-3.6 3.7 7.8 7.3 14.8 5.8-1-.7-21.5-1.5-18.8m-50.7 26c-.4 3.3-.7 6.6-1.1 10 5.9-.1 1.1-10 1.1-10m-.7 11.2c0 1.3 1.8 2.2 1.1 3.7 3.1.8 1.4-5.3-1.1-3.7m40.9 1c-4.5 5.2 3.3 7.4 4.8 4.1 1.3-4.7-.3-6.1-4.8-4.1m-45 6.8c1 2.8 2.6 5.4.1 8 5.3 2.1 3.8-8.6-.1-8m3.3 9.3c-.7.4-3.6 17-3.3 15.7 8-.4 1.6-14.4 3.3-15.7m-4.1 31.6c-1.5 7.6-.8 9.1 2.1 4.7-.1-3.6-2.8-13.6-2.1-4.7m-20 .1c-.5 2.6-.2 5 3 4-2.6-1.1-.1-4.9-3-4m106 16c-1.2 17.3 11.7 11.3 11.5 26.8-.1 5-8.1-5.7-7.6-5.8 2 4.1 7.3 27 16.8 31 5.1-14.5-12.5-53.6-20.7-52m-15.2 20.9c0 3-1.5 8.4 2.9 8-.2-3.1 2.3-9.6-2.9-8m21 21c-2.4 1.3 1.4 3.3 2.7 2.5.9-1.5-1.5-2.5-2.7-2.5m-110 2.1c-.5 5.7-3 8.4-7.5 7.9-9.7 4.2 28.9 1.7 16.3 4.8 2.4-7.7-6-.9-6.7-.9-1.6-.1-.5-10-2.1-11.8m106 6.5c8.1-1.9 1.1 6.3 0 0m-137-4.8c-1.3 3.2 2.1 4.1 3.8 1.9.2-2-2.4-2-3.8-1.9m149 .2c.4 2.5.7 10.6 6.1 9.8-.5-5.4-.8-8.8-6.1-9.8m-132 1.9c-.6 2.3-1.4 4.6-1.2 7 2.5-.7 5-7.8 1.2-7z"/><path d="m321 195c2.7 2.5 6.4 0 9.9 3.3-1.1.6-10.8 8.8-10.4 8.9-1-12.3 2.3-3.3-4.1-2.6-3.8-9.6 5.3-3.8 4.6-9.6"/><path d="m306 235c3.9-1.1 5 1.5 3.2 7.8-3.2-.3-2.5-6.1-3.2-7.8"/><path d="m310 239c4.5-1.2 1.4 5.4 2 8-1.8-1.3-1.7-5.5-2-8"/><path d="m311 251c4.5-2.7 2.7 13.6 2.6 12.8-3.2-4.5-3.9-4.2-1.9 1-9.6 4.9-8.1-12.5-.7-13.8"/><path d="m297 253c4.1-.3 2.5 6.1-1 4.9 1.3-1.6-.6-3.6 1-4.9"/><path d="m385 272c-1.5-5 8.8-.1 3 0-.8 0-2.3 0-3 0"/><path d="m132 291c19.4 5.3 52 .3 67 20-12.3 5.8-38-15.3-38-14.3-6.2-.8-22.9 4.2-28.9-5.7"/><path d="m302 292c-1.3 11.7 2.7 5.9-9.8 15.3-.2 2.7 10-15.4 9.8-15.3"/><path d="m508 300c-20-4-39 9.5-56 13.2-.1.1 11.2-9.5 8.3-9.2-6.6 3.1-15.5 9.3-22 8.6 2.6 2 5.6 2.6 8.8 1.8-7.5.4-13 3.3-16.6 8.7 21.7-.4 57.8-23.4 71-18.2-1.6-.6-8.1 10.2-9.3 14.4 6.8-2.5 13.9-13.6 16-19.3"/><path d="m317 303c-13.9 5 26.6 39-13.2 37.8 8.2-14 3.9-20.8 5-33.8 9 2.1-2.1 10.3 6 16.9 0-8.1-.1-13.6 2.2-20.9m-4.2 27.8c.2 2.8-1.5 6.9 2 8.1-.9-2.5.1-7-2-8.1z"/><path d="m204 320c.8-3.7 13.9 6 13.9 5.8-3.7 1.4-14.6 1.1-13.9-5.8"/></g></svg>