<svg xmlns="http://www.w3.org/2000/svg" width="647" height="389" viewBox="0 0 646.5 388.7" style="enable-background:new 0 0 646.5 388.7"><g style="fill:#33073b"><path d="m351 87c2.4.5 3.7 1.9 4 4.3-.2 4.3 18.3-6 5 19 9.6-6.3 25.4 12.3 25.4 15.2-2.1-1.7-11.8-39.6-40-22-14.8 9.2-19-9.6-27.6-4.7-26.4 10 4.3 22.6-31.4 9.4-11.7 28.8-63.9 38.7-68 79-1.5 3.2-21.8 33-9.9 36-.1-.3-5.7-14.3-8.4-1.8-.2-1.1-1.3-10.5-.8-3.9-4.6-16.7 6.1-25.3 8.4-40.5 10.5 10.2 19-53 30.8-59.9 8.2-1.8 0 24.3 4 24.3 4 6.7 12.3-20.5 13-23 12.4-25.3 37.6-21.3 1.8-30.7 10.7-20 40.5 15.3 46 9.8m44-.8c-11.4 6 6.7-3.5 0 0m-61 .6c1.7 7.4 6.9 4.1 10 9.1-2.1-4.2-5.4-7.2-10-9.1m-6.8 15.2c-6.1 4.3 10.7 1.7 0 0z"/><path d="m374 84c47 0 51 116 52 133-6.2-7.5-28.6-22.5-34.5-30.5.9 5.7-1.4 8.4-7 8.3 3.6-2.6 2.3-4.7-3.9-6.2.1 1.4-1.6 3.9-2.1 4.1-9.7-5.1 8.1-6.3 1.5-8.8-2.4 7.2-9.1-.3-10.7-.7 3.6-.6 25.4-16.2 18-18.4 7.6 22.7 23.5 20 37.5 29-2.1-8.1-37-71-31.5-82 2.5-4.7-19.8-21.8-18.8-28"/><path d="m251 94c2-3.3 4.7-4.3 8.1-3.2-5.5 3.6-4.7 11.8-12 12 3-2.2 4.3-5.2 4-8.8"/><path d="m243 110c2.9-5 6.2-5.9 9.8-2.6-4.2 4-4.5 4.9-5.3 6.8-4.7.4-9 4.8-4.5-4.2"/><path d="m270 158c3.2-3.9 10.2 2.2 9.4 5.3-3.6-.9-6.7-2.6-9.4-5.3"/><path d="m266 166c10.3-9.1 4.9 9.7-1.9 9.3 3.4-2.8 4-5.9 1.9-9.3"/><path d="m256 163c3.4-4.3 9.6 13.6 0 0"/><path d="m282 171c2.2-.2 5.5 6.5 4.3 6.9-4.9 1.8-3.9-4-4.3-6.9"/><path d="m386 266c-1.2-4.4-2.3-8.5-3.3-11.5-6.1-18.5-23-42-22-57-24.4 6.2-1.5-13.9-3.3-17.7 0-.1-.1-.2-.4-.4-.2.1-.3.1-.4.2-31.8 11.5 17.7 67 28.4 88 .4-.7.8-1.2 1.2-1.7"/><path d="m282 183c1.5-11.2 2.1 11.6.1 6.2-4.5-1.4-3.8-5.2-.1-6.2"/><path d="m369 189c3.6 4.2 5.7-1.1 3.4 5.6-6.6.4-4.3 2.6-11.9 1 2.2-2.9 5.1-5.1 8.5-6.6"/><path d="m276 204c-1.2-3.9-.3-7.2 2.6-9.9.2 4.9 4.2 8.5-2.6 9.9"/><path d="m286 202c-.4-7.9 1.5 38.8-6.7 33-13.3-18.7 2.6-21.4 6.7-33"/><path d="m293 220c2.9-1.2 7.4-7.7 2.2 17.8 15 .4 27-2.1 43.7 3-1.6-7.5-.2-14.2 4.3-20 7.9 3.1-2.3 47.8-2.2 48-32 19.7-10.2-17.7-10-26.8-6.2-4.3-6.2 6.8-7.8 9.8-5.8-3.5-5.5.8-9.9-1.1 0-3.6-1.4-6.2-4.3-7.9-1.6-.3-9.6 5.7-7.4 8.6-7.2-9.3-18.3-15.9-8.6-31m41 29.9c.1-.2-9.7 25.4-.5 16.6.8-1.9 7.7-16.8.5-16.6z"/><path d="m273 244c-2.8-3.7-3.4-7.7-1.9-12-.5 3 10.6 12.8 10.9 11.9-.5 0-10.5 10.5-11.4 5.3-1.9 2.2 3.7 26.3 3.3 30.7-12 9.3-22.4-24-20.7-26.3 6.4.4 13.8-5 19.8-9.5m-9.6 11.7c-5.5-4.1 3.2 28.8 5.9 23.5 7.9 1-9.1-25.7-5.9-23.5z"/><path d="m300 267c4.3-1.7 5.6.9 3.7 7.8-7.3.4-3.9-1.7-3.7-7.8"/><path d="m284 268c7.7-1.9-1.8 11.2-4.1 11-1.1-4.6 2.1-6.6 4.1-11"/><path d="m308 268c-.7-3.2 7 4.4 4.8 4.6-3.7 6-4.1-2.7-4.8-4.6"/><path d="m279 279c0-.1 6.6 4.3 6.9 4.4-1.4 2.2-6.3 10.2-9.3 10-.2-2.8 2.1-10.7 2.4-14.4"/><path d="m297 281c5.8-.5 8.2 1.7 7.1 6.6-3.8-.7-6.2-2.9-7.1-6.6"/><path d="m354 284c5.5 1.1 7.9 4.7 12 7.2-2.2-5.8-.1-6.4 6.1-1.8-1.3 16.3-7.5-30.6-4 9.6 1.6-.2-14.6 1.4-15.3-3.2 1-6.7 2.8-6.9 5.2-.7-1.9-3.5-3.2-7.2-4-11"/><path d="m326 291c.4 4.6.4 13.7.9 19.8-.1-3.4 1.5-5.1 4.9-5-4.3 6.4-12.9 39.7-13 48.6-8.1-7.3 3.4-54 7.2-63"/></g></svg>