<svg xmlns="http://www.w3.org/2000/svg" width="647" height="389" viewBox="0 0 646.5 388.7" style="enable-background:new 0 0 646.5 388.7"><g style="fill:#33073b"><path d="m315 99c10.7-1.8 48.7 31 53.8 40 6.3 11.7 12.4 54.8 10 31 12 3.5 13.2 22.8 12.8 32.4-2.2-1.9-6.9-18.8-9-18 .1 5.9 8.1 38 6.1 38-6.2-3.5-5.6-13.7-6.1-16.5-12.9-1.9-7.5 6.5-10.2 12 3.6-.1 5.2-52-8.5-61-1.3-3-.1 9.9-.2 9.2-15-6.9 9.2-26.4-14.2-29.7 5.1 2.5 5.5 4.4 1.3 5.8-6.4-7.4-18-12.5-20.4-20.7-8.1-28-30-6.3-20.9 3.8-1.1-1-24.7 32.5-32 20-14.4-2.7 24 44 5.3 43.8-2.3-38-27.6 3.8-17.9 21.8 4.9 1.2 6.5-.7 5-5.9 5.8-.1 5.1 1.8 7.4 1.7 1.7 2.4-3.3 6.3.2 8.5 2.3-2.2 5.6-7.8 11.3-5.1-2.1 3-.5 6.2-.4 5.8-2.5-.1-29.6 6.1-32-7 .7 6-1.4 7.8-6.1 5.5 1.2 1.7-5.3-16.3-4.4-14.6-.6-3.9 6.1-27.3 12.7-25.9-.7 1.7-11 22.9-5.2 23 6.8.2 14-38 13.4-45-3 6-5.1 12.3-6.2 18.9-4.1 1.1 13.3-38 26-42.8 16.5-5.8 13.3-19.6 28.6-29.9m-28 38c-2.1 2.7.3 3.1 2.7 3.5 2.1-2.6-.3-3.1-2.7-3.5m85 19c-.3.7-.1 14.4 3.1 12 3.6-2.7-.8-12.2-3.1-12m-106 15.7c.4 1.1-1.1 4.6.9 4 3.1 0 1.5-4.9-.9-4z"/><path d="m304 312c2.9-7.7-1.3-19.7 9.8-11.8 4.4-11-6.2-9.7-1.6-15-14.2 8-7-19.4-2.3-19-.4 2.9.7 5.2 3.2 7 .3-3.7-2.9-28.8-12.3-24 .1 0 .2 16.8.2 17.2.5-.9 1-1.8 1.6-2.6.9 1.5 1.4 7.9-1.3 9.3 4.6-2.4-18.2-32-10.4-41.7-1.3.6-2.3 1.6-2.9 2.9.7-.3-.6-6.4-.8-6.9 2.8-2 4.6-1.4 5.6 1.8 1.5-7.5.4-14.8 1.4-22 9.9 1.7-3.2.2 6.9-3.7-1.7 9.8 2.3 12.2 11.9 7.2.1 3.3-.6 6 2 8.7 2.5 2.6 6.9-7.7 6.2-7 .8 2.2 1.5 4.5 2 6.9 3.1.8 13-10-.3-9.9-.1-6.3 2.7-8 8.2-5.1-1.5-1.4-9.3-8.4-11-6.2-.1 2-.1 4 0 6.1-4.5 4.3-2.5-11.2-4.5-.6-4.4-8 7.9-12.2.4-24 10.5 1.4 1.6-7.5.1-14.2 4.2 1.1 6.2 7.5 11.6 8.2 3-5.6-.9-9 .1-15-5.2-.3-16.3.5-15-3.9m37 184c-1.6-2.8-1.9-5.8-.9-8.9m-36-175c13.6-9.5 22 14.7 38 1 0 .5-19.7 55.9-5.9 28 5.7 4.2-2.4 16.8-8.2 17.2-3.2-2.1-4.8-25.7-4.8-25.3-24.4 3.6 16 38.5 16 37.8-.6 17.6-3.3 25.4-5.7 45 0 0 7.2-10.9 8.6-12 2.3 7.1-1.4 14.8-9.1 14.2-3.7 8.9-12 25-12.7 24.8-1.6 1.7-2.4 3.8-2.5 6.4-5.6.6-7.1-36.8-8.2-35.7-5.1 13.2-5.1 83 9.3 84 0-.1-3-11.5 1.4-8.4-.6 11.7 5.7 14.4 18.8 8.2m-41-123c-12.3 2.1-16.5 10.4-12.7 24.8 2.4 1.9 41 4.3 45.5 4.2-1.8-10.8 3.2-24 0-29.4-4.1-6.7-17.8 10-26.8 6.6 4.3 2.8 4 5-.8 6.7-.6-3-8-18.7-5.2-12.9m11.5 30.6c-5.8 12.2 15.5 5.4 17.8.4-14-1.3-3.3-.9-13.9 5.9-1.5-6.9-3.8-6.1-3.9-6.3m17.9 5.6c-7.1 3-12.8 21.5-3.5 17.5 8.6-14.4 9.7-20.3 3.5-17.5m-26 47.6c-.1 1.1-.1 41 6.9 39-3.4-12.2 5.1-31-6.9-39z"/><path d="m286 153c23.4 8 5.9 3.3 24 2.6 6.7 14.2-20.9 3.6-22.8 2.5.8 2.7 0 4.8-2.3 6.3-6-3 1.6-9.2 1.1-11.4"/><path d="m297 167c1.3 5.5 7.4 28.9 4.1 34 4-.4-14-4.5-11.9-2.2 8.1-11.3 2.5-18.2 7.8-32"/><path d="m351 169c3.6 2.7-.6 7.4 0 0"/><path d="m350 175c3.4-2.2 6.1-1.6 8.1 1.7-4.5-1.4-8.4 7.5-8.1-1.7"/><path d="m305 181c1.9-.3 10 1 9.9 4.1 2.3 2.3-12-5.5-9.9-4.1"/><path d="m278 182c1 2 2.1 4.2 0 0"/><path d="m304 182c7.4-1.2-.5 8.3-1.3 8.9-.4-3.1 0-6.1 1.3-8.9"/><path d="m367 185c12.7-.4 4.7 16.4.8 21 6.4-10 .2-12-.8-21"/><path d="m288 194c-1-3.8.2-5.9 3.8-6.4-6.2 36.8 1.2-.7-3.8 6.4"/><path d="m308 193c2.5-2.7 4.7 1.4 5.6 4.5-4.9 1.3-6.7-.2-5.6-4.5"/><path d="m364 205c1.6.9 4.2 10.2 1 10 0-1.4-.5-8.1-1-10"/><path d="m394 214c3.3 1.3 5.3 3.7 6 7.1-2.2.4-6-5.6-6-7.1"/><path d="m361 221c.2-.3 0-12.6 2-3.2-.1-.3-4.4 10.5-2 3.2"/><path d="m263 218c7.8 1.6 15 33.9 14 33.9-4.7-10.6-15.6-23-14-33.9"/><path d="m257 221c-.3-3.7 4.3-1.7 4.5.8-1.6 1.4-3.2.6-4.5-.8"/><path d="m290 220c.1-.3-4.1 7.3 0 0"/><path d="m350 229c5.8-11.3 9.3 3 0 0"/><path d="m358 253c7-5.5 15 12 15 18-3-4.5-5.7-9.2-7.9-14.2-2 2.2-.7 8.6-2 11.5-1.8-.2-3.5-.6-5.3-1.1 6.9-5.3-.3-9.1.1-14.3"/><path d="m281 254c6.6-2.7.9 8.8 0 0"/><path d="m307 256c1.6.8 1.8 3.3 1.8 5-3.5.6-2.6-2.9-1.8-5"/><path d="m280 269c6-12.6 3.1 8.5 0 0"/><path d="m354 269c1.6 5.2 9.7-10 2.4 8.2-6.2 2.7-7-1.9-8.5-7.1 6.2 4.3 8.3 3.9 6.1-1.1"/><path d="m298 278c.3 2.5 6.8 11.3.6 13.5-.3-2.9-.3-9.1-.6-13.5"/><path d="m339 287c2.9-7.7 13.9 15.8 12.9 18.9-4.1 2.6-6.6 1.9-7.7-2 0 .2.1 22.5-5 20-.1-.4 6-37-.2-37"/><path d="m336 286c.5.2 2.8 13.9 0 16.2-1.5-14.3-.3 5.8-5.3 4.9-1.1-10-.9-15.7 5.3-21"/><path d="m349 294c2.9-.7 3 5 .1 4.3-.1-1.5-.1-2.9-.1-4.3"/><path d="m325 296c-.1-.9 4.6 18.9 1 17.7-.3-5.9-.7-11.8-1-17.7"/><path d="m357 301c-2.8-.4-3.1-2.3-1.1-5.7 1.3 1.6.9 3.7 1.1 5.7"/><path d="m358 302c4.7 1.7 2.6 4.8 4.9 9.9-.5 1-13.8-6.8-4.9-9.9"/><path d="m288 313c.4 7.3-3 4.2 0 0"/><path d="m353 316c-.6-5.2 5.8.1 1.2 1.1-.3-.3-.9-.8-1.2-1.1"/><path d="m357 320c2.4-2.8 5.4-4.5 9-4.9-3.9 13.5-9 3.8-9 4.9"/><path d="m327 315c14.5 1.7-13.9 8.9 0 0"/><path d="m330 319c1.6 0 1.8 3.4 2.8 4.8-2.8 0-5.9-2.7-2.8-4.8"/><path d="m346 322c19-11.4.4 5.6 0 0"/><path d="m332 330c12.3 11.6-4.4 7.2 0 0"/></g></svg>