<svg xmlns="http://www.w3.org/2000/svg" width="647" height="389" viewBox="0 0 646.5 388.7" style="enable-background:new 0 0 646.5 388.7"><g><g style="fill:#33073b"><path d="m160 10.5c63 2.3 118 51 109 61.9-16.5 8.2 26.8 45.6 29.7 36.5 5.9-18.6 22.8-38 36-7.5 33 .3 32.4-66 63-58-2.8 1.4-20 12.7-14.2 15.9 1.8.8 8.2-10.8 13.9-7.8-3.2 14.3-46.7 80-68.9 71.8 1.6.9-4-23.5-4.5-21.7-6.1-13-20.3-.5-17.6 7.7 4.2 3.8 5.8 3.5 4.8-.9 13.9.3 36.8 56 15 55 .4-2.3-5.5 23.4-5.9 7.9 10.6-1.5-14.3-2.3 5.1-7.6-5.9.6-8.6-1.9-8-7.5 1.9 2.3 3.6 2.3 5.1.2 15.8-6.5-43.6-60-67-44 7.8-14.7-1.5-32.9-1.5-32.9-4.9-10.8-6.9 25.4-13.2 20 7.7-15.8 5.4-45.8 5.1-51-13.6.1-18.6 3.2-26.9 26.6-5.5-9.6 21.8-31.5-30.9-53.7l-28.8-10.3m148 102c-3.3 7.8-.3 11.4 9.1 10.8-2.3-2.9-3-6.2-2.1-9.7-4.2 1.4-5.3-1.7-7-1.1m12.3 11.2c-1.5.3-3.2 1.8-2.1 3.4 1.4.4 4-2.7 2.1-3.4m-1.1 7.5c-8.6 2.2-10.7 19-9.2 22.9 12.2-5.6 9.5-21.9 9.2-22.9"/><path d="m329 156c-7.8-.4 17 1.9 0 0"/><path d="m479 51c9.1-.7-4.5 13.4-12.2 12.8 2.4-7.4 6.6-4.6 12.2-12.8"/><path d="m400 55c3.2-6.7 3.5 19.3-.1 17.4-1.3-.6-2.6-1.2-3.9-1.5.2-6.9 4-7.3 4-15.9"/></g><g><path d="m146 69c15.6-63-58.7-44-60.8-43.9 98 16.8-20.7 18.7-20.5 18 61.9-24.7 57-34 49-28.6 53 4.3 46.8 57.8 32.8 54" style="fill:#33073b"/></g><g style="fill:#33073b"><path d="m425 59c2.3 1 3.7 0 6.8 3.1-10.4 7.6-13.9 15.8-32 18.8 1.5-7.9 20-7.8 19.3-14-.2.1-8.6 3.1-6.2-1.1 3.1-2.3 10-2.3 12-6.8"/><path d="m262 64c4.3 4.8-.9 1.3 0 0"/><path d="m492 73c2 15.7-10.6 13.6-24.9 14.6 4.6-4.3 25-9.9 24.9-14.6"/><path d="m194 80.9c17.2 5.8-21.5 21.7-20 2.3 6.4-.3 25.5 11.4 20-2.3"/><path d="m454 90c3.3-1 6.7-2 10-3-3.5 7.4-5 3-10 3"/><path d="m154 99c6-.2 10.7 1.8 14 5.9-1 4.9-15.2 0-14-5.9"/><path d="m415 165c-.4 1.5-.6 2.9-.9 4.4-.8 5.1-4.2 9.4-9.8 9.2-4.7-.2-10-4.7-9.2-9.8 1.9-11.9 5.2-23.4 13.6-32.5 4-4.3 8.8-7.6 14-9.9 2.1-6.1 9.4-19.3 7.8-22.9-4.3 7-11 13-16.2 20.3 6-3 6.8-1.1 2.6 5.7-9.1 4.1-27.4 15.9-21.8 33-4.4-.4-19.5-8.6-25-11.3 4.7 4.2 4.4 5.2-.9 3.1 2.5 3.4 5.5 6.3 9 8.6-12 1.1-42.8 42.5-36 50 1.7 3.6 2.7 6.6 3.1 9.2.1-1.5.2-3.1.5-4.6-1.6-1.7-2.5-4-2.5-6.6.2-8.5 3.7-17.6 11.7-21 .5-.9 1-1.7 1.5-2.6 4.1-6.5 10-11.8 17-11.8 4.1-5.4 7.1-10.5 7-13.9-2.2-2.7 9.5 10.4 13.8 19 1.8.3 3.6 1.1 5.3 2.7.8.8 1.6 1.7 2.3 2.6 4-2.8 6.8-1.7 8.4 3.5.6-3.5 10.6-28.5 17.6-30 1.1-.9 2.4-1.8 3.7-2.5 1.2-.7 2.4-1.3 3.6-2 .4-.4 1.5-1.8.3-.2 3-3.8 8-5.5 12.5-3 5.4-4.1 13.8-11 18.5-14.2-9.8-5.6-35.6 18.6-51.6 27.7"/><path d="m345 227c.4-1.6.5-3.6.1-5.9-.1 1.9-.1 3.9-.1 5.9"/><path d="m354 232c-2-1.8-3.1-4.5-3-7.3 0-.2 0-.4 0-.6-2.9 4.3-5 9-6 9.6-.1-2-.2-3.9-.2-5.9-3.3 12-27 5.8-28.5 5.8-4.5 0-20.7 18-23.6 3.2 4.4.9 4.7-23.7 4.1-27-7.7-.8-5.7 26.5-7.1 30.9-3.3-4.2-9.6-11.3-14.8-10.8-1.3 1.7-1.4 2.9-.4 3.6-12.8-3.5-32.7-10.8-40.6-17-2.2 3.7 5.1 10.5 7.1 11.2-3.1-5.3 22 2.4 36.4 13 2.6.9 5 2.2 7.4 3.9 8.9 6.4 14.2 16 15.9 26.9.6 3.8.8 7.8.4 11.6.7 1.6 1.3 3.2 1.5 4.7 1.3-7.3 1.6-14.6 1-22 16.5 10.3-8.4-18.4-8.8-19.4 6.8 1.7 12.7 4.7 13-2.9 2.9 1.8 4.2 4.5 4.1 7.9 3.3 1.6 7.1-7.1 10.8-7.5-2.3 13.2-1.4 25.6 3.1 35.6.5-3.5.5-7 0-10.6 11 7.9 22-10.8 21.9-9.6 10.7-2.4 7-20.4 6.2-27m-43.9 5.9c1.2-.6 2.4.4 3.7.1 1.2 2.6-5.2 2.5-3.7-.1m21 24.4c-1.9-8.6-7.1-18 3.9-21.4 6.9 2.6 3.1 21-3.9 21.4m11-9.9c1.7-5-1.6-6.4-.5-9.9 5.2-.9 3.7 10.8.5 9.9m6.6-5.8c0-2.4.8-4.7.1-7 3.9-1.3 4 8.1-.1 7"/><path d="m382 155c3.4 12 5.5-.7 0 0"/><path d="m448 109c3-.6 6.1-1.2 9.1-1.8-.4 3.2-14.2 11.4-9.1 1.8"/><path d="m242 131c5.9 3.5 6.6 9.4 2.1 17.7-2.2-5.7-2.9-11.6-2.1-17.7"/><path d="m243 155c2.7 1.9 2.9 4.5.7 7.9 1.2.3 6.5-2.5 7-2.9 2.6 9 19 23.8 11.3 28.9-2.2-7.1-15.4-16-16.2-15.9-7.3-.9.4 27-10.4 24.4 2.4-12.6 2.9-32.6 7.6-42"/><path d="m325 175c12-1 6.1 1.9 2.7 7.9 3.2-.3 5.5 1.1 6.9 4.2-2.8-.3 6.1-7.9 8.3-7.8-.4 6-3.1 10.5-8 13.6-3.3-1.4-2.7-2.1 2-2-5.1-9-22.8-.3-11.9-15.9"/><path d="m267 193c.4.2 16.8 4.8 5.7 6.6 1.1 1.5 12.2 7.9 12.9 8-.3.6-9.5 4-11.7 4.2-2.5-2.4-6.4-19.8-6.9-18.8"/><path d="m286 223c3.8-3.8 3.2 6.1 3.1 8.3-1-2.8-2-5.5-3.1-8.3"/><path d="m307 247c8.5 5.9-4.6 8.5 0 0"/><path d="m318 266c4.4-1.2 3.6 7.5 2.1 7.2-3.6-2-4.3-4.4-2.1-7.2"/><path d="m358 274c-1.3-.2 12.8-27.9.7 10-.7-5.5-3.2-4.8-.7-10"/><path d="m345 276c1.8 4.3 1.4 3.2 0 0"/><path d="m324 286c5.1 9.8 6.7 18.2 3.1 27.5-1.2-14.3-3.5-17.2-3.1-27.5"/><path d="m330 292c4.1-2.6-.7 29-1.2 31.5-4.4-.8.6-26.9 1.2-31.5"/><path d="m308 307c6.5 6-2.1 15.6 0 0"/><path d="m334 319c-3-.9-4.3-7.4-.6-8.7.9 2.8.5 5.8.6 8.7"/><path d="m332 327c.9-5.5 2.4 15.2 0 0"/><path d="m84 59c0 0 0 0 0 0"/><path d="m104 99c-3-12.2-10.3-17.9-18.7-20.9 3.3 3 20 26.4 18.7 20.9"/><path d="m33 85c5.2 4.6 52 74 114 68.9-100-27.5-99-85-99-84 5 7.4 22.8 4.1 37 9.2-.3-.3-.5-.4-.6-.3 1.3-1.7 52 18.2 60.9 37.5 8.4-16.4-71-47.9-76-53.6 2.2 0 4.3-.1 6.5-.3-2.4 7.7 7.7.4 7.4-2.4-.7.4-19.3.7-17.6-5.3 18.6 4.2 4.5-2.2 3.6-7 3.7 1.2-2.5-4.4-5.5-4.3 2.8-3.5 9.6-11 20.5-18-8.7 4.1-21 14.6-31.7 20.9.2.6-27.6 32.6-20 39"/><path d="m85 24.8c81-37.8 79 16.5 100 23.6l5.2-32.9c-49-16.9-84-4.3-105 9.3"/><path d="m56 55c0 0 0 0 0 0"/></g><g><path d="m590 59c0 0-.1.1-.1.1 0 .1.1 0 .1-.1" style="fill:#33073b"/><g><path d="m480 6.6c-96 16-102 46-102 46 122-65 182 1.1 106 54 59.9-41.9 47-76 3.2-89 23.7 3.5 80 36.5 52.8 57 16.7-18-38.8-66-.8-52.8 0 0 40 16 15.8 48 19.3-33.8-59.8-56-9.3-54 .9-.3 38 38 26.9 62.8 32-17.8-70.9 56.8-80 70 150-103 57-137 57-137-9.1-9.1-43.7-7.2-70-5.1" style="fill:#33073b"/></g></g></g></svg>