<svg xmlns="http://www.w3.org/2000/svg" width="647" height="389" viewBox="0 0 646.5 388.7" style="enable-background:new 0 0 646.5 388.7"><g style="fill:#33073b"><path d="m316 91c10.7 1 27.4-1.5 36 1.5-12.6 7.8 16.7 25.7 27.5 30.4-.8-4-6.5-11.4-3-14 4.2 18.5 26.7 48 37.9 62.8.1-.3-9.6-4.8-10.7-5.7.2 2.4-17.5 42.6-23 36-1.8.9 22-64 2.3-75 1.4 11-7.8 9.6-7.3 11 1.1 3.5 8.4 5.5 5.4 11.4-2.7 5.2-6.5-16-12.3-9.5-1.3 4.4-2 12.3-2 16.2-8.8-7.6 11.6-34.4-6.9-33.4-.6-.1-42.5-13.6-27-15.9-28-11-16.5 8.8-38 6.4 6.1 9.9-7.4 16.2-16 14.6-16.9-3.2 1.5 24.3-8.4 25.5-.2-2 .1-9.7-4.2-8.2-4.5 8.4 3.7 8.9-.1 12.3-11-14-54 50.6-56.7 51-2.4-.6-1.3 9.5-2.3 11.4-8.6-3 49-117 59-117 .7 5.5-11.9 19.6-2.1 21.3-2.1-5.9 31.6-22 33-21.4-6.2-.5-7.8-2.2-4.7-4.9 10 .1 10.9-.9 23.6-6.7m19.7 7.8c7.2 6.6 9.8-.4 0 0m44 30c2.4 1-.1-6.6 0 0m-126 7.3c-1.4 1.8-7.8 11.6-7.2 13.9-.2-1 19.5-7.2 16-14.5-6.9 8.9 2.5-3.4-7.6 5.5-1.2-4.9-.8-9.7 1.4-14.3-3 2.5-3.8 5.6-2.6 9.4z"/><path d="m372 153c7.2 1.1-2.2 9.7 0 0"/><path d="m272 157c.9-5.6 7.4 3.3 0 0"/><path d="m363 158c8.9 1-2.6 16-2.1 22.7-10.9-.4.4-15.7 2.1-22.7"/><path d="m273 161c1.7 2 .6 2.1 0 0"/><path d="m279 162c.6 1 1.2 2.1 2 3.1-1.3 4.6-3.4-1-2-3.1"/><path d="m268 163c3.4 1.6 5 4.3 4.8 8.3-4.9-2.5-6.5-5.2-4.8-8.3"/><path d="m374 169c.6-1.1 8.4 2.4 0 0"/><path d="m255 169c5.2.7 9.4 10.6 0 0"/><path d="m268 171c1.2 0-1.1 15 0 0"/><path d="m281 181c.9-12.7 10.3-.9 0 0"/><path d="m279 184c7.5 9.2.6 11.9 15 8.3-1.2 5.3-16.6 19.3-8.1 32.6-.3.4-22.5 15.8-7.1 15.4-.4 3.1-7.6 5.2-10 8.7 6.4 4.1 8.1 11.5-4 14 2.9-4.8 32 24 13.7 24.9-3.2-5.4-25.6-34.8-21.4-40.5 20.4.6 7-19.7 6.6-28-.8-.6 5 9.1 6.5 8.2 7.6-1.5 7.7-35.7 8.7-43.5"/><path d="m238 187c2.4 1.7 4.8 3.4 7.2 5.2 2.3-3.7-7.6 11.8-6.8 11-8.2-8 3.6-9-.4-16.2"/><path d="m269 189c11.6-5.8 2 10.4 0 0"/><path d="m364 187c6.7 2.9-4.4 23.3-2.2 29.8-20.8 3.4-24.8 35-17.8 42-14.7 40-30.7-6.9-24.4-11.4-8.9 3.1-3.9.9-9.2-1-4-3-8.7 5.2-11.5 5.4-.8-.4-1.5-.9-2.2-1.4 4-.5-14.4-14.5-14.7-22.6 7.2 5 5.5-1.4 10-6 1.3 22 26 17.8 46.8 18.9 3.2-25.7 10.7-33 25-53.8m-46 55.8c.7 2.7 4.5 2.7 5.2 0-1.7-.1-3.5-.1-5.2 0m12.4 1.4c-1.8 1-7.8 3.4-5.6 7.5 3.6 6.7 9.2-12.4 5.6-7.5m3 6.9c-4.8 4.4-5.8 9.6-3.1 15.6 3 1.3 2.3-9.3 3-.9-2 5 9.6-20.7.1-14.7z"/><path d="m258 193c1.3.5 20.4 20.8 8.2 27.9 1.9-8.9-6.4-19-8.2-27.9"/><path d="m252 194c9.5 8.3-8.4 3.1 0 0"/><path d="m224 211c1-2.8 2.7-5.1 5.1-6.9-.1 2.7-3 18.2-8.1 17.7-2.1-3.9-1.8-10 3-10.8"/><path d="m374 210c1.7-3.3 4.4-4.6 8.2-4-2.3 2-5.3 3-8.2 4"/><path d="m207 221c6-6.9 3.1 15.7 0 0"/><path d="m382 258c-7.3-3.2-8.3-1.6-2.9 4.7-5.8-.9-10-6.8-10.8-11.3 10.5-.4-10-21.4-8.2-32m0 0c7 1.5-1.4 3.6 8.1 2.1"/><path d="m274 262c3.7-3.4 2.9 4.8.6 5.2-.5-1.7-.6-3.5-.6-5.2"/><path d="m367 269c.7-10 11.8 26.6 11.5 26-1.8.2-14.4-23.4-14.4-23.6 5.9 2.2 6.9 1.4 2.9-2.4"/><path d="m324 286c-3.7-18.7 6.5-2.4 0 0"/><path d="m325 290c1.1.1 1 61 .8 61-1.1-3.3 2.5-51.8 5.7-51.9 0 4.2-10.8 41.8-10.4 42.9-3.1-6.7 1.3-44.9 3.9-52"/><path d="m315 305c4-.4 2 3.8 1.8 6-3.4.9-1.4-4-1.8-6"/><path d="m315 324c-5.4 3.3 1.3 34.6 3.8 35.8 1.2-3.2-1.6-33-3.8-35.8"/></g></svg>