<svg xmlns="http://www.w3.org/2000/svg" viewBox="0 0 155.9 155" enable-background="new 0 0 155.9 155"><g fill="#020202"><path d="m64.4 0h28.6c-1 1.2-1.9 2.4-2.8 3.5-16.5.4-34 1.1-48.9 8.9-11.2 8.3-16.8 22-20.1 35.1-.6-3.9-1.9-7.8-1.2-11.7 2.1-6.6 5.5-12.7 7.8-19.2 2.3-5.8 6.6-10.3 10.9-14.6 2.9 1.3 5.9 3.8 9.3 3 5.6-1.3 10.8-3.7 16.4-5"/><path d="m97.5 0h7.2c6.4 8.8 14.8 16.9 17.3 27.8 2.3 12.3 9.1 24.1 7.5 36.9-.3 4.4-4.8 11.3 3.3 11.7-5 8.9-6.8 19.2-6.5 29.4-2.4.4-5.8-.5-7.2 2.1-2.7 5.1-4.2 10.9-4.3 16.7 3.2-5.6 6.2-11.3 9.3-17 1 7.1-2.8 13.1-6 19.1 12.3-.1 24.7-.4 37 .1v9.2c-12-.8-23.9-.8-35.9-.4-.7-3-1.4-6.1-2.3-9-1.4 2-2.9 4-4.6 5.8-.4 1.8-.7 3.6-1.1 5.4-5.1 2.9-9 7.2-12.9 11.5 8 .2 16.1 1.1 23.6 3.7.4.5 1.2 1.6 1.6 2.1h-10.6c0-1.9-2.7-1.9-2.7 0h-47.6c-7.7-.5-15.5-1.2-23.2-1.9 9.9-2 20-2.1 30.1-2.7-4.5-1.6-9.2-2.6-13.7-4.3-3.8-2.1-6.6-5.5-9.3-8.7 5.2 1.3 10.1 3.5 15.3 4.7 8.3.9 16.5-1.8 24.9-.5 3.3 0 7.2 1.9 9.9-.7 2.7-2.4 5.6-4.7 7.8-7.6.8-2.6.3-5.5.1-8.2 3 1.9 6.1 3.6 9.3 5.2-1.3-4.1-4.6-8-2.8-12.5 1.6-6.8 3.3-13.6 4.6-20.4 2.4 1.8 4.8 3.6 6.8 5.9.2.2.7.8.9 1 .1-10.4 3.2-20.6 2-31-2.7-18.8-3.8-38.8-14-55.4-3.8-6.7-10.4-11.2-13.8-18m-12.9 148.8c4.3-.1 8.6-.2 12.9-.4-4.3-1.1-8.6-.5-12.9.4z"/><path d="m77.5 38.9c2.1-2.1 4.3-4.1 6.8-5.7-.6 3.2-1.7 6.3-3.1 9.3 7.8 2.4 16.1 1.3 24 3.1 4.7 1 6.7 5.8 8 9.9-4.4.5-6.3-3.8-8.7-6.5-2.4.8-4.8 1.6-7.2 2.3.3-1.3.6-2.7.9-4-3.3 1.5-6.5 3-10 4-.9-.6-1.7-1.3-2.5-2-1.9 1.2-3.7 2.5-5.6 3.7-.5-4.7-.8-9.6-2.6-14.1"/><path d="m86.9 34.7c6.6-.3 13.2-.1 19.8.7 5.9 2.5 10.5 7.9 10.5 14.4-4.4-3-6.8-8.3-11.6-10.5-6-.2-11.8 1.5-17.6 2.7-.4-2.4-.8-4.9-1.1-7.3"/><path d="m37.8 39.7c7.2-1.8 15.1-4.5 22.4-1.5-1.2 1.3-2.2 2.8-3.6 3.8-6.8 1.6-14.3-.7-20.5 3-4 2.7-5.1 7.8-7.8 11.6-.5-6.8 2.3-14.8 9.5-16.9"/><path d="m61.5 38.2c.9-.1 2.7-.2 3.7-.2-.2 1.6-.3 3.1-.5 4.7-1.2-1.5-2.2-3-3.2-4.5"/><path d="m37.5 50.5c4.1-3.2 9.7-3.4 14.7-3.1 3.2.2 3.9 3.8 4.6 6.3-3.2-2.1-6.9-2.9-10-.2-.2-.8-.4-1.5-.6-2.3-.5-.1-1.6-.3-2.2-.4.5 1.2 1 2.3 1.5 3.5-4.7-.9-8.3 2-12.1 4.1 1.1-2.7 1.7-6 4.1-7.9"/><path d="m60.9 46.9c1.1.5 2.1 1.1 3.1 1.6-1 .3-2.1.7-3.1 1 1.1.5 2.3 1 3.4 1.5-1.5 0-3 0-4.6-.1.4-1.3.8-2.7 1.2-4"/><path d="m19.5 49.5c1.7 6.5.4 13.2 1.2 19.7.1 2.4 1.3 5 0 7.2-2.5 1.3-5.4 1.8-8.1 2.7 2.4 11.7 8.9 22.7 8.1 35-5.1-.7-10.2-1.3-15.1-2.7 3.6-.8 7.2-1.6 10.8-2.4-.9-7.5-3.1-14.7-5.8-21.7-1.3-2.4.9-4.7 1.6-7-1.2.1-2.3.3-3.5.4 1.9-3.3 5.3-5.2 8.8-6.5-.7-8.2-.3-16.7 2-24.7"/><path d="m80.9 53.6c3.5 5.2 7.3 10.5 8.2 16.9-3.9-5-7.5-10.5-8.2-16.9"/><path d="m97.5 57.5c2.6-.4 7.9-1.3 10.5-1.7 0 .9-.1 2.6-.1 3.5-3.5-.5-6.9-1.1-10.4-1.8"/><path d="m40.4 62.9c2.6-1.3 5.4-1.8 8.2-1.8-2.6 1.3-5.4 1.8-8.2 1.8"/><path d="m75 79.3c4-1.6 7.7-4.2 11.9-5.1 6.6 1 6.5 10.6 1.4 13.7.9 1.5 1.8 2.9 2.6 4.4-3.4-.3-6.6-1.5-9.9-2.2-1.9-3.6-4.1-7.2-6-10.8m8.5 4.8c-1 1.3 1.2 2.9 2.2 1.6 1-1.3-1.2-2.9-2.2-1.6z"/><path d="m60.8 81.2c3.9-1.6 7.9-3.2 11.9-4.5.5 1.5 1 3 1.5 4.5-4.1 1.8-8.3 3.3-12.4 4.9-.3-1.6-.6-3.2-1-4.9"/><path d="m17.4 84.5c.7-.4 2.1-1.3 2.7-1.8.6 2.2 1.3 4.5 1.9 6.7-1.6-1.5-3.1-3.2-4.6-4.9"/><path d="m56.4 95.9c4.2-1.2 8.1-3.4 11.5-6.1.4 1.1.8 2.1 1.3 3.2-4.4 1.8-8.9 3.3-13.4 4.9.1-.5.5-1.5.6-2"/><path d="m75 98.9c8.6-1.9 18.2-.9 25.4 4.5-.9.8-1.8 1.6-2.7 2.4-7.2-.9-14.5-2.2-21.8-1.2-8.8.2-17.1 3.6-25.8 4.6 1-1.6 1.5-4.3 3.8-4.3 7.5-.5 13.6-5.7 21.1-6"/><path d="m105.5 97.2c4.1 3.1 3.4 8.2 2.6 12.7-3.7-3.3-2.9-8.3-2.6-12.7"/><path d="m26.9 118c-4.9-3.3-.9-9.4.4-13.8.3 4.6.6 9.3-.4 13.8"/><path d="m64.2 115.4c7.3-5.7 17.6-1.8 25.9-3.4 0 .7-.1 2.1-.2 2.8-4 2.3-7.9 5.5-12.8 5-4.5-.7-8.7-2.7-12.9-4.4"/><path d="m5.1 125.2c8.9-.4 17.8-.9 26.7-1.2.5 10.5 1.8 21 4.9 31h-24.9c0-1.9-2.7-1.9-2.7 0h-5.3c-.2-.9-.4-1.9-.7-2.9 2.6.1 5.1.2 7.7.3-3.5-2.6-7.2-4.9-10.8-7.4v-1.7c4.4 2.2 8.9 4.3 13.3 6.4 4.6 2.1 9.9 1.4 14.8 1.8-.2-1.7-.3-3.3-.5-5-4.1.4-8.4 1.1-12.5.4-4.2-1.5-7.2-5.1-10.6-7.9 3.9 1.6 7.6 3.6 11.6 4.9 4.1 1.3 8.5 0 12.6-.6-1.7-1.4-3.2-3.2-5.4-4-2.6-.1-5 1.1-7.6.9-3-.8-5.7-2.3-8.5-3.6 6.8-.5 13.6-.7 20.3-.9.2-1.5.3-3 .5-4.5-7.5 0-15.1 0-22.6-.1 0-2.1-.2-4-.3-5.9"/><path d="m37.5 128.4c1.9.1 4.4-.5 5.5 1.7 2.4 2.4.4 5.8.1 8.7-2.6-3.1-4.3-6.7-5.6-10.4"/><path d="m87.5 141.3c1.9-1.9 4-3.7 6.2-5.3-1 2.8-3.3 4.5-6.2 5.3"/><path d="m118.7 138.7c12 1.7 24.2 1.2 36.3 1.3v4.8l-1 .3v4.8l1 .3v4.8h-2.6c-9.6-.7-19.8-1.1-27.8-6.9 9.9-.2 19.7 2 29.6.8-2.1-1.7-4.2-3.7-7.1-3.8-9.6-.4-20.2-2.9-28.7 3.2.2-3.2.1-6.4.3-9.6"/></g></svg>