<svg xmlns="http://www.w3.org/2000/svg" viewBox="0 0 155 155" enable-background="new 0 0 155 155"><g fill="#020202"><path d="m10.5 0h1.8c-.4 2-.8 4-1.1 6-1.2-.1-2.4-.2-3.6-.2 1-2 1.9-3.9 2.9-5.8"/><path d="m29.7 0h8c-.6 7.6-2.9 14.9-3.4 22.5-3.5-.9-7.1-1.5-10.7-2.1 2.6 3.7 6.2 7.5 11.3 5.7 6.8 1.6 5.7-7.1 6.6-11.3 2.8 4.6 5 9.6 7.6 14.4 2 3.8 6 5.9 9.8 7.7-.2-1.9-.4-3.7-.7-5.6 3.3 3.1 7 5.7 10.8 8.1 0 2.6.1 5.3.1 7.9-2.5-1.9-4.8-4.3-7.9-5.4-4.3-1.3-8.9-1-13.3-1.2-2.5-4.6-5-9.5-4.3-14.9-6 3.1-7 10-9.3 15.7 3.9 2 7.7 5.1 12.3 5.2 1.5-1.2 2.6-2.7 3.9-4.1 4.4 3.2 7.6 7.6 9.2 12.8.6 3 4.1 2.7 6.3 3.2 3.6-2 7.7-2.4 11.6-3.3-3-2.1-6-4.3-8.9-6.6 3.6 0 7.3.1 10.9 0-1.8-1.3-3.6-2.6-5.5-3.8 2.2-1.8 4.4-3.6 6.6-5.4-3.8-.6-7.5-1-11.3-1.3 4.3-3.5 8.9-7.9 14.8-8.1 4.9.4 9.8 1 14.7 2-2.5 2.9-5.4 5.5-7.5 8.8-.5 3.3.9 6.6 1.4 9.9-2.2-1.4-4.4-2.8-6.6-4.2 1.1-2.7 2.2-5.3 3.1-8.1-3 2.1-6.5 4-8.2 7.5-.5 3 1.2 5.9 1.2 8.9-3.1 3.8-7.9 5.6-12.3 7.2-5.8 2.2-11.5-1.3-16.5-4 1-1.1 1.9-2.2 2.9-3.3-6.6-4-14.1-8.8-22-5.3-2.3-3.4-3.8-7.5-7.4-9.5-3.2-1.9-6.5.7-9.6 1.7 1.2 2.6 2.4 5.1 3.7 7.7-3.7-.6-7.4-1-11.1-1.4-1 4.8-1.7 9.6-2 14.5 2.7-3.3 5.4-6.7 8-10.2 2.9 1.2 6.8 1.4 8.9 4 1.6 3.2-.3 6.6-1.3 9.7-1.2-3.7-2.4-7.4-3.6-11.2-1.2 5.7-2.6 11.5-6.9 15.9-2.6-2.9-5.5-5.7-7.4-9.2-.4-6 1.2-12 1.1-18-2.4-2.4-4.5-4.9-6.5-7.5 4-1.4 8.2-5.7 12.6-4.1 1.9 3.1.9 7.2 2 10.7 5.4-3.7 7.5-10.1 10.4-15.6-2.8-.6-5.7-1-8.6-1.2 1.7-3.8 2.6-8 1.9-12.1 4.6 1.1 9.3-.2 14-.4.7-3.7 1.2-7.3 1.6-11.1-3.1 3.2-6.1 6.5-9.3 9.5-1.6-3.2-3-6.5-4.3-9.9 1.1 1.2 2.2 2.5 3.3 3.8 1.9-1.9 3.8-3.8 5.8-5.6m-1.5 31c-.2 1.5-.7 4.4-.9 5.9.6.4 1.8 1.3 2.4 1.8 1.4-2.3 2.6-4.9 3.3-7.6-1.6 0-3.2-.1-4.8-.1m31.3 6.2c-.4 1.4 0 1.9 1.4 1.4.5-1.4 0-1.9-1.4-1.4z"/><path d="m40 0h16.7c.6.3 1.7.9 2.3 1.2 5.8.9 9.8 5.6 12.1 10.8-4.8-1-9.5-2-14.2-3.4-1.6 2.3-3.1 4.6-4.6 6.9.5-3.8 1.4-7.6 2.4-11.3-.9-.9-1.9-1.7-2.8-2.6-1.8 2.6-3.4 5.3-5.1 7.9-2.3-3.1-4.5-6.3-6.8-9.5"/><path d="m70.2 0h3c3.8 1.7 7.5 4.3 11.8 4.5 2.4-1 4.3-3 6.5-4.5h6.5c.7.9 1.4 1.8 2.1 2.7-3 .6-5.9 1.2-8.9 1.9 2.2 2.3 4.5 4.4 6.9 6.5-8-.8-16.1-1.9-24.2-2.2-.7-3.2-1.9-6.2-3.7-8.9"/><path d="m125.5 0h8.8c.5 2 3.1 2 3.6 0h8.9c.2 1.5.5 2.9.8 4.3 1.2-1.4 2.4-2.9 3.7-4.3h2.9v29.6c-2.3-3.6-4-7.5-5.6-11.4-2-.5-4-1.1-5.9-1.7 1.2-2 2.5-4 3.8-6-4.3-1-7.4 1.8-10 4.8-1.8-.9-3.3-2.2-4.9-3.4-3.8 1.4-7.6 2.9-11.5 4 2.8-4.4 7.7-6.2 12.3-8.1-.4-1.3-.7-2.6-1.1-3.8-1.9.6-3.7 1.2-5.6 1.8-.1-1.9-.1-3.9-.2-5.8"/><path d="m98.5 7.5c6.7-4.6 14.8-5.9 22.7-4.5-3.8 8.7-15.8 4.4-22.7 4.5"/><path d="m38.5 6.1c2.9 3 2.6 6.8-.3 9.7-.5-3.3-.2-6.5.3-9.7"/><path d="m7.2 7.9c1.3.4 2.6.8 3.8 1.2-.5 2.6-1.5 5.2-1.8 7.9 1.3 1.9 3.2 3.4 4.5 5.3-.5 1.1-1.2 2.2-1.9 3.2-.1-.8-.4-2.4-.6-3.2-2.1 2.1-4.5 4-7.6 4.5-1.1-6.5 1-12.9 3.6-18.9"/><path d="m43.1 11.1c2.3.1 4.5.2 6.8.2.4 1.2.9 2.4 1.3 3.6-2.7-.3-5.4-.6-8-1 0-.6 0-2-.1-2.8"/><path d="m54.5 18.8c3.5-1.9 6.5-4.7 10.2-6.3 4.6 3.5 10 5.6 15.4 7.4 1-1.6 2-3.2 2.9-4.8 2.6 2.6 5.6 4.9 8.9 6.6-1 1.1-2.1 2.3-3.1 3.4-4.5-.5-8.9-1.2-13.4-1.9-.2.3-.7.8-1 1.1 1.4 1.1 2.7 2.1 4 3.2-3 .8-5.9 1.7-8.9 2.5-.1-3.3.7-6.9 4.5-7.6-3.5-1.9-6.9-3.9-10.5-5.6 1.9 3.2 4.3 6 6.3 9.2-3.1.2-6.3 1-9.4.6-3.3-1-4.9-4.7-5.9-7.8m5.1-1.4c-.2 1.9-.4 3.8-.6 5.7.9 0 2.7-.1 3.6-.2-1-1.9-2-3.7-3-5.5z"/><path d="m103 13.9c3.3-.8 6.7-1.4 10.1-1.9.8 1.8 1.3 4.4 3.7 4.9 4 1 8.2 1.3 12.2 2.6-6 3.6-13.4 1.5-19.9 1.1-3.7-.1-4.6-4.2-6.1-6.7"/><path d="m100.7 18.1c1.4-2.2 3.2 1.9.6 1.3-.2-.3-.5-1-.6-1.3"/><path d="m132.4 18.7c4.3.5 8.1 2.7 12.1 4.2-1.9 1.4-3.8 2.8-5.7 4.2 2.6 1 5.2 2 7.8 3-.2 5.5.7 11 3.7 15.6-.1-3-.3-5.9-.4-8.9 1.4-1.8 2.8-3.6 4.2-5.4v10.7c-1.9 0-1.9 2.7 0 2.7v3.6c-5.6-2.3-11.7-3.3-17.7-3.3-.3 4.5-.7 9.1-3.3 13-1.1-2.8-1.8-6-3.8-8.4-2.6-2.4-6.3-3.1-9.6-4 2 5.7 4.5 11.4 8.8 15.8 2.4 2.2 2.7 5.5 2.9 8.5.4-.1 1.3-.3 1.7-.4 2.6-6.4 8.9-12 6.6-19.6.4-.8.9-1.5 1.3-2.2.8.7 1.5 1.5 2.3 2.2-.4 3.9-.6 7.8-.1 11.7 3.6-3 7.4-5.8 10.6-9.2v11c-2 .5-2 3.1 0 3.7v1.8c-3.5-1.4-6.8-3.2-10.2-4.8-2.1 1.1-4.2 2.2-6.4 3.2 1.3.9 2.5 1.8 3.8 2.7-.5 1.3-.9 2.7-1.4 4-2.4-.6-4.9-1.2-7.3-1.9-1 7 .7 13.7 3.7 20-3.3 3.6-9.1 5.4-10.4 10.6-1.2 6.2-4.8 12.2-4.5 18.7 1.4 4.6 2.4 9.4.1 13.9 3.7 4.9 6.8 10.8 12.6 13.6 4.6 2.7 9.8 4.2 14.9 5.6-.1-3.2-.1-6.3-.1-9.5-3.9.2-7.9 0-11.6-1.3 3.1-.6 6.2-1 9.4-1.3 1.1-3.1 2.3-6.1 3.7-9-5.2-3.9-10-8.6-15.6-12-3.3 3.1-4.9 7.6-7.5 11.2-.4-7.3 3.3-13.7 5.4-20.5.5 0 1.6 0 2.1 0 1.1 3 2.1 6.1 3.2 9.1 2.3-.1 4.8-.9 7.1.1 3.8 2.8 6.4 6.9 9.1 10.7v22.9h-25.6c-1.4-3.9-2.6-7.9-4-11.8-2.6 3-5.9 5.4-9.9 6.2 2.2-2.4 4.4-4.6 6.7-6.9-1.7 0-3.3 0-5 .1.8-5 3.3-9.6 4.1-14.6.5-3.2-3.4-5-4.8-7 .1-6.9.9-13.8 2.6-20.4 2-6.5 7.1-11.7 8.7-18.3-1.7-3.5-3.8-6.8-5.8-10-5.9 1.2-12 1.3-17.9 2.6-2.2.3-3.7 2.6-3.4 4.7.5 4.1 2 8.1 3 12.1-3.3 2.7-6.8 4.9-10.6 6.7 1.6-3.4 3.4-6.8 5.1-10.1-1.3-.4-4-1.2-5.3-1.6.7-1.6 1.4-3.1 2.1-4.7-3.1-3.2-5.5-7-8.6-10.2.9-5.4 1.5-10.8 3.1-16 .7.2 2.1.6 2.9.8.2 3.4.4 6.9.9 10.3 3-5.5 1.7-12.1 4.3-17.7-.6-2-1.3-4-1.9-6 2.5 1.9 5.2 3.7 6.9 6.3 0 3.9-1.9 7.5-3 11.2 2.7-2.1 6.1-3.6 8.2-6.3 1.2-4.4 1.2-9.2.3-13.7 2.6-.6 5.2-1.3 7.8-2.1-3.2-2.1-6.5-4.1-9.7-6.1.7-.8 1.4-1.5 2.1-2.3 3.1.2 6.2.5 9.3.7-.1-1.1-.2-2.2-.2-3.3 2.6-.1 5.4.3 7.9-.7 3.2-2.3 4.8-6.2 8.2-8.2m2.9 10.5c-.5 1.6 0 2.2 1.7 1.7.5-1.7-.1-2.3-1.7-1.7m-15.6 1.5c-1.6 4.7-2.9 9.5-2.9 14.6 1.1-.8 2.2-1.7 3.3-2.5-.2-1.5-.4-2.9-.7-4.4 2.5-.2 5.1-.6 7.6-1-.3 1.4-.6 2.9-.8 4.3 1 .9 2.1 1.8 3.1 2.6 1.7-2.3 3.4-4.6 5-6.9-1.5-2.1-2.8-4.3-4.5-6.2-2.5 0-7.5-.3-10.1-.5m18.1 6.5c-1 1.7 1.9 3 2.9 1.5 1-1.7-1.9-3.1-2.9-1.5m-15.5 3c-.9 4 4-1 0 0m-11.3 4.8c.6 2.4 1.1 4.8 1.7 7.2-1.2.5-2.5.9-3.7 1.4.8 1.9 1.6 3.7 2.4 5.6 2.7-.5 5.4-1.1 8.1-1.7-1.5 2.1-3.1 4.1-4.4 6.3-5.3-.5-10.6-1.3-16-1.4 2.8 2.7 5.5 5.5 7.9 8.6 3.7-1.7 7.6-3 10.8-5.7 2.5 1.7 4.8 3.7 6.5 6.3.6-.2 1.3-.5 1.9-.7-.7-3.6-.8-7.4-2-10.9-2.1-3.2-5.7-5-8.5-7.3-.1-2.9-.3-5.8-.4-8.8-1.6.3-3 .7-4.3 1.1z"/><path d="m95.1 19.9c4.5.7 9.5.9 12.9 4.3 2.5.2 7.4.8 9.9 1-8.3 2.2-17.4 4.1-26 2.2 1.1-2.6 2.2-5 3.2-7.5"/><path d="m96.7 37c1.8.4 3.5.8 5.2 1.2.3 1.6.7 3.1 1 4.7-2.9-1-4.9-3.2-6.2-5.9"/><path d="m62 52.2c.9-1.2 3.3 0 2.5 1.4-.9 1.2-3.3 0-2.5-1.4"/><path d="m33.5 57.7c2.8-6.2 11-5.2 15.4-1.3-5.1.4-10.3.8-15.4 1.3"/><path d="m39 63.7c8.5-6 17.8 2.5 23.7 8.4-3.7.7-7.4 1.5-11 2.6-1.3-3.1-2.3-6.3-3.3-9.6-2.7.5-5.3 1.1-8 1.7-.5-1-1-2.1-1.4-3.1"/><path d="m143.1 68c1.1-.4 2.1-.8 3.2-1.2-.7 3-1.4 6.1-2.2 9.1-.8-.3-1.7-.7-2.5-1 .6-2.2 1.1-4.6 1.5-6.9"/><path d="m39.9 67.4c2.7 2.2 5.4 4.5 7.9 7-4.4.9-9.5-.7-7.9-7"/><path d="m9.1 83.6c-.2-4.5 1.6-8.7 4.9-11.6.8 4.8-1.6 8.7-4.9 11.6"/><path d="m87 114.4c-5-11.5-14.7-24.9-7.2-37.3 2.5 2.7 5.3 5.5 5.8 9.3.2 3.6-1 7.1-1.5 10.6 1.7.9 3.3 1.8 5 2.8 1.1 1.8 1.9 4 3.8 5.2 4.2 1.9 7.3 5.8 8.7 10.2-.4 2-1.6 3.8-2.9 5.3-2.6 0-5.1-.8-7.6-1.1.9-2.6 2.4-5.1 2.5-7.9-.8-2.7-2.8-4.9-4.6-7-.9 3.1-1.5 6.4-2 9.9"/><path d="m136.7 79.2c2.1 0 4.3-.1 6.4-.2 0 1.5 0 4.4 0 5.9-1.6 0-4.9 0-6.5.1.1-1.9.1-3.8.1-5.8"/><path d="m105.5 80.2c5.7 1.7 2.7 7.5 1.2 11.5-.7-.5-2-1.5-2.7-1.9.5-3.3 1-6.5 1.5-9.6"/><path d="m121.3 82.1c.8 0 2.4 0 3.1 0-1.4 1.4-2.8 2.7-4.3 4.1.4-1.4.8-2.7 1.2-4.1"/><path d="m8.8 85.2c3 1.5 4.7 4.3 4.6 7.7-2.7-1.8-4.1-4.6-4.6-7.7"/><path d="m9.5 101.6c3.2-4.8 3.8-11.7 9.4-14.5-1.2 5.1-3.1 10.3-2.6 15.7 1 1.4 2.9 1.5 4.5 1.7 6.8.5 13.5 1.8 20.2 2.7 0 .7.2 2 .2 2.7-6.8-1.1-13.8-1.2-20.5-2.5-4.4-.6-7.6-3.6-11.2-5.8"/><path d="m143.9 93.7c1.5-2.2 3.4-4.1 5.8-5.2-1.2 2.4-3.3 4.2-5.8 5.2"/><path d="m105.4 94.9c1.6-3.4 4.8-4.1 8.1-2.8-2.6 1-5.3 2-8.1 2.8"/><path d="m143.5 103.1c-.6-3.5-.1-6.9 1.5-10 .3 3.4 1.1 7.2-1.5 10"/><path d="m101.5 105.6c-1.2-5 4.6-7.3 8.5-8.2 1.1 3.7 2.2 7.4 3.2 11.2-1.9 1.4-3.8 2.7-5.7 4.2 1 2.3 1.9 4.7 2.7 7.1-4.7-3.4-6.7-9.1-8.7-14.3m7.8-.4c-1.8.4-.9 3.2.8 2.8 1.8-.4.9-3.3-.8-2.8z"/><path d="m133.2 103c1.2-.4 2.3-.7 3.5-1.1-1.2 2.3-2.4 4.6-3.8 6.9 0-1.9.1-3.9.3-5.8"/><path d="m140.2 105.2c.7-.9 1.4-1.8 2.1-2.7 1 1.4 2 2.8 3 4.2-1 .8-2 1.6-3 2.4-.7-1.3-1.4-2.6-2.1-3.9"/><path d="m59.5 109.4c1.2-1.3 3.4.8 2 2-1.2 1.4-3.3-.8-2-2"/><path d="m14.5 111.1c2.3 1.1 4.6 2.3 6.9 3.4-1.4 1-2.9 2-4.3 3.1.2 3.8-1.5 8.7 1.6 11.9 5.2 6.2 14.2 6.3 21.6 7.2 11.7-.9 22.9-4.8 34.2-7.5-4.1 2.6-8.2 5.8-13.2 6.4-7.1.8-13.8 3.7-19.7 7.6-.3-1.2-.5-2.4-.8-3.6-8.8-1.1-19.5-.9-25.3-8.9-1.9-6.3-.4-13.1-1-19.6"/><path d="m88.8 127.4c2.3-2 4.9-3.8 7.4-5.7.5 4.8 2.5 9.3 2.5 14.2-2.5 1.4-5.4 1.8-8.2 2.3 1-2.2 2.1-4.4 3.3-6.5-1.6-1.4-3.3-2.8-5-4.3"/><path d="m102.8 125.2c1.7-1.3 3.4-2.6 5.2-3.8 2.1 2.8 4.2 5.6 6.3 8.4-1.3-.3-2.7-.6-4-.9 1.1 2.2 4.7 5.9 1.6 7.8-5.7 1.1-7.7-5.3-10.8-8.7 1.7.3 3.4.6 5.1.9-.1-.6-.2-2-.3-2.6-.8-.2-2.3-.8-3.1-1.1"/><path d="m74.8 130.2c2.3-2.5 4.7-4.9 7.4-7 2.4 6.5-3.9 5.9-7.4 7"/><path d="m138.6 130.9c1 .4 1.9.9 2.9 1.3-2.2 4.1-4.6 8.1-6.9 12.1-2.8-2.2-5.1-5-6.9-8 3.1.1 6.2.1 9.4.1.5-1.9 1-3.7 1.5-5.5"/><path d="m108.8 155c-1.9-5.6-4.1-12.2.6-17.1 1.1 5.6 1.5 11.4 2.5 17.1h-3.1"/><path d="m91.1 146.5c3.1-4.3 10.2-4.1 14.1-.9-4.6 1-9.4 1-14.1.9"/><path d="m82.3 145.4c2.9 0 5.7 0 8.6.2-2.5 1.5-5.3 2.6-7.9 3.8-.2-1.4-.4-2.7-.7-4"/><path d="m47.8 147.2c1.1.6 2.1 1.4 3.2 2.1-1.7.6-3.4 1.3-5 1.9.5-1.3 1.1-2.7 1.8-4"/><path d="m53.3 147.4c1.9.1 1.7 3.3-.1 3.3-1.9 0-1.7-3.2.1-3.3"/><path d="m79.3 147c2-.7 2.6 2.5.7 2.9-2 .7-2.6-2.5-.7-2.9"/><path d="m42.4 155c1.6-.7 3.1-1.5 4.6-2.2 1.1.8 2.1 1.5 3.2 2.2h-7.8"/></g></svg>