<svg xmlns="http://www.w3.org/2000/svg" viewBox="0 0 155 155" enable-background="new 0 0 155 155"><g fill="#020202"><path d="m63.2 0h6c0 1.6 0 3.2.1 4.8-2-1.6-4-3.3-6.1-4.8"/><path d="m86.9 0h1.8c-2 2.5-3.7 5.1-5.4 7.7-2.9-1.8-5.9-3.6-8.8-5.4 4.1-.9 8.3-1.6 12.4-2.3"/><path d="m100.2 0h1.6c1.1 2.3-2.8 2.3-1.6 0"/><path d="m88.2 1.8c2.3-.2 4.6-.4 6.9-.6-2 1.8-4.4 3.1-6.7 4.4-.1-.9-.2-2.8-.2-3.8"/><path d="m130.8.2c1.8 2 3.1 4.2 4.1 6.6-.9 0-2.8 0-3.7.1-.6-1-1.3-2.1-1.9-3.1.5-1.2 1-2.4 1.5-3.6"/><path d="m142 3.4c3.9-1.4 8-2 12.1-2.1v5.5l-1 .3v4.8l1 .3v20.8c-3.7-4.3-8-8-11.8-12.2 2.9-.1 5.9-.2 8.8-.4-3.1-3.3-7-5.6-10.9-7.8.1-1 .2-2.1.3-3.2.6-.1 1.8-.2 2.4-.3 1.6 1.8 3.1 3.7 4.8 5.5 1.8-2 3.6-4 5.2-6.1-3.6-1.7-7.3-3.3-10.9-5.1"/><path d="m47.3 6.6c1.6-3.3 5.1-4.9 8.6-5.4l.2 5.5c-2.9-.1-5.9-.1-8.8-.1"/><path d="m93.8 5c3-.5 5.9-1 8.9-1.6 1.4 2.3 4 7.8 6.9 4.1 4-6.1 13.8-5.1 17.2 1-1.1.4-2.2.8-3.3 1.2-1.3-1.2-2.5-2.5-3.8-3.7.6 2.5 1.5 4.9 2.2 7.4-2-.1-3.9-.9-5.8-1.4-2.6 1.8-5.4 3.2-8.3 4.2.1 1.2.3 2.5.4 3.8-2.9-2.9-6.5-5-10.8-4.7-.1-.5-.2-1.4-.2-1.8 1.1.1 2.3.1 3.4.2.9-2.2 1.9-4.5 2.8-6.7-2.4.6-4.8 1.1-7.2 1.7-.9-1.2-1.7-2.4-2.4-3.7"/><path d="m69 13.2c1.3-1.8 2.7-3.5 4-5.3.4 1.3.8 2.7 1.2 4-1.7.4-3.4.9-5.2 1.3"/><path d="m78.1 8.6c2.1 1.3 4.2 2.7 6.3 4.2 1.1-.5 2.1-1 3.2-1.5-.5 1.2-1 2.5-1.5 3.7-1.7 0-5.1-.1-6.8-.1-.4-2-.8-4.1-1.2-6.3"/><path d="m134.3 9.4c1.5-.3 2.3 2.3.7 2.6-1.6.3-2.3-2.3-.7-2.6"/><path d="m48.5 13.1c1.9.5 3.9 1 5.8 1.5-1.2.2-2.3.4-3.5.6.1 2.2.1 4.4-.2 6.7-1.5-2.8-2.2-5.8-2.1-8.8"/><path d="m123.4 12.8c3.9 3 8.2 5.7 11.8 9.2 3.7 4.5 2.4 10.6 1.1 15.7.5-7.5-5.5-12.5-8.3-18.9-2 .4-4.1.9-6.1 1.4 1.5 9.7-2.2 19.2-1.4 28.9l-4.2-.2c.4-6.5 1-12.9 2.1-19.3.3-3.3-3.5-7-.5-9.8 1.1-2.1 3.5-2.1 5.5-2 0-1.2 0-3.7 0-5"/><path d="m58.1 14.7c2.3 1.5 4.8 2.8 6.9 4.5-1.4 3.1-4.2 5.2-6.3 7.8-.6-4-.6-8.2-.6-12.3"/><path d="m78.2 23c6.3-.9 13.2-1.5 17.4-6.9-2.9 5-6.3 9.6-9.7 14.3-2.7-1.4-5.3-2.9-7.9-4.4.1-.7.2-2.2.2-3m5.1 2.3c-1.5 1 .2 3.5 1.6 2.4 1.5-1-.1-3.6-1.6-2.4z"/><path d="m72.1 20.1c1.6.1 3.2.2 4.8.3-.5 1.9-1 3.9-1.5 5.8-1.1-.8-2.2-1.5-3.3-2.3.1-1.3.1-2.5 0-3.8"/><path d="m110.1 22.6c1.3 2.3 1.9 5 .2 7.4-2.2 4-2.6 9.9-7.3 12-2.3 1.1-4.9.2-7.2.1 2.4-1.4 5-2.6 7-4.7 1.9-3.5 1.7-7.6.7-11.3 1.1.1 2.3.2 3.4.4 1.1-1.3 2.1-2.6 3.2-3.9"/><path d="m71.5 31.8c1-1.8 2.1-3.6 3.3-5.3.2 1.9.3 3.7.4 5.6-.9-.1-2.7-.3-3.7-.3"/><path d="m42.9 34.4c2-3.7 5.6-6.1 9.8-6.5-3.1 2.3-6.4 4.5-9.8 6.5"/><path d="m60.5 28.2c4.4 3.4 7.2 8.7 12.1 11.4 2 1 3.3-1.5 4.7-2.5 2.5-2.8 6.8-2.4 10-3.3-1.6 1.5-4.8 4.5-6.4 6 3.4.5 6.9.6 10.3.5 0 .7-.2 2-.2 2.6-7.2 3.3-14.5-1.4-21.9-1 1.9 1.8 3.8 3.6 5.7 5.5-1.5-.1-3.1-.2-4.6-.3.6 1.2 1.2 2.4 1.7 3.6-1.6 2.3-3 4.7-4.4 7.1 1.4 1.9 2.8 3.8 4.1 5.8-3.6.8-6-1.3-7.3-4.7-1 3.8-3.2 7.2-6.4 9.5-3.9 3.4-5.4 8.5-7.9 12.9 5.9.4 12 1.8 17.8 0-.8-1.8-1.4-3.7-2.5-5.3-2.8-1.1-5.9-.9-8.8-1.4 2.5-2.6 5.3-4.9 8-7.2 1.2.8 2.4 1.6 3.6 2.4.6-.9 1.2-1.8 1.8-2.7 1 7.1 2.4 14.1 2 21.3-3.5 2.4-6 5.9-7.8 9.7-2.2-2.5-2.6-5.8-2.5-9.1-6.8-1.8-14.3-2.2-20.1-6.5-.8-2.3 1.5-4 2.6-5.7 6.6-7.5 8.2-18.3 16.8-24.2 2-2.1 1.5-5.3.9-7.9-1.3-5.3-1.5-11-1.3-16.5"/><path d="m126.7 32.2c1.2-.5 2.5-1 3.8-1.5.8 3.3.9 6.9 2 10.1 1.5.3 3.1.2 4.6.2-.1 2.5-.2 5-.3 7.4-4.7-4.5-7.5-10.4-10.1-16.2"/><path d="m154.1 60.4c-.4-7.6-.8-15.2-1.2-22.7-4.7-1.2-9-3.6-13.2-6 1.3 5.7 5.2 10.2 11.5 10.6-2.8.4-5.7.6-8.5.7 1.5 2.5 3.1 4.9 4.4 7.6l3.3.7c-2.6 1.4-5.1 2.8-7.7 4.2 4.1 9.2 6.9 19.3 6.2 29.4-.9 6 4.9 11.5-.2 17.2-1.8-2.2-3.5-4.5-5.2-6.6-.5.9-.9 1.9-1.4 2.8-1.1-.3-2.2-.6-3.4-.9 2.1 2.4 4.2 4.7 6.5 6.9-.9 1.5-1.8 3-2.7 4.4-1.7-.9-3.5-1.9-5.2-2.8-.9 5.3 2.1 9.8 4.2 14.4-1.8-1.3-3.5-2.8-5.2-4.2-.8 1.7-1.7 3.5-2.5 5.2 1.5 0 3-.1 4.5-.1-.1.7-.3 2-.4 2.6-2.5.4-4.8.8-7.3 1.2-2.5-3.8-7.1-3.4-11.1-2.9 5.8 2.5 11.5 5.3 16.3 9.5-4.9-.5-8.9 2.1-11.4 6.2 1.4.2 2.7.4 4.1.5 1 2.9 2 6.2 5.5 7.2-1-4.2-.9-8.6.8-12.6.8 3.8 3.3 7.5 3 11.5-.9 4.8-8.2 3-11.5 5.1.6-1.5 1.2-3.1 1.8-4.6-3.1 1.8-6.2 3.3-9.4 4.9-.5-1.5-1.1-2.9-1.6-4.4-3.5 2.1-7.4 3.5-11.3 4.8 1.4-1.1 2.8-2.2 4.2-3.4-1.3-.7-2.6-1.5-3.9-2.2 4.8-1.1 9.6-2.1 13.9-4.7-2.3-.6-4.7-1.6-7.1-.8-3.8 1.2-7.2-1.3-10.2-3.2.8 4.5 1.8 8.9 2.3 13.4-2.4.1-4.9.2-7.3.3 1.5-3.1 2.9-6.2 3.9-9.5-4.8 1.5-9.9 2.7-15 2.5 4.2-12.1 2.7-25.1 4.1-37.5 4.1-7.6 9.1-14.7 14.2-21.7 1.7-2.5 4.5.3 6.7.6 2.9 1.5 5.6-1 8-2.3-1.8.3-3.7.6-5.5 1-2.2-3.7-6.2-8.3-11.1-6.2-3.7 3-5.3 7.9-7.7 12 .7.5 1.4.9 2.2 1.4-1.8.6-3.6 1.1-5.2 2.2-.6 2.5-.3 4.9-.3 7.3-2.7 1.9-7.8 3-6.9 7.1 1.2 5.6 3.4 11.5 1.3 17.1-1.7 4.4.9 8.9 1.8 13.2-2.6-.2-5.2-.5-7.8-.7 1.2 1.6 2.4 3.1 3.6 4.7-2.5 1.1-5 2.2-7.4 3.4.5 1.6 2.4 8.5 2.4 8.5l-78.9 2.3h154v-12.2c-1.9 0-1.9-2.7 0-2.7v-22.3c-1.8-.5-2.4-3.6 0-3.4v-11c-.1-5.4-.1-10.7 0-16v-3c-2.4.2-1.8-2.9 0-3.3v-4.3c-3-.3-3-2.2 0-5.8v-.7l-.9-.3-.1-4.8 1-.1v-4.7m-68.3 86.3c-1.3 1.1-2.9-1.2-1.6-2.1 1.4-1.1 2.9 1.1 1.6 2.1m9.9 1c-1 1.5-3.9.2-2.9-1.5 1-1.6 3.9-.2 2.9 1.5m49.9-39.9c1.1-.4 2.3-.8 3.4-1.1-.1 5.8-.2 11.6-.2 17.5-1.8-.8-3.6-1.5-5.4-2.3 1.3-4.6 3.1-9.2 2.2-14.1m-9.5 18.2h3v3h-3v-3m-.3 5.4c2-.6 4-1.1 6-1.6-.6-1.1-1.3-2.1-1.9-3.2 3.4.2 6.7-.7 10-1.6 1.5 5.2-3.9 8.5-8.5 8.4-2-.4-3.8-1.3-5.6-2m12.6 2.9c-1.5-.4-.4-2.7.9-2.1 1.5.4.4 2.6-.9 2.1m-9.8 15c.5-1.9 1-3.9 1.9-5.7 1.6 1 2.6 2.7 3.6 4.2-1.8.5-3.7 1-5.5 1.5m5.4-2.8c.5-1.4 1.1-2.7 1.7-4.1-2.1-.8-4.2-1.7-6.3-2.5-.1-.8-.2-2.5-.2-3.3 2.9.1 5.9.2 8.8.6 2.2 2.5 1.9 6.1 2.8 9.2-2.4.1-4.6.2-6.8.1"/><path d="m105.3 42.5c1.5-.1 1.4 2.4 0 2.4-1.5.1-1.4-2.4 0-2.4"/><path d="m87.2 47.3c2.5-.4 4.5-2 6.7-3.1-1.1 4.4-2.3 8.9-4.9 12.6-2.2 3-6.1 3.8-9.5 4.4 3.2-4.1 7.3-7.4 10.5-11.6-3.4-.4-6.8-.7-10.2-1.1-.2-.7-.5-2-.7-2.7 2.6.6 5.3 1.4 8.1 1.5"/><path d="m135.3 51.1c1.3.7 1.3 1.3 0 2-1.3-.6-1.3-1.3 0-2"/><path d="m115.6 53.5c1.6-.9 3.1 1.9 1.9 3-1.6 1-3.1-1.8-1.9-3"/><path d="m123.1 54.5c1.8 0 3.6.2 5.4.5-1.4 2-3.1 3.8-4.9 5.5-.1-2-.3-4-.5-6"/><path d="m127.8 58c.8 0 2.4.1 3.2.1 1.1 2.1 2.3 4.3 3.4 6.4 1.9-.3 3.9-.6 5.9-.8-.8 2-1.6 4-2.4 6-.8-.2-1.6-.4-2.3-.6.3-1 .6-2.1.9-3.1-3.5 2.7-3.9 7.2-4.2 11.3-4.4-.8-6.9-4-7.6-8.3 2.5.3 4.9.6 7.3 1-1.6-3.9-3.1-7.9-4.2-12"/><path d="m86.8 66.9c3.6-1.6 6.9-3.8 10.5-5.3-4.3 5.6-10 10-16.4 13-2.8-6.5 2.1-6.7 5.9-7.7"/><path d="m84.4 76.5c3.3-3.7 8.2-4.5 13.1-4.5-4.3 1.6-8.7 3.1-13.1 4.5"/><path d="m133.4 77.4c1.4-.2 2.4 1.7 1.5 2.8-1.5 1-3.5-2.2-1.5-2.8"/><path d="m84.9 82.2c4.4-.6 8.9-1.2 13.3-1.8-1.1 1.4-2.2 2.9-3.3 4.4-1.9-.7-3.9-1.3-5.8-2-1 1.7-2 3.5-2.8 5.3-.5-2-1-3.9-1.4-5.9"/><path d="m139.1 81c.8 0 2.2 0 3 0 0 .8 0 2.2 0 3-.8 0-2.2 0-3 0 0-.8 0-2.2 0-3"/><path d="m133.7 81.4c4.9 3.9 3.8 11.4 1.4 16.5-1.5 3.5-6.3 2.9-8.9 1.1-3-2.3-5.5-5.2-7.9-8.2-1.3-1.4 1-2.6 1.6-3.8 1.6.5 3.2 1 4.8 1.5 0 3.2.2 6.3.4 9.5 2.7.3 5.4.5 8.1.7 0-3.7-.5-7.6 2.8-10.1-1.3-1.3-2.6-2.5-3.9-3.7.6-1.1 1.1-2.3 1.6-3.5"/><path d="m138.6 86.1c1.6 1.4 3.1 2.9 4.5 4.5-1.7.2-3.4.4-5.1.5.2-1.7.4-3.4.6-5"/><path d="m77.6 97.8c1.5-2.1 3-4.1 4.6-6.2-.3 2.1-.7 4.2-1 6.3-.9 0-2.7-.1-3.6-.1"/><path d="m146.5 95.2c1.4-.4 1.9 0 1.5 1.4-1.4.4-1.9 0-1.5-1.4"/><path d="m81.3 102.2c1.6-.5 2.2 0 1.7 1.7-1.7.4-2.2-.1-1.7-1.7"/><path d="m135.7 102.3c1.2-1.1 3 .9 1.8 2-1.1 1.2-2.9-.9-1.8-2"/><path d="m113.1 103c.8 0 2.2 0 3 0"/><path d="m55 107.5c2-1 3.9-2 5.9-3 4.2 4.7 11.2 4.1 16.9 4.7.1 1.7.4 4.9.6 6.6l-4.6-.3c1.7 2.3 2.1 5.2 2.5 8 1.1-2.3 2.2-4.6 3.4-6.9.9 3.7 1.8 7.4 2.6 11.1-.9.3-1.8.6-2.7.9-.5-.8-1.1-1.6-1.6-2.4-1.2.9-2.3 1.9-3.5 2.8-.5-1.1-1.1-2.2-1.6-3.4-4.2.9-8.4.5-12.3-1 2.9-5.1 8-8.2 13.1-10.6-4.9-1.2-10.1-1-15.1-1.3-1.2-1.6-2.4-3.4-3.6-5.2m17.4 11.2c-1.2-.1-2.5 1.7-1.5 2.7 1.6 1.3 3.5-2.2 1.5-2.7z"/><path d="m109.1 110c-.8 0-2.2 0-3 0"/><path d="m114.5 115.7c.6-2.8 2.5-4.7 5.3-5.3-.6 2.8-2.5 4.7-5.3 5.3"/><path d="m104.9 120.7c.8-2.8 2.2-5.2 4.1-7.4-.7 2.8-1.8 5.5-4.1 7.4"/><path d="m111.4 116.4c1.6-.2 3.2-.4 4.8-.6-.1 1-.3 2.9-.4 3.9-1.5-1-2.9-2.1-4.4-3.3"/><path d="m130.5 116.3c1.3-1.1 2.9 1.2 1.6 2.2-1.4 1-3-1.2-1.6-2.2"/><path d="m112.2 122.7c2-.2 4.1-.2 6.1-.2-.7 2.1-1.4 4.1-2 6.2 2.3-.2 4.7-.6 7-1.1-.4 1.7-.8 3.4-1.1 5 1.3.2 2.6.3 3.8.5-.8 1.5-1.5 3-2.3 4.5-1.1.1-2.2.2-3.2.4 0-2 0-3.9 0-5.9-3.2.7-6.5 1.2-9.8 1.7 1.1-1.8 2.3-3.5 3.4-5.2-.6-1.9-1.3-3.9-1.9-5.9"/><path d="m126.4 127.9c1.5-1.1 3.3 1.2 1.5 2.1-1.5 1.2-3.3-1.2-1.5-2.1"/><path d="m107.3 133.9c1.6-.7 2.5 1.9.8 2.4-1.5.7-2.4-1.9-.8-2.4"/><path d="m123.2 141c1.3 0 2.7-.1 4-.1-.4 1-.9 1.9-1.3 2.9-.7.1-2 .2-2.7.2 0-.7 0-2.2 0-3"/></g></svg>