<svg xmlns="http://www.w3.org/2000/svg" xmlns:xlink="http://www.w3.org/1999/xlink" viewBox="118.1 -1176.7 560 960" style="enable-background:new 118.1 -1176.7 560 960">
 <defs>
  <pattern id="SVGID_6_" xlink:href="#Plume2" patternTransform="matrix(0.5214 0 0 0.5214 -3497.5347 -4860.3311)"/>
  <pattern id="SVGID_5_" xlink:href="#Plume2" patternTransform="matrix(0.5214 0 0 0.5214 -3497.5347 -4860.3311)"/>
  <pattern id="SVGID_7_" xlink:href="#Plume2" patternTransform="matrix(0.5214 0 0 0.5214 -3497.5347 -4860.3311)"/>
  <pattern id="SVGID_4_" xlink:href="#Plume2" patternTransform="matrix(0.5214 0 0 0.5214 -3497.5347 -4860.3311)"/>
  <pattern id="SVGID_3_" xlink:href="#Plume2" patternTransform="matrix(0.5214 0 0 0.5214 -3497.5347 -4860.3311)"/>
  <pattern x="-25.5" y="1045" width="140" height="138" patternUnits="userSpaceOnUse" id="Plume2" viewBox="309 -414.9 139.8 138.3">
   <polygon points="309,-414.9 448.8,-414.9 448.8,-276.6 309,-276.6 		" style="fill:none"/>
   <path d="m598-80.9c-12.8-21-8.6-44-2-51.8-8.3 7.4-12.7 13.2-14.5 25.5-7.7-6.7-12.5-8.7-21.7-10.5 14.2 8.8 19.8 19.8 24 34.7-4-7.4-10.5-13-18.2-16 6.3 6.1 3.9 11.7 7.9 21.7 2.5 6.4 6.6 10.4 10.5 12.3 0 0-5.6 1-10-4.1 7.6 23.6 33.5 14 46 25.4-10.8-5.2-27.5.2-27.5 15.6 0 9.6 8.2 17 16.8 17 8.5 0 13.6-5.8 13.6-11.3 0-4.9-2.5-7.4-5.1-8.3 2.6 3.6.4 8.5-4.1 8.5-3.1 0-6.3-2.5-6.3-6.5 0-6.3 5.8-8.8 10.8-8.8 6.7 0 13 2.9 15 8.5 2.6-23.7-23-31-35.7-51.9m114-42.9c-16 5.9-34.7-1.7-51 7.7 17.9-6.2 38.6-3.2 50 15.8-4.6-4.6-13.3-6.2-20-6.2 15.6 8.7 13.8 31.7-.5 36 0 0 4.6-3.2 4.6-11.5 0-11-9.8-20.3-28-20.3-12.4 0-22.9 5.2-27.5 13.9 4.9-5.8 13.3-9.9 22.6-9.9 13.3 0 18.6 9.8 18.7 17.5.1 8.1-5.1 13.6-9.4 15.9 5.7-6.3 1.2-14.9-6.8-14.9-11.7 0-16.5 14-14.3 25.7 2.7-9.8 7.9-15 17.6-16.7-7 5.6-9.7 11.4-8.6 20.9 6.2-13.6 18.5-6.8 24-20.4 1.4 7.6.1 19-10.8 24.3-12.2 5.9-22.4 3.2-32 14.4-2.7-22.6-17.3-27.7-31-42.6-18-19.3-17-46-8.3-60-2.1 14.3.5 27.4 9.2 38.7-5.1-17-4.2-35 4.2-49-1.2 9.2-1 14.3 2 22.6.9-18 8.5-30.7 22.8-41.5-5.7 9.6-8.6 22-7 31.9 6.3-25.9 24-37 36.7-40.6-4.3 5.4-7 11.5-8.2 18.2 9.4-19.6 27.8-22.3 37.8-28 7.2-4.3 4.2-12.3-.2-12.3-2.4 0-3.8 1.4-5.1 4 1-5.2 4.4-7.9 8-7.9 5.3 0 9.3 5.2 9.3 11.7 0 17.3-22.9 29.5-49 44-22.4 12.7-32.5 22.3-35.8 40-3.4 18 5.9 35 5.9 35s-8.6-29.6 4.6-47.9c12-16.6 30-23.9 47-33.9 18.7-11 35.9-22.6 30.7-41.5 9.5 9.5 12.7 24.3 5.3 33.4-9.6 11.7-28.5 14.2-36 21.7 13.2-6.6 25-4.1 34.7-7.9 9.3-3.7 9.2-14.3 9.2-14.3 3.9 13 .1 28.4-15.3 34m-108 77c-7.4-.2-15.5 4.8-15.2 10-7.3-9.6 6.3-13.5 15.2-10m83-8.3c9.4 9.2-4.7 15.6-14.8 13.3 8.1-.9 16-7.6 14.8-13.3m18.7-30c5.7 8.7 4.5 24-7.4 18.5 5.7-.9 9.3-10.6 7.4-18.5m-96 81c-7.1 11-16.3-1.3-16-11.7 2.6 7.6 10.8 14 16 11.7" style="fill:#3b2e83"/>
   <path d="m458-80.9c-12.8-21-8.6-44-2-51.8-8.3 7.4-12.7 13.2-14.5 25.5-7.7-6.7-12.5-8.7-21.7-10.5 14.2 8.8 19.8 19.8 24 34.7-4-7.4-10.5-13-18.2-16 6.3 6.1 3.9 11.7 7.9 21.7 2.5 6.4 6.6 10.4 10.5 12.3 0 0-5.6 1-10-4.1 7.6 23.6 33.5 14 46 25.4-10.8-5.2-27.5.2-27.5 15.6 0 9.6 8.2 17 16.8 17 8.5 0 13.6-5.8 13.6-11.3 0-4.9-2.5-7.4-5.1-8.3 2.6 3.6.4 8.5-4.1 8.5-3.1 0-6.3-2.5-6.3-6.5 0-6.3 5.8-8.8 10.8-8.8 6.7 0 13 2.9 15 8.5 2.6-23.7-23-31-35.7-51.9m114-42.9c-16 5.9-34.7-1.7-51 7.7 17.9-6.2 38.6-3.2 50 15.8-4.6-4.6-13.3-6.2-20-6.2 15.6 8.7 13.8 31.7-.5 36 0 0 4.6-3.2 4.6-11.5 0-11-9.8-20.3-28-20.3-12.4 0-22.9 5.2-27.5 13.9 4.9-5.8 13.3-9.9 22.6-9.9 13.3 0 18.6 9.8 18.7 17.5.1 8.1-5.1 13.6-9.4 15.9 5.7-6.3 1.2-14.9-6.8-14.9-11.7 0-16.5 14-14.3 25.7 2.7-9.8 7.9-15 17.6-16.7-7 5.6-9.7 11.4-8.6 20.9 6.2-13.6 18.5-6.8 24-20.4 1.4 7.6.1 19-10.8 24.3-12.2 5.9-22.4 3.2-32 14.4-2.7-22.6-17.3-27.7-31-42.6-18-19.3-17-46-8.3-60-2.1 14.3.5 27.4 9.2 38.7-5.1-17-4.2-35 4.2-49-1.2 9.2-1 14.3 2 22.6.9-18 8.5-30.7 22.8-41.5-5.7 9.6-8.6 22-7 31.9 6.3-25.9 24-37 36.7-40.6-4.3 5.4-7 11.5-8.2 18.2 9.4-19.6 27.8-22.3 37.8-28 7.2-4.3 4.2-12.3-.2-12.3-2.4 0-3.8 1.4-5.1 4 1-5.2 4.4-7.9 8-7.9 5.3 0 9.3 5.2 9.3 11.7 0 17.3-22.9 29.5-49 44-22.4 12.7-32.5 22.3-35.8 40-3.4 18 5.9 35 5.9 35s-8.6-29.6 4.6-47.9c12-16.6 30-23.9 47-33.9 18.7-11 35.9-22.6 30.7-41.5 9.5 9.5 12.7 24.3 5.3 33.4-9.6 11.7-28.5 14.2-36 21.7 13.2-6.6 25-4.1 34.7-7.9 9.3-3.7 9.2-14.3 9.2-14.3 3.8 13 0 28.4-15.4 34m-108 77c-7.4-.2-15.5 4.8-15.2 10-7.3-9.6 6.3-13.5 15.2-10m83-8.3c9.4 9.2-4.7 15.6-14.8 13.3 8-.9 16-7.6 14.8-13.3m18.7-30c5.7 8.7 4.5 24-7.4 18.5 5.7-.9 9.3-10.6 7.4-18.5m-96 81c-7.1 11-16.3-1.3-16-11.7 2.5 7.6 10.8 14 16 11.7" style="fill:#3b2e83"/>
   <path d="m318-80.9c-12.8-21-8.6-44-2-51.8-8.3 7.4-12.7 13.2-14.5 25.5-7.7-6.7-12.5-8.7-21.7-10.5 14.2 8.8 19.8 19.8 24 34.7-4-7.4-10.5-13-18.2-16 6.3 6.1 3.9 11.7 7.9 21.7 2.5 6.4 6.6 10.4 10.5 12.3 0 0-5.6 1-10-4.1 7.6 23.6 33.5 14 46 25.4-10.8-5.2-27.5.2-27.5 15.6 0 9.6 8.2 17 16.8 17 8.5 0 13.6-5.8 13.6-11.3 0-4.9-2.5-7.4-5.1-8.3 2.6 3.6.4 8.5-4.1 8.5-3.1 0-6.3-2.5-6.3-6.5 0-6.3 5.8-8.8 10.8-8.8 6.7 0 13 2.9 15 8.5 2.7-23.7-23-31-35.7-51.9m114-42.9c-16 5.9-34.7-1.7-51 7.7 17.9-6.2 38.6-3.2 50 15.8-4.6-4.6-13.3-6.2-20-6.2 15.6 8.7 13.8 31.7-.5 36 0 0 4.6-3.2 4.6-11.5 0-11-9.8-20.3-28-20.3-12.4 0-22.9 5.2-27.5 13.9 4.9-5.8 13.3-9.9 22.6-9.9 13.3 0 18.6 9.8 18.7 17.5.1 8.1-5.1 13.6-9.4 15.9 5.7-6.3 1.2-14.9-6.8-14.9-11.7 0-16.5 14-14.3 25.7 2.7-9.8 7.9-15 17.6-16.7-7 5.6-9.7 11.4-8.6 20.9 6.2-13.6 18.5-6.8 24-20.4 1.4 7.6.1 19-10.8 24.3-12.2 5.9-22.4 3.2-32 14.4-2.7-22.6-17.3-27.7-31-42.6-18-19.3-17-46-8.3-60-2.1 14.3.5 27.4 9.2 38.7-5.1-17-4.2-35 4.2-49-1.2 9.2-1 14.3 2 22.6.9-18 8.5-30.7 22.8-41.5-5.7 9.6-8.6 22-7 31.9 6.3-25.9 24-37 36.7-40.6-4.3 5.4-7 11.5-8.2 18.2 9.4-19.6 27.8-22.3 37.8-28 7.2-4.3 4.2-12.3-.2-12.3-2.4 0-3.8 1.4-5.1 4 1-5.2 4.4-7.9 8-7.9 5.3 0 9.3 5.2 9.3 11.7 0 17.3-22.9 29.5-49 44-22.4 12.7-32.5 22.3-35.8 40-3.4 18 5.9 35 5.9 35s-8.6-29.6 4.6-47.9c12-16.6 30-23.9 47-33.9 18.7-11 35.9-22.6 30.7-41.5 9.5 9.5 12.7 24.3 5.3 33.4-9.6 11.7-28.5 14.2-36 21.7 13.2-6.6 25-4.1 34.7-7.9 9.3-3.7 9.2-14.3 9.2-14.3 3.9 13 .1 28.4-15.3 34m-108 77c-7.4-.2-15.5 4.8-15.2 10-7.3-9.6 6.3-13.5 15.2-10m83-8.3c9.4 9.2-4.7 15.6-14.8 13.3 8-.9 16-7.6 14.8-13.3m18.7-30c5.7 8.7 4.5 24-7.4 18.5 5.7-.9 9.3-10.6 7.4-18.5m-96 81c-7.1 11-16.3-1.3-16-11.7 2.5 7.6 10.7 14 16 11.7" style="fill:#3b2e83"/>
   <path d="m178-80.9c-12.8-21-8.6-44-2-51.8-8.3 7.4-12.7 13.2-14.5 25.5-7.7-6.7-12.5-8.7-21.7-10.5 14.2 8.8 19.8 19.8 24 34.7-4-7.4-10.5-13-18.2-16 6.3 6.1 3.9 11.7 7.9 21.7 2.5 6.4 6.6 10.4 10.5 12.3 0 0-5.6 1-10-4.1 7.6 23.6 33.5 14 46 25.4-10.8-5.2-27.5.2-27.5 15.6 0 9.6 8.2 17 16.8 17 8.5 0 13.6-5.8 13.6-11.3 0-4.9-2.5-7.4-5.1-8.3 2.6 3.6.4 8.5-4.1 8.5-3.1 0-6.3-2.5-6.3-6.5 0-6.3 5.8-8.8 10.8-8.8 6.7 0 13 2.9 15 8.5 2.7-23.7-23-31-35.7-51.9m114-42.9c-16 5.9-34.7-1.7-51 7.7 17.9-6.2 38.6-3.2 50 15.8-4.6-4.6-13.3-6.2-20-6.2 15.6 8.7 13.8 31.7-.5 36 0 0 4.6-3.2 4.6-11.5 0-11-9.8-20.3-28-20.3-12.4 0-22.9 5.2-27.5 13.9 4.9-5.8 13.3-9.9 22.6-9.9 13.3 0 18.6 9.8 18.7 17.5.1 8.1-5.1 13.6-9.4 15.9 5.7-6.3 1.2-14.9-6.8-14.9-11.7 0-16.5 14-14.3 25.7 2.7-9.8 7.9-15 17.6-16.7-7 5.6-9.7 11.4-8.6 20.9 6.2-13.6 18.5-6.8 24-20.4 1.4 7.6.1 19-10.8 24.3-12.2 5.9-22.4 3.2-32 14.4-2.7-22.6-17.3-27.7-31-42.6-18-19.3-17-46-8.3-60-2.1 14.3.5 27.4 9.2 38.7-5.1-17-4.2-35 4.2-49-1.2 9.2-1 14.3 2 22.6.9-18 8.5-30.7 22.8-41.5-5.7 9.6-8.6 22-7 31.9 6.3-25.9 24-37 36.7-40.6-4.3 5.4-7 11.5-8.2 18.2 9.4-19.6 27.8-22.3 37.8-28 7.2-4.3 4.2-12.3-.2-12.3-2.4 0-3.8 1.4-5.1 4 1-5.2 4.4-7.9 8-7.9 5.3 0 9.3 5.2 9.3 11.7 0 17.3-22.9 29.5-49 44-22.4 12.7-32.5 22.3-35.8 40-3.4 18 5.9 35 5.9 35s-8.6-29.6 4.6-47.9c12-16.6 30-23.9 47-33.9 18.7-11 35.9-22.6 30.7-41.5 9.5 9.5 12.7 24.3 5.3 33.4-9.6 11.7-28.5 14.2-36 21.7 13.2-6.6 25-4.1 34.7-7.9 9.3-3.7 9.2-14.3 9.2-14.3 3.9 13 0 28.4-15.3 34m-108 77c-7.4-.2-15.5 4.8-15.2 10-7.3-9.6 6.3-13.5 15.2-10m83-8.3c9.4 9.2-4.7 15.6-14.8 13.3 8-.9 16-7.6 14.8-13.3m18.7-30c5.7 8.7 4.5 24-7.4 18.5 5.7-.9 9.3-10.6 7.4-18.5m-96 81c-7.1 11-16.3-1.3-16-11.7 2.5 7.6 10.7 14 16 11.7" style="fill:#3b2e83"/>
   <path d="m38-80.9c-12.8-21-8.6-44-2-51.8-8.3 7.4-12.7 13.2-14.5 25.5-7.6-6.8-12.5-8.8-21.7-10.6 14.2 8.8 19.8 19.8 24 34.7-4-7.4-10.5-13-18.2-16 6.3 6.1 3.9 11.7 7.9 21.7 2.5 6.4 6.6 10.4 10.5 12.3 0 0-5.6 1-10-4.1 7.6 23.6 33.5 14 46 25.4-11-5.2-27.7.2-27.7 15.6 0 9.6 8.2 17 16.8 17 8.5 0 13.6-5.8 13.6-11.3 0-4.9-2.5-7.4-5.1-8.3 2.6 3.6.4 8.5-4.1 8.5-3.1 0-6.3-2.5-6.3-6.5 0-6.3 5.8-8.8 10.8-8.8 6.7 0 13 2.9 15 8.5 2.9-23.6-22.9-31-35.5-51.8m114-42.9c-16 5.9-34.7-1.7-51 7.7 17.9-6.2 38.6-3.2 50 15.8-4.6-4.6-13.3-6.2-20-6.2 15.6 8.7 13.8 31.7-.5 36 0 0 4.6-3.2 4.6-11.5 0-11-9.8-20.3-28-20.3-12.4 0-22.9 5.2-27.5 13.9 4.9-5.8 13.3-9.9 22.6-9.9 13.3 0 18.6 9.8 18.7 17.5.1 8.1-5.1 13.6-9.4 15.9 5.7-6.3 1.2-14.9-6.8-14.9-11.7 0-16.5 14-14.3 25.7 2.7-9.8 7.9-15 17.6-16.7-7 5.6-9.7 11.4-8.6 20.9 6.2-13.6 18.5-6.8 24-20.4 1.4 7.6.1 19-10.8 24.3-12.2 5.9-22.4 3.2-32 14.4-2.7-22.6-17.3-27.7-31-42.6-18-19.3-17-46-8.3-60-2.1 14.3.5 27.4 9.2 38.7-5.1-17-4.2-35 4.2-49-1.2 9.2-1 14.3 2 22.6.9-18 8.5-30.7 22.8-41.5-5.7 9.6-8.6 22-7 31.9 6.3-25.9 24-37 36.7-40.6-4.3 5.4-7 11.5-8.2 18.2 9.4-19.6 27.8-22.3 37.8-28 7.2-4.3 4.2-12.3-.2-12.3-2.4 0-3.8 1.4-5.1 4 1-5.2 4.4-7.9 8-7.9 5.3 0 9.3 5.2 9.3 11.7 0 17.3-22.9 29.5-49 44-22.4 12.7-32.5 22.3-35.8 40-3.4 18 5.9 35 5.9 35s-8.6-29.6 4.6-47.9c12-16.6 30-23.9 47-33.9 18.7-11 35.9-22.6 30.7-41.5 9.5 9.5 12.7 24.3 5.3 33.4-9.6 11.7-28.5 14.2-36 21.7 13.2-6.6 25-4.1 34.7-7.9 9.3-3.7 9.2-14.3 9.2-14.3 3.9 13 0 28.4-15.3 34m-108 77c-7.4-.2-15.5 4.8-15.2 10-7.3-9.6 6.3-13.5 15.2-10m83-8.3c9.4 9.2-4.7 15.6-14.8 13.3 8-.9 16-7.6 14.8-13.3m18.7-30c5.7 8.7 4.5 24-7.4 18.5 5.7-.9 9.3-10.6 7.4-18.5m-96 81c-7.1 11-16.2-1.4-16-11.7 2.6 7.6 10.8 14 16 11.7" style="fill:#3b2e83"/>
   <path d="m598-219c-12.8-21-8.6-44-2-51.8-8.3 7.4-12.7 13.2-14.5 25.5-7.7-6.7-12.5-8.7-21.7-10.5 14.2 8.8 19.8 19.8 24 34.7-4-7.4-10.5-13-18.2-16 6.3 6.1 3.9 11.7 7.9 21.7 2.5 6.4 6.6 10.4 10.5 12.3 0 0-5.6 1-10-4.1 7.6 23.6 33.5 14 46 25.4-10.8-5.2-27.5.2-27.5 15.6 0 9.6 8.2 17 16.8 17 8.5 0 13.6-5.8 13.6-11.3 0-4.9-2.5-7.4-5.1-8.3 2.6 3.6.4 8.5-4.1 8.5-3.1 0-6.3-2.5-6.3-6.5 0-6.3 5.8-8.8 10.8-8.8 6.7 0 13 2.9 15 8.5 2.6-23.7-23-31-35.7-51.9m114-42.9c-16 5.9-34.7-1.7-51 7.7 17.9-6.2 38.6-3.2 50 15.8-4.6-4.6-13.3-6.2-20-6.2 15.6 8.7 13.8 31.7-.5 36 0 0 4.6-3.2 4.6-11.5 0-11-9.8-20.3-28-20.3-12.4 0-22.9 5.2-27.5 13.9 4.9-5.8 13.3-9.9 22.6-9.9 13.3 0 18.6 9.8 18.7 17.5.1 8.1-5.1 13.6-9.4 15.9 5.7-6.3 1.2-14.9-6.8-14.9-11.7 0-16.5 14-14.3 25.7 2.7-9.8 7.9-15 17.6-16.7-7 5.6-9.7 11.4-8.6 20.9 6.2-13.6 18.5-6.8 24-20.4 1.4 7.6.1 19-10.8 24.3-12.2 5.9-22.4 3.2-32 14.4-2.7-22.6-17.3-27.7-31-42.6-18-19.3-17-46-8.3-60-2.1 14.3.5 27.4 9.2 38.7-5.1-17-4.2-35 4.2-49-1.2 9.3-1 14.3 2 22.6.9-18 8.5-30.7 22.8-41.5-5.7 9.6-8.6 22-7 31.9 6.3-25.9 24-37 36.7-40.6-4.3 5.4-7 11.5-8.2 18.2 9.4-19.6 27.8-22.3 37.8-28 7.2-4.3 4.2-12.3-.2-12.3-2.4 0-3.8 1.4-5.1 4 1-5.2 4.4-7.9 8-7.9 5.3 0 9.3 5.2 9.3 11.7 0 17.3-22.9 29.5-49 44-22.4 12.7-32.5 22.3-35.8 40-3.4 18 5.9 35 5.9 35s-8.6-29.6 4.6-47.9c12-16.6 30-23.9 47-33.9 18.7-11 35.9-22.6 30.7-41.5 9.5 9.5 12.7 24.3 5.3 33.4-9.6 11.7-28.5 14.2-36 21.7 13.2-6.6 25-4.1 34.7-7.9 9.3-3.7 9.2-14.3 9.2-14.3 3.9 13 .1 28.4-15.3 34m-108 77c-7.4-.2-15.5 4.8-15.2 10-7.3-9.6 6.3-13.5 15.2-10m83-8.3c9.4 9.2-4.7 15.6-14.8 13.3 8.1-.9 16-7.6 14.8-13.3m18.7-30c5.7 8.7 4.5 24-7.4 18.5 5.7-.8 9.3-10.6 7.4-18.5m-96 81c-7.1 11-16.3-1.3-16-11.7 2.6 7.6 10.8 14 16 11.7" style="fill:#3b2e83"/>
   <path d="m458-219c-12.8-21-8.6-44-2-51.8-8.3 7.4-12.7 13.2-14.5 25.5-7.7-6.7-12.5-8.7-21.7-10.5 14.2 8.8 19.8 19.8 24 34.7-4-7.4-10.5-13-18.2-16 6.3 6.1 3.9 11.7 7.9 21.7 2.5 6.4 6.6 10.4 10.5 12.3 0 0-5.6 1-10-4.1 7.6 23.6 33.5 14 46 25.4-10.8-5.2-27.5.2-27.5 15.6 0 9.6 8.2 17 16.8 17 8.5 0 13.6-5.8 13.6-11.3 0-4.9-2.5-7.4-5.1-8.3 2.6 3.6.4 8.5-4.1 8.5-3.1 0-6.3-2.5-6.3-6.5 0-6.3 5.8-8.8 10.8-8.8 6.7 0 13 2.9 15 8.5 2.6-23.7-23-31-35.7-51.9m114-42.9c-16 5.9-34.7-1.7-51 7.7 17.9-6.2 38.6-3.2 50 15.8-4.6-4.6-13.3-6.2-20-6.2 15.6 8.7 13.8 31.7-.5 36 0 0 4.6-3.2 4.6-11.5 0-11-9.8-20.3-28-20.3-12.4 0-22.9 5.2-27.5 13.9 4.9-5.8 13.3-9.9 22.6-9.9 13.3 0 18.6 9.8 18.7 17.5.1 8.1-5.1 13.6-9.4 15.9 5.7-6.3 1.2-14.9-6.8-14.9-11.7 0-16.5 14-14.3 25.7 2.7-9.8 7.9-15 17.6-16.7-7 5.6-9.7 11.4-8.6 20.9 6.2-13.6 18.5-6.8 24-20.4 1.4 7.6.1 19-10.8 24.3-12.2 5.9-22.4 3.2-32 14.4-2.7-22.6-17.3-27.7-31-42.6-18-19.3-17-46-8.3-60-2.1 14.3.5 27.4 9.2 38.7-5.1-17-4.2-35 4.2-49-1.2 9.3-1 14.3 2 22.6.9-18 8.5-30.7 22.8-41.5-5.7 9.6-8.6 22-7 31.9 6.3-25.9 24-37 36.7-40.6-4.3 5.4-7 11.5-8.2 18.2 9.4-19.6 27.8-22.3 37.8-28 7.2-4.3 4.2-12.3-.2-12.3-2.4 0-3.8 1.4-5.1 4 1-5.2 4.4-7.9 8-7.9 5.3 0 9.3 5.2 9.3 11.7 0 17.3-22.9 29.5-49 44-22.4 12.7-32.5 22.3-35.8 40-3.4 18 5.9 35 5.9 35s-8.6-29.6 4.6-47.9c12-16.6 30-23.9 47-33.9 18.7-11 35.9-22.6 30.7-41.5 9.5 9.5 12.7 24.3 5.3 33.4-9.6 11.7-28.5 14.2-36 21.7 13.2-6.6 25-4.1 34.7-7.9 9.3-3.7 9.2-14.3 9.2-14.3 3.8 13 0 28.4-15.4 34m-108 77c-7.4-.2-15.5 4.8-15.2 10-7.3-9.6 6.3-13.5 15.2-10m83-8.3c9.4 9.2-4.7 15.6-14.8 13.3 8-.9 16-7.6 14.8-13.3m18.7-30c5.7 8.7 4.5 24-7.4 18.5 5.7-.8 9.3-10.6 7.4-18.5m-96 81c-7.1 11-16.3-1.3-16-11.7 2.5 7.6 10.8 14 16 11.7" style="fill:#3b2e83"/>
   <path d="m318-219c-12.8-21-8.6-44-2-51.8-8.3 7.4-12.7 13.2-14.5 25.5-7.7-6.7-12.5-8.7-21.7-10.5 14.2 8.8 19.8 19.8 24 34.7-4-7.4-10.5-13-18.2-16 6.3 6.1 3.9 11.7 7.9 21.7 2.5 6.4 6.6 10.4 10.5 12.3 0 0-5.6 1-10-4.1 7.6 23.6 33.5 14 46 25.4-10.8-5.2-27.5.2-27.5 15.6 0 9.6 8.2 17 16.8 17 8.5 0 13.6-5.8 13.6-11.3 0-4.9-2.5-7.4-5.1-8.3 2.6 3.6.4 8.5-4.1 8.5-3.1 0-6.3-2.5-6.3-6.5 0-6.3 5.8-8.8 10.8-8.8 6.7 0 13 2.9 15 8.5 2.7-23.7-23-31-35.7-51.9m114-42.9c-16 5.9-34.7-1.7-51 7.7 17.9-6.2 38.6-3.2 50 15.8-4.6-4.6-13.3-6.2-20-6.2 15.6 8.7 13.8 31.7-.5 36 0 0 4.6-3.2 4.6-11.5 0-11-9.8-20.3-28-20.3-12.4 0-22.9 5.2-27.5 13.9 4.9-5.8 13.3-9.9 22.6-9.9 13.3 0 18.6 9.8 18.7 17.5.1 8.1-5.1 13.6-9.4 15.9 5.7-6.3 1.2-14.9-6.8-14.9-11.7 0-16.5 14-14.3 25.7 2.7-9.8 7.9-15 17.6-16.7-7 5.6-9.7 11.4-8.6 20.9 6.2-13.6 18.5-6.8 24-20.4 1.4 7.6.1 19-10.8 24.3-12.2 5.9-22.4 3.2-32 14.4-2.7-22.6-17.3-27.7-31-42.6-18-19.3-17-46-8.3-60-2.1 14.3.5 27.4 9.2 38.7-5.1-17-4.2-35 4.2-49-1.2 9.3-1 14.3 2 22.6.9-18 8.5-30.7 22.8-41.5-5.7 9.6-8.6 22-7 31.9 6.3-25.9 24-37 36.7-40.6-4.3 5.4-7 11.5-8.2 18.2 9.4-19.6 27.8-22.3 37.8-28 7.2-4.3 4.2-12.3-.2-12.3-2.4 0-3.8 1.4-5.1 4 1-5.2 4.4-7.9 8-7.9 5.3 0 9.3 5.2 9.3 11.7 0 17.3-22.9 29.5-49 44-22.4 12.7-32.5 22.3-35.8 40-3.4 18 5.9 35 5.9 35s-8.6-29.6 4.6-47.9c12-16.6 30-23.9 47-33.9 18.7-11 35.9-22.6 30.7-41.5 9.5 9.5 12.7 24.3 5.3 33.4-9.6 11.7-28.5 14.2-36 21.7 13.2-6.6 25-4.1 34.7-7.9 9.3-3.7 9.2-14.3 9.2-14.3 3.9 13 .1 28.4-15.3 34m-108 77c-7.4-.2-15.5 4.8-15.2 10-7.3-9.6 6.3-13.5 15.2-10m83-8.3c9.4 9.2-4.7 15.6-14.8 13.3 8-.9 16-7.6 14.8-13.3m18.7-30c5.7 8.7 4.5 24-7.4 18.5 5.7-.8 9.3-10.6 7.4-18.5m-96 81c-7.1 11-16.3-1.3-16-11.7 2.5 7.6 10.7 14 16 11.7" style="fill:#3b2e83"/>
   <path d="m178-219c-12.8-21-8.6-44-2-51.8-8.3 7.4-12.7 13.2-14.5 25.5-7.7-6.7-12.5-8.7-21.7-10.5 14.2 8.8 19.8 19.8 24 34.7-4-7.4-10.5-13-18.2-16 6.3 6.1 3.9 11.7 7.9 21.7 2.5 6.4 6.6 10.4 10.5 12.3 0 0-5.6 1-10-4.1 7.6 23.6 33.5 14 46 25.4-10.8-5.2-27.5.2-27.5 15.6 0 9.6 8.2 17 16.8 17 8.5 0 13.6-5.8 13.6-11.3 0-4.9-2.5-7.4-5.1-8.3 2.6 3.6.4 8.5-4.1 8.5-3.1 0-6.3-2.5-6.3-6.5 0-6.3 5.8-8.8 10.8-8.8 6.7 0 13 2.9 15 8.5 2.7-23.7-23-31-35.7-51.9m114-42.9c-16 5.9-34.7-1.7-51 7.7 17.9-6.2 38.6-3.2 50 15.8-4.6-4.6-13.3-6.2-20-6.2 15.6 8.7 13.8 31.7-.5 36 0 0 4.6-3.2 4.6-11.5 0-11-9.8-20.3-28-20.3-12.4 0-22.9 5.2-27.5 13.9 4.9-5.8 13.3-9.9 22.6-9.9 13.3 0 18.6 9.8 18.7 17.5.1 8.1-5.1 13.6-9.4 15.9 5.7-6.3 1.2-14.9-6.8-14.9-11.7 0-16.5 14-14.3 25.7 2.7-9.8 7.9-15 17.6-16.7-7 5.6-9.7 11.4-8.6 20.9 6.2-13.6 18.5-6.8 24-20.4 1.4 7.6.1 19-10.8 24.3-12.2 5.9-22.4 3.2-32 14.4-2.7-22.6-17.3-27.7-31-42.6-18-19.3-17-46-8.3-60-2.1 14.3.5 27.4 9.2 38.7-5.1-17-4.2-35 4.2-49-1.2 9.3-1 14.3 2 22.6.9-18 8.5-30.7 22.8-41.5-5.7 9.6-8.6 22-7 31.9 6.3-25.9 24-37 36.7-40.6-4.3 5.4-7 11.5-8.2 18.2 9.4-19.6 27.8-22.3 37.8-28 7.2-4.3 4.2-12.3-.2-12.3-2.4 0-3.8 1.4-5.1 4 1-5.2 4.4-7.9 8-7.9 5.3 0 9.3 5.2 9.3 11.7 0 17.3-22.9 29.5-49 44-22.4 12.7-32.5 22.3-35.8 40-3.4 18 5.9 35 5.9 35s-8.6-29.6 4.6-47.9c12-16.6 30-23.9 47-33.9 18.7-11 35.9-22.6 30.7-41.5 9.5 9.5 12.7 24.3 5.3 33.4-9.6 11.7-28.5 14.2-36 21.7 13.2-6.6 25-4.1 34.7-7.9 9.3-3.7 9.2-14.3 9.2-14.3 3.9 13 0 28.4-15.3 34m-108 77c-7.4-.2-15.5 4.8-15.2 10-7.3-9.6 6.3-13.5 15.2-10m83-8.3c9.4 9.2-4.7 15.6-14.8 13.3 8-.9 16-7.6 14.8-13.3m18.7-30c5.7 8.7 4.5 24-7.4 18.5 5.7-.8 9.3-10.6 7.4-18.5m-96 81c-7.1 11-16.3-1.3-16-11.7 2.5 7.6 10.7 14 16 11.7" style="fill:#3b2e83"/>
   <path d="m38-219c-12.8-21-8.6-44-2-51.8-8.3 7.4-12.7 13.2-14.5 25.5-7.7-6.7-12.5-8.7-21.7-10.5 14.2 8.8 19.8 19.8 24 34.7-4-7.4-10.5-13-18.2-16 6.3 6.1 3.9 11.7 7.9 21.7 2.5 6.4 6.6 10.4 10.5 12.3 0 0-5.6 1-10-4.1 7.6 23.6 33.5 14 46 25.4-10.8-5.2-27.5.2-27.5 15.6 0 9.6 8.2 17 16.8 17 8.5 0 13.6-5.8 13.6-11.3 0-4.9-2.5-7.4-5.1-8.3 2.6 3.6.4 8.5-4.1 8.5-3.1 0-6.3-2.5-6.3-6.5 0-6.3 5.8-8.8 10.8-8.8 6.7 0 13 2.9 15 8.5 2.7-23.7-23-31-35.7-51.9m114-42.9c-16 5.9-34.7-1.7-51 7.7 17.9-6.2 38.6-3.2 50 15.8-4.6-4.6-13.3-6.2-20-6.2 15.6 8.7 13.8 31.7-.5 36 0 0 4.6-3.2 4.6-11.5 0-11-9.8-20.3-28-20.3-12.4 0-22.9 5.2-27.5 13.9 4.9-5.8 13.3-9.9 22.6-9.9 13.3 0 18.6 9.8 18.7 17.5.1 8.1-5.1 13.6-9.4 15.9 5.7-6.3 1.2-14.9-6.8-14.9-11.7 0-16.5 14-14.3 25.7 2.7-9.8 7.9-15 17.6-16.7-7 5.6-9.7 11.4-8.6 20.9 6.2-13.6 18.5-6.8 24-20.4 1.4 7.6.1 19-10.8 24.3-12.2 5.9-22.4 3.2-32 14.4-2.7-22.6-17.3-27.7-31-42.6-18-19.3-17-46-8.3-60-2.1 14.3.5 27.4 9.2 38.7-5.1-17-4.2-35 4.2-49-1.2 9.3-1 14.3 2 22.6.9-18 8.5-30.7 22.8-41.5-5.7 9.6-8.6 22-7 31.9 6.3-25.9 24-37 36.7-40.6-4.3 5.4-7 11.5-8.2 18.2 9.4-19.6 27.8-22.3 37.8-28 7.2-4.3 4.2-12.3-.2-12.3-2.4 0-3.8 1.4-5.1 4 1-5.2 4.4-7.9 8-7.9 5.3 0 9.3 5.2 9.3 11.7 0 17.3-22.9 29.5-49 44-22.4 12.7-32.5 22.3-35.8 40-3.4 18 5.9 35 5.9 35s-8.6-29.6 4.6-47.9c12-16.6 30-23.9 47-33.9 18.7-11 35.9-22.6 30.7-41.5 9.5 9.5 12.7 24.3 5.3 33.4-9.6 11.7-28.5 14.2-36 21.7 13.2-6.6 25-4.1 34.7-7.9 9.3-3.7 9.2-14.3 9.2-14.3 3.9 13 0 28.4-15.3 34m-108 77c-7.4-.2-15.5 4.8-15.2 10-7.3-9.6 6.3-13.5 15.2-10m83-8.3c9.4 9.2-4.7 15.6-14.8 13.3 8-.9 16-7.6 14.8-13.3m18.7-30c5.7 8.7 4.5 24-7.4 18.5 5.7-.8 9.3-10.6 7.4-18.5m-96 81c-7.1 11-16.3-1.3-16-11.7 2.6 7.6 10.8 14 16 11.7" style="fill:#3b2e83"/>
   <path d="m598-357c-12.8-21-8.6-44-2-51.8-8.3 7.4-12.7 13.2-14.5 25.5-7.7-6.7-12.5-8.7-21.7-10.5 14.2 8.8 19.8 19.8 24 34.7-4-7.4-10.5-13-18.2-16 6.3 6.1 3.9 11.7 7.9 21.7 2.5 6.4 6.6 10.4 10.5 12.3 0 0-5.6 1-10-4.1 7.6 23.6 33.5 14 46 25.4-10.8-5.2-27.5.2-27.5 15.6 0 9.6 8.2 17 16.8 17 8.5 0 13.6-5.8 13.6-11.3 0-4.9-2.5-7.4-5.1-8.3 2.6 3.6.4 8.5-4.1 8.5-3.1 0-6.3-2.5-6.3-6.5 0-6.3 5.8-8.8 10.8-8.8 6.7 0 13 2.9 15 8.5 2.6-23.7-23-31-35.7-51.9m114-42.9c-16 5.9-34.7-1.7-51 7.7 17.9-6.2 38.6-3.2 50 15.8-4.6-4.6-13.3-6.2-20-6.2 15.6 8.7 13.8 31.7-.5 36 0 0 4.6-3.2 4.6-11.5 0-11-9.8-20.3-28-20.3-12.4 0-22.9 5.2-27.5 13.9 4.9-5.8 13.3-9.9 22.6-9.9 13.3 0 18.6 9.8 18.7 17.5.1 8.1-5.1 13.6-9.4 15.9 5.7-6.3 1.2-14.9-6.8-14.9-11.7 0-16.5 14-14.3 25.7 2.7-9.8 7.9-15 17.6-16.7-7 5.6-9.7 11.4-8.6 20.9 6.2-13.6 18.5-6.8 24-20.4 1.4 7.6.1 19-10.8 24.3-12.2 5.9-22.4 3.2-32 14.4-2.7-22.6-17.3-27.7-31-42.6-18-19.3-17-46-8.3-60-2.1 14.3.5 27.4 9.2 38.7-5.1-17-4.2-35 4.2-49-1.2 9.3-1 14.3 2 22.6.9-18 8.5-30.7 22.8-41.5-5.7 9.6-8.6 22-7 31.9 6.3-25.9 24-37 36.7-40.6-4.3 5.4-7 11.5-8.2 18.2 9.4-19.6 27.8-22.3 37.8-28 7.2-4.3 4.2-12.3-.2-12.3-2.4 0-3.8 1.4-5.1 4 1-5.2 4.4-7.9 8-7.9 5.3 0 9.3 5.2 9.3 11.7 0 17.3-22.9 29.5-49 44-22.4 12.7-32.5 22.3-35.8 40-3.4 18 5.9 35 5.9 35s-8.6-29.6 4.6-47.9c12-16.6 30-23.9 47-33.9 18.7-11 35.9-22.6 30.7-41.5 9.5 9.5 12.7 24.3 5.3 33.4-9.6 11.7-28.5 14.2-36 21.7 13.2-6.6 25-4.1 34.7-7.9 9.3-3.7 9.2-14.3 9.2-14.3 3.9 13 .1 28.4-15.3 34m-108 77c-7.4-.2-15.5 4.8-15.2 10-7.3-9.7 6.3-13.6 15.2-10m83-8.4c9.4 9.2-4.7 15.6-14.8 13.3 8.1-.9 16-7.6 14.8-13.3m18.7-30c5.7 8.7 4.5 24-7.4 18.5 5.7-.8 9.3-10.6 7.4-18.5m-96 81c-7.1 11-16.3-1.3-16-11.7 2.6 7.6 10.8 14 16 11.7" style="fill:#3b2e83"/>
   <path d="m458-357c-12.8-21-8.6-44-2-51.8-8.3 7.4-12.7 13.2-14.5 25.5-7.7-6.7-12.5-8.7-21.7-10.5 14.2 8.8 19.8 19.8 24 34.7-4-7.4-10.5-13-18.2-16 6.3 6.1 3.9 11.7 7.9 21.7 2.5 6.4 6.6 10.4 10.5 12.3 0 0-5.6 1-10-4.1 7.6 23.6 33.5 14 46 25.4-10.8-5.2-27.5.2-27.5 15.6 0 9.6 8.2 17 16.8 17 8.5 0 13.6-5.8 13.6-11.3 0-4.9-2.5-7.4-5.1-8.3 2.6 3.6.4 8.5-4.1 8.5-3.1 0-6.3-2.5-6.3-6.5 0-6.3 5.8-8.8 10.8-8.8 6.7 0 13 2.9 15 8.5 2.6-23.7-23-31-35.7-51.9m114-42.9c-16 5.9-34.7-1.7-51 7.7 17.9-6.2 38.6-3.2 50 15.8-4.6-4.6-13.3-6.2-20-6.2 15.6 8.7 13.8 31.7-.5 36 0 0 4.6-3.2 4.6-11.5 0-11-9.8-20.3-28-20.3-12.4 0-22.9 5.2-27.5 13.9 4.9-5.8 13.3-9.9 22.6-9.9 13.3 0 18.6 9.8 18.7 17.5.1 8.1-5.1 13.6-9.4 15.9 5.7-6.3 1.2-14.9-6.8-14.9-11.7 0-16.5 14-14.3 25.7 2.7-9.8 7.9-15 17.6-16.7-7 5.6-9.7 11.4-8.6 20.9 6.2-13.6 18.5-6.8 24-20.4 1.4 7.6.1 19-10.8 24.3-12.2 5.9-22.4 3.2-32 14.4-2.7-22.6-17.3-27.7-31-42.6-18-19.3-17-46-8.3-60-2.1 14.3.5 27.4 9.2 38.7-5.1-17-4.2-35 4.2-49-1.2 9.3-1 14.3 2 22.6.9-18 8.5-30.7 22.8-41.5-5.7 9.6-8.6 22-7 31.9 6.3-25.9 24-37 36.7-40.6-4.3 5.4-7 11.5-8.2 18.2 9.4-19.6 27.8-22.3 37.8-28 7.2-4.3 4.2-12.3-.2-12.3-2.4 0-3.8 1.4-5.1 4 1-5.2 4.4-7.9 8-7.9 5.3 0 9.3 5.2 9.3 11.7 0 17.3-22.9 29.5-49 44-22.4 12.7-32.5 22.3-35.8 40-3.4 18 5.9 35 5.9 35s-8.6-29.6 4.6-47.9c12-16.6 30-23.9 47-33.9 18.7-11 35.9-22.6 30.7-41.5 9.5 9.5 12.7 24.3 5.3 33.4-9.6 11.7-28.5 14.2-36 21.7 13.2-6.6 25-4.1 34.7-7.9 9.3-3.7 9.2-14.3 9.2-14.3 3.8 13 0 28.4-15.4 34m-108 77c-7.4-.2-15.5 4.8-15.2 10-7.3-9.7 6.3-13.6 15.2-10m83-8.4c9.4 9.2-4.7 15.6-14.8 13.3 8-.9 16-7.6 14.8-13.3m18.7-30c5.7 8.7 4.5 24-7.4 18.5 5.7-.8 9.3-10.6 7.4-18.5m-96 81c-7.1 11-16.3-1.3-16-11.7 2.5 7.6 10.8 14 16 11.7" style="fill:#3b2e83"/>
   <path d="m318-357c-12.8-21-8.6-44-2-51.8-8.3 7.4-12.7 13.2-14.5 25.5-7.7-6.7-12.5-8.7-21.7-10.5 14.2 8.8 19.8 19.8 24 34.7-4-7.4-10.5-13-18.2-16 6.3 6.1 3.9 11.7 7.9 21.7 2.5 6.4 6.6 10.4 10.5 12.3 0 0-5.6 1-10-4.1 7.6 23.6 33.5 14 46 25.4-10.8-5.2-27.5.2-27.5 15.6 0 9.6 8.2 17 16.8 17 8.5 0 13.6-5.8 13.6-11.3 0-4.9-2.5-7.4-5.1-8.3 2.6 3.6.4 8.5-4.1 8.5-3.1 0-6.3-2.5-6.3-6.5 0-6.3 5.8-8.8 10.8-8.8 6.7 0 13 2.9 15 8.5 2.7-23.7-23-31-35.7-51.9m114-42.9c-16 5.9-34.7-1.7-51 7.7 17.9-6.2 38.6-3.2 50 15.8-4.6-4.6-13.3-6.2-20-6.2 15.6 8.7 13.8 31.7-.5 36 0 0 4.6-3.2 4.6-11.5 0-11-9.8-20.3-28-20.3-12.4 0-22.9 5.2-27.5 13.9 4.9-5.8 13.3-9.9 22.6-9.9 13.3 0 18.6 9.8 18.7 17.5.1 8.1-5.1 13.6-9.4 15.9 5.7-6.3 1.2-14.9-6.8-14.9-11.7 0-16.5 14-14.3 25.7 2.7-9.8 7.9-15 17.6-16.7-7 5.6-9.7 11.4-8.6 20.9 6.2-13.6 18.5-6.8 24-20.4 1.4 7.6.1 19-10.8 24.3-12.2 5.9-22.4 3.2-32 14.4-2.7-22.6-17.3-27.7-31-42.6-18-19.3-17-46-8.3-60-2.1 14.3.5 27.4 9.2 38.7-5.1-17-4.2-35 4.2-49-1.2 9.3-1 14.3 2 22.6.9-18 8.5-30.7 22.8-41.5-5.7 9.6-8.6 22-7 31.9 6.3-25.9 24-37 36.7-40.6-4.3 5.4-7 11.5-8.2 18.2 9.4-19.6 27.8-22.3 37.8-28 7.2-4.3 4.2-12.3-.2-12.3-2.4 0-3.8 1.4-5.1 4 1-5.2 4.4-7.9 8-7.9 5.3 0 9.3 5.2 9.3 11.7 0 17.3-22.9 29.5-49 44-22.4 12.7-32.5 22.3-35.8 40-3.4 18 5.9 35 5.9 35s-8.6-29.6 4.6-47.9c12-16.6 30-23.9 47-33.9 18.7-11 35.9-22.6 30.7-41.5 9.5 9.5 12.7 24.3 5.3 33.4-9.6 11.7-28.5 14.2-36 21.7 13.2-6.6 25-4.1 34.7-7.9 9.3-3.7 9.2-14.3 9.2-14.3 3.9 13 .1 28.4-15.3 34m-108 77c-7.4-.2-15.5 4.8-15.2 10-7.3-9.7 6.3-13.6 15.2-10m83-8.4c9.4 9.2-4.7 15.6-14.8 13.3 8-.9 16-7.6 14.8-13.3m18.7-30c5.7 8.7 4.5 24-7.4 18.5 5.7-.8 9.3-10.6 7.4-18.5m-96 81c-7.1 11-16.3-1.3-16-11.7 2.5 7.6 10.7 14 16 11.7" style="fill:#3b2e83"/>
  </pattern>
  <pattern id="SVGID_2_" xlink:href="#Plume2" patternTransform="matrix(0.5214 0 0 0.5214 -3497.5347 -4860.3311)"/>
  <pattern id="SVGID_1_" xlink:href="#Plume2" patternTransform="matrix(0.5214 0 0 0.5214 -3497.5347 -4860.3311)"/>
 </defs>
 <symbol id="nothing-title-logo" viewBox="-146 -69 292 138">
  <text transform="matrix(2.7.2.3-3.5-111-36.5)" style="font-size:25;font-family:&apos;Arial-Black&apos;;stroke-miterlimit:10;stroke:#000;stroke-width:2.6">n</text>
  <text transform="matrix(2.3-.5-.3-1.3-78.9-13)" style="font-size:25;font-family:&apos;Arial-Black&apos;;stroke-miterlimit:10;stroke:#000;stroke-width:2.6">o</text>
  <text transform="matrix(3.5-.7-.8-3.9-52-32)" style="font-size:25;font-family:&apos;Arial-Black&apos;;stroke-miterlimit:10;stroke:#000;stroke-width:2.6">t</text>
  <text transform="matrix(2.6.4.4-2.6-3.4-24)" style="font-size:25;font-family:&apos;Arial-Black&apos;;stroke-miterlimit:10;stroke:#000;stroke-width:2.6">h</text>
  <text transform="matrix(2-.4-.4-2 33.6-24.7)" style="font-size:25;font-family:&apos;Arial-Black&apos;;stroke-miterlimit:10;stroke:#000;stroke-width:2.6">i</text>
  <text transform="matrix(1.8.2.2-1.6 50.9-30.4)" style="font-size:25;font-family:&apos;Arial-Black&apos;;stroke-miterlimit:10;stroke:#000;stroke-width:2.6">n</text>
  <text transform="matrix(1.5-.3-.6-2.7 78-26.8)" style="font-size:25;font-family:&apos;Arial-Black&apos;;stroke-miterlimit:10;stroke:#000;stroke-width:2.6">g</text>
  <text transform="matrix(2.7.2.3-3.5-111-36.5)" style="font-size:25;font-family:&apos;Arial-Black&apos;;fill:url(#SVGID_1_)">n</text>
  <text transform="matrix(2.3-.5-.3-1.3-78.9-13)" style="font-size:25;font-family:&apos;Arial-Black&apos;;fill:url(#SVGID_2_)">o</text>
  <text transform="matrix(3.5-.7-.8-3.9-52-32)" style="font-size:25;font-family:&apos;Arial-Black&apos;;fill:url(#SVGID_3_)">t</text>
  <text transform="matrix(2.6.4.4-2.6-3.4-24)" style="font-size:25;font-family:&apos;Arial-Black&apos;;fill:url(#SVGID_4_)">h</text>
  <text transform="matrix(2-.4-.4-2 33.6-24.7)" style="font-size:25;font-family:&apos;Arial-Black&apos;;fill:url(#SVGID_5_)">i</text>
  <text transform="matrix(1.8.2.2-1.6 50.9-30.4)" style="font-size:25;font-family:&apos;Arial-Black&apos;;fill:url(#SVGID_6_)">n</text>
  <text transform="matrix(1.5-.3-.6-2.7 78-26.8)" style="font-size:25;font-family:&apos;Arial-Black&apos;;fill:url(#SVGID_7_)">g</text>
 </symbol>
 <symbol id="plus" viewBox="-32 -32 64 64">
  <path d="m5.1 5.1h12v-10.2h-12v-12h-10.2v12h-12v10.2h12v12h10.2v-12m26.9-5.1c0-17.7-14.3-32-32-32s-32 14.3-32 32c0 17.7 14.3 32 32 32s32-14.3 32-32m-5 0c0 14.9-12 27-27 27s-27-12-27-27c0-14.9 12-27 27-27s27 12 27 27"/>
 </symbol>
 <symbol id="the-nice-defender" viewBox="-249.6 -230.8 499.3 461.5">
  <path d="m84-185c-.4 2-.2 3.8-.3 5.7-.2 3.6-.2 7.2-.3 10.8-.2 6.8-.4 13.5-.6 20.3-.2 7.3-.3 14.7-.5 22-.2 6.6-.4 13.2-.6 19.7-.1 3.8-.2 7.6-.2 11.4-.2 9.1-.5 18.2-.7 27.3-.1 5.2-.2 10.4-.4 15.5-.2 8.8-.5 17.6-.7 26.4-.1 5.1-.2 10-.4 15.2-.3 10-.6 19.9-.8 29.9-.2 7.2-.3 14.4-.5 21.7-.2 6.7-.4 13.4-.6 20-.1 3.7-.2 7.3-.2 11 0 7.6-.2 15.3-.4 23 0 1.5.2 1.5 1.4 1.5 7.9-.1 15.7.4 23.6-.3 2.5-.2 5-.7 7.3-1.5 3.8-1.2 6.5-3.7 8.6-7 2.5-4 4-8.4 5.3-12.9 1.8-6.5 2.8-13 3.5-19.7 1.1-9.8 1.6-19.6 1.9-29.5.3-9.5.6-19 .9-28.6.3-9.6.7-19 1-28.8.3-9.5.7-19 1.1-28.5.4-10.8.9-21.6 1.3-32.5.3-7.6.5-15.3.8-22.9.4-7.9.5-15.8.2-23.8-.3-7.9-.8-15.8-3-23.5-.9-3.2-2.2-6.3-4.1-9-1.6-2.3-3.6-4-6.2-5.2-3.7-1.7-7.7-2.5-11.7-3.3-7.4-1.5-14.9-2.8-22.3-4-.8-.3-1.6-.4-2.4-.5m13.2 37.9c2.9.5 5.6.9 8.3 1.3 6.7 1.1 12 5.8 13.3 13.8.7 4.6.9 9.2 1 13.8.1 3.6-.1 7.1-.2 10.7-.2 4.9-.3 9.8-.5 14.7-.3 8.7-.6 17.5-.9 26-.2 6.5-.4 13-.6 19.6-.3 7.9-.6 15.8-.8 23.7-.2 5.6-.3 11.3-.5 16.9-.3 8.7-.7 17.3-.9 26-.2 8-.4 16-1.2 23.9-.3 3-.8 6-2 8.8-1.7 4.3-4.6 7.2-9.2 8.3-1.6.4-3.2.6-4.8.5-2-.1-4-.2-5.9-.3-1.5-.1-1.6 0-1.5-1.5.1-3.6.2-7.1.3-10.7.2-6.9.4-13.7.6-20.6.3-8.2.6-16.4.8-24.6.2-6 .3-12 .5-18 .3-9.1.6-18.2.9-27 .3-9.1.5-18.3.8-27.4.3-8.9.6-17.8.8-26.7.2-6.3.4-12.6.6-18.9.2-7.3.4-14.7.7-22 .1-3.4.2-6.7.4-10.3" style="fill:#9a0101"/>
  <path d="m5.9-53c0 60 0 115 0 169 0 2.9-.5 2.5 2.5 2.5 2.2 0 4.4 0 6.6 0 .9 0 1.4-.2 1.5-1.3.9-8.1 1.9-16.2 2.9-24.3 1-8.2 2-16.4 3-24.6 1-8.1 1.9-16.2 2.9-24.3 1-8 2-16 3-24 .9-6.7 1.7-13.5 2.6-20 1-8.1 2-16.2 3.1-24 .2-1.2.3-2.5.5-3.7.2-1.4.2-1.4 1.5-1.3 3.4.2 6.9.4 10.3.7 1.3.1 2.5.2 3.8.2.9 0 1.1.4 1.1 1.2-.1 6-.1 11.9-.2 17.9 0 3.8-.1 7.5-.2 11.3 0 5.4 0 10.7-.1 16-.3 13-.2 26-.4 39-.2 12.7-.3 25.3-.4 38-.1 7.2-.2 14.3-.3 21.5 0 .4 0 .8 0 1.2-.1.9.3 1.1 1.2 1.1 2.4 0 4.8 0 7.2 0 .9 0 1.3-.2 1.3-1.2 0-2.8.1-5.7.2-8.5.1-6.2.2-12.3.3-18.5.1-9.5.2-18.9.4-28.4.2-8.1.2-16.2.4-24 .2-8.3.2-16.6.4-24.8 0-8.5 0-16.5.2-24.6.2-8.3.2-16.6.4-24.8.2-8.1.2-16.3.4-24.4.2-8.2.2-16.4.4-24.6.2-8.1.2-16.3.4-24.4.2-8.2.2-16.4.4-24.6.2-8.2.2-16.4.4-24.6.2-8.1.2-16.3.4-24.4.2-7.7.3-15.4.4-23 0-.5 0-.9 0-1.4 0-.6-.2-.8-.8-.9-4-.3-7.9-.5-11.9-.9-.8-.1-1 .4-1.1 1.1-.3 2.8-.7 5.5-1 8.3-.9 7.2-1.8 14.5-2.6 21.7-.9 7.2-1.7 14.3-2.6 21.5-.9 7.3-1.7 14.6-2.6 21.9-.9 7.2-1.7 14.5-2.6 21.7-.9 7.5-1.8 15-2.6 22.5-.7 6.2-1.4 12.4-2.1 18.6-.4 3.5-.8 7-1.2 10.5-.1.9-.4 1.1-1.2 1.1-4.8-.3-9.5-.6-14.3-.8-.9 0-1.3-.4-1.2-1.3.3-5.8-.1-11.7.2-17.5 0-.3 0-.5 0-.8 0-7.7.1-15.4.1-23 .1-12.3 0-24.5.2-36.8.2-15.9.3-31.8.3-47.7 0-4.6 0-9.3.1-13.9 0-2.3.1-4.6.1-7 0-1-.3-1.4-1.4-1.4-3 0-6 0-8.9-.1-.9 0-1.4.2-1.3 1.2.1.5 0 .9 0 1.4 0 21.6.1 43 0 64.8-.2 32 0 65-.1 91" style="fill:#9a0101"/>
  <path d="m-13-13.5c.3-.9.2-1.7.2-2.5-.1-12-.2-24-.3-36-.1-4.9-.2-9.8-.3-14.7 0-1.1-.2-1.5-1.5-1.5-6.3.4-12.6.6-18.9.9-.2 0-.4 0-.7 0-1.9 0-1.7-.2-1.7-1.7 0-3-.1-6.1-.1-9.1-.2-12.3-.2-24.6-.5-37-.2-10.5-.3-21-.4-31.6-.1-7.3-.2-14.5-.4-21.8 0-2.2.1-1.9 1.9-2 7.2-.4 14.4-.9 21.5-1.3.5 0 1-.1 1.6-.1 2.3-.2 2.2-.2 2.2-2.3-.1-4.6-.1-9.2-.1-13.8-.1-7.1-.1-14.3-.1-21.4-.1-6.7-.1-13.4-.2-20 0-.4 0-.7-.3-1.2-4.3.3-8.8.6-13.2.9-7.8.6-15.7 1.3-23.5 2.1-2.7.2-5.5.6-8.2.8-.9.1-1.3.4-1.2 1.3.1 3.6.1 7.3.2 10.9.1 6.2.3 12.3.4 18.5.2 10.4.5 20.8.7 31 .1 4.1.1 8.2.2 12.2.2 10 .5 20 .7 30 .1 3.9.1 7.7.2 11.6.3 12 .5 24 .8 36 .2 9.4.3 18.8.6 28 .2 10.4.5 20.8.7 31 .1 5.9.2 11.7.3 17.6.2 11.6.5 23.3.7 34.9.2 7.8.3 15.6.5 23.4.2 10.3.5 20.6.7 30.9.1 3.9.1 7.9.2 11.8.2 11 .5 22 .7 32.9 0 1 .3 1.4 1.4 1.4 6.1-.1 12.2 0 18.3-.1 5.8-.2 11.6 0 17.4 0 .4 0 .9 0 1.3 0 1.2.2 1.5-.3 1.4-1.5-.1-11-.1-22.3-.3-33.4-.1-7.3-.2-14.5-.2-21.8 0-2 0-2-1.9-2-6.5.1-12.9.2-19.4.3-2.7 0-2.4.4-2.4-2.3-.2-11.4-.2-22.7-.5-34-.2-10.4-.3-20.8-.4-31-.1-7.3-.2-14.7-.4-22 0-1.8-.3-1.9 1.9-1.9 6.5-.2 13-.5 19.6-.7.3 0 .6-.1.8-.1" style="fill:#9a0101"/>
  <path d="m-240-11.2c0 12.9-.1 25.9 0 38.8.1 14.6.3 29 .3 43.7 0 7.2.1 14.3.2 21.5 0 .2 0 .5 0 .7-.1.9.5 1 1.1.9 2.2 0 4.5 0 6.7-.1 4.3-.1 8.6-.2 12.9-.4 3.9-.2 7.7-.5 11.5-1.3 5.4-1.2 9.1-4.4 11.2-9.4 2-4.6 3.2-9.5 3.9-14.5.9-5.5.9-11 1-16.5.2-8.4-.1-16.9-.4-25.3-.3-10.7-.7-21.3-1.1-32-.4-10.7-.7-21.3-1.1-32-.4-10.7-.7-21.3-1.1-32-.4-10-.6-20-1.1-30-.4-8.5-1-16.9-2.4-25.3-.5-3.1-1.2-6.1-2.7-8.8-2.2-4.1-2.9-3.5-6-2.5-2.7.9-5.1 2.2-7.6 3.5-8.5 4.7-16.9 9.6-25 14.7-1 .6-1.3 1.3-1.3 2.4.1 8.7 0 17.5.1 26 .2 14.7.3 29.5.3 44 0 3.6 0 7.3.1 10.9 0 5.9.1 11.9.1 17.8 0 1.6 0 3.2 0 4.7.3.3.4.3.5.3m13.3 81c-.4-.5-.3-1-.3-1.5-.2-7.6-.4-15.2-.5-22.7-.1-4.7-.1-9.3-.2-14-.2-7.8-.4-15.6-.6-23.5-.2-7.7-.3-15.4-.5-23-.2-9.3-.4-18.5-.6-27.8-.1-3-.1-6.1-.1-9.1-.2-7.8-.4-15.6-.6-23.5-.1-3.7-.2-7.4-.2-11-.1-4-.2-8-.2-12 0-.6 0-1 .7-1.3 2.2-.9 4.2-2.1 6.5-2.8 7.1-2 13.2 1.5 14.9 8.6.8 3.4 1.3 6.8 1.6 10.2.6 6.9.4 13.8.7 20.7.3 8 .4 16 .6 24 .3 10.8.6 21.7.8 32.5.2 8.2.4 16.4.6 24.5.2 9.6.6 19.3.6 28.9 0 3.2-.1 6.3-.7 9.4-1.1 5.5-3.9 9.8-9.5 11.7-1.7.6-3.5.9-5.3 1.1-2.7.4-5.2.8-7.7.8" style="fill:#9a0101"/>
  <path d="m0 71.8c83 0 165 0 248 0 1.7 0 1.7 0 1.7-5.8 0-3.7 0-7.4 0-11 0-1.7-.2-2.3-.6-2.2-.3.1-.6 0-.9 0-165 0-331 0-496 0-1.5 0-1.5 0-1.5 5.2 0 3.7 0 7.4 0 11 0 2.4.2 3 .9 2.8.3-.1.7 0 1 0 83 0 165 0 248 0" style="fill:#010101"/>
  <path d="m159-157c-.2 4.7-.4 9.5-.5 14.2-.3 7.7-.7 15.4-1 23-.4 9.4-.7 18.9-1.1 28-.4 9.9-.9 19.9-1.3 29.8-.4 9.4-.7 18.9-1.1 28-.3 8.3-.7 16.7-1 25-.4 11-.9 22-1.3 33-.4 11-.9 22-1.3 33-.3 8.3-.7 16.6-1 24.8 0 1.1-.2 2.2-.2 3.3-.1 1.5-.1 1.5 1.4 1.5 6.3 0 12.7.1 19 .1 2.7 0 5.3.1 8 .1 1.2 0 1.2 0 1.2-1.2.4-9.3.7-18.6 1.1-27.8.1-1.8.2-3.7.3-5.5 0-1.3 0-1.4-1.3-1.5-3.5-.3-7-.6-10.5-.9-1.4-.1-2.9-.2-4.3-.3-1.3-.1-1.3-.1-1.2-1.4.1-3.3.3-6.6.4-9.8.2-4.4.4-8.8.5-13.2.3-7.5.6-15 .9-22.5.2-4.6.4-9.1.5-13.7 0-.6.1-1.2.2-2 5.3.8 10.6 1.6 16 2.4.1-1.7.2-3.4.3-5 .4-8.9.7-17.9 1-26.8 0-.2 0-.3 0-.5.2-1-.5-1.2-1.2-1.4-3.1-.7-6.2-1.3-9.3-2-1.5-.3-2.9-.7-4.4-.9-.9-.1-1.2-.6-1.1-1.4.2-4.8.4-9.7.6-14.5.4-9.4.7-18.8 1.1-28 .3-8.2.7-16.4 1-24.7 0-.6.1-1.1.2-1.6.4-.3.8-.1 1.1 0 5.4 1.6 10.8 3.2 16 4.8 1.5.4 1.5.4 1.5-1 .3-8.8.7-17.7 1-26.5.1-2 .1-4 .2-6 .1-.9-.1-1.3-1-1.6-3-1.1-6-2.3-9-3.4-6.5-2.4-12.9-4.7-19.5-6.9-.1 0-.4-.3-1-.1" style="fill:#9a0101"/>
  <path d="m-139-50.6c-6 1.2-12 2.4-18.3 3.7-.1-2.9-.3-5.6-.4-8.4-.4-9.4-.8-18.9-1.2-28-.4-10.6-.8-21.3-1.2-31.9-.1-3.4-.2-6.7-.5-10-.1-1.1.2-1.4 1.2-1.7 6.2-1.6 12.4-3.3 18.5-5 2.1-.6 2.1-.6 2-2.6-.3-6-.5-11.9-.7-17.9-.3-7.5-.6-15-.9-22.4 0-.1-.1-.2-.1-.4-.4-.4-.8-.1-1.2.1-10.9 3.6-21.7 7.4-32.4 11.5-1.6.6-1.5.4-1.5 2.3.5 12.7 1 25.3 1.5 38 .4 11 .8 21.9 1.2 32.9.4 10.3.8 20.5 1.3 30.8.4 9.5.8 19 1.1 28.5.5 12 .9 24 1.4 36 .4 10.3.9 20.5 1.3 30.8.5 12 .9 23.9 1.4 35.9.4 10.9.9 21.8 1.4 32.7.1 1.5.1 1.5 1.6 1.5 6.3-.1 12.6-.1 18.8-.2 4 0 8 0 12-.1 1.3 0 1.3-.1 1.3-1.3-.2-6.5-.5-13-.8-19.6-.2-5.2-.4-10.4-.6-15.6-.1-2-.2-3.9-.2-5.9 0-1-.4-1.2-1.4-1.1-5 .4-10 .8-15 1.1-1.1.1-2.5.6-3.3 0-.7-.6-.4-2-.4-3.1-.3-8.5-.7-17-1-25.5-.4-10.6-.9-21-1.4-31.7-.1-3.1-.1-6.2-.4-9.3-.1-.8.2-1.1 1-1.2 2.3-.3 4.6-.7 7-1 3.1-.4 6.2-.8 9.2-1.2 1.4-.2 1.4-.2 1.4-1.7-.3-8.2-.7-16.3-1-24.5-.2-4.4-.3-8.9-.5-13.3.1-.3.1-.7-.2-1.1" style="fill:#9a0101"/>
  <path d="m-101-203c-3.1.4-5.8 1.2-8.7 1.8-2.2.5-4.4 1.1-6.6 1.5-1 .2-1.2.6-1.2 1.5.3 4 .3 8 .4 11.9.2 7.1.5 14 .8 21 .4 9.3.7 18.6 1.1 28 .2 5.9.4 11.8.6 17.7.3 9.2.7 18.4 1.1 27.6.2 5.9.4 11.8.6 17.7.3 9.3.7 18.5 1.1 27.8.2 5.8.4 11.7.6 17.5.3 9.3.7 18.6 1.1 28 .2 5.9.3 11.8.6 17.7.3 9.2.7 18.4 1.1 27.6.2 6 .4 11.9.6 17.9.3 9.2.7 18.4 1.1 27.6.2 5.9.4 11.8.6 17.7.1 4 .3 8.1.4 12 0 1 .4 1.3 1.3 1.3 4.5-.1 8.9.1 13.4-.1 3.6-.1 7.1 0 10.7 0 3.6 0 7.1 0 10.7-.1 1.5 0 1.5 0 1.5-1.4-.1-4-.2-8.1-.3-12-.1-4.3-.3-8.6-.4-13-.2-8-.5-15.9-.7-23.9-.1-1.5-.1-1.6-1.7-1.5-6.2.3-12.5.6-18.7.9-2.8.1-2.2.1-2.3-2.3-.2-7.8-.5-15.6-.8-23.5-.3-10.6-.6-21-1-31.7-.3-7.8-.6-15.4-.8-23 0-1.6 0-1.6 1.5-1.7 5.5-.5 11-.9 16.6-1.3 2.2-.2 2.1-.1 2.1-2.4-.2-7.9-.4-15.8-.6-23.7-.2-7.1-.4-14-.6-21 0-1.4 0-1.4-1.6-1.3-6.1.7-12 1.5-18.2 2.2-.2 0-.4 0-.8 0-1.5-47.6-3-95-4.6-143" style="fill:#9a0101"/>
  <path d="m242-106c0 1.9 0 3.8 0 5.7-.1 5.6-.2 11.2-.3 16.8-.1 6.1-.3 12.2-.4 18.2-.2 8.2-.3 16.4-.5 24.6-.1 3.6-.6 7.1-1.4 10.6-1.1 5.1-5.5 8.6-11.8 7.8-2.2-.3-4.3-1.1-6.4-1.7-.6-.2-.7-.5-.7-1 0-1.4.1-2.9.1-4.3.1-6 .3-12 .4-18 .2-8.5.4-17 .6-25.5.2-8.3.4-16.6.6-24.9.2-5.9.4-11.7.5-17.6 0-2.4.4-1.7-1.7-2.9-2.4-1.3-4.9-2.6-7.5-3.9-.1 2.7-.2 5.1-.3 7.6-.3 8.3-.6 16.6-.9 24.9-.2 4.7-.3 9.4-.4 14-.3 7.6-.6 15-.8 22.7-.2 4.8-.3 9.6-.4 14.4-.3 7.5-.6 14.9-.8 22.4-.2 4.7-.3 9.5-.4 14.2-.3 7.6-.6 15-.8 22.7-.2 4.7-.3 9.5-.4 14.2-.3 7.5-.6 15-.8 22.5-.2 4.8-.3 9.7-.4 14.5 0 1.2-.1 2.5-.2 3.7-.1.8.2 1 .9 1 3.2 0 6.4.2 9.6.1 3.5-.1 7 .1 10.5-.1 2.9-.2 5.7-.5 8.5-1.3 1.8-.5 3.2-1.5 4.3-3.1 1.7-2.4 2.9-5.1 3.8-7.9 1.5-4.6 2.3-9.3 2.7-14 .9-11 .8-22 .6-33-.1-4.2-.7-8.4-1.7-12.5-.4-1.4-1-2.7-1.9-3.8-2.1-2.7-4.6-5-7.4-7-1.1-.8-1.6-1.7-1.2-3 .1-.2.1-.5.1-.8 0-3.1 1.6-5.2 4.3-6.6 1.4-.7 2.8-1.6 4.1-2.5.9-.7 1.5-1.5 1.9-2.5 1.6-3.9 2-8 2.2-12 .3-6.3.3-12.7.3-19 0-8.1 0-16.2.1-24.3 0-7.9.1-15.8.2-23.7 0-1-.2-1.7-1.2-2.2-1.5-.8-3-1.8-4.5-2.7-.2-.3-.4-.6-1.1-.4m-21.9 101c3.1.6 6.1 1.1 9 1.9 5.3 1.6 8.6 5 9.6 10.6.7 4.1.7 8.3.7 12.5 0 2.2-.1 4.4-.2 6.6-.1 3.2-.1 6.4-.2 9.6-.1 3.4-.4 6.8-1.4 10-1.8 6.2-6.9 9-12.8 8.6-1.7-.1-3.5-.3-5.2-.5-1.1-.1-1.1-.1-1.1-1.2 0-1.9.2-3.8.2-5.7.1-6.6.3-13.3.4-19.9.2-8.1.4-16.3.6-24.4.2-2.7.3-5.3.4-8.2" style="fill:#9a0101"/>
  <path d="m-114 155c-.6 8.6-1.2 17-1.1 25.7 0 6.5.4 13 2.3 19.3 2.1 6.9 6 12.5 12.3 16.2 5.1 2.9 10.6 3.9 16.4 3.4 5.5-.5 10.3-2.6 14.2-6.5 3.7-3.7 6.3-8.2 7.9-13 1.9-6 2.9-12.2 3.5-18.4.9-8.9 1.2-17.9 1.4-26.9 0-1.3 0-1.3-1.1-1.3-11.7-.5-23.4-1-35-1.5-.3 0-.6-.1-.9-.1-.9 0-1.1-.3-1.1-1.3.5-9.6 1-19 1.5-28.8.3-5.3.4-10.5 1.1-15.8.2-1.8.5-3.6 1.1-5.3 1.4-4 4.5-6.5 8.5-6.6 4.5-.1 7.9 2.1 9.5 6.3 1 2.6 1.2 5.3 1.2 8 .1 6.8-.3 13.6-.6 20.3 0 .9-.1 1.7-.1 2.6 0 .7.2 1.1 1 1.1 5 .1 10 .3 15 .5.6 0 .9-.2.9-.9.2-8.8.9-17.6-.3-26.4-.9-6.5-3.2-12.6-6.8-18-3.5-5.4-8.7-8-15-8.4-5.3-.3-10.4.3-15.2 2.7-4.5 2.3-8.1 5.6-10.7 9.9-3.2 5.2-5.1 10.9-6.2 16.9-1.2 6.9-1.7 13.9-2.1 20.9-.4 7.6-.9 15.3-1.3 22.9-.3 1-.3 1.9-.3 2.7m17.2 26c.3-5.1.6-10.3.8-15.4 0-.9.3-1.2 1.2-1.1 5.6.4 11.2.7 16.8 1 1.5.1 1.6.1 1.5 1.6-.4 7.5-.6 15-1.2 22.5-.3 3.1-.5 6.2-1.7 9.2-1.5 3.8-4.7 6-8.4 5.7-4.5-.3-7.7-2.8-8.7-6.9-.6-2.4-.6-4.9-.6-7.4-.1-3.1.1-6.2.3-9.2" style="fill:#010101"/>
  <path d="m191 166c-2.1.2-4.3.5-6.5.7-2.9.3-5.9.6-8.8 1-1.4.2-1.4.2-1.3 1.5.2 2.7.4 5.4.5 8.1.3 4.1.5 8.2.2 12.4-.1 1.7-.4 3.3-1.1 4.8-1.6 3.9-5.2 6.3-9.3 6.1-4-.1-7.2-2.7-8.6-6.8-.9-2.7-1.2-5.4-1.4-8.2-.6-7.7-1.1-15.4-1.6-23-.6-8.7-1.2-17.3-1.7-26-.6-9.2-1.3-18.3-1.7-27.5-.2-4.1-.1-8.1 1.2-12 1-2.8 2.6-5.1 5.3-6.3 4.1-1.9 8.9-.5 11.7 3.2 1.3 1.8 2 3.8 2.5 5.9.8 3.6 1.2 7.2 1.5 10.8.3 4.5.6 9 .9 13.5.1 1.6.2 1.6 1.7 1.5 4.2-.3 8.4-.6 12.5-.9 1.4-.1 1.4-.1 1.3-1.5-.5-6-.9-12-2-18-1.6-8.3-5-15.7-10.8-21.9-4.3-4.7-9.9-6.9-16-7.3-3.1-.2-6.3-.2-9.4.4-7.3 1.4-12.3 5.7-15.2 12.4-1.9 4.5-2.8 9.2-3.3 14-1 9.5-.5 19 .1 28.4.5 7.2.9 14.4 1.3 21.6.6 9.4 1 18.8 1.9 28 .6 5.8 1.3 11.7 3.3 17.2 3 8.3 8.6 14 17.3 16.3 7.5 1.9 14.5.1 20.8-4 7.6-5 12-12.3 13.7-21 1.5-7.6 1.2-15.3 1.1-23 .2 0 .2-.1 0-.3" style="fill:#010101"/>
  <path d="m236 123c2.8-.3 5.5-.6 8.2-.9 1.4-.2 2.8-.3 4.2-.5.5-.1.8-.2.8-.8-.1-5.1 0-10.2-1.2-15.2-1.1-4.6-3.5-8.5-6.9-11.7-2.7-2.5-6-3.9-9.6-4.5-5.1-.8-10.2-.7-15 1-4.9 1.7-8.5 4.8-10.7 9.6-1.8 3.9-2.5 8.1-2.7 12.3-.3 4.9 0 9.8.3 14.7.3 7 .7 14 1.2 21 .4 5.7.5 11.4 1.2 17 .5 4.3 1.4 8.5 3 12.5.5 1.1 1 2.2 1.7 3.2 3.1 4.7 7.6 6.6 13 5.9 12.3-1.6 20-8.9 23.8-20.4 1.4-4.1 1.8-8.4 2.1-12.7.3-4.8.1-9.7.1-14.5 0-.5 0-1-.2-1.6-1.8.2-3.6.5-5.5.7-6.2.8-12.4 1.6-18.6 2.4-1.7.2-3.4.4-5.1.6-1.1.1-1.1.1-1.2-1.1-.2-4-.3-8.1-.5-12-.2-5.5-.5-11-.7-16.5-.1-2.4 0-4.8.4-7.2.7-3.4 3-5.9 6.2-6.4 3.6-.6 6.8.4 9 3.6 1.1 1.6 1.5 3.5 1.8 5.4.6 3.5.6 7.1.8 10.7 0 1.7.1 3.5.2 5.4m-.6 23.3c.1.4.2.8.2 1.3.1 6.2.5 12.3.4 18.5 0 1.8-.1 3.5-.7 5.2-.7 2.3-2.1 4.1-4.4 5.1-3.7 1.5-7.9.7-9.7-3.2-.4-.8-.6-1.7-.7-2.6-.6-3.3-.7-6.7-.8-10-.2-3.5-.3-7-.4-10.4 0-1.3 0-1.3 1.2-1.5 4.6-.8 9.3-1.5 13.9-2.3.2-.1.6-.2 1 0" style="fill:#010101"/>
  <path d="m34 209c1.6 4.2 3.4 8.1 6.3 11.4 5.2 6.2 14.5 5.4 18.8-.4 2.5-3.4 3.9-7.1 4.5-11.2.9-6.6.8-13.3.7-20-.1-6.5-.3-13-.4-19.5-.2-6.7-.4-13.3-.6-20-.2-5.9-.3-11.8-.5-17.7-.3-8.9-.6-17.8-.8-26.7-.2-7.7-.4-15.3-.6-23-.1-2.9 0-2.9-2.8-2.9-4.6 0-9.1 0-13.7 0-.5 0-.9 0-1.4 0-.5 0-.7.3-.7.8.1 5.6.2 11.2.3 16.8.1 3.8.1 7.7.2 11.5.1 10 .2 20 .4 30 .2 7.1.2 14.2.4 21.3.2 7.3.2 14.5.4 21.8.1 5.3.1 10.6-.1 15.9-.1 1.5-.2 3.1-.6 4.6-1.2 4.4-4.3 6.8-8.9 7-.3.2-.5.2-.9.2" style="fill:#010101"/>
  <path d="m83 148c.4 9.3.8 18.6 1.1 27.8.4 8.9.8 17.8 1.2 26.7.1 1.9.1 1.9 2 1.8 4.6-.4 9.3-.8 13.9-1.2.8-.1.8-.4.8-1-.2-3.6-.4-7.3-.6-10.9-.5-9.1-1-18.2-1.4-27-.5-9.2-1-18.4-1.4-27.5-.5-9.1-1-18.2-1.4-27-.3-5.5-.6-11-.9-16.5-.1-1.1-.1-1.1-1.1-1.1-4.5 0-9 0-13.5 0-1 0-1 0-1 1.1.3 6.2.5 12.4.8 18.7.2 4.2.4 8.3.5 12.5.2 7.9.6 16 1 24" style="fill:#010101"/>
  <path d="m22.9 183c.7.1.5.9 1.2 1.1 0-1 0-2 0-3-.1-5.7-.2-11.3-.2-17-.1-10.8-.2-21.6-.4-32.4-.2-9.1-.2-18.2-.3-27.3-.1-8-.2-16-.3-23.9 0-1.3 0-1.3-1.2-1.3-5.4 0-10.8 0-16 0-.9 0-1.2.3-1.1 1.1 0 .4 0 .8 0 1.2 0 24 0 48 0 72 0 22.5 0 44.9.1 67 0 .3 0 .6 0 .9-.1.9.3 1.1 1.1 1.1 1.5-.1 3-.1 4.4-.1 4.2 0 8.4-.1 12.6-.1.4 0 .7 0 1.1 0 1.3-.1 1.4-.2 1.3-1.5-.5-9.1-.9-18.3-1.4-27.4-.4-3.7-.6-7.2-.8-10.8" style="fill:#010101"/>
  <path d="m-177 223c.2-2.3.3-4.4.5-6.6.8-11.8 1.5-23.7 2.3-35.5 0-.3-.5-1.3.6-1 .2.1.1-.3.1-.5-.4-5.8 0-11.6.4-17.5.4-5.6.7-11.3 1.1-16.9.5-7.7 1-15.5 1.5-23 .5-7 .9-14 1.4-21 .3-5 .7-10 1-15 .1-1.3.1-1.3-1.3-1.3-5 0-10 0-15.2 0-.1.9-.2 1.9-.3 2.8-.5 8.1-.9 16.2-1.4 24-.5 8.6-1 17-1.5 25.7-.6 9.1-1.1 18.3-1.6 27.4-.5 8.7-1.1 17.3-1.6 26-.4 6.2-.7 12.4-1.1 18.6-.2 3.1-.4 6.2-.6 9.4-.1.8.2 1.1 1 1.3 4.6 1.1 9.2 2.2 13.8 3.3.2-.1.5-.2.9-.1" style="fill:#010101"/>
  <path d="m-169 187c2 3.4 3.8 6.9 6.6 9.8 2.4 2.5 5.2 4.3 8.8 4.8 2.3.3 4.4-.1 6.3-1.3 3.8-2.5 5.9-6.2 6.7-10.6 1-5.7 1.5-11.5 1.9-17.4.5-7.8 1-15.6 1.5-23.4.5-7.4.9-14.7 1.4-22 .5-8 1.1-16 1.6-24 .4-5.8.7-11.6 1.1-17.4.1-1.4.1-1.5-1.4-1.5-3.6 0-7.1 0-10.7-.1-1.2 0-2.4-.1-3.6-.1-.7 0-.9.3-1 .9-.3 5-.6 10-1 15-.5 7.6-1 15.2-1.5 22.8-.4 5.6-.7 11.2-1.1 16.8-.5 7.6-1 15.2-1.5 22.8-.3 4.6-.5 9.3-1.1 13.9-.2 1.7-.5 3.4-.9 5.1-1.5 5.7-6 8.1-11.6 6.1-.1-.1-.3-.1-.5-.1" style="fill:#010101"/>
  <path d="m-237 176c-2-.4-3.7-.8-5.6-1.2-.2 2.1-.2 4-.2 6 0 .7.4.9 1 1.1 1.2.3 2.5.8 3.7 1 .8.2 1.1.5 1.1 1.3-.1 4.3-.2 8.7-.2 13 0 1.3 0 2.6 0 3.9 0 .5.1.9.7 1.1 4.8 1.5 9.5 3.1 14.4 4.4.1 0 .2 0 .5-.1.3-6.3.5-12.5.8-19 2.5.6 4.8 1.1 7.3 1.7.4-.5.4-1.1.4-1.7.1-1.8.1-3.5.2-5.3.1-.8-.2-1.1-.9-1.2-1.7-.3-3.4-.7-5-1-1.5-.3-1.6-.3-1.5-1.8.2-4.8.4-9.6.5-14.5.2-4.9.4-9.8.6-14.7.3-8.3.7-16.6 1-24.9.3-6.6.5-13.2.8-19.8.2-3.2.4-6.5 1-9.7.8-3.8 3.1-5.8 6.8-6.5 2.1-.4 2.1-.4 2.3-2.5.1-1.9.1-3.8.3-5.7.1-.9-.3-1.2-1.1-1.2-.2 0-.5 0-.7 0-4.9 0-9.8-.1-14.7.3-3.4.3-6.4 1.3-8.7 4.1-1.3 1.7-2.2 3.5-2.4 5.6-.5 4.1-.8 8.3-.8 12.4-.1 9-.2 18-.4 27-.2 7.5-.2 14.9-.4 22.4-.2 7.5-.3 15-.4 22.6-.2.9-.3 1.8-.4 2.8" style="fill:#010101"/>
  <path d="m87 231c3-.3 6-.6 9-.9 2.2-.2 4.5-.5 6.7-.7.7-.1 1-.3 1-1-.2-2.8-.3-5.5-.4-8.3 0-.6-.1-.9-.9-.9-4.9.5-9.8.9-14.7 1.3-1.1.1-1.2.1-1.1 1.3.1 2.9.3 5.8.4 8.7-.2.2-.1.3 0 .5" style="fill:#010101"/>
  <path d="m-174 179c0-.1-.1-.2-.2-.1-.1.1 0 .2.1.3 0-.1.1-.1.1-.2" style="fill:#010101"/>
 </symbol>
 <symbol id="wall-pattern_1_" viewBox="-251.9 -198.6 503.8 397.1">
  <path d="m-250 197c3.8-2 10.9-10 6.5-15.7-5.4 6.5-6.7 4.8-6.5 15.7m39.5-3.4c2.8-7.2 7.5-19-1.2-24.8-4.3-3.3-17.2 8.3-25.6 3.7-22.8-10.2-15.2-52-2.3-68 7.3-5.7-3.1-15.7 6.7-19.7 8.8-2.3 7.3-22.5 6.8-27.4.6-9.6-7.6 3-.5-9.6 2.7-1.4 4.6-8.2 4.6-10.5.5-20.5-14.5-6.6-21.4-12 6.2-5.3 6.7-12.3 5.5-20-.3-2.8-4-8-6.9-8.4-8.2-1.1-4.2-14.7-4.2-21.6 10.3 7.1 18.4-.3 24-10 4.8-12.6 22.6-3.3 31.9-5.6 6.4-2.1-14.2-24-15.9-25-15.6-2.3-15 6.4-25 14.2-5.1-9.3 8.4-27.7-8-31.5-19-2.5-.3-16.6 9.1-5.6 7.1 11 5.7 16.4 15.8 7.9-.8.9 28-9.9 21.3-17.4-2.6-2.9-17.3 8.5-24 1.4 1.3-6.9 13 1.7 13.4-8.8.2 8.1-18-12.5-17.6-11.8-2-6.7 25.6-2.7 27.9-3.6 6.4-2.5-13.7-33.6-34.4-17.8-4.8 2-15.9 12-16.6 3.7-3.5-3.2-6.6-34.9 3.9-23.9.7 10.3 22.4.7 26.9-3.3 6.4-2.5 3-29.7-6.1-27.5-2.9.1-2.4 12-7.2 14.5-2.6-4.5 3-13.7-5.6-14.4-5-.4-8.2.1-8.2 5.4 0 10.5-5.9 3-5.9-8 17.5-1.1 50-16.6 55.9 3.4 5.9 24.5 35 22 54 18.8 12.5 3 18-27 29.5-27 13.6-.2 13.5 8.3 26.8 12 8 2.8 31 19 32.9 13 1.3-8.2.5-14.3-.7-22.4.4-5.1 29.6-5.5 32-1.4-4.8 10.3.7 15 5.1 20.4-5.9-.4-10.7-2.3-16.4.5-3.6 1.6-7.5 13.5-4.4 14.9 9.2 7.7-3.1 30.6 4.4 33.7 1.8.7 26 48 26.3 48 4.9-7.7-.9-24.4 12.8-24.4 15 1.8 8.3 15 12 24 .1.3 13.7-19.8 14.3-22.8 1-5 6.5-7.1 2.2-14.5 2.2-3.2 10-6.7 10.8-11 1.2-6.5 3-17.3-3.9-21.5-.5.7 5.3-8.8 5.6-7.3 4.4-26-14.7-10-19.6-20.3 8.8-1.5 6.1-15.7 3.9-21.4 11 .3 22-.6 33 .5-1.1 5.4-7.2 28 .6 30.9 1.4.5 33-16.9 36.4-18.7 7.8-1.2 8.3-11.8 14.9-12.9 17.3-2.9 6 4.2 14.9 11.2 13.3 16.8 19.6 25.8 44.5 24.3 19.5-2.4 27.9-16.3 27.9-35 6.2.2 48-4.2 43.9 13.8-1.1 4.7-13.3 1-7.9 13.5-9 1.3-4-8.4-7-12-3.8-4.5-13 14.7-10.4 16.5-.6-.4 2.6 13.4 8 15.8 17 7.5 17.3-6.8 17.3 20-17-3.3-40.7-18-39 14.8 1.1 2.5 26-6.6 27 4.8 0 13.2-10.3 6.4-15.4 9.3-7.1 4 10.8 8.2 13 8.2-6.1 12-14-.1-22.9.6-2.8 8.6 30 24.3 28.9 25.6 3.4-2 2.4-12 8.4-16 .1 5.1 1.9 32-1.5 33.6-13.9-36-36.5 13.6-36.6 13.6 11.3 7.4 30-8.3 37 14.4 3.5 12.7-1.8 27 .3 40 1.4 8.2-4.4 8.5-4.4 11.9-4.1 7.2-7.2 19.3 2.6 24.7-8.9-2.7 2.4 31.7 2.3 32.4-.1 6.5 3.7 32.7-3.8 32.4-8.3-.5-8.6 8.9-10.3 9.5 11.4 20-2 5.8-9.8 2.5-4.2-2.9 4.1-24.5 2.3-31-.9-5.6-8.6-11.2-12.9-13.5 7.5-8.6 16.4-28.6 8.9-40 1.3-7.9-18.8 8.1-22.4 9-12.4 3-51 31.9-22 41.9-4.6 11.3-3.5 26.8-8.6 36.5-11.6 15.6 11.7 10.4 12.6 11.2.5.4-.2 20 .7 23.7.8 3.2 8.8 8.4 10.6 10.3-1.5.8-15 .7-14.6 5.4-2.8 13.5-5.4 12-20.5 10.4 6.1-5.2 5.9-28.9-.4-24-5.9 10.5-8.7 14-22 13.6-4.1-1.3-16.5-1.9-18.3 5 .8 2.3 2.2 4.2 4 5.7-4.3.5-24.4-.2-24.4-9.7 63 0 75.9-96 45.9-143 0-13.5-43.6-8-47.7-6.7-7.7 1.5-28.6 32.6-18 35.5 8.2 8.9 1.3 27.5 12.8 9.5 1.5-3.1 15-31.6 22-19-.2-2.4-36.4 39-10.4 36.5-11.7-1.6 30-24 23.3-15.8-7.4 1.1-8.8 3.9-13.7 9-7.9 8.3 4.7 17.3 5.1 12.5 1.9-15 24.8 4.5 18.8 4.8-18-14-15.7 13.2-17.7 13.4 9.8.9 11.6 15.2 8 14.3 1-13.3-16.9-9.6-16.2 3.3-.2 1.5 9.1 8.7 8.9 16-2.5 4.3-3.5 8.1-7.8 11-15.3 9.1-51.6 4.2-62-12 5.5.4 18.2-6.7 18.2-6.7 1.7 0 .4-20-6.5-9.8-7.2 3.1-12.7 2.5-20 1.4-9.8-2.8-24.6-12.7-29-23.7-4.2-10-3.6 1-8.1 3.7-9.1 1.9-16.4 18-28.9 20-6.4.6-23.4-7.2-25-1.5-4.5 20.7 8.9 11.7 18.4 15.9-9.1 24.8-50 11.6-65 8.9-5.6-6.1-8.1-15.8-.3-21.8 9.6 0-6.1-30-11-5.4-10.5-2.2-1-14.7 5.4-14.7 2.1.4 2.3-17.7-16.6-13.8-13.5-17.6 27-1.6 23.8-1.7 10.2.4-5.2-23.8-13.7-25.7-1.1-9.9 18.7 5.9 20 8.4 2.4 7.2 5.3 10.8 9.1 5.3 11.5-16.6-12-27-17-35.5 13.9 0 20.3 8.4 23.8 20.3 3.9 24.7 17.6-9.2 11.5-23-15.4-25-42.7-36-68-13.3-25 15.3.4 90-6.7 94 9.1 8.8 6.8 27.9 18.7 34 14.4 11.3 18.5 13.3 37.7 14.4-5.2 10.8-15.7 12.3-26.3 10.5 11.8.9-2.3-11.7-3.8-14.3-.9-1.6-21 8.5-22 .7-1-20.4-32.9-6-9 13.5-4.5 1-17.5 2.1-22.5.1 5.5-17-8.7-9.4-13.4-17 8.6-13.9 13.5-14.9 9.6-34 33.5 10.8-.5-45 5-49 23-16.6-4.4-34-17.7-40-3.8-5.7-17.4-5.8-22-12.5-5.5-13.2-8.5 19.7-8.1 21.4.4 6.4 4.7 14.6 7.8 19.7 1.9 7.1-4.1 1.5-6.4 8.5-.9 4.1-6 7.9-6.3 13 0 .7 5.1 21.3 5.9 20.5-.7 5.1-5 14.6-14.4 14.2-4.9-7.7 9.1-12-.7-21-10.7-9.5-17.5 14.9-15.4 21.4 2.8 10 16 6.3 20.3 15.6 2.8 5.8 17.2-5.3 19-6.9 13.9-15.5 16.8-14.4 17-40-2.2-12-23-44-18.4-53 2.9 6.9 31.6 26.3 31.6 26.5-.5 1.7-20-2.3-13.9-4.9-8.4 3.5 18.2 38.8 15 38.6-2.7-.2-3.6-7-7.1-7.6-.7-.1-3.5 51-3.2 53-4.4-2.5-5.1-7.1-1.9-13.7-.7-5.8-19.3 17.9-19.7 19.4-1.3 5.9-4 24-2.3 29.6-2-.8-9.8 2.8-10-1.6m316-31.7c0-.4 13.8-7.4 6-15.9-4.9-5.3-8.6-5.6-8-16.4.3-5.1.9-30-6.8-32-2.3-12.2-7.8 11.6-8.2 12.2-4.5-1.6-13.9-5.7-20-.6-10.8 9 11.9 22 8.5 15-2.1 3.4 11.5-3.6 10.6-3.5 10.2 13-1.8 33.8 17.9 41.5m-191-3.7c19.7 19.7 18.3-43 27-35.5-.1.2 29.4 1.3 15.6-15-1.5-.4-20.7-4.6-18.4 1.5-4.7.9-1.6-27.3-11.7-11.3-5.3 8.4-2.2 13.4-3.8 25.6-.3 4.7-9.7 34.8-8.7 34.6m114-39.7c.1 1.3 46.8-30.6 23.3-35.4 0-.4-7 10.6-9.6 4.5-2.9-6.7 3.6-15.4 0-24.9 4.6-12.9-26.3-1.8-28.8.8-.9-9 10.2-13.4 11.9-20.5 12.2-3.7 3.9 7.5 9.1 8.7 9.3 3.9 14-2.8 11.9-12.9 6.9 2 2.6 11.5 6.7 13.9 7.1 4.3 19.8-51-15.7-33.6-4.3-.2-17.8 5.6-21.6 8-8.6 2-4-3-12.7-3.8-10-2.9-28.5-11.4-38.7-3-7.9 6.4-4.9 30.4 5.5 32.4.6.1 1.3-13.2 7.3-14.8-.6 26.5 14.7 3.6 14.3 3.3 8.9-5.6 17 16.4 18.7 22-.3.2-.6.3-.8.5-11.7-20.3-38.6-4.6-25.7 17.7-1.3 19.5-13.5-7-14.9 2.7-.6 4.3-2.9 15.6 1.6 18.8 2.2 1.6 9.7 1.8 12.3.8 2.3 6.1 2.3 7.3 7.7 10.8-.4.5 7.1 1 10.5-6.5-.1 3.1.5-16-2.4-14.2-.8-5.9 3.5-14.8 8.7-15.4.2.4.4 21.5 5.6 18.8 5.2-2.7 3.5-14 3.5-18.4 12-1.8 8.3 30.5 12.4 39m143-71c2.5 12 13-20 12.3-16 1.3 7.4 32.8-.3 32-1 5.4-7.6 9.9-9.8 13.4-17.8 17.9-14-16-36.9-21.7-41-.8-.6 4.7-6.9 2.1-7.8-3.3-1-6.1-.2-8.5 2.5-15.9 10 6.3-51-8.5-51-1.5-1.6-7.5 8.4-13 5.6-4-2-7.3-9.4-11-10.4 0-4.3-14.4-21.4-19-19.5-15-13.7-44 11-54 20 .1 0-47 37.8-47 37.6-2-.7-31.6 15.2-31.6 12.2-1.1 0-34-5.6-32.7-7 0 .4-59-39-56-40.8 4.9-7-42.6-28.8-48.6-28.7-15 .1-26.9 12.7-33.8 25.6-9.3 17.5-14.8-3.8-19.7-1.8-7.7 3.1-3.2 25.4-3.7 31.7-2.7 2.5 1.9 13.9 4.7 15.2-.6 16.9-8.3-.3-16.8 4.6 0 0 .4 6.6 3.1 6.4.1.2-24.3 12.6-22 22-3.6 11.2-2.1 22.4 4.6 31-2.5 2.7 20.4 13.2 24 13 1.9-.1 17.3-2.9 17.7-4.2 1 2.2-.3 12 2.9 12.5 4.4 16 10.4-14.7 13.2-16.8 15-10.5 20.4 4.9 32.4 4 16.8-1.3-8.5-31.9 10.6-30 7.6.7 26.3-1.6 29.7 11.4 1.1 4.2 4.9 28 10.6 27 11.5-2.3-1-38.8-3.3-37.5-1.3-3.4-16.6-12.3-16.4-13.6 14.8 5.6 1.7-27.9-9-17.4-4.4 4.3 8.3 5.5 2.5 12.2-5.1 3.2-8.6 4.4-14.6 6.5-15 1.7-15.7 10-19 22-15.6-2.3-30-.6-42.8 7.5-23 14.9-42.6-16-26.5-36 4.4-5.5 21.4.9 23.7 9.2 2.2 7.9-13.2 18-2.5 17.9 0 0 14.4-7.8 14.5-15.9 0-3.2-9.7-24.8-12-21.4 3.8 3.2 8.7-19 10.9-16.5-4.4 6.9 38.8 41.5 40.8-.8.9.5 6 8.8 7.3 8 15.4 10.4 9.6-7.9 13.6-7.6-.1-4.5 8.6-28.6-4-29 3.9-5-14.5 8.1-13.2 7.9-10.7-11 .6-24.7-1-27.8 17.6-12.5 37.5 25 42 22 0 0 11.8 12 12.9 11 4.1 4.2 4.9 8.5 5.9 10-3.2-.9-5.7 10.2-4.2 10.6 11.2 1.8 11.5-9.2 23.8.9-1.9 1.7-14.4-1.6-13.8 4.4 0 6.4 8.9-.7 11.6 4.4 3.7-6.4 3.4 21.4-.6 14.7-6.2-.7-21-4.1-21.7 2.6-3.8 38.6 41.8 4.6 51 5.7 6.4 12.3-.4 25.8 17.2 29.7.6-1.3 12.7-.5 14.5-7.7 2.6-3.4 4.5-21.5 6.1-21.9 4.6-1.1 23 11.8 28.7 14.6 2.5-.3 29.4-5.9 21-16.9-3.3-12.7-14 .6-26-8.8 3.5-12-.7-9.3 13.5-11.3 8.9-1.2-13.8-15-13.5-10.6 3.6 1.2 2.1-2.1 4.2-2.7 8.3-1.5 14.5 4.7 21.4 3.8-7.8-.4-1.8-23 0-19.4 1.3-1.9 17-10.8 15.6-13.2 10 3.5 20-37 38.6-17.6 5.5 5.8 6.9 8.2 6.9 18.6 0 0-11.4 8.7-9.6 6.3 2.1-14.5-9.8-5.1-13.6-.6-2.9 6.2-5 27 .5 32.8 6.4 6.7 19.4-4.9 20.4-10.3-9.4 10.5 13 22.6 20.7 22.4 12-1.9 14.4-12.6 21.6-20 1.5 2.3 9 17.5 8.5 19-1.2-.8-10.7 9.7-9.6 11.9-.7 8.7.6 14.2 5.9 19.7-.3.6 14.3 7.1 14.3.8 0-3.6-11.2-5.3-10.6-12 0-.2 2.6-10.6 3-9.8 10-7.8 22 5.4 27.4 2.8-5.6 16.9 2.5 17-10.4 30.7-5.4 5.8-18 1.1-25.3-1.4-8.2-5.1-14.3-7.6-24.8-8.4-6.6-.5-15 5.4-14-5.9.1-1.1-4-9.6-5.4-9.2-3.4-2.1-14.8-9.3-19-7.3-12.4-15.3-3-3.6-5.6-15.8-.7-3.4-18.4 1.8-16.8 5-2.5 7.9 4 8 4.6 12.5-6.2 5.8-14.4 10.5-19 17.5-2.9 4.5-3.1 39 7.3 28 3.5-3.7 2.6-19 5-25 2.4-5.6 28-16 27.8-10.9 7.8 8.1 12.9 2.6 8.6 20.5-2.5 7.8 1.6 14.2 11.2 8.1 6.2-4 17.8-8.5 23.9-2.5 2 2 11.8 22.6 5 21.7m-168-92c15.4 9.4 81-38.6 81-56.9-2.9 6.1-30.4 16.8-33 25 .5.6-26.7 11.9-26.9 12.2-11.4-5.9-6.5 1.9-11.7-5.6 1.1-1.8 1.8-18.4-2.6-17-2-5-10.8 4.5-8.9 6.7 2.2 7.7 4.2 15.3-4.1 16.5.3.5-28-11.7-28.8-11.5.5-1.7-38.8-26.6-38.5-27.7-4.2 14.8 62 59 73 59m84-64c7.9 6.2 20.7-8.2 23.5-13 9.8-17.5-15.3-30-17.6-23.4-1.2 3.5 7.8 5.6 8.9 7.8 1.1 2.2-2 11.8-1.5 12.5-13.8 0-25 9.9-29-10.8-2.4-19.4 20.8-27.9 36-18.4 2.2.6 32 14.2 30.7 6.1 6.7 4 7.3-2.2 8 7.9.1 1.9 1.8 4.9 3.2 6.4-1.2 1.4 38.6 9.1 27.9 24 .4-.6 19.5 4.4 15.3-9.6-3.3 4.2-2.2-20 2-11 4.2-4.3 27-36.5 10.3-42-8.9-3-7.5 18-8.5 21.6-4.1 13.9-32.8 24-39.8 9.2-1.7-4.7 5.1-21 3-21.6.6-2.4-25 4.5-27 6.1-11.5-12-12.4-2.9-11.6-22.5.3-8.2-11.9 8.2-12.6 13.5-19.4 6.1-38.9-8.9-46 22.6-3.5-.9 4.9 23.3 5.1 24.4-2.4 3.8 16.5 10.2 20.5 10.6m-168-4.3c-.4 2.6 28-1.1 30-13.6 5.4.6 2-34-2.7-32.7.7-8.8-20.7-12.9-25.3-12.9-2.5-1.6-8.9.3-11.7 1.7-8.8-1.8-1-11.4-9.2-13.9-5.9-15.4-7.4 15-5.8 10.3-1.4.2-5.4 10.6-9.1 11.4-11.3 1.1-13.8-4.4-23-6.9-23 0 5.9 20-17.3 28-26.9-.4-22.7-8.6-30.9-28.6-2.6-20.5-17.2 10.5-6.3 21.8 2 4.3 17.5 15 17.7 16.5-3.9-1.9-7.9 23 10.5 19 .4-1.3.7-2.7 1-4-12.9-13.6 16.7-13.5 22-18.3 8.7-1.6 6-13.5 14.8-16.5 12.8.5 19.6-3.4 29.7-5.6 16.9 3.4 44-9 37.9 23.7-5.3 14.9-17.9 3.7-24.6 8-.9-2.1-3.8-4.8-4.6-6.7-4.6-11 10.7-13.7 8.6-16.3-12.2-14.8-34 35.4-1.5 35.4m18.4 307c2.4-3.4 8-12.4 13.4-10.4 1.9 8.5-8 12-13.4 10.4m15.7.7c0-8.7 23.4-23.5 31-25 6.5 1.3 24-30.8 25.9-37 3.6.8 23 35 27 38.5 10 8.4 23.8 10 30.5 23.9-9.2 0-19-14.3-29-.1-18.4 1.3-9.1-4.9-17-17.3-.5-1.4-3.5-34-11.9-31.6-8 3.1-9.8 31-12.8 37.5-7.3 16.6-5.3 8.6-20 6.7-9.6-3-14.4 2.6-23.7 4.9m122-.7c-.5-.9-6.5-8.8-3.2-10.3 3 0 11.8 8.1 12 10.3-1.9 2.6-4.8 2.6-8.9 0m146-3.8c2.1-4.8-3-35.4-11.2-36.8-9.9-17.2-8.9 1.7-10.7 5-1.2 2.3-2.3-46-4.4-49.9-.5-2.2-8.9 7.1-8.5 7.1-3.2-7.3 8.8-18.7 10.8-19.3 2.3-.7 4.3-10.5 4.5-11.8 1.1-7.9-12.7.6-14.6-2.8 3.6-4.6 14.9-9.8 20.3-10.7 3.4 1.3 8.6-12.8 11.5-14 4.9 6.8-9.1 25.3-12.6 30.8-8.5 13.4-3 31.6-3.1 44.9-.1 12.9 23.7 23.8 33 22.6 3 .3 6.1-8.4 7.4-9.6-.3 4 6.5-1.5 6.9 2.6-.1 8.6-.2 17.2-.1 25.9-9.6 0-24-13-24 6.1 0 4.1 4 7.1 3.8 10.3-.5 7.5-11 4.7-9.1-.1m-66-236c-17.7-6.9-3.6-13-9.8-21 5.4.9 8.4 4.4 12.7-1 7.5-5.5 4.7-4.2 15.4-4.2-3.6 8.4-2 31-18.3 26.3m-299-3.9c-8.7-1.1-13-21.5-10.9-28 1-5.5 11.3.9 12.6 1.3 1.8 11.5 5 5.6 12.7 5.6.9 10.9 4.3 24.8-14.2 20.9m150-86c-6-.4-12.7-21.4-15.6-27.4.9-11.3 10.4-9.4 9.1-21.7 1.5-1.8 1.1-6.3 3.1-8-.6-3.3 12.4.5 12.4 10.5-.3 12 3.6 6.1 9.1 14.3 1.3 7.4-8.8 34-18.5 32.4m67-46.8c-1.1-6.7 4.1-23.9 14.4-14.8-5.7 4.4-9.2 9.9-14.4 14.6m100-6.8c-1-5.6 13.7-8.7 17-8.6-1.8 4.2-11.9 12.6-17 8.6m-340-6.8c-8.2-2.4 5.3-4.4 8.1.5-2.7-.2-5.4-.3-8.1-.5" style="fill:#f0f0f0"/>
 </symbol>
 <use xlink:href="#wall-pattern_1_" width="504" height="397" x="-252" y="-199" transform="matrix(1 0 0-1 398-545)"/>
 <use xlink:href="#nothing-title-logo" width="292" height="138" x="-146" y="-69" transform="matrix(1 0 0-1 402-357)"/>
 <use xlink:href="#plus" width="64" height="64" x="-32" y="-32" transform="matrix(1 0 0-1 402-483)"/>
 <use xlink:href="#the-nice-defender" width="499" height="462" x="-250" y="-231" transform="matrix(1 0 0-1 392-793)"/>
</svg>
