<svg xmlns="http://www.w3.org/2000/svg" viewBox="0 0 155.1 155" enable-background="new 0 0 155.1 155"><g fill="#020202"><path d="m96.6 12.6c-5.3-.9-10.4-2.9-12.7-7.3-.2-.1-.4-.1-.6-.2.3 3.1.6 6.3.8 9.4-3.1-.4-6.7-.3-8.9-2.8-.5-2.5 1.1-4.6 2.3-6.7.5 1.8 1.5 5.2 2 7 .8-.8 1.6-1.7 2.4-2.5-.5-1.1-1.1-2.3-1.6-3.4 1-.4 2-.8 3-1.2-1.2-.5-2.4-1.3-3.3-2.3-.2-.2-.4-.5-.6-.8-.1.1-.1.2-.2.2-1.2-.3-3.3-1.5-4.4-2h-17.9c-1.6 1.5-3.2 3-4.8 4.4.5-1.5 1.1-3 1.7-4.4h-3.6c-3.3 2.1-6.7 4.1-10.4 5.1 1.8-1.9 3.7-3.6 5.7-5.1h-6.5c-8.3 5.9-11.1 17.4-9.5 27 2.6-6.3 5.3-12.6 8.4-18.6 3.2 3 6.2 6.4 8.7 10.1-2.5-.4-4.9-.8-7.4-1.3-.9 3.1-1.7 6.3-2.6 9.4 1.1-.3 2.2-.7 3.2-1-11.3 9.4-20.1 21.2-29.3 32.5 1.5.5 3 1.1 4.6 1.3 3.4-1.3 5.6-4.6 8.9-6.1 5.4-2.5 11.6-2.4 17.4-1.3 3.3 1.1 2.1 5.1 1 7.4-5.6.5-11.1-2-16.7-1.9-1.8 1.8-2.9 4.2-4.1 6.4 2 .3 4 .5 5.9.8 1.6 3.4 3.4 6.7 5.4 9.9.1-3 .1-6 0-9 5 .1 9.9-.6 14.8-.6-.6-2.3-1.4-4.5-2.2-6.8 1.4-.9 2.8-1.9 4.1-2.9 1.2 4 2 8.1 4.1 11.7.9-2.4 2.3-4.8 2.4-7.4-3-3.5-6.4-6.7-8.8-10.7 6 2.7 12 5.7 16.8 10.2-2 .1-4 .1-6 .2 2.5 4.2 4.9 8.4 7.4 12.7-4.3-.8-8.7-.2-13 .5-.1.9-.1 1.8-.2 2.7 5.3-.2 11.4-1.1 15.6 2.8 7.2 4.5 11.3 12 15.6 19.1-1.4-6.6-4.4-12.7-8.5-18-6.3-8.3-7.4-19.2-13-27.9-2.2-3-.2-6.9-.1-10.2 1.2-.3 2.4-.6 3.6-.9-1-2.3-1.9-4.6-2.8-7 3.8.5 8.5.1 10.8 4.1.6-2.3 1.1-4.6 1.8-7 1.3.9 2.7 1.8 4 2.7 2.8-3.3 5.5-6.6 8.4-9.7-.6 2-1.3 3.9-2 5.9 3.8-2.6 9.1-4.6 10.5-9.5.5-1.4.8-2.8 1.2-4.2-.4-.9-.7-1.8-.8-2.8m-62.3 35.2c-1.7-1.7-3.4-3.3-5-5-1.2 2.1-2.4 4.3-3.4 6.5-1 .3-1.9.5-2.9.8 2-3.5 4-7 6.2-10.4 2.9 2.2 5.8 4.4 8.5 6.6-1.1.5-2.2 1-3.4 1.5m11.6-8.9c-2.4.9-3.9-2.7-1.6-3.8 2.5-.9 4 2.7 1.6 3.8m9.1 11.1c-1.9-.1-3.8-.5-5.7-.9 2.1-2.2 4.5-4.2 6.9-6-.3 1.7-.9 5.1-1.2 6.9m1.6-28.3c-1.8.2-3.6.4-5.4.5 0 .8-.1 2.3-.2 3 2.8.7 5.5 1.2 8.4 1.7.3 4 1 8 1.6 12-4.8-2.1-12.7-3.8-12.6-10.3-.1-3.8.3-7.8 1.8-11.3 2.9-4.4 8.1-6.4 12.5-8.8-.4 4.7.1 12.8-6.1 13.2m34.5-8.7c0 1.3.1 2.7.1 4-1-.4-1.9-.9-2.9-1.3-.1-.7-.2-2-.2-2.7.7 0 2.3 0 3 0m-26.1-8.1c.9.1 2.8.3 3.7.5-1.1 1.1-2.1 2.1-3.2 3.2-.1-1-.4-2.8-.5-3.7m8.3 24.4c.1-2.7.2-5.4.3-8.1-4.5-2-4.3-7.2-5.2-11.2 1.5-.3 3.1-.7 4.6-1.1 2.3 5.1 4.6 10.1 7.1 15.1-2.3 1.7-4.5 3.5-6.8 5.3m8.8-4.9c-.2-1.9-.3-3.8-.5-5.7 2.7.4 5.4.8 8.1 1-2.4 1.6-5 3.2-7.6 4.7m12-3.5c-.8 0-2.4.1-3.2.1.4-1.6.9-3.2 1.3-4.9.7 0 2.1-.1 2.8-.2-.3 1.7-.6 3.3-.9 5"/><path d="m155.1 0h-14.4c-1.2 2.6-3.6 4.7-6.6 5.7-1.3.5-2.5 1-3.7 1.6-2.3 1.8-4.7 3.5-7.2 4.8-19 10.3-37.9 20.4-56.2 31.6-.5 8.3 3.8 16 7.6 23 6.4 10.5 9.3 22.7 15.4 33.4 2.4 4.3 3.7 9.1 4.9 13.9-2.8-3.5-5.4-7.2-8.1-10.8-2 .4-3.9.7-5.9 1.1 1.6.5 3.1 1 4.7 1.5.2 2.4.3 4.8.5 7.1-4 1.1-7.9 2.2-11.9 3.3.8 2.8 1.6 5.6 2.5 8.4 3.5-3.7 6.9-7.5 10.5-11.1 1.6 2.9 3.6 5.8 3.7 9.2-1.9 2.2-4.7 3.5-7.1 5 2.1 1.3 4.4 2.4 6.7 3.5-1.4.8-2.7 1.6-4.1 2.5 2.6 1.1 6.6 2.5 5.7 6.1-1.7 2.8-4.6 4.4-7.2 6.3 1.8 3.1 3.6 6.1 5.7 9h10.6c-2.5-6.8-4.9-13.6-7.3-20.5 7.3-.1 14.8.7 21.2 4.4 3.3 1.9 7 2.7 10.6 3.5-.1-2-.2-4-.4-6-1.7.4-3.3 1.4-5.1 1.4-3.4-2-5.6-5.6-9.1-7.3-6.9-1.1-13.9-.2-20.6 1.3 1.4-5 2.4-10.4 5.7-14.5 6.4-8.5 10.8-18.3 17.3-26.8 1.3-1.7 3.3-2.8 5.3-3.7 12.2-5.4 24.6-10.5 36.2-17v-6.2c-8 .5-14.1 8.2-22.5 6.7-5.6-1.6-7.7-8.1-9.6-12.9 3.7 1.2 7.4 2.6 11.2 3.4-.3-1.8-.7-3.7-1.1-5.5-2 .2-3.9.4-5.9.6-3-6.2-5.5-12.5-9-18.5-1.5 1.1-3 2.2-4.5 3.2-2.4-4.5-4.5-9.2-5.8-14.2 3.3 3.1 6.2 6.6 9.3 9.8-1.6-3.9-4.1-7.6-4.9-11.8 2.9-2.2 6.3-3.5 9.5-5.3 1.2 2.6 2.4 5.2 3.6 7.8.8 0 2.3.1 3.1.2-1.5-2.6-3-5.2-4.6-7.8 1.5-.9 3-1.8 4.4-2.8 3.2 6.4 6.4 12.8 8.5 19.7 1.6 6 6 11 5.9 17.5-3.8-4.2-7.1-8.9-8.9-14.4-1.2-3.7-3.6-7-6.5-9.6 1.7 6.2 5.3 11.6 6.9 17.8 1.1 4 4.2 7 5.9 10.7-.4 2.5-2.1 4.5-2.9 6.8 2.5-.6 5.1-1.1 7.6-1.5-.7-2.4-1.4-4.8-2-7.2 1.7-1.8 4.8-3.5 3.5-6.4-4-12.1-10-23.5-15.7-34.9 3.4-1.9 6.5-4.3 9-7.3 1.6 2.3 3.3 4.7 5.1 6.9-.5-2.8-1.1-5.5-1.6-8.2 1.1-.9 2.1-1.8 3.2-2.8 3 5 5.8 10.2 8.7 15.4v-5.1c-1.3-2.8-2.7-5.6-3.9-8.4 1.3 0 2.6-.1 3.9-.1v-5.5zm-36.7 43.4c2.4 2.9 3.4 6.5 3.9 10.2-4.1-2-4.2-6.3-3.9-10.2m10.3 35.1c-2.9.2-5.7-.4-8.2-1.9-1.5 2.5-3.3 5.1-6.3 6-2.7-1.1-4.5-3.5-6.6-5.5.5 2.4 1 4.9 1.5 7.3-1.3.2-2.7.3-4.1.5-.1 3.5-.7 7.2-4.2 9-3.2-10.1-12.5-16.4-17-25.9-5-7-9.3-14.5-11.1-23 .8 0 2.3.1 3 .1 1.3 2.5 2.7 5 4.3 7.3-.7-3.2-1.7-6.4-2.7-9.6 1.1-1 2.2-2 3.4-3 1.3 1.6 2.6 3.1 3.9 4.7 4-3 5.1-8 7-12.4 5.2 3.2 3.2 9.8.4 14 2.3.3 4.6.3 6.9.9 1 2.1 1.6 4.5 2.3 6.7-1.3.3-2.6.7-4 1.1-1.5-2-3.1-3.9-4.6-5.9-.8.7-1.7 1.4-2.5 2.1 0 1.1 0 2.3 0 3.4 4.5 1.5 9.6 1.9 13.7 4.7 2.7 1.8 1.2 5.1.7 7.6-1.9 3-.3 6.1.6 8.9 1.7-2.3 3.6-4.6 4.7-7.3.3-3-.2-6 .2-9 3.6 1.7 5.3 5.5 7.3 8.7-2.7-9.5-7.1-18.4-10.8-27.6-1.3-3.5-3.7-6.4-6.1-9.1 1.7 5.2 3.5 10.3 5 15.6-2-1-4.2-1.9-6-3.3-1-3.9-1-8.1-2.2-12 2.4-1.6 4.7-3.3 7-4.9 9.3 16.9 16.2 34.6 24.5 51.8m-24.9-30.4c.9 0 2.8-.1 3.7-.2 1.6 3.8 3.2 7.7 4.2 11.8-1.8-.6-3.7-1-5.3-2-2-2.8-1.9-6.4-2.6-9.6"/><path d="m135.9 14.3c1.9 2.4 3.6 4.8 5.2 7.4-2.6-1.7-4.8-4.1-5.2-7.4"/><path d="m145.8 18.2c2.3 1.6 3.8 3.9 4.8 6.4-2.6-1.2-4.3-3.5-4.8-6.4"/><path d="m150.1 26.4c1.7 1.8 3.1 3.9 4.2 6.2-1.7-1.8-3.1-4-4.2-6.2"/><path d="m19 31.5c3.3-1.1 6.5-2.2 9.8-3.3-2.2 2.9-4.8 5.6-7.4 8.2-.8-1.7-1.6-3.3-2.4-4.9"/><path d="m139.8 32c1.5-1.7 3.4-3 5.3-4.3 0 1.6 0 3.3 0 4.9-1.7-.1-3.5-.3-5.3-.6"/><path d="m119.4 31.1c1.7-.2 6.5 0 4.3 2.5-.8 2.7-4.1.4-5.9.2.4-1 .9-1.9 1.6-2.7"/><path d="m146 35.2c.6-.3 1.7-1 2.3-1.4 1.9 4.1 3.4 8.4 4.4 12.9-2.4-3.7-4.7-7.5-6.7-11.5"/><path d="m126.6 40.4c1.1 2.5 2 5.1 2.4 7.8-1.7-.7-3.3-1.5-4.9-2.2.8-1.9 1.7-3.7 2.5-5.6"/><path d="m146.2 42.6c1.1 1 2.2 2 3.3 3.1-.6.4-1.9 1.2-2.5 1.6-.3-1.6-.6-3.2-.8-4.7"/><path d="m84.2 46.6c1.9 2.6 3.7 5.3 5.4 8-1.6-.1-3.3-.2-4.9-.3-1.2 1.5-2.4 2.9-3.7 4.3-1.3-4.4.5-8.6 3.2-12"/><path d="m147.6 54.5c3.3 1.3 5 4 3.6 7.4-1.7-2.2-2.8-4.8-3.6-7.4"/><path d="m89.6 59.5c1.3-1.2 3.2 1 2 2.2-1.3 1.2-3.3-1-2-2.2"/><path d="m92 62.7c2.6-.8 5.2-1.5 7.8-2.1-.9 3.2-2.1 6.3-3.8 9.2-1.1-1.7-3-5.3-4-7.1"/><path d="m5.1 71c.1 1.8-.2 3.6-1 5.2 5.7-2.7 11.2-5.9 16.8-8.7-.1-.4-.2-1.2-.2-1.6-4.3-.6-8.5-1.5-12.7-2.7.7 2.2 1.3 4.4 2 6.6-1.6.4-3.3.9-4.9 1.2"/><path d="m38.1 70.6c2.6-1.4 5.1-2.8 7.8-4.1 0 2.1 0 4.1 0 6.2-3.1 2-6 4.5-8.2 7.5 4.3-1.7 8.2.3 11.2 3.5-.4 3.4.1 6.8.6 10.1-2.6-.7-5.3-1.3-7.9-2 1.5-2.1 3-4.1 4.7-6-.3-.9-.6-1.8-.9-2.7-1.2.8-2.5 1.7-3.7 2.5-2.7-1.9-5.5-3.8-9-4 3.7-2.4 5.5-6.6 5.4-11"/><path d="m37 138c-1.2-4.2.9-8.7-.8-12.9-3.2-8.3-4.8-17.1-8-25.4-2.4-3-6-5-8.8-7.7-.1 1.3-.2 2.6-.3 4-4.5-3.7-5.5-9.6-7-14.9 4-1.6 7.7-3.9 11.3-6.2-.5 3.7-2.1 7.8-.8 11.5 1.2 3.3 3.2 6.3 5.2 9.2 0-9.2.5-19.1-4.9-27-5.8 4.3-12.6 6.8-18.9 10.4-1.5.8-2.2 2.1-2.7 3.6.9.6 1.7 1.3 2.3 2.2 0-.1 0-.3 0-.4 2.8.2 5.6.4 8.3.7-1.1 2.2-3.1 4.1-3.2 6.6 2.1 6.7 6.1 12.5 9.9 18.4 2.8 5.6 5.5 11.3 7.9 17.1 2.8-.1 5.5-.2 8.3-.3-10.9 4.6-21.2 11.1-33 13.3-.4 4.2-1 8.4-1.7 12.5v2.3h7.5c-.4-2.9-.7-5.8-1.2-8.7 4 2 8.5 2.1 12.6.4 1.8 1.6 3.6 3.2 5.4 4.8-3.2-.1-6.4-.2-9.6-.2-1.2 1.2-2.5 2.5-3.8 3.7h18.2c0-1.9 2.7-1.9 2.7 0h2.7c2.3-1.2 4.4-2.5 6.6-3.9-1.5-4.3-2.9-8.7-4.2-13.1m-17.7-31.4c.2-1.5.5-3.1.8-4.6.9.1 2.7.3 3.6.4-1.4 1.4-2.8 2.8-4.4 4.2m7.7 6.2c-1.6.5-2.2 0-1.7-1.7 1.6-.4 2.2.1 1.7 1.7m1 37c-1.6.5-2.2 0-1.7-1.7 1.6-.5 2.2.1 1.7 1.7m4-7.2c-.3-.8-.8-2.3-1.1-3-.2 2.6-.2 5.2-.1 7.8-2.5-1.8-5-3.7-7.4-5.7-.5.8-1.1 1.6-1.7 2.5-1-1.6-1.9-3.3-2.9-5 1.7.3 3.3.5 5 .8-.3-1.5-.5-3-.8-4.5 4.8.5 10 .3 14 3.4-1.6 1.2-3.3 2.4-5 3.7"/><path d="m110.2 70.4c2.2-.2 4.4-.6 6.6-1.1 1.6 3.8-.8 6.8-3.4 9.3-1.2-2.7-2.2-5.4-3.2-8.2"/><path d="m93.6 71.6c1.1 1.7 2.1 3.4 3 5.1-.8.1-2.4.3-3.1.4 0-1.8.1-3.7.1-5.5"/><path d="m47.4 75.8c2.5 1.1 4.9 3.1 7.8 3.2 2.9-1 5.6-2.4 8.6-2.8-.4 2.2-.7 4.4-1 6.7-1.8-1.2-3.6-2.5-5.4-3.5-.8 3.5-1.5 7-2.2 10.5 1.3-.6 2.6-1.3 3.9-1.9 2.5 3.2 5 6.3 7.4 9.6-3.2-.2-5.8-1.7-8.1-3.7-1.1.9-2.2 1.7-3.4 2.6-.6-4.5-1.3-9-1.3-13.6-1.8-.5-3.8-.8-5.3-1.9-1-1.7-.8-3.5-1-5.2"/><path d="m99.4 76.1c1 0 3-.1 4-.1.3 2.3.6 4.6.8 6.9-2.6-1.4-4.8-3.4-4.8-6.8"/><path d="m37.9 86.9c1.1 1.3 2.2 2.5 3.3 3.8-1.5.9-4.4 2.6-5.8 3.5-.1 1.8-.2 3.7-.3 5.6-3.6-4.6.7-8.9 2.8-12.9"/><path d="m41.1 95.1c2.3 1.6 4.6 3.3 6.8 4.9l.5-5.2c3.8 1.6 8.1 3 10.2 6.9.5 3.2-.4 6.3-1.3 9.3-4.5-1-9-2.2-13.6-2.8-.6-4.4-1.6-8.7-2.6-13.1m7.7 5.5c-2 1.9-.6 4.9-.7 7.3 3.8-1.4 5.9-4.8 7.6-8.2-2.3 0-5.2-1.1-6.9.9z"/><path d="m34.7 99.2c4.2 2.3 4.9 7 4.9 11.4-3.3-2.8-6.2-6.7-4.9-11.4"/><path d="m59.5 102.7c4-1.8 8.5-2.9 12.6-.7-1.3 1.5-2.5 3.1-4.1 4.2-3.1-.4-5.8-2.1-8.5-3.5"/><path d="m73.9 110.6c-.3-4.2 3.3-5.5 5.8-7.6.7 2.4 1.5 4.8 2.3 7.2-1.4-.9-2.8-1.7-4.2-2.6-1.2 1.1-2.5 2.1-3.9 3"/><path d="m11.9 108.7c5.1 5.8 8.5 12.9 9.1 20.8-3.3-6.8-7.6-13.3-9.1-20.8"/><path d="m43 110.8c1.1.9 2.2 1.8 3.3 2.6-1.3 1.3-2.7 2.7-4 4 .2-1.6.6-5 .7-6.6"/><path d="m56 112.8c6.2 2.2 12.7 6.1 14.2 13.1.1 3.5-2.3 6.5-3.6 9.6-.7-5.7-3.7-10.6-5.5-16-1.4-.4-2.9-.9-4.3-1.3.2 1.5.4 3 .6 4.6-3.2-2.6-2.8-6.5-1.4-10"/><path d="m104.5 117.5c1.4 1.5 2.8 3 4.1 4.6-1.9-.6-3.8-1.2-5.8-1.8.5-.7 1.3-2.1 1.7-2.8"/><path d="m39.7 119c5.3 1.9 10.8 4.1 15.1 8-2.6.3-5.2.2-7.8-.1-4.3-.1-5.5-4.9-7.3-7.9"/><path d="m95.6 124.9c2.5-.3 5-.4 7.4-.4 0 .9.1 2.6.2 3.4-2.5-1-5-2-7.6-3"/><path d="m71.7 126.1c1.3-.5 2.5-.9 3.8-1.3-.3 7.2 4.6 14 12.3 14.5-1.8 2.2-4 4.7-7.1 4.4-4.1-5.3-5.7-11.9-9-17.6"/><path d="m40.7 128c3.7 4.5 3.9 10.7 5.5 16.1-1.7-.4-3.4-.9-5.1-1.3-.3-5-.4-9.9-.4-14.8"/><path d="m55.4 132.7c1.3-2.4 3.9-3.3 6.4-3.6-.4 1.3-.8 2.6-1.2 3.9 2.1 2 4.2 4.1 6.1 6.4-1 .4-2.1.8-3.1 1.2-2.4-2.8-5.7-5-8.2-7.9"/><path d="m80.2 131c.9.1 2.7.4 3.6.5-1.4 1.1-2.9 2.2-4.4 3.2.3-1.3.6-2.5.8-3.7"/><path d="m71.5 131.2c1.6 2.4 2.9 5.1 4.1 7.7-1.9-.7-3.9-1.4-5.8-2.1.5-1.8 1.1-3.7 1.7-5.6"/><path d="m48.3 133.2c1.1 0 3.3-.1 4.3-.1-.2 2-.5 3.9-.8 5.9-1.3-1.9-2.5-3.8-3.5-5.8"/><path d="m134.1 137.4c3.2-1.2 6.5-1.8 9.9-2.3-1.1 1.2-2.1 2.5-3.3 3.6-2.2-.4-4.4-.8-6.6-1.3"/><path d="m53.9 139c3.3 1.1 6.7 2.2 10 3.3-5.2 3.4-9.6 7.9-14.6 11.5-.5-3.3-.9-6.7-1.3-10 1.9 1.2 3.9 2.4 5.8 3.5 0-2.7 0-5.5.1-8.3"/><path d="m67.3 142c2.9-.9 3.7 3.5 1.8 5-3 .9-3.8-3.5-1.8-5"/><path d="m133.3 145.9c1.3-.7 2.7-1.4 4-2.1.4 1.4.7 2.7 1.1 4.1-1.8-.5-3.5-1.2-5.1-2"/><path d="m67.5 147.4c1.1 1.1 2.1 2.2 3.2 3.2-.9.1-2.8.4-3.7.5.1-.9.4-2.7.5-3.7"/><path d="m122.1 149c1.6-.5 3.2-1 4.8-1.4-.7 2.2-1.5 4.4-2.2 6.6-.8-.4-1.7-.9-2.5-1.3-.1-1.3-.1-2.6-.1-3.9"/><path d="m143.7 147.8c3.1.5 6.2 1.1 9.3 1.8-2.3 2-5 3.5-7.8 4.7-.5-2.2-1.2-4.3-1.5-6.5"/><path d="m63.4 150.5c1.4-1.3 3.5 1.1 2.1 2.4-1.4 1.3-3.5-1.1-2.1-2.4"/></g></svg>