<svg xmlns="http://www.w3.org/2000/svg" viewBox="0 0 155.1 155" enable-background="new 0 0 155.1 155"><g fill="#020202"><path d="m137.9 105.8c-1.9-.4-5.7-2-5.7-2-1.1.1-5.7-.5-6.8-.3-1.1.4-10.1-1.1-11.5-3.7-.6.4-1.1.9-1.7 1.3-2.4-1.4-4.7-2.8-7.1-4-.2 1-.5 2-1.1 2.9-2 3.3-4.1 6.5-6.3 9.6-.6 1-1.6 1.6-2.8 1.7 0 .5 0 1.6-.1 2.1 1.5.4 2.1 1.3 2 2.7-1.6 6.6-3.7 13.1-5.6 19.7-.2 1.5-1 2.2-2.3 2-.2 1.1-.3 2.1-.5 3.2-.3.6-.9 1.8-1.2 2.4-1.5 2.9-2.9 5.8-4.3 8.8-1.2-.4-2.4-.8-3.6-1.3-.4-.2-1.3-.6-1.7-.7-.4.5-1.1 1.4-1.4 1.8-3.3-3.6-6.5-7.3-10.3-10.5 1.3 4.9 3.5 9.5 6.7 13.4h6.2c-.2-2.2 3.3-2.2 3.1 0h2.6c1.3-1.1 2.6-2.2 4-3.3-.1-.6-.2-1.9-.3-2.6.4-1 .8-2 1.2-3 .2-.5.6-1.4.7-1.9 2.4-6.4 4.7-12.8 7-19.3.7.2 2 .7 2.6.9-.3 6.3-1 12.6-.6 18.9.7-1.2 1.4-2.4 2.1-3.7.2-.4.6-1.3.7-1.7.2-1.6.3-3.2.4-4.8-.2-.7-.7-2.1-1-2.8l-.1-.9c0-.3 0-1 0-1.4.1-7 .6-14 1.1-20.9 1.5 0 3.1.1 4.6.1-.6-2-1.3-3.9-1.9-5.9 3 .5 6.1 1 9.1 1.7.5.1 1.5.4 2 .6 7.8 2.2 15.8 3.3 23.8 4.4.6.2 1.7.8 2.3 1 4.3 3.9 9.9 6.6 12.9 11.7v-8.8c-4.1-.6-17.6-7.9-17.2-7.4"/><path d="m111.6 89.6c1.8-5.8 4.1-11.7 4.1-17.9-1-3.8-4.4-6.4-5.5-10.2-.4-2.7.1-5.4.2-8.1 1.3-.1 2.6-.3 3.9-.4l.8-.1c-2-2.9-4.3-5.6-6.5-8.3.4 2.4.8 4.9 1 7.3-.7 2.6-3.3-.6-3.4-2.1-1.5-1.9-3-3.7-4.6-5.6.1 2.3.2 4.5.4 6.8-2.2.4-4.4.8-6.5 1.3-.6.3-1.8.9-2.4 1.2-3.4.9-6.7 2.1-9.8 3.7.1-.3.3-1 .4-1.4-3.4 1-6.8 2.1-10.2 3.2.6-1.1 1.1-2.2 1.7-3.4-3.8 2-7.7 3.9-11.8 5.3 1.1-1.2 2.3-2.3 3.6-3.4.5-.5 1.4-1.4 1.9-1.8 2.1-.8 4.2-1.4 6.3-1.9-.2-1.4.5-2.2 2.1-2.4 1.3-1.3 2.5-2.6 3.8-3.9 0-.4-.2-1.3-.2-1.8-4.3 1-8.2 3.2-11.3 6.2-.5.3-1.5 1.1-2 1.4-2.7 1.4-5.4 2.8-8.1 4.3-.5.2-1.7.6-2.2.8-4 .5-7.9-1-11.6-2.2.8 2.3 1.5 4.5 2.2 6.9-4.6-3.6-3.5-9.7-4.1-14.8 1.6.6 3.3 1.2 4.9 1.8.4-3 .7-6 .8-9 2.5-.8 5.1-1.7 7.5-2.8l-.4-.6c-.4-.6-1.1-1.8-1.5-2.4-1.4-.5-1.9-1.5-1.5-2.7.9-2.3 2-4.5 3.6-6.4l2-1c.9-.1 2.7-.4 3.5-.5-4-2.5-8.5-3.9-13-5 0 0-.1 0-.1 0-.9.4-1.9.8-2.8 1.3-.2.1-.4.2-.5.3-.3.3-.5.5-.6.5-.1.1-.1.2-.2.2 1.1.7 2.2 1.4 3.1 2.3.4 4.4-1.6 8.6-4.6 11.7-.1 1.5-.2 3-.4 4.5 0 1.8-1.9 4.2-3.8 3.1-1.3-1.5-7.4-2.4-7-.5 0 .1 5.3 2.6 6.7 4.5-.5 1.5-1.1 3-1.7 4.5-1 .7-2 1.2-3.1 1.6.2 1.9.5 3.8.6 5.8.7 0 1.3-.1 2-.1 1.6 2.7 2.3 5.8 3.4 8.6-.5.2-1.1.4-1.7.7 2.2 3.1 1.7 6.6-.2 9.3 1 7.3 1.9 14.6 2.2 22-2.3-2.3-4.3-4.9-5.7-7.8-.1 0-.1-.1-.2-.1-1.2 1-2.4 1.8-3.7 2.5-.2.4-.4.7-.5 1.1-.3.7-.8 2-1.1 2.6-.8 3-1.5 5.9-2.2 8.9-5.8.5-11.7.1-17.4-1.1-.2.6-.5 1.2-.9 1.7 1.1 2.4 1.9 4.8 2.2 7.4 4.7-2.2 9.5-3.9 14.5-5.2.7 0 2.1 0 2.8 0 2.4-4.4 3.8-10.9 9.9-11 .7 6.3 3.8 11.7 7.4 16.8 1.5-3 2.8-6 4.1-9.1 1.9 2.2 3.6 4.5 5.3 6.9.2.7.5 2 .7 2.6.6 7 1.4 14.1 5 20.2.7-.1 2-.3 2.7-.4.3-9.9-3.8-18.8-6.8-27.9-.1-.5-.4-1.5-.5-2-.3-1.3-.6-2.5-.9-3.8-.3-.6-.9-1.8-1.2-2.4-.7-8.3-3.2-16.1-5.3-24.1-.5-1.3-.1-2.3 1-3 4.2-2.2 8.8-3.3 13.2-4.8.9-.4 1.9-.8 2.8-1.2 2.7-1.1 5.2-2.8 8.1-3.3 4.6-.4 9.3-.3 13.9-1.3.4-.4 1.3-1.1 1.7-1.5 2.6-2.4 5.1-4.9 7.9-7.1 3.4 5.5 7.7 10.5 10.5 16.4 1.9 8.5-.7 16.9-1.7 25.3 2.1.3 4.2.6 6.4.9-.2-1.8.1-3.7.8-5.4-.9-.3-1.5-.7-2.2-1.2m-66.1-19.3c-.4-.8-.8-1.6-1.3-2.5 4.3-.9 8.2-3.4 12.8-3-2.8 3.4-7.2 4.7-11.5 5.5z"/><path d="m77.3 11c-.1-.1-.1-.1-.2-.2-.5.1-1 .1-1.6.1-1.7 0-3.2-.4-4.4-1.1-1 .9-2.1 1.5-3.5 1.9-1 1.2-2 2.4-3 3.5-.9-1.2-1.8-2.4-2.6-3.5 0 0-2.5 2.2-4.2 2.7.8 1 1.7 2 2.7 2.9 1.7.2 3.4.5 4.7 1.6 3.3-2.7 7.6-2.9 11.7-2.3h.7c-.1-1.7-.2-3.6-.3-5.6"/><path d="m89 17.4c4.8 3.5 21.8 19 24.6 20.3-.7-2.5-14-13.2-22.6-20.6-.6.2-1.3.3-2 .3"/><path d="m87.6 17.5c-2.7-.1-7.2-2.9-7.4-3 0 .2 1.4 5.6 0 4.8.2 1.4.4 2.8.5 4.3-2.6-.1-5.2-.2-7.8-.4-.1 1-.2 2.1-.3 3.1h.7c1.5-.1 3-.2 4.5-.3.7 0 2.2 0 2.9.1 2.8-1 5.4-2.1 8.2-3.2-1-1.3-1.9-2.6-2.9-3.9.5-.5 1.1-1 1.6-1.5"/><path d="m78.5 29.3c4.5 1.8 8.8 4.2 13.6 4.9 4.9.2 9.9 0 14.8-.9.8 1.8 1.6 3.5 2.4 5.3-2.1.5-4.3 1.1-6.5.7l-.8-.1c-.5-.1-1.4-.3-1.9-.5-.6 0-1.7-.1-2.2-.1-3.2.6-6.4 1.3-9.6 1-4.4-1.7-7.7-5.6-9.6-9.8l-.2-.5"/><path d="m60.8 31.6c4.1 1.1 8.1 2.4 11.9 4.2-3.4 1-6.7 2.4-10.3 2.6-2.6-1.3-1.7-4.4-1.6-6.8"/><path d="m115 34.8c-2.2 2.3-4.8 4.3-7.5 6l.7.4c1.9.8 3.8 2.1 5.9 1.8.7-.5 1.3-1.1 1.9-1.8-.6-2-.9-4.2-1-6.4"/><path d="m70.3 41.3c1.4-.6 2.7-1.1 4.1-1.6-1.4 3.2-3 6.3-4.5 9.5-2.2-.5-4.4-.9-6.6-1.2-.3.5-1 1.4-1.3 1.9-.2.5-.5 1.6-.6 2.1-2 0-5.8-.1-7.8-.1 1.4-3.9 3.3-8.2 8.7-7.3-1.1-.4-2.2-.8-3.3-1.2 3.1-.4 6.2-1 9.3-1.4.4-.2 1.4-.5 2-.7"/><path d="m49.7 54.3c-.6-1.1-1.1-2.3-1.7-3.4"/><path d="m94.7 65.5c3.1 1.2 6.2 2.5 9.1 4.2-4.9.7-9.6 2.6-13.3 5.9-1.7-2.1-3.5-4.3-4.9-6.6.4-.1 1.2-.3 1.5-.4 2.5-.8 5.1-.8 7.7-1.1-.1-.5-.1-1.5-.1-2"/><path d="m60.2 72.9c6.1-2.2 12.5-3.6 18.9-4.2.3 1.4 1 4.1 1.3 5.5-4.4-.1-8.8.5-13.2.2-1.1-.1-2.1-.1-3.2.2-1.4.3-2.7.7-4.1 1.1.1-.7.3-2.1.3-2.8"/><path d="m90.7 80.2c3.5 2.7 6.1 6.2 9.4 9 .1 2.9-.3 6.1-2.4 8.3-.3.4-.9 1.2-1.2 1.5-8.9-3.3-18.8-2.1-27.3 1.7-.6-2.5-2.5-5.3-1-7.8.9-2 2-3.8 3.2-5.6.3-.5.8-1.5 1.1-1.9.7-2.3 3-3 5-3.8l-.6 1.2c-.7 1-.6 1.8.3 2.6.3.3 1 1 1.3 1.3 3.9 0 7.8.2 11.6.5-1.7 1.8-3.2 4.2-5.9 4.7-3.1-.5-5.8-2.5-8.5-4-2.2 2.6-4.2 5.5-6 8.4 8.5-.4 17-.6 25.5-1-.3-1.1-.7-2.2-1-3.4-.2-.5-.8-1.5-1-2-2.3-2.7-2.6-6.3-2.5-9.7"/><path d="m80.1 103.8c-.1-3.3 4.9-3.2 6.9-1.5.3.2 1.1.5 1.4.7-.4.5-1.1 1.5-1.5 2-2.2-.3-4.6-.5-6.8-1.2"/><path d="m.1 111.3v4.2c1.5-.6 2.9-1.2 4.4-1.7-1.5 1.8-3 3.5-4.4 5.3v3l.6-.6c1.7-1.6 3.5-3.3 5.3-4.8-1-1.2-.9-2 .4-2.7.8-.3 2.5-1 3.4-1.3-1-.9-2-1.8-3-2.6-2 1.1-4.4 1.5-6.7 1.2"/><path d="m79.7 111.5c1.1-.3 2.2-.5 3.4-.7l.8-.1.8-.1c0 .6.1 1.7.2 2.2 0 .4.1 1.1.2 1.5-2.2-.3-6.6-.8-8.7-1.1.4-.2 1.2-.5 1.5-.7.3-.3 1.3-.8 1.8-1"/><path d="m35.4 117.3l.4.5c1 1.2.8 3 1.1 4.4-.5 0-1.5 0-2 0 .1-1.6.3-3.3.5-4.9"/><path d="m118.4 119.2c1.2 1.8 2.5 3.7 3.1 5.8.2.5.5 1.5.6 2 .7 2.2 1.2 4.4 1.8 6.6.1.4.2 1.1.3 1.5.5 2.4.9 4.8 1.3 7.2-1.7-.4-3.4-.8-5-1.6-.2-1.6-.5-4.9-.7-6.6-.1-.5-.3-1.6-.4-2.2-.3-1.2-.5-2.5-.6-3.8-.1-.5-.2-1.6-.3-2.2 0-1.6-.1-5-.1-6.7"/><path d="m22.1 121.9c.5.2 1.5.7 2 .9 0 .6.1 1.7.1 2.3.1.6.4 1.7.5 2.2.2.5.5 1.5.6 2 .3 1.1.6 2.2.9 3.3.3 1.2.7 2.3 1 3.5-.4.3-1.3.9-1.7 1.2-.5-1.4-1.1-2.8-1.6-4.2-.2-.5-.5-1.5-.6-2-.8-3-1-6.1-1.2-9.2"/><path d="m82.1 126c.6-.7 1.1-1.5 1.7-2.2-.7 3.4-1.2 6.9-1.6 10.4-.5-.3-1.4-.8-1.9-1.1-2.2-.4-4.3-1.4-6.1-2.7 2.3 0 4.5.1 6.8.1-.2-1.2-.5-2.4-.8-3.6.5-.1 1.5-.7 1.9-.9"/><path d="m73.3 126.7c.8-1.6 3.7-.4 2.8 1.3-.7 1.9-3.7.4-2.8-1.3"/><path d="m.1 137.4c.4.2 1.2.5 1.6.7 1.1.3 2.1.7 3.2 1 .3.2.8.4 1.1.6 1.7 1 3.4 2.1 5 3.1.6.2 1.9.6 2.6.8 2 1.6 4 3.3 5.9 4.9-2.1 1.3-4.3 2.5-6.5 3.7 1.1-1.5 2.3-3.1 3.4-4.6-4.1-1.9-8.3-3.7-12.7-4.7-.5-.3-1.6-1-2.1-1.3-.4-.3-1.1-.8-1.5-1.1v-3.1"/><path d="m11.3 138.5c1.6-.2 3.2-.4 4.9-.6.7 1.7 1.4 3.3 2 5-2.4-1.3-4.7-2.7-6.9-4.4"/><path d="m35 138.2c.8 0 2.4-.1 3.2-.1.4 0 1.3 0 1.8-.1.8-.1 2.4-.2 3.2-.3.3.5 1 1.4 1.3 1.9-2.4 1-4.8 2.1-7.2 3.2-.8-1.6-1.5-3.1-2.3-4.6"/><path d="m45.1 139.5c.3-.1 1-.2 1.3-.3 1.3.2 2.6.4 3.8.7l.7.2c1 .2 1.9.5 2.9.7-4.5 3.5-5.2 8.9-5 14.2h-2.1c.9-5.3.9-10.7-1.6-15.5"/><path d="m20 144.2c.1-.8.2-1.6.4-2.4.5.3 1.4 1 1.9 1.3 4.7 3.7 8.5 8.6 14 11.3-1.6.2-4.9.5-6.6.7h-3c-1-3.3-1.9-6.7-4-9.5-.5-1.4-1.4-1.8-2.7-1.4"/><path d="m105.4 142.7l.6.2c1.4 3.2-3.8 1.1-.6-.2"/><path d="m106.2 143.4c3.6 0 7.4-.9 11-.2.5.2 1.4.7 1.8.9.5.3 1.5.8 2 1.1-4.8.6-11.2 3.2-14.8-1.8"/><path d="m123.7 143.7c3.2-2.9 3.2 4.7-.2 2.2.1-.6.2-1.7.2-2.2"/><path d="m3.6 145.4c.1-.4.5-1.2.6-1.5 1 .3 2.9.5 2.6 1.9-.9.9-2.2 0-3.2-.4"/><path d="m103.1 147.4c.5.1 1.5.2 2 .2.2 2.5.4 4.9.6 7.4h-5.2c.8-2 1.5-4.1 2.2-6.2.1-.3.3-1 .4-1.4"/><path d="m139.8 148c2.2 1.7 4.1 3.7 6 5.6-2.8.3-8.4 1-11.2 1.3h-3c0-1.2 0-2.4 0-3.6 2.4.1 4.8.3 7.2.4.2-.4.5-1.1.7-1.4.1-.5.2-1.7.3-2.3"/><path d="m.1 149.9c1.9 1.9 4 3.6 6.1 5.1h-1.2c-.6-2-3.1-2-3.7 0h-1.2v-5.1"/><path d="m94.6 153.8c1-1.5 2-3 3.1-4.4.2 1.6.3 3.1.5 4.7-.8-.1-2.7-.2-3.6-.3"/><path d="m124.6 149.9c1.6 1 2.8 2.6 4.1 4-2.1 0-4.2 0-6.3 0 .7-1.4 1.4-2.8 2.2-4"/><path d="m149.2 149.9c.5.3 1.4.9 1.9 1.2-.4.9-.8 1.8-1.2 2.7-.7.1-2.1.2-2.8.3.7-1.4 1.4-2.8 2.1-4.2"/><path d="m38 151.4c1-.1 2-.2 3.1-.3 1.1 1.2 2.2 2.3 3.3 3.4-.7.1-2.1.4-2.8.5h-2.9c-.3-1.2-.5-2.4-.7-3.6"/></g></svg>