<svg xmlns="http://www.w3.org/2000/svg" viewBox="0 0 155.1 155" enable-background="new 0 0 155.1 155"><g fill="#020202"><path d="m150.9 126c-.1 1.9-.3 3.8-.7 5.7-4.8-.3-9.6-.4-14.3-.3 4.3 6.3 11.5 10.2 19.2 9.2v-3c-.3-3.4-.8-6.9-1-10.3-1.1-.2-2.2-.7-3.2-1.3"/><path d="m130.7 149.3c-2.7.1-4.7-1.9-6.6-3.5-.3 1.2-.6 2.4-.9 3.6-4.1.1-8.2.1-12.3.1 2.5-2.4 5.1-4.7 7.7-7-4.1-3.4-8.5-6.5-13.7-7.9 2.2 2.5 4.6 4.8 6.8 7.2-1 2.3-2 4.7-3 7-9.2.1-18.5 1.2-27.6.1-10.4-2.2-20.6-5.1-30.3-9.4 6-1.8 12-3.5 18-4.9 3.7-.8 7 1.5 10.3 3-1.2 2.9-2.5 5.7-3.8 8.5 1-.1 2-.2 3-.3.2-1.2.4-2.5.5-3.7 4.7-1.8 8.8-4.8 12.1-8.6-5.2-2.3-10.9-2.8-16.5-1.9-.8-8.3-1.2-16.7-1.4-25.1-.8-5.5-6.3-8-11.1-6-.1-3.9-1.3-7.6-3.8-10.6-2-2.1-2.3-4.9-1.8-7.7 6.3 1.7 12.9 1.1 18.5-2.2-5.7-2.2-11.5.3-17.3.4-2.6-2.3-3.9-5.6-5.4-8.7 5.4-1.3 11-3.2 16.5-1.5 3.8.6 5.3 4.7 8 6.9 4 .8 8.2-.4 12.3-.3 1.9.7 6.1-1.6 7.6 1.2 3.8 6.5 8.6 12.3 13.7 17.9-.3-2.7-.7-5.5-1-8.2 1.4.3 4.3.9 5.7 1.2.4 3.9 1 7.8 2.3 11.5.7-1.8 1.3-3.5 2-5.3 1.8-.2 3.5-.5 5.3-.7-2.4-7.5-7.4-14-8.8-21.9 2.6.1 5.2.1 7.7.2-.6-2.5-1.8-5-1.1-7.6.6-2.9 2.4-6 .5-8.8-3.2-6.8-10.8-8.6-17.3-10.8.7 1.5 1.4 3 2.1 4.5-1.3.7-2.5 1.4-3.8 2 6.4 1.5 12.8 3.9 16.3 10-5.8 1.8-10.8-1.6-15.4-4.6 3.1 4.3 7.6 7.2 12.2 9.7-2.9 5.7-2.2 12.2-2.5 18.4-1 .2-2.1.5-3.1.7.1-2.2.3-4.3.4-6.5-2.6.6-5.5 2.2-7.9.3 1-1.8 2.4-3.5 3.7-5.1-1.8-.5-3.5-1-5.3-1.4 0-.5.1-1.5.2-1.9 2 .3 4 .6 5.9.8-1.1-4.3-2.8-8.4-5-12.2-.5 3.8-1 7.6-1.6 11.4-2.1-4.4-5.6-7.9-8.2-11.9-.9-6.5 2.4-13.2.4-19.7-5.3-4.5-12.7-6.2-19.5-6.2-9.7.6-19.4 2-29 4.2.4-3.2-.4-7 1.7-9.8 1.7-2.5 5-2.9 7.7-3.4 6-.8 12-2.3 17.9-3.7 6.4 7 14.5 12.2 23.1 16.4 4.4 2.7 9.2 4.6 14.2 5.8-.5-1.9-.9-3.9-1.3-5.8-2.4-.1-4.9-.1-7.3-.2 2.9-3 2.6-6.9.8-10.4 6.2 8.4 14.5 14.9 21.9 22.1 6.2 5.8 7.5 14.9 9.1 22.8-2.9-.1-5.8-.2-8.7-.2 2.4 4.6 5.7 8.6 8.8 12.8 1.2-1 2.3-1.9 3.5-2.8.7 4.3-.1 8.6-2.7 12.1-.7-1.7-1.4-3.4-2-5.1-.3 0-.8.1-1 .1-1.3 6.5-4.9 12-8.7 17.4 3.1 6.6 5.4 13.5 7.6 20.4 6.2 1 12.5.6 18.6-1-.3-.6-.6-1.2-.9-1.9-.8-.9-1.6-2-2.2-3.1-2.8 1-5.7 2-8.5 2.8.7-4.9 1.8-9.7 2.9-14.5-.1-.1-.3-.3-.4-.4-1.5-1.6-2.3-3.6-2.5-5.7-1.6-1.6-2.5-3.8-2.3-6.4.9-.3 1.8-.6 2.8-.8.1-.8.3-1.7.6-2.7.8-2.1 1.8-4.1 3-6-.1-1-.1-2.1-.2-3.1-2.8-4.1-2.4-9.5-3.1-14.2-.4-7.8-3.2-15.4-2.5-23.2-9-3.8-14.8-12.5-22.9-17.6-2.7-2.5-7.5-6.1-4.9-10.1.7-1.4 1.5-2.7 2.3-4-7.5-9.3-20-8.1-30.7-8-3.7-.2-6.8 1.3-9.8 3.2-3 .5-8.7 6.1-17.8-7.4l-5.7 4c0 0-8.9 12.2-7 13.2 0 0-1.1 12-.6 20.7.5 11.7-5 22.6-4.4 34.4.2 3.7 1.3 7.2 1.9 10.8-1.3-.4-2.5-.9-3.8-1.4-.2-1.8-.4-3.6-.6-5.3-2.6 1.1-5.2 2.2-7.8 3.4 1.7 5.5 3 12.2 9.4 14.2-.6-3.3-1.3-6.6-2-9.8 2.5.4 4.9.7 7.4 1-1.6 4.9-3.9 9.6-4.7 14.7.9 9.8 7.9 17.9 7.8 27.9.3 4.5.6 8.9.8 13.4 1.1.3 2.1.8 2.9 1.4 1.5.3 2.8 1 4 1.9 3.6.4 6.9 1.9 9.9 4 1.7 1 3 2.5 3.9 4.3 2.9 0 5.8 0 8.7 0h55c-.2-2.4 2.9-1.8 3.3 0h11l.3-1h4.8l.3 1h8.9v-3.4c-.3-1.6-.7-3.1-1.1-4.7-6.8 5.3-15.5 2.3-23.4 2.2m4.2-34.8c-1.1-3-1.8-6.1-2.3-9.3 1.6 2.8 2.3 6 2.3 9.3m-63.2-101.4c-.4 1.1-.9 2.1-1.4 3.2 2.5-1 4.9-2.4 7.5-2.8 5.1.3 9.8 2.2 14.3 4.4 1.9 1.6 4.2 1.9 6.4 1.1-2.1-2.9-5-5-7.6-7.4 5.1 1.6 10.7 3.5 12.9 8.8-1.9.8-3.8 1.7-5.7 2.6.7.7 1.5 1.3 2.2 2-.6 3-.4 6.1.4 9.1-3.2-2-6.6-3.6-10.2-4.7-3.3-1.1-5-4.3-7.6-6.3-1.8.2-3.6.8-5.3 1.3.5-2.9.1-5.7-.5-8.5-3.2.6-6.5 1.1-9.8 1.6 1.5-1.4 3-2.9 4.4-4.4m-4.4-2c-2.2 1.6-4.3 3.3-6.5 4.6-1.5 1.2-3.3-.2-4.8-.7 2.8-2.6 7.8-2.2 11.3-3.9m-15-2.7c1.3 4.1 3.4 8.8 2.4 11.2-2 .8-4.2.9-6.3 1.2.2-5.2 4-4.4 3.9-12.4m-9.7 6.9c1.2 2.5 2.2 5 3.2 7.5-1 .1-2.9.2-3.8.2.1-1.9.5-5.7.6-7.7m-1 43.5c-.5-5 4.3-8.7 3.2-13.8 4.7-2.5 9.7-5 15.2-5 9 .1 18.5-3.5 27.1.3 2.3.7 2.9 3.4 2.4 5.5-1 4.1-2.9 8-2.9 12.2.7 3.4 3 6.2 4.7 9.2-2.1-.8-4-1.8-6.2-2.3-1.7.3-3.1 1.5-4.6 2.3 5.6 1 12.1.5 16.6 4.7-6 .8-12.7 2.6-18.3-.4-2.3-.8-1.5-3.7-1.8-5.6-4.7-1.3-9.5-2.7-14.5-2.2-5.1 1.3-9.9 3.6-14.7 5.6 1.1 2.3 2.4 4.6 3.5 6.9-3.4-.4-6.8-.8-10.2-1.2.5-5.5.9-10.9.5-16.2m-1.4 41.8c1.4-6 2.1-12.1 3.6-18 .6-2.6 3.4-3.5 5.4-4.9 1 7.4 7.4 12.2 8.3 19.6-5.7 1.3-11.5 2.6-17.3 3.3m4.4 19.2c0-3.7.3-7.5-2.4-10.4 1.8.4 3.6.8 5.4 1.1 0-2 .1-4 .2-5.9 7.2 0 16-2.9 22 2.8-5.6 4.5-13.2.5-19.5 2.9-1.5 1.2-2.6 2.8-3.8 4.2 7.8-.5 15.9-2.1 23.6.4-1.4 5.2-1.8 10.9-4.4 15.7-3.8 2.3-8.5 2.9-12.7 4.6-3.8-4.3-2.1-10.4-.7-15.3-2.6-.2-5.1-.1-7.7-.1"/><path d="m54.1 30c.8 0 2.2 0 3 0 0 .8 0 2.2 0 3-.8 0-2.2 0-3 0 0-.7 0-2.2 0-3"/><path d="m96.5 45.2c1.3 0 2.7-.1 4-.1.8 4.2 2.3 8.2 3.7 12.2-2.8-3.9-5.5-7.9-7.7-12.1"/><path d="m81.8 55.2c.1-2.6 2.2-4.4 3.8-6.1-.5 3.8-1.3 7.6-2 11.4-.7-1.8-1.5-3.5-1.8-5.3"/><path d="m46.4 53.4c4-2.3 9.4-1.1 11.6 3.2-1.6 0-3.1 0-4.7 0-.2 1.2-.4 2.4-.6 3.6-.7-2.3-1.4-4.5-2.2-6.8-2 1.1-3.9 2.3-5.8 3.6 1.2 1.4 2.3 2.8 3.5 4.2-.9 1-1.9 2-2.8 3 .2-3.6-2-8 1-10.8"/><path d="m76.1 79.8c1.2.5 2.4 1 3.7 1.5-1.2 1.4-2.3 2.9-3.3 4.4-.2-2-.3-3.9-.4-5.9"/><path d="m126.8 81.1c1.2 2.7 1.3 5.6 1.2 8.4-.7-2.7-1-5.5-1.2-8.4"/><path d="m76.2 91.4c4.5 5.7 11.7 8.9 14.8 15.8 2.4 4.5 6.4 9 5.3 14.5-3.5-4-4.8-9.4-8.2-13.5-4-5.7-10.9-9.6-11.9-16.8"/><path d="m111.4 111.1c1.3-2 2.1-5.9 5.3-5 .8 1.2 1.5 2.5 2.2 3.8-2.5.5-5 .9-7.5 1.2"/><path d="m96.3 121.6c2-.2 3.9-.4 5.9-.5-.5 1.8-1 3.6-1.4 5.5-2.1-1.1-3.6-2.9-4.5-5"/><path d="m101 128.7c2.5 0 5.1.1 7.6.2-1.7 1.4-3.4 2.7-5.1 4.1-.8-1.4-1.7-2.9-2.5-4.3"/><path d="m60.2 138.9c3.7-.6 7.4-.5 10.8 1.1 0 .8.1 2.2.2 3-3.7-.2-7.4-.4-11.1-.6 0-.9.1-2.7.1-3.5"/><path d="m81.5 146.4c2.6-.7 5.3-1 8-1-.8 1.2-1.6 2.5-2.5 3.7-1.8-.9-3.7-1.8-5.5-2.7"/></g></svg>