<?xml version="1.0" encoding="utf-8"?>
<!-- Generator: Adobe Illustrator 17.0.0, SVG Export Plug-In . SVG Version: 6.00 Build 0)  -->
<!DOCTYPE svg PUBLIC "-//W3C//DTD SVG 1.1//EN" "http://www.w3.org/Graphics/SVG/1.1/DTD/svg11.dtd">
<svg version="1.1" xmlns="http://www.w3.org/2000/svg" xmlns:xlink="http://www.w3.org/1999/xlink" x="0px" y="0px" width="560px"
	 height="960px" viewBox="0 0 560 960" style="enable-background:new 0 0 560 960;" xml:space="preserve">
<pattern  x="-25.5" y="1044.5" width="139.8" height="138.3" patternUnits="userSpaceOnUse" id="Plume2" viewBox="309 -414.9 139.8 138.3" style="overflow:visible;">
	<g>
		<polygon style="fill:none;" points="309,-414.9 448.8,-414.9 448.8,-276.6 309,-276.6 		"/>
		<path style="fill:#3B2E83;" d="M597.5-80.9c-12.8-21.2-8.6-44-2-51.8c-8.3,7.4-12.7,13.2-14.5,25.5c-7.7-6.7-12.5-8.7-21.7-10.5
			c14.2,8.8,19.8,19.8,24.2,34.7c-4-7.4-10.5-13.1-18.2-16c6.3,6.1,3.9,11.7,7.9,21.7c2.5,6.4,6.6,10.4,10.5,12.3c0,0-5.6,1-10-4.1
			c7.6,23.6,33.5,14.1,46.2,25.4c-10.8-5.2-27.5,0.2-27.5,15.6c0,9.6,8.2,17,16.8,17c8.5,0,13.6-5.8,13.6-11.3
			c0-4.9-2.5-7.4-5.1-8.3c2.6,3.6,0.4,8.5-4.1,8.5c-3.1,0-6.3-2.5-6.3-6.5c0-6.3,5.8-8.8,10.8-8.8c6.7,0,13.1,2.9,15.1,8.5
			C635.8-52.7,610.1-60.1,597.5-80.9z M711.7-123.8c-16.1,5.9-34.7-1.7-51.4,7.7c17.9-6.2,38.6-3.2,50.1,15.8
			c-4.6-4.6-13.3-6.2-20-6.2c15.6,8.7,13.8,31.7-0.5,36.2c0,0,4.6-3.2,4.6-11.5c0-11.1-9.8-20.3-28-20.3c-12.4,0-22.9,5.2-27.5,13.9
			c4.9-5.8,13.3-9.9,22.6-9.9c13.3,0,18.6,9.8,18.7,17.5c0.1,8.1-5.1,13.6-9.4,15.9c5.7-6.3,1.2-14.9-6.8-14.9
			c-11.7,0-16.5,14.1-14.3,25.7c2.7-9.8,7.9-15,17.6-16.7c-7,5.6-9.7,11.4-8.6,20.9c6.2-13.6,18.5-6.8,24.2-20.4
			c1.4,7.6,0.1,19-10.8,24.3c-12.2,5.9-22.4,3.2-32,14.4c-2.7-22.6-17.3-27.7-31.2-42.6c-18-19.3-17-46.1-8.3-60.4
			c-2.1,14.3,0.5,27.4,9.2,38.7c-5.1-17.1-4.2-35.1,4.2-49c-1.2,9.2-1,14.3,2,22.6c0.9-18,8.5-30.7,22.8-41.5
			c-5.7,9.6-8.6,22-7,31.9c6.3-25.9,24.1-37,36.7-40.6c-4.3,5.4-7,11.5-8.2,18.2c9.4-19.6,27.8-22.3,37.8-28.3
			c7.2-4.3,4.2-12.3-0.2-12.3c-2.4,0-3.8,1.4-5.1,4c1-5.2,4.4-7.9,8-7.9c5.3,0,9.3,5.2,9.3,11.7c0,17.3-22.9,29.5-49,44.3
			c-22.4,12.7-32.5,22.3-35.8,40c-3.4,18,5.9,35.2,5.9,35.2s-8.6-29.6,4.6-47.9c12-16.6,30.3-23.9,47.2-33.9
			c18.7-11,35.9-22.6,30.7-41.5c9.5,9.5,12.7,24.3,5.3,33.4c-9.6,11.7-28.5,14.2-36,21.7c13.2-6.6,25.2-4.1,34.7-7.9
			c9.3-3.7,9.2-14.3,9.2-14.3C730.9-144.7,727.1-129.4,711.7-123.8z M603.3-46.6c-7.4-0.2-15.5,4.8-15.2,10.1
			C580.8-46.1,594.4-50,603.3-46.6z M685.9-54.9c9.4,9.2-4.7,15.6-14.8,13.3C679.2-42.5,687.1-49.2,685.9-54.9z M704.6-85.1
			c5.7,8.7,4.5,24.1-7.4,18.5C702.9-67.5,706.5-77.2,704.6-85.1z M608.8-4.3c-7.1,11.1-16.3-1.3-16.1-11.7
			C595.3-8.4,603.5-2,608.8-4.3z"/>
		<path style="fill:#3B2E83;" d="M457.7-80.9c-12.8-21.2-8.6-44-2-51.8c-8.3,7.4-12.7,13.2-14.5,25.5c-7.7-6.7-12.5-8.7-21.7-10.5
			c14.2,8.8,19.8,19.8,24.2,34.7c-4-7.4-10.5-13.1-18.2-16c6.3,6.1,3.9,11.7,7.9,21.7c2.5,6.4,6.6,10.4,10.5,12.3c0,0-5.6,1-10-4.1
			c7.6,23.6,33.5,14.1,46.2,25.4c-10.8-5.2-27.5,0.2-27.5,15.6c0,9.6,8.2,17,16.8,17c8.5,0,13.6-5.8,13.6-11.3
			c0-4.9-2.5-7.4-5.1-8.3c2.6,3.6,0.4,8.5-4.1,8.5c-3.1,0-6.3-2.5-6.3-6.5c0-6.3,5.8-8.8,10.8-8.8c6.7,0,13.1,2.9,15.1,8.5
			C496-52.7,470.3-60.1,457.7-80.9z M571.9-123.8c-16.1,5.9-34.7-1.7-51.4,7.7c17.9-6.2,38.6-3.2,50.1,15.8
			c-4.6-4.6-13.3-6.2-20-6.2c15.6,8.7,13.8,31.7-0.5,36.2c0,0,4.6-3.2,4.6-11.5c0-11.1-9.8-20.3-28-20.3c-12.4,0-22.9,5.2-27.5,13.9
			c4.9-5.8,13.3-9.9,22.6-9.9c13.3,0,18.6,9.8,18.7,17.5c0.1,8.1-5.1,13.6-9.4,15.9c5.7-6.3,1.2-14.9-6.8-14.9
			c-11.7,0-16.5,14.1-14.3,25.7c2.7-9.8,7.9-15,17.6-16.7c-7,5.6-9.7,11.4-8.6,20.9c6.2-13.6,18.5-6.8,24.2-20.4
			c1.4,7.6,0.1,19-10.8,24.3c-12.2,5.9-22.4,3.2-32,14.4c-2.7-22.6-17.3-27.7-31.2-42.6c-18-19.3-17-46.1-8.3-60.4
			c-2.1,14.3,0.5,27.4,9.2,38.7c-5.1-17.1-4.2-35.1,4.2-49c-1.2,9.2-1,14.3,2,22.6c0.9-18,8.5-30.7,22.8-41.5
			c-5.7,9.6-8.6,22-7,31.9c6.3-25.9,24.1-37,36.7-40.6c-4.3,5.4-7,11.5-8.2,18.2c9.4-19.6,27.8-22.3,37.8-28.3
			c7.2-4.3,4.2-12.3-0.2-12.3c-2.4,0-3.8,1.4-5.1,4c1-5.2,4.4-7.9,8-7.9c5.3,0,9.3,5.2,9.3,11.7c0,17.3-22.9,29.5-49,44.3
			c-22.4,12.7-32.5,22.3-35.8,40c-3.4,18,5.9,35.2,5.9,35.2s-8.6-29.6,4.6-47.9c12-16.6,30.3-23.9,47.3-33.9
			c18.7-11,35.9-22.6,30.7-41.5c9.5,9.5,12.7,24.3,5.3,33.4c-9.6,11.7-28.5,14.2-36,21.7c13.2-6.6,25.2-4.1,34.7-7.9
			c9.3-3.7,9.2-14.3,9.2-14.3C591.1-144.7,587.3-129.4,571.9-123.8z M463.5-46.6c-7.4-0.2-15.5,4.8-15.2,10.1
			C441-46.1,454.6-50,463.5-46.6z M546.1-54.9c9.4,9.2-4.7,15.6-14.8,13.3C539.3-42.5,547.3-49.2,546.1-54.9z M564.8-85.1
			c5.7,8.7,4.5,24.1-7.4,18.5C563.1-67.5,566.7-77.2,564.8-85.1z M469-4.3c-7.1,11.1-16.3-1.3-16.1-11.7C455.4-8.4,463.7-2,469-4.3z
			"/>
		<path style="fill:#3B2E83;" d="M317.8-80.9c-12.8-21.2-8.6-44-2-51.8c-8.3,7.4-12.7,13.2-14.5,25.5c-7.7-6.7-12.5-8.7-21.7-10.5
			c14.2,8.8,19.8,19.8,24.2,34.7c-4-7.4-10.5-13.1-18.2-16c6.3,6.1,3.9,11.7,7.9,21.7c2.5,6.4,6.6,10.4,10.5,12.3c0,0-5.6,1-10-4.1
			c7.6,23.6,33.5,14.1,46.2,25.4c-10.8-5.2-27.5,0.2-27.5,15.6c0,9.6,8.2,17,16.8,17c8.5,0,13.6-5.8,13.6-11.3
			c0-4.9-2.5-7.4-5.1-8.3c2.6,3.6,0.4,8.5-4.1,8.5c-3.1,0-6.3-2.5-6.3-6.5c0-6.3,5.8-8.8,10.8-8.8c6.7,0,13.1,2.9,15.1,8.5
			C356.2-52.7,330.5-60.1,317.8-80.9z M432.1-123.8c-16.1,5.9-34.7-1.7-51.4,7.7c17.9-6.2,38.6-3.2,50.1,15.8
			c-4.6-4.6-13.3-6.2-20-6.2c15.6,8.7,13.8,31.7-0.5,36.2c0,0,4.6-3.2,4.6-11.5c0-11.1-9.8-20.3-28-20.3c-12.4,0-22.9,5.2-27.5,13.9
			c4.9-5.8,13.3-9.9,22.6-9.9c13.3,0,18.6,9.8,18.7,17.5c0.1,8.1-5.1,13.6-9.4,15.9c5.7-6.3,1.2-14.9-6.8-14.9
			c-11.7,0-16.5,14.1-14.3,25.7c2.7-9.8,7.9-15,17.6-16.7c-7,5.6-9.7,11.4-8.6,20.9c6.2-13.6,18.5-6.8,24.2-20.4
			c1.4,7.6,0.1,19-10.8,24.3c-12.2,5.9-22.4,3.2-32,14.4c-2.7-22.6-17.3-27.7-31.2-42.6c-18-19.3-17-46.1-8.3-60.4
			c-2.1,14.3,0.5,27.4,9.2,38.7c-5.1-17.1-4.2-35.1,4.2-49c-1.2,9.2-1,14.3,2,22.6c0.9-18,8.5-30.7,22.8-41.5
			c-5.7,9.6-8.6,22-7,31.9c6.3-25.9,24.1-37,36.7-40.6c-4.3,5.4-7,11.5-8.2,18.2c9.4-19.6,27.8-22.3,37.8-28.3
			c7.2-4.3,4.2-12.3-0.2-12.3c-2.4,0-3.8,1.4-5.1,4c1-5.2,4.4-7.9,8-7.9c5.3,0,9.3,5.2,9.3,11.7c0,17.3-22.9,29.5-49,44.3
			c-22.4,12.7-32.5,22.3-35.8,40c-3.4,18,5.9,35.2,5.9,35.2s-8.6-29.6,4.6-47.9c12-16.6,30.3-23.9,47.2-33.9
			c18.7-11,35.9-22.6,30.7-41.5c9.5,9.5,12.7,24.3,5.3,33.4c-9.6,11.7-28.5,14.2-36,21.7c13.2-6.6,25.2-4.1,34.7-7.9
			c9.3-3.7,9.2-14.3,9.2-14.3C451.3-144.7,447.5-129.4,432.1-123.8z M323.7-46.6c-7.4-0.2-15.5,4.8-15.2,10.1
			C301.2-46.1,314.8-50,323.7-46.6z M406.3-54.9c9.4,9.2-4.7,15.6-14.8,13.3C399.5-42.5,407.5-49.2,406.3-54.9z M425-85.1
			c5.7,8.7,4.5,24.1-7.4,18.5C423.3-67.5,426.9-77.2,425-85.1z M329.2-4.3c-7.1,11.1-16.3-1.3-16.1-11.7
			C315.6-8.4,323.8-2,329.2-4.3z"/>
		<path style="fill:#3B2E83;" d="M178-80.9c-12.8-21.2-8.6-44-2-51.8c-8.3,7.4-12.7,13.2-14.5,25.5c-7.7-6.7-12.5-8.7-21.7-10.5
			c14.2,8.8,19.8,19.8,24.2,34.7c-4-7.4-10.5-13.1-18.2-16c6.3,6.1,3.9,11.7,7.9,21.7c2.5,6.4,6.6,10.4,10.5,12.3c0,0-5.6,1-10-4.1
			c7.6,23.6,33.5,14.1,46.2,25.4c-10.8-5.2-27.5,0.2-27.5,15.6c0,9.6,8.2,17,16.8,17c8.5,0,13.6-5.8,13.6-11.3
			c0-4.9-2.5-7.4-5.1-8.3c2.6,3.6,0.4,8.5-4.1,8.5c-3.1,0-6.3-2.5-6.3-6.5c0-6.3,5.8-8.8,10.8-8.8c6.7,0,13.1,2.9,15.1,8.5
			C216.4-52.7,190.7-60.1,178-80.9z M292.3-123.8c-16.1,5.9-34.7-1.7-51.4,7.7c17.9-6.2,38.6-3.2,50.1,15.8
			c-4.6-4.6-13.3-6.2-20-6.2c15.6,8.7,13.8,31.7-0.5,36.2c0,0,4.6-3.2,4.6-11.5c0-11.1-9.8-20.3-28-20.3c-12.4,0-22.9,5.2-27.5,13.9
			c4.9-5.8,13.3-9.9,22.6-9.9c13.3,0,18.6,9.8,18.7,17.5c0.1,8.1-5.1,13.6-9.4,15.9c5.7-6.3,1.2-14.9-6.8-14.9
			c-11.7,0-16.5,14.1-14.3,25.7c2.7-9.8,7.9-15,17.6-16.7c-7,5.6-9.7,11.4-8.6,20.9c6.2-13.6,18.5-6.8,24.2-20.4
			c1.4,7.6,0.1,19-10.8,24.3c-12.2,5.9-22.4,3.2-32,14.4c-2.7-22.6-17.3-27.7-31.2-42.6c-18-19.3-17-46.1-8.3-60.4
			c-2.1,14.3,0.5,27.4,9.2,38.7c-5.1-17.1-4.2-35.1,4.2-49c-1.2,9.2-1,14.3,2,22.6c0.9-18,8.5-30.7,22.8-41.5
			c-5.7,9.6-8.6,22-7,31.9c6.3-25.9,24.1-37,36.7-40.6c-4.3,5.4-7,11.5-8.2,18.2c9.4-19.6,27.8-22.3,37.8-28.3
			c7.2-4.3,4.2-12.3-0.2-12.3c-2.4,0-3.8,1.4-5.1,4c1-5.2,4.4-7.9,8-7.9c5.3,0,9.3,5.2,9.3,11.7c0,17.3-22.9,29.5-49,44.3
			c-22.4,12.7-32.5,22.3-35.8,40c-3.4,18,5.9,35.2,5.9,35.2s-8.6-29.6,4.6-47.9c12-16.6,30.3-23.9,47.2-33.9
			c18.7-11,35.9-22.6,30.7-41.5c9.5,9.5,12.7,24.3,5.3,33.4c-9.6,11.7-28.5,14.2-36,21.7c13.2-6.6,25.2-4.1,34.7-7.9
			c9.3-3.7,9.2-14.3,9.2-14.3C311.5-144.7,307.6-129.4,292.3-123.8z M183.9-46.6c-7.4-0.2-15.5,4.8-15.2,10.1
			C161.4-46.1,175-50,183.9-46.6z M266.5-54.9c9.4,9.2-4.7,15.6-14.8,13.3C259.7-42.5,267.7-49.2,266.5-54.9z M285.2-85.1
			c5.7,8.7,4.5,24.1-7.4,18.5C283.5-67.5,287.1-77.2,285.2-85.1z M189.4-4.3c-7.1,11.1-16.3-1.3-16.1-11.7
			C175.8-8.4,184-2,189.4-4.3z"/>
		<path style="fill:#3B2E83;" d="M38.2-80.9c-12.8-21.2-8.6-44-2-51.8c-8.3,7.4-12.7,13.2-14.5,25.5C14.1-114,9.2-116,0-117.8
			c14.2,8.8,19.8,19.8,24.2,34.7c-4-7.4-10.5-13.1-18.2-16c6.3,6.1,3.9,11.7,7.9,21.7c2.5,6.4,6.6,10.4,10.5,12.3c0,0-5.6,1-10-4.1
			c7.6,23.6,33.5,14.1,46.2,25.4C49.6-49,32.9-43.6,32.9-28.2c0,9.6,8.2,17,16.8,17c8.5,0,13.6-5.8,13.6-11.3c0-4.9-2.5-7.4-5.1-8.3
			c2.6,3.6,0.4,8.5-4.1,8.5c-3.1,0-6.3-2.5-6.3-6.5c0-6.3,5.8-8.8,10.8-8.8c6.7,0,13.1,2.9,15.1,8.5C76.6-52.7,50.8-60.1,38.2-80.9z
			 M152.5-123.8c-16.1,5.9-34.7-1.7-51.4,7.7c17.9-6.2,38.6-3.2,50.1,15.8c-4.6-4.6-13.3-6.2-20-6.2c15.6,8.7,13.8,31.7-0.5,36.2
			c0,0,4.6-3.2,4.6-11.5c0-11.1-9.8-20.3-28-20.3c-12.4,0-22.9,5.2-27.5,13.9c4.9-5.8,13.3-9.9,22.6-9.9c13.3,0,18.6,9.8,18.7,17.5
			c0.1,8.1-5.1,13.6-9.4,15.9c5.7-6.3,1.2-14.9-6.8-14.9c-11.7,0-16.5,14.1-14.3,25.7c2.7-9.8,7.9-15,17.6-16.7
			c-7,5.6-9.7,11.4-8.6,20.9c6.2-13.6,18.5-6.8,24.2-20.4c1.4,7.6,0.1,19-10.8,24.3c-12.2,5.9-22.4,3.2-32,14.4
			c-2.7-22.6-17.3-27.7-31.2-42.6c-18-19.3-17-46.1-8.3-60.4c-2.1,14.3,0.5,27.4,9.2,38.7c-5.1-17.1-4.2-35.1,4.2-49
			c-1.2,9.2-1,14.3,2,22.6c0.9-18,8.5-30.7,22.8-41.5c-5.7,9.6-8.6,22-7,31.9c6.3-25.9,24.1-37,36.7-40.6c-4.3,5.4-7,11.5-8.2,18.2
			c9.4-19.6,27.8-22.3,37.8-28.3c7.2-4.3,4.2-12.3-0.2-12.3c-2.4,0-3.8,1.4-5.1,4c1-5.2,4.4-7.9,8-7.9c5.3,0,9.3,5.2,9.3,11.7
			c0,17.3-22.9,29.5-49,44.3c-22.4,12.7-32.5,22.3-35.8,40c-3.4,18,5.9,35.2,5.9,35.2s-8.6-29.6,4.6-47.9
			c12-16.6,30.3-23.9,47.2-33.9c18.7-11,35.9-22.6,30.7-41.5c9.5,9.5,12.7,24.3,5.3,33.4c-9.6,11.7-28.5,14.2-36,21.7
			c13.2-6.6,25.2-4.1,34.7-7.9c9.3-3.7,9.2-14.3,9.2-14.3C171.7-144.7,167.8-129.4,152.5-123.8z M44.1-46.6
			c-7.4-0.2-15.5,4.8-15.2,10.1C21.6-46.1,35.2-50,44.1-46.6z M126.7-54.9c9.4,9.2-4.7,15.6-14.8,13.3
			C119.9-42.5,127.9-49.2,126.7-54.9z M145.4-85.1c5.7,8.7,4.5,24.1-7.4,18.5C143.7-67.5,147.3-77.2,145.4-85.1z M49.5-4.3
			C42.4,6.7,33.3-5.7,33.4-16C36-8.4,44.2-2,49.5-4.3z"/>
		<path style="fill:#3B2E83;" d="M597.5-219.2c-12.8-21.2-8.6-44-2-51.8c-8.3,7.4-12.7,13.2-14.5,25.5c-7.7-6.7-12.5-8.7-21.7-10.5
			c14.2,8.8,19.8,19.8,24.2,34.7c-4-7.4-10.5-13.1-18.2-16c6.3,6.1,3.9,11.7,7.9,21.7c2.5,6.4,6.6,10.4,10.5,12.3c0,0-5.6,1-10-4.1
			c7.6,23.6,33.5,14.1,46.2,25.4c-10.8-5.2-27.5,0.2-27.5,15.6c0,9.6,8.2,17,16.8,17c8.5,0,13.6-5.8,13.6-11.3
			c0-4.9-2.5-7.4-5.1-8.3c2.6,3.6,0.4,8.5-4.1,8.5c-3.1,0-6.3-2.5-6.3-6.5c0-6.3,5.8-8.8,10.8-8.8c6.7,0,13.1,2.9,15.1,8.5
			C635.8-191,610.1-198.4,597.5-219.2z M711.7-262.1c-16.1,5.9-34.7-1.7-51.4,7.7c17.9-6.2,38.6-3.2,50.1,15.8
			c-4.6-4.6-13.3-6.2-20-6.2c15.6,8.7,13.8,31.7-0.5,36.2c0,0,4.6-3.2,4.6-11.5c0-11.1-9.8-20.3-28-20.3c-12.4,0-22.9,5.2-27.5,13.9
			c4.9-5.8,13.3-9.9,22.6-9.9c13.3,0,18.6,9.8,18.7,17.5c0.1,8.1-5.1,13.6-9.4,15.9c5.7-6.3,1.2-14.9-6.8-14.9
			c-11.7,0-16.5,14.1-14.3,25.7c2.7-9.8,7.9-15,17.6-16.7c-7,5.6-9.7,11.4-8.6,20.9c6.2-13.6,18.5-6.8,24.2-20.4
			c1.4,7.6,0.1,19-10.8,24.3c-12.2,5.9-22.4,3.2-32,14.4c-2.7-22.6-17.3-27.7-31.2-42.6c-18-19.3-17-46.1-8.3-60.4
			c-2.1,14.3,0.5,27.4,9.2,38.7c-5.1-17.1-4.2-35.1,4.2-49c-1.2,9.3-1,14.3,2,22.6c0.9-18,8.5-30.7,22.8-41.5
			c-5.7,9.6-8.6,22-7,31.9c6.3-25.9,24.1-37,36.7-40.6c-4.3,5.4-7,11.5-8.2,18.2c9.4-19.6,27.8-22.3,37.8-28.3
			c7.2-4.3,4.2-12.3-0.2-12.3c-2.4,0-3.8,1.4-5.1,4c1-5.2,4.4-7.9,8-7.9c5.3,0,9.3,5.2,9.3,11.7c0,17.3-22.9,29.5-49,44.3
			c-22.4,12.7-32.5,22.3-35.8,40c-3.4,18,5.9,35.2,5.9,35.2s-8.6-29.6,4.6-47.9c12-16.6,30.3-23.9,47.2-33.9
			c18.7-11,35.9-22.6,30.7-41.5c9.5,9.5,12.7,24.3,5.3,33.4c-9.6,11.7-28.5,14.2-36,21.7c13.2-6.6,25.2-4.1,34.7-7.9
			c9.3-3.7,9.2-14.3,9.2-14.3C730.9-283,727.1-267.7,711.7-262.1z M603.3-184.9c-7.4-0.2-15.5,4.8-15.2,10.1
			C580.8-184.4,594.4-188.3,603.3-184.9z M685.9-193.2c9.4,9.2-4.7,15.6-14.8,13.3C679.2-180.8,687.1-187.5,685.9-193.2z
			 M704.6-223.4c5.7,8.7,4.5,24.1-7.4,18.5C702.9-205.7,706.5-215.5,704.6-223.4z M608.8-142.6c-7.1,11.1-16.3-1.3-16.1-11.7
			C595.3-146.7,603.5-140.3,608.8-142.6z"/>
		<path style="fill:#3B2E83;" d="M457.7-219.2c-12.8-21.2-8.6-44-2-51.8c-8.3,7.4-12.7,13.2-14.5,25.5c-7.7-6.7-12.5-8.7-21.7-10.5
			c14.2,8.8,19.8,19.8,24.2,34.7c-4-7.4-10.5-13.1-18.2-16c6.3,6.1,3.9,11.7,7.9,21.7c2.5,6.4,6.6,10.4,10.5,12.3c0,0-5.6,1-10-4.1
			c7.6,23.6,33.5,14.1,46.2,25.4c-10.8-5.2-27.5,0.2-27.5,15.6c0,9.6,8.2,17,16.8,17c8.5,0,13.6-5.8,13.6-11.3
			c0-4.9-2.5-7.4-5.1-8.3c2.6,3.6,0.4,8.5-4.1,8.5c-3.1,0-6.3-2.5-6.3-6.5c0-6.3,5.8-8.8,10.8-8.8c6.7,0,13.1,2.9,15.1,8.5
			C496-191,470.3-198.4,457.7-219.2z M571.9-262.1c-16.1,5.9-34.7-1.7-51.4,7.7c17.9-6.2,38.6-3.2,50.1,15.8
			c-4.6-4.6-13.3-6.2-20-6.2c15.6,8.7,13.8,31.7-0.5,36.2c0,0,4.6-3.2,4.6-11.5c0-11.1-9.8-20.3-28-20.3c-12.4,0-22.9,5.2-27.5,13.9
			c4.9-5.8,13.3-9.9,22.6-9.9c13.3,0,18.6,9.8,18.7,17.5c0.1,8.1-5.1,13.6-9.4,15.9c5.7-6.3,1.2-14.9-6.8-14.9
			c-11.7,0-16.5,14.1-14.3,25.7c2.7-9.8,7.9-15,17.6-16.7c-7,5.6-9.7,11.4-8.6,20.9c6.2-13.6,18.5-6.8,24.2-20.4
			c1.4,7.6,0.1,19-10.8,24.3c-12.2,5.9-22.4,3.2-32,14.4c-2.7-22.6-17.3-27.7-31.2-42.6c-18-19.3-17-46.1-8.3-60.4
			c-2.1,14.3,0.5,27.4,9.2,38.7c-5.1-17.1-4.2-35.1,4.2-49c-1.2,9.3-1,14.3,2,22.6c0.9-18,8.5-30.7,22.8-41.5
			c-5.7,9.6-8.6,22-7,31.9c6.3-25.9,24.1-37,36.7-40.6c-4.3,5.4-7,11.5-8.2,18.2c9.4-19.6,27.8-22.3,37.8-28.3
			c7.2-4.3,4.2-12.3-0.2-12.3c-2.4,0-3.8,1.4-5.1,4c1-5.2,4.4-7.9,8-7.9c5.3,0,9.3,5.2,9.3,11.7c0,17.3-22.9,29.5-49,44.3
			c-22.4,12.7-32.5,22.3-35.8,40c-3.4,18,5.9,35.2,5.9,35.2s-8.6-29.6,4.6-47.9c12-16.6,30.3-23.9,47.3-33.9
			c18.7-11,35.9-22.6,30.7-41.5c9.5,9.5,12.7,24.3,5.3,33.4c-9.6,11.7-28.5,14.2-36,21.7c13.2-6.6,25.2-4.1,34.7-7.9
			c9.3-3.7,9.2-14.3,9.2-14.3C591.1-283,587.3-267.7,571.9-262.1z M463.5-184.9c-7.4-0.2-15.5,4.8-15.2,10.1
			C441-184.4,454.6-188.3,463.5-184.9z M546.1-193.2c9.4,9.2-4.7,15.6-14.8,13.3C539.3-180.8,547.3-187.5,546.1-193.2z M564.8-223.4
			c5.7,8.7,4.5,24.1-7.4,18.5C563.1-205.7,566.7-215.5,564.8-223.4z M469-142.6c-7.1,11.1-16.3-1.3-16.1-11.7
			C455.4-146.7,463.7-140.3,469-142.6z"/>
		<path style="fill:#3B2E83;" d="M317.8-219.2c-12.8-21.2-8.6-44-2-51.8c-8.3,7.4-12.7,13.2-14.5,25.5c-7.7-6.7-12.5-8.7-21.7-10.5
			c14.2,8.8,19.8,19.8,24.2,34.7c-4-7.4-10.5-13.1-18.2-16c6.3,6.1,3.9,11.7,7.9,21.7c2.5,6.4,6.6,10.4,10.5,12.3c0,0-5.6,1-10-4.1
			c7.6,23.6,33.5,14.1,46.2,25.4c-10.8-5.2-27.5,0.2-27.5,15.6c0,9.6,8.2,17,16.8,17c8.5,0,13.6-5.8,13.6-11.3
			c0-4.9-2.5-7.4-5.1-8.3c2.6,3.6,0.4,8.5-4.1,8.5c-3.1,0-6.3-2.5-6.3-6.5c0-6.3,5.8-8.8,10.8-8.8c6.7,0,13.1,2.9,15.1,8.5
			C356.2-191,330.5-198.4,317.8-219.2z M432.1-262.1c-16.1,5.9-34.7-1.7-51.4,7.7c17.9-6.2,38.6-3.2,50.1,15.8
			c-4.6-4.6-13.3-6.2-20-6.2c15.6,8.7,13.8,31.7-0.5,36.2c0,0,4.6-3.2,4.6-11.5c0-11.1-9.8-20.3-28-20.3c-12.4,0-22.9,5.2-27.5,13.9
			c4.9-5.8,13.3-9.9,22.6-9.9c13.3,0,18.6,9.8,18.7,17.5c0.1,8.1-5.1,13.6-9.4,15.9c5.7-6.3,1.2-14.9-6.8-14.9
			c-11.7,0-16.5,14.1-14.3,25.7c2.7-9.8,7.9-15,17.6-16.7c-7,5.6-9.7,11.4-8.6,20.9c6.2-13.6,18.5-6.8,24.2-20.4
			c1.4,7.6,0.1,19-10.8,24.3c-12.2,5.9-22.4,3.2-32,14.4c-2.7-22.6-17.3-27.7-31.2-42.6c-18-19.3-17-46.1-8.3-60.4
			c-2.1,14.3,0.5,27.4,9.2,38.7c-5.1-17.1-4.2-35.1,4.2-49c-1.2,9.3-1,14.3,2,22.6c0.9-18,8.5-30.7,22.8-41.5
			c-5.7,9.6-8.6,22-7,31.9c6.3-25.9,24.1-37,36.7-40.6c-4.3,5.4-7,11.5-8.2,18.2c9.4-19.6,27.8-22.3,37.8-28.3
			c7.2-4.3,4.2-12.3-0.2-12.3c-2.4,0-3.8,1.4-5.1,4c1-5.2,4.4-7.9,8-7.9c5.3,0,9.3,5.2,9.3,11.7c0,17.3-22.9,29.5-49,44.3
			c-22.4,12.7-32.5,22.3-35.8,40c-3.4,18,5.9,35.2,5.9,35.2s-8.6-29.6,4.6-47.9c12-16.6,30.3-23.9,47.2-33.9
			c18.7-11,35.9-22.6,30.7-41.5c9.5,9.5,12.7,24.3,5.3,33.4c-9.6,11.7-28.5,14.2-36,21.7c13.2-6.6,25.2-4.1,34.7-7.9
			c9.3-3.7,9.2-14.3,9.2-14.3C451.3-283,447.5-267.7,432.1-262.1z M323.7-184.9c-7.4-0.2-15.5,4.8-15.2,10.1
			C301.2-184.4,314.8-188.3,323.7-184.9z M406.3-193.2c9.4,9.2-4.7,15.6-14.8,13.3C399.5-180.8,407.5-187.5,406.3-193.2z M425-223.4
			c5.7,8.7,4.5,24.1-7.4,18.5C423.3-205.7,426.9-215.5,425-223.4z M329.2-142.6c-7.1,11.1-16.3-1.3-16.1-11.7
			C315.6-146.7,323.8-140.3,329.2-142.6z"/>
		<path style="fill:#3B2E83;" d="M178-219.2c-12.8-21.2-8.6-44-2-51.8c-8.3,7.4-12.7,13.2-14.5,25.5c-7.7-6.7-12.5-8.7-21.7-10.5
			c14.2,8.8,19.8,19.8,24.2,34.7c-4-7.4-10.5-13.1-18.2-16c6.3,6.1,3.9,11.7,7.9,21.7c2.5,6.4,6.6,10.4,10.5,12.3c0,0-5.6,1-10-4.1
			c7.6,23.6,33.5,14.1,46.2,25.4c-10.8-5.2-27.5,0.2-27.5,15.6c0,9.6,8.2,17,16.8,17c8.5,0,13.6-5.8,13.6-11.3
			c0-4.9-2.5-7.4-5.1-8.3c2.6,3.6,0.4,8.5-4.1,8.5c-3.1,0-6.3-2.5-6.3-6.5c0-6.3,5.8-8.8,10.8-8.8c6.7,0,13.1,2.9,15.1,8.5
			C216.4-191,190.7-198.4,178-219.2z M292.3-262.1c-16.1,5.9-34.7-1.7-51.4,7.7c17.9-6.2,38.6-3.2,50.1,15.8
			c-4.6-4.6-13.3-6.2-20-6.2c15.6,8.7,13.8,31.7-0.5,36.2c0,0,4.6-3.2,4.6-11.5c0-11.1-9.8-20.3-28-20.3c-12.4,0-22.9,5.2-27.5,13.9
			c4.9-5.8,13.3-9.9,22.6-9.9c13.3,0,18.6,9.8,18.7,17.5c0.1,8.1-5.1,13.6-9.4,15.9c5.7-6.3,1.2-14.9-6.8-14.9
			c-11.7,0-16.5,14.1-14.3,25.7c2.7-9.8,7.9-15,17.6-16.7c-7,5.6-9.7,11.4-8.6,20.9c6.2-13.6,18.5-6.8,24.2-20.4
			c1.4,7.6,0.1,19-10.8,24.3c-12.2,5.9-22.4,3.2-32,14.4c-2.7-22.6-17.3-27.7-31.2-42.6c-18-19.3-17-46.1-8.3-60.4
			c-2.1,14.3,0.5,27.4,9.2,38.7c-5.1-17.1-4.2-35.1,4.2-49c-1.2,9.3-1,14.3,2,22.6c0.9-18,8.5-30.7,22.8-41.5
			c-5.7,9.6-8.6,22-7,31.9c6.3-25.9,24.1-37,36.7-40.6c-4.3,5.4-7,11.5-8.2,18.2c9.4-19.6,27.8-22.3,37.8-28.3
			c7.2-4.3,4.2-12.3-0.2-12.3c-2.4,0-3.8,1.4-5.1,4c1-5.2,4.4-7.9,8-7.9c5.3,0,9.3,5.2,9.3,11.7c0,17.3-22.9,29.5-49,44.3
			c-22.4,12.7-32.5,22.3-35.8,40c-3.4,18,5.9,35.2,5.9,35.2s-8.6-29.6,4.6-47.9c12-16.6,30.3-23.9,47.2-33.9
			c18.7-11,35.9-22.6,30.7-41.5c9.5,9.5,12.7,24.3,5.3,33.4c-9.6,11.7-28.5,14.2-36,21.7c13.2-6.6,25.2-4.1,34.7-7.9
			c9.3-3.7,9.2-14.3,9.2-14.3C311.5-283,307.6-267.7,292.3-262.1z M183.9-184.9c-7.4-0.2-15.5,4.8-15.2,10.1
			C161.4-184.4,175-188.3,183.9-184.9z M266.5-193.2c9.4,9.2-4.7,15.6-14.8,13.3C259.7-180.8,267.7-187.5,266.5-193.2z M285.2-223.4
			c5.7,8.7,4.5,24.1-7.4,18.5C283.5-205.7,287.1-215.5,285.2-223.4z M189.4-142.6c-7.1,11.1-16.3-1.3-16.1-11.7
			C175.8-146.7,184-140.3,189.4-142.6z"/>
		<path style="fill:#3B2E83;" d="M38.2-219.2c-12.8-21.2-8.6-44-2-51.8c-8.3,7.4-12.7,13.2-14.5,25.5c-7.7-6.7-12.5-8.7-21.7-10.5
			c14.2,8.8,19.8,19.8,24.2,34.7c-4-7.4-10.5-13.1-18.2-16c6.3,6.1,3.9,11.7,7.9,21.7c2.5,6.4,6.6,10.4,10.5,12.3c0,0-5.6,1-10-4.1
			c7.6,23.6,33.5,14.1,46.2,25.4c-10.8-5.2-27.5,0.2-27.5,15.6c0,9.6,8.2,17,16.8,17c8.5,0,13.6-5.8,13.6-11.3
			c0-4.9-2.5-7.4-5.1-8.3c2.6,3.6,0.4,8.5-4.1,8.5c-3.1,0-6.3-2.5-6.3-6.5c0-6.3,5.8-8.8,10.8-8.8c6.7,0,13.1,2.9,15.1,8.5
			C76.6-191,50.8-198.4,38.2-219.2z M152.5-262.1c-16.1,5.9-34.7-1.7-51.4,7.7c17.9-6.2,38.6-3.2,50.1,15.8
			c-4.6-4.6-13.3-6.2-20-6.2c15.6,8.7,13.8,31.7-0.5,36.2c0,0,4.6-3.2,4.6-11.5c0-11.1-9.8-20.3-28-20.3c-12.4,0-22.9,5.2-27.5,13.9
			c4.9-5.8,13.3-9.9,22.6-9.9c13.3,0,18.6,9.8,18.7,17.5c0.1,8.1-5.1,13.6-9.4,15.9c5.7-6.3,1.2-14.9-6.8-14.9
			c-11.7,0-16.5,14.1-14.3,25.7c2.7-9.8,7.9-15,17.6-16.7c-7,5.6-9.7,11.4-8.6,20.9c6.2-13.6,18.5-6.8,24.2-20.4
			c1.4,7.6,0.1,19-10.8,24.3c-12.2,5.9-22.4,3.2-32,14.4c-2.7-22.6-17.3-27.7-31.2-42.6c-18-19.3-17-46.1-8.3-60.4
			c-2.1,14.3,0.5,27.4,9.2,38.7c-5.1-17.1-4.2-35.1,4.2-49c-1.2,9.3-1,14.3,2,22.6c0.9-18,8.5-30.7,22.8-41.5
			c-5.7,9.6-8.6,22-7,31.9c6.3-25.9,24.1-37,36.7-40.6c-4.3,5.4-7,11.5-8.2,18.2c9.4-19.6,27.8-22.3,37.8-28.3
			c7.2-4.3,4.2-12.3-0.2-12.3c-2.4,0-3.8,1.4-5.1,4c1-5.2,4.4-7.9,8-7.9c5.3,0,9.3,5.2,9.3,11.7c0,17.3-22.9,29.5-49,44.3
			c-22.4,12.7-32.5,22.3-35.8,40c-3.4,18,5.9,35.2,5.9,35.2s-8.6-29.6,4.6-47.9c12-16.6,30.3-23.9,47.2-33.9
			c18.7-11,35.9-22.6,30.7-41.5c9.5,9.5,12.7,24.3,5.3,33.4c-9.6,11.7-28.5,14.2-36,21.7c13.2-6.6,25.2-4.1,34.7-7.9
			c9.3-3.7,9.2-14.3,9.2-14.3C171.7-283,167.8-267.7,152.5-262.1z M44.1-184.9c-7.4-0.2-15.5,4.8-15.2,10.1
			C21.6-184.4,35.2-188.3,44.1-184.9z M126.7-193.2c9.4,9.2-4.7,15.6-14.8,13.3C119.9-180.8,127.9-187.5,126.7-193.2z M145.4-223.4
			c5.7,8.7,4.5,24.1-7.4,18.5C143.7-205.7,147.3-215.5,145.4-223.4z M49.5-142.6c-7.1,11.1-16.3-1.3-16.1-11.7
			C36-146.7,44.2-140.3,49.5-142.6z"/>
		<path style="fill:#3B2E83;" d="M597.5-357.5c-12.8-21.2-8.6-44-2-51.8c-8.3,7.4-12.7,13.2-14.5,25.5c-7.7-6.7-12.5-8.7-21.7-10.5
			c14.2,8.8,19.8,19.8,24.2,34.7c-4-7.4-10.5-13.1-18.2-16c6.3,6.1,3.9,11.7,7.9,21.7c2.5,6.4,6.6,10.4,10.5,12.3c0,0-5.6,1-10-4.1
			c7.6,23.6,33.5,14.1,46.2,25.4c-10.8-5.2-27.5,0.2-27.5,15.6c0,9.6,8.2,17,16.8,17c8.5,0,13.6-5.8,13.6-11.3
			c0-4.9-2.5-7.4-5.1-8.3c2.6,3.6,0.4,8.5-4.1,8.5c-3.1,0-6.3-2.5-6.3-6.5c0-6.3,5.8-8.8,10.8-8.8c6.7,0,13.1,2.9,15.1,8.5
			C635.8-329.3,610.1-336.7,597.5-357.5z M711.7-400.4c-16.1,5.9-34.7-1.7-51.4,7.7c17.9-6.2,38.6-3.2,50.1,15.8
			c-4.6-4.6-13.3-6.2-20-6.2c15.6,8.7,13.8,31.7-0.5,36.2c0,0,4.6-3.2,4.6-11.5c0-11.1-9.8-20.3-28-20.3c-12.4,0-22.9,5.2-27.5,13.9
			c4.9-5.8,13.3-9.9,22.6-9.9c13.3,0,18.6,9.8,18.7,17.5c0.1,8.1-5.1,13.6-9.4,15.9c5.7-6.3,1.2-14.9-6.8-14.9
			c-11.7,0-16.5,14.1-14.3,25.7c2.7-9.8,7.9-15,17.6-16.7c-7,5.6-9.7,11.4-8.6,20.9c6.2-13.6,18.5-6.8,24.2-20.4
			c1.4,7.6,0.1,19-10.8,24.3c-12.2,5.9-22.4,3.2-32,14.4c-2.7-22.6-17.3-27.7-31.2-42.6c-18-19.3-17-46.1-8.3-60.4
			c-2.1,14.3,0.5,27.4,9.2,38.7c-5.1-17.1-4.2-35.1,4.2-49c-1.2,9.3-1,14.3,2,22.6c0.9-18,8.5-30.7,22.8-41.5
			c-5.7,9.6-8.6,22-7,31.9c6.3-25.9,24.1-37,36.7-40.6c-4.3,5.4-7,11.5-8.2,18.2c9.4-19.6,27.8-22.3,37.8-28.3
			c7.2-4.3,4.2-12.3-0.2-12.3c-2.4,0-3.8,1.4-5.1,4c1-5.2,4.4-7.9,8-7.9c5.3,0,9.3,5.2,9.3,11.7c0,17.3-22.9,29.5-49,44.3
			c-22.4,12.7-32.5,22.3-35.8,40c-3.4,18,5.9,35.2,5.9,35.2s-8.6-29.6,4.6-47.9c12-16.6,30.3-23.9,47.2-33.9
			c18.7-11,35.9-22.6,30.7-41.5c9.5,9.5,12.7,24.3,5.3,33.4c-9.6,11.7-28.5,14.2-36,21.7c13.2-6.6,25.2-4.1,34.7-7.9
			c9.3-3.7,9.2-14.3,9.2-14.3C730.9-421.3,727.1-406,711.7-400.4z M603.3-323.1c-7.4-0.2-15.5,4.8-15.2,10.1
			C580.8-322.7,594.4-326.6,603.3-323.1z M685.9-331.5c9.4,9.2-4.7,15.6-14.8,13.3C679.2-319.1,687.1-325.8,685.9-331.5z
			 M704.6-361.7c5.7,8.7,4.5,24.1-7.4,18.5C702.9-344,706.5-353.8,704.6-361.7z M608.8-280.9c-7.1,11.1-16.3-1.3-16.1-11.7
			C595.3-285,603.5-278.6,608.8-280.9z"/>
		<path style="fill:#3B2E83;" d="M457.7-357.5c-12.8-21.2-8.6-44-2-51.8c-8.3,7.4-12.7,13.2-14.5,25.5c-7.7-6.7-12.5-8.7-21.7-10.5
			c14.2,8.8,19.8,19.8,24.2,34.7c-4-7.4-10.5-13.1-18.2-16c6.3,6.1,3.9,11.7,7.9,21.7c2.5,6.4,6.6,10.4,10.5,12.3c0,0-5.6,1-10-4.1
			c7.6,23.6,33.5,14.1,46.2,25.4c-10.8-5.2-27.5,0.2-27.5,15.6c0,9.6,8.2,17,16.8,17c8.5,0,13.6-5.8,13.6-11.3
			c0-4.9-2.5-7.4-5.1-8.3c2.6,3.6,0.4,8.5-4.1,8.5c-3.1,0-6.3-2.5-6.3-6.5c0-6.3,5.8-8.8,10.8-8.8c6.7,0,13.1,2.9,15.1,8.5
			C496-329.3,470.3-336.7,457.7-357.5z M571.9-400.4c-16.1,5.9-34.7-1.7-51.4,7.7c17.9-6.2,38.6-3.2,50.1,15.8
			c-4.6-4.6-13.3-6.2-20-6.2c15.6,8.7,13.8,31.7-0.5,36.2c0,0,4.6-3.2,4.6-11.5c0-11.1-9.8-20.3-28-20.3c-12.4,0-22.9,5.2-27.5,13.9
			c4.9-5.8,13.3-9.9,22.6-9.9c13.3,0,18.6,9.8,18.7,17.5c0.1,8.1-5.1,13.6-9.4,15.9c5.7-6.3,1.2-14.9-6.8-14.9
			c-11.7,0-16.5,14.1-14.3,25.7c2.7-9.8,7.9-15,17.6-16.7c-7,5.6-9.7,11.4-8.6,20.9c6.2-13.6,18.5-6.8,24.2-20.4
			c1.4,7.6,0.1,19-10.8,24.3c-12.2,5.9-22.4,3.2-32,14.4c-2.7-22.6-17.3-27.7-31.2-42.6c-18-19.3-17-46.1-8.3-60.4
			c-2.1,14.3,0.5,27.4,9.2,38.7c-5.1-17.1-4.2-35.1,4.2-49c-1.2,9.3-1,14.3,2,22.6c0.9-18,8.5-30.7,22.8-41.5
			c-5.7,9.6-8.6,22-7,31.9c6.3-25.9,24.1-37,36.7-40.6c-4.3,5.4-7,11.5-8.2,18.2c9.4-19.6,27.8-22.3,37.8-28.3
			c7.2-4.3,4.2-12.3-0.2-12.3c-2.4,0-3.8,1.4-5.1,4c1-5.2,4.4-7.9,8-7.9c5.3,0,9.3,5.2,9.3,11.7c0,17.3-22.9,29.5-49,44.3
			c-22.4,12.7-32.5,22.3-35.8,40c-3.4,18,5.9,35.2,5.9,35.2s-8.6-29.6,4.6-47.9c12-16.6,30.3-23.9,47.3-33.9
			c18.7-11,35.9-22.6,30.7-41.5c9.5,9.5,12.7,24.3,5.3,33.4c-9.6,11.7-28.5,14.2-36,21.7c13.2-6.6,25.2-4.1,34.7-7.9
			c9.3-3.7,9.2-14.3,9.2-14.3C591.1-421.3,587.3-406,571.9-400.4z M463.5-323.1c-7.4-0.2-15.5,4.8-15.2,10.1
			C441-322.7,454.6-326.6,463.5-323.1z M546.1-331.5c9.4,9.2-4.7,15.6-14.8,13.3C539.3-319.1,547.3-325.8,546.1-331.5z M564.8-361.7
			c5.7,8.7,4.5,24.1-7.4,18.5C563.1-344,566.7-353.8,564.8-361.7z M469-280.9c-7.1,11.1-16.3-1.3-16.1-11.7
			C455.4-285,463.7-278.6,469-280.9z"/>
		<path style="fill:#3B2E83;" d="M317.8-357.5c-12.8-21.2-8.6-44-2-51.8c-8.3,7.4-12.7,13.2-14.5,25.5c-7.7-6.7-12.5-8.7-21.7-10.5
			c14.2,8.8,19.8,19.8,24.2,34.7c-4-7.4-10.5-13.1-18.2-16c6.3,6.1,3.9,11.7,7.9,21.7c2.5,6.4,6.6,10.4,10.5,12.3c0,0-5.6,1-10-4.1
			c7.6,23.6,33.5,14.1,46.2,25.4c-10.8-5.2-27.5,0.2-27.5,15.6c0,9.6,8.2,17,16.8,17c8.5,0,13.6-5.8,13.6-11.3
			c0-4.9-2.5-7.4-5.1-8.3c2.6,3.6,0.4,8.5-4.1,8.5c-3.1,0-6.3-2.5-6.3-6.5c0-6.3,5.8-8.8,10.8-8.8c6.7,0,13.1,2.9,15.1,8.5
			C356.2-329.3,330.5-336.7,317.8-357.5z M432.1-400.4c-16.1,5.9-34.7-1.7-51.4,7.7c17.9-6.2,38.6-3.2,50.1,15.8
			c-4.6-4.6-13.3-6.2-20-6.2c15.6,8.7,13.8,31.7-0.5,36.2c0,0,4.6-3.2,4.6-11.5c0-11.1-9.8-20.3-28-20.3c-12.4,0-22.9,5.2-27.5,13.9
			c4.9-5.8,13.3-9.9,22.6-9.9c13.3,0,18.6,9.8,18.7,17.5c0.1,8.1-5.1,13.6-9.4,15.9c5.7-6.3,1.2-14.9-6.8-14.9
			c-11.7,0-16.5,14.1-14.3,25.7c2.7-9.8,7.9-15,17.6-16.7c-7,5.6-9.7,11.4-8.6,20.9c6.2-13.6,18.5-6.8,24.2-20.4
			c1.4,7.6,0.1,19-10.8,24.3c-12.2,5.9-22.4,3.2-32,14.4c-2.7-22.6-17.3-27.7-31.2-42.6c-18-19.3-17-46.1-8.3-60.4
			c-2.1,14.3,0.5,27.4,9.2,38.7c-5.1-17.1-4.2-35.1,4.2-49c-1.2,9.3-1,14.3,2,22.6c0.9-18,8.5-30.7,22.8-41.5
			c-5.7,9.6-8.6,22-7,31.9c6.3-25.9,24.1-37,36.7-40.6c-4.3,5.4-7,11.5-8.2,18.2c9.4-19.6,27.8-22.3,37.8-28.3
			c7.2-4.3,4.2-12.3-0.2-12.3c-2.4,0-3.8,1.4-5.1,4c1-5.2,4.4-7.9,8-7.9c5.3,0,9.3,5.2,9.3,11.7c0,17.3-22.9,29.5-49,44.3
			c-22.4,12.7-32.5,22.3-35.8,40c-3.4,18,5.9,35.2,5.9,35.2s-8.6-29.6,4.6-47.9c12-16.6,30.3-23.9,47.2-33.9
			c18.7-11,35.9-22.6,30.7-41.5c9.5,9.5,12.7,24.3,5.3,33.4c-9.6,11.7-28.5,14.2-36,21.7c13.2-6.6,25.2-4.1,34.7-7.9
			c9.3-3.7,9.2-14.3,9.2-14.3C451.3-421.3,447.5-406,432.1-400.4z M323.7-323.1c-7.4-0.2-15.5,4.8-15.2,10.1
			C301.2-322.7,314.8-326.6,323.7-323.1z M406.3-331.5c9.4,9.2-4.7,15.6-14.8,13.3C399.5-319.1,407.5-325.8,406.3-331.5z M425-361.7
			c5.7,8.7,4.5,24.1-7.4,18.5C423.3-344,426.9-353.8,425-361.7z M329.2-280.9c-7.1,11.1-16.3-1.3-16.1-11.7
			C315.6-285,323.8-278.6,329.2-280.9z"/>
	</g>
</pattern>
<g id="guides-back" style="display:none;">
	<g id="background.svg_2_">
		
			<rect x="-2075" y="1816.4" transform="matrix(-0.9397 -0.342 0.342 -0.9397 2932.7134 23349.8418)" style="display:inline;fill:#FFFFFF;fill-opacity:0.1;" width="11200" height="19200"/>
		
			<rect x="-5934.8" y="1833.6" transform="matrix(-0.766 -0.6428 0.6428 -0.766 -7940.7378 19977.084)" style="display:inline;fill:#FFFFFF;fill-opacity:0.1;" width="11200" height="19200"/>
		
			<rect x="-9567.8" y="529.7" transform="matrix(-0.5 -0.866 0.866 -0.5 -14724.2666 11758.4258)" style="display:inline;fill:#FFFFFF;fill-opacity:0.1;" width="11200" height="19200"/>
		
			<rect x="-12535.6" y="-1938.1" transform="matrix(-0.1736 -0.9848 0.9848 -0.1736 -15685.5557 2162.1479)" style="display:inline;fill:#FFFFFF;fill-opacity:0.1;" width="11200" height="19200"/>
		
			<rect x="-14480.5" y="-5272.1" transform="matrix(0.1736 -0.9848 0.9848 0.1736 -11600.5742 -5169.2251)" style="display:inline;fill:#FFFFFF;fill-opacity:0.1;" width="11200" height="19200"/>
		
			<rect x="-15167.8" y="-9070.3" transform="matrix(0.5 -0.866 0.866 0.5 -5242.6548 -8021.0596)" style="display:inline;fill:#FFFFFF;fill-opacity:0.1;" width="11200" height="19200"/>
		
			<rect x="-14514.5" y="-12874.4" transform="matrix(0.766 -0.6428 0.6428 0.766 19.1489 -6496.2207)" style="display:inline;fill:#FFFFFF;fill-opacity:0.1;" width="11200" height="19200"/>
		
			<rect x="-12599.6" y="-16225.7" transform="matrix(0.9397 -0.342 0.342 0.9397 1844.0081 -2793.584)" style="display:inline;fill:#FFFFFF;fill-opacity:0.1;" width="11200" height="19200"/>
		<rect x="-9653.9" y="-18720" style="display:inline;fill:#FFFFFF;fill-opacity:0.1;" width="11200" height="19200"/>
		
			<rect x="-6032.8" y="-20056.4" transform="matrix(0.9397 0.342 -0.342 0.9397 -3602.3884 -482.5662)" style="display:inline;fill:#FFFFFF;fill-opacity:0.1;" width="11200" height="19200"/>
		
			<rect x="-2173" y="-20073.6" transform="matrix(0.766 0.6428 -0.6428 0.766 -5930.562 -4653.1914)" style="display:inline;fill:#FFFFFF;fill-opacity:0.1;" width="11200" height="19200"/>
		
			<rect x="1459.9" y="-18769.7" transform="matrix(0.5 0.866 -0.866 0.5 -4411.27 -10698.9404)" style="display:inline;fill:#FFFFFF;fill-opacity:0.1;" width="11200" height="19200"/>
		
			<rect x="4427.8" y="-16301.9" transform="matrix(0.1736 0.9848 -0.9848 0.1736 1686.3621 -15413.6201)" style="display:inline;fill:#FFFFFF;fill-opacity:0.1;" width="11200" height="19200"/>
	</g>
	<g id="background.svg_3_">
		
			<rect x="-2655" y="1816.4" transform="matrix(-0.9397 -0.342 0.342 -0.9397 1807.6917 23151.4688)" style="display:inline;fill:#FFFFFF;fill-opacity:0.1;" width="11200" height="19200"/>
		
			<rect x="-6514.8" y="1833.6" transform="matrix(-0.766 -0.6428 0.6428 -0.766 -8965.0439 19604.2656)" style="display:inline;fill:#FFFFFF;fill-opacity:0.1;" width="11200" height="19200"/>
		
			<rect x="-10147.8" y="529.7" transform="matrix(-0.5 -0.866 0.866 -0.5 -15594.2666 11256.1309)" style="display:inline;fill:#FFFFFF;fill-opacity:0.1;" width="11200" height="19200"/>
		
			<rect x="-13115.6" y="-1938.1" transform="matrix(-0.1736 -0.9848 0.9848 -0.1736 -16366.2715 1590.9595)" style="display:inline;fill:#FFFFFF;fill-opacity:0.1;" width="11200" height="19200"/>
		
			<rect x="-15060.5" y="-5272.1" transform="matrix(0.1736 -0.9848 0.9848 0.1736 -12079.8584 -5740.4136)" style="display:inline;fill:#FFFFFF;fill-opacity:0.1;" width="11200" height="19200"/>
		
			<rect x="-15747.8" y="-9070.3" transform="matrix(0.5 -0.866 0.866 0.5 -5532.6548 -8523.3545)" style="display:inline;fill:#FFFFFF;fill-opacity:0.1;" width="11200" height="19200"/>
		
			<rect x="-15094.5" y="-12874.4" transform="matrix(0.766 -0.6428 0.6428 0.766 -116.5454 -6869.0376)" style="display:inline;fill:#FFFFFF;fill-opacity:0.1;" width="11200" height="19200"/>
		
			<rect x="-13179.6" y="-16225.7" transform="matrix(0.9397 -0.342 0.342 0.9397 1809.0298 -2991.9558)" style="display:inline;fill:#FFFFFF;fill-opacity:0.1;" width="11200" height="19200"/>
		<rect x="-10233.9" y="-18720" style="display:inline;fill:#FFFFFF;fill-opacity:0.1;" width="11200" height="19200"/>
		
			<rect x="-6612.8" y="-20056.4" transform="matrix(0.9397 0.342 -0.342 0.9397 -3637.3667 -284.1945)" style="display:inline;fill:#FFFFFF;fill-opacity:0.1;" width="11200" height="19200"/>
		
			<rect x="-2753" y="-20073.6" transform="matrix(0.766 0.6428 -0.6428 0.766 -6066.2563 -4280.3745)" style="display:inline;fill:#FFFFFF;fill-opacity:0.1;" width="11200" height="19200"/>
		
			<rect x="879.9" y="-18769.7" transform="matrix(0.5 0.866 -0.866 0.5 -4701.27 -10196.6455)" style="display:inline;fill:#FFFFFF;fill-opacity:0.1;" width="11200" height="19200"/>
		
			<rect x="3847.8" y="-16301.9" transform="matrix(0.1736 0.9848 -0.9848 0.1736 1207.078 -14842.4316)" style="display:inline;fill:#FFFFFF;fill-opacity:0.1;" width="11200" height="19200"/>
	</g>
</g>
<g id="background" style="display:none;">
	<g id="group_1_" style="display:inline;">
		
			<radialGradient id="SVGID_1_" cx="1.2785" cy="960.088" r="0.5" gradientTransform="matrix(560 0 0 -960 -305.4915 922164.5)" gradientUnits="userSpaceOnUse">
			<stop  offset="0" style="stop-color:#DBDBDB"/>
			<stop  offset="0.5" style="stop-color:#525252"/>
			<stop  offset="1" style="stop-color:#000000"/>
		</radialGradient>
		<rect x="0" style="fill:url(#SVGID_1_);" width="560" height="960"/>
		
			<rect x="-3235" y="1816.4" transform="matrix(-0.9397 -0.342 0.342 -0.9397 682.67 22953.0977)" style="fill:#FFFFFF;fill-opacity:0.1;" width="11200" height="19200"/>
		
			<rect x="-7094.8" y="1833.6" transform="matrix(-0.766 -0.6428 0.6428 -0.766 -9989.3496 19231.4492)" style="fill:#FFFFFF;fill-opacity:0.1;" width="11200" height="19200"/>
		
			<rect x="-10727.8" y="529.7" transform="matrix(-0.5 -0.866 0.866 -0.5 -16464.2656 10753.8369)" style="fill:#FFFFFF;fill-opacity:0.1;" width="11200" height="19200"/>
		
			<rect x="-13695.6" y="-1938.1" transform="matrix(-0.1736 -0.9848 0.9848 -0.1736 -17046.9883 1019.7709)" style="fill:#FFFFFF;fill-opacity:0.1;" width="11200" height="19200"/>
		
			<rect x="-15640.5" y="-5272.1" transform="matrix(0.1736 -0.9848 0.9848 0.1736 -12559.1426 -6311.6021)" style="fill:#FFFFFF;fill-opacity:0.1;" width="11200" height="19200"/>
		
			<rect x="-16327.8" y="-9070.3" transform="matrix(0.5 -0.866 0.866 0.5 -5822.6548 -9025.6494)" style="fill:#FFFFFF;fill-opacity:0.1;" width="11200" height="19200"/>
		
			<rect x="-15674.5" y="-12874.4" transform="matrix(0.766 -0.6428 0.6428 0.766 -252.2396 -7241.8545)" style="fill:#FFFFFF;fill-opacity:0.1;" width="11200" height="19200"/>
		
			<rect x="-13759.6" y="-16225.7" transform="matrix(0.9397 -0.342 0.342 0.9397 1774.0515 -3190.3274)" style="fill:#FFFFFF;fill-opacity:0.1;" width="11200" height="19200"/>
		<rect x="-10813.9" y="-18720" style="fill:#FFFFFF;fill-opacity:0.1;" width="11200" height="19200"/>
		
			<rect x="-7192.8" y="-20056.4" transform="matrix(0.9397 0.342 -0.342 0.9397 -3672.345 -85.8228)" style="fill:#FFFFFF;fill-opacity:0.1;" width="11200" height="19200"/>
		
			<rect x="-3333" y="-20073.6" transform="matrix(0.766 0.6428 -0.6428 0.766 -6201.9502 -3907.5576)" style="fill:#FFFFFF;fill-opacity:0.1;" width="11200" height="19200"/>
		
			<rect x="299.9" y="-18769.7" transform="matrix(0.5 0.866 -0.866 0.5 -4991.27 -9694.3516)" style="fill:#FFFFFF;fill-opacity:0.1;" width="11200" height="19200"/>
		
			<rect x="3267.8" y="-16301.9" transform="matrix(0.1736 0.9848 -0.9848 0.1736 727.794 -14271.2432)" style="fill:#FFFFFF;fill-opacity:0.1;" width="11200" height="19200"/>
		
			<rect x="5212.7" y="-12967.9" transform="matrix(-0.1736 0.9848 -0.9848 -0.1736 9373.5225 -14601.1211)" style="fill:#FFFFFF;fill-opacity:0.1;" width="11200" height="19200"/>
		
			<rect x="5899.9" y="-9169.7" transform="matrix(-0.5 0.866 -0.866 -0.5 17622.4922 -9313.835)" style="fill:#FFFFFF;fill-opacity:0.1;" width="11200" height="19200"/>
		
			<rect x="5246.7" y="-5365.6" transform="matrix(-0.766 0.6428 -0.6428 -0.766 21877.5586 506.0512)" style="fill:#FFFFFF;fill-opacity:0.1;" width="11200" height="19200"/>
		
			<rect x="3331.7" y="-2014.3" transform="matrix(-0.9397 0.342 -0.342 -0.9397 19919.3203 11659.1582)" style="fill:#FFFFFF;fill-opacity:0.1;" width="11200" height="19200"/>
		<rect x="386.1" y="480" style="fill:#FFFFFF;fill-opacity:0.1;" width="11200" height="19200"/>
	</g>
</g>
<g id="nothing.svg">
</g>
<g id="splash.svg">
</g>
<g id="title.svg">
</g>
<g id="roses.svg">
</g>
<g id="worry.svg">
</g>
<g id="be-happy.svg">
</g>
<g id="top-bottom.svg">
</g>
<g id="top.svg">
</g>
<g id="bottom.svg">
</g>
</svg>
